<?xml version="1.0" encoding="utf-8"?>
<!-- Generator: Adobe Illustrator 16.0.3, SVG Export Plug-In . SVG Version: 6.00 Build 0)  -->
<!DOCTYPE svg PUBLIC "-//W3C//DTD SVG 1.1//EN" "http://www.w3.org/Graphics/SVG/1.1/DTD/svg11.dtd">
<svg version="1.1" id="Ebene_1" xmlns="http://www.w3.org/2000/svg" xmlns:xlink="http://www.w3.org/1999/xlink" x="0px" y="0px"
	 width="20px" height="20px" viewBox="0 0 20 20" enable-background="new 0 0 20 20" xml:space="preserve">
<g>
	<g>
		<path fill="#F2F2F2" d="M-0.104,10.268C-0.67,9.703-1.234,9.138-1.8,8.573C-2.082,8.11-2.599,7.697-3.537,7.697
			c-0.449,0-0.793,0.101-1.06,0.26c-0.082,0.007-0.16,0.041-0.221,0.102c-0.737,0.737-1.475,1.475-2.212,2.211
			c-0.137,0.137-0.136,0.368,0.002,0.503c0.139,0.136,0.366,0.134,0.503-0.002c0.348-0.348,0.693-0.694,1.04-1.041
			c-0.005,0.151,0.003,0.247,0.003,0.247v2.459h0.641c0,1.042,0,2.083,0,3.125c0,0.194,0.157,0.357,0.353,0.358
			c0.192,0.001,0.358-0.159,0.358-0.354c0-1.042,0-2.085,0-3.127c0-0.001,0-0.002,0-0.003h1.303c0,1.042,0,2.083,0,3.125
			c0,0.194,0.158,0.357,0.353,0.358c0.193,0.001,0.358-0.159,0.358-0.354c0-1.042,0-2.085,0-3.127c0-0.001,0-0.002,0-0.003h0.658
			V9.921c0.286,0.284,0.57,0.569,0.854,0.853c0.136,0.137,0.367,0.134,0.503-0.002C0.035,10.633,0.032,10.405-0.104,10.268z"/>
	</g>
</g>
<g>
	<path fill="#333333" d="M10.115-6.861c0.52,0,0.865-0.289,2.134-0.289c-0.347,0.577-0.692,1.096-2.075,1.153L10.115-6.861z
		 M13.575-15.511v-1.153c1.097-0.461,2.941-0.577,4.151-0.231v1.211C16.517-16.03,14.672-15.915,13.575-15.511z M13.575-13.954
		v-1.211c1.097-0.403,2.941-0.519,4.151-0.23v1.269C16.517-14.473,14.672-14.416,13.575-13.954z M13.575-12.397v-1.21
		c1.097-0.403,2.941-0.519,4.151-0.231v1.269C16.517-12.916,14.672-12.858,13.575-12.397z M13.633-10.897l-0.058-1.154
		c1.097-0.461,2.941-0.577,4.151-0.23v1.211C16.517-11.417,14.672-11.301,13.633-10.897z M4.696-15.107v-1.096
		c2.767-1.211,5.073-3.749,8.13-2.941v1.211C9.77-18.74,7.463-16.26,4.696-15.107z M13.633-9.283v-1.211
		c1.039-0.173,2.884-0.519,4.094-0.23v1.269C16.517-9.802,14.672-9.514,13.633-9.283z M4.696-13.55v-1.096
		c2.767-1.211,5.073-3.69,8.13-2.941v1.269C9.77-17.183,7.463-14.704,4.696-13.55z M17.727-7.957c-1.21-0.346-3.113,0.058-4.208,0
		l0.057-1.038c1.097,0.058,2.941-0.519,4.151-0.23V-7.957z M4.696-11.993v-1.096c2.767-1.211,5.073-3.69,8.13-2.94v1.269
		C9.77-15.626,7.463-13.146,4.696-11.993z M12.538-6.169c0.345-0.23,0.576-0.865,0.808-1.326c1.095-0.173,2.825-0.173,4.381,0v1.038
		C15.479-6.688,13.921-6.573,12.538-6.169z M4.696-10.494v-1.096c2.767-1.211,5.073-3.748,8.13-2.941v1.211
		C9.77-14.127,7.463-11.647,4.696-10.494z M4.696-8.938v-1.095c2.767-1.211,5.073-3.691,8.13-2.941v1.269
		C9.77-12.57,7.463-10.09,4.696-8.938z M10.001-8.015c0.749-0.288,1.672-0.346,2.537-0.173c0,0.23-0.058,0.461-0.175,0.634
		c-0.748,0-1.613,0-2.306,0.289L10.001-8.015z M4.696-7.438v-1.096c2.767-1.211,5.073-3.69,8.13-2.941v1.269
		C9.77-11.071,7.463-8.591,4.696-7.438z M4.696-5.881v-1.095c2.767-1.211,5.073-3.749,8.13-2.941v1.211
		C9.77-9.514,7.81-7.668,4.696-5.881z M2.562,0h0.691c0.174,0,0.288-0.115,0.288-0.288v-16.896c0.404-0.231,0.751-0.692,0.751-1.211
		c0-0.75-0.635-1.384-1.326-1.384c-0.749,0-1.385,0.634-1.385,1.384c0,0.519,0.288,0.923,0.692,1.211v16.896
		C2.273-0.115,2.388,0,2.562,0z M4.753-5.189c2.076-1.326,3.345-2.249,4.671-2.768L9.54-5.938c0,0.403,0.346,0.577,0.691,0.519
		c2.653-0.347,4.671-0.808,7.554-0.461c0.346,0,0.634-0.231,0.634-0.519v-10.553c0-0.173-0.115-0.403-0.346-0.403
		c-1.729-0.346-3.229-0.289-4.44,0.058v-2.076c0-0.231-0.114-0.403-0.287-0.461c-2.884-0.807-5.94,1.557-8.881,2.999
		c-0.115,0.058-0.173,0.173-0.173,0.231L4.177-5.477C4.177-5.189,4.522-5.016,4.753-5.189z"/>
</g>
<g>
	<path fill="#F2F2F2" d="M10.115,13.138c0.52,0,0.865-0.289,2.134-0.289c-0.347,0.577-0.692,1.096-2.075,1.153L10.115,13.138z
		 M13.575,4.488V3.335c1.097-0.461,2.941-0.577,4.151-0.231v1.211C16.517,3.97,14.672,4.085,13.575,4.488z M13.575,6.045V4.834
		c1.097-0.403,2.941-0.519,4.151-0.23v1.269C16.517,5.527,14.672,5.584,13.575,6.045z M13.575,7.602v-1.21
		c1.097-0.403,2.941-0.519,4.151-0.231v1.269C16.517,7.083,14.672,7.141,13.575,7.602z M13.633,9.102l-0.058-1.154
		c1.097-0.461,2.941-0.577,4.151-0.23v1.211C16.517,8.583,14.672,8.698,13.633,9.102z M4.696,4.893V3.797
		c2.767-1.211,5.073-3.749,8.13-2.941v1.211C9.77,1.259,7.463,3.739,4.696,4.893z M13.633,10.716V9.505
		c1.039-0.173,2.884-0.519,4.094-0.23v1.269C16.517,10.197,14.672,10.486,13.633,10.716z M4.696,6.449V5.354
		c2.767-1.211,5.073-3.69,8.13-2.941v1.269C9.77,2.816,7.463,5.296,4.696,6.449z M17.727,12.042c-1.21-0.346-3.113,0.058-4.208,0
		l0.057-1.038c1.097,0.058,2.941-0.519,4.151-0.23V12.042z M4.696,8.006V6.91c2.767-1.211,5.073-3.69,8.13-2.94v1.269
		C9.77,4.373,7.463,6.853,4.696,8.006z M12.538,13.83c0.345-0.23,0.576-0.865,0.808-1.326c1.095-0.173,2.825-0.173,4.381,0v1.038
		C15.479,13.311,13.921,13.427,12.538,13.83z M4.696,9.505V8.41c2.767-1.211,5.073-3.748,8.13-2.941V6.68
		C9.77,5.873,7.463,8.352,4.696,9.505z M4.696,11.062V9.967c2.767-1.211,5.073-3.691,8.13-2.941v1.269
		C9.77,7.43,7.463,9.909,4.696,11.062z M10.001,11.985c0.749-0.288,1.672-0.346,2.537-0.173c0,0.23-0.058,0.461-0.175,0.634
		c-0.748,0-1.613,0-2.306,0.289L10.001,11.985z M4.696,12.562v-1.096c2.767-1.211,5.073-3.69,8.13-2.941v1.269
		C9.77,8.929,7.463,11.409,4.696,12.562z M4.696,14.118v-1.095c2.767-1.211,5.073-3.749,8.13-2.941v1.211
		C9.77,10.486,7.81,12.331,4.696,14.118z M2.562,20h0.691c0.174,0,0.288-0.115,0.288-0.288V2.816
		c0.404-0.231,0.751-0.692,0.751-1.211c0-0.75-0.635-1.384-1.326-1.384c-0.749,0-1.385,0.634-1.385,1.384
		c0,0.519,0.288,0.923,0.692,1.211v16.896C2.273,19.885,2.388,20,2.562,20z M4.753,14.811c2.076-1.326,3.345-2.249,4.671-2.768
		l0.116,2.019c0,0.403,0.346,0.577,0.691,0.519c2.653-0.347,4.671-0.808,7.554-0.461c0.346,0,0.634-0.231,0.634-0.519V3.047
		c0-0.173-0.115-0.403-0.346-0.403c-1.729-0.346-3.229-0.289-4.44,0.058V0.625c0-0.231-0.114-0.403-0.287-0.461
		c-2.884-0.807-5.94,1.557-8.881,2.999C4.35,3.22,4.292,3.335,4.292,3.393L4.177,14.522C4.177,14.811,4.522,14.983,4.753,14.811z"/>
</g>
<g>
	<path fill="#333333" d="M32.467-20v2.308h2.95l-1.764,1.764l-1.086-1.085l-1.631,1.631l1.085,1.085l-0.574,0.575v-0.001
		c-1.162-0.747-2.546-1.182-4.031-1.182c-4.12,0-7.453,3.334-7.453,7.453S23.296,0,27.416,0c4.119,0,7.452-3.333,7.452-7.452
		c0-1.486-0.434-2.869-1.182-4.031l0,0l0.574-0.575l1.089,1.089L36.98-12.6l-1.088-1.089l1.764-1.764v2.949h2.307v-5.188V-20H32.467
		z M27.416-3.167c-2.368,0-4.286-1.917-4.286-4.285c0-2.369,1.918-4.285,4.286-4.285s4.285,1.916,4.285,4.285
		C31.701-5.083,29.784-3.167,27.416-3.167z"/>
</g>
<g>
	<path fill="#F2F2F2" d="M32.485,0v2.308h2.95l-1.764,1.764l-1.086-1.085l-1.631,1.631l1.085,1.085l-0.574,0.575V6.277
		c-1.162-0.747-2.546-1.182-4.031-1.182c-4.12,0-7.453,3.334-7.453,7.453S23.314,20,27.435,20c4.119,0,7.452-3.333,7.452-7.452
		c0-1.486-0.434-2.869-1.182-4.031l0,0l0.574-0.575l1.089,1.089L36.999,7.4l-1.088-1.089l1.764-1.764v2.949h2.307V2.308V0H32.485z
		 M27.435,16.833c-2.368,0-4.286-1.917-4.286-4.285c0-2.369,1.918-4.285,4.286-4.285s4.285,1.916,4.285,4.285
		C31.72,14.917,29.803,16.833,27.435,16.833z"/>
</g>
</svg>
