<?xml version="1.0" encoding="utf-8"?>
<!-- Generator: Adobe Illustrator 16.0.3, SVG Export Plug-In . SVG Version: 6.00 Build 0)  -->
<!DOCTYPE svg PUBLIC "-//W3C//DTD SVG 1.1//EN" "http://www.w3.org/Graphics/SVG/1.1/DTD/svg11.dtd">
<svg version="1.1" xmlns="http://www.w3.org/2000/svg" xmlns:xlink="http://www.w3.org/1999/xlink" x="0px" y="0px" width="20px"
	 height="20px" viewBox="0 0 20 20" enable-background="new 0 0 20 20" xml:space="preserve">
<g id="Ebene_1">
</g>
<g id="Ebene_4">
	<path fill="#333333" d="M-1.554,0h-16.893C-19.303,0-20,0.698-20,1.554v16.892C-20,19.302-19.303,20-18.446,20h8.589h3.97h4.334
		C-0.698,20,0,19.302,0,18.446V1.554C0,0.698-0.698,0-1.554,0z M-8.839,18.99v-7.374h-2.475V9.798h2.475V7.162
		c0-1.042,0.298-1.89,0.868-2.454c0.549-0.542,1.354-0.829,2.316-0.829c0.676,0,1.26,0.033,1.715,0.066v1.6l-1.034,0
		c-1.925,0-1.946,1.43-1.946,1.9v2.353h2.79l-0.239,1.818H-6.92v7.374H-8.839z M-1.01,18.446c0,0.3-0.245,0.544-0.544,0.544h-4.355
		v-6.363h2.429l0.5-3.839h-2.929V7.446c0-0.349,0.057-0.566,0.155-0.684c0.116-0.137,0.391-0.207,0.786-0.207l2.038-0.001v-3.51
		l-0.449-0.059c-0.229-0.03-1.144-0.117-2.282-0.117c-1.233,0-2.275,0.388-3.017,1.12c-0.768,0.758-1.171,1.855-1.171,3.173v1.626
		h-2.475v3.839h2.475v6.363h-8.598c-0.3,0-0.544-0.244-0.544-0.544V1.554c0-0.3,0.244-0.544,0.544-0.544h16.893
		c0.299,0,0.544,0.244,0.544,0.544V18.446z"/>
	<path fill="#F2F2F2" d="M-1.554,20h-16.893C-19.303,20-20,20.698-20,21.554v16.892C-20,39.302-19.303,40-18.446,40h8.589h3.97
		h4.334C-0.698,40,0,39.302,0,38.446V21.554C0,20.698-0.698,20-1.554,20z M-8.839,38.99v-7.374h-2.475v-1.818h2.475v-2.637
		c0-1.042,0.298-1.89,0.868-2.454c0.549-0.542,1.354-0.829,2.316-0.829c0.676,0,1.26,0.033,1.715,0.066v1.6l-1.034,0
		c-1.925,0-1.946,1.43-1.946,1.9v2.353h2.79l-0.239,1.818H-6.92v7.374H-8.839z M-1.01,38.446c0,0.3-0.245,0.544-0.544,0.544h-4.355
		v-6.363h2.429l0.5-3.839h-2.929v-1.342c0-0.349,0.057-0.566,0.155-0.684c0.116-0.137,0.391-0.207,0.786-0.207l2.038-0.001v-3.51
		l-0.449-0.059c-0.229-0.03-1.144-0.117-2.282-0.117c-1.233,0-2.275,0.388-3.017,1.12c-0.768,0.758-1.171,1.855-1.171,3.173v1.626
		h-2.475v3.839h2.475v6.363h-8.598c-0.3,0-0.544-0.244-0.544-0.544V21.554c0-0.3,0.244-0.544,0.544-0.544h16.893
		c0.299,0,0.544,0.244,0.544,0.544V38.446z"/>
	<g id="Your_Icon">
		<g>
			<path fill="#333333" d="M19.732,2.048c-0.165-0.098-0.371-0.1-0.539-0.006c-3.563,1.979-7.94,3.012-13.774,3.249
				C5.127,5.303,4.898,5.542,4.898,5.833v5.624c0,0.291,0.229,0.53,0.521,0.542c5.834,0.236,10.211,1.269,13.774,3.249
				c0.082,0.045,0.173,0.068,0.264,0.068c0.096,0,0.19-0.025,0.275-0.075C19.897,15.144,20,14.966,20,14.773V2.516
				C20,2.324,19.898,2.146,19.732,2.048z"/>
			<path fill="#333333" d="M3.328,5.317C1.492,5.317,0,6.81,0,8.646c0,1.834,1.492,3.327,3.328,3.327
				c0.299,0,0.543-0.243,0.543-0.543V5.86C3.871,5.561,3.627,5.317,3.328,5.317z"/>
			<path fill="#333333" d="M7.504,13.456c-0.091-0.268-0.335-0.451-0.616-0.466l-1.269-0.063c-0.225-0.01-0.443,0.09-0.58,0.27
				c-0.137,0.179-0.178,0.414-0.107,0.629l1.139,3.725c0.092,0.284,0.355,0.476,0.653,0.476h1.317c0.001-0.001,0.001-0.001,0.002,0
				c0.379,0,0.687-0.309,0.687-0.688c0-0.096-0.02-0.186-0.055-0.269L7.504,13.456z"/>
		</g>
	</g>
	<g id="Your_Icon_2_">
		<path fill="#333333" d="M37.647,1.176H22.353c-1.3,0-2.353,1.053-2.353,2.353v8.235c0,1.299,1.053,2.353,2.353,2.353h1.176v4.118
			c0,0.151,0.057,0.301,0.173,0.417c0.229,0.23,0.602,0.23,0.832,0l4.877-4.534h8.235c1.299,0,2.353-1.054,2.353-2.353V3.529
			C40,2.229,38.946,1.176,37.647,1.176z M24.118,4.706h9.412c0.325,0,0.588,0.263,0.588,0.588s-0.263,0.588-0.588,0.588h-9.412
			c-0.325,0-0.588-0.263-0.588-0.588S23.792,4.706,24.118,4.706z M28.824,10.588h-4.706c-0.325,0-0.588-0.263-0.588-0.588
			s0.263-0.588,0.588-0.588h4.706c0.325,0,0.588,0.263,0.588,0.588S29.149,10.588,28.824,10.588z M35.882,8.235H24.118
			c-0.325,0-0.588-0.264-0.588-0.588c0-0.325,0.263-0.588,0.588-0.588h11.765c0.325,0,0.588,0.263,0.588,0.588
			C36.47,7.972,36.208,8.235,35.882,8.235z"/>
	</g>
</g>
</svg>
