<?xml version="1.0" encoding="utf-8"?>
<!-- Generator: Adobe Illustrator 16.0.3, SVG Export Plug-In . SVG Version: 6.00 Build 0)  -->
<!DOCTYPE svg PUBLIC "-//W3C//DTD SVG 1.1//EN" "http://www.w3.org/Graphics/SVG/1.1/DTD/svg11.dtd">
<svg version="1.1" id="Ebene_1" xmlns="http://www.w3.org/2000/svg" xmlns:xlink="http://www.w3.org/1999/xlink" x="0px" y="0px"
	 width="20px" height="20px" viewBox="0 0 20 20" enable-background="new 0 0 20 20" xml:space="preserve">
<g>
	<path fill="#333333" d="M-2.111,11.538l0.403,0.001l0.823,2.875c0.063,0.222,0.31,0.343,0.551,0.273
		c0.241-0.068,0.394-0.279,0.312-0.556l-0.847-2.95c-0.338-1.18-1.325-1.143-1.325-1.143h-2.104c0,0-0.987-0.037-1.326,1.143
		l-0.848,2.95c-0.08,0.276,0.072,0.487,0.313,0.556c0.24,0.069,0.487-0.053,0.55-0.273l0.824-2.875l0.402-0.001l-1.101,3.837h4.474
		L-2.111,11.538z"/>
</g>
<g>
	<circle fill="#333333" cx="10" cy="6.676" r="2"/>
	<circle fill="#333333" cx="15.953" cy="7.415" r="1.664"/>
	<g>
		<path fill="#333333" d="M19.941,14.179l-1.288-3.12c-0.172,0.089-0.278,0.11-0.538,0.189c-0.201,0.059-1.077,0.274-3.108,0.274
			c-0.581,0-1.066-0.019-1.474-0.045v2.334c0,0.627,0.508,1.135,1.135,1.135h2.57c0.488,0,0.901-0.311,1.061-0.743l0.23,0.559
			c0.161,0.39,0.607,0.575,0.998,0.414C19.917,15.016,20.103,14.568,19.941,14.179z"/>
	</g>
	<circle fill="#333333" cx="4.047" cy="7.415" r="1.663"/>
	<g>
		<path fill="#333333" d="M0.058,14.179l1.289-3.12c0.172,0.089,0.277,0.11,0.538,0.189c0.201,0.059,1.076,0.274,3.108,0.274
			c0.58,0,1.066-0.019,1.473-0.045v2.334c0,0.627-0.508,1.135-1.134,1.135H2.761c-0.487,0-0.9-0.311-1.061-0.743l-0.23,0.559
			c-0.161,0.39-0.607,0.575-0.998,0.414C0.083,15.016-0.104,14.568,0.058,14.179z"/>
	</g>
	<path fill="#333333" d="M18.071,9.539c0,0-2.008,0.272-3.087,0.272c-0.725,0-1.866-0.094-2.539-0.175
		c-0.24-0.212-0.555-0.313-0.9-0.313h-3.09c-0.346,0-0.661,0.101-0.901,0.313C6.881,9.718,5.74,9.826,5.016,9.826
		c-1.079,0-3.087-0.28-3.087-0.28c-0.397,0-0.719,0.318-0.719,0.715c0,0.397,0.204,0.564,0.807,0.743c0,0,0.682,0.246,2.965,0.246
		c0.927,0,1.659-0.046,2.088-0.099v2.886c0,0.753,0.633,1.286,1.386,1.286h3.09c0.753,0,1.309-0.533,1.309-1.286v-2.886
		c0.643,0.053,1.199,0.099,2.126,0.099c2.283,0,2.989-0.248,2.989-0.248c0.603-0.179,0.814-0.347,0.814-0.744
		S18.468,9.539,18.071,9.539z"/>
</g>
</svg>
