<?xml version="1.0" encoding="utf-8"?>
<!-- Generator: Adobe Illustrator 21.0.0, SVG Export Plug-In . SVG Version: 6.00 Build 0)  -->
<svg version="1.1" xmlns="http://www.w3.org/2000/svg" xmlns:xlink="http://www.w3.org/1999/xlink" x="0px" y="0px"
	 viewBox="0 0 20 20" enable-background="new 0 0 20 20" xml:space="preserve">
<g id="Ebene_1">
</g>
<g id="Ebene_4">
	<g>
		<path fill="#333333" d="M4.99,9.32c0,1.266-1.026,2.289-2.287,2.289c-1.269,0-2.291-1.023-2.291-2.289
			c0-1.264,1.022-2.289,2.291-2.289C3.964,7.031,4.99,8.057,4.99,9.32z"/>
		<path fill="#333333" d="M15.011,9.32c0,1.266,1.026,2.289,2.287,2.289c1.268,0,2.294-1.023,2.294-2.289
			c0-1.264-1.026-2.289-2.295-2.289C16.037,7.031,15.011,8.057,15.011,9.32z"/>
		<path fill="#333333" d="M8.734,17.188C8.683,16.7,8.87,16.25,9.188,15.922c-1.937-0.37-2.731-1.316-3.422-2.17
			c-0.335-0.419-0.656-0.817-1.08-1.099c-0.014-0.008-0.028-0.008-0.039-0.019c-0.362-0.299-0.82-0.489-1.325-0.489H2.084
			C0.939,12.145,0,13.081,0,14.226V20h5.404v-3.732c0.788,0.691,1.903,1.347,3.616,1.634C8.878,17.693,8.767,17.458,8.734,17.188z"
			/>
		<path fill="#333333" d="M17.92,12.145h-1.24c-0.503,0-0.963,0.19-1.322,0.49c-0.014,0.01-0.029,0.01-0.039,0.018
			c-0.425,0.281-0.745,0.678-1.083,1.1c-0.758,0.938-1.617,2.008-4.022,2.273c-0.544,0.063-0.935,0.553-0.875,1.097
			c0.055,0.508,0.484,0.883,0.984,0.883c0.037,0,0.073-0.003,0.112-0.005c2.036-0.227,3.297-0.95,4.163-1.719V20H20v-5.774
			C20,13.081,19.063,12.145,17.92,12.145z"/>
		<g>
			<path fill="#333333" d="M10.854,6.724c0.367,0.044,0.696,0.044,1.072-0.003l0.064-0.008l0.043,0.047
				c0.678,0.735,1.417,0.997,1.883,0.997c0.069,0,0.123-0.006,0.162-0.014c-0.521-0.44-0.758-0.924-0.704-1.441L13.38,6.24
				l0.054-0.032c0.818-0.489,1.342-1.257,1.437-2.108c0.188-1.688-1.31-3.255-3.337-3.494c-2.06-0.237-3.83,0.971-4.016,2.626
				C7.329,4.919,8.826,6.486,10.854,6.724z"/>
			<path fill="#333333" d="M10.824,6.972C8.66,6.718,7.066,5.028,7.27,3.205C7.33,2.658,7.56,2.164,7.897,1.737
				C6.184,2.234,5.001,3.652,5.172,5.194c0.104,0.93,0.677,1.71,1.504,2.203c0.04,0.39-0.096,0.886-0.74,1.395
				c-0.103,0.08,0.037,0.171,0.321,0.171c0.44,0,1.229-0.221,1.983-1.038c0.187,0.024,0.377,0.037,0.572,0.037
				c0.177,0,0.356-0.01,0.536-0.032c0.864-0.102,1.61-0.436,2.216-0.935C11.319,7.006,11.078,7.003,10.824,6.972z"/>
		</g>
	</g>
</g>
</svg>
