<?xml version="1.0" encoding="utf-8"?>
<!-- Generator: Adobe Illustrator 16.0.3, SVG Export Plug-In . SVG Version: 6.00 Build 0)  -->
<!DOCTYPE svg PUBLIC "-//W3C//DTD SVG 1.1//EN" "http://www.w3.org/Graphics/SVG/1.1/DTD/svg11.dtd">
<svg version="1.1" xmlns="http://www.w3.org/2000/svg" xmlns:xlink="http://www.w3.org/1999/xlink" x="0px" y="0px" width="20px"
	 height="20px" viewBox="0 0 20 20" enable-background="new 0 0 20 20" xml:space="preserve">
<g id="Ebene_1">
</g>
<g id="Ebene_4">
	<g>
		<path fill="#333333" d="M-1.422,8.867L-4.311,6v0.022c-0.512-0.533-1.223-0.845-2.022-0.845C-7.356,5.178-8.2,6.2-10.022,6.2
			s-2.4-1.022-3.689-1.022c-0.8,0-1.511,0.312-2.022,0.845l0,0L-18.4,8.711c-0.267,0.2-0.511,0.444-0.711,0.712l0,0
			C-19.667,10.155-20,11.066-20,12.066c0,2.378,1.933,4.312,4.311,4.312c1.866,0,3.444-1.178,4.044-2.845
			c0.4,0.444,0.978,0.733,1.645,0.733s1.245-0.289,1.644-0.733c0.601,1.667,2.178,2.845,4.045,2.845
			c2.378,0,4.311-1.934,4.311-4.312C0,10.8-0.556,9.667-1.422,8.867z M-15.689,15.467c-1.867,0-3.4-1.511-3.4-3.4
			c0-1.889,1.533-3.377,3.4-3.377c1.866,0,3.4,1.511,3.4,3.399S-13.823,15.467-15.689,15.467z M-10,13.089
			c-0.556,0-1.022-0.467-1.022-1.022s0.466-1.021,1.022-1.021c0.555,0,1.022,0.466,1.022,1.021
			C-8.978,12.645-9.445,13.089-10,13.089z M-4.311,15.467c-1.867,0-3.4-1.511-3.4-3.4c0-1.889,1.511-3.399,3.4-3.399
			c1.889,0,3.399,1.511,3.399,3.399C-0.912,13.956-2.445,15.467-4.311,15.467z"/>
	</g>
	<g>
		<path fill-rule="evenodd" clip-rule="evenodd" fill="#333333" d="M9.52,0c0.589,0,1.178-0.002,1.766,0.001
			c0.727,0.004,0.888,0.168,0.893,0.907c0.003,0.521,0.008,1.043-0.004,1.564c-0.006,0.28,0.062,0.521,0.225,0.75
			c0.294,0.415,0.571,0.841,0.852,1.265c0.392,0.593,0.37,0.816-0.148,1.322c-0.595,0.579-1.189,1.156-1.797,1.721
			c-0.226,0.209-0.301,0.421-0.271,0.739c0.093,0.984,0.136,1.974,0.198,2.961c0.059,0.934,0.117,1.867,0.177,2.801
			c0.005,0.08,0.021,0.159,0.033,0.238c0.021,0.132,0.082,0.164,0.184,0.068c0.216-0.201,0.433-0.399,0.641-0.607
			c0.269-0.27,0.576-0.374,0.949-0.268c0.265,0.074,0.526,0.053,0.793-0.01c0.479-0.113,0.719,0,0.951,0.437
			c0.357,0.673,0.71,1.349,1.064,2.024c0.024,0.047,0.049,0.095,0.072,0.143c0.073,0.153-0.001,0.258-0.119,0.341
			c-0.143,0.101-0.223-0.004-0.292-0.106c-0.225-0.332-0.445-0.667-0.67-1c-0.028-0.042-0.079-0.109-0.109-0.104
			c-0.092,0.017-0.055,0.106-0.052,0.164c0.032,0.587,0.063,1.175,0.108,1.762c0.025,0.338,0.029,0.646-0.366,0.791
			c-0.146,0.054-0.149,0.207-0.164,0.341c-0.047,0.452-0.101,0.903-0.143,1.356c-0.019,0.211-0.072,0.36-0.329,0.353
			c-0.277-0.008-0.282-0.194-0.284-0.388c-0.004-0.468-0.002-0.937-0.006-1.405c-0.001-0.074,0.021-0.191-0.085-0.195
			c-0.104-0.003-0.095,0.111-0.096,0.188c-0.003,0.495,0.003,0.99-0.007,1.484c-0.005,0.288-0.111,0.377-0.355,0.351
			c-0.182-0.02-0.246-0.128-0.262-0.295c-0.045-0.452-0.106-0.903-0.141-1.356c-0.018-0.232-0.065-0.408-0.316-0.494
			c-0.244-0.084-0.273-0.307-0.26-0.532c0.039-0.721,0.08-1.442,0.122-2.163c0.005-0.08,0.021-0.159,0.026-0.239
			c0.01-0.169-0.049-0.24-0.206-0.125c-0.141,0.103-0.272,0.217-0.41,0.323c-0.153,0.117-0.197,0.267-0.185,0.458
			c0.056,0.787,0.103,1.574,0.147,2.361c0.028,0.509-0.127,0.689-0.619,0.733c-0.427,0.039-0.427,0.039-0.452,0.479
			c-0.006,0.093-0.007,0.188-0.015,0.28c-0.041,0.507-0.321,0.686-0.804,0.523c-0.147-0.049-0.166-0.161-0.17-0.284
			c-0.006-0.227-0.002-0.455-0.01-0.682c-0.003-0.102,0.023-0.248-0.123-0.255c-0.152-0.008-0.135,0.138-0.139,0.24
			c-0.007,0.228-0.009,0.455-0.006,0.682c0.003,0.219-0.099,0.321-0.316,0.313c-0.039-0.002-0.08,0.001-0.12,0.002
			c-0.467,0.007-0.495-0.016-0.535-0.479c-0.015-0.16-0.024-0.321-0.026-0.481c-0.003-0.235-0.116-0.344-0.349-0.334
			c-0.053,0.001-0.107,0-0.16-0.003c-0.542-0.029-0.869-0.631-0.61-1.115c0.063-0.116,0.165-0.125,0.272-0.125
			c0.174,0.001,0.349,0.015,0.522,0.01c0.55-0.018,0.808-0.247,0.871-0.793c0.079-0.677,0.147-1.355,0.217-2.034
			c0.092-0.891,0.192-1.781,0.265-2.673c0.052-0.646-0.222-0.958-0.87-1.058c-0.172-0.027-0.345-0.048-0.517-0.073
			c-0.329-0.048-0.384-0.101-0.361-0.443c0.023-0.36,0.072-0.718,0.065-1.08c0-0.052-0.011-0.104-0.016-0.156
			C7.583,9.145,7.575,9.202,7.563,9.25C7.467,9.612,7.38,9.977,7.278,10.337c-0.1,0.355-0.469,0.482-0.783,0.284
			c-0.117-0.074-0.102-0.174-0.076-0.281C6.51,9.963,6.6,9.586,6.693,9.21c0.16-0.636,0.311-1.273,0.488-1.904
			C7.38,6.601,8.149,6.27,8.812,6.593c0.402,0.195,0.796,0.21,1.185-0.027c0.14-0.084,0.281-0.173,0.448-0.154
			c0.313,0.037,0.527-0.118,0.735-0.326c0.339-0.341,0.695-0.666,1.044-0.998c0.281-0.268,0.285-0.304,0.069-0.643
			c-0.058-0.09-0.12-0.177-0.175-0.269c-0.08-0.134-0.186-0.173-0.339-0.132c-0.221,0.06-0.451,0.047-0.678,0.056
			c-0.358,0.015-0.659-0.054-0.953-0.311C9.684,3.382,9.006,3.419,8.493,3.859C8.098,4.197,7.673,4.102,7.24,4.042
			c-0.123-0.017-0.209-0.118-0.264-0.23C6.943,3.741,6.907,3.663,6.901,3.585C6.823,2.558,6.833,1.528,6.895,0.5
			c0.021-0.347,0.233-0.488,0.619-0.494C8.182-0.005,8.851,0.003,9.52,0.003C9.52,0.003,9.52,0.001,9.52,0z"/>
		<path fill-rule="evenodd" clip-rule="evenodd" fill="#333333" d="M9.146,12.117c-0.143,1.421-0.284,2.858-0.435,4.295
			c-0.063,0.593-0.322,0.833-0.93,0.802c-0.694-0.036-1.385-0.122-2.077-0.19c-0.346-0.034-0.692-0.065-1.036-0.118
			c-0.604-0.092-0.844-0.375-0.786-0.987c0.135-1.451,0.282-2.901,0.445-4.35c0.068-0.613,0.354-0.859,0.967-0.809
			c1.039,0.084,2.076,0.2,3.111,0.325C8.876,11.141,9.303,11.482,9.146,12.117z"/>
		<path fill-rule="evenodd" clip-rule="evenodd" fill="#333333" d="M10.516,4.883c-0.007,0.641-0.477,1.102-1.121,1.101
			C8.759,5.983,8.237,5.461,8.252,4.842C8.266,4.24,8.791,3.727,9.395,3.726C10.024,3.724,10.521,4.238,10.516,4.883z"/>
		<path fill-rule="evenodd" clip-rule="evenodd" fill="#333333" d="M13.554,13.283c-0.521-0.001-0.939-0.419-0.946-0.942
			c-0.007-0.552,0.402-0.96,0.959-0.957c0.534,0.003,0.944,0.402,0.953,0.929C14.528,12.844,14.092,13.284,13.554,13.283z"/>
	</g>
	<g>
		<path fill-rule="evenodd" clip-rule="evenodd" fill="#F2F2F2" d="M9.52,20c0.589,0,1.178-0.002,1.766,0.001
			c0.727,0.004,0.888,0.168,0.893,0.907c0.003,0.521,0.008,1.043-0.004,1.564c-0.006,0.28,0.062,0.521,0.225,0.75
			c0.294,0.415,0.571,0.841,0.852,1.265c0.392,0.593,0.37,0.816-0.148,1.322c-0.595,0.579-1.189,1.156-1.797,1.721
			c-0.226,0.209-0.301,0.421-0.271,0.739c0.093,0.984,0.136,1.974,0.198,2.961c0.059,0.934,0.117,1.867,0.177,2.801
			c0.005,0.08,0.021,0.159,0.033,0.238c0.021,0.132,0.082,0.164,0.184,0.068c0.216-0.201,0.433-0.399,0.641-0.607
			c0.269-0.27,0.576-0.374,0.949-0.268c0.265,0.074,0.526,0.053,0.793-0.01c0.479-0.113,0.719,0,0.951,0.437
			c0.357,0.673,0.71,1.349,1.064,2.024c0.024,0.047,0.049,0.095,0.072,0.143c0.073,0.153-0.001,0.258-0.119,0.341
			c-0.143,0.101-0.223-0.004-0.292-0.106c-0.225-0.332-0.445-0.667-0.67-1c-0.028-0.042-0.079-0.109-0.109-0.104
			c-0.092,0.017-0.055,0.106-0.052,0.164c0.032,0.587,0.063,1.175,0.108,1.762c0.025,0.338,0.029,0.646-0.366,0.791
			c-0.146,0.054-0.149,0.207-0.164,0.341c-0.047,0.452-0.101,0.903-0.143,1.356c-0.019,0.211-0.072,0.36-0.329,0.353
			c-0.277-0.008-0.282-0.194-0.284-0.388c-0.004-0.468-0.002-0.937-0.006-1.405c-0.001-0.074,0.021-0.191-0.085-0.195
			c-0.104-0.003-0.095,0.111-0.096,0.188c-0.003,0.495,0.003,0.99-0.007,1.484c-0.005,0.288-0.111,0.377-0.355,0.351
			c-0.182-0.02-0.246-0.128-0.262-0.295c-0.045-0.452-0.106-0.903-0.141-1.356c-0.018-0.232-0.065-0.408-0.316-0.494
			c-0.244-0.084-0.273-0.307-0.26-0.532c0.039-0.721,0.08-1.442,0.122-2.163c0.005-0.08,0.021-0.159,0.026-0.239
			c0.01-0.169-0.049-0.24-0.206-0.125c-0.141,0.103-0.272,0.217-0.41,0.323c-0.153,0.117-0.197,0.267-0.185,0.458
			c0.056,0.787,0.103,1.574,0.147,2.361c0.028,0.509-0.127,0.689-0.619,0.733c-0.427,0.039-0.427,0.039-0.452,0.479
			c-0.006,0.093-0.007,0.188-0.015,0.28c-0.041,0.507-0.321,0.686-0.804,0.523c-0.147-0.049-0.166-0.161-0.17-0.284
			c-0.006-0.227-0.002-0.455-0.01-0.682c-0.003-0.102,0.023-0.248-0.123-0.255c-0.152-0.008-0.135,0.138-0.139,0.24
			c-0.007,0.228-0.009,0.455-0.006,0.682c0.003,0.219-0.099,0.321-0.316,0.313c-0.039-0.002-0.08,0.001-0.12,0.002
			c-0.467,0.007-0.495-0.016-0.535-0.479c-0.015-0.16-0.024-0.321-0.026-0.481c-0.003-0.235-0.116-0.344-0.349-0.334
			c-0.053,0.001-0.107,0-0.16-0.003c-0.542-0.029-0.869-0.631-0.61-1.115c0.063-0.116,0.165-0.125,0.272-0.125
			c0.174,0.001,0.349,0.015,0.522,0.01c0.55-0.018,0.808-0.247,0.871-0.793c0.079-0.677,0.147-1.355,0.217-2.034
			c0.092-0.891,0.192-1.781,0.265-2.673c0.052-0.646-0.222-0.958-0.87-1.058c-0.172-0.027-0.345-0.048-0.517-0.073
			c-0.329-0.048-0.384-0.101-0.361-0.443c0.023-0.36,0.072-0.718,0.065-1.08c0-0.052-0.011-0.104-0.016-0.156
			c-0.057,0.026-0.064,0.083-0.077,0.132c-0.096,0.362-0.183,0.726-0.284,1.087c-0.1,0.355-0.469,0.482-0.783,0.284
			c-0.117-0.074-0.102-0.174-0.076-0.281C6.51,29.963,6.6,29.586,6.693,29.21c0.16-0.636,0.311-1.273,0.488-1.904
			c0.198-0.705,0.968-1.036,1.63-0.713c0.402,0.195,0.796,0.21,1.185-0.027c0.14-0.084,0.281-0.173,0.448-0.154
			c0.313,0.037,0.527-0.118,0.735-0.326c0.339-0.341,0.695-0.666,1.044-0.998c0.281-0.268,0.285-0.304,0.069-0.643
			c-0.058-0.09-0.12-0.177-0.175-0.269c-0.08-0.134-0.186-0.173-0.339-0.132c-0.221,0.06-0.451,0.047-0.678,0.056
			c-0.358,0.015-0.659-0.054-0.953-0.311c-0.465-0.408-1.143-0.371-1.655,0.069c-0.396,0.338-0.82,0.243-1.253,0.184
			c-0.123-0.017-0.209-0.118-0.264-0.23c-0.033-0.071-0.069-0.149-0.075-0.227c-0.078-1.027-0.068-2.058-0.007-3.085
			c0.021-0.347,0.233-0.488,0.619-0.494c0.668-0.011,1.337-0.003,2.006-0.003C9.52,20.003,9.52,20.001,9.52,20z"/>
	</g>
</g>
</svg>
