<?xml version="1.0" encoding="utf-8"?>
<!-- Generator: Adobe Illustrator 16.0.3, SVG Export Plug-In . SVG Version: 6.00 Build 0)  -->
<!DOCTYPE svg PUBLIC "-//W3C//DTD SVG 1.1//EN" "http://www.w3.org/Graphics/SVG/1.1/DTD/svg11.dtd">
<svg version="1.1" id="Ebene_1" xmlns="http://www.w3.org/2000/svg" xmlns:xlink="http://www.w3.org/1999/xlink" x="0px" y="0px"
	 width="20px" height="20px" viewBox="0 0 20 20" enable-background="new 0 0 20 20" xml:space="preserve">
<g>
	<path fill="#333333" d="M5.017-2.917c-1.15,0-2.083,0.933-2.083,2.083V0h4.167v-0.833C7.101-1.984,6.167-2.917,5.017-2.917z"/>
	<path fill="#333333" d="M10.018-2.917c-1.151,0-2.084,0.933-2.084,2.083V0H12.1v-0.833C12.1-1.984,11.168-2.917,10.018-2.917z"/>
	<path fill="#333333" d="M15.018-2.917c-1.151,0-2.083,0.933-2.083,2.083V0H17.1v-0.833C17.1-1.984,16.167-2.917,15.018-2.917z"/>
</g>
<g>
	<circle fill="#F2F2F2" cx="5" cy="15.417" r="1.25"/>
	<path fill="#F2F2F2" d="M5,17.083c-1.15,0-2.083,0.933-2.083,2.083V20h4.167v-0.833C7.084,18.016,6.15,17.083,5,17.083z"/>
	<circle fill="#F2F2F2" cx="10.001" cy="15.417" r="1.25"/>
	<path fill="#F2F2F2" d="M10.001,17.083c-1.151,0-2.084,0.933-2.084,2.083V20h4.166v-0.833
		C12.083,18.016,11.151,17.083,10.001,17.083z"/>
	<circle fill="#F2F2F2" cx="15.001" cy="15.417" r="1.25"/>
	<path fill="#F2F2F2" d="M15.001,17.083c-1.151,0-2.083,0.933-2.083,2.083V20h4.165v-0.833
		C17.083,18.016,16.15,17.083,15.001,17.083z"/>
	<path fill="#F2F2F2" d="M14.584,13.333c0.127,0,0.251-0.058,0.331-0.163c0.108-0.142,0.114-0.336,0.016-0.484
		c-0.007-0.01-0.586-0.889-0.73-1.853h0.801c0.688,0,1.249-0.56,1.249-1.25V1.25c0-0.69-0.561-1.25-1.249-1.25H5
		C4.311,0,3.75,0.56,3.75,1.25v8.333c0,0.69,0.561,1.25,1.25,1.25h0.8c-0.145,0.96-0.724,1.843-0.729,1.854
		c-0.099,0.148-0.093,0.342,0.017,0.483c0.08,0.105,0.203,0.163,0.33,0.163c0.045,0,0.088-0.007,0.132-0.021
		c0.105-0.035,2.398-0.82,2.74-2.479h0.578l0.738,2.216c0.057,0.169,0.216,0.284,0.395,0.284c0.18,0,0.339-0.115,0.395-0.284
		l0.739-2.216h0.575c0.341,1.66,2.637,2.444,2.743,2.479C14.495,13.326,14.54,13.333,14.584,13.333z M12.5,10.417
		c0-0.23-0.187-0.417-0.417-0.417h-1.249c-0.18,0-0.339,0.114-0.396,0.284l-0.437,1.314l-0.438-1.314
		c-0.058-0.174-0.221-0.283-0.396-0.283V10h-1.25C7.687,10,7.5,10.187,7.5,10.417c0,0.667-0.571,1.214-1.163,1.591
		c0.18-0.463,0.33-1.023,0.33-1.591C6.667,10.187,6.48,10,6.251,10H5c-0.229,0-0.416-0.187-0.416-0.417V1.25
		c0-0.229,0.187-0.417,0.416-0.417h10.001c0.229,0,0.416,0.187,0.416,0.417v8.333c0,0.23-0.187,0.417-0.416,0.417h-1.25
		c-0.23,0-0.418,0.186-0.418,0.417c0,0.566,0.151,1.124,0.329,1.587C13.091,11.645,12.5,11.106,12.5,10.417z"/>
	<path fill="#F2F2F2" d="M10.001,3.333C9.079,3.333,8.334,4.079,8.334,5c0,0.615,0.322,0.974,0.607,1.471
		c0.107,0.186,0.226,0.612,0.226,0.82C9.167,7.406,9.26,7.5,9.375,7.5h1.251c0.115,0,0.208-0.093,0.208-0.208
		c0-0.208,0.118-0.636,0.226-0.82C11.346,5.974,11.667,5.615,11.667,5C11.667,4.079,10.921,3.333,10.001,3.333z"/>
	<path fill="#F2F2F2" d="M10.625,7.917h-1.25c-0.115,0-0.208,0.093-0.208,0.208c0,0.115,0.093,0.208,0.208,0.208h1.25
		c0.115,0,0.209-0.094,0.209-0.208C10.834,8.01,10.74,7.917,10.625,7.917z"/>
	<path fill="#F2F2F2" d="M10.313,8.75H9.688c-0.116,0-0.209,0.094-0.209,0.209c0,0.115,0.093,0.208,0.209,0.208h0.625
		c0.114,0,0.208-0.094,0.208-0.208C10.521,8.843,10.428,8.75,10.313,8.75z"/>
	<path fill="#F2F2F2" d="M10.001,2.917c0.114,0,0.208-0.094,0.208-0.208V1.875c0-0.115-0.093-0.208-0.208-0.208
		c-0.116,0-0.209,0.093-0.209,0.208v0.833C9.792,2.823,9.885,2.917,10.001,2.917z"/>
	<path fill="#F2F2F2" d="M7.708,4.792H6.875C6.761,4.792,6.667,4.885,6.667,5S6.76,5.208,6.875,5.208h0.833
		c0.116,0,0.209-0.094,0.209-0.208C7.917,4.885,7.824,4.792,7.708,4.792z"/>
	<path fill="#F2F2F2" d="M8.445,3.15l-0.59-0.589c-0.081-0.081-0.213-0.081-0.294,0c-0.082,0.082-0.082,0.214,0,0.295L8.15,3.445
		c0.041,0.041,0.095,0.061,0.147,0.061s0.106-0.02,0.147-0.061C8.526,3.363,8.526,3.232,8.445,3.15z"/>
	<path fill="#F2F2F2" d="M12.439,2.561c-0.082-0.081-0.214-0.081-0.294,0L11.555,3.15c-0.08,0.082-0.08,0.213,0,0.295
		c0.042,0.041,0.095,0.061,0.148,0.061c0.053,0,0.105-0.02,0.147-0.061l0.589-0.589C12.521,2.774,12.521,2.643,12.439,2.561z"/>
	<path fill="#F2F2F2" d="M13.125,4.792h-0.833c-0.115,0-0.209,0.093-0.209,0.208s0.094,0.208,0.209,0.208h0.833
		c0.116,0,0.208-0.093,0.208-0.208S13.241,4.792,13.125,4.792z"/>
</g>
</svg>
