<?xml version="1.0" encoding="utf-8"?>
<!-- Generator: Adobe Illustrator 16.0.3, SVG Export Plug-In . SVG Version: 6.00 Build 0)  -->
<!DOCTYPE svg PUBLIC "-//W3C//DTD SVG 1.1//EN" "http://www.w3.org/Graphics/SVG/1.1/DTD/svg11.dtd">
<svg version="1.1" id="Ebene_1" xmlns="http://www.w3.org/2000/svg" xmlns:xlink="http://www.w3.org/1999/xlink" x="0px" y="0px"
	 width="20px" height="20px" viewBox="0 0 20 20" enable-background="new 0 0 20 20" xml:space="preserve">
<g id="Neues_Symbol_11">
</g>
<g id="Neues_Symbol_5">
</g>
<path id="path7552-2_1_" connector-curvature="0" fill="#F2F2F2" d="M-10.559,0.555C-15.77,0.555-20,4.783-20,10
	s4.23,9.445,9.441,9.445c2.918,0,5.531-1.328,7.262-3.398c-1.131,0.732-2.473,1.172-3.922,1.172c-3.992,0-7.223-3.227-7.223-7.219
	s3.23-7.219,7.223-7.219c1.449,0,2.791,0.439,3.922,1.172C-5.027,1.883-7.641,0.555-10.559,0.555z M-5,5l-1.109,3.328H-10
	l3.332,2.227l-1.664,3.891L-5,12.219l3.332,2.227l-1.664-3.891L0,8.328h-3.891L-5,5z"/>
<g id="layer1_23_" transform="translate(0,-1028.3622)">
	<g id="grocery-24_23_" transform="translate(-318,-165.99998)">
		<g id="g8119_23_" transform="translate(317,1217.3623)">
			<path id="path8100_23_" connector-curvature="0" opacity="0.3" fill="#F2F2F2" enable-background="new    " d="
				M39.822-22.413c-0.685,0-1.296,0.193-1.726,0.626c-0.434,0.434-0.626,1.042-0.626,1.728H21l2.354,10.589h14.117v1.175H24.529
				c-1.176,0-1.176,1.178,0,1.178h1.765h9.412h1.765c0.588,0,1.176-0.588,1.176-1.178v-1.175v-9.411v-1.178
				c0,0,0.104-0.763,0.257-0.919c0.158-0.153,0.433-0.257,0.919-0.257c0.133,0,0.346,0,0.474,0c0.588,0,0.704-0.291,0.704-0.588
				c0-0.293-0.116-0.59-0.704-0.59C40.141-22.413,39.982-22.413,39.822-22.413z M35.706-7.118c-0.974,0-1.766,0.793-1.766,1.766
				c0,0.974,0.792,1.766,1.766,1.766c0.973,0,1.765-0.792,1.765-1.766C37.471-6.325,36.679-7.118,35.706-7.118z M26.294-7.118
				c-0.975,0-1.765,0.793-1.765,1.766c0,0.974,0.79,1.766,1.765,1.766c0.974,0,1.766-0.792,1.766-1.766
				C28.06-6.325,27.268-7.118,26.294-7.118z"/>
			<path id="rect7842_23_" connector-curvature="0" fill="#F2F2F2" d="M39.822-22.413c-0.685,0-1.296,0.193-1.726,0.626
				c-0.434,0.434-0.626,1.042-0.626,1.728H21l2.354,10.589h14.117v1.175H24.529c-1.176,0-1.176,1.178,0,1.178h1.765h9.412h1.765
				c0.588,0,1.176-0.588,1.176-1.178v-1.175v-9.411v-1.178c0,0,0.104-0.763,0.257-0.919c0.158-0.153,0.433-0.257,0.919-0.257
				c0.133,0,0.346,0,0.474,0c0.588,0,0.704-0.291,0.704-0.588c0-0.293-0.116-0.59-0.704-0.59
				C40.141-22.413,39.982-22.413,39.822-22.413z M35.706-7.118c-0.974,0-1.766,0.793-1.766,1.766c0,0.974,0.792,1.766,1.766,1.766
				c0.973,0,1.765-0.792,1.765-1.766C37.471-6.325,36.679-7.118,35.706-7.118z M26.294-7.118c-0.975,0-1.765,0.793-1.765,1.766
				c0,0.974,0.79,1.766,1.765,1.766c0.974,0,1.766-0.792,1.766-1.766C28.06-6.325,27.268-7.118,26.294-7.118z"/>
		</g>
	</g>
</g>
<path fill="#333333" d="M10.707-15.665c-0.007-0.011-0.314-0.417-0.67-0.78v-0.706l0.536-0.76L9.679-20l-1,2.107l0.536,0.669v6.397
	C8.348-8.79,7.326-6.567,7.31-6.532L7.197-6.289l2.017,1.113v3.86H8.05V0h3.151v-1.315h-1.165v-3.407l1.467,0.81l0.11-0.324
	c0.044-0.129,1.077-3.168,1.168-4.454C13.036-12.28,10.872-15.43,10.707-15.665z M12.208-8.73c-0.069,0.976-0.759,3.155-1.03,3.982
	L7.943-6.534c0.511-1.118,2.569-5.651,2.962-7.078c0.04-0.142,0.068-0.278,0.088-0.407C11.61-12.78,12.355-10.811,12.208-8.73z"/>
<path fill="#F2F2F2" d="M10.707,4.335c-0.007-0.011-0.314-0.417-0.67-0.78V2.849l0.536-0.76L9.679,0l-1,2.107l0.536,0.669v6.397
	c-0.866,2.037-1.889,4.26-1.905,4.295l-0.112,0.243l2.017,1.113v3.86H8.05V20h3.151v-1.315h-1.165v-3.407l1.467,0.81l0.11-0.324
	c0.044-0.129,1.077-3.168,1.168-4.454C13.036,7.72,10.872,4.57,10.707,4.335z M12.208,11.27c-0.069,0.976-0.759,3.155-1.03,3.982
	l-3.235-1.785c0.511-1.118,2.569-5.651,2.962-7.078c0.04-0.142,0.068-0.278,0.088-0.407C11.61,7.22,12.355,9.189,12.208,11.27z"/>
</svg>
