<?xml version="1.0" encoding="utf-8"?>
<!-- Generator: Adobe Illustrator 16.0.3, SVG Export Plug-In . SVG Version: 6.00 Build 0)  -->
<!DOCTYPE svg PUBLIC "-//W3C//DTD SVG 1.1//EN" "http://www.w3.org/Graphics/SVG/1.1/DTD/svg11.dtd">
<svg version="1.1" id="Ebene_1" xmlns="http://www.w3.org/2000/svg" xmlns:xlink="http://www.w3.org/1999/xlink" x="0px" y="0px"
	 width="20px" height="20px" viewBox="0 0 20 20" enable-background="new 0 0 20 20" xml:space="preserve">
<g>
	<path fill="#F2F2F2" d="M19.879,10.608L19.356,9.54c-0.206-0.424-0.375-1.155-0.375-1.626V6.095c0-0.471,0-1.241,0-1.712V2.48
		c0-0.471,0-1.193,0-1.606c0-0.412-0.385-0.75-0.857-0.75H1.877c-0.471,0-0.856,0.338-0.856,0.75c0,0.413,0,1.136,0,1.606v1.902
		c0,0.471,0,1.241,0,1.712v1.784c0,0.471-0.167,1.203-0.372,1.628l-0.53,1.1c-0.204,0.424,0.015,0.771,0.485,0.771h18.795
		C19.869,11.377,20.085,11.031,19.879,10.608z M17.31,8.717H2.702c0,0,0.133-2.972-0.515-4.358c0,0,2.554-2.217,3.184-3.978
		c0,0,2.502,0.808,4.575,0.609h0.12c2.072,0.198,4.575-0.609,4.575-0.609c0.629,1.761,3.183,3.978,3.183,3.978
		C17.177,5.745,17.31,8.717,17.31,8.717z M1.901,13.604v-0.11c0-0.519,0.302-0.942,0.67-0.942H3.34c0.369,0,0.672,0.424,0.672,0.942
		v0.11H3.985c-0.077-0.397-0.339-0.692-0.646-0.692H2.571c-0.307,0-0.567,0.295-0.646,0.692H1.901z M4.249,13.604v-0.11
		c0-0.519,0.302-0.942,0.671-0.942h0.769c0.369,0,0.671,0.424,0.671,0.942v0.11H6.334c-0.078-0.397-0.339-0.692-0.646-0.692H4.92
		c-0.308,0-0.567,0.295-0.646,0.692H4.249z M6.597,13.604v-0.11c0-0.519,0.303-0.942,0.671-0.942h0.769
		c0.369,0,0.67,0.424,0.67,0.942v0.11H8.682c-0.079-0.397-0.338-0.692-0.646-0.692H7.268c-0.308,0-0.567,0.295-0.646,0.692H6.597z
		 M8.945,13.604v-0.11c0-0.519,0.301-0.942,0.67-0.942h0.769c0.369,0,0.671,0.424,0.671,0.942v0.11h-0.025
		c-0.078-0.397-0.338-0.692-0.646-0.692H9.615c-0.308,0-0.568,0.295-0.646,0.692H8.945z M11.293,13.604v-0.11
		c0-0.519,0.301-0.942,0.67-0.942h0.769c0.369,0,0.67,0.424,0.67,0.942v0.11h-0.023c-0.079-0.397-0.339-0.692-0.646-0.692h-0.769
		c-0.308,0-0.567,0.295-0.646,0.692H11.293z M13.641,13.604v-0.11c0-0.519,0.3-0.942,0.669-0.942h0.769
		c0.369,0,0.672,0.424,0.672,0.942v0.11h-0.025c-0.078-0.397-0.339-0.692-0.646-0.692H14.31c-0.307,0-0.566,0.295-0.646,0.692
		H13.641z M15.987,13.604v-0.11c0-0.519,0.302-0.942,0.671-0.942h0.769c0.369,0,0.672,0.424,0.672,0.942v0.11h-0.025
		c-0.079-0.397-0.339-0.692-0.646-0.692h-0.769c-0.307,0-0.567,0.295-0.646,0.692H15.987z M1.292,15.693v-0.119
		c0-0.557,0.325-1.014,0.723-1.014H2.84c0.396,0,0.721,0.457,0.721,1.014v0.119H3.535c-0.085-0.428-0.364-0.745-0.695-0.745H2.015
		c-0.331,0-0.611,0.317-0.695,0.745H1.292z M3.817,15.693v-0.119c0-0.557,0.324-1.014,0.721-1.014h0.825
		c0.398,0,0.722,0.457,0.722,1.014v0.119H6.059c-0.084-0.428-0.364-0.745-0.694-0.745H4.538c-0.33,0-0.61,0.317-0.694,0.745H3.817z
		 M6.341,15.693v-0.119c0-0.557,0.324-1.014,0.722-1.014h0.826c0.396,0,0.721,0.457,0.721,1.014v0.119H8.584
		c-0.085-0.428-0.364-0.745-0.695-0.745H7.063c-0.33,0-0.609,0.317-0.694,0.745H6.341z M8.865,15.693v-0.119
		c0-0.557,0.325-1.014,0.721-1.014h0.827c0.396,0,0.722,0.457,0.722,1.014v0.119h-0.027c-0.085-0.428-0.364-0.745-0.694-0.745H9.586
		c-0.329,0-0.609,0.317-0.693,0.745H8.865z M11.389,15.693v-0.119c0-0.557,0.325-1.014,0.722-1.014h0.826
		c0.396,0,0.721,0.457,0.721,1.014v0.119h-0.025c-0.086-0.428-0.365-0.745-0.695-0.745H12.11c-0.33,0-0.609,0.317-0.694,0.745
		H11.389z M13.914,15.693v-0.119c0-0.557,0.324-1.014,0.721-1.014h0.827c0.396,0,0.721,0.457,0.721,1.014v0.119h-0.027
		c-0.084-0.428-0.364-0.745-0.693-0.745h-0.827c-0.329,0-0.609,0.317-0.694,0.745H13.914z M16.438,15.693v-0.119
		c0-0.557,0.323-1.014,0.721-1.014h0.826c0.396,0,0.721,0.457,0.721,1.014v0.119H18.68c-0.084-0.428-0.363-0.745-0.694-0.745h-0.826
		c-0.331,0-0.609,0.317-0.694,0.745H16.438z M0.685,17.782v-0.128c0-0.597,0.347-1.084,0.771-1.084h0.884
		c0.425,0,0.771,0.487,0.771,1.084v0.128H3.082c-0.089-0.458-0.389-0.797-0.742-0.797H1.456c-0.354,0-0.653,0.339-0.743,0.797H0.685
		z M3.385,17.782v-0.128c0-0.597,0.348-1.084,0.771-1.084h0.885c0.424,0,0.771,0.487,0.771,1.084v0.128H5.783
		c-0.09-0.458-0.39-0.797-0.742-0.797H4.156c-0.354,0-0.652,0.339-0.742,0.797H3.385z M6.085,17.782v-0.128
		c0-0.597,0.348-1.084,0.771-1.084H7.74c0.425,0,0.772,0.487,0.772,1.084v0.128H8.483c-0.09-0.458-0.389-0.797-0.742-0.797H6.857
		c-0.353,0-0.652,0.339-0.743,0.797H6.085z M8.786,17.782v-0.128c0-0.597,0.347-1.084,0.771-1.084h0.885
		c0.423,0,0.771,0.487,0.771,1.084v0.128h-0.028c-0.09-0.458-0.389-0.797-0.742-0.797H9.558c-0.354,0-0.653,0.339-0.743,0.797H8.786
		z M11.486,17.782v-0.128c0-0.597,0.348-1.084,0.771-1.084h0.885c0.425,0,0.771,0.487,0.771,1.084v0.128h-0.029
		c-0.09-0.458-0.39-0.797-0.742-0.797h-0.885c-0.354,0-0.652,0.339-0.742,0.797H11.486z M14.188,17.782v-0.128
		c0-0.597,0.347-1.084,0.771-1.084h0.885c0.423,0,0.771,0.487,0.771,1.084v0.128h-0.028c-0.09-0.458-0.389-0.797-0.743-0.797h-0.884
		c-0.354,0-0.652,0.339-0.743,0.797H14.188z M16.888,17.782v-0.128c0-0.597,0.348-1.084,0.771-1.084h0.885
		c0.424,0,0.771,0.487,0.771,1.084v0.128h-0.028c-0.091-0.458-0.39-0.797-0.743-0.797h-0.885c-0.354,0-0.652,0.339-0.742,0.797
		H16.888z M0,19.876v-0.138c0-0.64,0.373-1.164,0.828-1.164h0.948c0.456,0,0.828,0.524,0.828,1.164v0.138h-0.03
		c-0.097-0.492-0.418-0.855-0.798-0.855H0.828c-0.38,0-0.701,0.363-0.798,0.855H0z M2.899,19.876v-0.138
		c0-0.64,0.372-1.164,0.827-1.164h0.95c0.455,0,0.827,0.524,0.827,1.164v0.138h-0.03c-0.098-0.492-0.419-0.855-0.797-0.855h-0.95
		c-0.379,0-0.7,0.363-0.797,0.855H2.899z M5.798,19.876v-0.138c0-0.64,0.372-1.164,0.827-1.164h0.95
		c0.455,0,0.827,0.524,0.827,1.164v0.138h-0.03c-0.097-0.492-0.418-0.855-0.797-0.855h-0.95c-0.378,0-0.7,0.363-0.797,0.855H5.798z
		 M8.697,19.876v-0.138c0-0.64,0.372-1.164,0.828-1.164h0.948c0.455,0,0.828,0.524,0.828,1.164v0.138h-0.03
		c-0.098-0.492-0.418-0.855-0.798-0.855H9.525c-0.38,0-0.701,0.363-0.798,0.855H8.697z M11.596,19.876v-0.138
		c0-0.64,0.373-1.164,0.829-1.164h0.948c0.455,0,0.829,0.524,0.829,1.164v0.138H14.17c-0.097-0.492-0.418-0.855-0.797-0.855h-0.948
		c-0.381,0-0.702,0.363-0.799,0.855H11.596z M14.494,19.876v-0.138c0-0.64,0.373-1.164,0.829-1.164h0.948
		c0.456,0,0.829,0.524,0.829,1.164v0.138h-0.032c-0.096-0.492-0.416-0.855-0.797-0.855h-0.948c-0.38,0-0.701,0.363-0.798,0.855
		H14.494z M17.395,19.876v-0.138c0-0.64,0.372-1.164,0.828-1.164h0.948c0.456,0,0.829,0.524,0.829,1.164v0.138h-0.032
		c-0.096-0.492-0.417-0.855-0.797-0.855h-0.948c-0.381,0-0.701,0.363-0.798,0.855H17.395z"/>
</g>
</svg>
