<?xml version="1.0" encoding="utf-8"?>
<!-- Generator: Adobe Illustrator 16.0.3, SVG Export Plug-In . SVG Version: 6.00 Build 0)  -->
<!DOCTYPE svg PUBLIC "-//W3C//DTD SVG 1.1//EN" "http://www.w3.org/Graphics/SVG/1.1/DTD/svg11.dtd">
<svg version="1.1" xmlns="http://www.w3.org/2000/svg" xmlns:xlink="http://www.w3.org/1999/xlink" x="0px" y="0px" width="20px"
	 height="20px" viewBox="0 0 20 20" enable-background="new 0 0 20 20" xml:space="preserve">
<g id="Ebene_1">
	<g>
		<path fill="#F2F2F2" d="M2.696,14.854c0,0,1.694,0.271,2.417,0.271s3.161-0.406,3.161-1.649c0-1.242-0.022-2.936-2.032-3.274
			s-2.812,0.124-2.981,0.294c-0.169,0.169-1.083-0.023-1.083-0.023s1.558-0.181,2.213-0.609c0,0-1.445-0.972-1.818-1.818
			c0,0,1.524,1.524,2.315,1.524c0,0-0.385-0.609-0.655-1.287c0,0,0.655,1.141,1.141,1.141s1.841,0.35,2.18,0.463
			c0.338,0.112,0.315-0.769,0.09-0.994S5.508,7.458,5.181,7.13c-0.327-0.328-1.92-0.339-2.168-0.904c0,0,1.106,0.43,1.648,0.43
			c0,0-0.361-0.61-0.361-1.017c0,0,0.61,1.106,1.017,1.265c0,0,0.339,0.136,0.339-0.338c0-0.475,0.112-1.942-0.7-2.484
			c0,0,0.609,0.338,0.813,1.174c0,0,0.587-0.384,0.723-0.723c0,0-0.361,0.903-0.542,1.084s-0.067,1.062,0,1.4
			c0.068,0.339,1.333,1.084,1.694,1.084c0,0-0.136-2.281-0.136-2.688c0,0-0.542-0.564-0.361-1.92c0,0,0.112,1.378,0.406,1.672
			c0,0,0.858-1.649,0.858-2.484c0,0-0.147,2.359-0.52,2.732c0,0-0.316,1.897,1.287,4.133c0,0,0.475,0.52,0.791-0.293
			c0.316-0.813,0.52-1.627,0.316-2.101c-0.204-0.475-1.446-0.813-1.446-1.717c0,0,0.588,0.949,1.242,1.242
			c0,0-0.226-1.693-0.226-2.665c0,0,0.248,1.423,0.451,1.897c0,0,0.339-0.113,0.621-0.621c0,0-0.438,0.555-0.438,1.052
			s0.032,1.094,0.225,1.285c0.191,0.192,0.519-0.654,0.7-1.377c0.18-0.723,0.376-1.41,0.18-1.83
			c-0.257-0.55-0.429-1.535-0.429-1.648c0-0.112,0.406,1.355,0.768,2.236c0,0,0.61-0.858,0.61-1.017c0,0-1.106,2.236-1.106,3.636
			c0,1.4-0.926,1.627-0.926,2.101c0,0,0.226,0,1.626-0.609c1.399-0.61,1.241-1.92,1.241-2.123s-0.496-1.355-0.496-1.693
			c0-0.339,0.158-1.175,0.158-1.175s-0.046,1.354,0.181,1.581c0,0,1.017-1.106,1.017-1.423s0-0.948,0-0.948l0.202,1.038
			c0,0-0.836,1.22-0.836,1.536c0,0.315,0.204,1.062,0.204,1.062s0.79-0.678,0.79-0.994c0-0.315,0.203-0.813,0.203-1.016
			c0-0.204,0,0.519,0,0.745c0,0.226,0.113,0.632,0.113,0.632s1.141-1.141,1.208-1.208s-0.226,0.632-1.615,1.818
			c0,0-1.738,1.852-1.445,2.146c0.294,0.293,1.096-0.306,1.266-0.475c0.169-0.169,0.587-1.265,1.174-1.378
			c0,0-0.587,0.813-0.587,1.197c0,0,1.175-0.587,1.581-1.287c0,0-0.724,1.581-2.146,2.146c0,0,0.654,0.496,1.49,0.339l1.106-0.227
			c0,0-0.678,0.452-1.175,0.564l0.44,0.44c0,0-1.637-0.96-2.586-0.688c-0.948,0.271-2.958,0.52-2.958,1.604s-0.406,2.552,2.01,3.546
			c2.417,0.993,3.637-0.226,4.043-0.226s-0.881,0.563-0.881,0.563l1.175,0.362c0,0-2.508-0.136-2.892-0.136s0.565,0.271,1.175,0.451
			s1.648,0.994,1.648,1.22s-1.265-0.768-1.581-0.768c-0.315,0,0.497,0.813,0.497,0.813s-1.648-1.445-2.664-1.151
			c0,0,1.399,1.129,1.987,1.31c0.587,0.181,1.208,0.61,1.208,0.802c0,0.192-0.915-0.417-1.299-0.53c0,0,0,0.632,0,0.723
			c0,0.09-0.406-1.355-1.22-1.129c0,0-0.226,0.79,0.497,1.174c0.723,0.385,0.294,0.813,0.294,0.813s-0.091-0.294-0.339-0.542
			c-0.249-0.249-0.745-0.745-0.745-0.745s-0.452,0.451-0.452,0.768s-0.316-0.542,0-0.858c0.316-0.315,0.564-0.654,0.564-0.835
			c0-0.182-0.632-0.655-1.265-0.655c-0.632,0-1.604-0.813-1.896-0.813c-0.294,0-0.227,0.294,0.067,0.588s0.542,0.158,0.712,0.711
			c0.169,0.554,0.485,0.373,0.485,0.869c0,0.497,0.451,0.655,0.451,0.836s0.068,0.542-0.112,0.361s-0.43-0.429-0.43-0.429
			s-0.327,0.136-0.327,0.327c0,0.192-0.322,0.249-0.322,0.514c0,0.266,0,0.469,0,0.469h-0.163v-0.497c0,0,0.678-0.881,0.678-1.039
			s-0.813-1.603-0.813-1.603s-0.022,0.021-0.181,0.18s0.012,0.237-0.158,0.407c-0.17,0.169-0.497,0.271-0.17,0.384
			c0.328,0.112,0.227,0.372,0.328,0.474c0.102,0.103,0.102,0.294,0.102,0.294l-0.639-0.638c0,0-0.242-0.063-0.242,0.242
			s0,0.576,0,0.576s0.141,0.107,0,0.248c-0.142,0.142-0.276,0.277-0.276,0.277s0-0.006,0-0.164s0-1.129,0-1.129l0.188-0.189
			c0,0-0.359-0.151-0.511,0c-0.15,0.15-0.497,0.393-0.587,0.482c-0.091,0.09-0.294,0.09-0.192-0.011
			c0.102-0.102,0.824-0.734,1.299-0.893s0.406-0.633,0.475-0.7c0.067-0.067-0.227-0.79-0.655-0.79s-0.508,0.079-0.836,0.406
			C8.376,16.377,7.8,16.682,7.8,16.954c0,0.271-0.135,0.429-0.135,0.61c0,0.18-0.113-0.182-0.113,0.293s0.203,0.452,0.35,0.824
			c0.147,0.373,0.147,0.282,0.147,0.666c0,0.385-0.102,0.486-0.102,0.486l-0.17-0.554c0,0-0.294-0.315-0.294-0.587
			S7.292,18.23,7.292,18.23s0.112-0.113-0.158,0.158c-0.271,0.271-0.271,0.146-0.271,0.53s-0.17,0.632-0.17,0.451
			c0-0.18-0.113-0.339,0-0.677c0.113-0.339,0.045-0.271,0.237-0.463c0.191-0.192,0.215-0.079,0.215-0.418s-0.113-0.452,0.158-0.723
			c0.271-0.271,0.112-0.316,0.112-0.429c0-0.113-0.226-0.204-0.632-0.068c-0.407,0.136-1.017,0.227-1.017,0.406
			c0,0.181,0.113,0.067-0.09,0.271c-0.204,0.203-0.361,0.248-0.091,0.52c0.271,0.271,0.396,0.158,0.396,0.395
			c0,0.237,0,0.351,0,0.351s-0.152-0.152-0.254-0.254c-0.103-0.102-0.176-0.028-0.356,0.152s-0.236,0.237-0.406,0.406
			c-0.169,0.169-0.35-0.011-0.35-0.011s0.305,0,0.305-0.305c0-0.306,0.396-0.227,0.396-0.464s0-0.226,0-0.542
			c0-0.315,0.135-0.632-0.181-0.315c-0.316,0.315-0.316-0.091-0.52,0.112S4.312,17.62,4.13,17.801
			c-0.181,0.18-0.181,0.101-0.181-0.034c0-0.136,0.097-0.231,0.209-0.345c0.113-0.113,0.021-0.353-0.22-0.113
			c-0.24,0.24-0.294,0.029-0.723,0.165c-0.43,0.135-0.531,0.033-0.531,0.033S2.583,17.27,2.922,17.27s0.497-0.158,0.926-0.158
			s0.294,0.113,0.768,0c0.475-0.113,0.452-0.429,0.915-0.554c0.463-0.123,1.977-0.35,2.111-0.824
			c0.136-0.474-0.384-0.315-0.857-0.315c-0.475,0-1.299-0.079-1.581,0.203s-0.576,0.169-0.813,0.406
			c-0.236,0.237-0.305,0.305-0.305,0.305s0.26-0.53,0.745-0.745c0.486-0.215-0.733-0.057-0.801,0.011
			c-0.068,0.068-0.779,0.237-0.949,0.407c-0.169,0.169-0.169-0.022-0.169-0.022l1.118-0.655C4.029,15.329,2.854,14.854,2.696,14.854
			z"/>
		<path fill="#F2F2F2" d="M14.215,10.247"/>
		<path fill="#F2F2F2" d="M10.895,1.845c0,0,0.022-0.971,1.265-1.265c0,0,0,1.197-1.027,1.502l0.215-0.485L10.895,1.845z"/>
		<path fill="#F2F2F2" d="M14.599,2.807c0,0,0.019-0.823,1.072-1.071c0,0,0,1.015-0.872,1.272l0.183-0.411L14.599,2.807z"/>
		<path fill="#F2F2F2" d="M16.017,4.596c0,0-0.442-0.745,0.388-1.438c0,0,0.364,0.907-0.299,1.528l0.068-0.449L16.017,4.596z"/>
		<path fill="#F2F2F2" d="M14.882,3.586c0,0,0.228-0.59,1-0.427c0,0-0.355,0.618-1.011,0.519l0.289-0.164L14.882,3.586z"/>
		<path fill="#F2F2F2" d="M16.883,3.344c0,0,0.018-0.759,0.989-0.987c0,0-0.001,0.936-0.805,1.173l0.168-0.379L16.883,3.344z"/>
		<path fill="#F2F2F2" d="M18.144,4.863c0,0,0.429-0.718,1.368-0.38c0,0-0.51,0.693-1.313,0.456l0.348-0.137L18.144,4.863z"/>
		<path fill="#F2F2F2" d="M16.664,5.265c0,0,0.713-0.435,1.388,0.302c0,0-0.775,0.376-1.375-0.209l0.371,0.041L16.664,5.265z"/>
		<path fill="#F2F2F2" d="M14.073,3.311c0,0-0.835-0.03-0.992-1.015c0,0,0.854,0.111,1.033,0.93l-0.288-0.238L14.073,3.311z"/>
		<path fill="#F2F2F2" d="M7.721,3.06c0,0-0.468-0.821,0.393-1.561c0,0,0.399,0.888-0.287,1.549l0.06-0.419L7.721,3.06z"/>
		<path fill="#F2F2F2" d="M9.023,1.882c0,0,0.397-0.966,1.628-0.721c0,0-0.503,0.953-1.546,0.805l0.406-0.232L9.023,1.882z"/>
		<path fill="#F2F2F2" d="M10.648,3.517c0,0-0.71-0.019-0.822-1.119c0,0,0.725,0.11,0.858,1.023L10.445,3.16L10.648,3.517z"/>
		<path fill="#F2F2F2" d="M8.302,4.55c0,0,0.166-0.689,1.266-0.569c0,0-0.259,0.686-1.181,0.625l0.307-0.179L8.302,4.55z"/>
		<path fill="#F2F2F2" d="M10.112,7.483c0,0-0.601,0.379-1.305-0.476c0,0,0.664-0.31,1.282,0.376L9.745,7.298L10.112,7.483z"/>
		<path fill="#F2F2F2" d="M9.66,3.472c0,0-0.566-0.015-0.656-0.894c0,0,0.578,0.088,0.686,0.817l-0.19-0.209L9.66,3.472z"/>
		<path fill="#F2F2F2" d="M8.539,1.876c0,0-0.724-0.696-0.069-1.71c0,0,0.675,0.787,0.174,1.667L8.579,1.388L8.539,1.876z"/>
		<path fill="#F2F2F2" d="M7.387,1.875c0,0-0.856-0.525-0.435-1.655c0,0,0.827,0.623,0.526,1.591L7.32,1.39L7.387,1.875z"/>
		<path fill="#F2F2F2" d="M7.33,3.002c0,0-1.067-0.039-1.236-1.554c0,0,1.089,0.166,1.29,1.424L7.024,2.508L7.33,3.002z"/>
		<path fill="#F2F2F2" d="M4.768,3.248c0,0-0.706-0.367-0.335-1.441c0,0,0.68,0.46,0.413,1.371l-0.125-0.36L4.768,3.248z"/>
		<path fill="#F2F2F2" d="M4.772,3.958c0,0-0.745,0.279-1.297-0.714c0,0,0.797-0.198,1.297,0.609L4.42,3.706L4.772,3.958z"/>
		<path fill="#F2F2F2" d="M3.016,4.051c0,0-0.426-0.481,0.164-1.184c0,0,0.379,0.543-0.086,1.153l0.011-0.309L3.016,4.051z"/>
		<path fill="#F2F2F2" d="M2.166,4.834c0,0-0.695-0.482-0.159-1.566c0,0,0.655,0.577,0.252,1.503L2.175,4.374L2.166,4.834z"/>
		<path fill="#F2F2F2" d="M2.571,5.501c0,0-0.101-0.841,1.065-1.159c0,0,0.004,0.873-0.957,1.187l0.241-0.327L2.571,5.501z"/>
		<path fill="#F2F2F2" d="M2.54,5.817c0,0-0.822,0.468-1.683-0.654c0,0,0.9-0.378,1.661,0.525L2.071,5.567L2.54,5.817z"/>
		<path fill="#F2F2F2" d="M2.693,6.202c0,0-0.148,0.732-1.263,0.662c0,0,0.243-0.731,1.175-0.716L2.302,6.352L2.693,6.202z"/>
		<path fill="#F2F2F2" d="M1.604,7.53c0,0-0.497,0.41-1.207-0.241c0,0,0.561-0.359,1.177,0.157L1.26,7.417L1.604,7.53z"/>
		<path fill="#F2F2F2" d="M2.102,8.092c0,0-0.203,0.845-1.495,0.718c0,0,0.312-0.841,1.395-0.784L1.64,8.25L2.102,8.092z"/>
		<path fill="#F2F2F2" d="M2.228,8.847c0,0,0.035,0.757-1.079,0.964c0,0,0.057-0.78,0.979-0.995L1.878,9.091L2.228,8.847z"/>
		<path fill="#F2F2F2" d="M1.438,10.222c0,0-0.405,0.642-1.438,0.172c0,0,0.494-0.606,1.373-0.255l-0.362,0.083H1.438z"/>
		<path fill="#F2F2F2" d="M1.855,10.682c0,0,0.135,0.746-0.942,1.099c0,0-0.046-0.782,0.84-1.116L1.542,10.97L1.855,10.682z"/>
		<path fill="#F2F2F2" d="M3.72,10.583c0,0,0.664,0.024,0.769,0.967c0,0-0.677-0.103-0.803-0.887l0.224,0.228L3.72,10.583z"/>
		<path fill="#F2F2F2" d="M2.339,10.806c0,0,0.832,0.03,0.964,1.212c0,0-0.85-0.129-1.007-1.11l0.28,0.284L2.339,10.806z"/>
		<path fill="#F2F2F2" d="M3.051,7.457c0,0-0.43,0.442-1.173-0.103c0,0,0.495-0.401,1.136,0.025L2.712,7.385L3.051,7.457z"/>
		<path fill="#F2F2F2" d="M4.806,7.141c0,0-0.066,0.712-1.134,0.758c0,0,0.156-0.72,1.045-0.799L4.448,7.324L4.806,7.141z"/>
		<path fill="#F2F2F2" d="M6.317,8.498c0,0-0.205,0.541-1.02,0.362c0,0,0.274-0.53,0.961-0.413L6.008,8.568L6.317,8.498z"/>
		<path fill="#F2F2F2" d="M5.484,5.048c0,0-0.573,0.618-1.59-0.085c0,0,0.662-0.564,1.538-0.018L5.024,4.968L5.484,5.048z"/>
		<path fill="#F2F2F2" d="M5.341,3.667c0,0-0.188-0.73,0.896-1.165c0,0,0.099,0.772-0.789,1.175l0.196-0.32L5.341,3.667z"/>
		<path fill="#F2F2F2" d="M5.839,4.597c0,0-0.161-0.623,0.764-0.993c0,0,0.085,0.658-0.673,1.001l0.168-0.273L5.839,4.597z"/>
		<path fill="#F2F2F2" d="M6.025,6.698c0,0-0.061-0.851,1.235-1.111c0,0-0.048,0.878-1.118,1.144l0.284-0.315L6.025,6.698z"/>
		<path fill="#F2F2F2" d="M13.14,3.681c0,0-0.829,0.212-1.27-0.711c0,0,0.872-0.137,1.285,0.616l-0.352-0.151L13.14,3.681z"/>
		<path fill="#F2F2F2" d="M11.557,2.704c0,0,0.197-0.668,1.025-0.591c0,0-0.268,0.667-0.966,0.642l0.252-0.183L11.557,2.704z"/>
		<path fill="#F2F2F2" d="M13.1,6.439c0,0-0.464,0.579-1.249,0.169c0,0,0.533-0.549,1.211-0.242l-0.322,0.078L13.1,6.439z"/>
		<path fill="#F2F2F2" d="M12.574,7.271c0,0,0.003,0.654-0.929,0.795c0,0,0.075-0.671,0.847-0.825L12.276,7.47L12.574,7.271z"/>
		<path fill="#F2F2F2" d="M16.954,6.883c0,0,0.202-0.834,1.227-0.789c0,0-0.289,0.836-1.149,0.847l0.299-0.24L16.954,6.883z"/>
		<path fill="#F2F2F2" d="M18.698,7.32c0,0-0.166-0.7,0.738-1.075c0,0,0.092,0.736-0.648,1.088l0.161-0.298L18.698,7.32z"/>
		<path fill="#F2F2F2" d="M17.805,7.791c0,0-0.244-0.678,0.613-1.151c0,0,0.174,0.722-0.522,1.153l0.126-0.313L17.805,7.791z"/>
		<path fill="#F2F2F2" d="M16.956,9.125c0,0-0.6-0.656,0.151-1.604c0,0,0.542,0.74-0.046,1.564l-0.006-0.418L16.956,9.125z"/>
		<path fill="#F2F2F2" d="M18.064,8.285c0,0,0.274-0.78,1.289-0.621c0,0-0.361,0.771-1.218,0.685l0.318-0.196L18.064,8.285z"/>
		<path fill="#F2F2F2" d="M17.602,9.226c0,0,0.537-0.722,1.549-0.222c0,0-0.625,0.685-1.495,0.312l0.396-0.099L17.602,9.226z"/>
		<path fill="#F2F2F2" d="M16.494,9.964c0,0,0.78-0.447,1.509,0.415c0,0-0.847,0.379-1.495-0.312l0.404,0.067L16.494,9.964z"/>
		<path fill="#F2F2F2" d="M16.494,9.919c0,0,0.78-0.447,1.509,0.415c0,0-0.847,0.378-1.495-0.312l0.404,0.067L16.494,9.919z"/>
		<path fill="#F2F2F2" d="M16.222,10.718c0,0,0.891,0.121,0.943,1.248c0,0-0.902-0.215-0.996-1.157l0.279,0.3L16.222,10.718z"/>
		<path fill="#F2F2F2" d="M18.134,10.223c0,0,0.55-0.864,1.729-0.392c0,0-0.651,0.831-1.66,0.489l0.439-0.149L18.134,10.223z"/>
		<path fill="#F2F2F2" d="M18.858,10.666c0,0,0.854-0.08,1.142,0.804c0,0-0.884,0.006-1.172-0.722l0.323,0.182L18.858,10.666z"/>
		<path fill="#F2F2F2" d="M17.635,10.937c0,0,0.751-0.07,1.004,0.706c0,0-0.777,0.006-1.03-0.634l0.284,0.16L17.635,10.937z"/>
		<path fill="#F2F2F2" d="M15.793,6.934c0,0-0.171-0.729,0.643-1.097c0,0,0.104,0.765-0.561,1.111l0.139-0.305L15.793,6.934z"/>
		<path fill="#F2F2F2" d="M16.915,4.374c0,0,0.35-0.674,1.323-0.452c0,0-0.412,0.84-1.238,0.7l0.317-0.267L16.915,4.374z"/>
	</g>
</g>
<g id="Ebene_4">
</g>
</svg>
