<?xml version="1.0" encoding="utf-8"?>
<!-- Generator: Adobe Illustrator 16.0.3, SVG Export Plug-In . SVG Version: 6.00 Build 0)  -->
<!DOCTYPE svg PUBLIC "-//W3C//DTD SVG 1.1//EN" "http://www.w3.org/Graphics/SVG/1.1/DTD/svg11.dtd">
<svg version="1.1" id="Ebene_1" xmlns="http://www.w3.org/2000/svg" xmlns:xlink="http://www.w3.org/1999/xlink" x="0px" y="0px"
	 width="20px" height="20px" viewBox="0 0 20 20" enable-background="new 0 0 20 20" xml:space="preserve">
<g>
	<path fill="#333333" d="M-0.069,17.246l-1.824-3.723l0.469-2.256c0.715-0.017,1.29-0.645,1.29-1.413
		c0-0.78-0.592-1.415-1.319-1.415H-1.87c-0.105-0.379-0.358-0.697-0.693-0.89c-0.04,0.285-0.084,0.583-0.132,0.89h-0.547
		c0.916-5.822,0.108-6.785-1.045-6.991c-0.114-0.021-0.228-0.033-0.341-0.033c-1.08,0-2.114,1.125-3.212,7.024h-0.202
		C-8.094,8.24-8.176,8.054-8.283,7.885c0.281-1.461,0.566-2.66,0.867-3.628C-8.22,4.278-8.864,4.935-8.864,5.743
		c-0.341,0-0.663,0.074-0.956,0.204c-0.2-0.585-0.754-1.006-1.407-1.006c-0.219,0-0.426,0.048-0.613,0.134
		c-0.272-0.298-0.663-0.485-1.098-0.485c-0.099,0-0.194,0.01-0.287,0.028c0.324,0.315,0.551,0.731,0.627,1.194l0.08,0.479
		c-0.185,0.013-0.361,0.052-0.528,0.112L-13.13,5.9c-0.008-0.05-0.02-0.098-0.031-0.146c-0.004-0.014-0.008-0.026-0.011-0.04
		c-0.012-0.036-0.023-0.071-0.036-0.106c-0.004-0.012-0.008-0.023-0.013-0.035c-0.018-0.044-0.036-0.088-0.058-0.131
		c-0.003-0.006-0.006-0.012-0.009-0.018c-0.02-0.036-0.04-0.072-0.062-0.107c-0.006-0.011-0.013-0.021-0.021-0.032
		c-0.021-0.034-0.045-0.066-0.069-0.098c-0.004-0.007-0.008-0.013-0.013-0.019c-0.029-0.037-0.061-0.073-0.093-0.108
		c-0.006-0.006-0.012-0.011-0.017-0.017c-0.028-0.029-0.057-0.057-0.087-0.084c-0.008-0.007-0.016-0.014-0.023-0.021
		c-0.182-0.155-0.395-0.271-0.627-0.334l-0.408-2.463l-1.333,0.22l0.409,2.464c-0.506,0.344-0.795,0.96-0.688,1.603l0.333,2.011
		h-0.547l-0.124-0.75c-0.014,0-0.026-0.003-0.041-0.003c-0.554,0-1.036,0.304-1.292,0.753h-0.558c-0.729,0-1.319,0.635-1.319,1.415
		c0,0.769,0.575,1.396,1.289,1.413l0.47,2.256l-1.824,3.723c-0.163,0.334-0.025,0.737,0.309,0.9
		c0.096,0.047,0.196,0.069,0.296,0.069c0.248,0,0.488-0.139,0.605-0.378l1.061-2.166l0.433,2.079l0.015,0.053
		c0.156,0.468,0.592,0.782,1.086,0.782h12.255c0.493,0,0.929-0.313,1.086-0.781l0.009-0.026l0.438-2.106l1.062,2.166
		c0.117,0.239,0.356,0.378,0.605,0.378c0.1,0,0.2-0.022,0.295-0.069C-0.044,17.982,0.095,17.58-0.069,17.246z M-16.287,11.338
		c-0.334-0.163-0.737-0.025-0.9,0.309l-0.243,0.497l-0.25-1.2h1.891l0.26,1.784h-0.687l0.239-0.488
		C-15.814,11.905-15.953,11.502-16.287,11.338z M-15.246,10.943h2.154l0.146,1.784h-2.039L-15.246,10.943z M-9.73,13.266h2.091
		l-0.146,1.796H-9.73V13.266z M-10.27,15.062h-1.944l-0.147-1.796h2.092V15.062z M-9.73,12.728v-1.784h2.282l-0.147,1.784H-9.73z
		 M-10.27,12.728h-2.136l-0.146-1.784h2.282V12.728L-10.27,12.728z M-12.902,13.266l0.148,1.796h-1.892l-0.262-1.796H-12.902z
		 M-12.71,15.601l0.167,2.043h-1.727l-0.298-2.043H-12.71z M-12.17,15.601h1.9v2.043h-1.732L-12.17,15.601z M-9.73,15.601h1.9
		l-0.168,2.043H-9.73V15.601z M-7.29,15.601h1.857l-0.299,2.043h-1.727L-7.29,15.601z M-7.246,15.062l0.147-1.796h2.005
		l-0.262,1.796H-7.246z M-7.054,12.728l0.146-1.784h2.153l-0.26,1.784H-7.054z M-4.21,10.943h1.891l-0.25,1.2l-0.243-0.497
		c-0.163-0.334-0.566-0.472-0.9-0.309c-0.335,0.164-0.472,0.567-0.309,0.901l0.238,0.487h-0.688L-4.21,10.943z M-5.77,3.49
		c0.018-0.007,0.045-0.021,0.078-0.03c0.066-0.024,0.16-0.05,0.271-0.07c0.105-0.019,0.226-0.028,0.352-0.028
		c0.14,0,0.288,0.013,0.434,0.038c0.276,0.049,0.545,0.147,0.738,0.262C-3.799,3.719-3.72,3.775-3.665,3.82
		c0.027,0.021,0.048,0.044,0.063,0.057c0.014,0.013,0.021,0.021,0.021,0.021S-3.59,3.901-3.608,3.909
		C-3.626,3.916-3.653,3.931-3.687,3.94C-3.753,3.964-3.848,3.989-3.957,4.01c-0.106,0.019-0.226,0.029-0.351,0.029
		c-0.141,0-0.289-0.013-0.435-0.039c-0.278-0.05-0.545-0.149-0.74-0.263c-0.096-0.057-0.176-0.114-0.23-0.159
		C-5.74,3.558-5.761,3.535-5.775,3.522C-5.79,3.509-5.798,3.502-5.798,3.502S-5.788,3.498-5.77,3.49z M-6.137,4.931
		c0.078-0.021,0.187-0.046,0.315-0.062c0.1-0.013,0.211-0.02,0.329-0.02c0.187,0,0.389,0.017,0.589,0.053
		c0.325,0.058,0.642,0.165,0.872,0.286c0.115,0.059,0.21,0.119,0.274,0.167c0.065,0.046,0.102,0.08,0.102,0.08
		s-0.046,0.019-0.123,0.04s-0.187,0.046-0.314,0.062c-0.1,0.013-0.211,0.02-0.327,0.02c-0.188,0-0.392-0.018-0.591-0.054
		c-0.326-0.059-0.642-0.166-0.873-0.286c-0.114-0.059-0.209-0.12-0.274-0.167c-0.064-0.047-0.101-0.079-0.101-0.079
		S-6.215,4.951-6.137,4.931z M-6.405,6.434c0.078-0.021,0.187-0.046,0.315-0.061c0.1-0.014,0.212-0.02,0.329-0.02
		c0.187,0,0.39,0.017,0.589,0.052C-4.847,6.463-4.53,6.57-4.3,6.691c0.115,0.059,0.21,0.119,0.274,0.167
		c0.065,0.046,0.102,0.08,0.102,0.08s-0.046,0.019-0.123,0.04S-4.233,7.024-4.361,7.04c-0.1,0.013-0.211,0.02-0.327,0.02
		c-0.188,0-0.391-0.017-0.591-0.053C-5.604,6.948-5.921,6.84-6.151,6.72c-0.115-0.06-0.21-0.119-0.274-0.167
		c-0.065-0.046-0.102-0.079-0.102-0.079S-6.482,6.454-6.405,6.434z M-6.42,8.223c-0.115-0.059-0.21-0.12-0.274-0.167
		C-6.76,8.009-6.795,7.977-6.795,7.977s0.045-0.019,0.122-0.04s0.187-0.045,0.314-0.062c0.1-0.013,0.212-0.019,0.33-0.019
		c0.186,0,0.389,0.016,0.588,0.052c0.325,0.058,0.642,0.166,0.873,0.286c0.115,0.059,0.209,0.119,0.274,0.167
		c0.062,0.044,0.096,0.075,0.1,0.078H-5.85C-6.063,8.381-6.263,8.305-6.42,8.223z M-13.648,8.439
		c-0.01-0.063-0.016-0.128-0.016-0.194c0-0.709,0.576-1.287,1.286-1.287c0.446,0,0.84,0.23,1.07,0.578
		c-0.249,0.245-0.431,0.556-0.521,0.903H-13.648z M-9.936,7.646c0.535,0,0.993,0.329,1.186,0.794h-2.373
		C-10.93,7.975-10.47,7.646-9.936,7.646z M-18.923,9.854c0-0.256,0.172-0.473,0.376-0.473h17.093c0.205,0,0.377,0.217,0.377,0.473
		c0,0.255-0.172,0.471-0.377,0.471h-0.572v-0.001h-16.159v0.001h-0.361C-18.751,10.325-18.923,10.109-18.923,9.854z M-16.481,13.266
		h1.029l0.263,1.796h-1.635l-0.16-0.769L-16.481,13.266z M-16.313,17.523l-0.4-1.923h1.602l0.298,2.043h-1.314
		C-16.208,17.643-16.28,17.596-16.313,17.523z M-3.873,17.643h-1.314l0.299-2.043h1.601l-0.4,1.924
		C-3.72,17.596-3.792,17.643-3.873,17.643z M-3.176,15.062h-1.636l0.262-1.796h1.03l0.503,1.026L-3.176,15.062z"/>
</g>
<g>
	<path fill="#333333" d="M6,9.958V12h8V9.958c0-1.186,1-2.218,2-2.892V6.938C16,5.426,14.314,4,12.803,4H7.097
		c-1.51,0-2.729,1.321-2.729,2.833L4.468,7.01C5.336,7.691,6,8.788,6,9.958z"/>
	<path fill="#333333" d="M18.248,6.309c-0.883,0-2.188,0.317-2.188,0.829C15.039,7.833,14,8.902,14,10.128V12H6v-1.872
		C6,8.917,5.27,8,4.373,7H4.313C3.668,7,2.82,6.242,1.931,6.242c-1.173,0-1.875,0.987-1.875,2.117C0.056,9.4,1,10.257,2,10.431V16
		h16v-5.569c1-0.131,2.054-0.998,2.054-2.039C20.054,7.22,19.375,6.309,18.248,6.309z"/>
</g>
<g>
	<path fill="#333333" d="M39.321,5.344c-4.188-1.296-7.478-4.487-9.273-4.487c-1.794,0-5.084,3.19-9.271,4.487
		c-0.698,0.199-0.998,0.996-0.598,1.595c0.897,1.196,1.895,1.296,1.895,2.692c0,0,3.985,0.996,7.974,0.996s7.977-0.996,7.977-0.996
		c0-1.396,0.997-1.496,1.793-2.792C40.218,6.34,39.918,5.542,39.321,5.344z M30.048,8.833c-1.096,0-1.993-1.895-1.993-2.992
		c0,0,0.897-0.997,1.993-0.997c1.099,0,1.995,0.997,1.995,0.997C32.043,6.938,31.146,8.833,30.048,8.833z"/>
</g>
</svg>
