<?xml version="1.0" encoding="utf-8"?>
<!-- Generator: Adobe Illustrator 21.0.0, SVG Export Plug-In . SVG Version: 6.00 Build 0)  -->
<svg version="1.1" id="Ebene_1" xmlns="http://www.w3.org/2000/svg" xmlns:xlink="http://www.w3.org/1999/xlink" x="0px" y="0px"
	 viewBox="0 0 20 20" enable-background="new 0 0 20 20" xml:space="preserve">
<g>
	<path fill="#F2F2F2" d="M17.145,11.551c0.729,0.007,1.787-0.072,2.855-0.468V1.501H9.866C9.866,1.501,12.608,8.904,17.145,11.551z"
		/>
	<path fill="#F2F2F2" d="M17.267,12.073c-0.046,0-0.092,0-0.136-0.001l-2.224,6.427H20v-6.865
		C18.982,11.985,17.993,12.073,17.267,12.073z"/>
	<path fill="#F2F2F2" d="M2.855,11.551C2.126,11.558,1.068,11.479,0,11.083V1.501h10.134C10.134,1.501,7.392,8.904,2.855,11.551z"/>
	<path fill="#F2F2F2" d="M2.733,12.073c0.046,0,0.091,0,0.136-0.001l2.224,6.427H0v-6.865C1.018,11.985,2.007,12.073,2.733,12.073z"
		/>
</g>
</svg>
