<?xml version="1.0" encoding="utf-8"?>
<!-- Generator: Adobe Illustrator 16.0.3, SVG Export Plug-In . SVG Version: 6.00 Build 0)  -->
<!DOCTYPE svg PUBLIC "-//W3C//DTD SVG 1.1//EN" "http://www.w3.org/Graphics/SVG/1.1/DTD/svg11.dtd">
<svg version="1.1" id="Ebene_1" xmlns="http://www.w3.org/2000/svg" xmlns:xlink="http://www.w3.org/1999/xlink" x="0px" y="0px"
	 width="20px" height="20px" viewBox="0 0 20 20" enable-background="new 0 0 20 20" xml:space="preserve">
<g>
	<path fill="#333333" d="M11.572,0.322c1.392,0.566,2.145,1.454,2.471,2.84c0.139,0.592,0.173,0.602-0.23,0.595
		c-0.101-0.002-1.031-0.002-1.132-0.002c-0.494,0-0.389,0.118-0.72-0.828C11.348,1.3,9.256,1.353,8.378,2.147
		C7.726,2.735,7.663,3.73,8.393,4.361c0.854,0.741,1.813,1.357,2.744,2.01c0.882,0.616,1.817,1.156,2.657,1.82
		c1.602,1.271,1.491,4.151-0.394,5.118c-0.197,0.093-0.341,0.177-0.7,0.357c0.221,0.25,0.479,0.501,0.671,0.698
		c1.545,1.595,1.051,4.269-0.987,5.142c-1.617,0.693-3.257,0.674-4.821-0.166c-1.031-0.552-1.573-1.494-1.808-2.622
		c-0.02-0.096-0.029-0.276,0.005-0.288c0.427-0.142,0.868-0.242,1.295-0.36C7.313,16,7.371,16.359,7.472,16.549
		c0.249,0.475,0.351,0.662,0.811,1.12c0.945,0.931,2.897,0.834,3.621,0.154c0.691-0.65,0.705-1.768-0.101-2.422
		c-0.959-0.779-2.02-1.437-3.021-2.163c-0.931-0.677-1.914-1.302-2.763-2.077C4.517,9.783,4.853,7.138,6.882,6.1
		C6.982,6.049,6.982,6.049,7.241,5.9C7.083,5.682,6.92,5.461,6.776,5.274C5.361,3.409,6.139,1.061,8.359,0.281
		C10.234-0.374,11.572,0.322,11.572,0.322z M13.232,10.968c-0.101-0.76-0.59-1.362-1.228-1.813
		c-1.146-0.808-2.327-1.563-3.507-2.321c-0.125-0.08-0.374-0.108-0.494-0.036c-1.636,0.986-1.717,2.456-0.402,3.446
		c1.232,0.923,2.561,1.719,3.852,2.557c0.119,0.077,0.316,0.098,0.45,0.06C12.551,12.668,13.237,11.711,13.232,10.968z"/>
</g>
<g>
	<g>
		<g>
			<path fill="#333333" d="M39.779,8.934L38.574,8.68c-0.13-0.035-0.242-0.115-0.316-0.227l-0.764-1.145
				c-0.182-0.273-0.478-0.451-0.805-0.484l-1.793-0.185c-0.279-0.029-0.561,0.051-0.783,0.222l-1.401,1.075
				c-0.088,0.068-0.154,0.161-0.188,0.267l-0.378,1.16l-1.049-0.129L30.479,7.99c-0.174-0.26-0.45-0.435-0.759-0.479l-1.536-0.098
				c-0.294-0.042-0.592,0.036-0.828,0.216L26.08,8.608c-0.088,0.067-0.154,0.161-0.188,0.267l-0.637,1.307l-1.702,0.217
				l-1.617,0.251c-0.183,0.028-0.355,0.102-0.502,0.215l-0.966,0.741c-0.088,0.068-0.154,0.161-0.188,0.267l-0.27,0.83
				c-0.033,0.103,0.024,0.212,0.128,0.243h0.001c0.089,0.026,0.184-0.014,0.227-0.096l0.354-0.672
				c0.054-0.104,0.14-0.187,0.244-0.238l0.693-0.34l0.093,1.117l0,0l0.056,1.791l-0.88,0.675c-0.104,0.08-0.132,0.224-0.066,0.337
				l0,0c0.074,0.127,0.24,0.167,0.364,0.087l1.468-0.94c0.04-0.025,0.064-0.07,0.064-0.117v-0.826l0.702-1.935l0.048-0.555
				l2.137-0.711l0.852-1.233c0.054-0.104,0.141-0.189,0.247-0.241l0.985-0.482l0.014,1.572c0,0.132-0.006,0.263-0.021,0.395
				l-0.561,3.077c-0.016,0.085,0.05,0.164,0.136,0.163l3.58,0.015c0.104,0,0.172-0.11,0.123-0.203l-1.131-2.592
				c-0.181-0.363-0.223-0.779-0.116-1.171l0.248-0.907l0.623,0.976c0.073,0.095,0.193,0.141,0.312,0.117l1.578-0.144l0.005,0.001
				l0.002-0.003l0.008-0.001l0.001-0.015l0.635-1.207c0.055-0.103,0.141-0.187,0.246-0.238l1.054-0.517l0.009,2.723
				c0.002,0.33,0.149,0.641,0.405,0.85l2.032,1.66l0.001,1.854c0.001,0.167,0.132,0.305,0.299,0.313l0.315,0.016
				c0.171,0.008,0.317-0.122,0.328-0.292l0.15-2.227c0.023-0.341-0.114-0.673-0.37-0.9l-0.646-0.57
				c-0.307-0.271-0.438-0.689-0.341-1.087l0.463-1.898l0.73,0.952c0.102,0.131,0.255,0.21,0.421,0.215l1.436,0.026
				C39.858,9.522,39.995,9.393,40,9.229l0,0C40.004,9.092,39.912,8.969,39.779,8.934z"/>
		</g>
	</g>
</g>
</svg>
