<?xml version="1.0" encoding="utf-8"?>
<!-- Generator: Adobe Illustrator 16.0.3, SVG Export Plug-In . SVG Version: 6.00 Build 0)  -->
<!DOCTYPE svg PUBLIC "-//W3C//DTD SVG 1.1//EN" "http://www.w3.org/Graphics/SVG/1.1/DTD/svg11.dtd">
<svg version="1.1" xmlns="http://www.w3.org/2000/svg" xmlns:xlink="http://www.w3.org/1999/xlink" x="0px" y="0px" width="20px"
	 height="20px" viewBox="0 0 20 20" enable-background="new 0 0 20 20" xml:space="preserve">
<g id="Ebene_1">
</g>
<g id="Ebene_4">
	<g>
		<path fill="#333333" d="M5.674,7.119c-0.215,0-0.363,0.019-0.447,0.039v2.853c0.084,0.02,0.227,0.02,0.343,0.02
			c0.899,0.006,1.488-0.485,1.488-1.526C7.058,7.597,6.527,7.119,5.674,7.119z"/>
		<path fill="#333333" d="M19.956,9.863c0.512-4.606-3.53-8.866-9.028-9.512C10.453,0.295,9.983,0.266,9.52,0.266
			c-4.899,0-9.007,3.044-9.477,7.251c-0.511,4.606,3.529,8.866,9.028,9.513c0.472,0.056,0.938,0.082,1.396,0.082
			c0.508,0,1.006-0.034,1.492-0.097c1.968,2.142,4.021,2.719,5.172,2.719c0.737,0,1.102-0.237,0.833-0.449
			c-1.678-1.332-2.033-2.632-1.927-3.655C18.193,14.341,19.684,12.298,19.956,9.863z M7.381,10.237
			c-0.459,0.382-1.164,0.563-2.018,0.563c-0.512,0-0.88-0.032-1.12-0.064V6.458c0.362-0.058,0.835-0.097,1.326-0.097
			c0.834,0,1.377,0.155,1.791,0.466C7.813,7.165,8.099,7.702,8.099,8.47C8.099,9.305,7.795,9.88,7.381,10.237z M11.526,10.754H8.751
			v-4.36h2.685v0.809H9.734v0.906h1.604v0.802H9.734v1.035h1.792V10.754z M15.757,8.839c0,1.346-0.68,1.985-1.819,1.985
			c-1.099,0-1.739-0.614-1.739-1.998V6.394h0.984v2.503c0,0.758,0.29,1.139,0.788,1.139c0.518,0,0.802-0.361,0.802-1.139V6.394
			h0.984V8.839z"/>
	</g>
	<g>
		<path fill="#333333" d="M20,16.393h2.878V3.367H20V16.393z"/>
		<path fill="#333333" d="M22.878,0.653c0-0.115-0.096-0.208-0.209-0.208h-2.465C20.09,0.444,20,0.538,20,0.653v2.511h2.878V0.653z"
			/>
		<path fill="#333333" d="M20,19.377c0,0.114,0.09,0.208,0.204,0.208h2.465c0.113,0,0.209-0.095,0.209-0.208v-2.784H20V19.377z"/>
	</g>
</g>
</svg>
