<?xml version="1.0" encoding="utf-8"?>
<!-- Generator: Adobe Illustrator 16.0.3, SVG Export Plug-In . SVG Version: 6.00 Build 0)  -->
<!DOCTYPE svg PUBLIC "-//W3C//DTD SVG 1.1//EN" "http://www.w3.org/Graphics/SVG/1.1/DTD/svg11.dtd">
<svg version="1.1" xmlns="http://www.w3.org/2000/svg" xmlns:xlink="http://www.w3.org/1999/xlink" x="0px" y="0px" width="20px"
	 height="20px" viewBox="0 0 20 20" enable-background="new 0 0 20 20" xml:space="preserve">
<g id="Ebene_1">
</g>
<g id="Ebene_4">
	<g>
	</g>
	<g>
		<g>
			<path fill="#F2F2F2" d="M-1.028,11.028h-17.943C-19.54,11.028-20,10.568-20,10s0.46-1.028,1.028-1.028h17.943
				C-0.46,8.972,0,9.432,0,10S-0.46,11.028-1.028,11.028z"/>
		</g>
	</g>
	<g>
		<path fill="#333333" d="M15.8-9.901c0.603-1.002,0.956-2.173,0.956-3.427c0-3.685-2.987-6.672-6.673-6.672
			s-6.673,2.987-6.673,6.672c0,1.271,0.362,2.454,0.979,3.466L10.084,0L15.8-9.901z"/>
	</g>
	<g>
		<path fill="#F2F2F2" d="M15.8,10.099c0.603-1.002,0.956-2.173,0.956-3.427C16.756,2.987,13.769,0,10.083,0
			S3.411,2.987,3.411,6.672c0,1.271,0.362,2.454,0.979,3.466L10.084,20L15.8,10.099z"/>
	</g>
	<g>
		<path fill="#F2F2F2" d="M20,17h20v-2.334H20V17z M20,11.168h20V8.834H20V11.168z M20,3v2.334h20V3H20z"/>
	</g>
</g>
</svg>
