<?xml version="1.0" encoding="utf-8"?>
<!-- Generator: Adobe Illustrator 21.0.0, SVG Export Plug-In . SVG Version: 6.00 Build 0)  -->
<svg version="1.1" id="Ebene_1" xmlns="http://www.w3.org/2000/svg" xmlns:xlink="http://www.w3.org/1999/xlink" x="0px" y="0px"
	 viewBox="0 0 20 20.001" enable-background="new 0 0 20 20.001" xml:space="preserve">
<path fill="#333333" d="M19.413,17.831h-5.965c2.723-1.549,4.561-4.474,4.561-7.83c0-4.973-4.031-9.004-9.004-9.004
	S0,5.028,0,10.001c0,4.886,3.893,8.861,8.746,8.997c0.022,0.003,0.043,0.006,0.065,0.006h10.602c0.324,0,0.587-0.263,0.587-0.587
	C20,18.094,19.737,17.831,19.413,17.831z M13.141,6.111c0.657-0.379,1.497-0.154,1.876,0.503c0.379,0.657,0.154,1.497-0.502,1.876
	c-0.657,0.379-1.497,0.154-1.876-0.502C12.26,7.33,12.485,6.49,13.141,6.111z M12.639,12.184c0.379-0.657,1.219-0.882,1.876-0.503
	c0.657,0.379,0.882,1.219,0.502,1.876c-0.379,0.657-1.219,0.882-1.876,0.503C12.485,13.681,12.26,12.841,12.639,12.184z
	 M9.004,3.142c0.759,0,1.374,0.615,1.374,1.374c0,0.758-0.615,1.373-1.374,1.373S7.631,5.274,7.631,4.516
	C7.631,3.757,8.246,3.142,9.004,3.142z M4.867,14.06c-0.657,0.379-1.497,0.154-1.876-0.502C2.612,12.9,2.837,12.06,3.494,11.681
	c0.657-0.379,1.497-0.154,1.876,0.503S5.524,13.681,4.867,14.06z M5.37,7.987C4.991,8.644,4.15,8.87,3.494,8.49
	C2.837,8.111,2.612,7.271,2.991,6.614C3.37,5.957,4.21,5.732,4.867,6.111C5.524,6.49,5.749,7.33,5.37,7.987z M8.033,9.029
	c0.536-0.536,1.406-0.536,1.942,0c0.537,0.536,0.537,1.406,0,1.942c-0.536,0.536-1.406,0.536-1.942,0
	C7.497,10.435,7.497,9.566,8.033,9.029z M7.631,15.656c0-0.759,0.615-1.374,1.374-1.374s1.374,0.615,1.374,1.374
	s-0.615,1.374-1.374,1.374S7.631,16.415,7.631,15.656z"/>
</svg>
