<?xml version="1.0" encoding="utf-8"?>
<!-- Generator: Adobe Illustrator 16.0.3, SVG Export Plug-In . SVG Version: 6.00 Build 0)  -->
<!DOCTYPE svg PUBLIC "-//W3C//DTD SVG 1.1//EN" "http://www.w3.org/Graphics/SVG/1.1/DTD/svg11.dtd">
<svg version="1.1" id="Ebene_1" xmlns="http://www.w3.org/2000/svg" xmlns:xlink="http://www.w3.org/1999/xlink" x="0px" y="0px"
	 width="20px" height="20.001px" viewBox="0 0 20 20.001" enable-background="new 0 0 20 20.001" xml:space="preserve">
<g>
	<polygon fill="#333333" points="2.264,7.992 2.194,7.954 2.194,7.951 	"/>
	<g>
		<path fill="#333333" d="M15.796,10.997c0-0.006-0.003-0.013-0.003-0.016c-0.02-0.393,0.013-0.778-0.091-1.164
			c-0.051-0.199-0.105-0.334-0.279-0.447c-0.203-0.132-0.402-0.27-0.621-0.376c-0.54-0.27-1.105-0.453-1.704-0.579
			c-1.292-0.267-2.595-0.331-3.903-0.28C8.647,8.158,8.102,8.196,7.562,8.273c-0.917,0.135-1.811,0.36-2.627,0.82
			C4.629,9.264,4.41,9.376,4.323,9.73c-0.202,0.836-0.189,2.145-0.216,2.997c-0.003,0.161,0.058,0.276,0.181,0.356
			c0.118,0.081,0.244,0.154,0.379,0.209c0.798,0.321,1.649,0.415,2.492,0.537c0.434,0.064,0.878,0.083,1.315,0.097
			c1.948,0.058,3.896,0.054,5.816-0.351c0.446-0.093,0.874-0.29,1.302-0.457c0.145-0.058,0.241-0.193,0.238-0.367
			C15.821,12.338,15.818,11.412,15.796,10.997z M14.998,12.968c-0.209,0.093-0.428,0.183-0.649,0.225
			c-0.398,0.078-0.804,0.145-1.209,0.174c-0.771,0.051-1.547,0.093-2.318,0.132c-0.289,0.016-0.575,0.022-0.861,0.019
			c-0.46,0-0.913-0.019-1.376-0.042c-0.575-0.029-1.148-0.061-1.721-0.109c-0.598-0.055-1.205-0.106-1.774-0.331
			c-0.02-0.007-0.042-0.01-0.058-0.02c-0.157-0.071-0.366-0.222-0.167-0.37c0.132-0.097,0.314-0.125,0.469-0.167
			c0.276-0.081,0.563-0.148,0.85-0.193c1.038-0.164,2.083-0.208,3.135-0.202c0.978,0.006,1.954-0.013,2.932,0.039
			c0.718,0.039,1.432,0.167,2.142,0.273c0.181,0.026,0.366,0.055,0.531,0.132C15.098,12.611,15.265,12.849,14.998,12.968z"/>
	</g>
	<path fill="#333333" d="M2.545,12.473c0.168,0.608,0.614,2.399,0.614,3.891c0,0-0.187,0.299-0.896,0.337
		c-0.708-0.039-0.895-0.337-0.895-0.337c0-1.492,0.447-3.283,0.611-3.891c-0.145-0.093-0.238-0.254-0.238-0.437
		c0-0.245,0.167-0.447,0.393-0.505v-0.99l0.261,0.154v0.836c0.225,0.058,0.392,0.261,0.392,0.505
		C2.786,12.219,2.69,12.38,2.545,12.473z"/>
	<path fill="#333333" d="M20,8.877c-1.138,0.654-2.242,1.29-3.385,1.952l-0.189,0.11v-0.047l-0.005-0.017
		c-0.004-0.076-0.004-0.151-0.004-0.228c-0.004-0.299-0.008-0.641-0.101-0.991c-0.076-0.287-0.194-0.586-0.548-0.818l-0.098-0.063
		c-0.181-0.118-0.37-0.245-0.586-0.35c-0.561-0.278-1.172-0.485-1.859-0.632c-1.008-0.207-2.062-0.308-3.221-0.308
		c-0.278,0-0.557,0.004-0.835,0.017c-0.662,0.03-1.201,0.072-1.699,0.144C6.308,7.819,5.405,8.102,4.6,8.557
		C4.271,8.738,3.857,8.97,3.71,9.582c-0.097,0.388-0.147,0.852-0.173,1.324L3.25,10.736l-0.603-0.341L2.58,10.354l-0.253-0.148
		L2.26,10.164L1.476,9.717C1.008,9.443,0.527,9.169,0,8.865c0.236-0.147,0.409-0.261,0.587-0.362
		c2.993-1.687,5.99-3.369,8.976-5.067c0.324-0.182,0.564-0.182,0.89,0.004c3.035,1.729,6.083,3.436,9.123,5.152
		C19.706,8.663,19.828,8.755,20,8.877z"/>
</g>
<g>
	<g>
		<path fill="#333333" d="M30,0.001c-5.523,0-10,4.477-10,10C20,15.523,24.477,20,30,20c5.522,0,10-4.477,10-9.999
			C40,4.478,35.522,0.001,30,0.001z M30,18.334c-4.603,0-8.334-3.731-8.334-8.333c0-4.603,3.731-8.334,8.334-8.334
			c4.602,0,8.333,3.731,8.333,8.334C38.333,14.603,34.602,18.334,30,18.334z"/>
	</g>
</g>
</svg>
