<?xml version="1.0" encoding="utf-8"?>
<!-- Generator: Adobe Illustrator 21.0.0, SVG Export Plug-In . SVG Version: 6.00 Build 0)  -->
<svg version="1.1" id="Ebene_1" xmlns="http://www.w3.org/2000/svg" xmlns:xlink="http://www.w3.org/1999/xlink" x="0px" y="0px"
	 viewBox="0 0 20 20.001" enable-background="new 0 0 20 20.001" xml:space="preserve">
<g>
	<path fill="#333333" d="M6.168,9.044c-0.475,0-0.75,0.356-0.75,0.542c0,0.43,0.757,0.712,1.73,0.712c0.104,0,0.2-0.007,0.289-0.022
		C7.163,9.534,6.74,9.044,6.168,9.044z"/>
	<path fill="#333333" d="M19.956,9.863c0.512-4.606-3.53-8.866-9.028-9.512C10.454,0.296,9.984,0.267,9.52,0.267
		c-4.899,0-9.007,3.044-9.477,7.251c-0.511,4.606,3.529,8.866,9.028,9.513c0.472,0.056,0.938,0.082,1.396,0.082
		c0.508,0,1.006-0.034,1.492-0.097c1.968,2.142,4.021,2.719,5.172,2.719c0.737,0,1.102-0.237,0.833-0.449
		c-1.678-1.332-2.033-2.632-1.927-3.655C18.194,14.342,19.684,12.299,19.956,9.863z M10.8,8.666c0,0.661-0.111,1.165-0.275,1.641
		c-0.096,0.282-0.215,0.549-0.371,0.787c-0.289,0.393-0.69,0.668-1.358,0.668H8.692H8.135C7.824,13.104,6.888,14.47,5.73,14.47
		c-0.668,0-1.395-0.289-2.182-0.823l0.171-0.394c0.275,0.119,0.571,0.208,0.905,0.208c0.638,0,1.262-0.305,1.856-0.765
		c0.408-0.312,0.72-0.638,0.861-0.935H7.133c-1.417,0-2.36-0.453-2.36-1.789c0-0.542,0.186-1.032,0.565-1.477
		c0.356-0.424,0.757-0.661,1.187-0.661c0.831,0,1.366,0.898,1.663,2.442h0.505h0.104c0.475,0,0.839-0.089,1.054-0.305
		c0.126-0.126,0.126-0.334,0.126-0.734c0-1.848-0.245-3.496-0.245-3.867c0-0.275,0.06-0.512,0.201-0.69
		c0.141-0.178,0.319-0.364,0.579-0.557l0.089,0.06c0,0.49,0.282,1.091,0.817,1.981l-0.661,0.505C10.785,7.24,10.8,7.939,10.8,8.666z
		 M13.531,11.101c-0.156,0.282-0.356,0.571-0.609,0.869L12.76,11.85c0.074-0.527,0.096-1.076,0.096-1.789
		c0-1.603-0.074-3.199-0.253-4.825c0.297-0.356,0.579-0.668,0.861-0.942l0.126,0.067c0.148,1.604,0.17,3.103,0.17,4.543
		C13.761,10.069,13.695,10.848,13.531,11.101z M14.652,3.411c-0.282,0.259-0.601,0.364-0.928,0.364
		c-0.594,0-1.069-0.126-1.321-0.126c-0.074,0-0.126,0.007-0.141,0.03l-0.289,0.527h-0.119l-0.378-0.594
		c0.044-0.579,0.289-0.876,0.72-0.876c0.401,0,0.98,0.223,1.678,0.223c0.364,0,0.675-0.126,0.943-0.378l0.089,0.052L14.652,3.411z"
		/>
</g>
</svg>
