<?xml version="1.0" encoding="utf-8"?>
<!-- Generator: Adobe Illustrator 16.0.3, SVG Export Plug-In . SVG Version: 6.00 Build 0)  -->
<!DOCTYPE svg PUBLIC "-//W3C//DTD SVG 1.1//EN" "http://www.w3.org/Graphics/SVG/1.1/DTD/svg11.dtd">
<svg version="1.1" id="Ebene_1" xmlns="http://www.w3.org/2000/svg" xmlns:xlink="http://www.w3.org/1999/xlink" x="0px" y="0px"
	 width="20px" height="20px" viewBox="0 0 20 20" enable-background="new 0 0 20 20" xml:space="preserve">
<g>
	<g>
		<g>
			<path fill="#333333" d="M19.994,17.119c0.037-0.328-0.104-15.078-0.104-15.078s-0.02-0.228-0.206-0.274
				c-0.456-0.114-1.467,4.462-1.173,5.947c0.206,1.026,0.641,0.979,0.719,1.276c0.079,0.297,0,8.118,0,8.118
				s0.008,0.433,0.415,0.461C19.646,17.569,19.942,17.569,19.994,17.119z"/>
			<path fill="#333333" d="M0.499,17.054c0,0,0.133,0.538,0.405,0.516c0.274-0.023,0.407-0.352,0.461-0.516
				C1.42,16.89,1.179,7.986,1.179,7.986S1.66,7.57,1.738,7.242c0.074-0.329,0.229-0.603,0.196-1.227
				C1.9,5.39,1.643,2.377,1.552,2.377c-0.071,0,0.003,3.781-0.132,3.824C1.27,6.248,1.23,2.377,1.14,2.377
				c-0.13,0-0.036,3.764-0.191,3.791c-0.169,0.03-0.076-3.731-0.211-3.731c-0.122,0-0.073,3.737-0.27,3.743
				c-0.11,0.003-0.047-3.724-0.12-3.746C0.148,2.377-0.067,6.047,0.019,6.496c0.086,0.449,0.253,1.15,0.646,1.402
				C0.818,7.997,0.499,17.054,0.499,17.054z"/>
			<circle fill="none" stroke="#333333" stroke-miterlimit="10" cx="10.173" cy="10.72" r="7.514"/>
		</g>
		<circle fill="#333333" cx="10.173" cy="10.72" r="6.005"/>
	</g>
</g>
</svg>
