<?xml version="1.0" encoding="utf-8"?>
<!-- Generator: Adobe Illustrator 16.0.3, SVG Export Plug-In . SVG Version: 6.00 Build 0)  -->
<!DOCTYPE svg PUBLIC "-//W3C//DTD SVG 1.1//EN" "http://www.w3.org/Graphics/SVG/1.1/DTD/svg11.dtd">
<svg version="1.1" id="Ebene_1" xmlns="http://www.w3.org/2000/svg" xmlns:xlink="http://www.w3.org/1999/xlink" x="0px" y="0px"
	 width="20px" height="20px" viewBox="0 0 20 20" enable-background="new 0 0 20 20" xml:space="preserve">
<g>
	<path fill="#F2F2F2" d="M-1.807,6.308c-0.883,0-2.161,0.316-2.161,0.829C-4.988,7.833-6,8.901-6,10.127V12h-8v-1.873
		C-14,8.917-14.785,8-15.682,7h-0.061c-0.645,0-1.492-0.758-2.382-0.758c-1.173,0-1.848,0.986-1.848,2.115
		C-19.972,9.4-19,10.256-18,10.43V16h16v-5.57c1-0.131,2.026-0.997,2.026-2.039C0.026,7.219-0.68,6.308-1.807,6.308z"/>
</g>
<g>
	<path fill="#F2F2F2" d="M18.024,12.492c0,0-2.293,5.483-7.977,5.483c-5.681,0-7.974-5.483-7.974-5.483s4.087,0.998,7.875,0.998
		C13.738,13.49,18.024,12.492,18.024,12.492z"/>
	<path fill="#F2F2F2" d="M19.321,6.512c-4.188-1.296-7.478-4.487-9.273-4.487c-1.794,0-5.084,3.19-9.271,4.487
		C0.079,6.71-0.221,7.508,0.18,8.106c0.897,1.196,1.895,1.296,1.895,2.692c0,0,3.985,0.996,7.974,0.996s7.977-0.996,7.977-0.996
		c0-1.396,0.997-1.496,1.793-2.792C20.218,7.508,19.918,6.71,19.321,6.512z M10.048,10.001c-1.096,0-1.993-1.895-1.993-2.992
		c0,0,0.897-0.997,1.993-0.997c1.099,0,1.995,0.997,1.995,0.997C12.043,8.106,11.146,10.001,10.048,10.001z"/>
</g>
<g>
	<g>
		<path fill="#F2F2F2" d="M39.027,8.542c-0.243,0-0.487-0.089-0.666-0.266c-4.614-4.617-12.117-4.617-16.755,0
			c-0.378,0.377-0.977,0.377-1.331,0c-0.355-0.378-0.378-0.977,0-1.333c5.37-5.371,14.07-5.371,19.441,0
			c0.378,0.378,0.378,0.977,0,1.333C39.517,8.453,39.273,8.542,39.027,8.542z"/>
	</g>
</g>
</svg>
