<?xml version="1.0" encoding="utf-8"?>
<!-- Generator: Adobe Illustrator 16.0.3, SVG Export Plug-In . SVG Version: 6.00 Build 0)  -->
<!DOCTYPE svg PUBLIC "-//W3C//DTD SVG 1.1//EN" "http://www.w3.org/Graphics/SVG/1.1/DTD/svg11.dtd">
<svg version="1.1" xmlns="http://www.w3.org/2000/svg" xmlns:xlink="http://www.w3.org/1999/xlink" x="0px" y="0px" width="20px"
	 height="20px" viewBox="0 0 20 20" enable-background="new 0 0 20 20" xml:space="preserve">
<g id="Ebene_1">
</g>
<g id="Ebene_4">
	<path fill="#333333" d="M19.994,8.136c-0.023-0.264-0.162-0.374-0.287-0.491s-0.474-0.03-0.621-0.015
		c-0.149,0.015-0.153-0.257-0.153-0.257s0.073-2.606,0.045-2.654c-0.034-0.047-0.381-0.009-0.45,0.03
		c-0.071,0.039-0.041,0.165-0.041,0.165l-8.481-0.117L1.519,4.914c0,0,0.024-0.125-0.045-0.165c-0.069-0.039-0.419-0.078-0.45-0.03
		C0.992,4.767,1.065,7.373,1.065,7.373S1.061,7.645,0.912,7.63C0.765,7.615,0.417,7.528,0.291,7.645
		C0.167,7.762,0.029,7.872,0.005,8.136c-0.023,0.266,0.031,0.504,0.102,0.56C0.135,8.72,0.148,8.727,0.155,8.729l0.061,1.57
		c0,0-0.108,0.153-0.056,0.806c0.056,0.653,0.274,4.198,0.274,4.198h0.419l0.095-0.443v-1.377l0.325-0.64v0.601l0.426-0.008
		l0.089-0.089v-1.685h8.218h8.22v1.685l0.091,0.089l0.422,0.008v-0.601l0.326,0.64v1.377l0.08,0.443h0.419
		c0,0,0.219-3.544,0.275-4.198c0.054-0.653-0.057-0.806-0.057-0.806l0.063-1.57c0.005-0.002,0.018-0.009,0.048-0.033
		C19.962,8.642,20.019,8.402,19.994,8.136z M0.687,8.564c-0.015-0.11,0.061-0.312,0.156-0.359c0.093-0.045,0.245,0,0.245,0v0.982
		L0.756,9.646C0.756,9.646,0.702,8.672,0.687,8.564z M1.228,11.801l-0.339,0.493l-0.05-0.634h0.389V11.801L1.228,11.801z
		 M2.114,8.954H1.647V5.965h0.467V8.954z M3.375,8.954H2.908V5.965h0.467V8.954z M4.636,8.954H4.168V5.965h0.467V8.954z
		 M5.896,8.954H5.429V5.965h0.467V8.954z M7.157,8.954H6.69V5.965h0.467V8.954z M8.42,8.954H7.953V5.965H8.42V8.954z M9.679,8.954
		H9.212V5.965h0.467V8.954z M10.801,8.954h-0.469V5.965h0.469V8.954z M12.06,8.954h-0.467V5.965h0.467V8.954z M13.321,8.954h-0.467
		V5.965h0.467V8.954z M14.582,8.954h-0.467V5.965h0.467V8.954z M15.844,8.954h-0.467V5.965h0.467V8.954z M17.105,8.954h-0.467V5.965
		h0.467V8.954z M18.364,8.954h-0.467V5.965h0.467V8.954z M19.117,12.294l-0.331-0.493v-0.141h0.374L19.117,12.294z M19.32,8.564
		c-0.017,0.108-0.071,1.082-0.071,1.082l-0.324-0.458V8.205c0,0,0.145-0.045,0.238,0C19.257,8.252,19.335,8.454,19.32,8.564z"/>
	<g>
		<g>
			<path fill="#333333" d="M22.574,0.348c0.229,0,0.454,0.084,0.629,0.257l5.567,5.566v0.002c0.201,0.205,0.287,0.484,0.252,0.75
				c-0.06,0.286,0.021,0.595,0.238,0.817c0.177,0.172,0.406,0.261,0.636,0.261c0.091,0,0.185-0.014,0.277-0.043
				c0.002,0,0.005,0,0.009,0c0.231,0,0.462,0.086,0.637,0.261c0,0,0.002,0.002,0.004,0.004l0.698,0.695v0.005
				c0.328,0.352,0.319,0.902-0.021,1.245c-0.021,0.023-0.049,0.039-0.071,0.057l0.004,0.007l-0.395,0.395l4.728,4.728l0.879-0.007
				c-0.026,0.06,2.615,3.206,2.615,3.206l-0.432,0.456l0.002,0.005l-0.082,0.078l-0.081,0.086l-0.008-0.007l-0.454,0.436
				c0,0-3.109-2.615-3.205-2.615l0,0l0.006-0.879l-4.727-4.727L29.964,11.7l-0.019-0.013c-0.035,0.054-0.077,0.109-0.122,0.159
				c-0.175,0.175-0.407,0.264-0.634,0.264c-0.223,0-0.44-0.084-0.613-0.243l0,0l-0.7-0.695l0,0c0-0.002-0.002-0.007-0.004-0.007
				c-0.178-0.177-0.262-0.413-0.26-0.645c0.101-0.312,0.026-0.664-0.219-0.909c-0.174-0.175-0.403-0.262-0.632-0.262
				c-0.063,0-0.122,0.007-0.186,0.019c-0.038,0.007-0.079,0.007-0.124,0.007c-0.226,0-0.455-0.086-0.629-0.259l0,0l-5.563-5.563
				c-0.338-0.341-0.345-0.886-0.025-1.236V2.313l1.732-1.732l0.003,0.003C22.14,0.428,22.357,0.348,22.574,0.348"/>
		</g>
	</g>
</g>
</svg>
