<?xml version="1.0" encoding="utf-8"?>
<!-- Generator: Adobe Illustrator 16.0.3, SVG Export Plug-In . SVG Version: 6.00 Build 0)  -->
<!DOCTYPE svg PUBLIC "-//W3C//DTD SVG 1.1//EN" "http://www.w3.org/Graphics/SVG/1.1/DTD/svg11.dtd">
<svg version="1.1" xmlns="http://www.w3.org/2000/svg" xmlns:xlink="http://www.w3.org/1999/xlink" x="0px" y="0px" width="20px"
	 height="20px" viewBox="0 0 20 20" enable-background="new 0 0 20 20" xml:space="preserve">
<g id="Ebene_1">
</g>
<g id="Ebene_4">
	<path fill="#F2F2F2" d="M39.994,8.136c-0.023-0.264-0.162-0.374-0.287-0.491s-0.474-0.03-0.621-0.015
		c-0.149,0.015-0.153-0.257-0.153-0.257s0.073-2.606,0.045-2.654c-0.034-0.047-0.381-0.009-0.45,0.03
		c-0.071,0.039-0.041,0.165-0.041,0.165l-8.481-0.117l-8.487,0.117c0,0,0.024-0.125-0.045-0.165c-0.069-0.039-0.419-0.078-0.45-0.03
		c-0.033,0.048,0.041,2.654,0.041,2.654s-0.004,0.272-0.154,0.257c-0.147-0.015-0.495-0.102-0.621,0.015
		c-0.124,0.117-0.262,0.227-0.286,0.491c-0.023,0.266,0.031,0.504,0.102,0.56c0.028,0.024,0.041,0.031,0.047,0.033l0.061,1.57
		c0,0-0.108,0.153-0.056,0.806c0.056,0.653,0.274,4.198,0.274,4.198h0.419l0.095-0.443v-1.377l0.325-0.64v0.601l0.426-0.008
		l0.089-0.089v-1.685h8.218h8.22v1.685l0.091,0.089l0.422,0.008v-0.601l0.326,0.64v1.377l0.08,0.443h0.419
		c0,0,0.219-3.544,0.275-4.198c0.054-0.653-0.057-0.806-0.057-0.806l0.063-1.57c0.005-0.002,0.018-0.009,0.048-0.033
		C39.962,8.642,40.019,8.402,39.994,8.136z M20.687,8.564c-0.015-0.11,0.061-0.312,0.156-0.359c0.093-0.045,0.245,0,0.245,0v0.982
		l-0.331,0.458C20.756,9.646,20.702,8.672,20.687,8.564z M21.228,11.801l-0.339,0.493l-0.05-0.634h0.389V11.801L21.228,11.801z
		 M22.114,8.954h-0.467V5.965h0.467V8.954z M23.375,8.954h-0.467V5.965h0.467V8.954z M24.636,8.954h-0.467V5.965h0.467V8.954z
		 M25.896,8.954h-0.467V5.965h0.467V8.954z M27.157,8.954H26.69V5.965h0.467V8.954z M28.42,8.954h-0.467V5.965h0.467V8.954z
		 M29.679,8.954h-0.467V5.965h0.467V8.954z M30.801,8.954h-0.469V5.965h0.469V8.954z M32.06,8.954h-0.467V5.965h0.467V8.954z
		 M33.321,8.954h-0.467V5.965h0.467V8.954z M34.582,8.954h-0.467V5.965h0.467V8.954z M35.844,8.954h-0.467V5.965h0.467V8.954z
		 M37.105,8.954h-0.467V5.965h0.467V8.954z M38.364,8.954h-0.467V5.965h0.467V8.954z M39.117,12.294l-0.331-0.493v-0.141h0.374
		L39.117,12.294z M39.32,8.564c-0.017,0.108-0.071,1.082-0.071,1.082l-0.324-0.458V8.205c0,0,0.145-0.045,0.238,0
		C39.257,8.252,39.335,8.454,39.32,8.564z"/>
	<path fill="#333333" d="M0-11.263v2.525h-15.152l6.945,6.944L-10,0l-10-10l10-10l1.793,1.793l-6.945,6.944H0z"/>
	<path fill="#F2F2F2" d="M0,8.737v2.525h-15.152l6.945,6.944L-10,20l-10-10l10-10l1.793,1.793l-6.945,6.944H0z"/>
	<g>
		<path fill="#333333" d="M11.002-1.71H9.18c-0.22,0-0.399,0.179-0.399,0.4C8.78-0.588,9.369,0,10.091,0
			c0.723,0,1.312-0.588,1.312-1.31C11.402-1.531,11.223-1.71,11.002-1.71z"/>
	</g>
	<g>
		<path fill="#F2F2F2" d="M10.011,4.689c-2.671,0-4.843,2.172-4.843,4.842c0,2.287,2.234,4.64,2.297,4.774
			c0.066,0.139,0.207,0.228,0.361,0.228h4.688c0.162,0,0.308-0.098,0.369-0.247c0.054-0.129,1.97-2.749,1.97-4.755
			C14.854,6.861,12.681,4.689,10.011,4.689z"/>
		<path fill="#F2F2F2" d="M12.316,15.212H7.964c-0.221,0-0.399,0.179-0.399,0.4c0,0.22,0.178,0.399,0.399,0.399h4.352
			c0.22,0,0.399-0.179,0.399-0.399C12.715,15.391,12.536,15.212,12.316,15.212z"/>
		<path fill="#F2F2F2" d="M11.917,16.689H8.363c-0.22,0-0.398,0.179-0.398,0.399s0.179,0.399,0.398,0.399h3.554
			c0.221,0,0.399-0.179,0.399-0.399S12.138,16.689,11.917,16.689z"/>
		<path fill="#F2F2F2" d="M11.002,18.29H9.18c-0.22,0-0.399,0.179-0.399,0.4c0,0.722,0.589,1.31,1.311,1.31
			c0.723,0,1.312-0.588,1.312-1.31C11.402,18.469,11.223,18.29,11.002,18.29z"/>
		<path fill="#F2F2F2" d="M3.133,9.211H0.816c-0.22,0-0.399,0.179-0.399,0.4c0,0.22,0.179,0.399,0.399,0.399h2.316
			c0.221,0,0.399-0.179,0.399-0.399C3.532,9.391,3.354,9.211,3.133,9.211z"/>
		<path fill="#F2F2F2" d="M5.406,4.465L3.769,2.826c-0.156-0.156-0.408-0.156-0.564,0c-0.157,0.157-0.157,0.409,0,0.565l1.637,1.637
			c0.155,0.157,0.409,0.157,0.565,0C5.562,4.873,5.562,4.621,5.406,4.465z"/>
		<path fill="#F2F2F2" d="M9.972,3.114c0.22,0,0.398-0.179,0.398-0.399V0.399C10.371,0.179,10.192,0,9.972,0
			C9.751,0,9.571,0.179,9.571,0.399v2.316C9.571,2.936,9.751,3.114,9.972,3.114z"/>
		<path fill="#F2F2F2" d="M16.755,2.786c-0.155-0.156-0.409-0.156-0.564,0l-1.637,1.638c-0.156,0.156-0.156,0.409,0,0.565
			c0.156,0.155,0.408,0.155,0.564,0l1.637-1.638C16.911,3.195,16.911,2.942,16.755,2.786z"/>
		<path fill="#F2F2F2" d="M19.184,9.154h-2.316c-0.221,0-0.399,0.179-0.399,0.399s0.179,0.399,0.399,0.399h2.316
			c0.22,0,0.399-0.179,0.399-0.399S19.404,9.154,19.184,9.154z"/>
	</g>
</g>
</svg>
