<?xml version="1.0" encoding="utf-8"?>
<!-- Generator: Adobe Illustrator 16.0.3, SVG Export Plug-In . SVG Version: 6.00 Build 0)  -->
<!DOCTYPE svg PUBLIC "-//W3C//DTD SVG 1.1//EN" "http://www.w3.org/Graphics/SVG/1.1/DTD/svg11.dtd">
<svg version="1.1" xmlns="http://www.w3.org/2000/svg" xmlns:xlink="http://www.w3.org/1999/xlink" x="0px" y="0px" width="20px"
	 height="10.684px" viewBox="0 0 20 10.684" enable-background="new 0 0 20 10.684" xml:space="preserve">
<g id="Ebene_1">
</g>
<g id="Ebene_4">
	<g>
		<g>
			<path fill="#F2F2F2" d="M19.116,6.932h-3.055c-0.488,0-0.885-0.371-0.885-0.828V2.495c0-0.457,0.396-0.829,0.885-0.829h3.055
				C19.603,1.666,20,2.038,20,2.495v3.608C20,6.561,19.603,6.932,19.116,6.932z M16.061,1.919c-0.349,0-0.632,0.258-0.632,0.576
				v3.608c0,0.317,0.283,0.576,0.632,0.576h3.055c0.348,0,0.632-0.259,0.632-0.576V2.495c0-0.318-0.284-0.576-0.632-0.576H16.061z"
				/>
		</g>
		<g>
			<path fill="#F2F2F2" d="M3.94,6.891H0.884C0.397,6.891,0,6.519,0,6.062V2.452c0-0.457,0.397-0.828,0.884-0.828H3.94
				c0.487,0,0.884,0.371,0.884,0.828v3.609C4.824,6.519,4.427,6.891,3.94,6.891z M0.884,1.876c-0.348,0-0.632,0.259-0.632,0.576
				v3.609c0,0.317,0.284,0.576,0.632,0.576H3.94c0.348,0,0.631-0.259,0.631-0.576V2.452c0-0.317-0.283-0.576-0.631-0.576H0.884z"/>
		</g>
		<g>
			<path fill="#F2F2F2" d="M14.05,6.933h-3.054c-0.488,0-0.885-0.371-0.885-0.828V2.495c0-0.456,0.397-0.828,0.885-0.828h3.054
				c0.488,0,0.885,0.372,0.885,0.828v3.609C14.935,6.562,14.539,6.933,14.05,6.933z M10.997,1.92c-0.349,0-0.633,0.258-0.633,0.575
				v3.609c0,0.317,0.284,0.576,0.633,0.576h3.054c0.349,0,0.632-0.259,0.632-0.576V2.495c0-0.317-0.284-0.575-0.632-0.575H10.997z"
				/>
		</g>
		<g>
			<path fill="#F2F2F2" d="M9,6.933H5.947c-0.488,0-0.885-0.371-0.885-0.828V2.495c0-0.456,0.396-0.828,0.885-0.828H9
				c0.488,0,0.886,0.372,0.886,0.828v3.609C9.886,6.562,9.489,6.933,9,6.933z M5.947,1.92c-0.349,0-0.632,0.258-0.632,0.575v3.609
				c0,0.317,0.283,0.576,0.632,0.576H9c0.35,0,0.633-0.259,0.633-0.576V2.495C9.633,2.178,9.35,1.92,9,1.92H5.947z"/>
		</g>
		<g>
			<path fill-rule="evenodd" clip-rule="evenodd" fill="#F2F2F2" d="M6.406,6.721c0.02,0.014,0.039,0.03,0.055,0.047
				c0.711,0.026,1.422-0.034,2.132-0.044C8.399,6.723,8.225,6.718,8.109,6.702C8.14,6.6,8.177,6.504,8.193,6.387
				C7.984,6.431,7.827,6.525,7.625,6.576C7.614,6.671,7.738,6.632,7.731,6.723C7.492,6.577,7.36,6.323,7.122,6.177
				C7.109,6.354,7.147,6.581,7.1,6.723c-0.036-0.142-0.033-0.425,0-0.567C6.828,6.171,6.456,6.267,6.155,6.324
				c0.193,0.143,0.424,0.248,0.63,0.378C6.711,6.713,6.573,6.718,6.406,6.721z"/>
		</g>
		<g>
			<path fill-rule="evenodd" clip-rule="evenodd" fill="#F2F2F2" d="M5.272,6.135c0.155-0.188,0.414-0.272,0.589-0.441
				c-0.156-0.229-0.4-0.37-0.567-0.588c0-0.025,0-0.051,0-0.077C5.292,5.029,5.291,5.03,5.29,5.031
				C5.262,5.22,5.243,5.433,5.233,5.632C5.228,5.753,5.222,5.876,5.23,5.997c0.005,0.073,0.066,0.19-0.02,0.08
				C5.246,6.122,5.266,6.17,5.276,6.218C5.281,6.22,5.287,6.222,5.291,6.224C5.287,6.192,5.281,6.162,5.272,6.135z"/>
		</g>
		<g>
			<path fill-rule="evenodd" clip-rule="evenodd" fill="#F2F2F2" d="M6.932,2.772c0.061,0.221,0.013,0.789,0,1.135
				C6.438,3.631,5.925,3.374,5.483,3.046C5.985,2.975,6.46,2.876,6.932,2.772z"/>
		</g>
		<g>
			<path fill-rule="evenodd" clip-rule="evenodd" fill="#F2F2F2" d="M7.038,2.836c0.495,0.423,0.919,0.916,1.407,1.345
				C8.16,4.407,7.832,4.59,7.542,4.812C7.345,4.545,7.188,4.24,6.996,3.971C7.041,3.624,6.999,3.189,7.038,2.836z"/>
		</g>
		<g>
			<path fill-rule="evenodd" clip-rule="evenodd" fill="#F2F2F2" d="M8.697,3.172c0.026,0.234-0.157,0.639-0.21,0.946
				C8.244,3.927,8.027,3.71,7.835,3.466C8.129,3.375,8.409,3.269,8.697,3.172z"/>
		</g>
		<g>
			<path fill-rule="evenodd" clip-rule="evenodd" fill="#F2F2F2" d="M5.987,3.971C6.088,3.92,6.169,3.869,6.26,3.907
				c-0.121,0.09-0.143,0.278-0.315,0.315c-0.009,0.1,0.007,0.176,0.021,0.252C5.874,4.476,5.851,4.408,5.777,4.391
				C5.789,4.276,5.81,4.172,5.839,4.075C5.749,3.999,5.636,3.943,5.524,3.887C5.677,3.798,5.934,3.801,5.987,3.971z"/>
		</g>
		<g>
			<path fill-rule="evenodd" clip-rule="evenodd" fill="#F2F2F2" d="M9.18,4.16C9.235,4.138,9.284,4.108,9.37,4.118
				C9.302,4.212,9.256,4.327,9.138,4.37C9.17,4.4,9.157,4.478,9.16,4.538C9.081,4.561,9.099,4.485,9.034,4.496
				C9.03,4.402,9.036,4.316,9.076,4.265C9.023,4.191,8.924,4.163,8.844,4.118C8.939,4.032,9.135,4.042,9.18,4.16z"/>
		</g>
		<g>
			<path fill-rule="evenodd" clip-rule="evenodd" fill="#F2F2F2" d="M6.974,4.097C7.188,4.317,7.309,4.631,7.5,4.874
				c0.016,0.411,0.052,0.803,0.105,1.177c-0.29-0.067-0.593-0.304-0.882-0.441C6.807,5.105,6.909,4.62,6.974,4.097z"/>
		</g>
		<g>
			<path fill-rule="evenodd" clip-rule="evenodd" fill="#F2F2F2" d="M6.092,4.958c-0.06,0.22-0.13,0.431-0.168,0.673
				C5.734,5.505,5.569,5.354,5.441,5.168C5.663,5.104,5.852,5.005,6.092,4.958z"/>
		</g>
		<g>
			<path fill-rule="evenodd" clip-rule="evenodd" fill="#F2F2F2" d="M6.134,4.958c0.11,0.001,0.142,0.082,0.23,0.105
				C6.291,5.115,6.201,5.151,6.092,5.168C6.087,5.079,6.125,5.032,6.134,4.958z"/>
		</g>
		<g>
			<path fill-rule="evenodd" clip-rule="evenodd" fill="#F2F2F2" d="M8.613,5.21c0.173-0.023,0.312-0.14,0.441-0.042
				c-0.009,0.039-0.153,0.113-0.126,0c-0.04,0.086-0.066,0.186-0.084,0.294C8.75,5.396,8.643,5.341,8.613,5.21z"/>
		</g>
		<g>
			<path fill-rule="evenodd" clip-rule="evenodd" fill="#F2F2F2" d="M8.235,6.387c0.079,0.026,0.161,0.049,0.189,0.126
				C8.325,6.512,8.295,6.581,8.193,6.576C8.195,6.501,8.226,6.454,8.235,6.387z"/>
		</g>
		<g>
			<path fill-rule="evenodd" clip-rule="evenodd" fill="#F2F2F2" d="M8.823,5.483C8.737,5.579,8.601,5.626,8.508,5.715
				C8.421,5.654,8.401,5.527,8.319,5.462c0.135,0.16,0.191,0.397,0.21,0.673C8.41,6.184,8.322,6.021,8.193,6.009
				C8.228,5.72,8.327,5.514,8.298,5.21C8.25,5.226,8.29,5.328,8.277,5.379C8.085,5.311,7.944,5.193,7.773,5.105
				c0.128-0.089,0.352-0.083,0.525-0.126C8.443,5.1,8.643,5.33,8.823,5.483z"/>
		</g>
		<g>
			<path fill-rule="evenodd" clip-rule="evenodd" fill="#F2F2F2" d="M11.757,2.464c0,0.112,0,0.225,0,0.337
				c-0.199,0-0.397,0-0.597,0c0.133,0.154,0.284,0.291,0.428,0.434c0.082-0.061,0.141-0.145,0.221-0.207
				c0.084,0.069,0.154,0.152,0.233,0.227c-0.04,0.079-0.146,0.147-0.208,0.227c0.069,0.074,0.141,0.146,0.214,0.214
				c0.157-0.141,0.433-0.257,0.726-0.2c0.154,0.029,0.293,0.118,0.389,0.2c0.182-0.161,0.347-0.339,0.519-0.512
				c-0.134-0.128-0.259-0.264-0.396-0.389c0.068-0.092,0.161-0.159,0.234-0.246c0.113,0.092,0.193,0.187,0.304,0.298
				c0.021,0.021,0.09,0.097,0.098,0.098c0.016,0,0.087-0.081,0.11-0.104c0.085-0.085,0.13-0.13,0.214-0.214
				c0.027-0.027,0.088-0.108,0.104-0.109c0.032-0.003,0.109,0.104,0.123,0.116c0.044,0.044,0.083,0.079,0.123,0.117
				c0,0.002,0,0.004,0,0.006c-0.146,0.14-0.288,0.282-0.428,0.428c0.123,0.128,0.248,0.253,0.376,0.376
				C14.475,3.647,14.39,3.72,14.31,3.798c-0.142-0.108-0.253-0.247-0.382-0.369c-0.193,0.173-0.369,0.361-0.551,0.544
				c0.237,0.549-0.11,1.101-0.596,1.187c0,0.233,0,0.467,0,0.699c0.126-0.097,0.263-0.272,0.389-0.369
				c0.085,0.069,0.155,0.152,0.233,0.227c-0.253,0.278-0.532,0.531-0.791,0.804c-0.001,0-0.004,0-0.006,0
				c-0.26-0.27-0.531-0.527-0.791-0.797c0.065-0.09,0.156-0.155,0.228-0.239c0.143,0.113,0.252,0.262,0.395,0.375
				c0-0.23,0-0.462,0-0.693c-0.476-0.088-0.845-0.651-0.596-1.186c-0.076-0.09-0.167-0.166-0.246-0.253
				c-0.085,0.056-0.153,0.163-0.227,0.208c-0.082-0.074-0.16-0.152-0.233-0.233c0.063-0.077,0.139-0.142,0.207-0.214
				c-0.134-0.158-0.286-0.297-0.434-0.44c0,0.2,0,0.401,0,0.603c-0.113,0-0.225,0-0.337,0c0-0.396,0-0.791,0-1.186
				C10.966,2.464,11.362,2.464,11.757,2.464z M12.314,3.908c-0.128,0.088-0.237,0.271-0.214,0.486
				c0.028,0.252,0.241,0.446,0.506,0.447c0.183,0.001,0.365-0.115,0.447-0.26c0.118-0.209,0.046-0.484-0.084-0.615
				c-0.091-0.091-0.25-0.159-0.435-0.137C12.455,3.841,12.367,3.872,12.314,3.908z"/>
		</g>
		<g>
			<g>
				<path fill-rule="evenodd" clip-rule="evenodd" fill="#F2F2F2" d="M2.23,1.981c0.023,0.004,0.017,0.037,0.02,0.061
					c-0.02,0-0.041,0-0.06,0C2.197,2.016,2.225,2.011,2.23,1.981z"/>
			</g>
			<g>
				<path fill-rule="evenodd" clip-rule="evenodd" fill="#F2F2F2" d="M2.209,2.063c0.025,0.023,0.1,0.1,0.041,0.141
					C2.173,2.22,2.224,2.108,2.209,2.063z"/>
			</g>
			<g>
				<path fill-rule="evenodd" clip-rule="evenodd" fill="#F2F2F2" d="M2.331,2.304C2.257,2.31,2.2,2.301,2.149,2.283
					C2.153,2.224,2.353,2.215,2.331,2.304z"/>
			</g>
			<g>
				<path fill-rule="evenodd" clip-rule="evenodd" fill="#F2F2F2" d="M0.541,6.688c-0.047,0-0.094,0-0.141,0
					c0.035-0.054,0.043-0.166,0.161-0.081C0.554,6.634,0.532,6.646,0.541,6.688z"/>
			</g>
			<g>
				<path fill-rule="evenodd" clip-rule="evenodd" fill="#F2F2F2" d="M4.261,6.405c0,0.094,0,0.188,0,0.282
					c-1.153,0-2.306,0-3.458,0l0.01-0.03l-0.03-0.011c-0.008-0.064,0.026-0.174-0.04-0.181c0.007,0.04-0.004,0.063-0.04,0.061
					c-0.013-0.223,0.03-0.328-0.101-0.463c0.058,0.005,0.103-0.005,0.121-0.04C0.683,5.904,0.77,5.737,0.882,5.701
					c-0.085-0.098,0.155-0.291,0-0.422c0.086-0.054,0.148-0.21,0.08-0.302C1.03,4.93,1.044,4.831,1.063,4.736l0.03,0.01l0.01-0.029
					c0.11,0.11,0.061,0.381,0.181,0.482c-0.014-0.166,0.149-0.319,0-0.402c0.24-0.072-0.06-0.563,0.221-0.583
					C1.53,4.093,1.483,4.02,1.546,3.933c-0.083-0.023-0.014-0.116,0.02-0.141c0.024,0.022,0.037,0.057,0.101,0.04
					C1.75,3.768,1.808,3.679,1.888,3.61l0.02,0.011L1.928,3.61c0.063,0.01,0.07-0.036,0.141-0.02
					c-0.003-0.023,0.005-0.036,0.021-0.04l0.03,0.01l-0.01-0.03c0.061,0.021,0.036-0.045,0.041-0.081
					c-0.033-0.005-0.035,0.02-0.06,0.021l-0.011-0.03l-0.01,0.03C2.048,3.457,2.048,3.424,2.008,3.43c0,0.04,0,0.08,0,0.121
					c-0.055-0.016-0.04,0.04-0.08,0.04l-0.01-0.03l-0.03,0.01C1.855,3.543,1.881,3.456,1.848,3.43
					c0.128-0.159,0.133-0.504,0.06-0.704C1.947,2.631,2,2.551,2.109,2.524c0.03-0.056-0.028-0.119,0.041-0.16
					c0.15,0.04,0.181-0.045,0.301,0.06C2.382,2.535,2.528,2.583,2.551,2.665C2.463,2.771,2.499,3.002,2.491,3.188
					c0.072,0.085,0.105,0.26,0.061,0.402c0.076,0.058,0.095,0.173,0.201,0.201C2.78,3.848,2.835,3.711,2.874,3.771
					c0.046,0.073,0.021,0.098,0.02,0.201c0.153,0.239,0.188,0.569,0.161,0.925c0.007,0.08,0.083,0.091,0.08,0.181
					c0.004,0.066-0.09,0.089-0.04,0.142c0.086-0.013,0.133,0.014,0.201,0.02c0.001-0.149-0.07-0.377,0.101-0.422
					C3.308,4.721,3.381,4.513,3.457,4.415l0.03,0.01l0.029-0.01c0.029,0.092,0.041,0.117,0.102,0.201
					c-0.047,0.177,0.079,0.239,0.1,0.401C3.67,5.052,3.674,5.136,3.677,5.22C3.776,5.28,3.792,5.395,3.758,5.541
					c0.009,0.058,0.086,0.047,0.101,0.101C3.873,5.79,4.047,5.895,3.959,6.023c0.026,0.02,0.074,0.02,0.08,0.061
					c-0.023,0.03-0.059,0.049-0.061,0.101C4.084,6.2,4.096,6.309,4.12,6.405C4.167,6.405,4.214,6.405,4.261,6.405z"/>
			</g>
			<g>
				<g>
					<path fill-rule="evenodd" clip-rule="evenodd" fill="#F2F2F2" d="M0.732,6.667c0.026,0.002,0.054-0.002,0.08-0.01"/>
				</g>
				<g>
					<path fill-rule="evenodd" clip-rule="evenodd" fill="#F2F2F2" d="M1.094,4.746c0-0.021,0-0.051,0-0.08"/>
				</g>
				<g>
					<path fill-rule="evenodd" clip-rule="evenodd" fill="#F2F2F2" d="M1.908,3.621c0-0.021,0.005-0.04,0.011-0.061"/>
				</g>
				<g>
					<path fill-rule="evenodd" clip-rule="evenodd" fill="#F2F2F2" d="M3.487,4.425c0.006-0.055-0.014-0.106-0.011-0.16"/>
				</g>
				<g>
					<path fill-rule="evenodd" clip-rule="evenodd" fill="#F2F2F2" d="M2.119,3.561C2.084,3.527,2.074,3.487,2.079,3.439"/>
				</g>
			</g>
		</g>
		<g transform="translate(0,2000) scale(0.1,-0.1)">
			<g>
				<path fill="#F2F2F2" d="M160.405,19975.828v-1.748l-0.156-0.02c-0.088,0-0.889-0.01-1.768-0.01h-1.611v-1.348v-1.348h1.768
					h1.768v-3.223v-3.223h1.357h1.348v3.223v3.223h1.719h1.729v1.377v1.387h-1.729h-1.719v1.729v1.738h-1.348h-1.357V19975.828z
					 M162.124,19974.881v-1.729h1.729l1.729-0.01l0.01-0.4v-0.41h-1.729h-1.738v-3.213v-3.232h-0.381h-0.371v3.232v3.213h-1.758
					h-1.758v0.381v0.371h1.758h1.758v1.758v1.758h0.371h0.381V19974.881z"/>
			</g>
			<g>
				<path fill="#F2F2F2" d="M170.034,19967.996l1.855,3.252l-1.855,3.252l3.745,0.02l1.885,3.232l1.89-3.232l3.745-0.02l-1.86-3.252
					l1.86-3.252l-3.745-0.02l-1.89-3.232l-1.885,3.232L170.034,19967.996z M171.646,19968.924h1.582l-0.791,1.377L171.646,19968.924
					z M171.646,19973.563l0.791-1.367l0.791,1.377L171.646,19973.563z M174.868,19967.977l0.796-1.367l0.796,1.367H174.868z
					 M174.868,19974.52h1.592l-0.796,1.367L174.868,19974.52z M178.101,19968.924h1.582l-0.791,1.377L178.101,19968.924z
					 M178.101,19973.572l0.791-1.377l0.791,1.367L178.101,19973.572z M172.983,19971.248l1.338-2.324h2.686l1.338,2.324
					l-1.338,2.324h-2.686L172.983,19971.248z"/>
			</g>
			<g>
				<path fill="#F2F2F2" d="M188.804,19976.6c-0.039-0.049-0.029-0.342,0.01-0.537c0.039-0.225,0.166-0.615,0.264-0.82
					s0.371-0.566,0.625-0.811c0.405-0.41,0.859-0.654,1.387-0.742c0.225-0.039,0.732-0.049,0.986-0.02
					c0.41,0.059,0.918,0.186,1.172,0.293c0.518,0.225,1.196,0.664,1.338,0.879l0.059,0.088l-0.088,0.176
					c-0.059,0.107-0.156,0.254-0.273,0.4c-0.107,0.127-0.273,0.332-0.371,0.459l-0.186,0.225l-0.078-0.049
					c-0.049-0.029-0.21-0.146-0.361-0.254c-0.645-0.488-1.064-0.713-1.592-0.82c-0.234-0.049-0.674-0.049-0.908,0
					c-0.215,0.049-0.469,0.137-0.625,0.225c-0.459,0.254-1.035,0.82-1.24,1.24C188.853,19976.658,188.833,19976.668,188.804,19976.6
					z"/>
			</g>
			<g>
				<path fill="#F2F2F2" d="M187.349,19975.018c-0.713-0.059-1.582-0.342-2.119-0.693c-0.234-0.156-0.576-0.42-0.576-0.439
					c0-0.039,0.859-1.475,0.879-1.465c0.01,0.01,0.195,0.098,0.42,0.215c1.426,0.713,2.183,0.791,2.627,0.303
					c0.322-0.352,0.352-0.518,0.146-0.82c-0.273-0.391-0.693-0.596-1.328-0.625c-0.195-0.02-0.825,0.02-1.094,0.059l-0.078,0.02
					l0.01-0.078c0.039-0.186,0.166-0.645,0.239-0.83c0.151-0.371,0.386-0.791,0.571-1.016l0.049-0.049l0.215,0.02
					c0.293,0.029,0.703,0.01,0.908-0.039c0.449-0.117,0.723-0.41,0.85-0.898c0.059-0.205,0.059-0.566,0.02-0.752
					c-0.132-0.479-0.498-0.859-1.016-1.025c-0.84-0.283-2.114-0.117-2.852,0.391c-0.518,0.342-1.006,1.211-1.348,2.402
					c-0.186,0.645-0.283,0.889-0.342,0.83c-0.068-0.059-0.078-0.449-0.049-0.928c0.059-0.664,0.176-1.27,0.361-1.787
					c0.107-0.303,0.361-0.801,0.522-1.064c0.522-0.801,1.304-1.426,2.114-1.689c0.527-0.176,1.475-0.186,1.982-0.02
					c0.322,0.107,0.703,0.361,1.04,0.713c0.532,0.566,0.757,1.123,0.796,1.973c0.029,0.596-0.063,1.055-0.308,1.602
					c-0.083,0.186-0.142,0.332-0.142,0.342c0,0,0.273,0.01,0.605,0.02c0.811,0.01,0.869,0.029,1.211,0.381
					c0.225,0.234,0.449,0.537,0.674,0.898c0.288,0.488,0.459,0.723,0.664,0.928c0.303,0.303,0.518,0.4,0.869,0.371
					c0.381-0.029,0.576-0.098,0.708-0.273c0.249-0.352,0.376-0.869,0.376-1.553c-0.01-0.791-0.205-1.318-0.713-1.816
					c-0.654-0.664-1.572-0.889-2.251-0.547c-0.405,0.195-0.83,0.811-0.83,1.211c0,0.176-0.151-0.127-0.19-0.41
					c-0.029-0.186-0.01-0.693,0.029-0.928c0.127-0.684,0.352-1.143,0.742-1.514c0.303-0.293,0.645-0.43,1.123-0.479
					c0.449-0.049,0.889,0.029,1.279,0.234c0.693,0.342,1.191,1.064,1.436,2.09c0.391,1.582,0.137,3.232-0.664,4.258
					c-0.303,0.391-0.732,0.723-1.089,0.85c-0.19,0.068-0.562,0.088-0.923,0.059c-1.011-0.078-1.445-0.449-2.217-1.904
					c-0.215-0.42-0.361-0.635-0.537-0.82c-0.322-0.352-0.664-0.449-1.094-0.303c-0.166,0.059-0.635,0.264-0.635,0.283
					c0,0.01,0.088,0.068,0.2,0.137c0.112,0.078,0.249,0.186,0.317,0.254c0.371,0.4,0.742,1.162,0.801,1.66
					c0.088,0.811-0.4,1.738-1.104,2.09C188.33,19974.998,187.842,19975.066,187.349,19975.018z"/>
			</g>
			<g>
				<path fill="#F2F2F2" d="M161.421,19963.611c-1.289-0.127-2.393-0.576-3.418-1.387c-0.215-0.166-0.654-0.605-0.854-0.84
					c-0.796-0.947-1.274-2.041-1.45-3.32c-0.039-0.264-0.039-1.26,0-1.523c0.146-1.055,0.459-1.904,1.016-2.744
					c0.889-1.328,2.222-2.266,3.77-2.646c0.557-0.137,0.801-0.166,1.504-0.166c0.547,0,0.664,0.01,0.918,0.049
					c0.762,0.117,1.523,0.371,2.139,0.723c0.371,0.205,0.85,0.537,1.094,0.771l0.078,0.059l-0.127-0.059
					c-0.742-0.4-1.66-0.635-2.549-0.635c-1.445,0-2.803,0.566-3.823,1.592c-0.879,0.889-1.421,2.021-1.548,3.262
					c-0.034,0.303-0.02,1.094,0.029,1.367c0.146,0.83,0.41,1.523,0.84,2.168c0.859,1.27,2.129,2.09,3.613,2.344
					c1.133,0.195,2.285,0.02,3.35-0.508l0.234-0.117l-0.098,0.078c-0.381,0.332-0.869,0.664-1.348,0.898
					c-0.645,0.313-1.265,0.508-1.982,0.605C162.524,19963.621,161.685,19963.641,161.421,19963.611z"/>
			</g>
			<g>
				<path fill="#F2F2F2" d="M175.513,19963.611c-0.098-0.029-0.176-0.078-0.254-0.166c-0.132-0.137-0.156-0.195-0.156-0.479
					l-0.01-0.254l-0.098-0.01c-1.582-0.205-2.979-1.074-3.857-2.402c-0.459-0.674-0.781-1.553-0.869-2.285l-0.01-0.137l-0.244-0.01
					c-0.186,0-0.264-0.01-0.342-0.039c-0.117-0.068-0.225-0.166-0.283-0.303c-0.049-0.098-0.049-0.137-0.049-0.264
					c0.02-0.195,0.088-0.322,0.239-0.42c0.132-0.098,0.21-0.117,0.464-0.117h0.21l0.024-0.195c0.117-0.908,0.537-1.875,1.133-2.617
					c0.205-0.254,0.596-0.654,0.85-0.859c0.752-0.596,1.714-1.016,2.637-1.143l0.195-0.029v-0.205c0-0.254,0.02-0.332,0.107-0.469
					c0.098-0.146,0.234-0.215,0.425-0.225c0.19-0.02,0.327,0.039,0.454,0.176c0.127,0.127,0.146,0.205,0.156,0.488l0.01,0.244
					l0.137,0.01c0.527,0.059,1.162,0.264,1.709,0.537c1.631,0.811,2.734,2.373,2.979,4.189l0.01,0.098l0.254,0.01
					c0.293,0.01,0.361,0.029,0.498,0.176c0.107,0.107,0.146,0.195,0.156,0.342c0.02,0.225-0.098,0.449-0.313,0.557
					c-0.088,0.049-0.137,0.059-0.352,0.059l-0.244,0.01l-0.01,0.098c-0.225,1.641-1.152,3.086-2.549,3.955
					c-0.645,0.391-1.426,0.674-2.178,0.771l-0.098,0.01l-0.01,0.244c0,0.215-0.01,0.264-0.059,0.352
					C176.05,19963.553,175.757,19963.689,175.513,19963.611z M175.093,19960.125v-1.436l-1.016,1.006
					c-0.557,0.566-1.006,1.025-0.996,1.035c0.015,0.029,0.381,0.264,0.557,0.352c0.391,0.225,1.084,0.449,1.431,0.479
					C175.093,19961.561,175.093,19961.258,175.093,19960.125z M176.528,19961.512c0.518-0.107,1.064-0.332,1.514-0.635
					c0.127-0.088,0.234-0.156,0.234-0.156s-0.459-0.459-1.016-1.025l-1.016-1.006v1.436c0,0.791,0,1.436,0.01,1.436
					S176.382,19961.541,176.528,19961.512z M173.276,19958.895l1.006-1.016h-1.436h-1.436l0.01,0.107
					c0.049,0.361,0.234,0.928,0.439,1.309c0.127,0.234,0.371,0.615,0.4,0.615C172.261,19959.91,172.71,19959.451,173.276,19958.895z
					 M179.243,19959.676c0.298-0.449,0.527-0.996,0.635-1.514c0.029-0.137,0.049-0.264,0.049-0.273c0,0-0.645-0.01-1.436-0.01
					h-1.445l1.021,1.016c0.562,0.557,1.011,1.016,1.021,1.016C179.087,19959.91,179.155,19959.803,179.243,19959.676z
					 M175.952,19957.947c0.342-0.146,0.508-0.557,0.371-0.898c-0.098-0.264-0.371-0.449-0.654-0.449
					c-0.41,0-0.703,0.293-0.703,0.703c0,0.283,0.176,0.537,0.43,0.654c0.107,0.039,0.156,0.049,0.293,0.039
					C175.806,19957.996,175.894,19957.977,175.952,19957.947z M173.276,19955.711c-0.566-0.557-1.025-1.016-1.025-1.016
					c-0.01,0-0.078,0.107-0.166,0.234c-0.244,0.361-0.439,0.791-0.557,1.201c-0.049,0.186-0.117,0.508-0.117,0.566
					c0,0.029,0.225,0.029,1.436,0.029h1.436L173.276,19955.711z M179.927,19956.717c0,0-0.02-0.107-0.039-0.225
					c-0.117-0.596-0.361-1.172-0.693-1.641c-0.059-0.088-0.107-0.156-0.107-0.156c-0.01,0-0.459,0.459-1.021,1.016l-1.021,1.016
					h1.445C179.282,19956.727,179.927,19956.727,179.927,19956.717z M175.093,19954.48v-1.436l-0.107,0.01
					c-0.186,0.029-0.596,0.137-0.811,0.215c-0.352,0.127-0.713,0.322-1.099,0.596c-0.015,0.01,0.405,0.439,0.991,1.035
					c0.557,0.557,1.016,1.016,1.025,1.016C175.093,19955.916,175.093,19955.271,175.093,19954.48z M178.267,19953.885
					c-0.01-0.01-0.098-0.078-0.195-0.146c-0.342-0.234-0.767-0.43-1.191-0.557c-0.166-0.049-0.537-0.137-0.601-0.137
					c-0.034,0-0.034,0.137-0.034,1.436v1.445l1.011-1.016C177.817,19954.354,178.267,19953.885,178.267,19953.885z"/>
			</g>
			<g>
				<path fill="#F2F2F2" d="M182.749,19963.582c-0.137-0.117-0.161-0.273-0.068-0.391c0.039-0.049,0.107-0.146,0.176-0.215
					c0.225-0.264,0.293-0.4,0.361-0.801c0.078-0.391,0.225-0.566,0.654-0.791c0.41-0.205,0.537-0.352,0.537-0.576
					c0-0.156,0.049-0.244,0.205-0.313l0.117-0.049l0.742-0.01l0.752-0.01l0.049-0.078c0.029-0.049,0.107-0.127,0.181-0.186
					c0.142-0.107,0.156-0.156,0.063-0.156c-0.186,0-0.381-0.107-0.41-0.234l-0.01-0.059l-0.664,0.01l-0.664,0.01l-0.029,0.049
					c-0.02,0.059-0.029,0.059-0.127,0.059c-0.195,0-0.186,0.049-0.186-0.664v-0.635l0.059-0.059l0.059-0.059h0.957h0.952v-0.537
					v-0.527l-0.142-0.029c-0.254-0.039-0.425-0.137-0.425-0.244c0-0.039,0.054-0.156,0.103-0.273
					c0.068-0.127,0.146-0.322,0.186-0.439l0.068-0.205v-2.383c0-1.67,0.01-2.422,0.024-2.5s0.044-0.127,0.103-0.186
					c0.098-0.107,0.215-0.137,0.454-0.117c0.151,0,0.2,0.01,0.288,0.059c0.059,0.039,0.127,0.088,0.146,0.117
					c0.039,0.059,0.039,0.098,0.049,3.652v3.594h2.305h2.305v-3.584c0-3.535,0-3.584,0.039-3.643
					c0.02-0.039,0.088-0.098,0.146-0.127c0.098-0.059,0.146-0.068,0.303-0.068c0.229-0.02,0.352,0.01,0.449,0.117
					c0.059,0.059,0.088,0.107,0.107,0.186c0.01,0.078,0.02,0.83,0.02,2.5v2.383l0.068,0.205c0.039,0.117,0.117,0.313,0.176,0.439
					c0.063,0.117,0.107,0.234,0.107,0.273c0,0.107-0.166,0.205-0.42,0.244l-0.142,0.029v0.527v0.537h0.952h0.957l0.059,0.059
					l0.059,0.059v0.635c0,0.713,0.02,0.664-0.186,0.664c-0.098,0-0.107,0-0.137-0.059l-0.029-0.068h-0.654h-0.664l-0.01,0.059
					c-0.029,0.127-0.225,0.234-0.41,0.234c-0.088,0-0.078,0.049,0.059,0.156c0.068,0.059,0.146,0.137,0.171,0.176l0.054,0.068h0.493
					c0.708,0,0.991,0.029,1.138,0.088c0.151,0.068,0.195,0.156,0.195,0.313c0,0.225,0.127,0.371,0.508,0.557
					c0.488,0.254,0.615,0.42,0.703,0.908c0.049,0.303,0.122,0.439,0.488,0.879c0.059,0.078,0.088,0.127,0.088,0.176
					c0,0.156-0.137,0.303-0.269,0.303c-0.098,0-0.298-0.068-0.459-0.156c-0.493-0.273-1.382-0.537-2.388-0.713
					c-1.123-0.205-2.227-0.303-3.662-0.313c-2.012-0.029-3.657,0.127-5.015,0.459c-0.581,0.146-1.187,0.381-1.499,0.576
					c-0.117,0.078-0.332,0.146-0.43,0.146C182.842,19963.631,182.798,19963.611,182.749,19963.582z M188.989,19960.008v-0.42h-0.527
					c-0.498,0-0.518,0.01-0.527,0.049c-0.029,0.078-0.186,0.244-0.273,0.303c-0.059,0.039-0.137,0.059-0.215,0.068
					c-0.059,0-0.107,0.02-0.107,0.029s0.059,0.068,0.127,0.127c0.078,0.068,0.156,0.156,0.181,0.195l0.054,0.068h0.645h0.645
					V19960.008z M191.704,19960.223c0.107-0.098,0.19-0.186,0.19-0.195c0,0-0.054-0.02-0.112-0.02
					c-0.19-0.02-0.342-0.127-0.479-0.352l-0.039-0.068h-0.508h-0.518v0.41v0.41h0.64h0.64L191.704,19960.223z"/>
			</g>
			<g>
				<path fill="#F2F2F2" d="M165.044,19959.295c-0.479-0.625-0.654-0.85-0.684-0.84c-0.508,0.156-1.982,0.596-1.992,0.596
					c-0.01-0.01,0.195-0.322,0.459-0.693c0.254-0.371,0.527-0.762,0.605-0.869l0.132-0.186l-0.61-0.879
					c-0.332-0.479-0.601-0.879-0.601-0.879c0.005-0.01,0.464,0.127,1.011,0.293c0.557,0.166,1.016,0.303,1.035,0.293
					c0.01,0,0.303-0.381,0.654-0.84l0.635-0.85l0.02,0.43c0.01,0.234,0.02,0.713,0.029,1.074l0.02,0.645l0.991,0.352
					c0.552,0.186,1.001,0.352,1.011,0.352c0,0.01-0.439,0.166-0.986,0.352c-0.547,0.195-0.996,0.352-1.006,0.361
					s-0.029,0.488-0.039,1.064c-0.02,0.576-0.029,1.055-0.039,1.064C165.688,19960.135,165.396,19959.764,165.044,19959.295z"/>
			</g>
			<g>
				<path fill="#F2F2F2" d="M161.489,19949.627c-0.254-0.322-0.518-0.576-0.938-0.908c-0.225-0.176-0.332-0.273-0.332-0.303
					c0-0.02,0.02-0.078,0.049-0.137c0.059-0.117,0.068-0.176,0.029-0.215c-0.015,0-0.117-0.068-0.225-0.127
					c-0.605-0.332-1.094-0.84-1.416-1.465c-0.225-0.459-0.322-0.84-0.322-1.357c0-0.361,0.039-0.625,0.137-0.908
					c0.273-0.83,0.889-1.533,1.699-1.943c0.112-0.059,0.195-0.117,0.195-0.137c0-0.01-0.049-0.137-0.117-0.273l-0.107-0.244
					l0.176-0.088c0.215-0.088,0.547-0.283,0.771-0.459l0.176-0.117v-0.381c0-0.244-0.01-0.391-0.02-0.4
					c-0.039-0.02-0.703,0.371-1.143,0.674c-0.82,0.566-1.494,1.211-1.885,1.807c-0.254,0.391-0.459,0.889-0.596,1.406
					c-0.098,0.41-0.137,0.664-0.137,1.064c0,0.439,0.039,0.625,0.205,0.967c0.127,0.254,0.225,0.4,0.615,0.85
					c0.4,0.459,0.439,0.508,0.4,0.508c-0.107,0-0.615-0.254-0.84-0.43c-0.225-0.166-0.615-0.547-0.771-0.752
					c-0.146-0.195-0.361-0.635-0.449-0.908c-0.156-0.479-0.2-0.85-0.151-1.406c0.044-0.459,0.103-0.742,0.259-1.211
					c0.303-0.859,0.459-1.152,1.318-2.305c0.547-0.723,0.635-0.898,0.723-1.338c0.029-0.107,0.049-0.205,0.049-0.205
					c0.01-0.01,0.039,0.01,0.078,0.039c0.176,0.166,0.898,0.791,1.069,0.928c0.112,0.088,0.21,0.156,0.229,0.156
					c0.049,0,0.361-0.127,0.547-0.234c0.293-0.156,0.293-0.137-0.029-0.273c-0.156-0.068-0.342-0.156-0.42-0.205
					c-0.293-0.156-0.605-0.469-0.703-0.693c-0.049-0.107-0.083-0.391-0.059-0.488c0.02-0.088,0.176-0.234,0.264-0.254
					c0.234-0.068,0.566,0.127,0.63,0.352c0.024,0.078,0.024,0.107-0.024,0.293l-0.059,0.215l0.098,0.059
					c0.234,0.146,0.498,0.254,0.776,0.303l0.063,0.01v-0.439c0-0.254-0.01-0.479-0.02-0.518s-0.049-0.107-0.088-0.146
					c-0.156-0.176-0.195-0.352-0.127-0.557c0.049-0.156,0.234-0.332,0.391-0.381c0.176-0.049,0.391-0.029,0.547,0.039
					c0.225,0.107,0.391,0.371,0.352,0.557c-0.01,0.098-0.107,0.283-0.186,0.381l-0.059,0.068l-0.01,0.449
					c-0.01,0.537-0.01,0.547,0.088,0.537c0.244-0.049,0.83-0.322,0.83-0.381c0-0.02-0.02-0.107-0.039-0.195
					c-0.054-0.195-0.054-0.273,0-0.371c0.098-0.205,0.391-0.332,0.596-0.273c0.166,0.039,0.303,0.283,0.264,0.498
					c-0.02,0.186-0.137,0.391-0.332,0.586c-0.254,0.254-0.537,0.43-0.996,0.625l-0.146,0.049l0.049,0.039
					c0.088,0.059,0.42,0.225,0.601,0.293l0.171,0.059l0.107-0.078c0.059-0.049,0.366-0.303,0.679-0.566
					c0.308-0.264,0.571-0.479,0.581-0.469c0,0.01,0.029,0.098,0.039,0.195c0.049,0.41,0.195,0.654,1.006,1.709
					c0.43,0.566,0.469,0.625,0.635,0.947c0.313,0.645,0.518,1.23,0.615,1.807c0.044,0.215,0.049,0.332,0.049,0.713
					c0,0.527-0.029,0.762-0.166,1.152c-0.254,0.723-0.801,1.377-1.484,1.777c-0.186,0.107-0.518,0.254-0.566,0.234
					c-0.039,0,0.098-0.176,0.474-0.605c0.317-0.361,0.444-0.537,0.542-0.752c0.127-0.273,0.156-0.42,0.166-0.938
					c0.01-0.547-0.02-0.771-0.156-1.24c-0.234-0.83-0.596-1.416-1.27-2.1c-0.469-0.459-0.947-0.85-1.465-1.162
					c-0.391-0.244-0.815-0.479-0.84-0.469c-0.029,0.01-0.029,0.098-0.029,0.391v0.381l0.205,0.137
					c0.239,0.176,0.449,0.303,0.732,0.449l0.205,0.107l-0.117,0.244c-0.078,0.146-0.127,0.264-0.112,0.273
					c0.005,0.01,0.073,0.039,0.151,0.068c0.469,0.195,1.084,0.693,1.406,1.162c0.371,0.547,0.537,1.094,0.537,1.738
					c0,0.713-0.205,1.309-0.664,1.895c-0.322,0.42-0.869,0.859-1.27,1.025c-0.059,0.029-0.117,0.049-0.127,0.059
					s0.02,0.088,0.068,0.186l0.068,0.176l-0.049,0.029c-0.42,0.283-0.972,0.791-1.24,1.143c-0.068,0.088-0.137,0.186-0.166,0.215
					l-0.044,0.049L161.489,19949.627z M163.032,19947.371c0.088-0.049,0.215-0.117,0.283-0.166c0.176-0.127,0.625-0.596,0.732-0.762
					c0.244-0.361,0.42-1.016,0.391-1.406c-0.02-0.205-0.098-0.508-0.186-0.723c-0.127-0.303-0.518-0.85-0.771-1.064
					c-0.146-0.127-0.674-0.518-0.693-0.518c-0.029,0-0.244,0.752-0.366,1.279c-0.093,0.42-0.088,1.387,0.024,1.992
					c0.098,0.518,0.342,1.455,0.391,1.455C162.847,19947.459,162.935,19947.42,163.032,19947.371z M160.659,19947.146
					c0.518-1.768,0.522-2.822,0.049-4.16c-0.039-0.117-0.088-0.215-0.107-0.215c-0.029,0-0.439,0.244-0.605,0.371
					c-0.303,0.225-0.566,0.557-0.752,0.938c-0.166,0.352-0.205,0.479-0.21,0.908c-0.015,0.527,0.044,0.83,0.239,1.221
					c0.166,0.342,0.488,0.732,0.781,0.938c0.166,0.127,0.459,0.293,0.498,0.283
					C160.571,19947.43,160.61,19947.322,160.659,19947.146z"/>
			</g>
			<g>
				<path fill="#F2F2F2" d="M175.049,19948.094c-0.327-0.879-0.601-1.592-0.61-1.592c0,0-0.664,0.371-1.475,0.83
					c-0.811,0.469-1.475,0.84-1.484,0.83c0,0,0.249-0.723,0.557-1.592c0.313-0.869,0.566-1.602,0.566-1.611
					c0-0.02-0.02-0.029-0.059-0.039c-0.029,0-0.762-0.137-1.631-0.293s-1.602-0.293-1.621-0.303
					c-0.029-0.01,0.322-0.225,1.436-0.879c0.811-0.479,1.484-0.869,1.484-0.879s-0.498-0.605-1.094-1.318
					c-0.596-0.723-1.084-1.309-1.074-1.318c0,0,0.762,0.127,1.68,0.283c0.928,0.146,1.689,0.273,1.689,0.264
					c0.01,0,0.02-0.771,0.02-1.699c0.01-0.938,0.02-1.699,0.029-1.699c0,0.01,0.508,0.586,1.104,1.299
					c0.605,0.713,1.113,1.289,1.123,1.289c0.02,0,0.518-0.586,1.123-1.299l1.094-1.289l0.02,1.709
					c0.01,0.947,0.02,1.719,0.029,1.729c0,0,0.762-0.127,1.67-0.283c0.918-0.156,1.675-0.273,1.68-0.273
					c0,0-0.488,0.605-1.084,1.328c-0.654,0.791-1.084,1.328-1.069,1.338s0.679,0.391,1.47,0.859c1.045,0.605,1.455,0.85,1.426,0.859
					c-0.02,0.01-0.762,0.146-1.65,0.313c-0.879,0.166-1.631,0.303-1.65,0.313c-0.044,0.01-0.015,0.088,0.527,1.611
					c0.313,0.879,0.566,1.602,0.566,1.602c-0.005,0.01-0.664-0.361-1.47-0.82s-1.479-0.83-1.499-0.84
					c-0.02,0-0.161,0.352-0.615,1.582c-0.322,0.879-0.596,1.602-0.596,1.602C175.649,19949.705,175.376,19948.982,175.049,19948.094
					z M176.05,19946.443c0.21-0.576,0.381-1.045,0.391-1.045c0-0.01,0.449,0.234,0.986,0.547c0.537,0.303,0.986,0.547,0.986,0.547
					s-0.166-0.479-0.371-1.064c-0.205-0.576-0.371-1.055-0.371-1.055c0.01,0,0.488-0.088,1.074-0.195s1.089-0.205,1.113-0.215
					c0.029-0.01-0.176-0.137-0.928-0.576c-0.537-0.303-0.967-0.566-0.967-0.576c0,0,0.322-0.4,0.713-0.879
					c0.4-0.469,0.723-0.869,0.723-0.869c-0.01,0-0.498,0.078-1.104,0.186c-0.605,0.098-1.104,0.186-1.104,0.186
					c-0.02,0-0.029-0.508-0.029-1.133c0-0.635-0.005-1.123-0.02-1.123c-0.01,0-0.332,0.391-0.728,0.84
					c-0.386,0.459-0.718,0.84-0.728,0.84s-0.342-0.381-0.737-0.85l-0.728-0.85l-0.01,0.361c-0.01,0.195-0.02,0.703-0.02,1.123
					c0,0.723,0,0.771-0.039,0.762c-0.059-0.02-2.188-0.371-2.188-0.361c-0.01,0,0.313,0.391,0.703,0.859
					c0.391,0.479,0.703,0.859,0.703,0.869s-0.308,0.195-0.693,0.42c-0.381,0.225-0.82,0.479-0.977,0.576l-0.283,0.166l1.108,0.205
					c0.913,0.156,1.108,0.205,1.108,0.225c-0.01,0.02-0.176,0.498-0.371,1.064c-0.205,0.576-0.366,1.035-0.361,1.045
					c0,0,0.42-0.234,0.928-0.527c0.498-0.283,0.938-0.527,0.967-0.547l0.059-0.029l0.391,1.064c0.225,0.586,0.4,1.064,0.41,1.055
					C175.659,19947.488,175.835,19947.02,176.05,19946.443z"/>
			</g>
			<g>
				<path fill="#F2F2F2" d="M189.097,19949.656c-0.117-0.029-0.322-0.195-0.43-0.322l-0.098-0.127v-0.322v-0.322l-0.078,0.059
					c-0.098,0.068-0.322,0.137-0.439,0.137c-0.21,0-0.42-0.117-0.586-0.332l-0.088-0.137v-0.537v-0.537l-0.117,0.049
					c-0.42,0.186-0.791,0.049-0.996-0.361l-0.059-0.107v-3.271l-0.01-3.271l0.049-0.273c0.146-0.85,0.527-1.602,1.074-2.109
					c0.625-0.586,1.504-0.879,2.49-0.84c0.518,0.02,0.879,0.098,1.289,0.293c0.313,0.156,0.518,0.293,0.771,0.557
					c0.371,0.371,0.645,0.83,0.84,1.416s0.229,0.879,0.195,1.523c-0.107,2.09-0.078,3.535,0.098,4.385
					c0.044,0.225,0.029,0.254-0.117,0.342c-0.225,0.117-0.605,0.176-0.84,0.117c-0.244-0.059-0.498-0.254-0.625-0.488l-0.068-0.107
					v1.455v1.455l-0.107,0.166c-0.127,0.186-0.293,0.322-0.449,0.361c-0.059,0.02-0.156,0.029-0.244,0.02
					c-0.137-0.01-0.186-0.029-0.322-0.098l-0.156-0.088v0.42c0,0.322,0,0.43-0.029,0.479c-0.049,0.098-0.293,0.303-0.42,0.371
					c-0.098,0.039-0.161,0.059-0.293,0.059C189.243,19949.676,189.136,19949.666,189.097,19949.656z M189.517,19949.354
					c0.068-0.029,0.146-0.098,0.195-0.137l0.088-0.098l0.01-2.676c0.02-2.666,0.02-2.676,0.059-2.725
					c0.059-0.059,0.127-0.059,0.186,0l0.049,0.039l-0.02,2.109l-0.01,2.109l0.117,0.098c0.156,0.137,0.283,0.186,0.42,0.186
					c0.127,0,0.205-0.039,0.313-0.156c0.176-0.176,0.156,0.078,0.156-2.5v-2.314l0.049-0.049c0.059-0.059,0.098-0.059,0.166-0.01
					c0.049,0.049,0.049,0.049,0.063,0.459c0.024,0.928,0.229,1.465,0.61,1.66c0.156,0.078,0.449,0.078,0.635,0.01
					c0.078-0.02,0.137-0.049,0.137-0.068c-0.186-1.025-0.21-2.451-0.103-4.434c0.024-0.449,0.024-0.547-0.005-0.732
					c-0.117-0.83-0.439-1.553-0.908-2.031c-0.391-0.4-0.84-0.635-1.436-0.752c-0.254-0.059-0.996-0.059-1.274,0
					c-0.562,0.098-0.991,0.293-1.372,0.605c-0.654,0.527-1.074,1.387-1.167,2.354c-0.015,0.166-0.015,1.221-0.005,3.359l0.02,3.125
					l0.068,0.098c0.146,0.205,0.342,0.244,0.625,0.117c0.078-0.039,0.166-0.088,0.176-0.098c0.015-0.02,0.02-0.527,0.02-1.836
					c0.01-1.777,0.01-1.816,0.049-1.846c0.054-0.039,0.137-0.039,0.186,0.01c0.034,0.029,0.034,0.137,0.034,2.51v2.48l0.073,0.088
					c0.195,0.234,0.488,0.234,0.752-0.02l0.098-0.078v-2.275c0-2.236,0-2.266,0.039-2.305c0.02-0.02,0.068-0.039,0.098-0.039
					s0.068,0.02,0.098,0.039c0.039,0.039,0.039,0.068,0.039,2.773v2.725l0.088,0.098
					C189.116,19949.412,189.312,19949.451,189.517,19949.354z"/>
			</g>
			<g>
				<path fill="#F2F2F2" d="M189.282,19942.771c-1.045-0.127-1.885-0.938-2.07-1.973c-0.049-0.273-0.029-0.732,0.049-1.006
					c0.166-0.654,0.645-1.24,1.26-1.543c0.283-0.146,0.723-0.244,1.055-0.244c1.045,0,1.992,0.713,2.285,1.719
					c0.156,0.537,0.117,1.123-0.098,1.621c-0.308,0.713-0.986,1.25-1.738,1.396
					C189.819,19942.781,189.468,19942.791,189.282,19942.771z M189.429,19942.615c0-0.029,0.01-0.273,0.029-0.518
					c0.02-0.254,0.029-0.459,0.029-0.469c-0.01,0-0.039-0.01-0.078-0.02l-0.078-0.01l-0.098,0.508
					c-0.059,0.283-0.107,0.518-0.098,0.537c0,0.029,0.059,0.039,0.205,0.049C189.419,19942.693,189.429,19942.693,189.429,19942.615
					z M190.005,19942.654c0.01,0-0.029-0.244-0.088-0.527l-0.107-0.518l-0.068,0.01c-0.039,0.01-0.078,0.01-0.083,0.01
					c-0.005,0.01,0.005,0.234,0.034,0.498c0.01,0.273,0.029,0.508,0.029,0.527c0,0.039,0.01,0.039,0.137,0.029
					C189.937,19942.674,190,19942.664,190.005,19942.654z M188.999,19942.078c0.088-0.264,0.156-0.498,0.166-0.508
					c0-0.01-0.029-0.029-0.068-0.049l-0.068-0.029l-0.234,0.469c-0.127,0.264-0.225,0.479-0.225,0.488
					c0,0.029,0.176,0.107,0.234,0.117C188.823,19942.566,188.872,19942.459,188.999,19942.078z M190.474,19942.518
					c0.059-0.02,0.103-0.049,0.103-0.059s-0.435-0.918-0.454-0.938c-0.01-0.02-0.156,0.049-0.146,0.068
					c0.01,0.01,0.078,0.234,0.176,0.498c0.088,0.273,0.166,0.479,0.186,0.479
					C190.347,19942.566,190.405,19942.547,190.474,19942.518z M188.589,19941.863l0.303-0.449l-0.059-0.039
					c-0.02-0.029-0.059-0.049-0.068-0.039c-0.029,0-0.703,0.771-0.703,0.791c0,0.01,0.205,0.186,0.225,0.186
					C188.286,19942.313,188.423,19942.107,188.589,19941.863z M191.06,19942.156c0.02-0.029,0.01-0.049-0.02-0.078
					c-0.02-0.029-0.176-0.205-0.337-0.391s-0.308-0.342-0.317-0.342c-0.005,0-0.039,0.02-0.068,0.049l-0.059,0.039l0.303,0.439
					l0.293,0.439l0.098-0.068C190.991,19942.205,191.05,19942.166,191.06,19942.156z M188.608,19941.141
					c-0.029-0.029-0.059-0.049-0.059-0.059s-0.879,0.586-0.879,0.596c0,0.029,0.059,0.117,0.117,0.176l0.054,0.059l0.405-0.352
					l0.4-0.361L188.608,19941.141z M191.392,19941.805c0.059-0.068,0.078-0.127,0.068-0.137c-0.005-0.01-0.2-0.146-0.43-0.293
					l-0.41-0.273l-0.049,0.049c-0.049,0.059-0.049,0.068-0.02,0.098c0.039,0.039,0.742,0.664,0.752,0.664
					C191.304,19941.912,191.348,19941.863,191.392,19941.805z M189.604,19941.375c0.059-0.029,0.137-0.078,0.176-0.117
					c0.059-0.059,0.112-0.195,0.098-0.244c-0.01-0.02-0.01-0.059-0.02-0.088c-0.01-0.039-0.029-0.059-0.078-0.068
					c-0.132-0.029-0.215-0.186-0.156-0.313c0.029-0.068,0.122-0.156,0.176-0.156c0.049,0,0.078-0.117,0.078-0.371
					c0-0.215-0.01-0.264-0.039-0.293c-0.049-0.049-0.078-0.02-0.176,0.156l-0.068,0.137v-0.342v-0.342l0.137,0.02
					c0.078,0.01,0.137,0,0.146-0.01c0.02-0.039-0.098-0.068-0.22-0.059h-0.117l-0.005,0.469c-0.01,0.371,0,0.469,0.02,0.459
					c0.02,0,0.078-0.107,0.137-0.225l0.107-0.215l0.01,0.098c0.01,0.059,0.01,0.176,0,0.264c-0.01,0.127-0.015,0.166-0.049,0.195
					c-0.117,0.078-0.205,0.176-0.22,0.254c-0.024,0.117,0.059,0.264,0.171,0.313c0.088,0.039,0.088,0.049,0.088,0.146
					c0,0.156-0.127,0.264-0.391,0.313l-0.078,0.02l0.02-1.035c0.01-0.859,0.01-1.045-0.02-1.045s-0.049,0.596-0.049,1.533v0.615
					l0.107-0.02C189.448,19941.424,189.541,19941.395,189.604,19941.375z M190.044,19941.297c0.107-0.176,0.088-0.498-0.039-0.605
					c-0.029-0.029-0.078-0.049-0.107-0.049s-0.029-0.01,0.029-0.039c0.049-0.029,0.088-0.068,0.127-0.146
					c0.049-0.098,0.049-0.117,0.059-0.537c0.01-0.234,0.01-0.43,0.02-0.43s0.039,0.01,0.059,0.029
					c0.044,0.039,0.093,0.049,0.093,0.01c0-0.02-0.19-0.146-0.21-0.137c-0.01,0-0.029,0.215-0.029,0.469
					c0,0.566-0.02,0.625-0.176,0.693c-0.117,0.059-0.107,0.107,0.02,0.146s0.156,0.098,0.156,0.303c0,0.156-0.01,0.186-0.068,0.283
					c-0.039,0.059-0.063,0.117-0.059,0.127C189.937,19941.443,189.985,19941.404,190.044,19941.297z M188.462,19940.936
					c0,0-0.01-0.039-0.024-0.068l-0.034-0.078l-0.498,0.176c-0.557,0.186-0.527,0.166-0.449,0.352l0.039,0.098l0.479-0.234
					C188.237,19941.053,188.452,19940.945,188.462,19940.936z M191.704,19941.268c0.029-0.059,0.039-0.117,0.029-0.127
					c-0.02-0.02-0.957-0.342-0.957-0.332s-0.02,0.039-0.039,0.078l-0.039,0.068l0.469,0.225c0.254,0.127,0.474,0.225,0.479,0.215
					C191.655,19941.385,191.675,19941.326,191.704,19941.268z M189.077,19941.307c0.01-0.02,0.02-0.449,0.02-0.957
					c0.01-0.723,0.01-0.928-0.02-0.928c-0.02,0-0.049,0.342-0.049,0.693v0.186h-0.098h-0.088v-0.342c0-0.195-0.01-0.342-0.02-0.342
					c-0.059,0-0.234,0.264-0.234,0.342c0,0.049,0.039,0.039,0.059-0.02c0.01-0.029,0.049-0.088,0.078-0.137l0.049-0.068v0.283v0.283
					l-0.073,0.01c-0.112,0.01-0.122,0.059-0.005,0.059h0.078v0.303c0,0.186-0.01,0.303-0.02,0.293s-0.049-0.068-0.078-0.127
					c-0.068-0.117-0.107-0.146-0.107-0.078c0,0.059,0.205,0.361,0.244,0.361c0.02,0,0.029-0.068,0.029-0.381v-0.371h0.088h0.098
					v0.479c0,0.313,0.01,0.479,0.02,0.479C189.067,19941.326,189.077,19941.316,189.077,19941.307z M190.356,19941.111
					c0.024-0.078-0.01-0.322-0.049-0.42c-0.039-0.078-0.039-0.088,0-0.215c0.034-0.098,0.049-0.186,0.049-0.43
					c0-0.215-0.01-0.313-0.02-0.322c-0.02-0.01-0.029,0.088-0.039,0.303c-0.01,0.234-0.02,0.342-0.059,0.449
					c-0.039,0.127-0.039,0.146-0.01,0.195c0.049,0.088,0.078,0.293,0.068,0.391c-0.01,0.039-0.01,0.078,0,0.088
					C190.327,19941.17,190.347,19941.16,190.356,19941.111z M188.35,19940.555c-0.005-0.029-0.015-0.068-0.015-0.078
					c-0.01,0-1.045,0.068-1.064,0.078c0,0,0.02,0.205,0.034,0.254c0.005,0.029,0.073,0.02,0.532-0.068l0.527-0.107L188.35,19940.555
					z M191.86,19940.662c0.01-0.127,0.059-0.117-0.479-0.146c-0.215-0.01-0.43-0.029-0.469-0.029c-0.073-0.01-0.073,0-0.073,0.078
					v0.088l0.493,0.088C191.88,19940.857,191.841,19940.857,191.86,19940.662z M188.345,19940.242c0.005-0.039,0.01-0.078,0-0.078
					c0-0.01-0.234-0.059-0.508-0.107c-0.361-0.078-0.518-0.098-0.527-0.088c-0.02,0.029-0.044,0.254-0.029,0.264
					c0.01,0.02,0.732,0.068,0.918,0.068h0.137L188.345,19940.242z M191.431,19940.271c0.234-0.01,0.43-0.029,0.439-0.039
					s-0.029-0.264-0.044-0.273c-0.005,0-0.229,0.039-0.503,0.088c-0.464,0.098-0.498,0.107-0.498,0.146
					C190.825,19940.32,190.806,19940.32,191.431,19940.271z M188.423,19939.93c0.01-0.039,0.02-0.068,0.02-0.078
					s-0.918-0.469-0.928-0.469c-0.02,0-0.117,0.234-0.112,0.264c0.005,0.01,0.923,0.332,0.981,0.342
					C188.394,19939.988,188.403,19939.959,188.423,19939.93z M191.255,19939.822c0.244-0.078,0.454-0.156,0.469-0.166
					c0.02-0.01,0.02-0.039-0.02-0.127c-0.02-0.059-0.049-0.127-0.059-0.127c-0.01-0.02-0.869,0.391-0.918,0.43
					c-0.01,0.01,0.049,0.137,0.068,0.137C190.806,19939.969,191.011,19939.9,191.255,19939.822z M188.569,19939.656
					c0.02-0.029,0.039-0.068,0.039-0.078c0-0.02-0.732-0.684-0.767-0.693c-0.024,0-0.181,0.205-0.171,0.225
					c0.005,0.02,0.83,0.586,0.85,0.586C188.53,19939.695,188.545,19939.676,188.569,19939.656z M191.069,19939.393
					c0.215-0.146,0.4-0.273,0.4-0.273c0.02-0.01-0.068-0.137-0.122-0.186l-0.054-0.049l-0.371,0.322
					c-0.195,0.176-0.361,0.342-0.361,0.352c0,0.029,0.068,0.117,0.098,0.107C190.669,19939.666,190.859,19939.539,191.069,19939.393
					z M188.853,19939.324c-0.01-0.01-0.132-0.205-0.283-0.43l-0.273-0.41l-0.059,0.029c-0.088,0.068-0.176,0.137-0.176,0.146
					s0.156,0.186,0.342,0.4l0.332,0.381l0.068-0.039C188.833,19939.373,188.853,19939.344,188.853,19939.324z M190.757,19939.041
					l0.332-0.371l-0.088-0.078c-0.151-0.137-0.122-0.156-0.43,0.313l-0.283,0.42l0.054,0.049c0.034,0.029,0.063,0.049,0.063,0.049
					C190.415,19939.422,190.571,19939.256,190.757,19939.041z M189.092,19939.227c0.034-0.02,0.063-0.039,0.063-0.049
					s-0.322-0.947-0.332-0.967c-0.005-0.01-0.234,0.098-0.244,0.117s0.42,0.928,0.439,0.928
					C189.028,19939.256,189.058,19939.246,189.092,19939.227z M190.356,19938.797c0.122-0.244,0.22-0.449,0.215-0.469
					c-0.01-0.02-0.244-0.127-0.254-0.117c-0.01,0.02-0.327,0.947-0.327,0.967c0,0.01,0.093,0.049,0.132,0.059
					C190.132,19939.236,190.234,19939.041,190.356,19938.797z M189.478,19939.002c0-0.068-0.02-0.293-0.029-0.498
					c-0.02-0.195-0.029-0.381-0.029-0.391c-0.01-0.01-0.049-0.01-0.137,0c-0.078,0.01-0.137,0.02-0.146,0.029
					c-0.01,0,0.029,0.186,0.068,0.4s0.088,0.439,0.098,0.498l0.02,0.098h0.088l0.088-0.01L189.478,19939.002z M189.839,19939.031
					c0.088-0.41,0.176-0.879,0.166-0.889s-0.273-0.049-0.283-0.049c-0.01,0.01-0.063,1.006-0.049,1.016
					c0,0.02,0.039,0.02,0.078,0.02C189.819,19939.129,189.819,19939.129,189.839,19939.031z"/>
			</g>
		</g>
		<g>
			<path fill="#F2F2F2" d="M0.096,7.484h0.637c0.543,0,0.716,0.291,0.716,0.693c0,0.409-0.267,0.663-0.684,0.663H0.096V7.484z
				 M0.622,8.532h0.053c0.086,0,0.138-0.031,0.171-0.086C0.881,8.39,0.892,8.294,0.892,8.162c0-0.131-0.011-0.227-0.047-0.283
				C0.812,7.824,0.761,7.792,0.674,7.792H0.622V8.532z"/>
			<path fill="#F2F2F2" d="M1.591,7.484h0.802c0.291,0,0.462,0.088,0.462,0.344c0,0.156-0.065,0.274-0.269,0.323v0.003
				c0.132,0.012,0.203,0.07,0.229,0.174c0.03,0.116,0.026,0.308,0.088,0.513H2.378C2.346,8.739,2.329,8.568,2.31,8.452
				C2.299,8.384,2.265,8.358,2.179,8.358H2.117v0.483H1.591V7.484z M2.162,8.05c0.104,0,0.179-0.036,0.179-0.138
				c0-0.1-0.069-0.12-0.175-0.12H2.117V8.05H2.162z"/>
			<path fill="#F2F2F2" d="M3.014,7.484h1.031v0.354H3.529v0.145h0.478v0.353H3.529v0.152h0.533v0.354H3.014V7.484z"/>
			<path fill="#F2F2F2" d="M4.898,7.869C4.896,7.785,4.849,7.757,4.78,7.757c-0.087,0-0.124,0.037-0.124,0.079
				c0,0.049,0.032,0.069,0.088,0.086c0.104,0.03,0.293,0.067,0.431,0.126C5.345,8.119,5.42,8.241,5.42,8.404
				c0,0.333-0.271,0.472-0.653,0.472c-0.327,0-0.628-0.102-0.628-0.454h0.515c0,0.037,0.008,0.075,0.028,0.103
				s0.055,0.044,0.105,0.044c0.079,0,0.129-0.051,0.129-0.111c0-0.051-0.04-0.077-0.09-0.092L4.446,8.253
				C4.237,8.191,4.164,8.065,4.164,7.89c0-0.281,0.228-0.44,0.624-0.44c0.338,0,0.591,0.104,0.591,0.42H4.898z"/>
			<path fill="#F2F2F2" d="M5.553,7.484H6.19c0.543,0,0.716,0.291,0.716,0.693c0,0.409-0.267,0.663-0.684,0.663H5.553V7.484z
				 M6.079,8.532h0.052c0.087,0,0.138-0.031,0.172-0.086C6.338,8.39,6.35,8.294,6.35,8.162c0-0.131-0.012-0.227-0.047-0.283
				C6.269,7.824,6.218,7.792,6.131,7.792H6.079V8.532z"/>
			<path fill="#F2F2F2" d="M7.048,7.484H8.08v0.354H7.563v0.145h0.478v0.353H7.563v0.152h0.533v0.354H7.048V7.484z"/>
			<path fill="#F2F2F2" d="M8.231,7.484h0.645l0.287,0.821h0.004V7.484h0.437v1.356H8.959L8.67,8.014H8.667v0.827H8.231V7.484z"/>
			<path fill="#F2F2F2" d="M10.455,7.484h1.031v0.354h-0.494v0.145h0.46v0.353h-0.46v0.506h-0.537V7.484z"/>
			<path fill="#F2F2F2" d="M12.879,8.386c0,0.327-0.234,0.49-0.645,0.49c-0.409,0-0.644-0.163-0.644-0.49V7.484h0.537v0.879
				c0,0.107,0.051,0.148,0.106,0.148c0.057,0,0.107-0.041,0.107-0.148V7.484h0.537V8.386z M11.856,7.071h0.308v0.319h-0.308V7.071z
				 M12.307,7.071h0.308v0.319h-0.308V7.071z"/>
			<path fill="#F2F2F2" d="M13.062,7.484h0.801c0.292,0,0.463,0.088,0.463,0.344c0,0.156-0.065,0.274-0.269,0.323v0.003
				c0.131,0.012,0.203,0.07,0.229,0.174c0.03,0.116,0.026,0.308,0.088,0.513h-0.526c-0.031-0.102-0.049-0.272-0.067-0.389
				c-0.011-0.068-0.045-0.095-0.132-0.095h-0.062v0.483h-0.526V7.484z M13.632,8.05c0.104,0,0.179-0.036,0.179-0.138
				c0-0.1-0.069-0.12-0.175-0.12h-0.049V8.05H13.632z"/>
			<path fill="#F2F2F2" d="M15.378,7.484h0.697l0.436,1.356h-0.556l-0.053-0.219h-0.389L15.46,8.841h-0.515L15.378,7.484z
				 M15.824,8.292l-0.107-0.511h-0.004l-0.118,0.511H15.824z"/>
			<path fill="#F2F2F2" d="M16.571,7.484h0.538v0.991h0.494v0.365h-1.031V7.484z"/>
			<path fill="#F2F2F2" d="M17.717,7.484h0.537v0.991h0.494v0.365h-1.031V7.484z"/>
			<path fill="#F2F2F2" d="M18.863,7.484h1.031v0.354h-0.517v0.145h0.477v0.353h-0.477v0.152h0.533v0.354h-1.048V7.484z"/>
		</g>
	</g>
</g>
</svg>
