<?xml version="1.0" encoding="utf-8"?>
<!-- Generator: Adobe Illustrator 16.0.3, SVG Export Plug-In . SVG Version: 6.00 Build 0)  -->
<!DOCTYPE svg PUBLIC "-//W3C//DTD SVG 1.1//EN" "http://www.w3.org/Graphics/SVG/1.1/DTD/svg11.dtd">
<svg version="1.1" xmlns="http://www.w3.org/2000/svg" xmlns:xlink="http://www.w3.org/1999/xlink" x="0px" y="0px" width="20px"
	 height="20px" viewBox="0 0 20 20" enable-background="new 0 0 20 20" xml:space="preserve">
<g id="Ebene_1">
</g>
<g id="Ebene_4">
	<g id="WATER_1_">
		<g>
			<rect x="9.709" y="15.875" fill="#F2F2F2" width="0.581" height="2.325"/>
		</g>
		<g>
			
				<rect x="6.177" y="14.923" transform="matrix(-0.8648 -0.5021 0.5021 -0.8648 3.9836 33.2444)" fill="#F2F2F2" width="0.582" height="2.325"/>
		</g>
		<g>
			
				<rect x="2.747" y="6.184" transform="matrix(-0.8656 -0.5008 0.5008 -0.8656 4.0505 14.0356)" fill="#F2F2F2" width="2.325" height="0.58"/>
		</g>
		<g>
			
				<rect x="5.323" y="3.613" transform="matrix(-0.4997 -0.8662 0.8662 -0.4997 6.3453 11.4707)" fill="#F2F2F2" width="2.325" height="0.58"/>
		</g>
		<g>
			
				<rect x="12.351" y="15.807" transform="matrix(-0.4997 -0.8662 0.8662 -0.4997 6.3252 35.8475)" fill="#F2F2F2" width="2.326" height="0.58"/>
		</g>
		<g>
			<rect x="1.799" y="9.708" fill="#F2F2F2" width="2.325" height="0.582"/>
		</g>
		<g>
			
				<rect x="3.545" y="12.316" transform="matrix(-0.4963 -0.8681 0.8681 -0.4963 -5.9622 23.4988)" fill="#F2F2F2" width="0.58" height="2.325"/>
		</g>
		<path fill="#F2F2F2" d="M10,0C4.485,0,0,4.485,0,10c0,5.515,4.485,10,10,10c5.514,0,10-4.485,10-10C20,4.485,15.514,0,10,0z
			 M14.347,3.04l-1.162,2.016l-0.501-0.291l1.161-2.014L14.347,3.04z M16.959,5.652l0.29,0.502l-2.015,1.162l-0.29-0.502
			L16.959,5.652z M15.875,9.708H18.2v0.582h-2.325V9.708z M10,18.606c-4.746,0-8.607-3.861-8.607-8.607
			c0-4.648,3.706-8.445,8.316-8.6V10c0,0.102,0.055,0.196,0.141,0.248l7.358,4.446C15.671,17.047,13.015,18.606,10,18.606z"/>
	</g>
</g>
</svg>
