<?xml version="1.0" encoding="utf-8"?>
<!-- Generator: Adobe Illustrator 16.0.3, SVG Export Plug-In . SVG Version: 6.00 Build 0)  -->
<!DOCTYPE svg PUBLIC "-//W3C//DTD SVG 1.1//EN" "http://www.w3.org/Graphics/SVG/1.1/DTD/svg11.dtd">
<svg version="1.1" id="Ebene_1" xmlns="http://www.w3.org/2000/svg" xmlns:xlink="http://www.w3.org/1999/xlink" x="0px" y="0px"
	 width="20px" height="20px" viewBox="0 0 20 20" enable-background="new 0 0 20 20" xml:space="preserve">
<g>
	<g>
		<g>
			<path fill="#F2F2F2" d="M-0.006,17.118C0.031,16.79-0.109,2.041-0.109,2.041s-0.02-0.228-0.206-0.274
				c-0.456-0.114-1.467,4.462-1.173,5.947c0.206,1.026,0.641,0.979,0.719,1.276c0.079,0.297,0,8.118,0,8.118
				s0.008,0.433,0.415,0.461C-0.354,17.569-0.058,17.569-0.006,17.118z"/>
		</g>
	</g>
</g>
<g>
	<g>
		<path fill="#F2F2F2" d="M10.061,11.041c0-1.085-0.882-1.967-1.968-1.967s-1.967,0.882-1.967,1.967
			c0,1.088,0.881,1.969,1.967,1.969S10.061,12.129,10.061,11.041L10.061,11.041z"/>
	</g>
	<g>
		<path fill="#F2F2F2" d="M6.313,13.287c-1.806,0.859-2.747,2.88-2.237,4.815c2.557,1.136,5.478,1.136,8.034,0
			c0.509-1.934-0.432-3.956-2.237-4.815C8.83,14.114,7.358,14.114,6.313,13.287z"/>
	</g>
	<g>
		<path fill="#F2F2F2" d="M14.501,10.625c0-0.834-0.678-1.514-1.517-1.514c-0.836,0-1.514,0.679-1.514,1.514
			c0,0.835,0.678,1.516,1.514,1.516C13.823,12.142,14.501,11.46,14.501,10.625L14.501,10.625z"/>
	</g>
	<g>
		<path fill="#F2F2F2" d="M10.52,13.209c0.298-0.361,0.674-0.653,1.096-0.854c0.804,0.637,1.938,0.637,2.741,0
			c1.39,0.663,2.115,2.221,1.722,3.707c-1.086,0.486-2.272,0.708-3.464,0.651C12.51,15.277,11.735,13.979,10.52,13.209z"/>
	</g>
	<g>
		<path fill="#F2F2F2" d="M4.715,10.625c0-0.834-0.678-1.514-1.514-1.514c-0.837,0-1.517,0.679-1.517,1.514
			c0,0.835,0.68,1.516,1.517,1.516C4.037,12.142,4.715,11.46,4.715,10.625L4.715,10.625z"/>
	</g>
	<g>
		<path fill="#F2F2F2" d="M3.572,16.713c0.101-1.436,0.882-2.735,2.095-3.504c-0.298-0.361-0.672-0.653-1.096-0.854
			c-0.804,0.637-1.938,0.637-2.742,0c-1.39,0.663-2.116,2.221-1.722,3.707C1.195,16.549,2.379,16.77,3.572,16.713z"/>
	</g>
	<g>
		<path fill="#F2F2F2" d="M12.647,7.928c0.667,0.182,1.354,0.274,2.046,0.274c0.712,0,1.421-0.103,2.109-0.292
			c0.585-0.163,1.138-0.419,1.644-0.76c0.48-0.324,0.886-0.746,1.19-1.242C19.875,5.523,20,5.079,20,4.622
			c0-0.453-0.126-0.9-0.363-1.29c-0.305-0.494-0.71-0.915-1.19-1.238c-0.506-0.339-1.059-0.596-1.644-0.76
			c-0.688-0.193-1.397-0.288-2.109-0.288c-0.716,0-1.425,0.095-2.111,0.288c-0.585,0.165-1.14,0.42-1.644,0.76
			c-0.481,0.324-0.889,0.745-1.191,1.238C9.51,3.722,9.382,4.169,9.382,4.622c0,0.457,0.128,0.901,0.365,1.286
			c0.303,0.497,0.71,0.918,1.191,1.242c0.307,0.208,0.633,0.383,0.973,0.526c-0.09,0.502-0.345,0.954-0.725,1.292
			C11.797,8.841,12.326,8.461,12.647,7.928z"/>
	</g>
</g>
<g>
	<g>
		<path fill="#F2F2F2" d="M27.026,10.267c-0.564-0.565-1.13-1.13-1.695-1.695c-0.282-0.463-0.797-0.876-1.738-0.876
			c-0.448,0-0.793,0.101-1.06,0.26c-0.08,0.007-0.159,0.041-0.22,0.102c-0.737,0.737-1.475,1.475-2.212,2.211
			c-0.138,0.137-0.135,0.368,0.003,0.503c0.138,0.136,0.365,0.134,0.503-0.002c0.346-0.348,0.693-0.694,1.04-1.041
			c-0.006,0.151,0.002,0.247,0.002,0.247v2.459h0.64c0,1.042,0,2.083,0,3.125c0,0.194,0.158,0.357,0.353,0.358
			C22.835,15.92,23,15.76,23,15.566c0-1.042,0-2.085,0-3.127c0-0.001,0-0.002,0-0.003h1.304c0,1.042,0,2.083,0,3.125
			c0,0.194,0.158,0.357,0.354,0.358c0.192,0.001,0.357-0.159,0.357-0.354c0-1.042,0-2.085,0-3.127c0-0.001,0-0.002,0-0.003h0.659
			V9.92c0.284,0.284,0.568,0.569,0.853,0.853c0.138,0.137,0.367,0.134,0.503-0.002C27.166,10.632,27.164,10.404,27.026,10.267z"/>
	</g>
</g>
</svg>
