<?xml version="1.0" encoding="utf-8"?>
<!-- Generator: Adobe Illustrator 16.0.3, SVG Export Plug-In . SVG Version: 6.00 Build 0)  -->
<!DOCTYPE svg PUBLIC "-//W3C//DTD SVG 1.1//EN" "http://www.w3.org/Graphics/SVG/1.1/DTD/svg11.dtd">
<svg version="1.1" xmlns="http://www.w3.org/2000/svg" xmlns:xlink="http://www.w3.org/1999/xlink" x="0px" y="0px" width="20px"
	 height="20px" viewBox="0 0 20 20" enable-background="new 0 0 20 20" xml:space="preserve">
<g id="Ebene_1">
</g>
<g id="Ebene_4">
	<path fill="#333333" d="M5.793-8.925C5.741-8.794,5.76-8.72,5.76-8.72l0.067,0.971C5.794-6.422,5.212-5.987,5.212-5.987
		l0.822,5.288C5.1-1.036,4.223-1.487,3.421-2.033L3.079-5.85c0,0-0.184-0.093-0.549-0.261C2.166-6.278,1.784-6.749,1.687-6.911
		C1.591-7.072,1.365-7.523,0.817-7.938C0.27-8.353,0.217-8.155,0.071-8.406c-0.145-0.251,0.22-0.409,0.22-0.409
		s1.012-0.197,1.867,0.87c0,0,0.025-0.007,0.072-0.014l0.013-0.04C2.232-7.998,2.227-7.998,2.227-7.998
		c0.005,0,0.011-0.001,0.017-0.001l0.051-0.174c0,0,0.002-0.026,0.005-0.069c0.273-0.006,1.266,0.038,1.685,0.926
		c0.025,0.041,0.053,0.084,0.078,0.13c0,0-0.078-1.243-1.762-1.059C2.308-8.38,2.322-8.663,2.307-8.799
		c-0.021-0.18-0.1-0.352-0.1-0.352L1.34-11.196c0,0-0.165-0.345,0.143-0.506c0.306-0.161,0.474,0.117,0.474,0.117
		s0.919,1.836,1.022,2.063C3.082-9.295,3.22-9.588,3.22-9.588l-0.331-2.454c0,0-0.095-0.401,0.336-0.491
		c0.431-0.089,0.468,0.549,0.468,0.549s0.29,2.113,0.329,2.358s0.174,0.008,0.174,0.008s0.324-2.031,0.355-2.247
		c0.032-0.215,0.099-0.453,0.417-0.443c0.317,0.011,0.274,0.696,0.274,0.696S4.999-9.55,4.988-9.396
		c-0.01,0.154,0.091,0.114,0.091,0.114s0.771-1.588,0.833-1.7c0.063-0.114,0.188-0.359,0.499-0.233
		c0.313,0.126,0.003,0.816,0.003,0.816S5.845-9.056,5.793-8.925z M19.877-10.002c-0.264-0.182-0.429,0.021-0.511,0.112
		c-0.081,0.093-1.119,1.409-1.119,1.409s-0.102,0.017-0.061-0.124c0.042-0.142,0.688-2.005,0.688-2.005s0.18-0.628-0.112-0.702
		c-0.292-0.075-0.403,0.133-0.478,0.326c-0.072,0.192-0.787,2.012-0.787,2.012s-0.174,0.192-0.159-0.042
		c0.014-0.235,0.175-2.256,0.175-2.256s0.096-0.599-0.322-0.604s-0.409,0.387-0.409,0.387l-0.194,2.344c0,0-0.189,0.244-0.238,0.013
		c-0.05-0.232-0.528-2.123-0.528-2.123s-0.098-0.293-0.415-0.206c-0.317,0.088-0.235,0.44-0.235,0.44l0.389,2.074
		c0,0,0.036,0.176,0.02,0.347c-0.012,0.126-0.081,0.376-0.116,0.502c1.541,0.193,1.366,1.334,1.366,1.334
		c-0.016-0.048-0.031-0.094-0.048-0.139c-0.194-0.853-1.013-1.118-1.321-1.188c-0.012,0.042-0.021,0.068-0.021,0.068l-0.083,0.15
		c-0.006-0.001-0.01-0.001-0.017-0.001c0,0,0.007,0,0.017,0.001l-0.019,0.036c-0.045-0.004-0.07-0.003-0.07-0.003
		c-0.576-1.165-1.556-1.188-1.556-1.188s-0.37,0.073-0.288,0.335c0.084,0.264,0.174,0.091,0.598,0.587
		c0.425,0.496,0.542,0.961,0.598,1.131c0.057,0.169,0.315,0.686,0.62,0.914c0.304,0.23,0.455,0.354,0.455,0.354l-0.586,4.589
		c0.874-0.412,1.685-0.927,2.419-1.529L17.698-5.4c0,0,0.628-0.283,0.93-1.508l0.135-0.913c0,0-0.002-0.073,0.074-0.184
		c0.073-0.111,0.876-1.241,0.876-1.241S20.142-9.821,19.877-10.002z M15.575-17.255c-0.479-0.263-0.728,0.109-0.852,0.279
		c-0.125,0.17-1.674,2.587-1.674,2.587s-0.171,0.046-0.124-0.201c0.047-0.248,0.837-3.532,0.837-3.532s0.201-1.1-0.311-1.178
		c-0.51-0.077-0.665,0.295-0.759,0.635c-0.093,0.341-1.006,3.563-1.006,3.563s-0.264,0.356-0.279-0.047
		c-0.015-0.402-0.077-3.873-0.077-3.873s0.063-1.038-0.65-0.976c-0.714,0.062-0.636,0.729-0.636,0.729l0.062,4.027
		c0,0-0.279,0.449-0.403,0.063c-0.123-0.388-1.254-3.532-1.254-3.532s-0.217-0.48-0.744-0.279C7.179-18.788,7.38-18.2,7.38-18.2
		l1.007,3.471c0,0,0.093,0.294,0.093,0.588c0,0.295-0.14,1.008-0.14,1.008l-0.014,0.031c2.745,0.032,2.632,2.051,2.632,2.051
		c-0.032-0.077-0.065-0.15-0.1-0.223c-0.5-1.507-2.079-1.775-2.534-1.822l-0.101,0.231c-0.009,0-0.019,0-0.027,0
		c0,0,0.009,0,0.027,0.001l-0.027,0.063c-0.075,0.003-0.119,0.008-0.119,0.008C6.9-14.684,5.227-14.56,5.227-14.56
		s-0.619,0.186-0.432,0.62c0.186,0.434,0.31,0.124,1.115,0.898c0.805,0.774,1.084,1.55,1.208,1.827
		c0.125,0.28,0.651,1.116,1.208,1.456C8.884-9.416,9.163-9.23,9.163-9.23L8.896-0.057C9.28-0.02,9.67,0,10.063,0
		c0.994,0,1.959-0.122,2.879-0.35l-0.31-8.694c0,0,1.022-0.589,1.332-2.727l0.077-1.58c0,0-0.015-0.124,0.093-0.326
		c0.109-0.2,1.286-2.261,1.286-2.261S16.056-16.991,15.575-17.255z"/>
	<path fill="#F2F2F2" d="M5.793,11.075C5.741,11.206,5.76,11.28,5.76,11.28l0.067,0.971c-0.033,1.327-0.615,1.762-0.615,1.762
		l0.822,5.288c-0.935-0.337-1.812-0.788-2.613-1.334L3.079,14.15c0,0-0.184-0.093-0.549-0.261c-0.364-0.168-0.746-0.639-0.844-0.801
		c-0.096-0.161-0.321-0.612-0.869-1.027c-0.548-0.414-0.601-0.217-0.746-0.468c-0.145-0.251,0.22-0.409,0.22-0.409
		s1.012-0.197,1.867,0.87c0,0,0.025-0.007,0.072-0.014l0.013-0.04c-0.011,0.001-0.017,0.001-0.017,0.001
		c0.005,0,0.011-0.001,0.017-0.001l0.051-0.174c0,0,0.002-0.026,0.005-0.069c0.273-0.006,1.266,0.038,1.685,0.926
		c0.025,0.041,0.053,0.084,0.078,0.13c0,0-0.078-1.243-1.762-1.059c0.008-0.135,0.022-0.418,0.007-0.554
		c-0.021-0.18-0.1-0.352-0.1-0.352L1.34,8.804c0,0-0.165-0.345,0.143-0.506c0.306-0.161,0.474,0.117,0.474,0.117
		s0.919,1.836,1.022,2.063c0.104,0.227,0.241-0.066,0.241-0.066L2.889,7.958c0,0-0.095-0.401,0.336-0.491
		c0.431-0.089,0.468,0.549,0.468,0.549s0.29,2.113,0.329,2.358s0.174,0.008,0.174,0.008S4.52,8.351,4.551,8.135
		C4.583,7.92,4.649,7.682,4.968,7.691c0.317,0.011,0.274,0.696,0.274,0.696s-0.243,2.063-0.254,2.217
		c-0.01,0.154,0.091,0.114,0.091,0.114s0.771-1.588,0.833-1.7C5.976,8.904,6.1,8.659,6.411,8.785
		c0.313,0.126,0.003,0.816,0.003,0.816S5.845,10.944,5.793,11.075z M19.877,9.998c-0.264-0.182-0.429,0.021-0.511,0.112
		c-0.081,0.093-1.119,1.409-1.119,1.409s-0.102,0.017-0.061-0.124c0.042-0.142,0.688-2.005,0.688-2.005s0.18-0.628-0.112-0.702
		c-0.292-0.075-0.403,0.133-0.478,0.326c-0.072,0.192-0.787,2.012-0.787,2.012s-0.174,0.192-0.159-0.042
		c0.014-0.235,0.175-2.256,0.175-2.256s0.096-0.599-0.322-0.604s-0.409,0.387-0.409,0.387l-0.194,2.344c0,0-0.189,0.244-0.238,0.013
		c-0.05-0.232-0.528-2.123-0.528-2.123s-0.098-0.293-0.415-0.206c-0.317,0.088-0.235,0.44-0.235,0.44l0.389,2.074
		c0,0,0.036,0.176,0.02,0.347c-0.012,0.126-0.081,0.376-0.116,0.502c1.541,0.193,1.366,1.334,1.366,1.334
		c-0.016-0.048-0.031-0.094-0.048-0.139c-0.194-0.853-1.013-1.118-1.321-1.188c-0.012,0.042-0.021,0.068-0.021,0.068l-0.083,0.15
		c-0.006-0.001-0.01-0.001-0.017-0.001c0,0,0.007,0,0.017,0.001l-0.019,0.036c-0.045-0.004-0.07-0.003-0.07-0.003
		c-0.576-1.165-1.556-1.188-1.556-1.188s-0.37,0.073-0.288,0.335c0.084,0.264,0.174,0.091,0.598,0.587
		c0.425,0.496,0.542,0.961,0.598,1.131c0.057,0.169,0.315,0.686,0.62,0.914c0.304,0.23,0.455,0.354,0.455,0.354l-0.586,4.589
		c0.874-0.412,1.685-0.927,2.419-1.529l0.172-2.753c0,0,0.628-0.283,0.93-1.508l0.135-0.913c0,0-0.002-0.073,0.074-0.184
		c0.073-0.111,0.876-1.241,0.876-1.241S20.142,10.179,19.877,9.998z M15.575,2.745c-0.479-0.263-0.728,0.109-0.852,0.279
		c-0.125,0.17-1.674,2.587-1.674,2.587s-0.171,0.046-0.124-0.201c0.047-0.248,0.837-3.532,0.837-3.532s0.201-1.1-0.311-1.178
		c-0.51-0.077-0.665,0.295-0.759,0.635c-0.093,0.341-1.006,3.563-1.006,3.563s-0.264,0.356-0.279-0.047
		c-0.015-0.402-0.077-3.873-0.077-3.873s0.063-1.038-0.65-0.976c-0.714,0.062-0.636,0.729-0.636,0.729l0.062,4.027
		c0,0-0.279,0.449-0.403,0.063C9.58,4.434,8.449,1.289,8.449,1.289S8.232,0.809,7.705,1.01C7.179,1.212,7.38,1.8,7.38,1.8
		l1.007,3.471c0,0,0.093,0.294,0.093,0.588c0,0.295-0.14,1.008-0.14,1.008L8.326,6.897c2.745,0.032,2.632,2.051,2.632,2.051
		c-0.032-0.077-0.065-0.15-0.1-0.223c-0.5-1.507-2.079-1.775-2.534-1.822L8.224,7.135c-0.009,0-0.019,0-0.027,0
		c0,0,0.009,0,0.027,0.001L8.196,7.199C8.121,7.202,8.077,7.207,8.077,7.207C6.9,5.316,5.227,5.44,5.227,5.44
		s-0.619,0.186-0.432,0.62C4.98,6.494,5.104,6.185,5.91,6.959c0.805,0.774,1.084,1.55,1.208,1.827
		c0.125,0.28,0.651,1.116,1.208,1.456c0.558,0.342,0.837,0.527,0.837,0.527l-0.267,9.174C9.28,19.98,9.67,20,10.063,20
		c0.994,0,1.959-0.122,2.879-0.35l-0.31-8.694c0,0,1.022-0.589,1.332-2.727l0.077-1.58c0,0-0.015-0.124,0.093-0.326
		c0.109-0.2,1.286-2.261,1.286-2.261S16.056,3.009,15.575,2.745z"/>
</g>
</svg>
