<?xml version="1.0" encoding="utf-8"?>
<!-- Generator: Adobe Illustrator 16.0.3, SVG Export Plug-In . SVG Version: 6.00 Build 0)  -->
<!DOCTYPE svg PUBLIC "-//W3C//DTD SVG 1.1//EN" "http://www.w3.org/Graphics/SVG/1.1/DTD/svg11.dtd">
<svg version="1.1" xmlns="http://www.w3.org/2000/svg" xmlns:xlink="http://www.w3.org/1999/xlink" x="0px" y="0px" width="20px"
	 height="20px" viewBox="0 0 20 20" enable-background="new 0 0 20 20" xml:space="preserve">
<g id="Ebene_1">
</g>
<g id="Ebene_4">
	<g>
		<g>
			<polygon fill="#333333" points="0,14.197 -3.012,10.24 -5.107,10.237 -6.006,11.461 -6.26,9.206 -9.872,9.95 -10.245,14.467 
				-9.463,14.468 -8.96,19.155 -8.154,19.174 -8.137,14.468 -7.797,14.468 -7.803,19.155 -7.063,19.155 -6.495,14.468 
				-5.672,14.462 -5.869,12.721 -5.317,12.216 -5.696,19.194 -4.873,19.194 -3.98,14.778 -2.809,19.223 -2.119,19.223 
				-2.638,12.165 -0.439,14.566 			"/>
		</g>
	</g>
	<g>
		<path fill="#333333" d="M20,2.686h-3.263c-0.219-1.074-1.17-1.882-2.305-1.882c-1.136,0-2.089,0.808-2.306,1.882H0v0.94h12.127
			c0.217,1.072,1.17,1.883,2.306,1.883c1.135,0,2.086-0.812,2.305-1.883H20V2.686z M14.433,4.569c-0.78,0-1.41-0.634-1.41-1.413
			c0-0.78,0.63-1.41,1.41-1.41c0.778,0,1.41,0.63,1.41,1.41C15.843,3.935,15.211,4.569,14.433,4.569z"/>
		<path fill="#333333" d="M20,9.529H7.325C7.107,8.457,6.155,7.646,5.02,7.646c-1.134,0-2.087,0.81-2.305,1.882H0v0.94h2.715
			c0.218,1.074,1.171,1.883,2.305,1.883c1.136,0,2.088-0.809,2.306-1.883H20V9.529z M5.02,11.41c-0.78,0-1.41-0.631-1.41-1.411
			c0-0.777,0.63-1.413,1.41-1.413c0.778,0,1.411,0.635,1.411,1.413C6.431,10.779,5.798,11.41,5.02,11.41z"/>
		<path fill="#333333" d="M20,16.374h-6.088c-0.219-1.072-1.171-1.883-2.306-1.883s-2.088,0.812-2.305,1.883H0v0.939h9.302
			c0.217,1.074,1.17,1.883,2.305,1.883s2.087-0.809,2.306-1.883H20V16.374z M11.606,18.253c-0.779,0-1.41-0.63-1.41-1.41
			c0-0.778,0.631-1.413,1.41-1.413s1.416,0.634,1.416,1.413C13.022,17.624,12.386,18.253,11.606,18.253z"/>
	</g>
</g>
</svg>
