<?xml version="1.0" encoding="utf-8"?>
<!-- Generator: Adobe Illustrator 16.0.3, SVG Export Plug-In . SVG Version: 6.00 Build 0)  -->
<!DOCTYPE svg PUBLIC "-//W3C//DTD SVG 1.1//EN" "http://www.w3.org/Graphics/SVG/1.1/DTD/svg11.dtd">
<svg version="1.1" id="Ebene_1" xmlns="http://www.w3.org/2000/svg" xmlns:xlink="http://www.w3.org/1999/xlink" x="0px" y="0px"
	 width="20px" height="20px" viewBox="0 0 20 20" enable-background="new 0 0 20 20" xml:space="preserve">
<g id="Neues_Symbol_11">
</g>
<g id="Neues_Symbol_5">
</g>
<g id="layer1_1_" transform="translate(0,-1028.3622)">
	<g id="grocery-24_1_" transform="translate(-318,-165.99998)">
		<g id="g8119_1_" transform="translate(317,1217.3623)">
			<path id="path8100_1_" connector-curvature="0" opacity="0.3" fill="#333333" enable-background="new    " d="
				M19.822-22.413c-0.685,0-1.296,0.193-1.726,0.626c-0.434,0.434-0.626,1.042-0.626,1.728H1L3.354-9.471h14.117v1.175H4.529
				c-1.176,0-1.176,1.178,0,1.178h1.765h9.412h1.765c0.588,0,1.176-0.588,1.176-1.178v-1.175v-9.411v-1.178
				c0,0,0.104-0.763,0.257-0.919c0.158-0.153,0.433-0.257,0.919-0.257c0.133,0,0.346,0,0.474,0c0.588,0,0.704-0.291,0.704-0.588
				c0-0.293-0.116-0.59-0.704-0.59C20.141-22.413,19.982-22.413,19.822-22.413z M15.706-7.118c-0.974,0-1.766,0.793-1.766,1.766
				c0,0.974,0.792,1.766,1.766,1.766c0.973,0,1.765-0.792,1.765-1.766C17.471-6.325,16.679-7.118,15.706-7.118z M6.294-7.118
				c-0.975,0-1.765,0.793-1.765,1.766c0,0.974,0.79,1.766,1.765,1.766c0.974,0,1.766-0.792,1.766-1.766
				C8.06-6.325,7.268-7.118,6.294-7.118z"/>
			<path id="rect7842_1_" connector-curvature="0" fill="#333333" d="M19.822-22.413c-0.685,0-1.296,0.193-1.726,0.626
				c-0.434,0.434-0.626,1.042-0.626,1.728H1L3.354-9.471h14.117v1.175H4.529c-1.176,0-1.176,1.178,0,1.178h1.765h9.412h1.765
				c0.588,0,1.176-0.588,1.176-1.178v-1.175v-9.411v-1.178c0,0,0.104-0.763,0.257-0.919c0.158-0.153,0.433-0.257,0.919-0.257
				c0.133,0,0.346,0,0.474,0c0.588,0,0.704-0.291,0.704-0.588c0-0.293-0.116-0.59-0.704-0.59
				C20.141-22.413,19.982-22.413,19.822-22.413z M15.706-7.118c-0.974,0-1.766,0.793-1.766,1.766c0,0.974,0.792,1.766,1.766,1.766
				c0.973,0,1.765-0.792,1.765-1.766C17.471-6.325,16.679-7.118,15.706-7.118z M6.294-7.118c-0.975,0-1.765,0.793-1.765,1.766
				c0,0.974,0.79,1.766,1.765,1.766c0.974,0,1.766-0.792,1.766-1.766C8.06-6.325,7.268-7.118,6.294-7.118z"/>
		</g>
	</g>
</g>
<g transform="matrix(1.3333333,0,0,-1.3333333,0,66.586667)">
	<g transform="scale(0.1)">
		<path fill="#333333" d="M295.759,409.58l2.289,2.292v-2.292H295.759z M298.048,377.983H151.955v29.663H298.07L298.048,377.983
			L298.048,377.983z M154.2,439.265l-2.314-2.285v2.285H154.2z M298.048,435.134v-3.179l-22.354-22.375h-3.201L298.048,435.134z
			 M298.048,438.997V435.8l-26.221-26.221h-3.201L298.048,438.997z M294.422,439.265h3.179l-29.663-29.685h-3.175L294.422,439.265z
			 M290.559,439.265h3.175l-29.663-29.685h-3.179L290.559,439.265z M286.669,439.265h3.201l-29.688-29.685h-3.171L286.669,439.265z
			 M282.806,439.265h3.171l-29.66-29.685h-3.175L282.806,439.265z M278.935,439.265h3.183l-29.689-29.685h-3.175L278.935,439.265z
			 M275.046,439.265h3.179l-29.659-29.685h-3.179L275.046,439.265z M271.183,439.265h3.179l-29.685-29.685h-3.179L271.183,439.265z
			 M267.293,439.265h3.179l-29.685-29.685h-3.179L267.293,439.265z M263.426,439.265h3.179l-29.707-29.685h-3.175L263.426,439.265z
			 M259.537,439.265h3.179l-29.682-29.685h-3.201L259.537,439.265z M255.651,439.265h3.175l-29.685-29.685h-3.171L255.651,439.265z
			 M251.81,439.265h3.179l-29.707-29.685h-3.201L251.81,439.265z M247.921,439.265h3.201l-29.711-29.685h-3.201L247.921,439.265z
			 M244.01,439.265h3.201l-29.689-29.685h-3.197L244.01,439.265z M240.121,439.265h3.197l-29.659-29.685h-3.201L240.121,439.265z
			 M236.257,439.265h3.197l-29.685-29.685h-3.201L236.257,439.265z M232.386,439.265h3.201l-29.685-29.685h-3.201L232.386,439.265z
			 M228.497,439.265h3.201l-29.685-29.685h-3.197L228.497,439.265z M224.633,439.265h3.197l-29.685-29.685h-3.193L224.633,439.265z
			 M220.744,439.265h3.201l-29.659-29.685h-3.201L220.744,439.265z M216.881,439.265h3.193l-29.678-29.685h-3.205L216.881,439.265z
			 M213.014,439.265h3.201l-29.689-29.685h-3.197L213.014,439.265z M209.125,439.265h3.201L182.64,409.58h-3.201L209.125,439.265z
			 M205.257,439.265h3.201l-29.685-29.685h-3.201L205.257,439.265z M201.368,439.265h3.201l-29.663-29.685h-3.201L201.368,439.265z
			 M197.508,439.265h3.193l-29.685-29.685h-3.175L197.508,439.265z M193.637,439.265h3.201l-29.688-29.685h-3.193L193.637,439.265z
			 M189.748,439.265h3.201l-29.681-29.685h-3.201L189.748,439.265z M185.885,439.265h3.193l-29.682-29.685h-3.201L185.885,439.265z
			 M181.996,439.265h3.201l-29.667-29.685h-3.197L181.996,439.265z M151.886,416.911l22.354,22.354h3.201l-25.554-25.551V416.911z
			 M173.573,439.265L151.886,417.6v3.179l18.468,18.464C170.372,439.265,173.573,439.265,173.573,439.265z M169.684,439.265
			l-17.798-17.798v3.201l14.604,14.597C166.512,439.265,169.684,439.265,169.684,439.265z M165.82,439.265l-13.934-13.909v3.201
			l10.733,10.73C162.619,439.265,165.82,439.265,165.82,439.265z M161.909,439.265l-10.023-10.042v3.197l6.844,6.844H161.909z
			 M151.886,436.291l2.981,2.974h3.175l-6.156-6.156V436.291z M151.886,413.026l26.221,26.217h3.201l-29.421-29.399V413.026z
			 M298.048,428.066l-18.486-18.486h-3.201l21.665,21.665C298.048,431.267,298.048,428.066,298.048,428.066z M298.048,419.625
			v-3.182l-6.848-6.863h-3.175C287.999,409.58,298.048,419.625,298.048,419.625z M298.048,423.51v-3.175l-10.737-10.734h-3.175
			C284.135,409.58,298.048,423.51,298.048,423.51z M298.048,424.199l-14.597-14.597h-3.201l17.798,17.798
			C298.048,427.377,298.048,424.199,298.048,424.199z M291.888,409.58l6.182,6.174v-3.193l-2.981-2.981H291.888z M299.022,472.795
			H150.978c-0.535,0-0.978-0.443-0.978-0.978v-94.834c0-0.531,0.443-0.978,0.978-0.978h148.044c0.535,0,0.978,0.447,0.978,0.978
			v94.834C300,472.37,299.557,472.795,299.022,472.795"/>
	</g>
</g>
</svg>
