<?xml version="1.0" encoding="utf-8"?>
<!-- Generator: Adobe Illustrator 16.0.3, SVG Export Plug-In . SVG Version: 6.00 Build 0)  -->
<!DOCTYPE svg PUBLIC "-//W3C//DTD SVG 1.1//EN" "http://www.w3.org/Graphics/SVG/1.1/DTD/svg11.dtd">
<svg version="1.1" id="Ebene_1" xmlns="http://www.w3.org/2000/svg" xmlns:xlink="http://www.w3.org/1999/xlink" x="0px" y="0px"
	 width="20px" height="20px" viewBox="0 0 20 20" enable-background="new 0 0 20 20" xml:space="preserve">
<g>
	<path fill="#333333" d="M12.504,0v2.308h2.95L13.69,4.071l-1.086-1.085l-1.631,1.631l1.085,1.085l-0.574,0.575V6.276
		c-1.162-0.747-2.546-1.182-4.031-1.182C3.333,5.095,0,8.429,0,12.548S3.333,20,7.453,20c4.119,0,7.452-3.333,7.452-7.452
		c0-1.486-0.434-2.869-1.182-4.031l0,0l0.574-0.575l1.089,1.089l1.631-1.631L15.93,6.311l1.764-1.764v2.949H20V2.308V0H12.504z
		 M7.453,16.833c-2.368,0-4.286-1.917-4.286-4.285c0-2.369,1.918-4.285,4.286-4.285s4.285,1.916,4.285,4.285
		C11.738,14.916,9.821,16.833,7.453,16.833z"/>
</g>
<g>
	<path fill="#F2F2F2" d="M12.522,20v2.308h2.95l-1.764,1.764l-1.086-1.085l-1.631,1.631l1.085,1.085l-0.574,0.575v-0.001
		c-1.162-0.747-2.546-1.182-4.031-1.182c-4.12,0-7.453,3.334-7.453,7.453S3.352,40,7.472,40c4.119,0,7.452-3.333,7.452-7.452
		c0-1.486-0.434-2.869-1.182-4.031l0,0l0.574-0.575l1.089,1.089l1.631-1.631l-1.088-1.089l1.764-1.764v2.949h2.307v-5.188V20H12.522
		z M7.472,36.833c-2.368,0-4.286-1.917-4.286-4.285c0-2.369,1.918-4.285,4.286-4.285s4.285,1.916,4.285,4.285
		C11.757,34.916,9.84,36.833,7.472,36.833z"/>
</g>
</svg>
