<?xml version="1.0" encoding="utf-8"?>
<!-- Generator: Adobe Illustrator 16.0.3, SVG Export Plug-In . SVG Version: 6.00 Build 0)  -->
<!DOCTYPE svg PUBLIC "-//W3C//DTD SVG 1.1//EN" "http://www.w3.org/Graphics/SVG/1.1/DTD/svg11.dtd">
<svg version="1.1" xmlns="http://www.w3.org/2000/svg" xmlns:xlink="http://www.w3.org/1999/xlink" x="0px" y="0px" width="20px"
	 height="20px" viewBox="0 0 20 20" enable-background="new 0 0 20 20" xml:space="preserve">
<g id="Ebene_1">
</g>
<g id="Ebene_4">
	<path fill="#333333" d="M-14.17,11.075c-0.052,0.131-0.033,0.205-0.033,0.205l0.067,0.971c-0.033,1.327-0.615,1.762-0.615,1.762
		l0.822,5.288c-0.935-0.337-1.812-0.788-2.613-1.334l-0.342-3.816c0,0-0.184-0.093-0.549-0.261
		c-0.364-0.168-0.746-0.639-0.844-0.801c-0.096-0.161-0.321-0.612-0.869-1.027c-0.548-0.414-0.601-0.217-0.746-0.468
		c-0.145-0.251,0.22-0.409,0.22-0.409s1.012-0.197,1.867,0.87c0,0,0.025-0.007,0.072-0.014l0.013-0.04
		c-0.011,0.001-0.017,0.001-0.017,0.001c0.005,0,0.011-0.001,0.017-0.001l0.051-0.174c0,0,0.002-0.026,0.005-0.069
		c0.273-0.006,1.266,0.038,1.685,0.926c0.025,0.041,0.053,0.084,0.078,0.13c0,0-0.078-1.243-1.762-1.059
		c0.008-0.135,0.022-0.418,0.007-0.554c-0.021-0.18-0.1-0.352-0.1-0.352l-0.867-2.046c0,0-0.165-0.345,0.143-0.506
		c0.306-0.161,0.474,0.117,0.474,0.117s0.919,1.836,1.022,2.063c0.104,0.227,0.241-0.066,0.241-0.066l-0.331-2.454
		c0,0-0.095-0.401,0.336-0.491c0.431-0.089,0.468,0.549,0.468,0.549s0.29,2.113,0.329,2.358s0.174,0.008,0.174,0.008
		s0.324-2.031,0.355-2.247c0.032-0.215,0.099-0.453,0.417-0.443c0.317,0.011,0.274,0.696,0.274,0.696s-0.243,2.063-0.254,2.217
		c-0.01,0.154,0.091,0.114,0.091,0.114s0.771-1.588,0.833-1.7c0.063-0.114,0.188-0.359,0.499-0.233
		c0.313,0.126,0.003,0.816,0.003,0.816S-14.119,10.944-14.17,11.075z M-0.086,9.998C-0.35,9.816-0.515,10.02-0.597,10.11
		c-0.081,0.093-1.119,1.409-1.119,1.409s-0.102,0.017-0.061-0.124c0.042-0.142,0.688-2.005,0.688-2.005s0.18-0.628-0.112-0.702
		c-0.292-0.075-0.403,0.133-0.478,0.326c-0.072,0.192-0.787,2.012-0.787,2.012s-0.174,0.192-0.159-0.042
		c0.014-0.235,0.175-2.256,0.175-2.256s0.096-0.599-0.322-0.604s-0.409,0.387-0.409,0.387l-0.194,2.344c0,0-0.189,0.244-0.238,0.013
		c-0.05-0.232-0.528-2.123-0.528-2.123s-0.098-0.293-0.415-0.206c-0.317,0.088-0.235,0.44-0.235,0.44l0.389,2.074
		c0,0,0.036,0.176,0.02,0.347c-0.012,0.126-0.081,0.376-0.116,0.502c1.541,0.193,1.366,1.334,1.366,1.334
		c-0.016-0.048-0.031-0.094-0.048-0.139c-0.194-0.853-1.013-1.118-1.321-1.188c-0.012,0.042-0.021,0.068-0.021,0.068l-0.083,0.15
		c-0.006-0.001-0.01-0.001-0.017-0.001c0,0,0.007,0,0.017,0.001l-0.019,0.036c-0.045-0.004-0.07-0.003-0.07-0.003
		c-0.576-1.165-1.556-1.188-1.556-1.188s-0.37,0.073-0.288,0.335c0.084,0.264,0.174,0.091,0.598,0.587
		c0.425,0.496,0.542,0.961,0.598,1.131c0.057,0.169,0.315,0.686,0.62,0.914c0.304,0.23,0.455,0.354,0.455,0.354l-0.586,4.589
		c0.874-0.412,1.685-0.927,2.419-1.529l0.172-2.753c0,0,0.628-0.283,0.93-1.508l0.135-0.913c0,0-0.002-0.073,0.074-0.184
		c0.073-0.111,0.876-1.241,0.876-1.241S0.178,10.179-0.086,9.998z M-4.388,2.745C-4.868,2.482-5.116,2.854-5.24,3.024
		c-0.125,0.17-1.674,2.587-1.674,2.587S-7.084,5.657-7.038,5.41c0.047-0.248,0.837-3.532,0.837-3.532S-6,0.778-6.511,0.7
		c-0.51-0.077-0.665,0.295-0.759,0.635c-0.093,0.341-1.006,3.563-1.006,3.563S-8.54,5.255-8.555,4.852
		C-8.57,4.449-8.632,0.979-8.632,0.979s0.063-1.038-0.65-0.976c-0.714,0.062-0.636,0.729-0.636,0.729l0.062,4.027
		c0,0-0.279,0.449-0.403,0.063c-0.123-0.388-1.254-3.532-1.254-3.532s-0.217-0.48-0.744-0.279c-0.526,0.202-0.325,0.79-0.325,0.79
		l1.007,3.471c0,0,0.093,0.294,0.093,0.588c0,0.295-0.14,1.008-0.14,1.008l-0.014,0.031c2.745,0.032,2.632,2.051,2.632,2.051
		c-0.032-0.077-0.065-0.15-0.1-0.223c-0.5-1.507-2.079-1.775-2.534-1.822l-0.101,0.231c-0.009,0-0.019,0-0.027,0
		c0,0,0.009,0,0.027,0.001l-0.027,0.063c-0.075,0.003-0.119,0.008-0.119,0.008c-1.177-1.891-2.851-1.767-2.851-1.767
		s-0.619,0.186-0.432,0.62c0.186,0.434,0.31,0.124,1.115,0.898c0.805,0.774,1.084,1.55,1.208,1.827
		c0.125,0.28,0.651,1.116,1.208,1.456c0.558,0.342,0.837,0.527,0.837,0.527l-0.267,9.174C-10.683,19.98-10.293,20-9.9,20
		c0.994,0,1.959-0.122,2.879-0.35l-0.31-8.694c0,0,1.022-0.589,1.332-2.727l0.077-1.58c0,0-0.015-0.124,0.093-0.326
		c0.109-0.2,1.286-2.261,1.286-2.261S-3.908,3.009-4.388,2.745z"/>
	<path fill="#F2F2F2" d="M-14.17,31.075c-0.052,0.131-0.033,0.205-0.033,0.205l0.067,0.971c-0.033,1.327-0.615,1.762-0.615,1.762
		l0.822,5.288c-0.935-0.337-1.812-0.788-2.613-1.334l-0.342-3.816c0,0-0.184-0.093-0.549-0.261
		c-0.364-0.168-0.746-0.639-0.844-0.801c-0.096-0.161-0.321-0.612-0.869-1.027c-0.548-0.414-0.601-0.217-0.746-0.468
		c-0.145-0.251,0.22-0.409,0.22-0.409s1.012-0.197,1.867,0.87c0,0,0.025-0.007,0.072-0.014l0.013-0.04
		c-0.011,0.001-0.017,0.001-0.017,0.001c0.005,0,0.011-0.001,0.017-0.001l0.051-0.174c0,0,0.002-0.026,0.005-0.069
		c0.273-0.006,1.266,0.038,1.685,0.926c0.025,0.041,0.053,0.084,0.078,0.13c0,0-0.078-1.243-1.762-1.059
		c0.008-0.135,0.022-0.418,0.007-0.554c-0.021-0.18-0.1-0.352-0.1-0.352l-0.867-2.046c0,0-0.165-0.345,0.143-0.506
		c0.306-0.161,0.474,0.117,0.474,0.117s0.919,1.836,1.022,2.063c0.104,0.227,0.241-0.066,0.241-0.066l-0.331-2.454
		c0,0-0.095-0.401,0.336-0.491c0.431-0.089,0.468,0.549,0.468,0.549s0.29,2.113,0.329,2.358s0.174,0.008,0.174,0.008
		s0.324-2.031,0.355-2.247c0.032-0.215,0.099-0.453,0.417-0.443c0.317,0.011,0.274,0.696,0.274,0.696s-0.243,2.063-0.254,2.217
		c-0.01,0.154,0.091,0.114,0.091,0.114s0.771-1.588,0.833-1.7c0.063-0.114,0.188-0.359,0.499-0.233
		c0.313,0.126,0.003,0.816,0.003,0.816S-14.119,30.944-14.17,31.075z M-0.086,29.998c-0.264-0.182-0.429,0.021-0.511,0.112
		c-0.081,0.093-1.119,1.409-1.119,1.409s-0.102,0.017-0.061-0.124c0.042-0.142,0.688-2.005,0.688-2.005s0.18-0.628-0.112-0.702
		c-0.292-0.075-0.403,0.133-0.478,0.326c-0.072,0.192-0.787,2.012-0.787,2.012s-0.174,0.192-0.159-0.042
		c0.014-0.235,0.175-2.256,0.175-2.256s0.096-0.599-0.322-0.604s-0.409,0.387-0.409,0.387l-0.194,2.344c0,0-0.189,0.244-0.238,0.013
		c-0.05-0.232-0.528-2.123-0.528-2.123s-0.098-0.293-0.415-0.206c-0.317,0.088-0.235,0.44-0.235,0.44l0.389,2.074
		c0,0,0.036,0.176,0.02,0.347c-0.012,0.126-0.081,0.376-0.116,0.502c1.541,0.193,1.366,1.334,1.366,1.334
		c-0.016-0.048-0.031-0.094-0.048-0.139c-0.194-0.853-1.013-1.118-1.321-1.188c-0.012,0.042-0.021,0.068-0.021,0.068l-0.083,0.15
		c-0.006-0.001-0.01-0.001-0.017-0.001c0,0,0.007,0,0.017,0.001l-0.019,0.036c-0.045-0.004-0.07-0.003-0.07-0.003
		c-0.576-1.165-1.556-1.188-1.556-1.188s-0.37,0.073-0.288,0.335c0.084,0.264,0.174,0.091,0.598,0.587
		c0.425,0.496,0.542,0.961,0.598,1.131c0.057,0.169,0.315,0.686,0.62,0.914c0.304,0.23,0.455,0.354,0.455,0.354l-0.586,4.589
		c0.874-0.412,1.685-0.927,2.419-1.529l0.172-2.753c0,0,0.628-0.283,0.93-1.508l0.135-0.913c0,0-0.002-0.073,0.074-0.184
		c0.073-0.111,0.876-1.241,0.876-1.241S0.178,30.179-0.086,29.998z M-4.388,22.745c-0.479-0.263-0.728,0.109-0.852,0.279
		c-0.125,0.17-1.674,2.587-1.674,2.587s-0.171,0.046-0.124-0.201c0.047-0.248,0.837-3.532,0.837-3.532S-6,20.778-6.511,20.7
		c-0.51-0.077-0.665,0.295-0.759,0.635c-0.093,0.341-1.006,3.563-1.006,3.563s-0.264,0.356-0.279-0.047
		c-0.015-0.402-0.077-3.873-0.077-3.873s0.063-1.038-0.65-0.976c-0.714,0.062-0.636,0.729-0.636,0.729l0.062,4.027
		c0,0-0.279,0.449-0.403,0.063c-0.123-0.388-1.254-3.532-1.254-3.532s-0.217-0.48-0.744-0.279c-0.526,0.202-0.325,0.79-0.325,0.79
		l1.007,3.471c0,0,0.093,0.294,0.093,0.588c0,0.295-0.14,1.008-0.14,1.008l-0.014,0.031c2.745,0.032,2.632,2.051,2.632,2.051
		c-0.032-0.077-0.065-0.15-0.1-0.223c-0.5-1.507-2.079-1.775-2.534-1.822l-0.101,0.231c-0.009,0-0.019,0-0.027,0
		c0,0,0.009,0,0.027,0.001l-0.027,0.063c-0.075,0.003-0.119,0.008-0.119,0.008c-1.177-1.891-2.851-1.767-2.851-1.767
		s-0.619,0.186-0.432,0.62c0.186,0.434,0.31,0.124,1.115,0.898c0.805,0.774,1.084,1.55,1.208,1.827
		c0.125,0.28,0.651,1.116,1.208,1.456c0.558,0.342,0.837,0.527,0.837,0.527l-0.267,9.174C-10.683,39.98-10.293,40-9.9,40
		c0.994,0,1.959-0.122,2.879-0.35l-0.31-8.694c0,0,1.022-0.589,1.332-2.727l0.077-1.58c0,0-0.015-0.124,0.093-0.326
		c0.109-0.2,1.286-2.261,1.286-2.261S-3.908,23.009-4.388,22.745z"/>
	<path fill="#333333" d="M13.986,16.66c1.044-0.171,2.09-1.259,2.084-2.583V4.398c0.006-1.363-1.151-2.619-2.715-2.616H10.01H6.65
		C5.076,1.779,3.924,3.035,3.928,4.398v9.679c-0.004,1.324,1.037,2.412,2.08,2.583L3.778,20h1.825l1.321-1.94H10h3.073L14.4,20
		h1.822L13.986,16.66z M8.233,2.782c0-0.243,0.208-0.443,0.446-0.448H10h1.317c0.241,0.005,0.448,0.206,0.448,0.448v0.76
		c0,0.243-0.196,0.445-0.448,0.445H10h-1.32c-0.25,0-0.446-0.202-0.446-0.445V2.782z M6.585,15.247
		c-0.655-0.003-1.188-0.535-1.188-1.194c0-0.654,0.533-1.188,1.188-1.184c0.663-0.003,1.197,0.53,1.201,1.184
		C7.783,14.712,7.249,15.244,6.585,15.247z M6.739,8.961C5.988,8.955,5.377,8.445,5.377,7.603V5.865
		C5.382,5.14,5.851,4.508,6.739,4.508H10h3.258c0.888,0,1.36,0.631,1.363,1.356v1.738c0.004,0.842-0.61,1.352-1.363,1.358H10H6.739z
		 M12.192,14.053c-0.007-0.654,0.53-1.188,1.188-1.184c0.658-0.003,1.195,0.53,1.199,1.184c-0.004,0.659-0.541,1.19-1.199,1.196
		C12.722,15.244,12.188,14.712,12.192,14.053z"/>
</g>
</svg>
