<?xml version="1.0" encoding="utf-8"?>
<!-- Generator: Adobe Illustrator 16.0.3, SVG Export Plug-In . SVG Version: 6.00 Build 0)  -->
<!DOCTYPE svg PUBLIC "-//W3C//DTD SVG 1.1//EN" "http://www.w3.org/Graphics/SVG/1.1/DTD/svg11.dtd">
<svg version="1.1" id="Ebene_1" xmlns="http://www.w3.org/2000/svg" xmlns:xlink="http://www.w3.org/1999/xlink" x="0px" y="0px"
	 width="20px" height="20px" viewBox="0 0 20 20" enable-background="new 0 0 20 20" xml:space="preserve">
<g>
	<g>
		<path fill="#F2F2F2" d="M9.09,5.368c0.084-0.014,0.171-0.015,0.26-0.002c0.47,0.068,0.794,0.507,0.725,0.979
			C10.006,6.818,9.57,7.146,9.101,7.078C8.803,7.035,8.563,6.841,8.447,6.586C8.166,6.723,7.716,7.285,7.464,6.313
			C7.938,6.935,8.287,5.441,9.09,5.368z"/>
		<circle fill="#F2F2F2" cx="15.907" cy="5.282" r="0.939"/>
		<circle fill="#F2F2F2" cx="2.404" cy="9.648" r="0.684"/>
		<path fill="#F2F2F2" d="M7.619,14.041l-0.394,0.956c-0.052,0.127-0.015,0.273,0.09,0.361l0.044,0.037
			c0.152,0.126,0.382,0.083,0.478-0.091l0.686-1.258L7.619,14.041z"/>
		<path fill="#F2F2F2" d="M9.867,14.052l0.89,1.161c0.061,0.078,0.152,0.123,0.25,0.123h0.108c0.243,0,0.394-0.264,0.271-0.474
			l-0.476-0.806L9.867,14.052z"/>
		<path fill="#F2F2F2" d="M14.594,11.564l-0.055,1.633c-0.003,0.095-0.049,0.184-0.125,0.241l-1.331,0.995
			c-0.167,0.125-0.168,0.374-0.003,0.501l0.173,0.133c0.106,0.082,0.253,0.086,0.365,0.013l2.147-1.418
			c0.088-0.058,0.142-0.156,0.142-0.262v-0.775L14.594,11.564z"/>
		<g>
			<path fill="#F2F2F2" d="M3.397,12.762l-0.41,1.073l0.499,0.486l0.905,1.21c0.056,0.075,0.143,0.121,0.234,0.125l0,0
				c0.231,0.011,0.395-0.223,0.304-0.436l-0.674-1.453L3.397,12.762z"/>
			<path fill="#F2F2F2" d="M19.779,8.934L18.574,8.68c-0.13-0.035-0.242-0.115-0.316-0.227l-0.764-1.145
				c-0.182-0.273-0.478-0.451-0.805-0.484l-1.793-0.185c-0.279-0.029-0.561,0.051-0.783,0.222l-1.401,1.075
				c-0.088,0.068-0.154,0.161-0.188,0.267l-0.378,1.16l-1.049-0.129L10.479,7.99c-0.174-0.26-0.45-0.435-0.759-0.479L8.185,7.413
				C7.891,7.37,7.593,7.448,7.356,7.629L6.08,8.608C5.992,8.676,5.926,8.769,5.892,8.875l-0.637,1.307l-1.702,0.217l-1.617,0.251
				c-0.183,0.028-0.355,0.102-0.502,0.215l-0.966,0.741c-0.088,0.068-0.154,0.161-0.188,0.267l-0.27,0.83
				c-0.033,0.103,0.024,0.212,0.128,0.243h0.001c0.089,0.026,0.184-0.014,0.227-0.096l0.354-0.672
				c0.054-0.104,0.14-0.187,0.244-0.238l0.693-0.34l0.093,1.117l0,0l0.056,1.791l-0.88,0.675c-0.104,0.08-0.132,0.224-0.066,0.337
				l0,0c0.074,0.127,0.24,0.167,0.364,0.087l1.468-0.94c0.04-0.025,0.064-0.07,0.064-0.117v-0.826l0.702-1.935l0.048-0.555
				l2.137-0.711l0.852-1.233c0.054-0.104,0.141-0.189,0.247-0.241l0.985-0.482l0.014,1.572c0,0.132-0.006,0.263-0.021,0.395
				l-0.561,3.077c-0.016,0.085,0.05,0.164,0.136,0.163l3.58,0.015c0.104,0,0.172-0.11,0.123-0.203l-1.131-2.592
				c-0.181-0.363-0.223-0.779-0.116-1.171l0.248-0.907l0.623,0.976c0.073,0.095,0.193,0.141,0.312,0.117l1.578-0.144l0.005,0.001
				l0.002-0.003l0.008-0.001l0.001-0.015l0.635-1.207c0.055-0.103,0.141-0.187,0.246-0.238l1.054-0.517l0.009,2.723
				c0.002,0.33,0.149,0.641,0.405,0.85l2.032,1.66l0.001,1.854c0.001,0.167,0.132,0.305,0.299,0.313l0.315,0.016
				c0.171,0.008,0.317-0.122,0.328-0.292l0.15-2.227c0.023-0.341-0.114-0.673-0.37-0.9l-0.646-0.57
				c-0.307-0.271-0.438-0.689-0.341-1.087l0.463-1.898l0.73,0.952c0.102,0.131,0.255,0.21,0.421,0.215l1.436,0.026
				C19.858,9.522,19.995,9.393,20,9.229l0,0C20.004,9.092,19.912,8.969,19.779,8.934z"/>
		</g>
	</g>
</g>
<g>
	<g>
		<g>
			<path fill="#F2F2F2" d="M28.301,13.38l-5.65-5.653c-0.179-0.178-0.429-0.266-0.687-0.239l-0.061,0.006
				c-0.172,0.03-0.329,0.108-0.454,0.233C21.288,7.887,21.2,8.101,21.2,8.328c0,0.227,0.088,0.439,0.249,0.6v0l2.67,2.67
				c0.095,0.095,0.095,0.247,0,0.342c-0.094,0.094-0.247,0.094-0.341,0l-2.67-2.67l-0.001,0c-0.251-0.251-0.39-0.585-0.39-0.941
				s0.139-0.69,0.39-0.941c0.164-0.164,0.369-0.281,0.591-0.343V3.655c0-0.454-0.396-0.849-0.849-0.849
				c-0.228,0-0.44,0.088-0.601,0.249C20.089,3.215,20,3.429,20,3.655v8.098c0.001,0.227,0.089,0.44,0.25,0.601l4.678,4.678v1.184
				c0,0.234,0.19,0.423,0.423,0.423h3.033c0.233,0,0.423-0.189,0.423-0.423l-0.001-3.648C28.796,14.118,28.617,13.696,28.301,13.38z
				"/>
		</g>
	</g>
</g>
</svg>
