<?xml version="1.0" encoding="utf-8"?>
<!-- Generator: Adobe Illustrator 16.0.3, SVG Export Plug-In . SVG Version: 6.00 Build 0)  -->
<!DOCTYPE svg PUBLIC "-//W3C//DTD SVG 1.1//EN" "http://www.w3.org/Graphics/SVG/1.1/DTD/svg11.dtd">
<svg version="1.1" id="Ebene_1" xmlns="http://www.w3.org/2000/svg" xmlns:xlink="http://www.w3.org/1999/xlink" x="0px" y="0px"
	 width="20px" height="20px" viewBox="0 0 20 20" enable-background="new 0 0 20 20" xml:space="preserve">
<g id="Neues_Symbol_11">
</g>
<g id="WATER_1_">
	<path fill="#F2F2F2" d="M-10,0C-15.515,0-20,4.485-20,10c0,5.515,4.485,10,10,10c5.514,0,10-4.485,10-10C0,4.485-4.486,0-10,0z
		 M-5.653,3.04l-1.162,2.016l-0.501-0.291l1.161-2.014L-5.653,3.04z M-3.041,5.652l0.29,0.502l-2.015,1.162l-0.29-0.502
		L-3.041,5.652z M-4.125,9.708H-1.8v0.582h-2.325V9.708z M-10,18.606c-4.746,0-8.607-3.861-8.607-8.607
		c0-4.648,3.706-8.445,8.316-8.6V10c0,0.102,0.055,0.196,0.141,0.248l7.358,4.446C-4.329,17.047-6.985,18.606-10,18.606z"/>
</g>
<g>
	<path fill="#F2F2F2" d="M0,10c0-1.387,0.938-2.363,2.248-2.363c1.316,0,2.215,0.977,2.215,2.363c0,1.349-0.86,2.363-2.248,2.363
		C0.899,12.363,0,11.349,0,10z"/>
	<path fill="#F2F2F2" d="M7.765,10c0-1.387,0.938-2.363,2.254-2.363c1.311,0,2.209,0.977,2.209,2.363
		c0,1.349-0.86,2.363-2.248,2.363C8.671,12.363,7.765,11.349,7.765,10z"/>
	<path fill="#F2F2F2" d="M15.537,10c0-1.387,0.938-2.363,2.248-2.363C19.101,7.637,20,8.613,20,10c0,1.349-0.861,2.363-2.254,2.363
		C16.436,12.363,15.537,11.349,15.537,10z"/>
</g>
<g>
	<g>
		<path fill="#F2F2F2" d="M38.972,11.028H21.028C20.46,11.028,20,10.568,20,10s0.46-1.028,1.028-1.028h17.943
			C39.54,8.972,40,9.432,40,10S39.54,11.028,38.972,11.028z"/>
	</g>
</g>
<g id="Neues_Symbol_5">
</g>
</svg>
