<?xml version="1.0" encoding="utf-8"?>
<!-- Generator: Adobe Illustrator 21.0.0, SVG Export Plug-In . SVG Version: 6.00 Build 0)  -->
<svg version="1.1" id="Ebene_1" xmlns="http://www.w3.org/2000/svg" xmlns:xlink="http://www.w3.org/1999/xlink" x="0px" y="0px"
	 viewBox="0 0 20 20" enable-background="new 0 0 20 20" xml:space="preserve">
<path fill="#F2F2F2" d="M-13.318,7.686l0.054-0.002L-13.318,7.686z M-8.137,7.599C-8.384,7.585-8.632,7.574-8.88,7.566l-0.255-0.638
	C-9.277,6.57-8.789,6.349-8.613,6.686L-8.137,7.599z M-11.121,7.566c-0.248,0.008-0.495,0.019-0.743,0.033l0.476-0.913
	c0.175-0.336,0.664-0.116,0.521,0.243L-11.121,7.566z M-6.032,17.219l-0.001-0.962c0-1.097,1.287-2.235,2.168-2.713
	c0.856,0.561,2.007,0.324,2.581-0.519c0.488,0.116,0.922,0.434,1.15,0.885c0.037,0.073,0.13,0.296,0.134,0.381
	c0.004,0.091-0.18,0.418-0.235,0.499C-1.241,16.265-4.391,16.969-6.032,17.219z M-18.715,13.021
	c0.572,0.847,1.725,1.086,2.584,0.523c0.882,0.478,2.168,1.616,2.168,2.713l-0.001,0.961c-1.646-0.251-4.665-0.933-5.729-2.346
	c-0.084-0.111-0.313-0.493-0.306-0.63c0.004-0.089,0.092-0.298,0.13-0.375C-19.642,13.422-19.199,13.127-18.715,13.021z
	 M-15.486,11.844c0,0.91-0.741,1.65-1.65,1.65s-1.65-0.741-1.65-1.65c0-0.91,0.741-1.65,1.65-1.65
	C-16.226,10.193-15.486,10.934-15.486,11.844z M-11.685,12.18c0-0.935,0.76-1.694,1.694-1.694c0.935,0,1.694,0.76,1.694,1.694
	c0,0.935-0.76,1.694-1.694,1.694C-10.925,13.874-11.685,13.114-11.685,12.18z M-13.72,17.254l-0.001-1.367
	c0-1.212,1.641-1.835,2.615-2.006c0.664,0.475,1.566,0.475,2.23,0c0.974,0.171,2.615,0.795,2.615,2.006l-0.001,1.366
	C-8.716,17.601-11.266,17.601-13.72,17.254z M-15.222,10.612c0-0.861,0.7-1.562,1.562-1.562s1.562,0.7,1.562,1.562
	s-0.7,1.562-1.562,1.562C-14.522,12.173-15.222,11.473-15.222,10.612z M-15.207,11.958l0.214-0.074
	c0.656,0.724,1.769,0.812,2.528,0.195c0.174,0.077,0.342,0.166,0.504,0.265c0.041,0.492,0.27,0.958,0.633,1.291
	c-0.956,0.197-2.221,0.731-2.583,1.724c-0.401-0.835-1.208-1.567-2.006-2.018C-15.499,13.002-15.239,12.495-15.207,11.958z
	 M-8.02,12.332c0.155-0.095,0.317-0.179,0.484-0.253c0.76,0.616,1.873,0.529,2.528-0.195l0.218,0.075
	c0.029,0.537,0.287,1.045,0.702,1.387c-0.791,0.448-1.588,1.171-1.99,1.996c-0.372-0.982-1.624-1.509-2.577-1.705
	C-8.288,13.3-8.058,12.828-8.02,12.332z M-4.779,10.612c0,0.861-0.7,1.562-1.562,1.562s-1.562-0.7-1.562-1.562
	c0-0.861,0.7-1.562,1.562-1.562S-4.779,9.75-4.779,10.612z M-4.511,11.853c0-0.91,0.741-1.65,1.65-1.65s1.65,0.741,1.65,1.65
	c0,0.91-0.741,1.65-1.65,1.65C-3.771,13.503-4.511,12.764-4.511,11.853z M-11.403,3.888c0-0.773,0.628-1.402,1.402-1.402
	c0.774,0,1.402,0.629,1.402,1.402c0,0.774-0.629,1.402-1.402,1.402C-10.774,5.291-11.403,4.661-11.403,3.888z M-15.229,8.983V8.031
	c0.703-0.155,1.416-0.271,2.132-0.351c0.001-0.26-0.004-0.523,0.001-0.783c0.02-0.951,1.402-1.467,2.163-1.601
	c0.548,0.393,1.298,0.393,1.846,0c0.847,0.15,2.165,0.784,2.165,1.801l0.001,0.585c0.721,0.084,1.44,0.197,2.148,0.353v0.951
	C-7.972,8.391-12.032,8.391-15.229,8.983z"/>
<g>
	<g>
		<path fill="#F2F2F2" d="M19.967,0.258C19.903,0.103,19.752,0.001,19.583,0H5.417C5.249,0,5.099,0.1,5.033,0.254L0.254,5.033
			C0.1,5.099,0,5.249,0,5.417v14.167C0,19.813,0.187,20,0.417,20h14.167c0.167,0,0.318-0.1,0.383-0.254l4.779-4.779
			C19.9,14.901,20,14.751,20,14.583V0.417C19.999,0.362,19.988,0.308,19.967,0.258z M5.833,14.167V5.833h8.333v8.333H5.833z
			 M14.413,5H5.833V0.833h12.746L14.413,5z M5,5H1.467L5,1.467V5z M0.833,5.833H5v8.579l-4.167,4.167V5.833z M5.588,15h8.579v4.167
			H1.421L5.588,15z M15,15h3.533L15,18.533V15z M19.167,14.167H15V5.588l4.167-4.167V14.167z"/>
	</g>
	<g transform="translate(0,-952.36218)">
		<g>
			<path fill="#F2F2F2" d="M4.034,970.144c-0.017,0-0.035,0-0.052-0.001c-0.549-0.013-1.06-0.241-1.44-0.64
				c-0.38-0.399-0.582-0.921-0.568-1.469c0.013-0.548,0.24-1.06,0.64-1.439l7.087-6.747c-0.383-1.481,0.064-3.081,1.176-4.14
				c1.177-1.12,2.922-1.467,4.445-0.884l0.616,0.236l-2.054,1.956c-0.489,0.466-0.508,1.242-0.042,1.731
				c0.465,0.489,1.242,0.507,1.731,0.043l2.054-1.956l0.205,0.627c0.508,1.551,0.076,3.277-1.101,4.397
				c-1.112,1.059-2.731,1.427-4.193,0.971l-7.087,6.747C5.065,969.943,4.563,970.144,4.034,970.144z M13.805,955.378
				c-0.863,0-1.713,0.324-2.353,0.934c-0.945,0.9-1.292,2.287-0.883,3.534l0.082,0.25l-7.461,7.104
				c-0.238,0.226-0.373,0.531-0.381,0.857s0.112,0.636,0.339,0.874c0.226,0.238,0.53,0.373,0.856,0.381
				c0.322,0.005,0.637-0.112,0.874-0.339l7.461-7.103l0.246,0.094c1.226,0.469,2.628,0.191,3.573-0.709
				c0.776-0.738,1.148-1.804,1.031-2.852l-1.041,0.991c-0.822,0.782-2.126,0.75-2.909-0.071c-0.782-0.822-0.75-2.127,0.072-2.909
				l1.041-0.991C14.169,955.392,13.986,955.378,13.805,955.378z"/>
		</g>
	</g>
</g>
</svg>
