<?xml version="1.0" encoding="utf-8"?>
<!-- Generator: Adobe Illustrator 21.0.0, SVG Export Plug-In . SVG Version: 6.00 Build 0)  -->
<svg version="1.1" id="Ebene_1" xmlns="http://www.w3.org/2000/svg" xmlns:xlink="http://www.w3.org/1999/xlink" x="0px" y="0px"
	 viewBox="0 0 20 20.001" enable-background="new 0 0 20 20.001" xml:space="preserve">
<g>
	<path fill="#F2F2F2" d="M4.828,3.504c0,0.985-0.798,1.783-1.783,1.783S1.262,4.489,1.262,3.504S2.06,1.721,3.045,1.721
		S4.828,2.519,4.828,3.504z M0.403,10.764c-0.026,0.191,0.494,2.991,0.46,3.176c-0.034,0.186-0.995,3.412-0.848,3.807
		c0.152,0.406,1.805,0.607,1.998,0.451c0.083-0.067,1.022-4.061,1.157-3.943c0.135,0.118-0.392,3.537-0.108,3.848
		c0.26,0.285,1.996,0.167,2.101,0.019c0.217-0.308,0.019-4.34,0.019-4.508s-1.581-2.769-1.581-2.819
		c0-0.051,0.121-0.626,0.138-0.676s1.911,1,2.131,0.944c0.232-0.059,0.59-1.075,0.59-1.159s-0.54-0.287-0.641-0.388
		s1.94,0.202,2.159-0.051c0.134-0.154-0.152-1.181-0.304-1.4C7.539,7.87,5.278,7.834,5.069,7.697
		C4.837,7.545,4.029,6.044,3.767,5.74c-0.212-0.246-1.98-0.69-2.525,0.073C0.941,6.234,0.519,9.929,0.403,10.764z M8.012,2.285
		c-0.985,0-1.783,0.798-1.783,1.783s0.798,1.783,1.783,1.783s1.783-0.798,1.783-1.783S8.997,2.285,8.012,2.285z M12.317,4.927
		c-0.11,0.26,0.226,0.482,0.357,0.39c1.698-1.42,4.723-1.241,5.633-1.15c0.171,0.017,0.014-0.067,0.033-0.061
		C18.463,4.138,15.058,3.22,12.317,4.927z M13.93,5.652c-0.11,0.26,0.226,0.482,0.357,0.39c1.698-1.42,4.723-1.241,5.633-1.15
		c0.171,0.017,0.014-0.067,0.033-0.061C20.076,4.863,16.671,3.945,13.93,5.652z M14.603,12.806c-0.027-0.17-2.145-2.444-2.436-2.891
		v0c0,0-0.87-0.299-0.939-0.357c-0.043-0.055-0.887-0.984-0.936-1.028c-0.022-0.02,0.046-0.09,0.085-0.057
		c0.047,0.04,0.865,0.939,0.896,0.971c0.034,0.019,0.928,0.377,0.928,0.377L12.2,9.822c0.355-0.01,2.101,0.505,2.223,0.505
		c0.135,0,0.466-1.192,0.323-1.359c-0.161-0.188-2.296-0.949-2.579-1.055c-0.233-0.087-1.522-1.594-1.903-1.974
		C9.707,5.387,7.536,5.911,7.734,7.372c0.108,0.795,1.727,4.607,1.778,4.71c0.051,0.103,2.033,2.396,2.1,2.488
		c0.08,0.11,1.223,3.692,1.443,3.709c0.413,0.031,1.426-0.299,1.779-0.547l-1.74-4.185c-0.033-0.099-0.556-0.907-0.496-0.974
		c0.043-0.047,0.598,0.75,0.657,0.869c0.064,0.129,1.341,3.276,1.727,4.271c0.257-0.008,1.322-0.788,1.37-0.907
		C16.453,16.553,14.637,13.02,14.603,12.806z"/>
</g>
</svg>
