<?xml version="1.0" encoding="utf-8"?>
<!-- Generator: Adobe Illustrator 16.0.3, SVG Export Plug-In . SVG Version: 6.00 Build 0)  -->
<!DOCTYPE svg PUBLIC "-//W3C//DTD SVG 1.1//EN" "http://www.w3.org/Graphics/SVG/1.1/DTD/svg11.dtd">
<svg version="1.1" id="Ebene_1" xmlns="http://www.w3.org/2000/svg" xmlns:xlink="http://www.w3.org/1999/xlink" x="0px" y="0px"
	 width="20px" height="20px" viewBox="0 0 20 20" enable-background="new 0 0 20 20" xml:space="preserve">
<g>
	<path fill="#333333" d="M15.252-13.075c-0.026,0.554-2.356,0.968-5.251,0.968c-2.7,0-4.938-0.417-5.215-0.916L4.748-1.173
		C4.766-0.343,7.114,0,10.01,0s5.122-0.436,5.14-1.032L15.252-13.075z"/>
</g>
<g>
	<path fill="#F2F2F2" d="M15.252,6.925c-0.026,0.554-2.356,0.968-5.251,0.968c-2.7,0-4.938-0.417-5.215-0.916L4.748,18.827
		C4.766,19.657,7.114,20,10.01,20s5.122-0.436,5.14-1.032L15.252,6.925z"/>
	<path fill="#F2F2F2" d="M12.4,4.556C12.4,3.064,9.296,0,9.296,0S8.092,3.064,8.092,4.556c0,1.303,0.723,1.935,1.693,2.074
		c-0.44-0.12-0.771-0.604-0.771-1.582c0-1.143,0.508-3.687,0.508-3.687s1.535,2.544,1.535,3.687c0,0.987-0.182,1.47-0.735,1.584
		V5.259c0-0.063-0.187,0.005-0.279,0.005H9.995c-0.092,0-0.227-0.068-0.227-0.005V6.98c0,0.063,0.135-0.056,0.227-0.056h0.048
		c0.093,0,0.279,0.119,0.279,0.056V6.66C11.152,6.655,12.4,6.042,12.4,4.556z"/>
</g>
</svg>
