<?xml version="1.0" encoding="utf-8"?>
<!-- Generator: Adobe Illustrator 16.0.3, SVG Export Plug-In . SVG Version: 6.00 Build 0)  -->
<!DOCTYPE svg PUBLIC "-//W3C//DTD SVG 1.1//EN" "http://www.w3.org/Graphics/SVG/1.1/DTD/svg11.dtd">
<svg version="1.1" xmlns="http://www.w3.org/2000/svg" xmlns:xlink="http://www.w3.org/1999/xlink" x="0px" y="0px" width="20px"
	 height="20px" viewBox="0 0 20 20" enable-background="new 0 0 20 20" xml:space="preserve">
<g id="Ebene_1">
</g>
<g id="Ebene_4">
	<path fill="#333333" d="M2.173-1.106C2.173-0.493,2.667,0,3.276,0h5.803v-6.903H2.173V-1.106z M10.92,0h5.798
		c0.613,0,1.109-0.493,1.109-1.106v-5.796H10.92V0z M16.718-15.652h-4.371c0.337-0.199,0.651-0.472,0.929-0.804l-0.408-0.331
		l0.408,0.331c0.477-0.595,0.742-1.273,0.747-1.916c0.004-0.477-0.165-0.97-0.566-1.294C13.177-19.901,12.823-20,12.481-20
		c-0.776,0.013-1.539,0.45-2.127,1.166c-0.138,0.167-0.254,0.342-0.354,0.522c-0.1-0.18-0.217-0.356-0.353-0.522
		C9.058-19.55,8.295-19.987,7.515-20c-0.341,0-0.692,0.099-0.975,0.335c-0.401,0.323-0.568,0.815-0.563,1.292
		c0.003,0.646,0.268,1.321,0.747,1.916c0.275,0.332,0.592,0.605,0.925,0.804H3.276c-0.609,0-1.104,0.496-1.104,1.106v5.798h6.906
		v-6.562h1.841v6.562h6.907v-5.798C17.827-15.157,17.331-15.652,16.718-15.652z M9.17-16.437C9.097-16.376,9-16.341,8.851-16.341
		c-0.333,0.011-0.897-0.252-1.316-0.776c-0.353-0.427-0.519-0.913-0.515-1.254c0.002-0.258,0.08-0.404,0.177-0.482
		c0.075-0.062,0.172-0.102,0.318-0.102c0.335-0.007,0.901,0.253,1.319,0.78c0.352,0.426,0.517,0.912,0.516,1.252
		C9.348-16.665,9.27-16.516,9.17-16.437z M11.147-16.341c-0.148,0-0.243-0.035-0.321-0.096c-0.099-0.082-0.175-0.228-0.177-0.49
		c0-0.337,0.163-0.823,0.513-1.25c0.414-0.515,0.961-0.78,1.302-0.78c0.003,0,0.011,0,0.016,0c0.149,0,0.245,0.04,0.319,0.1
		c0.098,0.081,0.178,0.227,0.18,0.484c0.004,0.342-0.162,0.827-0.514,1.254l0,0C12.046-16.593,11.48-16.33,11.147-16.341z"/>
	<path fill="#F2F2F2" d="M2.173,18.894C2.173,19.507,2.667,20,3.276,20h5.803v-6.903H2.173V18.894z M10.92,20h5.798
		c0.613,0,1.109-0.493,1.109-1.106v-5.796H10.92V20z M16.718,4.348h-4.371c0.337-0.199,0.651-0.472,0.929-0.804l-0.408-0.331
		l0.408,0.331c0.477-0.595,0.742-1.273,0.747-1.916c0.004-0.477-0.165-0.97-0.566-1.294C13.177,0.099,12.823,0,12.481,0
		c-0.776,0.013-1.539,0.45-2.127,1.166C10.216,1.332,10.1,1.508,9.999,1.688c-0.1-0.18-0.217-0.356-0.353-0.522
		C9.058,0.45,8.295,0.013,7.515,0C7.174,0,6.823,0.099,6.54,0.335C6.139,0.658,5.972,1.151,5.977,1.628
		C5.98,2.274,6.245,2.949,6.724,3.544c0.275,0.332,0.592,0.605,0.925,0.804H3.276c-0.609,0-1.104,0.496-1.104,1.106v5.798h6.906
		V4.69h1.841v6.562h6.907V5.454C17.827,4.843,17.331,4.348,16.718,4.348z M9.17,3.563C9.097,3.624,9,3.659,8.851,3.659
		C8.518,3.67,7.954,3.407,7.535,2.882C7.183,2.455,7.017,1.97,7.021,1.628c0.002-0.258,0.08-0.404,0.177-0.482
		c0.075-0.062,0.172-0.102,0.318-0.102c0.335-0.007,0.901,0.253,1.319,0.78C9.186,2.25,9.351,2.736,9.351,3.076
		C9.348,3.335,9.27,3.484,9.17,3.563z M11.147,3.659c-0.148,0-0.243-0.035-0.321-0.096c-0.099-0.082-0.175-0.228-0.177-0.49
		c0-0.337,0.163-0.823,0.513-1.25c0.414-0.515,0.961-0.78,1.302-0.78c0.003,0,0.011,0,0.016,0c0.149,0,0.245,0.04,0.319,0.1
		c0.098,0.081,0.178,0.227,0.18,0.484c0.004,0.342-0.162,0.827-0.514,1.254l0,0C12.046,3.407,11.48,3.67,11.147,3.659z"/>
</g>
</svg>
