<?xml version="1.0" encoding="utf-8"?>
<!-- Generator: Adobe Illustrator 16.0.3, SVG Export Plug-In . SVG Version: 6.00 Build 0)  -->
<!DOCTYPE svg PUBLIC "-//W3C//DTD SVG 1.1//EN" "http://www.w3.org/Graphics/SVG/1.1/DTD/svg11.dtd">
<svg version="1.1" id="Ebene_1" xmlns="http://www.w3.org/2000/svg" xmlns:xlink="http://www.w3.org/1999/xlink" x="0px" y="0px"
	 width="20px" height="20px" viewBox="0 0 20 20" enable-background="new 0 0 20 20" xml:space="preserve">
<g>
	<path fill="#333333" d="M-0.035,7.597c-0.059-0.834-0.461-4.574-5.811-4.653c-5.352-0.079-5.408,3.416-5.914,3.678
		c-0.506,0.263-0.469,0.341-0.469,0.341v2.618l-1.443,0.719l-3.105-5.12c0,0,0.072-0.792,0.238-1.342
		c0.066-0.216,0.279-0.193,0.309-0.374c0.031-0.196-0.096-0.343-0.115-0.417c-0.086-0.316-1.568-0.005-2.389,0.465
		C-19,3.664-19.982,4.596-20,5.008c-0.025,0.633,0.777,0.345,0.777,0.345l1.381,0.518l5.725,9.656c0,0-0.496,0.898,0.42,1.279
		c0.906,0.376,2.43,0.216,3.926,0.259c2.193,0.063,4.318-0.049,4.715-0.205c0.662-0.259,0.201-1.467,0.201-1.467
		s-0.107-0.18,1.008-1.697C0.244,10.847,0.021,8.431-0.035,7.597z M-2.865,11.154c-0.037-2.896,0.23-4.296-0.133-4.392
		c-0.557-0.211-5.428,0-5.428,0l-1.535-0.805c0,0-0.268-0.211,0-0.557c0.27-0.345,1.479-1.745,4.719-1.342
		c3.24,0.402,4.277,2.685,4.295,3.854c0.02,1.169-0.402,2.646-0.709,3.241S-2.826,14.05-2.865,11.154z"/>
</g>
<path type="MSShapeGroup" fill="#333333" d="M9.286,14.287c0,1.578-1.919,2.857-4.286,2.857s-4.285-1.279-4.285-2.857
	c0-1.578,1.918-2.857,4.285-2.857c1.098,0,2.099,0.275,2.857,0.728V0.715c0-0.478,0.46-0.821,0.918-0.685l10,2.981
	c0.303,0.09,0.51,0.369,0.51,0.685v13.379h-0.001c0.001,0.022,0.001,0.045,0.001,0.068C19.285,18.721,17.367,20,15,20
	s-4.286-1.279-4.286-2.857c0-1.578,1.919-2.857,4.286-2.857c1.098,0,2.099,0.275,2.857,0.727V4.234l-8.535-2.55L9.286,14.287
	L9.286,14.287z"/>
<path type="MSShapeGroup" fill="#F2F2F2" d="M9.286,34.287c0,1.578-1.919,2.857-4.286,2.857s-4.285-1.279-4.285-2.857
	c0-1.578,1.918-2.857,4.285-2.857c1.098,0,2.099,0.275,2.857,0.728V20.715c0-0.478,0.46-0.821,0.918-0.685l10,2.981
	c0.303,0.09,0.51,0.369,0.51,0.685v13.379h-0.001c0.001,0.022,0.001,0.045,0.001,0.068C19.285,38.721,17.367,40,15,40
	s-4.286-1.279-4.286-2.857c0-1.578,1.919-2.857,4.286-2.857c1.098,0,2.099,0.275,2.857,0.727V24.234l-8.535-2.55L9.286,34.287
	L9.286,34.287z"/>
<g>
	<g>
		<path fill="#333333" d="M22.322,13.064c-0.478-0.021-0.927-0.174-1.314-0.433c-0.728,0.556-1.132,1.484-0.975,2.451
			c0.384,2.365,3.113,3.936,4.413,4.378c0,0-0.365-1.74,0.363-4.364c0.267-0.961-0.222-1.891-0.951-2.448
			c-0.407,0.266-0.893,0.42-1.414,0.42C22.403,13.067,22.363,13.066,22.322,13.064z"/>
	</g>
</g>
</svg>
