<?xml version="1.0" encoding="utf-8"?>
<!-- Generator: Adobe Illustrator 16.0.3, SVG Export Plug-In . SVG Version: 6.00 Build 0)  -->
<!DOCTYPE svg PUBLIC "-//W3C//DTD SVG 1.1//EN" "http://www.w3.org/Graphics/SVG/1.1/DTD/svg11.dtd">
<svg version="1.1" id="Ebene_1" xmlns="http://www.w3.org/2000/svg" xmlns:xlink="http://www.w3.org/1999/xlink" x="0px" y="0px"
	 width="20px" height="20px" viewBox="0 0 20 20" enable-background="new 0 0 20 20" xml:space="preserve">
<g>
	<path fill="#333333" d="M16.492-2.476c-0.743-2.555-2.114-2.644-2.41-2.713c-0.034-0.007-0.068-0.015-0.104-0.022
		c-0.896-0.827-0.285-4.285-0.285-4.285c0-5.271-3.564-4.753-3.564-4.753c-0.043-0.002-0.087-0.004-0.129-0.005
		c-0.043,0.001-0.086,0.003-0.129,0.005c0,0-3.565-0.519-3.565,4.753c0,0,0.612,3.457-0.284,4.285
		c-0.035,0.008-0.07,0.015-0.104,0.022C5.622-5.119,4.249-5.03,3.507-2.476C3.406-2.128,3.441-1.752,3.605-1.442
		c0.608,1.151,3.809,1.505,6.396,1.505c2.586,0,5.787-0.354,6.395-1.505C16.558-1.751,16.593-2.128,16.492-2.476z M12.421-5.385
		c-0.012,0.098-0.055,0.19-0.123,0.278c-0.323,0.414-1.229,1.009-2.299,1.009c-1.068,0-1.976-0.596-2.298-1.009
		C7.633-5.194,7.59-5.287,7.578-5.385C7.595-5.39,7.632-5.403,7.681-5.424c0.02-0.01,0.041-0.021,0.064-0.032
		C7.94-5.559,8.228-5.773,8.228-6.149c0.309,0.307,0.651,0.548,1.019,0.693c0.246,0.098,0.503,0.151,0.767,0.151
		c0.265,0,0.521-0.054,0.768-0.151c0.363-0.145,0.703-0.384,1.009-0.685c0.002,0.001,0.005,0.001,0.007,0.002
		c0.007,0.485,0.493,0.698,0.626,0.746C12.422-5.389,12.422-5.386,12.421-5.385z M12.984-8.978
		c-0.049,0.273-0.156,0.499-0.269,0.596c-0.045,0.038-0.091,0.056-0.136,0.048c-0.023-0.004-0.048-0.016-0.068-0.035
		c-0.25,0.778-0.729,1.554-1.332,2.02c-0.354,0.272-0.748,0.439-1.165,0.439c-0.42,0-0.817-0.169-1.171-0.444
		C8.243-6.82,7.767-7.594,7.518-8.37c-0.021,0.02-0.043,0.032-0.068,0.036C7.398-8.325,7.343-8.351,7.291-8.403
		C7.186-8.509,7.089-8.722,7.044-8.978C6.983-9.313,7.031-9.611,7.149-9.696c0.017-0.012,0.034-0.02,0.053-0.022
		C7.245-9.727,7.289-9.71,7.333-9.675c0,0,0-0.004,0.001-0.01c0.015-0.146,0.21-1.786,1.437-1.673l3.752,1.933l0.303-0.293
		c0.011,0.002,0.022,0.005,0.031,0.01C12.99-9.646,13.048-9.334,12.984-8.978z"/>
</g>
<g>
	<path fill="none" d="M12.857,10.229c-0.01-0.004-0.021-0.007-0.031-0.009l-0.303,0.292L8.771,8.58
		c-1.229-0.113-1.422,1.525-1.438,1.672c0,0.007,0,0.011,0,0.011c-0.045-0.036-0.088-0.053-0.131-0.045
		c-0.02,0.004-0.037,0.011-0.053,0.023c-0.119,0.085-0.166,0.382-0.107,0.718c0.047,0.256,0.143,0.47,0.248,0.575
		c0.053,0.053,0.107,0.077,0.158,0.068c0.025-0.004,0.049-0.016,0.068-0.035c0.25,0.775,0.725,1.55,1.326,2.015
		c0.354,0.275,0.75,0.445,1.172,0.445c0.416,0,0.811-0.168,1.164-0.439c0.604-0.467,1.082-1.242,1.332-2.02
		c0.021,0.019,0.045,0.031,0.068,0.035c0.045,0.007,0.092-0.011,0.137-0.049c0.111-0.097,0.219-0.322,0.268-0.595
		C13.049,10.604,12.99,10.291,12.857,10.229z"/>
	<path fill="none" d="M11.797,13.799c-0.004-0.001-0.006-0.001-0.008-0.002c-0.305,0.301-0.646,0.54-1.008,0.685
		c-0.246,0.098-0.504,0.151-0.768,0.151s-0.521-0.054-0.768-0.151c-0.367-0.146-0.709-0.387-1.018-0.693
		c0,0.376-0.287,0.591-0.482,0.693c-0.023,0.011-0.045,0.022-0.064,0.032c-0.049,0.021-0.088,0.033-0.104,0.039
		c0.012,0.098,0.055,0.19,0.123,0.278C8.023,15.244,8.93,15.84,10,15.84c1.068,0,1.975-0.595,2.297-1.009
		c0.07-0.088,0.113-0.181,0.125-0.278c0,0,0-0.004,0-0.008C12.289,14.497,11.803,14.284,11.797,13.799z"/>
	<path fill="#F2F2F2" d="M16.492,17.462c-0.742-2.555-2.113-2.644-2.41-2.713c-0.033-0.007-0.068-0.015-0.104-0.022
		c-0.896-0.827-0.285-4.285-0.285-4.285c0-5.271-3.564-4.753-3.564-4.753C10.086,5.687,10.043,5.685,10,5.684
		C9.957,5.685,9.914,5.687,9.871,5.688c0,0-3.564-0.519-3.564,4.753c0,0,0.611,3.457-0.285,4.285
		c-0.035,0.008-0.07,0.015-0.104,0.022c-0.295,0.069-1.668,0.158-2.41,2.713c-0.102,0.348-0.066,0.724,0.098,1.033
		C4.215,19.646,7.414,20,10.002,20c2.586,0,5.787-0.354,6.395-1.505C16.559,18.187,16.594,17.81,16.492,17.462z M12.422,14.553
		c-0.012,0.098-0.055,0.19-0.123,0.278c-0.324,0.414-1.23,1.009-2.299,1.009s-1.977-0.596-2.299-1.009
		c-0.068-0.088-0.111-0.181-0.123-0.278c0.018-0.005,0.055-0.019,0.104-0.039c0.02-0.01,0.041-0.021,0.064-0.032
		c0.195-0.103,0.482-0.317,0.482-0.693c0.309,0.307,0.65,0.548,1.018,0.693c0.246,0.098,0.504,0.151,0.768,0.151
		s0.521-0.054,0.768-0.151c0.363-0.145,0.703-0.384,1.008-0.685c0.002,0.001,0.006,0.001,0.008,0.002
		c0.006,0.485,0.492,0.698,0.625,0.746C12.422,14.549,12.422,14.552,12.422,14.553z M12.984,10.96
		c-0.049,0.273-0.156,0.499-0.268,0.596c-0.045,0.038-0.092,0.056-0.137,0.048c-0.023-0.004-0.047-0.016-0.068-0.035
		c-0.25,0.778-0.729,1.554-1.332,2.02c-0.354,0.272-0.748,0.439-1.164,0.439c-0.42,0-0.818-0.169-1.172-0.444
		c-0.6-0.466-1.076-1.239-1.326-2.016c-0.02,0.02-0.043,0.032-0.068,0.036c-0.051,0.009-0.105-0.017-0.158-0.069
		c-0.105-0.105-0.201-0.318-0.246-0.574c-0.061-0.336-0.014-0.634,0.105-0.719c0.016-0.012,0.033-0.02,0.053-0.022
		c0.043-0.008,0.086,0.009,0.131,0.044c0,0,0-0.004,0-0.01C7.35,10.106,7.545,8.467,8.771,8.58l3.752,1.933l0.303-0.293
		c0.01,0.002,0.021,0.005,0.031,0.01C12.99,10.291,13.049,10.604,12.984,10.96z"/>
	<path fill="#F2F2F2" d="M10.408,4.894V4.845c0-0.028-0.021-0.051-0.047-0.051H9.639c-0.027,0-0.047,0.022-0.047,0.051v0.049
		c0,0.028,0.02,0.051,0.047,0.051h0.723C10.387,4.944,10.408,4.921,10.408,4.894z"/>
	<path fill="#F2F2F2" d="M10.408,4.635c0-0.027-0.021-0.051-0.047-0.051H9.639c-0.027,0-0.047,0.023-0.047,0.051v0.049
		c0,0.029,0.02,0.051,0.047,0.051h0.723c0.025,0,0.047-0.022,0.047-0.051V4.635z"/>
	<path fill="#F2F2F2" d="M10,5.151c0.104,0,0.195-0.061,0.238-0.148H9.76C9.805,5.09,9.896,5.151,10,5.151z"/>
	<path fill="#F2F2F2" d="M9.479,4.275c0.033,0.203,0.082,0.25,0.234,0.25c0.064,0,0.172,0,0.287,0c0.113,0,0.221,0,0.285,0
		c0.154,0,0.201-0.048,0.234-0.25c0.041-0.243,0.107-0.523,0.355-0.972c0.082-0.149,0.135-0.32,0.135-0.505
		c0-0.558-0.453-1.01-1.01-1.01c-0.559,0-1.012,0.452-1.012,1.01c0,0.185,0.053,0.354,0.135,0.505
		C9.371,3.75,9.438,4.031,9.479,4.275z"/>
	<path fill="#F2F2F2" d="M10,1.197c0.111,0,0.201-0.09,0.201-0.202V0.201C10.201,0.09,10.111,0,10,0S9.797,0.09,9.797,0.201v0.794
		C9.797,1.106,9.889,1.197,10,1.197z"/>
	<path fill="#F2F2F2" d="M8.521,1.69c0.039,0.039,0.09,0.059,0.143,0.059S8.768,1.729,8.807,1.69c0.078-0.079,0.078-0.207,0-0.286
		L8.246,0.843c-0.078-0.078-0.207-0.078-0.285,0c-0.08,0.079-0.08,0.207,0,0.286L8.521,1.69z"/>
	<path fill="#F2F2F2" d="M11.336,1.749c0.049,0,0.102-0.021,0.143-0.059l0.561-0.562c0.078-0.079,0.078-0.207,0-0.286
		c-0.078-0.078-0.207-0.078-0.285,0l-0.563,0.562c-0.078,0.079-0.078,0.207,0,0.286C11.232,1.729,11.283,1.749,11.336,1.749z"/>
	<path fill="#F2F2F2" d="M11.42,2.76c0,0.111,0.09,0.202,0.203,0.202h0.793c0.113,0,0.203-0.092,0.203-0.202
		c0-0.112-0.09-0.202-0.203-0.202h-0.793C11.51,2.558,11.42,2.648,11.42,2.76z"/>
	<path fill="#F2F2F2" d="M7.582,2.962h0.795c0.111,0,0.201-0.092,0.201-0.202c0-0.112-0.092-0.202-0.201-0.202H7.582
		c-0.111,0-0.203,0.09-0.203,0.202C7.379,2.871,7.471,2.962,7.582,2.962z"/>
</g>
<g>
	<g>
		<g>
			<path fill="#F2F2F2" d="M39.725,15.298l-4.977-7.145c-0.193-0.271-0.736-0.678-1.316-0.678h-6.893
				c-0.543,0-1.104,0.407-1.298,0.678l-4.976,7.145c-0.174,0.252-0.271,0.542-0.271,0.832c0,0.832,0.716,1.646,1.567,1.646
				c0.136,0,0.271-0.02,0.407-0.039l3.176-0.891v2.768h9.699v-2.768l3.175,0.891c0.136,0.02,0.252,0.039,0.388,0.039
				c0.852,0,1.588-0.814,1.588-1.646C39.995,15.84,39.897,15.55,39.725,15.298z M32.68,13.324c-0.556,0.277-1.006,0.757-0.946,1.631
				c0.046,0.673,0.514,1.017,0.946,1.25l-5.379,0.019c0.756-0.336,0.902-0.768,0.976-1.274c0.128-0.887-0.641-1.582-0.976-1.624
				v-3.046h5.379C32.68,10.279,32.698,13.315,32.68,13.324z"/>
		</g>
	</g>
</g>
</svg>
