<?xml version="1.0" encoding="utf-8"?>
<!-- Generator: Adobe Illustrator 16.0.3, SVG Export Plug-In . SVG Version: 6.00 Build 0)  -->
<!DOCTYPE svg PUBLIC "-//W3C//DTD SVG 1.1//EN" "http://www.w3.org/Graphics/SVG/1.1/DTD/svg11.dtd">
<svg version="1.1" xmlns="http://www.w3.org/2000/svg" xmlns:xlink="http://www.w3.org/1999/xlink" x="0px" y="0px" width="20px"
	 height="20px" viewBox="0 0 20 20" enable-background="new 0 0 20 20" xml:space="preserve">
<g id="Ebene_1">
</g>
<g id="Ebene_4">
	<path fill="#333333" d="M-0.006,8.136c-0.023-0.264-0.162-0.374-0.287-0.491s-0.474-0.03-0.621-0.015
		c-0.149,0.015-0.153-0.257-0.153-0.257s0.073-2.606,0.045-2.654c-0.034-0.047-0.381-0.009-0.45,0.03
		c-0.071,0.039-0.041,0.165-0.041,0.165l-8.481-0.117l-8.487,0.117c0,0,0.024-0.125-0.045-0.165c-0.069-0.039-0.419-0.078-0.45-0.03
		c-0.033,0.048,0.041,2.654,0.041,2.654s-0.004,0.272-0.154,0.257c-0.147-0.015-0.495-0.102-0.621,0.015
		c-0.124,0.117-0.262,0.227-0.286,0.491c-0.023,0.266,0.031,0.504,0.102,0.56c0.028,0.024,0.041,0.031,0.047,0.033l0.061,1.57
		c0,0-0.108,0.153-0.056,0.806c0.056,0.653,0.274,4.198,0.274,4.198h0.419l0.095-0.443v-1.377l0.325-0.64v0.601l0.426-0.008
		l0.089-0.089v-1.685h8.218h8.22v1.685l0.091,0.089l0.422,0.008v-0.601l0.326,0.64v1.377l0.08,0.443h0.419
		c0,0,0.219-3.544,0.275-4.198c0.054-0.653-0.057-0.806-0.057-0.806l0.063-1.57C-0.15,8.727-0.137,8.72-0.107,8.696
		C-0.038,8.642,0.019,8.402-0.006,8.136z M-19.313,8.564c-0.015-0.11,0.061-0.312,0.156-0.359c0.093-0.045,0.245,0,0.245,0v0.982
		l-0.331,0.458C-19.244,9.646-19.298,8.672-19.313,8.564z M-18.772,11.801l-0.339,0.493l-0.05-0.634h0.389V11.801L-18.772,11.801z
		 M-17.886,8.954h-0.467V5.965h0.467V8.954z M-16.625,8.954h-0.467V5.965h0.467V8.954z M-15.364,8.954h-0.467V5.965h0.467V8.954z
		 M-14.104,8.954h-0.467V5.965h0.467V8.954z M-12.843,8.954h-0.467V5.965h0.467V8.954z M-11.58,8.954h-0.467V5.965h0.467V8.954z
		 M-10.321,8.954h-0.467V5.965h0.467V8.954z M-9.199,8.954h-0.469V5.965h0.469V8.954z M-7.94,8.954h-0.467V5.965h0.467V8.954z
		 M-6.679,8.954h-0.467V5.965h0.467V8.954z M-5.418,8.954h-0.467V5.965h0.467V8.954z M-4.156,8.954h-0.467V5.965h0.467V8.954z
		 M-2.895,8.954h-0.467V5.965h0.467V8.954z M-1.636,8.954h-0.467V5.965h0.467V8.954z M-0.883,12.294l-0.331-0.493v-0.141h0.374
		L-0.883,12.294z M-0.68,8.564c-0.017,0.108-0.071,1.082-0.071,1.082l-0.324-0.458V8.205c0,0,0.145-0.045,0.238,0
		C-0.743,8.252-0.665,8.454-0.68,8.564z"/>
	<g>
		<g>
			<path fill="#333333" d="M2.574,0.348c0.229,0,0.454,0.084,0.629,0.257L8.77,6.171v0.002c0.201,0.205,0.287,0.484,0.252,0.75
				C8.962,7.208,9.042,7.518,9.26,7.74c0.177,0.172,0.406,0.261,0.636,0.261c0.091,0,0.185-0.014,0.277-0.043
				c0.002,0,0.005,0,0.009,0c0.231,0,0.462,0.086,0.637,0.261c0,0,0.002,0.002,0.004,0.004l0.698,0.695v0.005
				c0.328,0.352,0.319,0.902-0.021,1.245c-0.021,0.023-0.049,0.039-0.071,0.057l0.004,0.007l-0.395,0.395l4.728,4.728l0.879-0.007
				c-0.026,0.06,2.615,3.206,2.615,3.206l-0.432,0.456l0.002,0.005l-0.082,0.078l-0.081,0.086l-0.008-0.007l-0.454,0.436
				c0,0-3.109-2.615-3.205-2.615l0,0l0.006-0.879l-4.727-4.727L9.964,11.7l-0.019-0.013c-0.035,0.054-0.077,0.109-0.122,0.159
				c-0.175,0.175-0.407,0.264-0.634,0.264c-0.223,0-0.44-0.084-0.613-0.243l0,0l-0.7-0.695l0,0c0-0.002-0.002-0.007-0.004-0.007
				c-0.178-0.177-0.262-0.413-0.26-0.645c0.101-0.312,0.026-0.664-0.219-0.909C7.219,9.435,6.99,9.348,6.761,9.348
				c-0.063,0-0.122,0.007-0.186,0.019C6.537,9.374,6.496,9.374,6.452,9.374c-0.226,0-0.455-0.086-0.629-0.259l0,0L0.259,3.551
				C-0.079,3.21-0.085,2.666,0.234,2.315V2.313l1.732-1.732l0.003,0.003C2.14,0.428,2.357,0.348,2.574,0.348"/>
			<path fill="#333333" d="M19.882,3.365c-0.057-0.213-0.231-0.261-0.389-0.106l-1.638,1.636c-0.159,0.157-0.458,0.241-0.672,0.181
				l-1.104-0.297c-0.214-0.055-0.434-0.277-0.493-0.493L15.293,3.19c-0.059-0.218,0.022-0.522,0.18-0.679l1.636-1.636
				c0.156-0.154,0.105-0.332-0.109-0.386c0,0-0.452-0.121-0.906-0.121c-2.163,0-3.909,1.75-3.909,3.908
				c0,0.44,0.069,0.861,0.204,1.253c-0.341,0.643-0.863,1.373-1.495,2.147c0.089,0.057,0.18,0.125,0.26,0.205l0.004,0.007
				l0.698,0.695l0.006,0.009l0.002,0.004c0.385,0.407,0.468,0.977,0.271,1.461c1.024-0.886,1.992-1.613,2.811-2.047
				c0.366,0.114,0.747,0.175,1.149,0.175C18.248,8.186,20,6.437,20,4.276C20,3.819,19.882,3.365,19.882,3.365 M8.248,12.213
				l-0.006-0.005L8.24,12.204l-0.7-0.7v-0.002H7.536c-0.037-0.039-0.071-0.078-0.101-0.116C4.433,14.328,1.3,16.924,1.3,16.924
				l0.004,0.012c-0.018,0.016-0.039,0.03-0.057,0.05c-0.616,0.617-0.625,1.602-0.036,2.233c0.628,0.589,1.617,0.578,2.229-0.036
				c0.021-0.021,0.039-0.038,0.053-0.054h0.01c0,0,2.858-3.449,5.975-6.577c-0.093,0.018-0.192,0.03-0.293,0.03
				C8.834,12.582,8.506,12.452,8.248,12.213 M3.023,18.708c-0.359,0.354-0.936,0.354-1.291,0c-0.355-0.359-0.355-0.936,0-1.292
				c0.355-0.357,0.932-0.357,1.291,0C3.381,17.772,3.381,18.349,3.023,18.708"/>
		</g>
	</g>
</g>
</svg>
