<?xml version="1.0" encoding="utf-8"?>
<!-- Generator: Adobe Illustrator 21.0.0, SVG Export Plug-In . SVG Version: 6.00 Build 0)  -->
<svg version="1.1" xmlns="http://www.w3.org/2000/svg" xmlns:xlink="http://www.w3.org/1999/xlink" x="0px" y="0px"
	 viewBox="0 0 20 20" enable-background="new 0 0 20 20" xml:space="preserve">
<g id="Ebene_1">
</g>
<g id="Ebene_4">
	<path fill="#F2F2F2" d="M11.61,6.212l-1.376,1.311L9.351,6.639c0.703-1.767,0.295-3.736-1.096-5.127
		c-0.875-0.875-2.15-1.376-3.5-1.376c-0.333,0-0.665,0.031-0.984,0.091c-0.23,0.043-0.416,0.21-0.485,0.433
		C3.216,0.882,3.277,1.126,3.442,1.291l2.234,2.234l-0.443,1.72L3.515,5.686L1.232,3.404C1.074,3.246,0.845,3.184,0.629,3.24
		C0.413,3.297,0.243,3.463,0.182,3.678c-0.474,1.672-0.01,3.418,1.24,4.668c0.913,0.914,2.12,1.417,3.397,1.417
		c0.475,0,0.942-0.07,1.393-0.207l0.921,0.921l-3.182,3.031c-0.011,0.01-0.015,0.024-0.024,0.034
		c-0.078,0.05-0.146,0.117-0.193,0.204l-2.859,5.28c-0.117,0.216-0.081,0.483,0.088,0.661c0.106,0.111,0.25,0.172,0.397,0.176
		c0.088,0.002,0.176-0.016,0.259-0.056l5.412-2.6c0.089-0.043,0.16-0.107,0.214-0.182c0.011-0.009,0.025-0.012,0.036-0.023
		l3.267-3.112l5.353,5.353c0.399,0.399,0.932,0.619,1.501,0.619h0c0.574,0,1.112-0.223,1.517-0.628
		c0.835-0.834,0.838-2.188,0.008-3.018l-5.281-5.28l0.134-0.127l6.042-5.755c0.226-0.216,0.235-0.575,0.02-0.801l-2.548-2.675
		c-0.207-0.218-0.584-0.226-0.801-0.02l-3.724,3.547L11.61,6.212z M6.823,8.384C6.703,8.264,6.542,8.2,6.378,8.2
		c-0.08,0-0.159,0.015-0.236,0.046C5.719,8.416,5.274,8.503,4.819,8.503c-0.941,0-1.831-0.372-2.506-1.047
		C1.69,6.833,1.331,6.045,1.269,5.222l1.609,1.609c0.157,0.157,0.387,0.22,0.602,0.165l2.427-0.623
		C6.129,6.316,6.303,6.142,6.36,5.92L6.985,3.49c0.055-0.216-0.007-0.445-0.165-0.602L5.374,1.443
		c0.779,0.117,1.483,0.453,1.991,0.962c1.11,1.11,1.373,2.714,0.672,4.088C7.913,6.735,7.96,7.031,8.153,7.223l1.17,1.17
		L8.047,9.609L6.823,8.384z M6.499,16.182c-0.011,0.011-0.015,0.025-0.026,0.036l-3.769,1.81l1.991-3.677
		c0.012-0.01,0.027-0.013,0.037-0.024l0.011-0.011L6.51,16.17L6.499,16.182z M18.038,17.107c0.339,0.339,0.335,0.894-0.008,1.238
		c-0.167,0.167-0.39,0.259-0.627,0.259h0c-0.232,0-0.449-0.089-0.61-0.251l-5.331-5.331l1.139-1.085l-0.002,0.001l0.139-0.133l0,0
		l-0.138,0.131c0.005,0.001,0.059-0.048,0.141-0.127L18.038,17.107z M16.866,2.77l1.766,1.854l-1.711,1.629L15.145,4.41L16.866,2.77
		z M16.101,7.036l-3.254,3.1l-0.912,0.869l-1.276,1.216l-0.912,0.869l-2.415,2.301l-1.766-1.854l2.37-2.257l0.912-0.869l1.276-1.216
		l0.912-0.869l3.289-3.133L16.101,7.036z"/>
</g>
</svg>
