<?xml version="1.0" encoding="utf-8"?>
<!-- Generator: Adobe Illustrator 16.0.3, SVG Export Plug-In . SVG Version: 6.00 Build 0)  -->
<!DOCTYPE svg PUBLIC "-//W3C//DTD SVG 1.1//EN" "http://www.w3.org/Graphics/SVG/1.1/DTD/svg11.dtd">
<svg version="1.1" id="Ebene_1" xmlns="http://www.w3.org/2000/svg" xmlns:xlink="http://www.w3.org/1999/xlink" x="0px" y="0px"
	 width="20px" height="20px" viewBox="0 0 20 20" enable-background="new 0 0 20 20" xml:space="preserve">
<g>
	<g>
		<path fill="#F2F2F2" d="M-7.49,2.437c-2.906,0.035-5.773,1.035-7.916,2.688l0.125,2.709c0.494,0.111,0.889,0.437,1.008,0.895
			c0.16,0.613-0.23,1.263-0.895,1.563l0.014,0.302l-0.002,0.025c-0.018,0.396-0.135,0.765-0.326,1.082l0.115,0.088
			c0.164,0.126,0.316,0.263,0.455,0.408c0.957-0.899,2.412-0.505,2.203,1.285c-0.922,7.875,6.553,4.43,10.383,0.884
			C2.715,9.696-1.09,2.362-7.49,2.437z M-12.6,7.807c-0.906-0.421-1.338-1.415-0.961-2.222c0.373-0.807,1.41-1.12,2.316-0.7
			c0.904,0.42,1.334,1.415,0.961,2.222C-10.658,7.914-11.697,8.229-12.6,7.807z M-7.691,15.467
			c-1.004,0.434-2.098,0.136-2.443-0.666s0.184-1.805,1.186-2.238s2.096-0.136,2.445,0.667C-6.156,14.032-6.689,15.033-7.691,15.467
			z M-7.436,5.948c-0.672,0-1.217-0.545-1.217-1.218c0-0.672,0.545-1.218,1.217-1.218c0.674,0,1.217,0.546,1.217,1.218
			C-6.219,5.403-6.762,5.948-7.436,5.948z M-2.785,8.15C-3.459,8.417-4.27,7.973-4.588,7.161C-4.91,6.347-4.621,5.472-3.945,5.206
			c0.678-0.268,1.484,0.176,1.805,0.987C-1.818,7.006-2.107,7.88-2.785,8.15z"/>
	</g>
</g>
<g>
	<path fill="#F2F2F2" d="M17.916,10.199c1.893-3.443,0.827-7.665-2.38-9.429c-3.207-1.763-7.342-0.4-9.235,3.043
		c-1.966,3.575-0.77,9.08,1.02,10.763c-0.74,0.12-2.251,0.535-3.024,1.94c-0.192,0.35-0.348,0.679-0.485,0.972
		c-0.543,1.148-0.816,1.726-2.287,1.748c-0.21,0.003-0.378,0.177-0.376,0.387c0.003,0.142,0.082,0.266,0.198,0.329
		c0.057,0.032,0.12,0.049,0.189,0.047c1.945-0.027,2.396-0.981,2.966-2.186c0.139-0.295,0.284-0.601,0.464-0.929
		c0.673-1.223,2.132-1.512,2.638-1.576L7.5,15.625c-0.084,0.267-0.225,0.703-0.31,0.969l-0.246,0.764
		c-0.085,0.267,0.071,0.442,0.347,0.391l0.379-0.073c0.275-0.052,0.725-0.137,1-0.188l0.38-0.072
		c0.272-0.053,0.389-0.295,0.252-0.539l-0.327-0.584c-0.137-0.244-0.36-0.644-0.497-0.888l-0.162-0.291
		C10.706,15.701,15.942,13.789,17.916,10.199"/>
</g>
<g>
	<g>
		<g>
			<path fill="#F2F2F2" d="M20.499,17.053c0,0,0.133,0.538,0.405,0.516c0.274-0.023,0.407-0.352,0.461-0.516
				c0.055-0.164-0.187-9.067-0.187-9.067s0.481-0.417,0.56-0.745c0.074-0.329,0.229-0.603,0.196-1.227
				C21.9,5.39,21.643,2.376,21.552,2.376c-0.071,0,0.003,3.781-0.132,3.824c-0.15,0.046-0.189-3.824-0.28-3.824
				c-0.13,0-0.036,3.764-0.191,3.791c-0.169,0.03-0.076-3.731-0.211-3.731c-0.122,0-0.073,3.737-0.27,3.743
				c-0.11,0.003-0.047-3.724-0.12-3.746c-0.199-0.057-0.415,3.614-0.329,4.063c0.086,0.449,0.253,1.15,0.646,1.402
				C20.818,7.996,20.499,17.053,20.499,17.053z"/>
		</g>
	</g>
</g>
</svg>
