<?xml version="1.0" encoding="utf-8"?>
<!-- Generator: Adobe Illustrator 16.0.3, SVG Export Plug-In . SVG Version: 6.00 Build 0)  -->
<!DOCTYPE svg PUBLIC "-//W3C//DTD SVG 1.1//EN" "http://www.w3.org/Graphics/SVG/1.1/DTD/svg11.dtd">
<svg version="1.1" id="Ebene_1" xmlns="http://www.w3.org/2000/svg" xmlns:xlink="http://www.w3.org/1999/xlink" x="0px" y="0px"
	 width="20px" height="20px" viewBox="0 0 20 20" enable-background="new 0 0 20 20" xml:space="preserve">
<g id="Neues_Symbol_11">
</g>
<g id="Neues_Symbol_5">
</g>
<path id="path7552-2_9_" connector-curvature="0" fill="#333333" d="M9.441,0.555C4.23,0.555,0,4.783,0,10
	s4.23,9.445,9.441,9.445c2.918,0,5.531-1.328,7.262-3.398c-1.131,0.732-2.473,1.172-3.922,1.172c-3.992,0-7.223-3.227-7.223-7.219
	s3.23-7.219,7.223-7.219c1.449,0,2.791,0.439,3.922,1.172C14.973,1.883,12.359,0.555,9.441,0.555z M15,5l-1.109,3.328H10
	l3.332,2.227l-1.664,3.891L15,12.219l3.332,2.227l-1.664-3.891L20,8.328h-3.891L15,5z"/>
</svg>
