<?xml version="1.0" encoding="utf-8"?>
<!-- Generator: Adobe Illustrator 16.0.3, SVG Export Plug-In . SVG Version: 6.00 Build 0)  -->
<!DOCTYPE svg PUBLIC "-//W3C//DTD SVG 1.1//EN" "http://www.w3.org/Graphics/SVG/1.1/DTD/svg11.dtd">
<svg version="1.1" xmlns="http://www.w3.org/2000/svg" xmlns:xlink="http://www.w3.org/1999/xlink" x="0px" y="0px" width="20px"
	 height="20px" viewBox="0 0 20 20" enable-background="new 0 0 20 20" xml:space="preserve">
<g id="Ebene_1">
</g>
<g id="Ebene_4">
	<g id="Слой_1_4_">
		<path fill="#323232" d="M10,20C4.488,20,0,15.511,0,10S4.488,0,10,0c5.511,0,10,4.489,10,10S15.511,20,10,20z M10,0.556
			c-5.2,0-9.444,4.243-9.444,9.444c0,5.2,4.244,9.444,9.444,9.444c5.2,0,9.443-4.244,9.443-9.444C19.443,4.799,15.2,0.556,10,0.556z
			"/>
		
			<rect x="6.788" y="8.713" transform="matrix(-0.6566 -0.7542 0.7542 -0.6566 3.5678 23.2053)" fill="#323232" width="0.555" height="4.156"/>
		<path fill="#323232" d="M1.644,10.755c-0.422-1.999-0.022-4.11,0-4.199L2.2,6.667c0,0.022-0.4,2.089,0,3.978L1.644,10.755z"/>
		<path fill="#323232" d="M8.266,5.223c-0.021,0-1.711-0.8-3.154-1.178l0.132-0.534c1.489,0.401,3.178,1.179,3.244,1.223
			L8.266,5.223z"/>
		<path fill="#323232" d="M11.821,19.556c-0.666-0.756-1.266-2.045-1.266-2.045s1.867-1.2,3.4-2.845c0,0,1.51,0.468,3.111,0.468
			c0,0-0.178,1.466-1.066,2.512"/>
		<path fill="#323232" d="M11.6,19.733c-0.667-0.778-1.268-2.067-1.311-2.111l-0.11-0.222l0.199-0.134
			c0.021-0.022,1.844-1.2,3.333-2.8l0.111-0.134l0.177,0.045c0.023,0,1.49,0.467,3.022,0.467h0.311v0.333
			c0,0.066-0.178,1.556-1.11,2.666l-0.446-0.377c0.578-0.688,0.844-1.6,0.934-2.066c-1.2-0.045-2.289-0.312-2.689-0.423
			c-1.223,1.289-2.601,2.267-3.111,2.622c0.199,0.399,0.644,1.244,1.111,1.778L11.6,19.733z"/>
		<path fill="#323232" d="M8.644,9.423l4.511,1.444c1.51-1.89,2.31-3.733,2.31-3.733c-1.199-1.867-2.799-3.512-2.799-3.512
			c-2.289,0.467-4.245,1.334-4.245,1.334L8.644,9.423z"/>
		<path fill="#323232" d="M13.244,11.178L8.377,9.622L8.111,4.799l0.178-0.065c0.088-0.044,2.023-0.89,4.312-1.356l0.155-0.021
			l0.111,0.111c0.067,0.067,1.645,1.688,2.845,3.556l0.088,0.134l-0.067,0.133c-0.044,0.065-0.845,1.889-2.333,3.776L13.244,11.178z
			 M8.911,9.2l4.134,1.333C14.2,9.045,14.934,7.6,15.132,7.156c-0.977-1.489-2.222-2.845-2.577-3.223
			c-1.778,0.378-3.356,0.999-3.867,1.199L8.911,9.2z"/>
		<path fill="#323232" d="M1.089,13.889c0.178-1.911,0.823-3.199,0.823-3.199s1.177,0.577,3.577,1.444
			c0.244,2.111,1.066,4.11,1.066,4.11s-1.577,0.733-3.2,0.845"/>
		<path fill="#323232" d="M3.378,17.378l-0.044-0.556c1.2-0.066,2.377-0.512,2.866-0.711C5.978,15.533,5.466,14,5.244,12.355
			c-1.689-0.6-2.733-1.066-3.2-1.267c-0.178,0.444-0.556,1.489-0.689,2.845l-0.556-0.045c0.178-1.934,0.823-3.244,0.867-3.311
			L1.8,10.334l0.245,0.133c0.022,0,1.177,0.578,3.555,1.422l0.157,0.066l0.021,0.179c0.245,2.044,1.022,4.021,1.044,4.044
			l0.089,0.244l-0.244,0.09C6.6,16.533,5.044,17.267,3.378,17.378z"/>
		<path fill="#323232" d="M10.532,17.778c-2.11-0.223-4.021-1.245-4.111-1.289L6.688,16c0.023,0,1.889,1.001,3.889,1.222
			L10.532,17.778z"/>
		<path fill="#323232" d="M13.667,14.689c0-0.023-0.178-1.911-0.8-3.734l0.533-0.178c0.645,1.889,0.823,3.778,0.823,3.866
			L13.667,14.689z"/>
		<path fill="#323232" d="M5.756,1.245C5.2,2.489,5.2,3.778,5.2,3.778S3.422,4.845,1.912,6.622L1.133,6L2.91,3.355L5.756,1.245z"/>
		<path fill="#323232" d="M1.755,6.822l-0.8-0.6L0.889,5.845L2.667,3.2l0.067-0.066l2.844-2.111L6,1.356
			C5.466,2.533,5.466,3.756,5.466,3.778L5.333,4.022c-0.022,0-1.755,1.066-3.2,2.777L1.755,6.822z M1.511,5.933l0.378,0.29
			c1.244-1.4,2.621-2.334,3.043-2.601C4.956,3.333,5,2.732,5.2,2.022L3.111,3.556L1.511,5.933z"/>
		<path fill="#323232" d="M14.821,1.555c-0.489-0.111-1.689,0-1.689,0s-0.667-0.954-2.155-1.221l2.377,0.555L14.821,1.555z"/>
		<path fill="#323232" d="M13,1.845L12.91,1.71c0,0-0.511-0.709-1.622-1.021l-0.377-0.089l0.111-0.533
			c0.134,0.021,0.266,0.066,0.399,0.088l2.045,0.467l1.467,0.688l-0.178,0.512c-0.09-0.022-0.244-0.044-0.578-0.044
			c-0.466,0-1,0.044-1,0.044L13,1.845z M13.11,1.111c0.067,0.066,0.111,0.111,0.156,0.155c0.066,0,0.155-0.021,0.244-0.021
			l-0.222-0.111L13.11,1.111z"/>
		
			<rect x="12.621" y="1.535" transform="matrix(-0.9723 -0.2336 0.2336 -0.9723 24.8324 8.1457)" fill="#323232" width="0.556" height="2.133"/>
		<path fill="#323232" d="M19.555,11.8h-0.422c-0.067-2.355-0.778-3.911-0.778-3.911s0.423-1.355,0.334-2.244l0.866,2.645
			l0.177,1.978L19.555,11.8z"/>
		<path fill="#323232" d="M19.555,12.088h-0.422l-0.267-0.266c-0.044-2.266-0.755-3.8-0.755-3.8l-0.022-0.2
			c0-0.021,0.4-1.311,0.333-2.133l0.534-0.111l0.867,2.711L20,10.267v0.044l-0.178,1.534L19.555,12.088z M18.667,7.866
			c0.132,0.334,0.556,1.444,0.71,3.089l0.066-0.688l-0.155-1.934l-0.422-1.311C18.778,7.4,18.711,7.711,18.667,7.866z"/>
		<path fill="#323232" d="M17.244,15.334l-0.377-0.401c1.312-1.244,2-3.199,2-3.222l0.534,0.178
			C19.377,11.978,18.667,14,17.244,15.334z"/>
		<path fill="#323232" d="M18.244,8.133c-0.022,0-1.266-0.577-2.821-0.732l0.067-0.556c1.666,0.178,2.955,0.755,2.999,0.777
			L18.244,8.133z"/>
	</g>
	<g>
		<g>
			<path fill="#323232" d="M-0.025,8.4C0.272,5.73-2.072,3.259-5.26,2.884c-0.275-0.032-0.547-0.048-0.816-0.048
				c-2.841,0-5.223,1.764-5.494,4.205c-0.298,2.67,2.045,5.138,5.234,5.513c0.274,0.033,0.543,0.05,0.81,0.05
				c0.294,0,0.582-0.021,0.864-0.056c1.143,1.24,2.332,1.576,3,1.576c0.427,0,0.639-0.139,0.483-0.262
				c-0.973-0.771-1.18-1.526-1.118-2.118C-1.046,10.997-0.183,9.813-0.025,8.4z M-4.657,10.752l-0.331-0.706
				c0.833-0.21,1.346-0.604,1.346-1.246c0-0.231-0.077-0.778-0.833-1.021C-4.784,8.479-5.253,9.13-5.8,9.6
				c0.029,0.091,0.208,0.409,0.242,0.48l-0.721,0.463c-0.036-0.069-0.213-0.391-0.242-0.476c-0.35,0.196-0.735,0.323-1.128,0.323
				c-0.615,0-1.022-0.393-1.022-1.044c0-0.967,0.744-1.73,1.738-2.136C-6.95,6.909-6.95,6.601-6.95,6.28
				c-0.525,0.014-1.092,0.027-1.372,0.02l-0.044-0.82c0.323,0.009,0.911,0.009,1.431,0.009c0.013-0.302,0.021-0.652,0.034-0.945
				l0.914,0.069C-6.001,4.68-6.024,5.236-6.045,5.459c0.764-0.036,1.722-0.126,2.5-0.293l0.077,0.846
				c-0.77,0.141-1.779,0.21-2.62,0.238c-0.007,0.245-0.014,0.483-0.014,0.715c0.293-0.069,0.722-0.111,1.05-0.091
				c0.029-0.105,0.049-0.21,0.056-0.315l0.863,0.217C-4.154,6.854-4.176,6.93-4.189,7.008C-3.173,7.29-2.725,7.998-2.725,8.78
				C-2.725,9.741-3.344,10.436-4.657,10.752z"/>
		</g>
	</g>
	<g id="Слой_1_1_">
		<path fill="#F2F2F2" d="M10,40C4.488,40,0,35.511,0,30s4.488-10,10-10c5.511,0,10,4.489,10,10S15.511,40,10,40z M10,20.556
			c-5.2,0-9.444,4.243-9.444,9.444c0,5.2,4.244,9.444,9.444,9.444c5.2,0,9.443-4.244,9.443-9.444
			C19.443,24.799,15.2,20.556,10,20.556z"/>
	</g>
</g>
</svg>
