<?xml version="1.0" encoding="utf-8"?>
<!-- Generator: Adobe Illustrator 21.0.0, SVG Export Plug-In . SVG Version: 6.00 Build 0)  -->
<svg version="1.1" id="Ebene_1" xmlns="http://www.w3.org/2000/svg" xmlns:xlink="http://www.w3.org/1999/xlink" x="0px" y="0px"
	 viewBox="0 0 20 20.001" enable-background="new 0 0 20 20.001" xml:space="preserve">
<path fill="#F2F2F2" d="M19.413,17.83h-5.965c2.723-1.549,4.561-4.474,4.561-7.83c0-4.973-4.031-9.004-9.004-9.004S0,5.027,0,10
	c0,4.886,3.893,8.861,8.746,8.997C8.768,19,8.789,19.004,8.811,19.004h10.602c0.324,0,0.587-0.263,0.587-0.587
	C20,18.093,19.737,17.83,19.413,17.83z M13.141,6.11c0.657-0.379,1.497-0.154,1.876,0.503c0.379,0.657,0.154,1.497-0.502,1.876
	c-0.657,0.379-1.497,0.154-1.876-0.502C12.26,7.329,12.485,6.489,13.141,6.11z M12.639,12.183c0.379-0.657,1.219-0.882,1.876-0.503
	c0.657,0.379,0.882,1.219,0.502,1.876c-0.379,0.657-1.219,0.882-1.876,0.503C12.485,13.68,12.26,12.84,12.639,12.183z M9.004,3.141
	c0.759,0,1.374,0.615,1.374,1.374c0,0.758-0.615,1.373-1.374,1.373S7.631,5.273,7.631,4.515C7.631,3.756,8.246,3.141,9.004,3.141z
	 M4.867,14.059c-0.657,0.379-1.497,0.154-1.876-0.502c-0.379-0.657-0.154-1.497,0.503-1.876c0.657-0.379,1.497-0.154,1.876,0.503
	C5.749,12.839,5.524,13.68,4.867,14.059z M5.37,7.986C4.991,8.643,4.15,8.869,3.494,8.489C2.837,8.11,2.612,7.27,2.991,6.613
	C3.37,5.956,4.21,5.731,4.867,6.11C5.524,6.489,5.749,7.329,5.37,7.986z M8.033,9.028c0.536-0.536,1.406-0.536,1.942,0
	c0.537,0.536,0.537,1.406,0,1.942c-0.536,0.536-1.406,0.536-1.942,0C7.497,10.434,7.497,9.565,8.033,9.028z M7.631,15.655
	c0-0.759,0.615-1.374,1.374-1.374s1.374,0.615,1.374,1.374s-0.615,1.374-1.374,1.374S7.631,16.413,7.631,15.655z"/>
</svg>
