<?xml version="1.0" encoding="utf-8"?>
<!-- Generator: Adobe Illustrator 16.0.3, SVG Export Plug-In . SVG Version: 6.00 Build 0)  -->
<!DOCTYPE svg PUBLIC "-//W3C//DTD SVG 1.1//EN" "http://www.w3.org/Graphics/SVG/1.1/DTD/svg11.dtd">
<svg version="1.1" id="Ebene_1" xmlns="http://www.w3.org/2000/svg" xmlns:xlink="http://www.w3.org/1999/xlink" x="0px" y="0px"
	 width="20px" height="20px" viewBox="0 0 20 20" enable-background="new 0 0 20 20" xml:space="preserve">
<g>
	<path fill="#F2F2F2" d="M13.146,3.573c0,1.743-1.413,3.175-3.156,3.175c-1.724,0-3.137-1.433-3.137-3.175S8.268,0.417,9.99,0.417
		C11.733,0.417,13.146,1.831,13.146,3.573z"/>
	<g>
		<g>
			<path fill="#F2F2F2" d="M19.729,15.267l-4.977-7.145c-0.193-0.271-0.736-0.678-1.316-0.678H6.544
				c-0.543,0-1.104,0.407-1.298,0.678l-4.976,7.145C0.097,15.519,0,15.809,0,16.099c0,0.832,0.716,1.646,1.567,1.646
				c0.136,0,0.271-0.02,0.407-0.039l3.176-0.891v2.768h9.699v-2.768l3.175,0.891c0.136,0.02,0.252,0.039,0.388,0.039
				c0.852,0,1.588-0.814,1.588-1.646C20,15.809,19.902,15.519,19.729,15.267z M12.685,13.292c-0.556,0.277-1.006,0.757-0.946,1.631
				c0.046,0.673,0.514,1.017,0.946,1.25l-5.379,0.019c0.756-0.336,0.902-0.768,0.976-1.274c0.128-0.887-0.641-1.582-0.976-1.624
				v-3.046h5.379C12.685,10.248,12.703,13.284,12.685,13.292z"/>
		</g>
	</g>
</g>
</svg>
