<?xml version="1.0" encoding="utf-8"?>
<!-- Generator: Adobe Illustrator 16.0.3, SVG Export Plug-In . SVG Version: 6.00 Build 0)  -->
<!DOCTYPE svg PUBLIC "-//W3C//DTD SVG 1.1//EN" "http://www.w3.org/Graphics/SVG/1.1/DTD/svg11.dtd">
<svg version="1.1" xmlns="http://www.w3.org/2000/svg" xmlns:xlink="http://www.w3.org/1999/xlink" x="0px" y="0px" width="20px"
	 height="20px" viewBox="0 0 20 20" enable-background="new 0 0 20 20" xml:space="preserve">
<g id="Ebene_1">
</g>
<g id="Ebene_4">
	<path fill="#333333" d="M13.949-3.34c1.044-0.171,2.09-1.259,2.084-2.583v-9.679c0.006-1.363-1.151-2.619-2.715-2.616H9.974h-3.36
		c-1.574-0.003-2.726,1.252-2.722,2.616v9.679C3.888-4.599,4.929-3.511,5.972-3.34L3.741,0h1.825l1.321-1.94h3.075h3.073L14.363,0
		h1.822L13.949-3.34z M8.196-17.218c0-0.243,0.208-0.443,0.446-0.448h1.32h1.317c0.241,0.005,0.448,0.206,0.448,0.448v0.76
		c0,0.243-0.196,0.445-0.448,0.445H9.963h-1.32c-0.25,0-0.446-0.202-0.446-0.445V-17.218z M6.549-4.753
		C5.894-4.756,5.361-5.288,5.361-5.947c0-0.654,0.533-1.188,1.188-1.184c0.663-0.003,1.197,0.53,1.201,1.184
		C7.746-5.288,7.212-4.756,6.549-4.753z M6.702-11.039c-0.751-0.007-1.361-0.517-1.361-1.358v-1.738
		c0.005-0.725,0.474-1.356,1.361-1.356h3.261h3.258c0.888,0,1.36,0.631,1.363,1.356v1.738c0.004,0.842-0.61,1.352-1.363,1.358H9.963
		H6.702z M12.155-5.947c-0.007-0.654,0.53-1.188,1.188-1.184c0.658-0.003,1.195,0.53,1.199,1.184
		c-0.004,0.659-0.541,1.19-1.199,1.196C12.686-4.756,12.151-5.288,12.155-5.947z"/>
	<path fill="#F2F2F2" d="M13.986,16.66c1.044-0.171,2.09-1.259,2.084-2.583V4.398c0.006-1.363-1.151-2.619-2.715-2.616H10.01H6.65
		C5.076,1.779,3.924,3.035,3.928,4.398v9.679c-0.004,1.324,1.037,2.412,2.08,2.583L3.778,20h1.825l1.321-1.94H10h3.073L14.4,20
		h1.822L13.986,16.66z M8.233,2.782c0-0.243,0.208-0.443,0.446-0.448H10h1.317c0.241,0.005,0.448,0.206,0.448,0.448v0.76
		c0,0.243-0.196,0.445-0.448,0.445H10h-1.32c-0.25,0-0.446-0.202-0.446-0.445V2.782z M6.585,15.247
		c-0.655-0.003-1.188-0.535-1.188-1.194c0-0.654,0.533-1.188,1.188-1.184c0.663-0.003,1.197,0.53,1.201,1.184
		C7.783,14.712,7.249,15.244,6.585,15.247z M6.739,8.961C5.988,8.955,5.377,8.445,5.377,7.603V5.865
		C5.382,5.14,5.851,4.508,6.739,4.508H10h3.258c0.888,0,1.36,0.631,1.363,1.356v1.738c0.004,0.842-0.61,1.352-1.363,1.358H10H6.739z
		 M12.192,14.053c-0.007-0.654,0.53-1.188,1.188-1.184c0.658-0.003,1.195,0.53,1.199,1.184c-0.004,0.659-0.541,1.19-1.199,1.196
		C12.722,15.244,12.188,14.712,12.192,14.053z"/>
</g>
</svg>
