<?xml version="1.0" encoding="utf-8"?>
<!-- Generator: Adobe Illustrator 16.0.3, SVG Export Plug-In . SVG Version: 6.00 Build 0)  -->
<!DOCTYPE svg PUBLIC "-//W3C//DTD SVG 1.1//EN" "http://www.w3.org/Graphics/SVG/1.1/DTD/svg11.dtd">
<svg version="1.1" xmlns="http://www.w3.org/2000/svg" xmlns:xlink="http://www.w3.org/1999/xlink" x="0px" y="0px" width="20px"
	 height="20px" viewBox="0 0 20 20" enable-background="new 0 0 20 20" xml:space="preserve">
<g id="Ebene_1">
</g>
<g id="Ebene_4">
	<path fill="#F2F2F2" d="M38.537,9.294c-0.347,0-0.668,0.131-0.935,0.319L35.119,7.08c0.455-0.482,0.724-1.12,0.724-1.814
		c0-1.466-1.201-2.665-2.667-2.665c-1.282,0-2.375,0.933-2.614,2.13l-5.868-0.877c0-0.055,0-0.079,0-0.135
		c0-1.014-0.825-1.838-1.84-1.838s-1.839,0.824-1.839,1.838c0,0.932,0.695,1.707,1.599,1.816l-0.296,5.917
		c-1.275,0-2.317,1.042-2.317,2.345c0,1.283,1.042,2.347,2.347,2.347c1.096,0,2.028-0.744,2.269-1.787l8.691,1.628
		c0,0.081-0.026,0.159-0.026,0.239c0,1.042,0.85,1.895,1.893,1.895c1.041,0,1.891-0.853,1.891-1.895c0-0.666-0.345-1.225-0.85-1.572
		l1.732-2.561c0.188,0.08,0.372,0.106,0.59,0.106c0.797,0,1.463-0.665,1.463-1.464C40,9.96,39.364,9.294,38.537,9.294z
		 M33.868,14.945l-2.614-2.211c0.213-0.293,0.349-0.666,0.349-1.067c0-0.025,0-0.025,0-0.056l2.559-0.263l0.556,3.093
		C34.401,14.518,34.083,14.705,33.868,14.945z M37.283,10.04L33.92,8.547L33.788,7.88c0.424-0.108,0.824-0.322,1.146-0.587
		l2.48,2.533C37.363,9.879,37.308,9.96,37.283,10.04z M33.202,7.96c0.106,0,0.239,0,0.344-0.029l0.081,0.507l-1.573-0.718V7.693
		C32.402,7.852,32.774,7.96,33.202,7.96z M31.816,7.559l-0.032,0.026l-0.85-0.372l0.239-0.186
		C31.359,7.238,31.575,7.424,31.816,7.559z M31.681,7.826l-1.15,2.161c-0.209-0.108-0.476-0.161-0.745-0.161
		c-0.397,0-0.797,0.133-1.093,0.372l-0.611-0.718l2.639-2.082L31.681,7.826z M27.896,9.294L24.16,5.027
		c0.137-0.136,0.241-0.27,0.321-0.428l5.948,2.667L27.896,9.294z M23.976,5.214l3.707,4.238l-3.574,2.826
		c-0.372-0.426-0.905-0.718-1.495-0.771l0.292-5.92C23.31,5.559,23.68,5.425,23.976,5.214z M24.267,12.465l3.574-2.825l0.643,0.718
		c-0.323,0.319-0.537,0.775-0.537,1.283c0,0.079,0,0.158,0.028,0.239l-3.439,1.093C24.481,12.813,24.401,12.625,24.267,12.465z
		 M31.575,11.347c-0.078-0.508-0.402-0.961-0.827-1.229L31.92,7.96l1.759,0.797l0.429,2.348L31.575,11.347z M33.974,8.867
		l3.172,1.41c-0.049,0.161-0.081,0.322-0.081,0.483c0,0,0,0,0,0.024l-2.692,0.27L33.974,8.867z M30.531,5.027c0,0.08,0,0.16,0,0.266
		c0,0.587,0.19,1.119,0.51,1.544l-0.349,0.268l-6.104-2.747c0.029-0.078,0.057-0.158,0.057-0.213L30.531,5.027z M24.694,14.119
		c0-0.107,0.028-0.186,0.028-0.292c0-0.188-0.028-0.401-0.078-0.588l3.411-1.067c0.211,0.747,0.907,1.308,1.731,1.308
		c0.508,0,0.962-0.216,1.282-0.534l2.612,2.215c-0.134,0.183-0.239,0.372-0.292,0.611L24.694,14.119z M36.003,14.544
		c-0.241-0.104-0.507-0.186-0.804-0.186c-0.081,0-0.133,0-0.211,0l-0.558-3.066l2.667-0.267c0.081,0.399,0.288,0.721,0.611,0.933
		L36.003,14.544z"/>
	<path id="path7552-2_2_" fill="#F2F2F2" d="M9.441,0.555C4.23,0.555,0,4.783,0,10s4.23,9.445,9.441,9.445
		c2.918,0,5.532-1.328,7.262-3.398c-1.131,0.732-2.473,1.172-3.922,1.172c-3.992,0-7.223-3.227-7.223-7.219s3.23-7.219,7.223-7.219
		c1.449,0,2.791,0.438,3.922,1.172C14.973,1.883,12.359,0.555,9.441,0.555z M15,5l-1.109,3.328H10l3.332,2.227l-1.664,3.891
		L15,12.219l3.332,2.227l-1.664-3.891L20,8.328h-3.891L15,5z"/>
</g>
</svg>
