<?xml version="1.0" encoding="utf-8"?>
<!-- Generator: Adobe Illustrator 16.0.3, SVG Export Plug-In . SVG Version: 6.00 Build 0)  -->
<!DOCTYPE svg PUBLIC "-//W3C//DTD SVG 1.1//EN" "http://www.w3.org/Graphics/SVG/1.1/DTD/svg11.dtd">
<svg version="1.1" id="Ebene_1" xmlns="http://www.w3.org/2000/svg" xmlns:xlink="http://www.w3.org/1999/xlink" x="0px" y="0px"
	 width="20px" height="20px" viewBox="0 0 20 20" enable-background="new 0 0 20 20" xml:space="preserve">
<g>
	<g>
		<g>
			<path fill="#333333" d="M-0.221,8.934L-1.426,8.68c-0.13-0.035-0.242-0.115-0.316-0.227l-0.764-1.145
				c-0.182-0.273-0.478-0.451-0.805-0.484l-1.793-0.185C-5.383,6.61-5.664,6.69-5.887,6.861l-1.401,1.075
				c-0.088,0.068-0.154,0.161-0.188,0.267l-0.378,1.16l-1.049-0.129L-9.521,7.99c-0.174-0.26-0.45-0.435-0.759-0.479l-1.536-0.098
				c-0.294-0.042-0.592,0.036-0.828,0.216l-1.276,0.979c-0.088,0.067-0.154,0.161-0.188,0.267l-0.637,1.307l-1.702,0.217
				l-1.617,0.251c-0.183,0.028-0.355,0.102-0.502,0.215l-0.966,0.741c-0.088,0.068-0.154,0.161-0.188,0.267l-0.27,0.83
				c-0.033,0.103,0.024,0.212,0.128,0.243h0.001c0.089,0.026,0.184-0.014,0.227-0.096l0.354-0.672
				c0.054-0.104,0.14-0.187,0.244-0.238l0.693-0.34l0.093,1.117l0,0l0.056,1.791l-0.88,0.675c-0.104,0.08-0.132,0.224-0.066,0.337
				l0,0c0.074,0.127,0.24,0.167,0.364,0.087l1.468-0.94c0.04-0.025,0.064-0.07,0.064-0.117v-0.826l0.702-1.935l0.048-0.555
				l2.137-0.711l0.852-1.233c0.054-0.104,0.141-0.189,0.247-0.241l0.985-0.482l0.014,1.572c0,0.132-0.006,0.263-0.021,0.395
				l-0.561,3.077c-0.016,0.085,0.05,0.164,0.136,0.163l3.58,0.015c0.104,0,0.172-0.11,0.123-0.203l-1.131-2.592
				c-0.181-0.363-0.223-0.779-0.116-1.171l0.248-0.907l0.623,0.976c0.073,0.095,0.193,0.141,0.312,0.117l1.578-0.144l0.005,0.001
				l0.002-0.003l0.008-0.001l0.001-0.015l0.635-1.207c0.055-0.103,0.141-0.187,0.246-0.238l1.054-0.517l0.009,2.723
				c0.002,0.33,0.149,0.641,0.405,0.85l2.032,1.66l0.001,1.854c0.001,0.167,0.132,0.305,0.299,0.313l0.315,0.016
				c0.171,0.008,0.317-0.122,0.328-0.292l0.15-2.227c0.023-0.341-0.114-0.673-0.37-0.9l-0.646-0.57
				c-0.307-0.271-0.438-0.689-0.341-1.087l0.463-1.898l0.73,0.952c0.102,0.131,0.255,0.21,0.421,0.215l1.436,0.026
				C-0.142,9.522-0.005,9.393,0,9.229l0,0C0.004,9.092-0.088,8.969-0.221,8.934z"/>
		</g>
	</g>
</g>
<g>
	<g>
		<g>
			<path fill="#333333" d="M19.751,3.055c-0.16-0.161-0.373-0.249-0.6-0.249c-0.454,0-0.85,0.395-0.85,0.849v3.388
				c0.222,0.061,0.427,0.179,0.591,0.343c0.251,0.251,0.39,0.585,0.39,0.941s-0.139,0.69-0.39,0.941v0l-2.671,2.67
				c-0.094,0.094-0.246,0.094-0.341,0c-0.094-0.095-0.094-0.247,0-0.342l2.67-2.67v0c0.161-0.16,0.249-0.373,0.249-0.6
				c0-0.227-0.088-0.44-0.249-0.601c-0.125-0.125-0.281-0.203-0.453-0.233l-0.062-0.006c-0.258-0.026-0.508,0.061-0.686,0.239
				l-5.651,5.653c-0.315,0.316-0.495,0.738-0.503,1.188l-0.003,3.648c0,0.234,0.19,0.423,0.424,0.423h3.032
				c0.233,0,0.423-0.189,0.423-0.423v-1.184l4.679-4.678C19.911,12.193,20,11.98,20,11.753V3.655
				C20,3.429,19.912,3.215,19.751,3.055z"/>
			<path fill="#333333" d="M8.301,13.38L2.65,7.727C2.472,7.549,2.222,7.461,1.964,7.488L1.903,7.494
				c-0.172,0.03-0.329,0.108-0.454,0.233C1.288,7.887,1.2,8.101,1.2,8.328c0,0.227,0.088,0.439,0.249,0.6v0l2.67,2.67
				c0.095,0.095,0.095,0.247,0,0.342c-0.094,0.094-0.247,0.094-0.341,0l-2.67-2.67l-0.001,0c-0.251-0.251-0.39-0.585-0.39-0.941
				s0.139-0.69,0.39-0.941c0.164-0.164,0.369-0.281,0.591-0.343V3.655c0-0.454-0.396-0.849-0.849-0.849
				c-0.228,0-0.44,0.088-0.601,0.249C0.089,3.215,0,3.429,0,3.655v8.098c0.001,0.227,0.089,0.44,0.25,0.601l4.678,4.678v1.184
				c0,0.234,0.19,0.423,0.423,0.423h3.033c0.233,0,0.423-0.189,0.423-0.423l-0.001-3.648C8.796,14.118,8.617,13.696,8.301,13.38z"/>
		</g>
		<path fill="#333333" d="M10.479,5.373h0.593c0.03,0.052,0.06,0.104,0.088,0.149c0.286,0.458,0.939,0.452,0.939,0.452
			c0.003,0,0.655,0.006,0.941-0.452c0.028-0.045,0.058-0.097,0.088-0.149h0.602v-1.66h-0.008c0.039-0.55-0.072-1.361-0.304-1.699
			c-0.433-0.631-1.317-0.629-1.318-0.629c0,0-0.885-0.002-1.318,0.629c-0.232,0.337-0.343,1.149-0.303,1.699V5.373L10.479,5.373z"/>
		<path fill="#333333" d="M15.743,7.688c-0.03-0.207-0.086-0.47-0.187-0.747c-0.149-0.41-0.451-0.776-0.855-0.914
			c-0.2-0.068-0.393-0.124-0.57-0.171h-0.401h-0.332c-0.428,0.584-1.205,0.602-1.299,0.602c-0.092,0-0.868-0.017-1.296-0.602h-0.324
			h-0.409C9.891,5.903,9.698,5.959,9.498,6.027C9.094,6.165,8.792,6.531,8.644,6.941c-0.102,0.277-0.156,0.54-0.187,0.747
			C8.451,7.728,8.446,7.765,8.442,7.8c0.007,0.175,0.149,0.313,0.326,0.313H12.1h3.332c0.176,0,0.317-0.139,0.325-0.313
			C15.754,7.765,15.749,7.728,15.743,7.688z"/>
		<path fill="#333333" d="M7.386,5.513c0.287,0.46,0.943,0.455,0.943,0.455c0.003,0,0.657,0.005,0.944-0.455
			c0.282-0.45,0.645-1.265,0.685-1.816c0.039-0.551-0.072-1.366-0.305-1.704C9.219,1.358,8.332,1.361,8.33,1.361
			c0,0-0.888-0.002-1.323,0.632C6.774,2.331,6.663,3.146,6.703,3.697C6.741,4.248,7.104,5.062,7.386,5.513z"/>
		<path fill="#333333" d="M7.979,7.618c0.044-0.294,0.114-0.578,0.21-0.842C8.231,6.661,8.285,6.553,8.343,6.45
			c-0.005,0-0.011,0-0.014,0c-0.095,0-0.938-0.02-1.353-0.682C6.965,5.75,6.952,5.726,6.939,5.706
			C6.625,5.762,6.197,5.857,5.719,6.02C5.313,6.157,5.011,6.525,4.86,6.937C4.76,7.215,4.705,7.479,4.674,7.687
			c-0.006,0.04-0.011,0.077-0.016,0.113c0.008,0.174,0.152,0.314,0.329,0.314h3.041C7.989,8.024,7.965,7.925,7.96,7.822L7.958,7.784
			l0.005-0.038C7.967,7.705,7.973,7.663,7.979,7.618z"/>
	</g>
</g>
<g>
	<rect x="19.999" y="18.306" fill="#333333" width="20" height="0.92"/>
</g>
</svg>
