<?xml version="1.0" encoding="utf-8"?>
<!-- Generator: Adobe Illustrator 16.0.3, SVG Export Plug-In . SVG Version: 6.00 Build 0)  -->
<!DOCTYPE svg PUBLIC "-//W3C//DTD SVG 1.1//EN" "http://www.w3.org/Graphics/SVG/1.1/DTD/svg11.dtd">
<svg version="1.1" id="Ebene_1" xmlns="http://www.w3.org/2000/svg" xmlns:xlink="http://www.w3.org/1999/xlink" x="0px" y="0px"
	 width="20px" height="20px" viewBox="0 0 20 20" enable-background="new 0 0 20 20" xml:space="preserve">
<g>
	<path fill="#F2F2F2" d="M-0.121,10.671l-0.522-1.068C-0.85,9.179-1.019,8.447-1.019,7.977V6.157c0-0.471,0-1.241,0-1.712V2.543
		c0-0.471,0-1.193,0-1.606c0-0.412-0.385-0.75-0.857-0.75h-16.247c-0.471,0-0.856,0.338-0.856,0.75c0,0.413,0,1.136,0,1.606v1.902
		c0,0.471,0,1.241,0,1.712v1.784c0,0.471-0.167,1.203-0.372,1.628l-0.53,1.1c-0.204,0.424,0.015,0.771,0.485,0.771h18.795
		C-0.131,11.439,0.085,11.094-0.121,10.671z M-2.69,8.779h-14.607c0,0,0.133-2.972-0.515-4.358c0,0,2.554-2.217,3.184-3.978
		c0,0,2.502,0.808,4.575,0.609h0.12c2.072,0.198,4.575-0.609,4.575-0.609c0.629,1.761,3.183,3.978,3.183,3.978
		C-2.823,5.808-2.69,8.779-2.69,8.779z M-18.099,13.667v-0.11c0-0.519,0.302-0.942,0.67-0.942h0.769
		c0.369,0,0.672,0.424,0.672,0.942v0.11h-0.026c-0.077-0.397-0.339-0.692-0.646-0.692h-0.769c-0.307,0-0.567,0.295-0.646,0.692
		H-18.099z M-15.751,13.667v-0.11c0-0.519,0.302-0.942,0.671-0.942h0.769c0.369,0,0.671,0.424,0.671,0.942v0.11h-0.025
		c-0.078-0.397-0.339-0.692-0.646-0.692h-0.769c-0.308,0-0.567,0.295-0.646,0.692H-15.751z M-13.403,13.667v-0.11
		c0-0.519,0.303-0.942,0.671-0.942h0.769c0.369,0,0.67,0.424,0.67,0.942v0.11h-0.024c-0.079-0.397-0.338-0.692-0.646-0.692h-0.769
		c-0.308,0-0.567,0.295-0.646,0.692H-13.403z M-11.055,13.667v-0.11c0-0.519,0.301-0.942,0.67-0.942h0.769
		c0.369,0,0.671,0.424,0.671,0.942v0.11h-0.025c-0.078-0.397-0.338-0.692-0.646-0.692h-0.769c-0.308,0-0.568,0.295-0.646,0.692
		H-11.055z M-8.707,13.667v-0.11c0-0.519,0.301-0.942,0.67-0.942h0.769c0.369,0,0.67,0.424,0.67,0.942v0.11h-0.023
		c-0.079-0.397-0.339-0.692-0.646-0.692h-0.769c-0.308,0-0.567,0.295-0.646,0.692H-8.707z M-6.359,13.667v-0.11
		c0-0.519,0.3-0.942,0.669-0.942h0.769c0.369,0,0.672,0.424,0.672,0.942v0.11h-0.025c-0.078-0.397-0.339-0.692-0.646-0.692H-5.69
		c-0.307,0-0.566,0.295-0.646,0.692H-6.359z M-4.013,13.667v-0.11c0-0.519,0.302-0.942,0.671-0.942h0.769
		c0.369,0,0.672,0.424,0.672,0.942v0.11h-0.025c-0.079-0.397-0.339-0.692-0.646-0.692h-0.769c-0.307,0-0.567,0.295-0.646,0.692
		H-4.013z M-18.708,15.756v-0.119c0-0.557,0.325-1.014,0.723-1.014h0.825c0.396,0,0.721,0.457,0.721,1.014v0.119h-0.025
		c-0.085-0.428-0.364-0.745-0.695-0.745h-0.825c-0.331,0-0.611,0.317-0.695,0.745H-18.708z M-16.183,15.756v-0.119
		c0-0.557,0.324-1.014,0.721-1.014h0.825c0.398,0,0.722,0.457,0.722,1.014v0.119h-0.026c-0.084-0.428-0.364-0.745-0.694-0.745
		h-0.826c-0.33,0-0.61,0.317-0.694,0.745H-16.183z M-13.659,15.756v-0.119c0-0.557,0.324-1.014,0.722-1.014h0.826
		c0.396,0,0.721,0.457,0.721,1.014v0.119h-0.025c-0.085-0.428-0.364-0.745-0.695-0.745h-0.826c-0.33,0-0.609,0.317-0.694,0.745
		H-13.659z M-11.135,15.756v-0.119c0-0.557,0.325-1.014,0.721-1.014h0.827c0.396,0,0.722,0.457,0.722,1.014v0.119h-0.027
		c-0.085-0.428-0.364-0.745-0.694-0.745h-0.827c-0.329,0-0.609,0.317-0.693,0.745H-11.135z M-8.611,15.756v-0.119
		c0-0.557,0.325-1.014,0.722-1.014h0.826c0.396,0,0.721,0.457,0.721,1.014v0.119h-0.025c-0.086-0.428-0.365-0.745-0.695-0.745H-7.89
		c-0.33,0-0.609,0.317-0.694,0.745H-8.611z M-6.086,15.756v-0.119c0-0.557,0.324-1.014,0.721-1.014h0.827
		c0.396,0,0.721,0.457,0.721,1.014v0.119h-0.027c-0.084-0.428-0.364-0.745-0.693-0.745h-0.827c-0.329,0-0.609,0.317-0.694,0.745
		H-6.086z M-3.562,15.756v-0.119c0-0.557,0.323-1.014,0.721-1.014h0.826c0.396,0,0.721,0.457,0.721,1.014v0.119H-1.32
		c-0.084-0.428-0.363-0.745-0.694-0.745h-0.826c-0.331,0-0.609,0.317-0.694,0.745H-3.562z M-19.315,17.845v-0.128
		c0-0.597,0.347-1.084,0.771-1.084h0.884c0.425,0,0.771,0.487,0.771,1.084v0.128h-0.028c-0.089-0.458-0.389-0.797-0.742-0.797
		h-0.884c-0.354,0-0.653,0.339-0.743,0.797H-19.315z M-16.615,17.845v-0.128c0-0.597,0.348-1.084,0.771-1.084h0.885
		c0.424,0,0.771,0.487,0.771,1.084v0.128h-0.028c-0.09-0.458-0.39-0.797-0.742-0.797h-0.885c-0.354,0-0.652,0.339-0.742,0.797
		H-16.615z M-13.915,17.845v-0.128c0-0.597,0.348-1.084,0.771-1.084h0.884c0.425,0,0.772,0.487,0.772,1.084v0.128h-0.029
		c-0.09-0.458-0.389-0.797-0.742-0.797h-0.884c-0.353,0-0.652,0.339-0.743,0.797H-13.915z M-11.214,17.845v-0.128
		c0-0.597,0.347-1.084,0.771-1.084h0.885c0.423,0,0.771,0.487,0.771,1.084v0.128h-0.028c-0.09-0.458-0.389-0.797-0.742-0.797h-0.885
		c-0.354,0-0.653,0.339-0.743,0.797H-11.214z M-8.514,17.845v-0.128c0-0.597,0.348-1.084,0.771-1.084h0.885
		c0.425,0,0.771,0.487,0.771,1.084v0.128h-0.029c-0.09-0.458-0.39-0.797-0.742-0.797h-0.885c-0.354,0-0.652,0.339-0.742,0.797
		H-8.514z M-5.813,17.845v-0.128c0-0.597,0.347-1.084,0.771-1.084h0.885c0.423,0,0.771,0.487,0.771,1.084v0.128h-0.028
		c-0.09-0.458-0.389-0.797-0.743-0.797h-0.884c-0.354,0-0.652,0.339-0.743,0.797H-5.813z M-3.112,17.845v-0.128
		c0-0.597,0.348-1.084,0.771-1.084h0.885c0.424,0,0.771,0.487,0.771,1.084v0.128h-0.028c-0.091-0.458-0.39-0.797-0.743-0.797h-0.885
		c-0.354,0-0.652,0.339-0.742,0.797H-3.112z M-20,19.938v-0.138c0-0.64,0.373-1.164,0.828-1.164h0.948
		c0.456,0,0.828,0.524,0.828,1.164v0.138h-0.03c-0.097-0.492-0.418-0.855-0.798-0.855h-0.948c-0.38,0-0.701,0.363-0.798,0.855H-20z
		 M-17.101,19.938v-0.138c0-0.64,0.372-1.164,0.827-1.164h0.95c0.455,0,0.827,0.524,0.827,1.164v0.138h-0.03
		c-0.098-0.492-0.419-0.855-0.797-0.855h-0.95c-0.379,0-0.7,0.363-0.797,0.855H-17.101z M-14.202,19.938v-0.138
		c0-0.64,0.372-1.164,0.827-1.164h0.95c0.455,0,0.827,0.524,0.827,1.164v0.138h-0.03c-0.097-0.492-0.418-0.855-0.797-0.855h-0.95
		c-0.378,0-0.7,0.363-0.797,0.855H-14.202z M-11.303,19.938v-0.138c0-0.64,0.372-1.164,0.828-1.164h0.948
		c0.455,0,0.828,0.524,0.828,1.164v0.138h-0.03c-0.098-0.492-0.418-0.855-0.798-0.855h-0.948c-0.38,0-0.701,0.363-0.798,0.855
		H-11.303z M-8.404,19.938v-0.138c0-0.64,0.373-1.164,0.829-1.164h0.948c0.455,0,0.829,0.524,0.829,1.164v0.138H-5.83
		c-0.097-0.492-0.418-0.855-0.797-0.855h-0.948c-0.381,0-0.702,0.363-0.799,0.855H-8.404z M-5.506,19.938v-0.138
		c0-0.64,0.373-1.164,0.829-1.164h0.948c0.456,0,0.829,0.524,0.829,1.164v0.138h-0.032c-0.096-0.492-0.416-0.855-0.797-0.855h-0.948
		c-0.38,0-0.701,0.363-0.798,0.855H-5.506z M-2.605,19.938v-0.138c0-0.64,0.372-1.164,0.828-1.164h0.948
		c0.456,0,0.829,0.524,0.829,1.164v0.138h-0.032c-0.096-0.492-0.417-0.855-0.797-0.855h-0.948c-0.381,0-0.701,0.363-0.798,0.855
		H-2.605z"/>
</g>
<path fill="#333333" d="M10-19.938c-0.934,0-1.695,0.761-1.695,1.694c0,0.935,0.762,1.688,1.695,1.688s1.693-0.753,1.693-1.688
	C11.693-19.177,10.934-19.938,10-19.938z M10-16.277c-1.012,0.008-2.615,0.248-2.973,1.389c-0.498,1.592-1.023,3.173-1.549,4.757
	C5.449-10.04,5.416-9.943,5.416-9.84c0,0.397,0.324,0.715,0.723,0.715c0.365,0,0.605-0.286,0.715-0.625
	c0.414-1.275,1.23-3.788,1.244-3.826c0.014-0.045,0.035-0.084,0.082-0.084c0.049,0,0.096,0.038,0.084,0.084l-1.75,6.632
	C6.451-6.708,6.721-6.431,6.965-6.431h1.307C8.268-4.954,8.264-2.169,8.264-0.723c0,0.433,0.352,0.785,0.785,0.785
	s0.783-0.351,0.785-0.785c0-1.392-0.002-4.205,0-5.708c0.148,0,0.301,0,0.451,0c-0.004,1.478-0.008,4.262-0.008,5.708
	c0,0.433,0.352,0.785,0.785,0.785s0.783-0.351,0.785-0.785c0-1.393-0.002-4.206,0-5.708h1.188c0.244,0,0.514-0.277,0.451-0.514
	l-1.75-6.632c-0.012-0.046,0.035-0.084,0.082-0.084c0.049,0,0.07,0.039,0.084,0.084c0.012,0.038,0.828,2.551,1.244,3.826
	c0.109,0.339,0.348,0.625,0.715,0.625c0.396,0,0.723-0.317,0.723-0.715c0-0.104-0.033-0.2-0.063-0.292
	c-0.527-1.584-1.014-3.178-1.549-4.757C12.592-16.007,11.012-16.286,10-16.277z"/>
<path fill="#F2F2F2" d="M10,0C9.066,0,8.305,0.761,8.305,1.694c0,0.935,0.762,1.688,1.695,1.688s1.693-0.753,1.693-1.688
	C11.693,0.761,10.934,0,10,0z M10,3.66C8.988,3.668,7.385,3.908,7.027,5.049C6.529,6.641,6.004,8.222,5.479,9.806
	c-0.029,0.092-0.063,0.188-0.063,0.292c0,0.397,0.324,0.715,0.723,0.715c0.365,0,0.605-0.286,0.715-0.625
	c0.414-1.275,1.23-3.788,1.244-3.826C8.111,6.316,8.133,6.277,8.18,6.277c0.049,0,0.096,0.038,0.084,0.084l-1.75,6.632
	c-0.063,0.236,0.207,0.514,0.451,0.514h1.307c-0.004,1.477-0.008,4.262-0.008,5.708C8.264,19.647,8.615,20,9.049,20
	s0.783-0.351,0.785-0.785c0-1.392-0.002-4.205,0-5.708c0.148,0,0.301,0,0.451,0c-0.004,1.478-0.008,4.262-0.008,5.708
	c0,0.433,0.352,0.785,0.785,0.785s0.783-0.351,0.785-0.785c0-1.393-0.002-4.206,0-5.708h1.188c0.244,0,0.514-0.277,0.451-0.514
	l-1.75-6.632c-0.012-0.046,0.035-0.084,0.082-0.084c0.049,0,0.07,0.039,0.084,0.084c0.012,0.038,0.828,2.551,1.244,3.826
	c0.109,0.339,0.348,0.625,0.715,0.625c0.396,0,0.723-0.317,0.723-0.715c0-0.104-0.033-0.2-0.063-0.292
	c-0.527-1.584-1.014-3.178-1.549-4.757C12.592,3.931,11.012,3.651,10,3.66z"/>
</svg>
