<?xml version="1.0" encoding="utf-8"?>
<!-- Generator: Adobe Illustrator 21.0.0, SVG Export Plug-In . SVG Version: 6.00 Build 0)  -->
<svg version="1.1" id="Ebene_1" xmlns="http://www.w3.org/2000/svg" xmlns:xlink="http://www.w3.org/1999/xlink" x="0px" y="0px"
	 viewBox="0 0 20 20.001" enable-background="new 0 0 20 20.001" xml:space="preserve">
<g>
	<path d="M0,10.001c0-1.388,0.938-2.364,2.248-2.364c1.313,0,2.214,0.976,2.214,2.364c0,1.35-0.861,2.363-2.251,2.363
		C0.898,12.364,0,11.351,0,10.001z"/>
	<path d="M7.767,10.001c0-1.388,0.938-2.364,2.251-2.364c1.31,0,2.211,0.976,2.211,2.364c0,1.35-0.861,2.363-2.251,2.363
		C8.665,12.364,7.767,11.351,7.767,10.001z"/>
	<path d="M15.538,10.001c0-1.388,0.938-2.364,2.251-2.364c1.31,0,2.211,0.976,2.211,2.364c0,1.35-0.861,2.363-2.251,2.363
		C16.436,12.364,15.538,11.351,15.538,10.001z"/>
</g>
</svg>
