<?xml version="1.0" encoding="utf-8"?>
<!-- Generator: Adobe Illustrator 16.0.3, SVG Export Plug-In . SVG Version: 6.00 Build 0)  -->
<!DOCTYPE svg PUBLIC "-//W3C//DTD SVG 1.1//EN" "http://www.w3.org/Graphics/SVG/1.1/DTD/svg11.dtd">
<svg version="1.1" xmlns="http://www.w3.org/2000/svg" xmlns:xlink="http://www.w3.org/1999/xlink" x="0px" y="0px" width="20px"
	 height="20px" viewBox="0 0 20 20" enable-background="new 0 0 20 20" xml:space="preserve">
<g id="Ebene_1">
</g>
<g id="Ebene_4">
	<g>
		<path fill="#F2F2F2" d="M-0.044,9.863c0.512-4.606-3.53-8.866-9.028-9.512c-0.475-0.056-0.944-0.085-1.408-0.085
			c-4.899,0-9.007,3.044-9.477,7.251c-0.511,4.606,3.529,8.866,9.028,9.513c0.472,0.056,0.938,0.082,1.396,0.082
			c0.508,0,1.006-0.034,1.492-0.097c1.968,2.142,4.021,2.719,5.172,2.719c0.737,0,1.102-0.237,0.833-0.449
			c-1.678-1.332-2.033-2.632-1.927-3.655C-1.807,14.341-0.316,12.298-0.044,9.863z M-12.619,10.237
			c-0.459,0.382-1.164,0.563-2.018,0.563c-0.512,0-0.88-0.032-1.12-0.064V6.458c0.362-0.058,0.835-0.097,1.326-0.097
			c0.834,0,1.377,0.155,1.791,0.466c0.453,0.337,0.738,0.874,0.738,1.643C-11.901,9.305-12.205,9.88-12.619,10.237z M-8.474,10.754
			h-2.775v-4.36h2.685v0.809h-1.701v0.906h1.604v0.802h-1.604v1.035h1.792V10.754z M-4.243,8.839c0,1.346-0.68,1.985-1.819,1.985
			c-1.099,0-1.739-0.614-1.739-1.998V6.394h0.984v2.503c0,0.758,0.29,1.139,0.788,1.139c0.518,0,0.802-0.361,0.802-1.139V6.394
			h0.984V8.839z"/>
	</g>
	<g>
		<path fill="#F2F2F2" d="M3.475,17.621H6.23V4.249H3.475V17.621z"/>
		<path fill="#F2F2F2" d="M6.231,2.49c0-0.115-0.091-0.209-0.207-0.209H3.68c-0.113,0-0.205,0.094-0.205,0.209v1.556h2.757V2.49z"/>
		<path fill="#F2F2F2" d="M3.475,19.377c0,0.114,0.092,0.208,0.205,0.208h2.345c0.116,0,0.207-0.095,0.207-0.208v-1.556H3.475
			V19.377z"/>
		<path fill="#F2F2F2" d="M16.125,16.521l3.321-0.621L17.491,5.42l-3.32,0.619L16.125,16.521z"/>
		<path fill="#F2F2F2" d="M16.894,2.248c-0.022-0.113-0.125-0.187-0.241-0.166l-2.911,0.544c-0.117,0.021-0.19,0.13-0.168,0.241
			l0.559,2.975l3.321-0.623L16.894,2.248z"/>
		<path fill="#F2F2F2" d="M16.674,19.469c0.021,0.112,0.135,0.187,0.246,0.166l2.914-0.545c0.109-0.021,0.183-0.129,0.162-0.243
			l-0.512-2.749l-3.32,0.62L16.674,19.469z"/>
		<path fill="#F2F2F2" d="M9.76,3.265H6.923c-0.114,0-0.204,0.094-0.204,0.207v0.36v5.524v4.772v2.907v0.169v0.416v1.757
			c0,0.114,0.09,0.208,0.204,0.208H9.76c0.113,0,0.211-0.095,0.211-0.208v-2.172v-0.169v-7.68V3.832v-0.36
			C9.971,3.359,9.873,3.265,9.76,3.265z M9.527,14.128h-2.37V9.356h2.37V14.128z"/>
		<path fill="#F2F2F2" d="M0,16.393h2.878V3.367H0V16.393z"/>
		<path fill="#F2F2F2" d="M2.878,0.653c0-0.115-0.096-0.208-0.209-0.208H0.204C0.09,0.444,0,0.538,0,0.653v2.511h2.878V0.653z"/>
		<path fill="#F2F2F2" d="M0,19.377c0,0.114,0.09,0.208,0.204,0.208h2.465c0.113,0,0.209-0.095,0.209-0.208v-2.784H0V19.377z"/>
		<path fill="#F2F2F2" d="M10.987,16.425l2.877-0.148l-0.67-13.008l-2.872,0.149L10.987,16.425z"/>
		<path fill="#F2F2F2" d="M13.058,0.559c-0.009-0.115-0.107-0.203-0.22-0.196l-2.461,0.127c-0.113,0.006-0.207,0.104-0.197,0.217
			l0.125,2.508l2.878-0.148L13.058,0.559z"/>
		<path fill="#F2F2F2" d="M11.143,19.407c0.006,0.113,0.105,0.202,0.217,0.197l2.461-0.127c0.116-0.006,0.208-0.104,0.197-0.218
			l-0.14-2.779l-2.874,0.147L11.143,19.407z"/>
	</g>
	<g>
		<g>
			<path fill="#F2F2F2" d="M29.268,9.609c-0.293-0.279-0.449-0.688-0.401-1.098L29.6,3.873L24.94,3.879l-0.868,6.342h-1.024h-1.3
				L20,14.13l0.596-0.022l1.064-2.132l0.203,0.003l-0.406,4.471h0.554l0.356,2.76l0.569,0.015l0.007-2.774h0.073h0.062h0.074
				l0.006,2.774l0.57-0.015l0.355-2.76h0.555l-0.407-4.471l0.203-0.003l0.849,1.692l-0.299,5.505h1.145l1.233-7.561l1.195,7.563
				h1.197L29.268,9.609z M24.843,11.334l0.499-4.111h0.285l-0.285,5.232L24.843,11.334z"/>
		</g>
	</g>
</g>
</svg>
