<?xml version="1.0" encoding="utf-8"?>
<!-- Generator: Adobe Illustrator 16.0.3, SVG Export Plug-In . SVG Version: 6.00 Build 0)  -->
<!DOCTYPE svg PUBLIC "-//W3C//DTD SVG 1.1//EN" "http://www.w3.org/Graphics/SVG/1.1/DTD/svg11.dtd">
<svg version="1.1" xmlns="http://www.w3.org/2000/svg" xmlns:xlink="http://www.w3.org/1999/xlink" x="0px" y="0px" width="20px"
	 height="20px" viewBox="0 0 20 20" enable-background="new 0 0 20 20" xml:space="preserve">
<g id="Ebene_1">
</g>
<g id="Ebene_4">
	<g>
		<path fill="#333333" d="M-6.196,6.67h1.837L0,18.68h-1.783l-1.254-3.598h-4.712l-1.302,3.598h-1.667L-6.196,6.67z M-3.498,13.758
			l-1.85-5.306l-1.922,5.306H-3.498z"/>
	</g>
	<path fill="#333333" d="M18.446,0H1.554C0.697,0,0,0.698,0,1.554v16.892C0,19.302,0.697,20,1.554,20h8.589h3.97h4.334
		C19.302,20,20,19.302,20,18.446V1.554C20,0.698,19.302,0,18.446,0z M11.161,18.99v-7.374H8.687V9.798h2.475V7.162
		c0-1.042,0.298-1.89,0.868-2.454c0.549-0.542,1.354-0.829,2.316-0.829c0.676,0,1.26,0.033,1.715,0.066v1.6l-1.034,0
		c-1.925,0-1.946,1.43-1.946,1.9v2.353h2.79l-0.239,1.818H13.08v7.374H11.161z M18.99,18.446c0,0.3-0.245,0.544-0.544,0.544h-4.355
		v-6.363h2.429l0.5-3.839h-2.929V7.446c0-0.349,0.057-0.566,0.155-0.684c0.116-0.137,0.391-0.207,0.786-0.207l2.038-0.001v-3.51
		l-0.449-0.059c-0.229-0.03-1.144-0.117-2.282-0.117c-1.233,0-2.275,0.388-3.017,1.12c-0.768,0.758-1.171,1.855-1.171,3.173v1.626
		H7.677v3.839h2.475v6.363H1.554c-0.3,0-0.544-0.244-0.544-0.544V1.554c0-0.3,0.244-0.544,0.544-0.544h16.893
		c0.299,0,0.544,0.244,0.544,0.544V18.446z"/>
	<path fill="#F2F2F2" d="M18.446,20H1.554C0.697,20,0,20.698,0,21.554v16.892C0,39.302,0.697,40,1.554,40h8.589h3.97h4.334
		C19.302,40,20,39.302,20,38.446V21.554C20,20.698,19.302,20,18.446,20z M11.161,38.99v-7.374H8.687v-1.818h2.475v-2.637
		c0-1.042,0.298-1.89,0.868-2.454c0.549-0.542,1.354-0.829,2.316-0.829c0.676,0,1.26,0.033,1.715,0.066v1.6l-1.034,0
		c-1.925,0-1.946,1.43-1.946,1.9v2.353h2.79l-0.239,1.818H13.08v7.374H11.161z M18.99,38.446c0,0.3-0.245,0.544-0.544,0.544h-4.355
		v-6.363h2.429l0.5-3.839h-2.929v-1.342c0-0.349,0.057-0.566,0.155-0.684c0.116-0.137,0.391-0.207,0.786-0.207l2.038-0.001v-3.51
		l-0.449-0.059c-0.229-0.03-1.144-0.117-2.282-0.117c-1.233,0-2.275,0.388-3.017,1.12c-0.768,0.758-1.171,1.855-1.171,3.173v1.626
		H7.677v3.839h2.475v6.363H1.554c-0.3,0-0.544-0.244-0.544-0.544V21.554c0-0.3,0.244-0.544,0.544-0.544h16.893
		c0.299,0,0.544,0.244,0.544,0.544V38.446z"/>
	<g id="Your_Icon">
		<g>
			<path fill="#333333" d="M23.328,5.317C21.492,5.317,20,6.81,20,8.646c0,1.834,1.492,3.327,3.328,3.327
				c0.299,0,0.543-0.243,0.543-0.543V5.86C23.871,5.561,23.627,5.317,23.328,5.317z"/>
		</g>
	</g>
</g>
</svg>
