<?xml version="1.0" encoding="utf-8"?>
<!-- Generator: Adobe Illustrator 21.0.0, SVG Export Plug-In . SVG Version: 6.00 Build 0)  -->
<svg version="1.1" id="Ebene_1" xmlns="http://www.w3.org/2000/svg" xmlns:xlink="http://www.w3.org/1999/xlink" x="0px" y="0px"
	 viewBox="0 0 20 20.001" enable-background="new 0 0 20 20.001" xml:space="preserve">
<g>
	<path fill="#333333" d="M13.113,14.402c-0.032,0.064-0.096,0.128-0.128,0.224c-0.16,0.479-0.543,0.83-1.022,0.926
		c-0.128,0.032-0.224,0.032-0.351,0.032c-0.351,0-0.702-0.128-0.99-0.383c-0.351-0.319-0.894-0.319-1.245,0
		c-0.351,0.351-0.862,0.479-1.341,0.351s-0.862-0.447-1.022-0.926c-0.032-0.096-0.064-0.16-0.128-0.224l-1.022,5.599l4.151-1.512
		l4.087,1.48L13.113,14.402z"/>
	<g>
		<path fill="#333333" d="M6.318,6.932c-0.183,0-0.309,0.016-0.381,0.033v2.428C6.008,9.41,6.13,9.41,6.229,9.41
			c0.766,0.005,1.267-0.413,1.267-1.299C7.495,7.339,7.044,6.932,6.318,6.932z"/>
		<path fill="#333333" d="M17.104,6.004l-0.032-0.032c-0.671-0.351-0.958-1.118-0.671-1.82c0.128-0.287,0.096-0.607-0.096-0.862
			c-0.16-0.255-0.447-0.383-0.766-0.383h-0.064c-0.734,0-1.341-0.543-1.437-1.277V1.598c-0.032-0.319-0.192-0.575-0.479-0.703
			c-0.287-0.16-0.575-0.128-0.862,0l-0.032,0.032c-0.639,0.351-1.469,0.16-1.884-0.479L10.75,0.416
			c-0.16-0.255-0.447-0.415-0.766-0.415c-0.319,0-0.575,0.16-0.766,0.415L9.185,0.448C8.77,1.055,7.972,1.278,7.301,0.927
			L7.269,0.895c-0.287-0.16-0.575-0.16-0.862,0C6.12,1.055,5.96,1.31,5.928,1.598v0.032C5.865,2.364,5.226,2.907,4.491,2.907H4.427
			c-0.287,0-0.575,0.128-0.766,0.383C3.565,3.545,3.533,3.865,3.629,4.152c0.287,0.703,0,1.501-0.671,1.82L2.927,6.004
			C2.639,6.132,2.48,6.419,2.448,6.706C2.416,7.026,2.544,7.313,2.767,7.505c0.575,0.479,0.671,1.341,0.255,1.948L2.991,9.484
			c-0.192,0.255-0.224,0.575-0.096,0.862c0.128,0.287,0.351,0.479,0.671,0.575c0.734,0.16,1.213,0.862,1.118,1.597v0.032
			c-0.032,0.319,0.064,0.607,0.287,0.798c0.224,0.192,0.543,0.287,0.83,0.192c0.128-0.032,0.255-0.064,0.383-0.064
			c0.607,0,1.15,0.383,1.341,0.958c0.096,0.319,0.351,0.511,0.639,0.607c0.319,0.064,0.607,0,0.83-0.224
			c0.543-0.511,1.405-0.511,1.98,0c0.224,0.224,0.543,0.287,0.83,0.224c0.319-0.064,0.543-0.287,0.639-0.575
			c0.255-0.734,1.022-1.118,1.756-0.926c0.287,0.096,0.607,0,0.83-0.192c0.224-0.192,0.351-0.511,0.287-0.798v-0.032
			c-0.096-0.734,0.383-1.437,1.118-1.597c0.319-0.064,0.543-0.255,0.67-0.575c0.128-0.287,0.064-0.607-0.096-0.862l-0.032-0.032
			c-0.447-0.607-0.319-1.469,0.255-1.948c0.255-0.192,0.351-0.479,0.319-0.798C17.551,6.387,17.391,6.132,17.104,6.004z
			 M7.771,9.586C7.38,9.911,6.78,10.065,6.053,10.065c-0.436,0-0.749-0.027-0.953-0.055V6.37C5.408,6.321,5.81,6.288,6.229,6.288
			c0.71,0,1.172,0.132,1.525,0.396c0.386,0.287,0.628,0.744,0.628,1.398C8.382,8.793,8.123,9.283,7.771,9.586z M11.299,10.027H8.937
			V6.315h2.285v0.688H9.774v0.771h1.365v0.682H9.774v0.881h1.525V10.027z M14.9,8.397c0,1.145-0.578,1.69-1.549,1.69
			c-0.935,0-1.48-0.523-1.48-1.701V6.315h0.838v2.13c0,0.645,0.247,0.969,0.671,0.969c0.441,0,0.682-0.308,0.682-0.969v-2.13H14.9
			V8.397z"/>
	</g>
</g>
<g>
	<g>
		<path fill="#F2F2F2" d="M17.104,26.004l-0.032-0.032c-0.671-0.351-0.958-1.118-0.671-1.82c0.128-0.287,0.096-0.607-0.096-0.862
			c-0.16-0.255-0.447-0.383-0.766-0.383h-0.064c-0.734,0-1.341-0.543-1.437-1.277v-0.032c-0.032-0.319-0.192-0.575-0.479-0.703
			c-0.287-0.16-0.575-0.128-0.862,0l-0.032,0.032c-0.639,0.351-1.469,0.16-1.884-0.479l-0.032-0.032
			c-0.16-0.255-0.447-0.415-0.766-0.415c-0.319,0-0.575,0.16-0.766,0.415l-0.032,0.032c-0.415,0.607-1.213,0.83-1.884,0.479
			l-0.032-0.032c-0.287-0.16-0.575-0.16-0.862,0c-0.287,0.16-0.447,0.415-0.479,0.703v0.032c-0.064,0.734-0.702,1.277-1.437,1.277
			H4.427c-0.287,0-0.575,0.128-0.766,0.383c-0.096,0.255-0.128,0.575-0.032,0.862c0.287,0.703,0,1.501-0.671,1.82l-0.032,0.032
			c-0.287,0.128-0.447,0.415-0.479,0.702c-0.032,0.319,0.096,0.607,0.319,0.798c0.575,0.479,0.671,1.341,0.255,1.948l-0.032,0.032
			c-0.192,0.255-0.224,0.575-0.096,0.862c0.128,0.287,0.351,0.479,0.671,0.575c0.734,0.16,1.213,0.862,1.118,1.597v0.032
			c-0.032,0.319,0.064,0.607,0.287,0.798c0.224,0.192,0.543,0.287,0.83,0.192c0.128-0.032,0.255-0.064,0.383-0.064
			c0.607,0,1.15,0.383,1.341,0.958c0.096,0.319,0.351,0.511,0.639,0.607c0.319,0.064,0.607,0,0.83-0.224
			c0.543-0.511,1.405-0.511,1.98,0c0.224,0.224,0.543,0.287,0.83,0.224c0.319-0.064,0.543-0.287,0.639-0.575
			c0.255-0.734,1.022-1.118,1.756-0.926c0.287,0.096,0.607,0,0.83-0.192c0.224-0.192,0.351-0.511,0.287-0.798v-0.032
			c-0.096-0.734,0.383-1.437,1.118-1.597c0.319-0.064,0.543-0.255,0.67-0.575c0.128-0.287,0.064-0.607-0.096-0.862l-0.032-0.032
			c-0.447-0.607-0.319-1.469,0.255-1.948c0.255-0.192,0.351-0.479,0.319-0.798C17.551,26.387,17.391,26.132,17.104,26.004z
			 M7.771,29.586c-0.391,0.325-0.991,0.479-1.717,0.479c-0.436,0-0.749-0.027-0.953-0.055v-3.64
			c0.308-0.049,0.711-0.082,1.129-0.082c0.71,0,1.172,0.132,1.525,0.396c0.386,0.287,0.628,0.744,0.628,1.398
			C8.382,28.793,8.123,29.283,7.771,29.586z M11.299,30.027H8.937v-3.712h2.285v0.688H9.774v0.771h1.365v0.682H9.774v0.881h1.525
			V30.027z M14.9,28.397c0,1.145-0.578,1.69-1.549,1.69c-0.935,0-1.48-0.523-1.48-1.701v-2.071h0.838v2.13
			c0,0.645,0.247,0.969,0.671,0.969c0.441,0,0.682-0.308,0.682-0.969v-2.13H14.9V28.397z"/>
	</g>
</g>
</svg>
