<?xml version="1.0" encoding="utf-8"?>
<!-- Generator: Adobe Illustrator 16.0.3, SVG Export Plug-In . SVG Version: 6.00 Build 0)  -->
<!DOCTYPE svg PUBLIC "-//W3C//DTD SVG 1.1//EN" "http://www.w3.org/Graphics/SVG/1.1/DTD/svg11.dtd">
<svg version="1.1" id="Ebene_1" xmlns="http://www.w3.org/2000/svg" xmlns:xlink="http://www.w3.org/1999/xlink" x="0px" y="0px"
	 width="20px" height="20px" viewBox="0 0 20 20" enable-background="new 0 0 20 20" xml:space="preserve">
<g>
	<path fill="#F2F2F2" d="M20,2.857l-7.143-2.143C12.232,1.93,11.482,2.51,10.01,2.51C8.559,2.486,7.756,1.919,7.143,0.714L0,2.857
		l1.428,3.929l2.857-0.356L3.572,19.286h12.855L15.715,6.429l2.855,0.356L20,2.857z"/>
</g>
<g>
	<path fill="#F2F2F2" d="M39.931,17.246l-1.824-3.723l0.469-2.256c0.715-0.017,1.29-0.645,1.29-1.413
		c0-0.78-0.592-1.415-1.319-1.415H38.13c-0.105-0.379-0.358-0.697-0.693-0.89c-0.04,0.285-0.084,0.583-0.132,0.89h-0.547
		c0.916-5.822,0.108-6.785-1.045-6.991c-0.114-0.021-0.228-0.033-0.341-0.033c-1.08,0-2.114,1.125-3.212,7.024h-0.202
		c-0.052-0.199-0.134-0.386-0.241-0.555c0.281-1.461,0.566-2.66,0.867-3.628c-0.804,0.021-1.448,0.678-1.448,1.486
		c-0.341,0-0.663,0.074-0.956,0.204c-0.2-0.585-0.754-1.006-1.407-1.006c-0.219,0-0.426,0.048-0.613,0.134
		c-0.272-0.298-0.663-0.485-1.098-0.485c-0.099,0-0.194,0.01-0.287,0.028c0.324,0.315,0.551,0.731,0.627,1.194l0.08,0.479
		c-0.185,0.013-0.361,0.052-0.528,0.112L26.87,5.9c-0.008-0.05-0.02-0.098-0.031-0.146c-0.004-0.014-0.008-0.026-0.011-0.04
		c-0.012-0.036-0.023-0.071-0.036-0.106c-0.004-0.012-0.008-0.023-0.013-0.035c-0.018-0.044-0.036-0.088-0.058-0.131
		c-0.003-0.006-0.006-0.012-0.009-0.018c-0.02-0.036-0.04-0.072-0.062-0.107c-0.006-0.011-0.013-0.021-0.021-0.032
		c-0.021-0.034-0.045-0.066-0.069-0.098c-0.004-0.007-0.008-0.013-0.013-0.019c-0.029-0.037-0.061-0.073-0.093-0.108
		c-0.006-0.006-0.012-0.011-0.017-0.017c-0.028-0.029-0.057-0.057-0.087-0.084c-0.008-0.007-0.016-0.014-0.023-0.021
		c-0.182-0.155-0.395-0.271-0.627-0.334l-0.408-2.463l-1.333,0.22l0.409,2.464c-0.506,0.344-0.795,0.96-0.688,1.603l0.333,2.011
		h-0.547l-0.124-0.75c-0.014,0-0.026-0.003-0.041-0.003c-0.554,0-1.036,0.304-1.292,0.753h-0.558c-0.729,0-1.319,0.635-1.319,1.415
		c0,0.769,0.575,1.396,1.289,1.413l0.47,2.256l-1.824,3.723c-0.163,0.334-0.025,0.737,0.309,0.9
		c0.096,0.047,0.196,0.069,0.296,0.069c0.248,0,0.488-0.139,0.605-0.378l1.061-2.166l0.433,2.079l0.015,0.053
		c0.156,0.468,0.592,0.782,1.086,0.782h12.255c0.493,0,0.929-0.313,1.086-0.781l0.009-0.026l0.438-2.106l1.062,2.166
		c0.117,0.239,0.356,0.378,0.605,0.378c0.1,0,0.2-0.022,0.295-0.069C39.956,17.982,40.095,17.58,39.931,17.246z M23.713,11.337
		c-0.334-0.163-0.737-0.025-0.9,0.309l-0.243,0.497l-0.25-1.2h1.891l0.26,1.784h-0.687l0.239-0.488
		C24.186,11.905,24.047,11.501,23.713,11.337z M24.754,10.943h2.154l0.146,1.784h-2.039L24.754,10.943z M30.27,13.265h2.091
		l-0.146,1.796H30.27V13.265z M29.73,15.061h-1.944l-0.147-1.796h2.092V15.061z M30.27,12.727v-1.784h2.282l-0.147,1.784H30.27z
		 M29.73,12.727h-2.136l-0.146-1.784h2.282V12.727L29.73,12.727z M27.098,13.265l0.148,1.796h-1.892l-0.262-1.796H27.098z
		 M27.29,15.6l0.167,2.043H25.73L25.433,15.6H27.29z M27.83,15.6h1.9v2.043h-1.732L27.83,15.6z M30.27,15.6h1.9l-0.168,2.043H30.27
		V15.6z M32.71,15.6h1.857l-0.299,2.043h-1.727L32.71,15.6z M32.754,15.061l0.147-1.796h2.005l-0.262,1.796H32.754z M32.946,12.727
		l0.146-1.784h2.153l-0.26,1.784H32.946z M35.79,10.943h1.891l-0.25,1.2l-0.243-0.497c-0.163-0.334-0.566-0.472-0.9-0.309
		c-0.335,0.164-0.472,0.567-0.309,0.901l0.238,0.487h-0.688L35.79,10.943z M34.23,3.49c0.018-0.007,0.045-0.021,0.078-0.03
		c0.066-0.024,0.16-0.05,0.271-0.07c0.105-0.019,0.226-0.028,0.352-0.028c0.14,0,0.288,0.013,0.434,0.038
		c0.276,0.049,0.545,0.147,0.738,0.262c0.098,0.058,0.177,0.114,0.231,0.159c0.027,0.021,0.048,0.044,0.063,0.057
		c0.014,0.013,0.021,0.021,0.021,0.021s-0.009,0.004-0.027,0.012c-0.018,0.007-0.045,0.021-0.078,0.031
		c-0.066,0.023-0.161,0.049-0.271,0.069c-0.106,0.019-0.226,0.029-0.351,0.029c-0.141,0-0.289-0.013-0.435-0.039
		c-0.278-0.05-0.545-0.149-0.74-0.263c-0.096-0.057-0.176-0.114-0.23-0.159c-0.027-0.021-0.048-0.043-0.063-0.056
		c-0.015-0.014-0.022-0.021-0.022-0.021S34.212,3.498,34.23,3.49z M33.863,4.93c0.078-0.021,0.187-0.046,0.315-0.062
		c0.1-0.013,0.211-0.02,0.329-0.02c0.187,0,0.389,0.017,0.589,0.053c0.325,0.058,0.642,0.165,0.872,0.286
		c0.115,0.059,0.21,0.119,0.274,0.167c0.065,0.046,0.102,0.08,0.102,0.08s-0.046,0.019-0.123,0.04s-0.187,0.046-0.314,0.062
		c-0.1,0.013-0.211,0.02-0.327,0.02c-0.188,0-0.392-0.018-0.591-0.054c-0.326-0.059-0.642-0.166-0.873-0.286
		c-0.114-0.059-0.209-0.12-0.274-0.167c-0.064-0.047-0.101-0.079-0.101-0.079S33.785,4.951,33.863,4.93z M33.595,6.433
		c0.078-0.021,0.187-0.046,0.315-0.061c0.1-0.014,0.212-0.02,0.329-0.02c0.187,0,0.39,0.017,0.589,0.052
		C35.153,6.462,35.47,6.57,35.7,6.691c0.115,0.059,0.21,0.119,0.274,0.167c0.065,0.046,0.102,0.08,0.102,0.08
		s-0.046,0.019-0.123,0.04s-0.187,0.046-0.314,0.062c-0.1,0.013-0.211,0.02-0.327,0.02c-0.188,0-0.391-0.017-0.591-0.053
		c-0.325-0.059-0.642-0.167-0.872-0.287c-0.115-0.06-0.21-0.119-0.274-0.167c-0.065-0.046-0.102-0.079-0.102-0.079
		S33.518,6.454,33.595,6.433z M33.58,8.222c-0.115-0.059-0.21-0.12-0.274-0.167c-0.065-0.047-0.101-0.079-0.101-0.079
		s0.045-0.019,0.122-0.04s0.187-0.045,0.314-0.062c0.1-0.013,0.212-0.019,0.33-0.019c0.186,0,0.389,0.016,0.588,0.052
		c0.325,0.058,0.642,0.166,0.873,0.286c0.115,0.059,0.209,0.119,0.274,0.167c0.062,0.044,0.096,0.075,0.1,0.078H34.15
		C33.937,8.38,33.737,8.304,33.58,8.222z M26.352,8.439c-0.01-0.063-0.016-0.128-0.016-0.194c0-0.709,0.576-1.287,1.286-1.287
		c0.446,0,0.84,0.23,1.07,0.578c-0.249,0.245-0.431,0.556-0.521,0.903H26.352z M30.064,7.645c0.535,0,0.993,0.329,1.186,0.794
		h-2.373C29.07,7.974,29.53,7.645,30.064,7.645z M21.077,9.854c0-0.256,0.172-0.473,0.376-0.473h17.093
		c0.205,0,0.377,0.217,0.377,0.473c0,0.255-0.172,0.471-0.377,0.471h-0.572v-0.001H21.814v0.001h-0.361
		C21.249,10.325,21.077,10.109,21.077,9.854z M23.519,13.265h1.029l0.263,1.796h-1.635l-0.16-0.769L23.519,13.265z M23.688,17.523
		l-0.4-1.923h1.602l0.298,2.043h-1.314C23.792,17.642,23.72,17.595,23.688,17.523z M36.127,17.642h-1.314l0.299-2.043h1.601
		l-0.4,1.924C36.28,17.595,36.208,17.642,36.127,17.642z M36.824,15.061h-1.636l0.262-1.796h1.03l0.503,1.026L36.824,15.061z"/>
</g>
</svg>
