<?xml version="1.0" encoding="utf-8"?>
<!-- Generator: Adobe Illustrator 16.0.3, SVG Export Plug-In . SVG Version: 6.00 Build 0)  -->
<!DOCTYPE svg PUBLIC "-//W3C//DTD SVG 1.1//EN" "http://www.w3.org/Graphics/SVG/1.1/DTD/svg11.dtd">
<svg version="1.1" xmlns="http://www.w3.org/2000/svg" xmlns:xlink="http://www.w3.org/1999/xlink" x="0px" y="0px" width="20px"
	 height="20px" viewBox="0 0 20 20" enable-background="new 0 0 20 20" xml:space="preserve">
<g id="Ebene_1">
</g>
<g id="Ebene_4">
	<g transform="matrix(1.3333333,0,0,-1.3333333,0,66.586667)">
		<g transform="scale(0.1)">
			<path fill="#F2F2F2" d="M-4.241,409.579l2.289,2.292v-2.292H-4.241z M-1.952,377.983h-146.093v29.663H-1.93L-1.952,377.983
				L-1.952,377.983z M-145.8,439.265l-2.314-2.285v2.285H-145.8z M-1.952,435.134v-3.179l-22.354-22.375h-3.201L-1.952,435.134z
				 M-1.952,438.997V435.8l-26.221-26.221h-3.201L-1.952,438.997z M-5.578,439.265h3.179l-29.663-29.685h-3.175L-5.578,439.265z
				 M-9.441,439.265h3.175l-29.663-29.685h-3.179L-9.441,439.265z M-13.331,439.265h3.201l-29.688-29.685h-3.171L-13.331,439.265z
				 M-17.194,439.265h3.171l-29.66-29.685h-3.175L-17.194,439.265z M-21.065,439.265h3.183l-29.689-29.685h-3.175L-21.065,439.265z
				 M-24.954,439.265h3.179l-29.659-29.685h-3.179L-24.954,439.265z M-28.817,439.265h3.179l-29.685-29.685h-3.179L-28.817,439.265z
				 M-32.707,439.265h3.179l-29.685-29.685h-3.179L-32.707,439.265z M-36.574,439.265h3.179l-29.707-29.685h-3.175L-36.574,439.265z
				 M-40.463,439.265h3.179l-29.682-29.685h-3.201L-40.463,439.265z M-44.349,439.265h3.175l-29.685-29.685h-3.171L-44.349,439.265z
				 M-48.19,439.265h3.179l-29.707-29.685h-3.201L-48.19,439.265z M-52.079,439.265h3.201l-29.711-29.685h-3.201L-52.079,439.265z
				 M-55.99,439.265h3.201l-29.689-29.685h-3.197L-55.99,439.265z M-59.879,439.265h3.197l-29.659-29.685h-3.201L-59.879,439.265z
				 M-63.743,439.265h3.197l-29.685-29.685h-3.201L-63.743,439.265z M-67.614,439.265h3.201l-29.685-29.685h-3.201L-67.614,439.265z
				 M-71.503,439.265h3.201l-29.685-29.685h-3.197L-71.503,439.265z M-75.367,439.265h3.197l-29.685-29.685h-3.193L-75.367,439.265z
				 M-79.256,439.265h3.201l-29.659-29.685h-3.201L-79.256,439.265z M-83.119,439.265h3.193l-29.678-29.685h-3.205L-83.119,439.265z
				 M-86.986,439.265h3.201l-29.689-29.685h-3.197L-86.986,439.265z M-90.875,439.265h3.201l-29.685-29.685h-3.201L-90.875,439.265z
				 M-94.743,439.265h3.201l-29.685-29.685h-3.201L-94.743,439.265z M-98.632,439.265h3.201l-29.663-29.685h-3.201L-98.632,439.265z
				 M-102.492,439.265h3.193l-29.685-29.685h-3.175L-102.492,439.265z M-106.363,439.265h3.201l-29.688-29.685h-3.193
				L-106.363,439.265z M-110.252,439.265h3.201l-29.681-29.685h-3.201L-110.252,439.265z M-114.115,439.265h3.193l-29.682-29.685
				h-3.201L-114.115,439.265z M-118.004,439.265h3.201l-29.667-29.685h-3.197L-118.004,439.265z M-148.114,416.911l22.354,22.354
				h3.201l-25.554-25.551V416.911z M-126.427,439.265l-21.687-21.665v3.179l18.468,18.464
				C-129.628,439.265-126.427,439.265-126.427,439.265z M-130.316,439.265l-17.798-17.798v3.201l14.604,14.597
				C-133.488,439.265-130.316,439.265-130.316,439.265z M-134.18,439.265l-13.934-13.909v3.201l10.733,10.73
				C-137.381,439.265-134.18,439.265-134.18,439.265z M-138.091,439.265l-10.023-10.042v3.197l6.844,6.844H-138.091z
				 M-148.114,436.291l2.981,2.974h3.175l-6.156-6.156V436.291z M-148.114,413.026l26.221,26.217h3.201l-29.421-29.399V413.026z
				 M-1.952,428.066l-18.486-18.486h-3.201l21.665,21.665C-1.952,431.267-1.952,428.066-1.952,428.066z M-1.952,419.625v-3.182
				l-6.848-6.863h-3.175C-12.001,409.579-1.952,419.625-1.952,419.625z M-1.952,423.51v-3.175l-10.737-10.734h-3.175
				C-15.865,409.579-1.952,423.51-1.952,423.51z M-1.952,424.199l-14.597-14.597h-3.201l17.798,17.798
				C-1.952,427.377-1.952,424.199-1.952,424.199z M-8.112,409.579l6.182,6.174v-3.193l-2.981-2.981H-8.112z M-0.978,472.795
				h-148.044c-0.535,0-0.978-0.443-0.978-0.978v-94.834c0-0.531,0.443-0.978,0.978-0.978H-0.978c0.535,0,0.978,0.447,0.978,0.978
				v94.834C0,472.37-0.443,472.795-0.978,472.795"/>
		</g>
	</g>
	<path fill-rule="evenodd" clip-rule="evenodd" fill="#333333" d="M15.385-2.637c-0.035,0.01-0.063,0.014-0.083,0.027
		c-0.135,0.091-0.232,0.055-0.343-0.06c-0.22-0.229-0.457-0.443-0.688-0.664c-0.029-0.029-0.062-0.055-0.109-0.098
		c0,0.115-0.003,0.209,0,0.303c0.006,0.308,0.019,0.614,0.019,0.921c0,0.101,0.027,0.145,0.131,0.125
		c0.016-0.003,0.031-0.001,0.046-0.002c0.062-0.007,0.106,0.019,0.091,0.081c-0.005,0.033-0.047,0.076-0.079,0.082
		c-0.171,0.034-0.18,0.031-0.166,0.206c0.009,0.116-0.034,0.17-0.137,0.213c-0.254,0.105-0.503,0.222-0.755,0.334
		c-0.01-0.007-0.02-0.014-0.029-0.02c0.099-0.219,0.197-0.438,0.303-0.675c-0.093,0-0.17,0-0.267,0
		c0.114-0.565,0.226-1.116,0.34-1.683c-0.045,0.02-0.076,0.03-0.105,0.045c-0.283,0.146-0.564,0.295-0.85,0.436
		c-0.086,0.042-0.113,0.095-0.114,0.188c0,0.169-0.014,0.337-0.024,0.506c0,0.025-0.009,0.05-0.014,0.075
		c-0.015,0.011-0.029,0.023-0.044,0.034c-0.017-0.033-0.027-0.072-0.051-0.1c-0.152-0.184-0.31-0.362-0.458-0.548
		c-0.037-0.045-0.051-0.114-0.063-0.175c-0.01-0.051-0.001-0.107,0.003-0.16c0.012-0.174,0.071-0.358-0.128-0.467
		c0.098-0.132,0.109-0.137,0.193-0.03c0.07,0.088,0.138,0.104,0.247,0.071c0.386-0.115,0.775-0.219,1.163-0.328
		c0.025-0.008,0.05-0.018,0.098-0.036c-0.414-0.383-0.816-0.757-1.233-1.143c0,0.361,0,0.703,0,1.044
		c-0.008,0.007-0.015,0.013-0.024,0.018c-0.371-0.555-0.741-1.112-1.112-1.667c0,0.291-0.012,0.574,0.002,0.856
		c0.027,0.563,0.078,1.124,0.204,1.677c0.087,0.383,0.198,0.758,0.411,1.093c0.326,0.515,0.756,0.682,1.342,0.521
		c0.032-0.009,0.064-0.016,0.14-0.033c-0.052,0.12-0.08,0.218-0.133,0.301c-0.149,0.235-0.38,0.367-0.637,0.448
		c-0.51,0.16-1.006,0.146-1.483-0.166C10.665-0.733,10.341-0.375,10.003,0C9.671-0.368,9.346-0.728,9.025-1.083
		c-0.6,0.355-1.192,0.339-1.785,0.025C7.034-1.166,6.879-1.33,6.81-1.56C6.801-1.588,6.798-1.618,6.789-1.665
		c0.077,0.018,0.139,0.032,0.199,0.047c0.48,0.119,0.872-0.018,1.169-0.412c0.275-0.364,0.404-0.79,0.502-1.227
		c0.131-0.589,0.185-1.189,0.205-1.792C8.874-5.29,8.867-5.532,8.867-5.788c-0.37,0.557-0.741,1.111-1.11,1.665
		C7.748-4.125,7.74-4.127,7.732-4.129c0-0.343,0-0.686,0-1.053c-0.417,0.386-0.82,0.759-1.235,1.144
		c0.049,0.018,0.08,0.031,0.111,0.04c0.38,0.107,0.762,0.21,1.14,0.323c0.11,0.033,0.185,0.025,0.257-0.072
		c0.079-0.106,0.098-0.099,0.192,0.036C7.996-3.608,8.049-3.425,8.07-3.257c0.023,0.184-0.021,0.33-0.154,0.465
		C7.759-2.634,7.626-2.456,7.459-2.26C7.449-2.329,7.442-2.363,7.44-2.398C7.429-2.574,7.423-2.75,7.41-2.927
		C7.408-2.963,7.389-3.016,7.361-3.03C7.033-3.205,6.702-3.373,6.345-3.557c0.115,0.572,0.227,1.121,0.341,1.684
		c-0.088,0-0.166,0-0.271,0c0.109,0.241,0.208,0.461,0.32,0.708C6.679-1.182,6.648-1.189,6.62-1.202
		C6.385-1.306,6.153-1.417,5.916-1.515c-0.092-0.038-0.125-0.09-0.111-0.184C5.807-1.728,5.801-1.76,5.807-1.79
		c0.015-0.095-0.023-0.136-0.12-0.126C5.673-1.915,5.657-1.918,5.642-1.918c-0.056-0.004-0.096-0.019-0.091-0.09
		c0.004-0.068,0.042-0.077,0.1-0.077c0.169,0,0.168-0.002,0.171-0.172c0.007-0.346,0.016-0.691,0.023-1.037c0-0.038,0-0.076,0-0.142
		C5.758-3.355,5.69-3.291,5.622-3.227c-0.208,0.199-0.42,0.395-0.623,0.599C4.923-2.552,4.856-2.525,4.761-2.584
		C4.724-2.608,4.678-2.621,4.62-2.645C4.57-2.308,4.522-1.982,4.473-1.656C4.464-1.655,4.455-1.654,4.446-1.653
		C4.429-1.694,4.41-1.734,4.396-1.776c-0.112-0.326-0.227-0.652-0.331-0.98C4.028-2.872,3.976-2.956,3.854-2.988
		C3.826-2.995,3.801-3.016,3.766-3.036c0.021-0.045,0.039-0.085,0.061-0.132C3.865-3.154,3.9-3.148,3.928-3.131
		c0.134,0.086,0.25,0.069,0.388-0.019c0.344-0.217,0.699-0.416,1.05-0.623C5.402-3.792,5.436-3.815,5.5-3.857
		c-0.178-0.031-0.332-0.04-0.473-0.086C4.741-4.036,4.53-3.957,4.355-3.717C4.28-3.616,4.177-3.535,4.06-3.457
		c0.004-0.063,0.007-0.125,0.01-0.188c0.011-0.214,0.024-0.429,0.033-0.644c0.004-0.099,0.04-0.174,0.118-0.236
		C4.31-4.597,4.387-4.684,4.477-4.756C4.553-4.818,4.586-4.888,4.58-4.985C4.575-5.042,4.562-5.114,4.664-5.11
		c0.103,0.004,0.089,0.072,0.073,0.129C4.706-4.854,4.759-4.797,4.874-4.75c0.318,0.134,0.631,0.28,0.945,0.424
		c0.049,0.022,0.086,0.034,0.128-0.02c0.371-0.466,0.744-0.93,1.116-1.395C7.07-5.748,7.072-5.76,7.085-5.793
		C6.849-5.749,6.628-5.708,6.407-5.666C6.401-5.674,6.396-5.682,6.391-5.69c0.027-0.033,0.055-0.068,0.083-0.1
		c0.771-0.842,1.541-1.684,2.314-2.522c0.068-0.074,0.084-0.138,0.06-0.235c-0.258-1.009-0.429-2.033-0.552-3.065
		c-0.026-0.222-0.046-0.443-0.071-0.664c-0.004-0.031-0.029-0.062-0.045-0.092c-0.016,0.033-0.044,0.066-0.044,0.1
		c-0.002,0.619-0.002,1.237-0.002,1.855c0,0.741-0.002,1.483,0.002,2.225c0,0.105-0.028,0.178-0.111,0.245
		C7.767-7.736,7.516-7.52,7.263-7.307C7.238-7.286,7.21-7.269,7.158-7.233c0-0.071,0-0.119,0-0.167c0-1.637,0-3.272,0-4.91
		c0-0.23-0.004-0.234-0.26-0.237c0,0.045,0,0.09,0,0.135c0,1.76-0.001,3.52,0.002,5.279c0,0.092-0.025,0.155-0.099,0.215
		C6.545-6.709,6.294-6.495,6.042-6.283C6.013-6.259,5.984-6.237,5.933-6.197c-0.004-0.078-0.009-0.129-0.009-0.18
		c-0.001-2.071-0.001-4.142-0.001-6.213c0-0.223,0-0.223-0.24-0.268c-0.003,0.048-0.008,0.096-0.008,0.142
		c0,2.198-0.001,4.396,0.002,6.593c0,0.106-0.029,0.177-0.112,0.245c-0.248,0.2-0.489,0.408-0.734,0.612
		C4.797-5.238,4.761-5.212,4.705-5.17C4.701-5.25,4.697-5.301,4.697-5.353c0-2.57,0-5.141,0-7.711c0-0.213-0.018-0.233-0.247-0.288
		c0,0.052,0,0.1,0,0.148c0,2.7,0,5.401,0.003,8.103c0,0.109-0.028,0.184-0.115,0.254c-0.253,0.201-0.497,0.413-0.744,0.62
		C3.564-4.202,3.533-4.18,3.482-4.14c-0.004-0.072-0.01-0.122-0.01-0.172c0-3.166-0.003-6.332,0.006-9.497
		c0.001-0.207-0.088-0.316-0.255-0.435c0,0.068,0,0.119,0,0.17c0,3.323-0.001,6.646,0.003,9.969c0,0.136-0.037,0.227-0.146,0.312
		C2.842-3.605,2.615-3.405,2.381-3.209c-0.034,0.028-0.069,0.056-0.126,0.1C2.253-3.173,2.248-3.212,2.248-3.251
		c0-4.48,0.001-8.959-0.001-13.438c-0.001-0.615,0.155-1.161,0.626-1.604c-0.337-0.181-0.539-0.451-0.646-0.84
		c0.323,0.176,0.634,0.14,0.944,0.077c0.203-0.042,0.401-0.104,0.604-0.144c0.285-0.056,0.572-0.125,0.861-0.143
		c0.706-0.044,1.243,0.274,1.674,0.82c0.145,0.184,0.136,0.33,0.031,0.517c-0.412,0.731-1.569,1.012-2.216,0.212
		c-0.016-0.021-0.034-0.04-0.06-0.069c-0.145,0.182-0.231,0.384-0.279,0.602c-0.134,0.609,0.048,1.13,0.46,1.579
		c0.405,0.44,0.921,0.709,1.472,0.919c0.681,0.261,1.391,0.406,2.11,0.507c0.095,0.013,0.189,0.03,0.286,0.034
		c0.026,0.001,0.076-0.036,0.079-0.06c0.068-0.72,0.372-1.338,0.797-1.908c0.179-0.239,0.324-0.497,0.371-0.797
		c0.021-0.137,0.024-0.277,0.038-0.436c-0.587,0.107-1.081-0.025-1.507-0.419c0.091,0.004,0.182,0.008,0.272,0.013
		c-0.372-0.191-0.659-0.461-0.845-0.847c0.584,0.348,1.206,0.564,1.908,0.579c-0.114-0.193-0.24-0.353-0.446-0.427
		c-0.221-0.08-0.392,0.039-0.564,0.174c-0.184-0.315-0.344-0.628-0.312-0.992c0.044-0.511,0.464-0.646,0.791-0.619
		c0.138,0.012,0.275,0.06,0.411,0.1c0.053,0.015,0.087,0.022,0.128-0.026c0.088-0.104,0.211-0.136,0.335-0.096
		c0.189,0.062,0.374,0.137,0.555,0.217c0.199,0.091,0.39,0.199,0.589,0.29c0.407,0.187,0.824,0.318,1.286,0.17
		c-0.077,0.149-0.186,0.269-0.326,0.35c-0.139,0.08-0.288,0.142-0.44,0.216c0.5,1.449,0.788,2.945,0.787,4.512
		c0.334-0.058,0.648-0.107,0.958-0.168c0.649-0.129,1.281-0.314,1.871-0.621c0.404-0.209,0.769-0.468,1.045-0.834
		c0.437-0.579,0.485-1.284,0.129-1.89c-0.022-0.04-0.05-0.075-0.082-0.125c-0.038,0.041-0.067,0.073-0.095,0.106
		c-0.691,0.803-1.922,0.435-2.249-0.384c-0.044-0.11-0.037-0.195,0.036-0.295c0.301-0.411,0.665-0.733,1.173-0.858
		c0.414-0.101,0.823-0.042,1.23,0.048c0.341,0.076,0.68,0.156,1.021,0.226c0.224,0.045,0.443,0.025,0.651-0.079
		c0.012-0.006,0.027-0.005,0.061-0.013c-0.102,0.367-0.3,0.638-0.636,0.815c0.04,0.045,0.074,0.084,0.109,0.123
		c0.326,0.351,0.476,0.773,0.506,1.243c0.006,0.096,0.004,0.192,0.004,0.288c0,4.453,0,8.906,0,13.358c0,0.05,0,0.099,0,0.177
		c-0.052-0.039-0.085-0.06-0.116-0.085c-0.248-0.206-0.492-0.418-0.744-0.619c-0.086-0.07-0.119-0.144-0.119-0.255
		c0.004-1.768,0.002-3.534,0.002-5.302c0-1.567,0-3.135,0-4.702c0-0.05,0-0.099,0-0.182c-0.133,0.13-0.254,0.2-0.254,0.401
		c0.008,3.174,0.005,6.347,0.005,9.521c0,0.053,0,0.106,0,0.19c-0.051-0.035-0.084-0.055-0.114-0.079
		c-0.25-0.21-0.497-0.423-0.752-0.628c-0.082-0.066-0.114-0.136-0.114-0.243c0.003-2.701,0.003-5.402,0.003-8.103
		c0-0.049,0-0.099,0-0.149c-0.197,0.023-0.247,0.077-0.247,0.263c0,2.574,0,5.148,0,7.722c0,0.053,0,0.105,0,0.189
		c-0.056-0.039-0.089-0.059-0.118-0.084c-0.255-0.211-0.506-0.427-0.761-0.635c-0.073-0.059-0.101-0.122-0.101-0.215
		c0.002-2.198,0.002-4.396,0.002-6.593c0-0.05,0-0.1,0-0.148c-0.205-0.006-0.249,0.033-0.249,0.216c0,2.083,0,4.165,0,6.247
		c0,0.052,0,0.104,0,0.189c-0.061-0.045-0.093-0.068-0.123-0.094c-0.254-0.212-0.504-0.428-0.761-0.636
		c-0.071-0.058-0.094-0.118-0.094-0.206c0.003-1.759,0.002-3.52,0.002-5.279c0-0.045,0-0.091,0-0.135
		c-0.023-0.005-0.034-0.012-0.043-0.01c-0.216,0.031-0.216,0.031-0.216,0.251c0,1.633,0,3.266,0,4.898c0,0.048,0,0.096,0,0.17
		c-0.054-0.039-0.085-0.059-0.112-0.082c-0.253-0.212-0.505-0.428-0.761-0.636c-0.077-0.062-0.104-0.129-0.104-0.227
		c0.003-1.348,0.002-2.696,0.001-4.045c0-0.048-0.021-0.097-0.033-0.146c-0.021,0.047-0.055,0.091-0.061,0.14
		c-0.076,0.57-0.128,1.144-0.223,1.71c-0.113,0.665-0.26,1.324-0.398,1.984c-0.02,0.091-0.004,0.15,0.056,0.215
		c0.776,0.843,1.549,1.687,2.322,2.531c0.028,0.03,0.053,0.062,0.067,0.122c-0.221-0.042-0.442-0.083-0.697-0.131
		c0.04,0.055,0.061,0.085,0.082,0.113c0.351,0.438,0.703,0.874,1.051,1.313c0.049,0.062,0.088,0.077,0.163,0.041
		c0.306-0.143,0.612-0.286,0.925-0.414c0.126-0.052,0.175-0.117,0.143-0.249c-0.014-0.06-0.014-0.117,0.076-0.117
		c0.058,0,0.093,0.021,0.083,0.08c-0.025,0.151,0.052,0.251,0.164,0.327c0.248,0.167,0.354,0.389,0.329,0.691
		c-0.016,0.181,0.019,0.366,0.032,0.581c-0.046-0.036-0.072-0.052-0.095-0.074c-0.141-0.141-0.278-0.286-0.422-0.425
		c-0.031-0.03-0.087-0.062-0.126-0.057c-0.257,0.035-0.513,0.079-0.804,0.126c0.058,0.038,0.086,0.06,0.117,0.077
		c0.374,0.221,0.75,0.436,1.12,0.663c0.101,0.062,0.186,0.071,0.285,0.013c0.043-0.025,0.091-0.04,0.147-0.064
		c0.023,0.044,0.043,0.083,0.071,0.139C16.228-3.024,16.215-3.014,16.2-3.01c-0.187,0.04-0.24,0.185-0.289,0.344
		c-0.095,0.304-0.203,0.604-0.307,0.905c-0.012,0.035-0.027,0.07-0.04,0.104c-0.011,0-0.021,0-0.032,0
		C15.484-1.982,15.435-2.306,15.385-2.637z M9.351-19.617c0.003,0.246,0.095,0.427,0.218,0.595c0.012,0.016,0.078,0.012,0.1-0.006
		c0.088-0.07,0.169-0.15,0.275-0.247c-0.082-0.04-0.166-0.104-0.189-0.085c-0.074,0.054-0.127,0.139-0.199,0.226
		c0.006-0.107,0.016-0.204,0.016-0.301c0-0.03-0.019-0.071-0.041-0.089C9.485-19.556,9.43-19.577,9.351-19.617z"/>
	<path fill-rule="evenodd" clip-rule="evenodd" fill="#F2F2F2" d="M15.385,17.363c-0.035,0.01-0.063,0.014-0.083,0.027
		c-0.135,0.091-0.232,0.055-0.343-0.06c-0.22-0.229-0.457-0.443-0.688-0.664c-0.029-0.029-0.062-0.055-0.109-0.098
		c0,0.115-0.003,0.209,0,0.303c0.006,0.308,0.019,0.614,0.019,0.921c0,0.101,0.027,0.145,0.131,0.125
		c0.016-0.003,0.031-0.001,0.046-0.002c0.062-0.007,0.106,0.019,0.091,0.081c-0.005,0.033-0.047,0.076-0.079,0.082
		c-0.171,0.034-0.18,0.031-0.166,0.206c0.009,0.116-0.034,0.17-0.137,0.213c-0.254,0.105-0.503,0.222-0.755,0.334
		c-0.01-0.007-0.02-0.014-0.029-0.02c0.099-0.219,0.197-0.438,0.303-0.675c-0.093,0-0.17,0-0.267,0
		c0.114-0.565,0.226-1.116,0.34-1.683c-0.045,0.02-0.076,0.03-0.105,0.045c-0.283,0.146-0.564,0.295-0.85,0.436
		c-0.086,0.042-0.113,0.095-0.114,0.188c0,0.169-0.014,0.337-0.024,0.506c0,0.025-0.009,0.05-0.014,0.075
		c-0.015,0.011-0.029,0.023-0.044,0.034c-0.017-0.033-0.027-0.072-0.051-0.1c-0.152-0.184-0.31-0.362-0.458-0.548
		c-0.037-0.045-0.051-0.114-0.063-0.175c-0.01-0.051-0.001-0.107,0.003-0.16c0.012-0.174,0.071-0.358-0.128-0.467
		c0.098-0.132,0.109-0.137,0.193-0.03c0.07,0.088,0.138,0.104,0.247,0.071c0.386-0.115,0.775-0.219,1.163-0.328
		c0.025-0.008,0.05-0.018,0.098-0.036c-0.414-0.383-0.816-0.757-1.233-1.143c0,0.361,0,0.703,0,1.044
		c-0.008,0.007-0.015,0.013-0.024,0.018c-0.371-0.555-0.741-1.112-1.112-1.667c0,0.291-0.012,0.574,0.002,0.856
		c0.027,0.563,0.078,1.124,0.204,1.677c0.087,0.383,0.198,0.758,0.411,1.093c0.326,0.515,0.756,0.682,1.342,0.521
		c0.032-0.009,0.064-0.016,0.14-0.033c-0.052,0.12-0.08,0.218-0.133,0.301c-0.149,0.235-0.38,0.367-0.637,0.448
		c-0.51,0.16-1.006,0.146-1.483-0.166c-0.321,0.354-0.644,0.712-0.982,1.087c-0.332-0.368-0.657-0.728-0.978-1.083
		c-0.6,0.355-1.192,0.339-1.785,0.025c-0.206-0.108-0.36-0.272-0.43-0.503c-0.008-0.028-0.011-0.058-0.021-0.104
		c0.077,0.018,0.139,0.032,0.199,0.047c0.48,0.119,0.872-0.018,1.169-0.412c0.275-0.364,0.404-0.79,0.502-1.227
		c0.131-0.589,0.185-1.189,0.205-1.792c0.009-0.241,0.002-0.483,0.002-0.739c-0.37,0.557-0.741,1.111-1.11,1.665
		c-0.009-0.002-0.017-0.005-0.024-0.007c0-0.343,0-0.686,0-1.053c-0.417,0.386-0.82,0.759-1.235,1.144
		c0.049,0.018,0.08,0.031,0.111,0.04c0.38,0.107,0.762,0.21,1.14,0.323c0.11,0.033,0.185,0.025,0.257-0.072
		c0.079-0.106,0.098-0.099,0.192,0.036c-0.201,0.103-0.147,0.286-0.127,0.455c0.023,0.184-0.021,0.33-0.154,0.465
		c-0.156,0.157-0.29,0.336-0.457,0.531c-0.01-0.068-0.017-0.103-0.019-0.138c-0.011-0.176-0.017-0.353-0.03-0.529
		c-0.002-0.037-0.021-0.089-0.049-0.103c-0.328-0.175-0.659-0.343-1.016-0.527c0.115,0.572,0.227,1.121,0.341,1.684
		c-0.088,0-0.166,0-0.271,0c0.109,0.241,0.208,0.461,0.32,0.708c-0.056-0.018-0.087-0.024-0.116-0.037
		c-0.234-0.104-0.467-0.215-0.704-0.313c-0.092-0.038-0.125-0.09-0.111-0.184c0.003-0.029-0.003-0.062,0.003-0.091
		c0.015-0.095-0.023-0.136-0.12-0.126c-0.015,0.002-0.031-0.002-0.045-0.002c-0.056-0.004-0.096-0.019-0.091-0.09
		c0.004-0.068,0.042-0.077,0.1-0.077c0.169,0,0.168-0.002,0.171-0.172c0.007-0.346,0.016-0.691,0.023-1.037c0-0.038,0-0.076,0-0.142
		c-0.087,0.081-0.155,0.145-0.224,0.209c-0.208,0.199-0.42,0.395-0.623,0.599c-0.075,0.076-0.143,0.103-0.237,0.043
		c-0.038-0.023-0.083-0.036-0.142-0.061c-0.05,0.337-0.098,0.663-0.146,0.989c-0.009,0.001-0.019,0.001-0.027,0.003
		c-0.017-0.041-0.036-0.081-0.05-0.123c-0.112-0.326-0.227-0.652-0.331-0.98c-0.037-0.115-0.089-0.199-0.211-0.231
		c-0.028-0.007-0.053-0.028-0.088-0.048c0.021-0.045,0.039-0.085,0.061-0.132c0.038,0.014,0.074,0.02,0.101,0.037
		c0.134,0.086,0.25,0.069,0.388-0.019c0.344-0.217,0.699-0.416,1.05-0.623c0.036-0.021,0.07-0.043,0.134-0.085
		c-0.178-0.031-0.332-0.04-0.473-0.086c-0.286-0.093-0.497-0.014-0.672,0.226c-0.075,0.101-0.178,0.183-0.295,0.261
		c0.004-0.063,0.007-0.125,0.01-0.188c0.011-0.214,0.024-0.429,0.033-0.644c0.004-0.099,0.04-0.174,0.118-0.236
		c0.089-0.072,0.167-0.159,0.257-0.231c0.076-0.062,0.108-0.132,0.103-0.229c-0.004-0.058-0.018-0.129,0.084-0.125
		c0.103,0.004,0.089,0.072,0.073,0.129c-0.031,0.127,0.022,0.184,0.137,0.231c0.318,0.134,0.631,0.28,0.945,0.424
		c0.049,0.022,0.086,0.034,0.128-0.02c0.371-0.466,0.744-0.93,1.116-1.395c0.007-0.008,0.009-0.021,0.021-0.053
		c-0.235,0.044-0.456,0.085-0.678,0.126c-0.006-0.008-0.011-0.016-0.016-0.023c0.027-0.033,0.055-0.068,0.083-0.1
		c0.771-0.842,1.541-1.684,2.314-2.522c0.068-0.074,0.084-0.138,0.06-0.235C8.59,10.444,8.419,9.419,8.295,8.387
		C8.269,8.166,8.25,7.944,8.224,7.723C8.22,7.692,8.195,7.662,8.179,7.631c-0.016,0.033-0.044,0.066-0.044,0.1
		C8.133,8.35,8.133,8.968,8.133,9.586c0,0.741-0.002,1.483,0.002,2.225c0,0.105-0.028,0.178-0.111,0.245
		c-0.257,0.208-0.508,0.424-0.761,0.637c-0.025,0.021-0.054,0.038-0.105,0.074c0-0.071,0-0.119,0-0.167c0-1.637,0-3.272,0-4.91
		c0-0.23-0.004-0.234-0.26-0.237c0,0.045,0,0.09,0,0.135c0,1.76-0.001,3.52,0.002,5.279c0,0.092-0.025,0.155-0.099,0.215
		c-0.257,0.208-0.508,0.423-0.761,0.635c-0.028,0.023-0.058,0.046-0.108,0.085c-0.004-0.078-0.009-0.129-0.009-0.18
		C5.923,11.551,5.923,9.481,5.923,7.41c0-0.223,0-0.223-0.24-0.268C5.68,7.189,5.675,7.238,5.675,7.284
		c0,2.198-0.001,4.396,0.002,6.593c0,0.106-0.029,0.177-0.112,0.245c-0.248,0.2-0.489,0.408-0.734,0.612
		c-0.034,0.028-0.07,0.054-0.126,0.096c-0.004-0.079-0.008-0.131-0.008-0.183c0-2.57,0-5.141,0-7.711
		c0-0.213-0.018-0.233-0.247-0.288c0,0.052,0,0.1,0,0.148c0,2.7,0,5.401,0.003,8.103c0,0.109-0.028,0.184-0.115,0.254
		c-0.253,0.201-0.497,0.413-0.744,0.62c-0.029,0.025-0.06,0.047-0.111,0.087c-0.004-0.072-0.01-0.122-0.01-0.172
		c0-3.166-0.003-6.332,0.006-9.497C3.479,5.984,3.39,5.875,3.223,5.756c0,0.068,0,0.119,0,0.17c0,3.323-0.001,6.646,0.003,9.969
		c0,0.136-0.037,0.227-0.146,0.312c-0.238,0.187-0.466,0.388-0.699,0.583c-0.034,0.028-0.069,0.056-0.126,0.1
		c-0.003-0.063-0.007-0.103-0.007-0.142c0-4.48,0.001-8.959-0.001-13.438C2.246,2.695,2.402,2.149,2.873,1.707
		c-0.337-0.181-0.539-0.451-0.646-0.84c0.323,0.176,0.634,0.14,0.944,0.077c0.203-0.042,0.401-0.104,0.604-0.144
		C4.06,0.744,4.347,0.674,4.636,0.657c0.706-0.044,1.243,0.274,1.674,0.82c0.145,0.184,0.136,0.33,0.031,0.517
		C5.929,2.725,4.772,3.005,4.126,2.206c-0.016-0.021-0.034-0.04-0.06-0.069C3.92,2.318,3.835,2.521,3.787,2.738
		c-0.134,0.609,0.048,1.13,0.46,1.579c0.405,0.44,0.921,0.709,1.472,0.919C6.4,5.497,7.11,5.642,7.829,5.743
		c0.095,0.013,0.189,0.03,0.286,0.034c0.026,0.001,0.076-0.036,0.079-0.06c0.068-0.72,0.372-1.338,0.797-1.908
		C9.169,3.57,9.315,3.312,9.362,3.012C9.383,2.875,9.386,2.735,9.4,2.577C8.813,2.684,8.319,2.551,7.893,2.157
		C7.984,2.162,8.075,2.166,8.166,2.17C7.794,1.979,7.506,1.709,7.321,1.324c0.584,0.348,1.206,0.564,1.908,0.579
		C9.115,1.709,8.989,1.55,8.783,1.476C8.562,1.396,8.391,1.515,8.218,1.65C8.035,1.334,7.875,1.022,7.907,0.658
		c0.044-0.511,0.464-0.646,0.791-0.619c0.138,0.012,0.275,0.06,0.411,0.1c0.053,0.015,0.087,0.022,0.128-0.026
		c0.088-0.104,0.211-0.136,0.335-0.096c0.189,0.062,0.374,0.137,0.555,0.217c0.199,0.091,0.39,0.199,0.589,0.29
		c0.407,0.187,0.824,0.318,1.286,0.17c-0.077,0.149-0.186,0.269-0.326,0.35c-0.139,0.08-0.288,0.142-0.44,0.216
		c0.5,1.449,0.788,2.945,0.787,4.512c0.334-0.058,0.648-0.107,0.958-0.168c0.649-0.129,1.281-0.314,1.871-0.621
		c0.404-0.209,0.769-0.468,1.045-0.834c0.437-0.579,0.485-1.284,0.129-1.89c-0.022-0.04-0.05-0.075-0.082-0.125
		c-0.038,0.041-0.067,0.073-0.095,0.106c-0.691,0.803-1.922,0.435-2.249-0.384c-0.044-0.11-0.037-0.195,0.036-0.295
		c0.301-0.411,0.665-0.733,1.173-0.858c0.414-0.101,0.823-0.042,1.23,0.048c0.341,0.076,0.68,0.156,1.021,0.226
		c0.224,0.045,0.443,0.025,0.651-0.079c0.012-0.006,0.027-0.005,0.061-0.013c-0.102,0.367-0.3,0.638-0.636,0.815
		c0.04,0.045,0.074,0.084,0.109,0.123c0.326,0.351,0.476,0.773,0.506,1.243c0.006,0.096,0.004,0.192,0.004,0.288
		c0,4.453,0,8.906,0,13.358c0,0.05,0,0.099,0,0.177c-0.052-0.039-0.085-0.06-0.116-0.085c-0.248-0.206-0.492-0.418-0.744-0.619
		c-0.086-0.07-0.119-0.144-0.119-0.255c0.004-1.768,0.002-3.534,0.002-5.302c0-1.567,0-3.135,0-4.702c0-0.05,0-0.099,0-0.182
		c-0.133,0.13-0.254,0.2-0.254,0.401c0.008,3.174,0.005,6.347,0.005,9.521c0,0.053,0,0.106,0,0.19
		c-0.051-0.035-0.084-0.055-0.114-0.079c-0.25-0.21-0.497-0.423-0.752-0.628c-0.082-0.066-0.114-0.136-0.114-0.243
		c0.003-2.701,0.003-5.402,0.003-8.103c0-0.049,0-0.099,0-0.149c-0.197,0.023-0.247,0.077-0.247,0.263c0,2.574,0,5.148,0,7.722
		c0,0.053,0,0.105,0,0.189c-0.056-0.039-0.089-0.059-0.118-0.084c-0.255-0.211-0.506-0.427-0.761-0.635
		c-0.073-0.059-0.101-0.122-0.101-0.215c0.002-2.198,0.002-4.396,0.002-6.593c0-0.05,0-0.1,0-0.148
		c-0.205-0.006-0.249,0.033-0.249,0.216c0,2.083,0,4.165,0,6.247c0,0.052,0,0.104,0,0.189c-0.061-0.045-0.093-0.068-0.123-0.094
		c-0.254-0.212-0.504-0.428-0.761-0.636c-0.071-0.058-0.094-0.118-0.094-0.206c0.003-1.759,0.002-3.52,0.002-5.279
		c0-0.045,0-0.091,0-0.135c-0.023-0.005-0.034-0.012-0.043-0.01c-0.216,0.031-0.216,0.031-0.216,0.251c0,1.633,0,3.266,0,4.898
		c0,0.048,0,0.096,0,0.17c-0.054-0.039-0.085-0.059-0.112-0.082c-0.253-0.212-0.505-0.428-0.761-0.636
		c-0.077-0.062-0.104-0.129-0.104-0.227c0.003-1.348,0.002-2.696,0.001-4.045c0-0.048-0.021-0.097-0.033-0.146
		c-0.021,0.047-0.055,0.091-0.061,0.14c-0.076,0.57-0.128,1.144-0.223,1.71c-0.113,0.665-0.26,1.324-0.398,1.984
		c-0.02,0.091-0.004,0.15,0.056,0.215c0.776,0.843,1.549,1.687,2.322,2.531c0.028,0.03,0.053,0.062,0.067,0.122
		c-0.221-0.042-0.442-0.083-0.697-0.131c0.04,0.055,0.061,0.085,0.082,0.113c0.351,0.438,0.703,0.874,1.051,1.313
		c0.049,0.062,0.088,0.077,0.163,0.041c0.306-0.143,0.612-0.286,0.925-0.414c0.126-0.052,0.175-0.117,0.143-0.249
		c-0.014-0.06-0.014-0.117,0.076-0.117c0.058,0,0.093,0.021,0.083,0.08c-0.025,0.151,0.052,0.251,0.164,0.327
		c0.248,0.167,0.354,0.389,0.329,0.691c-0.016,0.181,0.019,0.366,0.032,0.581c-0.046-0.036-0.072-0.052-0.095-0.074
		c-0.141-0.141-0.278-0.286-0.422-0.425c-0.031-0.03-0.087-0.062-0.126-0.057c-0.257,0.035-0.513,0.079-0.804,0.126
		c0.058,0.038,0.086,0.06,0.117,0.077c0.374,0.221,0.75,0.436,1.12,0.663c0.101,0.062,0.186,0.071,0.285,0.013
		c0.043-0.025,0.091-0.04,0.147-0.064c0.023,0.044,0.043,0.083,0.071,0.139c-0.015,0.008-0.028,0.018-0.043,0.021
		c-0.187,0.04-0.24,0.185-0.289,0.344c-0.095,0.304-0.203,0.604-0.307,0.905c-0.012,0.035-0.027,0.07-0.04,0.104
		c-0.011,0-0.021,0-0.032,0C15.484,18.018,15.435,17.694,15.385,17.363z M9.351,0.383c0.003,0.246,0.095,0.427,0.218,0.595
		c0.012,0.016,0.078,0.012,0.1-0.006c0.088-0.07,0.169-0.15,0.275-0.247C9.862,0.686,9.778,0.622,9.754,0.64
		C9.68,0.694,9.628,0.779,9.555,0.866c0.006-0.107,0.016-0.204,0.016-0.301c0-0.03-0.019-0.071-0.041-0.089
		C9.485,0.444,9.43,0.423,9.351,0.383z"/>
	<path fill="#F2F2F2" d="M38.358,2.527c-2.302-2.291-6.026-2.281-8.316,0.022c-2.291-2.304-6.014-2.313-8.316-0.022
		c-2.303,2.29-2.356,5.983,0.176,8.516c2.827,2.825,7.35,7.35,8.14,8.143c0.792-0.792,5.314-5.317,8.141-8.143
		C40.716,8.51,40.662,4.817,38.358,2.527z M32.086,8.033l-0.46,1.106h-2.561c-0.012,0.075-0.012,0.162-0.012,0.261
		c0,0.112,0,0.211,0.012,0.286h2.35l-0.461,1.106h-1.665c0.311,0.746,0.858,1.119,1.642,1.119c0.533,0,1.106-0.212,1.727-0.621
		v2.312c-0.585,0.261-1.268,0.385-2.051,0.385c-0.994,0-1.839-0.287-2.536-0.858c-0.684-0.583-1.155-1.354-1.417-2.335h-0.97
		l0.459-1.106h0.348c-0.012-0.063-0.012-0.162-0.012-0.273c0-0.112,0-0.212,0.012-0.274H25.66l0.46-1.106h0.534
		c0.261-0.982,0.733-1.765,1.441-2.349c0.708-0.584,1.554-0.882,2.561-0.882c0.796,0,1.628,0.236,2.499,0.696l-0.883,1.876
		c-0.497-0.323-0.981-0.484-1.454-0.484c-0.721,0-1.243,0.385-1.554,1.143H32.086z"/>
</g>
</svg>
