<?xml version="1.0" encoding="utf-8"?>
<!-- Generator: Adobe Illustrator 16.0.3, SVG Export Plug-In . SVG Version: 6.00 Build 0)  -->
<!DOCTYPE svg PUBLIC "-//W3C//DTD SVG 1.1//EN" "http://www.w3.org/Graphics/SVG/1.1/DTD/svg11.dtd">
<svg version="1.1" id="Ebene_1" xmlns="http://www.w3.org/2000/svg" xmlns:xlink="http://www.w3.org/1999/xlink" x="0px" y="0px"
	 width="20px" height="20px" viewBox="0 0 20 20" enable-background="new 0 0 20 20" xml:space="preserve">
<g>
	<g>
		<g>
			<path fill="#F2F2F2" d="M-0.249,3.056c-0.16-0.161-0.373-0.249-0.6-0.249c-0.454,0-0.85,0.395-0.85,0.849v3.388
				c0.222,0.061,0.427,0.179,0.591,0.343c0.251,0.251,0.39,0.585,0.39,0.941s-0.139,0.69-0.39,0.941v0l-2.671,2.67
				c-0.094,0.094-0.246,0.094-0.341,0c-0.094-0.095-0.094-0.247,0-0.342l2.67-2.67v0c0.161-0.16,0.249-0.373,0.249-0.6
				c0-0.227-0.088-0.44-0.249-0.601C-1.574,7.602-1.73,7.524-1.902,7.494l-0.062-0.006c-0.258-0.026-0.508,0.061-0.686,0.239
				l-5.651,5.653c-0.315,0.316-0.495,0.738-0.503,1.188l-0.003,3.648c0,0.234,0.19,0.423,0.424,0.423h3.032
				c0.233,0,0.423-0.189,0.423-0.423v-1.184l4.679-4.678C-0.089,12.194,0,11.981,0,11.753V3.656C0,3.429-0.088,3.216-0.249,3.056z"
				/>
		</g>
	</g>
</g>
<g>
	<rect x="1.55" y="7.458" fill="#F2F2F2" width="16.854" height="0.919"/>
	<rect x="1.55" y="16.95" fill="#F2F2F2" width="16.854" height="0.678"/>
	<rect x="0.824" y="17.627" fill="#F2F2F2" width="18.403" height="0.679"/>
	<rect y="18.306" fill="#F2F2F2" width="20" height="0.92"/>
	<rect x="16.224" y="8.377" fill="#F2F2F2" width="1.355" height="8.523"/>
	<rect x="11.622" y="8.377" fill="#F2F2F2" width="1.356" height="8.523"/>
	<rect x="7.021" y="8.377" fill="#F2F2F2" width="1.356" height="8.523"/>
	<rect x="2.374" y="8.377" fill="#F2F2F2" width="1.355" height="8.523"/>
	<path fill="#F2F2F2" d="M10.014,0.775L0.824,6.924v0.534h18.403V6.924L10.014,0.775z M9.904,6.489
		c-0.896,0-1.624-0.727-1.624-1.622c0-0.896,0.728-1.622,1.624-1.622s1.621,0.726,1.621,1.622
		C11.525,5.762,10.801,6.489,9.904,6.489z"/>
</g>
<g>
	<path fill="#F2F2F2" d="M39.965,7.597c-0.059-0.834-0.461-4.574-5.811-4.653c-5.352-0.079-5.408,3.416-5.914,3.678
		c-0.506,0.263-0.469,0.341-0.469,0.341v2.618l-1.443,0.719l-3.105-5.12c0,0,0.072-0.792,0.238-1.342
		c0.066-0.216,0.279-0.193,0.309-0.374c0.031-0.196-0.096-0.343-0.115-0.417c-0.086-0.316-1.568-0.005-2.389,0.465
		C21,3.664,20.018,4.597,20,5.008c-0.025,0.633,0.777,0.345,0.777,0.345l1.381,0.518l5.725,9.656c0,0-0.496,0.898,0.42,1.279
		c0.906,0.376,2.43,0.216,3.926,0.259c2.193,0.063,4.318-0.049,4.715-0.205c0.662-0.259,0.201-1.467,0.201-1.467
		s-0.107-0.18,1.008-1.697C40.244,10.847,40.021,8.432,39.965,7.597z M37.135,11.155c-0.037-2.896,0.23-4.296-0.133-4.392
		c-0.557-0.211-5.428,0-5.428,0l-1.535-0.805c0,0-0.268-0.211,0-0.557c0.27-0.345,1.479-1.745,4.719-1.342
		c3.24,0.402,4.277,2.685,4.295,3.854c0.02,1.169-0.402,2.646-0.709,3.241S37.174,14.05,37.135,11.155z"/>
</g>
</svg>
