<?xml version="1.0" encoding="utf-8"?>
<!-- Generator: Adobe Illustrator 16.0.3, SVG Export Plug-In . SVG Version: 6.00 Build 0)  -->
<!DOCTYPE svg PUBLIC "-//W3C//DTD SVG 1.1//EN" "http://www.w3.org/Graphics/SVG/1.1/DTD/svg11.dtd">
<svg version="1.1" id="Ebene_1" xmlns="http://www.w3.org/2000/svg" xmlns:xlink="http://www.w3.org/1999/xlink" x="0px" y="0px"
	 width="20px" height="20px" viewBox="0 0 20 20" enable-background="new 0 0 20 20" xml:space="preserve">
<g>
	<g>
		<path fill="#FFFFFF" d="M10.656,0c-0.42,0-0.834-0.108-1.197-0.314C9.02-0.582,8.504-0.646,7.99-0.508
			C6.98-0.243,5.898-0.645,5.326-1.479C5.041-1.896,4.582-2.191,4.068-2.29C3.064-2.48,2.277-3.297,2.105-4.321
			C2.027-4.849,1.762-5.289,1.332-5.601C0.508-6.231,0.148-7.31,0.436-8.288c0.141-0.525,0.088-1.043-0.154-1.491
			c-0.486-0.923-0.332-2.069,0.383-2.854c0.346-0.364,0.521-0.857,0.502-1.393c-0.047-1.034,0.566-1.989,1.527-2.374
			c0.479-0.191,0.848-0.553,1.064-1.046c0.414-0.951,1.379-1.548,2.422-1.476l0.08,0.001c0.518,0,0.977-0.167,1.328-0.483
			c0.762-0.668,1.939-0.789,2.814-0.292c0.439,0.268,0.955,0.333,1.469,0.194c1.01-0.264,2.092,0.136,2.664,0.971
			c0.285,0.417,0.744,0.713,1.258,0.812c1.004,0.19,1.791,1.007,1.963,2.031c0.078,0.527,0.346,0.968,0.773,1.279
			c0.824,0.632,1.184,1.71,0.896,2.688c-0.141,0.524-0.088,1.042,0.154,1.49c0.486,0.922,0.332,2.068-0.383,2.855
			c-0.346,0.364-0.521,0.857-0.502,1.393c0.049,1.034-0.566,1.988-1.527,2.373c-0.479,0.192-0.848,0.554-1.064,1.047
			c-0.391,0.9-1.277,1.482-2.254,1.482l0,0c-0.055,0-0.111-0.002-0.168-0.006L13.6-1.089c-0.518,0-0.975,0.167-1.324,0.483
			C11.826-0.214,11.254,0,10.656,0z M8.514-1.073c0.426,0,0.838,0.115,1.197,0.333c0.682,0.387,1.631,0.294,2.236-0.235
			c0.439-0.396,1.012-0.607,1.652-0.607l0.109,0.002c0.053,0.003,0.096,0.005,0.141,0.005c0.779,0,1.486-0.466,1.801-1.186
			c0.271-0.615,0.732-1.066,1.334-1.308c0.766-0.306,1.256-1.067,1.219-1.893c-0.027-0.671,0.197-1.292,0.631-1.75
			c0.572-0.629,0.699-1.549,0.311-2.286c-0.303-0.559-0.371-1.202-0.193-1.856c0.23-0.788-0.059-1.653-0.719-2.158
			c-0.531-0.387-0.867-0.941-0.965-1.598c-0.137-0.816-0.766-1.47-1.566-1.623c-0.645-0.124-1.217-0.495-1.574-1.019
			c-0.455-0.665-1.326-0.981-2.129-0.771c-0.635,0.17-1.307,0.083-1.848-0.246c-0.68-0.386-1.631-0.292-2.236,0.236
			C7.475-18.637,6.9-18.426,6.26-18.426l-0.107-0.002C6.1-18.432,6.055-18.433,6.01-18.433c-0.779,0-1.484,0.466-1.799,1.186
			c-0.271,0.615-0.732,1.066-1.334,1.307C2.1-15.629,1.621-14.886,1.66-14.047c0.025,0.672-0.199,1.292-0.635,1.75
			c-0.57,0.628-0.695,1.548-0.309,2.285C1.02-9.452,1.088-8.809,0.91-8.154C0.676-7.354,0.959-6.509,1.629-5.997
			c0.533,0.387,0.869,0.941,0.965,1.599C2.73-3.582,3.359-2.928,4.16-2.776c0.645,0.124,1.217,0.495,1.574,1.019
			c0.455,0.665,1.326,0.981,2.129,0.772C8.078-1.043,8.299-1.073,8.514-1.073z M8.188-5.756L4.375-9.569l1.223-1.222l2.59,2.614
			l6.078-6.077l1.221,1.221L8.188-5.756z M5.074-9.569l3.113,3.114l6.6-6.578l-0.521-0.521l-6.08,6.078l-2.59-2.614L5.074-9.569z"/>
	</g>
</g>
<g>
	<path fill="#F2F2F2" d="M40,8.877c-1.138,0.654-2.242,1.29-3.385,1.952l-0.189,0.11v-0.047l-0.005-0.017
		c-0.004-0.076-0.004-0.151-0.004-0.228c-0.004-0.299-0.008-0.641-0.101-0.991c-0.076-0.287-0.194-0.586-0.548-0.818l-0.098-0.063
		c-0.181-0.118-0.37-0.245-0.586-0.35c-0.561-0.278-1.172-0.485-1.859-0.632c-1.008-0.207-2.062-0.308-3.221-0.308
		c-0.278,0-0.557,0.004-0.835,0.017c-0.662,0.03-1.201,0.072-1.699,0.144c-1.163,0.173-2.065,0.456-2.871,0.911
		c-0.328,0.181-0.742,0.413-0.89,1.024c-0.097,0.388-0.147,0.852-0.173,1.324l-0.287-0.169l-0.603-0.341l-0.067-0.042l-0.253-0.148
		l-0.067-0.042l-0.784-0.447C21.008,9.443,20.527,9.169,20,8.865c0.236-0.147,0.409-0.261,0.587-0.362
		c2.993-1.687,5.99-3.369,8.976-5.067c0.324-0.182,0.564-0.182,0.89,0.004c3.035,1.729,6.083,3.436,9.123,5.152
		C39.706,8.663,39.828,8.755,40,8.877z"/>
</g>
</svg>
