<?xml version="1.0" encoding="utf-8"?>
<!-- Generator: Adobe Illustrator 16.0.3, SVG Export Plug-In . SVG Version: 6.00 Build 0)  -->
<!DOCTYPE svg PUBLIC "-//W3C//DTD SVG 1.1//EN" "http://www.w3.org/Graphics/SVG/1.1/DTD/svg11.dtd">
<svg version="1.1" id="Ebene_1" xmlns="http://www.w3.org/2000/svg" xmlns:xlink="http://www.w3.org/1999/xlink" x="0px" y="0px"
	 width="20px" height="20px" viewBox="0 0 20 20" enable-background="new 0 0 20 20" xml:space="preserve">
<g id="Neues_Symbol_11">
</g>
<g id="Neues_Symbol_5">
</g>
<g>
	<g>
		<path fill="#F2F2F2" d="M1.037,10.429c-0.098,0.096-0.213,0.145-0.35,0.145c-0.139,0-0.257-0.049-0.354-0.145
			c-0.096-0.098-0.145-0.215-0.145-0.354c0-0.136,0.049-0.254,0.145-0.354c0.097-0.096,0.215-0.145,0.354-0.145
			c0.137,0,0.252,0.049,0.35,0.145c0.1,0.101,0.15,0.219,0.15,0.354C1.188,10.214,1.137,10.332,1.037,10.429z M0.537,10.107
			c-0.004-1.438,0.391-2.476,1.18-3.115c0.58-0.473,1.334-0.708,2.264-0.708c0.533,0,1.025,0.064,1.48,0.192L5.354,6.825
			c0.011-0.011-0.12-0.041-0.393-0.091C4.629,6.673,4.303,6.643,3.98,6.643c-0.848,0-1.525,0.209-2.033,0.627
			C1.251,7.842,0.9,8.788,0.896,10.107c0.004,1.255,0.322,2.156,0.955,2.703c0.473,0.407,1.107,0.611,1.908,0.611
			c0.361,0,0.736-0.042,1.121-0.124c0.258-0.054,0.414-0.095,0.467-0.123l0.118,0.343c-0.626,0.179-1.194,0.269-1.706,0.269
			c-0.889,0-1.604-0.234-2.145-0.702C0.893,12.464,0.533,11.472,0.537,10.107z M0.537,10.107c-0.004-1.438,0.391-2.476,1.18-3.115
			c0.58-0.473,1.334-0.708,2.264-0.708c0.533,0,1.025,0.064,1.48,0.192L5.354,6.825c0.011-0.011-0.12-0.041-0.393-0.091
			C4.629,6.673,4.303,6.643,3.98,6.643c-0.848,0-1.525,0.209-2.033,0.627C1.251,7.842,0.9,8.788,0.896,10.107
			c0.004,1.255,0.322,2.156,0.955,2.703c0.473,0.407,1.107,0.611,1.908,0.611c0.361,0,0.736-0.042,1.121-0.124
			c0.258-0.054,0.414-0.095,0.467-0.123l0.118,0.343c-0.626,0.179-1.194,0.269-1.706,0.269c-0.889,0-1.604-0.234-2.145-0.702
			C0.893,12.464,0.533,11.472,0.537,10.107z M5.761,7.002c-0.097,0.1-0.214,0.149-0.354,0.149c-0.135,0-0.252-0.05-0.348-0.149
			c-0.1-0.097-0.15-0.213-0.15-0.349c0-0.14,0.051-0.258,0.15-0.354c0.096-0.097,0.213-0.145,0.348-0.145
			c0.141,0,0.258,0.048,0.354,0.145s0.146,0.215,0.146,0.354C5.906,6.79,5.857,6.906,5.761,7.002z M5.761,7.002
			c-0.097,0.1-0.214,0.149-0.354,0.149c-0.135,0-0.252-0.05-0.348-0.149c-0.1-0.097-0.15-0.213-0.15-0.349
			c0-0.14,0.051-0.258,0.15-0.354c0.096-0.097,0.213-0.145,0.348-0.145c0.141,0,0.258,0.048,0.354,0.145s0.146,0.215,0.146,0.354
			C5.906,6.79,5.857,6.906,5.761,7.002z M5.059,13.7c-0.1-0.097-0.15-0.215-0.15-0.354c0-0.135,0.051-0.252,0.15-0.348
			c0.096-0.101,0.213-0.15,0.348-0.15c0.141,0,0.258,0.05,0.354,0.15c0.097,0.096,0.146,0.213,0.146,0.348
			c0,0.14-0.049,0.258-0.146,0.354s-0.214,0.145-0.354,0.145C5.271,13.844,5.154,13.796,5.059,13.7z M5.761,13.7
			c-0.097,0.097-0.214,0.145-0.354,0.145c-0.135,0-0.252-0.048-0.348-0.145c-0.1-0.097-0.15-0.215-0.15-0.354
			c0-0.135,0.051-0.252,0.15-0.348c0.096-0.101,0.213-0.15,0.348-0.15c0.141,0,0.258,0.05,0.354,0.15
			c0.097,0.096,0.146,0.213,0.146,0.348C5.906,13.485,5.857,13.603,5.761,13.7z"/>
		<path fill="#F2F2F2" d="M5.406,14.034c-0.182,0-0.34-0.063-0.471-0.189c-1.492,0.31-2.648,0.071-3.443-0.618
			c-0.654-0.561-1.031-1.414-1.123-2.538c-0.061-0.032-0.117-0.074-0.168-0.125C0.066,10.429,0,10.265,0,10.075
			c0-0.186,0.066-0.349,0.197-0.485c0.055-0.055,0.114-0.098,0.178-0.13C0.48,8.296,0.891,7.417,1.598,6.844
			c0.611-0.497,1.412-0.75,2.383-0.75c0.327,0,0.645,0.024,0.943,0.071c0.002-0.001,0.002-0.001,0.004-0.003
			c0.262-0.262,0.704-0.26,0.967,0.003c0.133,0.133,0.201,0.297,0.201,0.488c0,0.184-0.07,0.351-0.201,0.482
			C5.637,7.405,5.191,7.413,4.922,7.133C4.85,7.064,4.796,6.982,4.762,6.892C4.498,6.852,4.236,6.832,3.98,6.832
			c-0.798,0-1.441,0.197-1.912,0.585C1.523,7.864,1.201,8.576,1.113,9.535c0.02,0.017,0.039,0.034,0.057,0.052
			c0.137,0.138,0.206,0.302,0.206,0.488c0,0.191-0.069,0.356-0.208,0.49c-0.02,0.02-0.039,0.037-0.061,0.054
			c0.077,0.928,0.369,1.617,0.867,2.048c0.436,0.375,1.036,0.565,1.785,0.565c0.318,0,0.652-0.034,0.994-0.102
			c0.033-0.1,0.092-0.19,0.174-0.27c0.256-0.267,0.707-0.267,0.969,0.006c0.129,0.128,0.199,0.294,0.199,0.479
			c0,0.191-0.068,0.355-0.201,0.488S5.598,14.034,5.406,14.034z M5.654,13.526c0,0.003,0,0.007,0,0.01
			c0.043-0.055,0.063-0.115,0.063-0.19c0-0.085-0.029-0.153-0.09-0.214c-0.043-0.045-0.09-0.073-0.143-0.086
			c0.02,0.019,0.033,0.042,0.043,0.067l0.117,0.342c0,0.002,0.002,0.005,0.002,0.007c0.006,0.019,0.008,0.037,0.008,0.056
			C5.654,13.52,5.654,13.523,5.654,13.526C5.654,13.526,5.654,13.526,5.654,13.526L5.654,13.526z M5.537,6.873
			C5.529,6.902,5.515,6.929,5.494,6.952c0.049-0.014,0.092-0.041,0.131-0.081c0.063-0.063,0.092-0.132,0.092-0.217
			c0-0.078-0.021-0.142-0.068-0.196C5.65,6.462,5.65,6.468,5.65,6.473l0,0c0,0.001,0,0.001,0,0.001l0,0l0,0v0.001l0,0v0.001
			c0,0.017-0.002,0.033-0.008,0.05c0,0,0,0.001,0,0.002c0,0.002,0,0.004-0.002,0.005L5.537,6.873z"/>
	</g>
	<g>
		<path fill="#F2F2F2" d="M8.346,6.986c-0.096,0.093-0.211,0.14-0.344,0.14c-0.135,0-0.25-0.047-0.342-0.14
			C7.563,6.889,7.514,6.775,7.514,6.643c0-0.137,0.049-0.251,0.146-0.344c0.092-0.097,0.207-0.145,0.342-0.145
			c0.133,0,0.248,0.048,0.344,0.145c0.093,0.093,0.139,0.207,0.139,0.344C8.484,6.775,8.438,6.889,8.346,6.986z M8.346,10.874
			c-0.096,0.097-0.211,0.146-0.344,0.146c-0.135,0-0.25-0.049-0.342-0.146c-0.098-0.097-0.146-0.211-0.146-0.343
			c0-0.136,0.049-0.251,0.146-0.344c0.092-0.096,0.207-0.145,0.342-0.145c0.133,0,0.248,0.049,0.344,0.145
			c0.093,0.093,0.139,0.208,0.139,0.344C8.484,10.663,8.438,10.777,8.346,10.874z M8.346,13.7c-0.096,0.097-0.211,0.145-0.344,0.145
			c-0.135,0-0.25-0.048-0.342-0.145c-0.098-0.093-0.146-0.207-0.146-0.343c0-0.133,0.049-0.247,0.146-0.344
			c0.092-0.093,0.207-0.139,0.342-0.139c0.133,0,0.248,0.046,0.344,0.139c0.093,0.097,0.139,0.211,0.139,0.344
			C8.484,13.493,8.438,13.607,8.346,13.7z M7.793,6.551h0.354v3.76H7.793V6.551z M7.852,6.739l0.295-0.198l4.57,6.746l-0.295,0.198
			L7.852,6.739z M12.984,6.299c-0.094-0.097-0.207-0.145-0.344-0.145c-0.132,0-0.246,0.048-0.344,0.145
			c-0.092,0.093-0.139,0.207-0.139,0.344c0,0.132,0.047,0.246,0.139,0.343c0.098,0.093,0.212,0.14,0.344,0.14
			c0.137,0,0.25-0.047,0.344-0.14c0.096-0.097,0.145-0.211,0.145-0.343C13.129,6.506,13.08,6.392,12.984,6.299z M13.129,9.468
			c0,0.137-0.049,0.251-0.145,0.344c-0.094,0.097-0.207,0.145-0.344,0.145c-0.132,0-0.246-0.048-0.344-0.145
			c-0.092-0.093-0.139-0.207-0.139-0.344c0-0.132,0.047-0.246,0.139-0.343c0.098-0.097,0.212-0.145,0.344-0.145
			c0.137,0,0.25,0.048,0.344,0.145C13.08,9.222,13.129,9.336,13.129,9.468z M13.129,13.357c0,0.136-0.049,0.25-0.145,0.343
			c-0.094,0.097-0.207,0.145-0.344,0.145c-0.132,0-0.246-0.048-0.344-0.145c-0.092-0.093-0.139-0.207-0.139-0.343
			c0-0.133,0.047-0.247,0.139-0.344c0.098-0.093,0.212-0.139,0.344-0.139c0.137,0,0.25,0.046,0.344,0.139
			C13.08,13.11,13.129,13.224,13.129,13.357z M12.438,9.689h0.354v3.759h-0.354V9.689z"/>
		<path fill="#F2F2F2" d="M12.641,14.034c-0.184,0-0.344-0.067-0.477-0.2c-0.129-0.129-0.195-0.29-0.195-0.477
			c0-0.059,0.008-0.116,0.021-0.171L8.336,7.792v2.151c0.051,0.029,0.1,0.066,0.143,0.11c0.131,0.13,0.195,0.29,0.195,0.478
			c0,0.182-0.064,0.341-0.191,0.474c-0.273,0.273-0.707,0.264-0.959,0.001c-0.131-0.131-0.198-0.292-0.198-0.475
			c0-0.186,0.07-0.352,0.202-0.479c0.023-0.024,0.049-0.047,0.076-0.067V7.187C7.576,7.167,7.551,7.144,7.525,7.12
			c-0.131-0.131-0.2-0.296-0.2-0.477c0-0.188,0.067-0.35,0.202-0.479C7.771,5.91,8.213,5.898,8.479,6.166
			c0.13,0.13,0.194,0.29,0.194,0.478c0,0.093-0.018,0.181-0.051,0.263l3.625,5.353v-2.24c-0.029-0.021-0.057-0.045-0.084-0.072
			c-0.129-0.129-0.195-0.29-0.195-0.478c0-0.182,0.064-0.341,0.193-0.474c0.275-0.274,0.703-0.266,0.959,0
			c0.13,0.13,0.197,0.29,0.197,0.474c0,0.187-0.07,0.353-0.203,0.48c-0.039,0.041-0.086,0.077-0.135,0.106v2.718
			c0.049,0.028,0.096,0.064,0.137,0.106c0.134,0.133,0.201,0.293,0.201,0.478c0,0.188-0.068,0.35-0.203,0.479
			C12.992,13.965,12.83,14.034,12.641,14.034z M7.707,10.479c-0.002,0.017-0.004,0.034-0.004,0.052c0,0.081,0.029,0.147,0.09,0.21
			c0.117,0.121,0.296,0.123,0.419-0.001c0.056-0.059,0.084-0.126,0.084-0.209c0-0.032-0.003-0.063-0.013-0.09
			C8.25,10.477,8.201,10.5,8.146,10.5H7.793C7.762,10.5,7.733,10.493,7.707,10.479z M12.438,9.5h0.354
			c0.054,0,0.102,0.021,0.137,0.058c0.008-0.027,0.012-0.057,0.012-0.089c0-0.082-0.027-0.148-0.089-0.209
			c-0.117-0.121-0.296-0.123-0.419,0c-0.057,0.059-0.084,0.126-0.084,0.209c0,0.019,0.002,0.035,0.004,0.052
			C12.377,9.506,12.406,9.5,12.438,9.5z M7.896,6.362h0.209C8.041,6.337,7.959,6.338,7.896,6.362z M8.002,14.034
			c-0.186,0-0.352-0.07-0.479-0.203c-0.13-0.124-0.198-0.285-0.198-0.474c0-0.184,0.067-0.345,0.2-0.478
			c0.254-0.253,0.684-0.259,0.951-0.002c0.133,0.138,0.197,0.297,0.197,0.479c0,0.187-0.064,0.348-0.194,0.477
			C8.348,13.966,8.186,14.034,8.002,14.034z M8.002,13.063c-0.085,0-0.152,0.027-0.209,0.084c-0.061,0.062-0.09,0.128-0.09,0.21
			c0,0.084,0.028,0.149,0.088,0.206c0.123,0.128,0.298,0.126,0.42,0.003c0.059-0.058,0.085-0.124,0.085-0.209
			c0-0.084-0.027-0.151-0.087-0.212C8.152,13.09,8.086,13.063,8.002,13.063z M12.641,7.315c-0.182,0-0.342-0.065-0.475-0.192
			c-0.133-0.138-0.197-0.297-0.197-0.479c0-0.188,0.066-0.348,0.195-0.478c0.271-0.27,0.701-0.263,0.957,0.002
			c0.129,0.125,0.197,0.287,0.197,0.476c0,0.184-0.067,0.345-0.201,0.477C12.988,7.249,12.828,7.315,12.641,7.315z M12.641,6.344
			c-0.082,0-0.148,0.028-0.209,0.089c-0.057,0.058-0.084,0.124-0.084,0.21c0,0.083,0.027,0.15,0.086,0.211
			c0.115,0.11,0.303,0.111,0.417-0.002c0.062-0.061,0.089-0.127,0.089-0.209c0-0.085-0.027-0.15-0.086-0.208
			C12.791,6.372,12.725,6.344,12.641,6.344z"/>
	</g>
	<g>
		<path fill="#F2F2F2" d="M14.094,6.654c0-0.14,0.049-0.258,0.146-0.354s0.214-0.145,0.354-0.145c0.135,0,0.252,0.048,0.348,0.145
			c0.1,0.097,0.15,0.215,0.15,0.354c0,0.136-0.051,0.252-0.15,0.349c-0.096,0.1-0.213,0.149-0.348,0.149
			c-0.141,0-0.258-0.05-0.354-0.149C14.143,6.906,14.094,6.79,14.094,6.654z M14.094,6.654c0-0.14,0.049-0.258,0.146-0.354
			s0.214-0.145,0.354-0.145c0.135,0,0.252,0.048,0.348,0.145c0.1,0.097,0.15,0.215,0.15,0.354c0,0.136-0.051,0.252-0.15,0.349
			c-0.096,0.1-0.213,0.149-0.348,0.149c-0.141,0-0.258-0.05-0.354-0.149C14.143,6.906,14.094,6.79,14.094,6.654z M14.594,13.844
			c-0.141,0-0.258-0.048-0.354-0.145s-0.146-0.215-0.146-0.354c0-0.135,0.049-0.252,0.146-0.348c0.097-0.101,0.214-0.15,0.354-0.15
			c0.135,0,0.252,0.05,0.348,0.15c0.1,0.096,0.15,0.213,0.15,0.348c0,0.14-0.051,0.258-0.15,0.354
			C14.846,13.796,14.729,13.844,14.594,13.844z M14.094,13.345c0-0.135,0.049-0.252,0.146-0.348c0.097-0.101,0.214-0.15,0.354-0.15
			c0.135,0,0.252,0.05,0.348,0.15c0.1,0.096,0.15,0.213,0.15,0.348c0,0.14-0.051,0.258-0.15,0.354
			c-0.096,0.097-0.213,0.145-0.348,0.145c-0.141,0-0.258-0.048-0.354-0.145S14.094,13.485,14.094,13.345z M18.385,13.083
			c-0.541,0.468-1.256,0.702-2.145,0.702c-0.512,0-1.08-0.09-1.706-0.269l0.118-0.343c0.053,0.028,0.209,0.069,0.467,0.123
			c0.385,0.082,0.76,0.124,1.121,0.124c0.8,0,1.436-0.204,1.908-0.611c0.633-0.547,0.951-1.448,0.955-2.703
			C19.1,8.788,18.749,7.842,18.053,7.27c-0.508-0.418-1.186-0.627-2.033-0.627c-0.322,0-0.648,0.03-0.98,0.091
			c-0.273,0.05-0.403,0.08-0.393,0.091l-0.107-0.349c0.455-0.128,0.947-0.192,1.48-0.192c0.93,0,1.684,0.235,2.264,0.708
			c0.789,0.64,1.182,1.678,1.18,3.115C19.465,11.472,19.105,12.464,18.385,13.083z M18.385,13.083
			c-0.541,0.468-1.256,0.702-2.145,0.702c-0.512,0-1.08-0.09-1.706-0.269l0.118-0.343c0.053,0.028,0.209,0.069,0.467,0.123
			c0.385,0.082,0.76,0.124,1.121,0.124c0.8,0,1.436-0.204,1.908-0.611c0.633-0.547,0.951-1.448,0.955-2.703
			C19.1,8.788,18.749,7.842,18.053,7.27c-0.508-0.418-1.186-0.627-2.033-0.627c-0.322,0-0.648,0.03-0.98,0.091
			c-0.273,0.05-0.403,0.08-0.393,0.091l-0.107-0.349c0.455-0.128,0.947-0.192,1.48-0.192c0.93,0,1.684,0.235,2.264,0.708
			c0.789,0.64,1.182,1.678,1.18,3.115C19.465,11.472,19.105,12.464,18.385,13.083z M18.813,10.075c0-0.136,0.051-0.254,0.15-0.354
			c0.098-0.096,0.213-0.145,0.35-0.145c0.139,0,0.257,0.049,0.354,0.145c0.096,0.101,0.145,0.219,0.145,0.354
			c0,0.14-0.049,0.257-0.145,0.354c-0.097,0.096-0.215,0.145-0.354,0.145c-0.137,0-0.252-0.049-0.35-0.145
			C18.863,10.332,18.813,10.214,18.813,10.075z"/>
		<path fill="#F2F2F2" d="M14.594,14.034c-0.191,0-0.355-0.067-0.488-0.2s-0.201-0.297-0.201-0.488c0-0.185,0.07-0.351,0.201-0.481
			c0.26-0.269,0.703-0.276,0.973,0.003c0.078,0.075,0.135,0.164,0.168,0.264c1.215,0.234,2.164,0.066,2.779-0.464
			c0.498-0.431,0.79-1.12,0.867-2.048c-0.021-0.018-0.043-0.036-0.063-0.056c-0.137-0.132-0.206-0.297-0.206-0.488
			c0-0.187,0.069-0.351,0.206-0.488c0.018-0.018,0.037-0.035,0.057-0.052c-0.088-0.959-0.41-1.671-0.955-2.118
			c-0.471-0.388-1.114-0.585-1.912-0.585c-0.256,0-0.518,0.021-0.781,0.061c-0.035,0.091-0.09,0.174-0.166,0.246
			c-0.258,0.269-0.705,0.27-0.969-0.005c-0.129-0.129-0.199-0.296-0.199-0.479c0-0.191,0.068-0.355,0.201-0.488
			c0.264-0.263,0.702-0.268,0.97,0c0,0,0,0,0.001,0c0.299-0.047,0.616-0.071,0.943-0.071c0.971,0,1.771,0.253,2.383,0.75
			c0.707,0.572,1.117,1.452,1.223,2.614c0.063,0.032,0.121,0.075,0.174,0.128C19.934,9.726,20,9.889,20,10.075
			c0,0.19-0.066,0.354-0.199,0.487c-0.053,0.052-0.109,0.094-0.172,0.126c-0.09,1.124-0.467,1.978-1.121,2.539
			c-0.795,0.689-1.953,0.927-3.443,0.617C14.936,13.969,14.777,14.034,14.594,14.034z M14.283,13.345c0,0.075,0.02,0.137,0.063,0.19
			c0-0.002,0-0.004,0-0.006l0,0l0,0c0-0.005,0-0.009,0-0.013c0-0.02,0.002-0.039,0.009-0.06c0.001-0.001,0.001-0.001,0.001-0.003
			l0.117-0.342c0.01-0.025,0.023-0.048,0.041-0.067c-0.053,0.014-0.098,0.041-0.139,0.083C14.313,13.192,14.283,13.26,14.283,13.345
			z M14.283,6.654c0,0.085,0.029,0.153,0.09,0.215c0.041,0.042,0.084,0.068,0.133,0.083c-0.002-0.001-0.002-0.003-0.004-0.004
			c-0.012-0.014-0.021-0.029-0.029-0.046c-0.004-0.01-0.007-0.02-0.01-0.029l-0.104-0.34c-0.002-0.001-0.002-0.003-0.002-0.005
			c0-0.001,0-0.002,0-0.002c-0.006-0.017-0.008-0.033-0.008-0.05V6.475l0,0V6.474l0,0l0,0c0,0,0,0,0-0.001l0,0
			c0-0.005,0-0.011,0.002-0.016C14.305,6.512,14.283,6.576,14.283,6.654z"/>
	</g>
</g>
</svg>
