<?xml version="1.0" encoding="utf-8"?>
<!-- Generator: Adobe Illustrator 16.0.3, SVG Export Plug-In . SVG Version: 6.00 Build 0)  -->
<!DOCTYPE svg PUBLIC "-//W3C//DTD SVG 1.1//EN" "http://www.w3.org/Graphics/SVG/1.1/DTD/svg11.dtd">
<svg version="1.1" xmlns="http://www.w3.org/2000/svg" xmlns:xlink="http://www.w3.org/1999/xlink" x="0px" y="0px" width="340px"
	 height="568px" viewBox="0 0 340 568" enable-background="new 0 0 340 568" xml:space="preserve">
<g id="Ebene_2">
</g>
<g id="Ebene_1">
	<g id="Neues_Symbol_1_">
	</g>
	<g id="Neues_Symbol">
		<g>
			<g>
				<polygon fill="#966C6C" points="12.765,309.331 0,109.13 0,229.927 				"/>
				<polygon fill="#1C1718" points="0,109.13 40.115,24.865 11.937,176.216 0,229.927 				"/>
				<polygon fill="#1A1515" points="302.204,309.331 340,159.008 314.967,229.927 				"/>
				<polygon fill="#FCFFF3" points="114.714,267.392 132.12,267.392 103.111,403.325 45.588,256.284 51.72,262.419 60.34,270.375 
					78.906,273.69 				"/>
				<polygon fill="#91AE74" points="157.485,74.495 50.395,98.635 11.937,176.216 0,229.927 				"/>
				<polygon fill="#FFFFFF" points="114.714,267.392 98.137,253.466 71.269,250.482 51.72,262.419 60.34,270.375 78.906,273.69 				
					"/>
				<circle fill="#A0A77A" cx="82.513" cy="258.231" r="12.558"/>
				<circle cx="82.886" cy="256.988" r="4.725"/>
				<circle fill="#FFFFFF" cx="84.005" cy="256.863" r="1.368"/>
				<path fill="#FFFFFF" d="M129.967,270.209"/>
				<polygon fill="#646E48" points="99.461,245.012 114.714,267.392 98.137,253.466 				"/>
				<polygon fill="#443F4E" points="98.137,253.466 71.269,250.482 67.634,239.541 99.461,245.012 				"/>
				<polygon fill="#E9EDC7" points="157.485,74.495 157.485,243.521 117.698,227.273 54.041,216.001 0,229.927 				"/>
				<polygon fill="#261F20" points="24.838,223.525 54.041,216.001 117.698,227.273 111.067,211.359 58.019,205.393 				"/>
				<polygon fill="#4E3F42" points="51.72,262.419 59.076,271.286 79.342,275.202 114.714,267.392 78.906,273.69 60.34,270.375 				
					"/>
				<polygon points="51.72,262.419 71.292,251.285 98.115,253.818 114.714,267.392 98.137,253.466 71.269,250.482 				"/>
				<polygon fill="#70A862" points="35.807,391.389 71.269,432.169 132.741,473.571 103.111,403.325 				"/>
				<polygon fill="#8BE5C2" points="0,229.927 12.765,309.331 45.588,256.284 				"/>
				<polygon fill="#53978B" points="103.111,403.325 35.807,391.389 12.765,309.331 49.732,374.812 				"/>
				<polygon fill="#8AD088" points="132.741,473.571 157.485,475.798 157.485,433.164 131.623,431.175 103.111,403.325 				"/>
				<polygon fill="#E8F8BB" points="45.588,256.284 103.111,403.325 49.732,374.812 12.765,309.331 				"/>
				<polygon fill="#994B4B" points="157.485,356.328 129.967,356.328 114.714,348.952 				"/>
				<polygon fill="#BCD798" points="129.967,356.328 145.3,374.979 103.111,403.325 114.714,348.952 				"/>
				<polygon fill="#FFEFEA" points="157.485,356.328 157.485,379.329 145.3,374.979 				"/>
				<polygon fill="#EBC2B6" points="145.3,374.979 129.967,356.328 157.485,356.328 				"/>
				<polygon fill="#CCFFCA" points="157.485,243.521 139.914,323.754 157.485,333.699 				"/>
				<polygon fill="#C5969A" points="103.111,403.325 131.623,431.175 157.485,433.164 157.485,421.228 132.741,420.896 				"/>
				<polygon fill="#C57A92" points="157.485,421.228 157.485,403.325 103.111,403.325 				"/>
				<polygon fill="#E3F3D1" points="157.485,421.228 103.111,403.325 132.741,420.896 				"/>
				<polygon fill="#D1E2F3" points="157.485,379.329 145.3,374.979 103.111,403.325 139.914,389.151 157.485,391.259 				"/>
				<polygon fill="#C58AB9" points="157.485,397.688 103.111,403.325 139.914,389.151 157.485,391.259 				"/>
				<polygon fill="#56242D" points="157.485,397.688 103.111,403.325 157.485,403.325 				"/>
				<polygon fill="#AAD5FF" points="54.041,216.001 0,229.927 45.588,256.284 				"/>
				<polygon fill="#D39B7C" points="45.588,256.284 67.634,239.541 54.041,216.001 				"/>
				<polygon fill="#96A7E6" points="67.634,239.541 99.461,245.012 117.698,227.273 54.041,216.001 				"/>
				<polygon fill="#B2BD71" points="132.12,267.392 139.914,323.754 114.714,348.952 				"/>
				<polygon fill="#A5D380" points="132.12,267.392 157.485,243.521 139.914,323.754 				"/>
				<polygon fill="#D3B0A5" points="157.485,243.521 117.698,227.273 132.12,267.392 				"/>
				<polygon fill="#9AC281" points="114.714,267.392 132.12,267.392 117.698,227.273 99.461,245.012 				"/>
				<polygon fill="#817854" points="71.269,250.482 67.634,239.541 45.588,256.284 51.72,262.419 				"/>
				<polygon fill="#8E7746" points="157.485,356.328 142.731,344.973 129.967,351.582 				"/>
				<polygon fill="#ECEAFF" points="139.914,323.754 142.731,344.973 157.485,356.328 157.485,333.699 				"/>
				<polygon fill="#E3F097" points="139.914,323.754 142.731,344.973 129.967,351.582 114.052,348.952 				"/>
				<polygon fill="#576175" points="157.485,74.495 50.395,98.635 40.115,24.865 157.485,0 				"/>
				<polygon fill="#71718A" points="40.115,24.865 11.937,176.216 50.395,98.635 				"/>
				<polygon fill="#DFFFDE" points="200.254,267.392 182.847,267.392 211.856,403.325 269.38,256.284 263.247,262.419 
					254.625,270.375 236.059,273.69 				"/>
				<polygon fill="#CFEDC7" points="157.485,74.495 264.572,98.635 303.033,176.216 314.967,229.927 				"/>
				<polygon fill="#FFFFFF" points="200.254,267.392 216.831,253.466 243.699,250.482 263.247,262.419 254.625,270.375 
					236.059,273.69 				"/>
				<circle fill="#5B6A69" cx="232.455" cy="258.231" r="12.557"/>
				<circle cx="232.081" cy="256.988" r="4.725"/>
				<circle fill="#FFFFFF" cx="230.962" cy="256.863" r="1.367"/>
				<path fill="#FFFFFF" d="M185.002,270.209"/>
				<polygon fill="#6C8256" points="215.504,245.012 200.254,267.392 216.831,253.466 				"/>
				<polygon fill="#2E4252" points="216.831,253.466 243.699,250.482 247.333,239.541 215.504,245.012 				"/>
				<polygon fill="#F9FFD6" points="157.485,74.495 157.485,243.521 197.271,227.273 260.927,216.001 314.967,229.927 				"/>
				<polygon fill="#301E1F" points="290.127,223.525 260.927,216.001 197.271,227.273 203.899,211.359 256.946,205.393 				"/>
				<polygon fill="#4E3F42" points="263.247,262.419 255.89,271.286 235.624,275.202 200.254,267.392 236.059,273.69 
					254.625,270.375 				"/>
				<polygon points="263.247,262.419 243.676,251.285 216.853,253.818 200.254,267.392 216.831,253.466 243.699,250.482 				"/>
				<polygon fill="#92D2FA" points="279.162,391.389 243.699,432.169 182.226,473.571 211.856,403.325 				"/>
				<polygon fill="#83D6B6" points="314.967,229.927 302.204,309.331 269.38,256.284 				"/>
				<polygon fill="#75D378" points="211.856,403.325 279.162,391.389 302.204,309.331 265.236,374.812 				"/>
				<polygon fill="#C5D088" points="182.226,473.571 157.485,475.798 157.485,433.164 183.345,431.175 211.856,403.325 				"/>
				<polygon fill="#E3D0AB" points="269.38,256.284 211.856,403.325 265.236,374.812 302.204,309.331 				"/>
				<polygon fill="#A8684C" points="157.485,356.328 185.002,356.328 200.254,348.952 				"/>
				<polygon fill="#A9F0C8" points="185.002,356.328 169.668,374.979 211.856,403.325 200.254,348.952 				"/>
				<polygon fill="#FFEFEA" points="157.485,356.328 157.485,379.329 169.668,374.979 				"/>
				<polygon fill="#C5F0BA" points="169.668,374.979 185.002,356.328 157.485,356.328 				"/>
				<polygon fill="#C9FFE0" points="157.485,243.521 175.055,323.754 157.485,333.699 				"/>
				<polygon fill="#C58A8E" points="211.856,403.325 183.345,431.175 157.485,433.164 157.485,421.228 182.226,420.896 				"/>
				<polygon fill="#C5666D" points="157.485,421.228 157.485,403.325 211.856,403.325 				"/>
				<polygon fill="#F3D1E1" points="157.485,421.228 211.856,403.325 182.226,420.896 				"/>
				<polygon fill="#D8D1F3" points="157.485,379.329 169.668,374.979 211.856,403.325 175.055,389.151 157.485,391.259 				"/>
				<polygon fill="#C54F7A" points="157.485,397.688 211.856,403.325 175.055,389.151 157.485,391.259 				"/>
				<polygon fill="#42161E" points="157.485,397.688 211.856,403.325 157.485,403.325 				"/>
				<polygon fill="#B6D99C" points="260.927,216.001 314.967,229.927 269.38,256.284 				"/>
				<polygon fill="#AC97FF" points="269.38,256.284 247.333,239.541 260.927,216.001 				"/>
				<polygon fill="#A1CCF7" points="247.333,239.541 215.504,245.012 197.271,227.273 260.927,216.001 				"/>
				<polygon fill="#9CCAD6" points="182.847,267.392 175.055,323.754 200.254,348.952 				"/>
				<polygon fill="#B6E389" points="182.847,267.392 157.485,243.521 175.055,323.754 				"/>
				<polygon fill="#BBC6F0" points="157.485,243.521 197.271,227.273 182.847,267.392 				"/>
				<polygon fill="#9EEDE1" points="200.254,267.392 182.847,267.392 197.271,227.273 215.504,245.012 				"/>
				<polygon fill="#8DC2C7" points="243.699,250.482 247.333,239.541 269.38,256.284 263.247,262.419 				"/>
				<polygon fill="#468E8C" points="157.485,356.328 172.237,344.973 185.002,351.582 				"/>
				<polygon fill="#FFEEE9" points="175.055,323.754 172.237,344.973 157.485,356.328 157.485,333.699 				"/>
				<polygon fill="#97A4F0" points="175.055,323.754 172.237,344.973 185.002,351.582 200.916,348.952 				"/>
				<polygon fill="#688291" points="157.485,74.495 264.572,98.635 274.85,24.865 157.485,0 				"/>
				<polygon fill="#807455" points="274.85,24.865 303.033,176.216 264.572,98.635 				"/>
				<polygon fill="#B39299" points="340,159.008 274.85,24.865 303.033,176.216 314.967,229.927 				"/>
			</g>
			<g>
				<path fill="#FCFFF3" d="M11.196,557.1v-12.639c0-3.79,2.148-7.014,5.623-8.467c3.54-1.453,7.395-0.695,9.984,2.022
					c0.57,0.568,0.886,1.2,0.886,2.022c0,0.758-0.315,1.39-0.886,1.958c-0.568,0.569-1.2,0.885-2.022,0.885
					c-0.758,0-1.389-0.315-1.959-0.885c-1.011-1.011-2.526-1.264-3.791-0.759c-1.326,0.569-2.148,1.771-2.148,3.223V557.1
					c0,1.453,0.822,2.654,2.148,3.223c1.265,0.506,2.78,0.253,3.791-0.758c0.57-0.569,1.201-0.885,1.959-0.885
					c0.822,0,1.454,0.315,2.022,0.885c0.57,0.568,0.886,1.264,0.886,2.021s-0.315,1.453-0.886,2.022
					c-2.59,2.591-6.444,3.412-9.984,1.959C13.345,564.114,11.196,560.892,11.196,557.1z"/>
				<path fill="#FCFFF3" d="M31.924,557.1v-12.639c0-5.055,4.106-9.162,9.162-9.162c5.055,0,9.163,4.107,9.163,9.162V557.1
					c0,5.056-4.108,9.163-9.163,9.163C36.03,566.263,31.924,562.155,31.924,557.1z M37.61,544.461V557.1
					c0,1.959,1.517,3.476,3.476,3.476s3.476-1.517,3.476-3.476v-12.639c0-1.958-1.517-3.475-3.476-3.475
					S37.61,542.503,37.61,544.461z"/>
				<path fill="#FCFFF3" d="M56.441,563.418v-25.023c0-1.579,1.264-2.843,2.843-2.843h6.319c5.056,0,9.164,4.107,9.164,9.162v18.704
					c0,1.58-1.328,2.845-2.845,2.845c-1.58,0-2.843-1.265-2.843-2.845v-18.704c0-1.959-1.517-3.476-3.477-3.476h-3.475v22.18
					c0,1.58-1.327,2.845-2.845,2.845C57.705,566.263,56.441,564.998,56.441,563.418z"/>
				<path fill="#FCFFF3" d="M81.213,563.418v-25.023c0-1.579,1.266-2.843,2.844-2.843h6.319c5.057,0,9.163,4.107,9.163,9.162v18.704
					c0,1.58-1.328,2.845-2.844,2.845c-1.579,0-2.844-1.265-2.844-2.845v-18.704c0-1.959-1.517-3.476-3.476-3.476H86.9v22.18
					c0,1.58-1.326,2.845-2.844,2.845C82.479,566.263,81.213,564.998,81.213,563.418z"/>
				<path fill="#FCFFF3" d="M105.228,557.1v-12.639c0-5.055,4.107-9.162,9.162-9.162c5.056,0,9.163,4.107,9.163,9.162v6.319
					c0,1.579-1.263,2.845-2.844,2.845h-9.795v3.475c0,1.453,0.821,2.654,2.148,3.223c1.327,0.506,2.78,0.253,3.792-0.758
					c0.568-0.569,1.2-0.885,1.959-0.885c0.822,0,1.518,0.315,2.085,0.885c0.569,0.568,0.821,1.264,0.821,2.021
					s-0.252,1.453-0.821,2.022c-2.717,2.591-6.509,3.412-9.984,1.959C107.377,564.114,105.228,560.892,105.228,557.1z
					 M110.914,544.461v3.477h6.951v-3.477c0-1.958-1.516-3.475-3.476-3.475C112.431,540.986,110.914,542.503,110.914,544.461z"/>
				<path fill="#FCFFF3" d="M128.483,557.1v-12.639c0-3.79,2.149-7.014,5.624-8.467c3.538-1.453,7.394-0.695,9.984,2.022
					c0.568,0.568,0.884,1.2,0.884,2.022c0,0.758-0.315,1.39-0.884,1.958c-0.568,0.569-1.2,0.885-2.022,0.885
					c-0.759,0-1.39-0.315-1.959-0.885c-1.011-1.011-2.526-1.264-3.792-0.759c-1.327,0.569-2.147,1.771-2.147,3.223V557.1
					c0,1.453,0.82,2.654,2.147,3.223c1.266,0.506,2.781,0.253,3.792-0.758c0.569-0.569,1.2-0.885,1.959-0.885
					c0.822,0,1.454,0.315,2.022,0.885c0.568,0.568,0.884,1.264,0.884,2.021s-0.315,1.453-0.884,2.022
					c-2.591,2.591-6.446,3.412-9.984,1.959C130.633,564.114,128.483,560.892,128.483,557.1z"/>
				<path fill="#FCFFF3" d="M147.189,538.395c0-1.579,1.263-2.843,2.843-2.843h2.211v-10.047c0-1.58,1.265-2.844,2.844-2.844
					c1.58,0,2.844,1.264,2.844,2.844v10.047h3.476c1.579,0,2.844,1.264,2.844,2.843c0,1.581-1.265,2.844-2.844,2.844h-3.476V557.1
					c0,1.959,1.518,3.476,3.476,3.476c1.579,0,2.844,1.265,2.844,2.843c0,1.58-1.265,2.845-2.844,2.845
					c-5.055,0-9.163-4.107-9.163-9.163v-15.861h-2.211C148.452,541.238,147.189,539.976,147.189,538.395z"/>
				<path fill="#FCFFF3" d="M167.915,557.1v-12.639c0-5.055,4.108-9.162,9.164-9.162c5.054,0,9.162,4.107,9.162,9.162v6.319
					c0,1.579-1.264,2.845-2.844,2.845h-9.795v3.475c0,1.453,0.821,2.654,2.148,3.223c1.328,0.506,2.78,0.253,3.791-0.758
					c0.57-0.569,1.201-0.885,1.959-0.885c0.822,0,1.518,0.315,2.086,0.885c0.568,0.568,0.821,1.264,0.821,2.021
					s-0.253,1.453-0.821,2.022c-2.718,2.591-6.508,3.412-9.984,1.959C170.064,564.114,167.915,560.892,167.915,557.1z
					 M173.603,544.461v3.477h6.95v-3.477c0-1.958-1.516-3.475-3.474-3.475C175.12,540.986,173.603,542.503,173.603,544.461z"/>
				<path fill="#FCFFF3" d="M191.171,556.848v-12.134c0-5.055,4.107-9.162,9.163-9.162h3.475v-10.047
					c0-1.58,1.263-2.844,2.844-2.844c1.58,0,2.844,1.264,2.844,2.844v37.661c0,1.58-1.264,2.844-2.844,2.844h-6.318
					C195.278,566.01,191.171,561.902,191.171,556.848z M196.857,544.714v12.134c0,1.958,1.518,3.475,3.477,3.475h3.475v-19.084
					h-3.475C198.375,541.238,196.857,542.755,196.857,544.714z"/>
				<path fill="#FCFFF3" d="M215.689,556.848v-12.134c0-5.055,4.107-9.162,9.163-9.162h3.475v-10.047
					c0-1.58,1.264-2.844,2.844-2.844s2.844,1.264,2.844,2.844v37.661c0,1.58-1.264,2.844-2.844,2.844h-6.318
					C219.797,566.01,215.689,561.902,215.689,556.848z M221.376,544.714v12.134c0,1.958,1.518,3.475,3.477,3.475h3.475v-19.084
					h-3.475C222.894,541.238,221.376,542.755,221.376,544.714z"/>
				<path fill="#FCFFF3" d="M243.557,560.955c1.011,0,1.833,0.821,1.833,1.832c0,1.012-0.822,1.832-1.833,1.832
					c-1.01,0-1.832-0.82-1.832-1.832C241.725,561.776,242.547,560.955,243.557,560.955z"/>
				<path fill="#FCFFF3" d="M254.046,557.1v-12.639c0-3.032,1.77-5.687,4.612-6.887c2.781-1.201,5.877-0.569,8.089,1.643
					c0.189,0.189,0.315,0.506,0.315,0.822c0,0.315-0.126,0.568-0.315,0.758s-0.506,0.315-0.822,0.315
					c-0.315,0-0.567-0.126-0.759-0.315c-1.516-1.454-3.727-1.896-5.686-1.138c-1.96,0.821-3.159,2.716-3.159,4.802V557.1
					c0,2.086,1.199,3.981,3.159,4.803c1.959,0.821,4.17,0.379,5.686-1.138c0.191-0.189,0.443-0.316,0.759-0.316
					c0.316,0,0.633,0.127,0.822,0.316c0.189,0.19,0.315,0.506,0.315,0.821c0,0.316-0.126,0.569-0.315,0.758
					c-2.212,2.213-5.308,2.845-8.089,1.644C255.815,562.787,254.046,560.133,254.046,557.1z"/>
				<path fill="#FCFFF3" d="M274.771,557.1v-12.639c0-4.044,3.413-7.456,7.458-7.456c4.044,0,7.456,3.412,7.456,7.456V557.1
					c0,4.044-3.412,7.457-7.456,7.457C278.185,564.557,274.771,561.144,274.771,557.1z M277.048,544.461V557.1
					c0,2.845,2.338,5.182,5.182,5.182c2.843,0,5.181-2.337,5.181-5.182v-12.639c0-2.843-2.338-5.182-5.181-5.182
					C279.386,539.279,277.048,541.618,277.048,544.461z"/>
				<path fill="#FCFFF3" d="M301.566,563.418c0,0.696-0.568,1.139-1.138,1.139c-0.694,0-1.137-0.442-1.137-1.139v-25.023
					c0-0.693,0.442-1.137,1.137-1.137h18.958c4.044,0,7.456,3.413,7.456,7.456v18.704c0,0.696-0.568,1.139-1.138,1.139
					c-0.694,0-1.138-0.442-1.138-1.139v-18.704c0-2.843-2.337-5.181-5.181-5.181h-5.182v23.885c0,0.696-0.569,1.139-1.138,1.139
					c-0.695,0-1.137-0.442-1.137-1.139v-23.885h-10.364V563.418z"/>
			</g>
		</g>
	</g>
</g>
</svg>
