<?xml version="1.0" encoding="utf-8"?>
<!-- Generator: Adobe Illustrator 16.0.3, SVG Export Plug-In . SVG Version: 6.00 Build 0)  -->
<!DOCTYPE svg PUBLIC "-//W3C//DTD SVG 1.1//EN" "http://www.w3.org/Graphics/SVG/1.1/DTD/svg11.dtd">
<svg version="1.1" id="Ebene_1" xmlns="http://www.w3.org/2000/svg" xmlns:xlink="http://www.w3.org/1999/xlink" x="0px" y="0px"
	 width="20px" height="20px" viewBox="0 0 20 20" enable-background="new 0 0 20 20" xml:space="preserve">
<g id="Neues_Symbol_11">
</g>
<g>
</g>
<g>
	<g>
		<path fill="#F2F2F2" d="M-1.028,11.028h-17.943C-19.54,11.028-20,10.568-20,10s0.46-1.028,1.028-1.028h17.943
			C-0.46,8.972,0,9.432,0,10S-0.46,11.028-1.028,11.028z"/>
	</g>
</g>
<g id="Neues_Symbol_5">
	<g>
		<path fill="#333333" d="M15.717-9.901c0.603-1.002,0.956-2.173,0.956-3.427C16.673-17.013,13.686-20,10-20
			s-6.673,2.987-6.673,6.672c0,1.271,0.362,2.454,0.979,3.466L10.001,0L15.717-9.901z"/>
	</g>
	<g>
		<path fill="#F2F2F2" d="M15.717,10.099c0.603-1.002,0.956-2.173,0.956-3.427C16.673,2.987,13.686,0,10,0S3.327,2.987,3.327,6.672
			c0,1.271,0.362,2.454,0.979,3.466L10.001,20L15.717,10.099z"/>
	</g>
</g>
</svg>
