<?xml version="1.0" encoding="utf-8"?>
<!-- Generator: Adobe Illustrator 16.0.3, SVG Export Plug-In . SVG Version: 6.00 Build 0)  -->
<!DOCTYPE svg PUBLIC "-//W3C//DTD SVG 1.1//EN" "http://www.w3.org/Graphics/SVG/1.1/DTD/svg11.dtd">
<svg version="1.1" id="Ebene_1" xmlns="http://www.w3.org/2000/svg" xmlns:xlink="http://www.w3.org/1999/xlink" x="0px" y="0px"
	 width="20px" height="20px" viewBox="0 0 20 20" enable-background="new 0 0 20 20" xml:space="preserve">
<g id="Neues_Symbol_11">
</g>
<g id="Neues_Symbol_5">
</g>
<path fill="#333333" d="M0,8.737v2.525h-15.152l6.945,6.944L-10,20l-10-10l10-10l1.793,1.793l-6.945,6.944H0z"/>
<path fill="#F2F2F2" d="M0,28.737v2.525h-15.152l6.945,6.944L-10,40l-10-10l10-10l1.793,1.793l-6.945,6.944H0z"/>
<g>
	<path fill="#333333" d="M10.011,4.689c-2.671,0-4.843,2.172-4.843,4.842c0,2.287,2.234,4.64,2.297,4.774
		c0.066,0.139,0.207,0.228,0.361,0.228h4.688c0.162,0,0.308-0.098,0.369-0.247c0.054-0.129,1.97-2.749,1.97-4.755
		C14.854,6.861,12.681,4.689,10.011,4.689z"/>
	<path fill="#333333" d="M12.316,15.212H7.964c-0.221,0-0.399,0.179-0.399,0.4c0,0.22,0.178,0.399,0.399,0.399h4.352
		c0.22,0,0.399-0.179,0.399-0.399C12.715,15.391,12.536,15.212,12.316,15.212z"/>
	<path fill="#333333" d="M11.917,16.689H8.363c-0.22,0-0.398,0.179-0.398,0.399s0.179,0.399,0.398,0.399h3.554
		c0.221,0,0.399-0.179,0.399-0.399S12.138,16.689,11.917,16.689z"/>
	<path fill="#333333" d="M11.002,18.29H9.18c-0.22,0-0.399,0.179-0.399,0.4c0,0.722,0.589,1.31,1.311,1.31
		c0.723,0,1.312-0.588,1.312-1.31C11.402,18.469,11.223,18.29,11.002,18.29z"/>
	<path fill="#333333" d="M3.133,9.211H0.816c-0.22,0-0.399,0.179-0.399,0.4c0,0.22,0.179,0.399,0.399,0.399h2.316
		c0.221,0,0.399-0.179,0.399-0.399C3.532,9.391,3.354,9.211,3.133,9.211z"/>
	<path fill="#333333" d="M5.406,4.465L3.769,2.826c-0.156-0.156-0.408-0.156-0.564,0c-0.157,0.157-0.157,0.409,0,0.565l1.637,1.637
		c0.155,0.157,0.409,0.157,0.565,0C5.562,4.873,5.562,4.621,5.406,4.465z"/>
	<path fill="#333333" d="M9.972,3.114c0.22,0,0.398-0.179,0.398-0.399V0.399C10.371,0.179,10.192,0,9.972,0
		C9.751,0,9.571,0.179,9.571,0.399v2.316C9.571,2.936,9.751,3.114,9.972,3.114z"/>
	<path fill="#333333" d="M16.755,2.786c-0.155-0.156-0.409-0.156-0.564,0l-1.637,1.638c-0.156,0.156-0.156,0.409,0,0.565
		c0.156,0.155,0.408,0.155,0.564,0l1.637-1.638C16.911,3.195,16.911,2.942,16.755,2.786z"/>
	<path fill="#333333" d="M19.184,9.154h-2.316c-0.221,0-0.399,0.179-0.399,0.399s0.179,0.399,0.399,0.399h2.316
		c0.22,0,0.399-0.179,0.399-0.399S19.404,9.154,19.184,9.154z"/>
</g>
<g>
	<path fill="#F2F2F2" d="M9.972,23.114c0.22,0,0.398-0.179,0.398-0.399v-2.316c0-0.22-0.179-0.399-0.398-0.399
		c-0.221,0-0.401,0.179-0.401,0.399v2.316C9.571,22.936,9.751,23.114,9.972,23.114z"/>
</g>
</svg>
