<?xml version="1.0" encoding="utf-8"?>
<!-- Generator: Adobe Illustrator 16.0.3, SVG Export Plug-In . SVG Version: 6.00 Build 0)  -->
<!DOCTYPE svg PUBLIC "-//W3C//DTD SVG 1.1//EN" "http://www.w3.org/Graphics/SVG/1.1/DTD/svg11.dtd">
<svg version="1.1" id="Ebene_1" xmlns="http://www.w3.org/2000/svg" xmlns:xlink="http://www.w3.org/1999/xlink" x="0px" y="0px"
	 width="20px" height="20px" viewBox="0 0 20 20" enable-background="new 0 0 20 20" xml:space="preserve">
<g id="Neues_Symbol_11">
</g>
<g>
	<path fill="#323232" d="M-4.463,10c0-1.387,0.938-2.363,2.248-2.363C-0.899,7.637,0,8.613,0,10c0,1.349-0.861,2.363-2.254,2.363
		C-3.564,12.363-4.463,11.349-4.463,10z"/>
</g>
<g>
	<g>
		<path fill="#323232" d="M18.972,11.028H1.028C0.46,11.028,0,10.568,0,10s0.46-1.028,1.028-1.028h17.943
			C19.54,8.972,20,9.432,20,10S19.54,11.028,18.972,11.028z"/>
	</g>
	<g>
		<path fill="#323232" d="M10,20c-0.568,0-1.028-0.46-1.028-1.028V1.028C8.972,0.46,9.432,0,10,0s1.028,0.46,1.028,1.028v17.943
			C11.028,19.54,10.568,20,10,20z"/>
	</g>
</g>
<g>
	<g>
		<path fill="#F2F2F2" d="M10,40c-0.568,0-1.028-0.46-1.028-1.028V21.028C8.972,20.46,9.432,20,10,20s1.028,0.46,1.028,1.028v17.943
			C11.028,39.54,10.568,40,10,40z"/>
	</g>
</g>
</svg>
