<?xml version="1.0" encoding="utf-8"?>
<!-- Generator: Adobe Illustrator 16.0.3, SVG Export Plug-In . SVG Version: 6.00 Build 0)  -->
<!DOCTYPE svg PUBLIC "-//W3C//DTD SVG 1.1//EN" "http://www.w3.org/Graphics/SVG/1.1/DTD/svg11.dtd">
<svg version="1.1" id="Ebene_1" xmlns="http://www.w3.org/2000/svg" xmlns:xlink="http://www.w3.org/1999/xlink" x="0px" y="0px"
	 width="524px" height="79px" viewBox="0 0 524 79" enable-background="new 0 0 524 79" xml:space="preserve">
<g>
	<path fill-rule="evenodd" clip-rule="evenodd" d="M28.656,29.248c0-3.312-1.872-6.696-6.984-6.696v-4.248
		c0.576,0,1.152-0.072,1.728-0.072c9.144,0,13.248,5.256,13.248,11.16c0,5.544-4.248,10.656-12.744,10.656
		c-0.792,0-1.512,0-2.232-0.144v-4.032h0.072C27,35.872,28.656,32.632,28.656,29.248z M21.672,22.552L21.672,22.552
		c-5.256,0-6.912,3.312-6.912,6.696c0,3.384,1.8,6.552,6.912,6.624v4.032c-2.664-0.36-5.04-1.296-6.552-2.88h-0.144v9.792h-7.92
		V18.808h7.56v2.664h0.144c1.584-1.872,4.032-2.88,6.912-3.168V22.552z"/>
	<path fill-rule="evenodd" clip-rule="evenodd" d="M44.28,18.808h7.632v3.888h0.144c1.44-2.664,5.4-4.464,9.288-4.464
		c0.576,0,1.224,0.072,1.728,0.216v5.328c-0.72-0.144-1.872-0.216-2.88-0.216c-5.832,0-7.848,3.024-7.848,6.624v9.288H44.28V18.808z
		"/>
	<path fill-rule="evenodd" clip-rule="evenodd" d="M82.224,35.872c5.472-0.072,7.128-3.384,7.128-6.696s-1.656-6.624-7.128-6.624
		v-4.32c9.216,0,15.12,4.392,15.12,10.944c0,6.624-5.904,10.872-15.12,10.872V35.872z M82.224,35.872L82.224,35.872v4.176l0,0
		c-9.144,0-15.048-4.248-15.048-10.872s5.904-10.944,15.048-10.944l0,0v4.32l0,0c-5.4,0-7.056,3.312-7.056,6.624
		S76.824,35.872,82.224,35.872z"/>
	<path fill-rule="evenodd" clip-rule="evenodd" d="M106.128,10.888h7.992v4.68h-7.992V10.888L106.128,10.888z M101.232,41.92
		c0.504,0.145,1.08,0.216,1.8,0.216c1.584,0,3.096-0.288,3.096-1.872V18.808h7.992v21.744c0,4.248-2.232,6.264-10.296,6.264
		c-0.792,0-1.728-0.071-2.592-0.144V41.92z"/>
	<path fill-rule="evenodd" clip-rule="evenodd" d="M143.496,26.944c-0.72-2.88-2.448-4.392-6.336-4.392c-0.072,0-0.144,0-0.144,0
		v-4.32c0.072,0,0.216,0,0.36,0c8.928,0,13.68,4.824,14.184,10.44v1.8v0.072h-14.544v-3.6H143.496L143.496,26.944z M137.016,40.048
		V35.8c0.216,0,0.432,0.072,0.648,0.072c3.168,0,5.76-1.44,6.336-2.736h7.056c-2.304,4.896-7.056,6.912-13.68,6.912
		C137.232,40.048,137.088,40.048,137.016,40.048z M137.016,22.552c-4.968,0.072-6.408,2.808-6.552,4.392h6.552v3.6h-6.552
		c0.216,3.456,2.52,5.112,6.552,5.256v4.248c-9-0.072-14.544-4.464-14.544-10.872c0-6.12,5.832-10.8,14.544-10.944V22.552z"/>
	<polygon fill-rule="evenodd" clip-rule="evenodd" points="159.84,10.888 167.832,10.888 167.832,26.296 177.912,18.808 
		187.416,18.808 176.4,26.44 188.64,39.472 178.92,39.472 170.928,30.328 167.832,32.416 167.832,39.472 159.84,39.472 	"/>
	<path fill-rule="evenodd" clip-rule="evenodd" d="M204.48,18.808h5.832v3.816h-5.832V32.92c0,1.944,0.648,2.376,3.384,2.376
		c0.864,0,1.656,0,2.448-0.144v4.392c-1.368,0.144-3.096,0.216-4.68,0.216c-4.896,0-9.216-0.72-9.216-4.896v-12.24h-4.824v-3.816
		h4.824v-6.192h8.064V18.808z"/>
	<path fill-rule="evenodd" clip-rule="evenodd" fill="#E30613" d="M247.32,32.848c0.072,2.448,3.024,3.456,6.192,3.456
		c2.304,0,5.256-0.648,5.256-2.664c0-1.728-3.312-2.304-9.072-3.168c-4.68-0.72-9.288-1.872-9.288-5.544
		c0-5.328,6.408-6.696,12.672-6.696c6.408,0,12.168,1.512,12.816,6.624h-7.561c-0.216-2.16-2.592-2.808-5.472-2.808
		c-1.8,0-4.464,0.288-4.464,1.944c0,2.016,4.536,2.304,9.072,3.096c4.68,0.792,9.216,1.944,9.216,5.832
		c0,5.472-6.553,7.128-13.249,7.128c-6.768,0-13.392-1.728-13.68-7.2H247.32z"/>
	<path fill-rule="evenodd" clip-rule="evenodd" fill="#E30613" d="M294.048,26.152c-0.504-2.376-2.592-3.6-5.904-3.6
		c-5.111,0-6.839,3.672-6.839,6.768c0,2.952,1.655,6.552,6.695,6.552c3.672,0,5.832-1.728,6.336-4.248h7.704
		c-1.008,5.472-6.336,8.424-14.04,8.424c-8.784,0-14.688-4.32-14.688-10.584c0-6.408,5.399-11.232,14.903-11.232
		c6.841,0,13.177,2.592,13.681,7.92H294.048z"/>
	<path fill-rule="evenodd" clip-rule="evenodd" fill="#E30613" d="M309.384,10.888h8.064v10.8h0.144
		c2.016-2.304,5.544-3.456,8.496-3.456c8.568,0,10.656,3.456,10.656,8.568v12.672h-7.992V27.88c0-3.456-1.368-5.112-5.112-5.112
		c-4.32,0-6.191,1.728-6.191,5.904v10.8h-8.064V10.888z"/>
	<path fill-rule="evenodd" clip-rule="evenodd" fill="#E30613" d="M345.889,18.808h7.56v2.808h0.144
		c2.088-2.16,5.112-3.384,8.928-3.384c3.672,0,6.912,1.008,8.496,3.456c1.729-1.8,4.753-3.456,8.856-3.456
		c6.192,0,10.655,2.088,10.655,7.416v13.824h-8.063V27.808c0-2.808-0.288-5.04-4.896-5.04c-4.536,0-5.328,2.592-5.328,5.256v11.448
		h-8.064v-11.52c0-2.448,0.288-5.184-4.823-5.184c-1.584,0-5.4,0.72-5.4,4.752v11.952h-8.063V18.808z"/>
	<path fill-rule="evenodd" clip-rule="evenodd" fill="#E30613" d="M399.889,18.808h7.991v20.664h-7.991V18.808L399.889,18.808z
		 M399.889,10.888h7.991v4.68h-7.991V10.888z"/>
	<path fill-rule="evenodd" clip-rule="evenodd" fill="#E30613" d="M436.68,26.944c-0.72-2.88-2.52-4.392-6.407-4.392
		c0,0-0.072,0-0.145,0v-4.32c0.145,0,0.288,0,0.36,0c9,0,13.752,4.824,14.184,10.44v1.8v0.072h-14.544v-3.6H436.68L436.68,26.944z
		 M430.128,40.048V35.8c0.216,0,0.433,0.072,0.647,0.072c3.24,0,5.832-1.44,6.336-2.736h7.057c-2.232,4.896-7.057,6.912-13.68,6.912
		C430.416,40.048,430.272,40.048,430.128,40.048z M430.128,22.552c-4.968,0.072-6.408,2.808-6.48,4.392h6.48v3.6h-6.48
		c0.217,3.456,2.448,5.112,6.48,5.256v4.248c-9-0.072-14.544-4.464-14.544-10.872c0-6.12,5.904-10.8,14.544-10.944V22.552z"/>
	<path fill-rule="evenodd" clip-rule="evenodd" fill="#E30613" d="M466.057,22.552h-0.072v-4.176
		c2.663,0.36,5.111,1.296,6.552,2.952h0.144v-10.44h7.992v28.584h-7.632v-2.52h-0.072c-1.584,1.8-4.032,2.736-6.983,3.024v-4.104
		h0.072c5.327,0,6.911-3.312,6.911-6.768C472.968,25.792,471.24,22.552,466.057,22.552z M465.984,22.552
		c-5.185,0-6.984,3.24-6.984,6.624c0,3.24,2.088,6.624,6.984,6.696v4.104c-0.648,0.072-1.225,0.072-1.873,0.072
		c-8.855,0-13.104-5.328-13.104-11.016c0-5.616,4.32-10.8,12.889-10.8c0.72,0,1.439,0.072,2.088,0.144V22.552z"/>
	<path fill-rule="evenodd" clip-rule="evenodd" fill="#E30613" d="M509.184,26.944c-0.72-2.88-2.52-4.392-6.408-4.392
		c0,0-0.071,0-0.144,0v-4.32c0.144,0,0.288,0,0.36,0c9,0,13.752,4.824,14.184,10.44v1.8v0.072h-14.544v-3.6H509.184L509.184,26.944z
		 M502.632,40.048V35.8c0.216,0,0.433,0.072,0.647,0.072c3.24,0,5.832-1.44,6.337-2.736h7.056c-2.232,4.896-7.056,6.912-13.68,6.912
		C502.92,40.048,502.775,40.048,502.632,40.048z M502.632,22.552c-4.968,0.072-6.408,2.808-6.479,4.392h6.479v3.6h-6.479
		c0.216,3.456,2.447,5.112,6.479,5.256v4.248c-8.928-0.072-14.472-4.464-14.472-10.872c0-6.12,5.832-10.8,14.472-10.944V22.552z"/>
	<rect x="223.488" y="0.376" width="4.896" height="77.903"/>
</g>
</svg>
