<?xml version="1.0" standalone="no"?>
<!DOCTYPE svg PUBLIC "-//W3C//DTD SVG 20010904//EN"
 "http://www.w3.org/TR/2001/REC-SVG-20010904/DTD/svg10.dtd">
<svg version="1.0" xmlns="http://www.w3.org/2000/svg"
 width="1327.000000pt" height="1327.000000pt" viewBox="0 0 1327.000000 1327.000000"
 preserveAspectRatio="xMidYMid meet">
<metadata>
Created by potrace 1.11, written by Peter Selinger 2001-2013
</metadata>
<g transform="translate(0.000000,1327.000000) scale(0.100000,-0.100000)"
fill="#000000" stroke="none">
<path d="M6195 13255 c-33 -8 -71 -17 -85 -20 -14 -3 -38 -8 -55 -11 -16 -3
-46 -9 -65 -14 -19 -5 -51 -12 -70 -15 -19 -3 -44 -9 -55 -12 -11 -3 -29 -7
-40 -9 -11 -1 -63 -12 -115 -24 -52 -11 -135 -29 -185 -40 -163 -33 -669 -140
-695 -146 -14 -3 -36 -8 -49 -10 -46 -9 -446 -94 -491 -105 -25 -6 -56 -13
-70 -15 -39 -7 -315 -65 -375 -79 -56 -13 -123 -27 -149 -30 -15 -2 -36 -7
-46 -10 -10 -3 -27 -8 -37 -10 -10 -2 -74 -15 -143 -30 -69 -14 -136 -28 -150
-31 -14 -2 -36 -7 -50 -10 -14 -3 -34 -8 -45 -10 -11 -2 -67 -14 -125 -27
l-105 -23 -23 -45 c-23 -45 -161 -334 -212 -444 -15 -33 -56 -118 -90 -190
-108 -224 -246 -514 -316 -662 -89 -188 -133 -281 -204 -428 -40 -82 -84 -175
-97 -205 -14 -30 -61 -129 -104 -219 l-79 -164 3 -1731 c1 -952 5 -1742 9
-1756 4 -14 14 -70 22 -125 9 -55 18 -112 21 -127 3 -16 7 -40 9 -55 2 -16 15
-100 29 -188 37 -226 38 -236 42 -254 1 -9 8 -52 15 -96 7 -44 14 -89 16 -100
2 -11 7 -40 10 -65 3 -25 7 -52 9 -60 3 -8 7 -33 10 -55 4 -22 13 -78 20 -125
8 -47 17 -103 20 -125 4 -22 8 -51 11 -65 7 -40 23 -142 29 -185 4 -22 8 -51
11 -65 2 -14 11 -70 20 -125 8 -55 17 -111 20 -125 2 -14 9 -54 14 -90 16 -97
16 -99 40 -180 12 -41 26 -91 30 -110 5 -19 25 -91 45 -160 44 -153 42 -147
54 -190 20 -77 93 -337 102 -365 5 -16 39 -136 74 -265 36 -129 72 -257 80
-285 8 -27 37 -131 65 -230 28 -99 57 -202 65 -230 8 -27 35 -124 60 -215 52
-185 35 -157 235 -385 134 -153 227 -260 431 -495 26 -30 57 -66 69 -80 12
-14 86 -98 164 -188 l141 -163 270 -182 c149 -99 322 -216 385 -259 63 -43
122 -82 130 -88 8 -6 38 -25 65 -43 48 -32 180 -121 618 -418 110 -74 211
-142 225 -151 25 -15 90 -17 725 -17 l698 -1 277 187 c152 102 351 237 442
298 162 109 710 479 901 607 53 35 112 82 130 104 19 21 37 41 40 44 3 3 70
79 148 170 79 91 178 206 221 255 43 50 88 101 100 115 42 49 125 144 140 160
8 9 40 45 70 80 30 36 71 82 90 103 19 22 44 50 55 64 11 14 37 44 57 66 25
28 44 65 57 107 24 79 151 527 157 555 2 12 66 239 94 335 10 36 39 137 64
225 24 88 57 203 72 255 33 119 40 142 58 210 8 30 37 136 66 235 28 99 53
187 55 195 2 8 17 62 33 120 27 96 41 147 43 167 1 5 5 18 10 31 5 12 11 33
13 45 7 34 11 47 66 267 28 113 53 212 55 220 2 8 15 61 29 116 15 56 28 110
30 121 2 10 33 133 69 274 36 140 68 266 71 280 3 13 17 69 31 124 14 55 28
107 30 115 12 55 186 741 194 768 5 17 8 32 6 32 -3 0 0 12 6 28 6 15 13 38
15 52 3 14 10 43 16 65 5 22 12 47 13 55 2 8 27 105 55 215 28 110 53 209 56
220 2 11 20 83 39 160 20 77 38 147 40 155 2 8 20 80 40 160 38 149 64 253 70
280 2 8 24 96 48 195 l46 179 -49 101 c-26 55 -94 195 -150 310 -184 378 -271
558 -345 710 -40 83 -119 245 -175 360 -56 116 -126 260 -155 320 -29 61 -104
216 -168 346 -63 129 -144 296 -180 370 -36 73 -111 229 -167 344 -56 116
-133 273 -170 350 -251 518 -270 555 -287 556 -10 0 -25 2 -33 4 -27 7 -100
22 -185 39 -11 3 -40 9 -65 15 -25 5 -56 12 -70 14 -14 3 -68 14 -120 25 -52
12 -106 23 -120 26 -14 2 -45 9 -70 15 -25 5 -56 12 -70 15 -14 2 -144 30
-290 61 -146 32 -274 59 -285 60 -11 2 -31 6 -45 9 -14 3 -34 8 -45 10 -11 2
-40 9 -65 15 -25 5 -56 12 -70 15 -93 18 -132 26 -171 35 -98 22 -193 42 -379
81 -107 22 -213 45 -235 50 -22 6 -52 12 -67 15 -52 9 -83 16 -98 20 -8 2 -28
7 -45 10 -35 6 -19 2 -240 50 -93 19 -231 49 -305 65 -181 38 -215 41 -285 25z"/>
</g>
</svg>
