<?xml version="1.0" encoding="utf-8"?>
<!-- Generator: Adobe Illustrator 16.0.3, SVG Export Plug-In . SVG Version: 6.00 Build 0)  -->
<!DOCTYPE svg PUBLIC "-//W3C//DTD SVG 1.1//EN" "http://www.w3.org/Graphics/SVG/1.1/DTD/svg11.dtd">
<svg version="1.1" xmlns="http://www.w3.org/2000/svg" xmlns:xlink="http://www.w3.org/1999/xlink" x="0px" y="0px" width="340px"
	 height="604px" viewBox="0 0 340 604" enable-background="new 0 0 340 604" xml:space="preserve">
<g id="Ebene_2">
</g>
<g id="Ebene_1">
	<g id="Neues_Symbol_1_">
	</g>
	<g id="Neues_Symbol">
	</g>
	<g>
		<g>
			<polygon fill="#966C6C" points="12.762,309.33 0,109.131 0,229.928 			"/>
			<polygon fill="#1C1718" points="0,109.131 40.113,24.866 11.933,176.214 0,229.928 			"/>
			<polygon fill="#1A1515" points="302.205,309.33 340,159.009 314.966,229.928 			"/>
			<polygon fill="#FCFFF3" points="114.715,267.39 132.118,267.39 103.108,403.323 45.588,256.286 51.721,262.416 60.339,270.375 
				78.903,273.691 			"/>
			<polygon fill="#91AE74" points="157.483,74.497 50.397,98.637 11.933,176.214 0,229.928 			"/>
			<polygon fill="#FFFFFF" points="114.715,267.39 98.139,253.468 71.266,250.482 51.721,262.416 60.339,270.375 78.903,273.691 			
				"/>
			<path fill="#A0A77A" d="M95.068,258.23c0,6.935-5.62,12.562-12.558,12.562c-6.937,0-12.555-5.627-12.555-12.562
				c0-6.929,5.618-12.557,12.555-12.557C89.448,245.674,95.068,251.302,95.068,258.23z"/>
			<path d="M87.612,256.99c0,2.604-2.116,4.722-4.728,4.722c-2.608,0-4.724-2.117-4.724-4.722c0-2.612,2.115-4.725,4.724-4.725
				C85.496,252.266,87.612,254.378,87.612,256.99z"/>
			<path fill="#FFFFFF" d="M85.37,256.862c0,0.757-0.606,1.368-1.365,1.368c-0.757,0-1.366-0.611-1.366-1.368
				c0-0.755,0.609-1.366,1.366-1.366C84.764,255.496,85.37,256.107,85.37,256.862z"/>
			<path fill="#FFFFFF" d="M129.965,270.209"/>
			<polygon fill="#646E48" points="99.464,245.01 114.715,267.39 98.139,253.468 			"/>
			<polygon fill="#443F4E" points="98.139,253.468 71.266,250.482 67.634,239.539 99.464,245.01 			"/>
			<polygon fill="#E9EDC7" points="157.483,74.497 157.483,243.52 117.7,227.273 54.043,215.998 0,229.928 			"/>
			<polygon fill="#261F20" points="24.837,223.524 54.043,215.998 117.7,227.273 111.066,211.361 58.016,205.393 			"/>
			<polygon fill="#4E3F42" points="51.721,262.416 59.073,271.282 79.345,275.199 114.715,267.39 78.903,273.691 60.339,270.375 			
				"/>
			<polygon points="51.721,262.416 71.29,251.283 98.115,253.816 114.715,267.39 98.139,253.468 71.266,250.482 			"/>
			<polygon fill="#70A862" points="35.805,391.393 71.266,432.17 132.742,473.573 103.108,403.323 			"/>
			<polygon fill="#8BE5C2" points="0,229.928 12.762,309.33 45.588,256.286 			"/>
			<polygon fill="#53978B" points="103.108,403.323 35.805,391.393 12.762,309.33 49.734,374.81 			"/>
			<polygon fill="#8AD088" points="132.742,473.573 157.483,475.799 157.483,433.166 131.621,431.175 103.108,403.323 			"/>
			<polygon fill="#E8F8BB" points="45.588,256.286 103.108,403.323 49.734,374.81 12.762,309.33 			"/>
			<polygon fill="#994B4B" points="157.483,356.33 129.965,356.33 114.715,348.954 			"/>
			<polygon fill="#BCD798" points="129.965,356.33 145.299,374.975 103.108,403.323 114.715,348.954 			"/>
			<polygon fill="#FFEFEA" points="157.483,356.33 157.483,379.325 145.299,374.975 			"/>
			<polygon fill="#EBC2B6" points="145.299,374.975 129.965,356.33 157.483,356.33 			"/>
			<polygon fill="#CCFFCA" points="157.483,243.52 139.915,323.755 157.483,333.697 			"/>
			<polygon fill="#C5969A" points="103.108,403.323 131.621,431.175 157.483,433.166 157.483,421.225 132.742,420.894 			"/>
			<polygon fill="#C57A92" points="157.483,421.225 157.483,403.323 103.108,403.323 			"/>
			<polygon fill="#E3F3D1" points="157.483,421.225 103.108,403.323 132.742,420.894 			"/>
			<polygon fill="#D1E2F3" points="157.483,379.325 145.299,374.975 103.108,403.323 139.915,389.15 157.483,391.261 			"/>
			<polygon fill="#C58AB9" points="157.483,397.686 103.108,403.323 139.915,389.15 157.483,391.261 			"/>
			<polygon fill="#56242D" points="157.483,397.686 103.108,403.323 157.483,403.323 			"/>
			<polygon fill="#AAD5FF" points="54.043,215.998 0,229.928 45.588,256.286 			"/>
			<polygon fill="#D39B7C" points="45.588,256.286 67.634,239.539 54.043,215.998 			"/>
			<polygon fill="#96A7E6" points="67.634,239.539 99.464,245.01 117.7,227.273 54.043,215.998 			"/>
			<polygon fill="#B2BD71" points="132.118,267.39 139.915,323.755 114.715,348.954 			"/>
			<polygon fill="#A5D380" points="132.118,267.39 157.483,243.52 139.915,323.755 			"/>
			<polygon fill="#D3B0A5" points="157.483,243.52 117.7,227.273 132.118,267.39 			"/>
			<polygon fill="#9AC281" points="114.715,267.39 132.118,267.39 117.7,227.273 99.464,245.01 			"/>
			<polygon fill="#817854" points="71.266,250.482 67.634,239.539 45.588,256.286 51.721,262.416 			"/>
			<polygon fill="#8E7746" points="157.483,356.33 142.732,344.975 129.965,351.584 			"/>
			<polygon fill="#ECEAFF" points="139.915,323.755 142.732,344.975 157.483,356.33 157.483,333.697 			"/>
			<polygon fill="#E3F097" points="139.915,323.755 142.732,344.975 129.965,351.584 114.052,348.954 			"/>
			<polygon fill="#576175" points="157.483,74.497 50.397,98.637 40.113,24.866 157.483,0 			"/>
			<polygon fill="#71718A" points="40.113,24.866 11.933,176.214 50.397,98.637 			"/>
			<polygon fill="#DFFFDE" points="200.252,267.39 182.848,267.39 211.858,403.323 269.379,256.286 263.245,262.416 
				254.626,270.375 236.062,273.691 			"/>
			<polygon fill="#CFEDC7" points="157.483,74.497 264.57,98.637 303.035,176.214 314.966,229.928 			"/>
			<polygon fill="#FFFFFF" points="200.252,267.39 216.828,253.468 243.701,250.482 263.245,262.416 254.626,270.375 
				236.062,273.691 			"/>
			<path fill="#5B6A69" d="M219.9,258.23c0,6.935,5.617,12.562,12.554,12.562c6.938,0,12.556-5.627,12.556-12.562
				c0-6.929-5.618-12.557-12.556-12.557C225.518,245.674,219.9,251.302,219.9,258.23z"/>
			<path d="M227.354,256.99c0,2.604,2.116,4.722,4.729,4.722c2.605,0,4.723-2.117,4.723-4.722c0-2.612-2.117-4.725-4.723-4.725
				C229.47,252.266,227.354,254.378,227.354,256.99z"/>
			<path fill="#FFFFFF" d="M229.597,256.862c0,0.757,0.608,1.368,1.364,1.368c0.759,0,1.366-0.611,1.366-1.368
				c0-0.755-0.607-1.366-1.366-1.366C230.205,255.496,229.597,256.107,229.597,256.862z"/>
			<path fill="#FFFFFF" d="M185.004,270.209"/>
			<polygon fill="#6C8256" points="215.501,245.01 200.252,267.39 216.828,253.468 			"/>
			<polygon fill="#2E4252" points="216.828,253.468 243.701,250.482 247.332,239.539 215.501,245.01 			"/>
			<polygon fill="#F9FFD6" points="157.483,74.497 157.483,243.52 197.269,227.273 260.923,215.998 314.966,229.928 			"/>
			<polygon fill="#301E1F" points="290.127,223.524 260.923,215.998 197.269,227.273 203.899,211.361 256.948,205.393 			"/>
			<polygon fill="#4E3F42" points="263.245,262.416 255.892,271.282 235.621,275.199 200.252,267.39 236.062,273.691 
				254.626,270.375 			"/>
			<polygon points="263.245,262.416 243.677,251.283 216.851,253.816 200.252,267.39 216.828,253.468 243.701,250.482 			"/>
			<polygon fill="#92D2FA" points="279.163,391.393 243.701,432.17 182.223,473.573 211.858,403.323 			"/>
			<polygon fill="#83D6B6" points="314.966,229.928 302.205,309.33 269.379,256.286 			"/>
			<polygon fill="#75D378" points="211.858,403.323 279.163,391.393 302.205,309.33 265.235,374.81 			"/>
			<polygon fill="#C5D088" points="182.223,473.573 157.483,475.799 157.483,433.166 183.346,431.175 211.858,403.323 			"/>
			<polygon fill="#E3D0AB" points="269.379,256.286 211.858,403.323 265.235,374.81 302.205,309.33 			"/>
			<polygon fill="#A8684C" points="157.483,356.33 185.004,356.33 200.252,348.954 			"/>
			<polygon fill="#A9F0C8" points="185.004,356.33 169.668,374.975 211.858,403.323 200.252,348.954 			"/>
			<polygon fill="#FFEFEA" points="157.483,356.33 157.483,379.325 169.668,374.975 			"/>
			<polygon fill="#C5F0BA" points="169.668,374.975 185.004,356.33 157.483,356.33 			"/>
			<polygon fill="#C9FFE0" points="157.483,243.52 175.052,323.755 157.483,333.697 			"/>
			<polygon fill="#C58A8E" points="211.858,403.323 183.346,431.175 157.483,433.166 157.483,421.225 182.223,420.894 			"/>
			<polygon fill="#C5666D" points="157.483,421.225 157.483,403.323 211.858,403.323 			"/>
			<polygon fill="#F3D1E1" points="157.483,421.225 211.858,403.323 182.223,420.894 			"/>
			<polygon fill="#D8D1F3" points="157.483,379.325 169.668,374.975 211.858,403.323 175.052,389.15 157.483,391.261 			"/>
			<polygon fill="#C54F7A" points="157.483,397.686 211.858,403.323 175.052,389.15 157.483,391.261 			"/>
			<polygon fill="#42161E" points="157.483,397.686 211.858,403.323 157.483,403.323 			"/>
			<polygon fill="#B6D99C" points="260.923,215.998 314.966,229.928 269.379,256.286 			"/>
			<polygon fill="#AC97FF" points="269.379,256.286 247.332,239.539 260.923,215.998 			"/>
			<polygon fill="#A1CCF7" points="247.332,239.539 215.501,245.01 197.269,227.273 260.923,215.998 			"/>
			<polygon fill="#9CCAD6" points="182.848,267.39 175.052,323.755 200.252,348.954 			"/>
			<polygon fill="#B6E389" points="182.848,267.39 157.483,243.52 175.052,323.755 			"/>
			<polygon fill="#BBC6F0" points="157.483,243.52 197.269,227.273 182.848,267.39 			"/>
			<polygon fill="#9EEDE1" points="200.252,267.39 182.848,267.39 197.269,227.273 215.501,245.01 			"/>
			<polygon fill="#8DC2C7" points="243.701,250.482 247.332,239.539 269.379,256.286 263.245,262.416 			"/>
			<polygon fill="#468E8C" points="157.483,356.33 172.235,344.975 185.004,351.584 			"/>
			<polygon fill="#FFEEE9" points="175.052,323.755 172.235,344.975 157.483,356.33 157.483,333.697 			"/>
			<polygon fill="#97A4F0" points="175.052,323.755 172.235,344.975 185.004,351.584 200.915,348.954 			"/>
			<polygon fill="#688291" points="157.483,74.497 264.57,98.637 274.852,24.866 157.483,0 			"/>
			<polygon fill="#807455" points="274.852,24.866 303.035,176.214 264.57,98.637 			"/>
			<polygon fill="#B39299" points="340,159.009 274.852,24.866 303.035,176.214 314.966,229.928 			"/>
		</g>
		<g>
			<path fill="#FCFFF3" d="M52.785,601.177c-2.42,0.63-4.669-0.718-5.296-2.959c-0.27-0.719-0.444-1.618-0.715-2.599
				c-0.452-1.71-1.165-4.04-1.886-6.824H29.641c-0.811,2.784-1.439,5.114-1.886,6.824c-0.268,0.98-0.451,1.88-0.72,2.599
				c-0.628,2.241-2.867,3.589-5.29,2.959c-2.246-0.628-3.588-2.867-2.961-5.29l14.354-52.031c0.451-1.886,2.061-3.143,4.125-3.143
				c2.062,0,3.678,1.257,4.13,3.143l14.353,52.031C56.374,598.31,55.025,600.549,52.785,601.177z M37.263,561.257
				c-1.702,5.829-3.497,12.736-5.199,18.931h10.403C40.764,573.993,38.97,567.086,37.263,561.257z"/>
			<path fill="#FCFFF3" d="M57.628,561.527c0-2.248,1.793-4.041,4.032-4.041h3.144v-5.288c0-7.178,5.828-13.012,13.003-13.012
				c2.246,0,4.04,1.794,4.04,4.039c0,2.239-1.794,4.034-4.04,4.034c-2.777,0-4.93,2.153-4.93,4.938v5.288h4.93
				c2.246,0,4.04,1.793,4.04,4.041c0,2.238-1.794,4.033-4.04,4.033h-4.93v31.493c0,2.239-1.794,4.032-4.039,4.032
				c-2.241,0-4.034-1.793-4.034-4.032v-31.493H61.66C59.421,565.561,57.628,563.766,57.628,561.527z"/>
			<path fill="#FCFFF3" d="M87.049,588.083v-17.947c0-7.176,5.828-13.01,13.004-13.01c7.182,0,13.009,5.834,13.009,13.01v8.971
				c0,2.245-1.794,4.04-4.032,4.04H95.123v4.937c0,2.063,1.164,3.765,3.05,4.57c1.88,0.72,3.948,0.358,5.383-1.074
				c0.805-0.807,1.7-1.257,2.782-1.257c1.164,0,2.147,0.45,2.959,1.257c0.806,0.807,1.166,1.794,1.166,2.867
				c0,1.082-0.36,2.069-1.166,2.875c-3.856,3.679-9.244,4.846-14.174,2.782C90.101,598.041,87.049,593.464,87.049,588.083z
				 M95.123,570.136v4.938h9.866v-4.938c0-2.781-2.155-4.93-4.937-4.93C97.275,565.206,95.123,567.354,95.123,570.136z"/>
			<path fill="#FCFFF3" d="M120.059,588.083v-17.947c0-7.176,5.827-13.01,13.01-13.01c7.178,0,13.003,5.834,13.003,13.01v8.971
				c0,2.245-1.793,4.04-4.032,4.04h-13.907v4.937c0,2.063,1.165,3.765,3.052,4.57c1.885,0.72,3.948,0.358,5.381-1.074
				c0.806-0.807,1.703-1.257,2.784-1.257c1.164,0,2.152,0.45,2.958,1.257c0.804,0.807,1.166,1.794,1.166,2.867
				c0,1.082-0.362,2.069-1.166,2.875c-3.854,3.679-9.238,4.846-14.175,2.782C123.108,598.041,120.059,593.464,120.059,588.083z
				 M128.132,570.136v4.938H138v-4.938c0-2.781-2.155-4.93-4.932-4.93C130.286,565.206,128.132,567.354,128.132,570.136z"/>
			<path fill="#FCFFF3" d="M150.2,561.527c0-2.248,1.793-4.041,4.032-4.041h3.146v-5.288c0-7.178,5.827-13.012,13.009-13.012
				c2.238,0,4.032,1.794,4.032,4.039c0,2.239-1.794,4.034-4.032,4.034c-2.785,0-4.937,2.153-4.937,4.938v5.288h4.937
				c2.238,0,4.032,1.793,4.032,4.041c0,2.238-1.794,4.033-4.032,4.033h-4.937v31.493c0,2.239-1.795,4.032-4.04,4.032
				c-2.239,0-4.032-1.793-4.032-4.032v-31.493h-3.146C151.993,565.561,150.2,563.766,150.2,561.527z"/>
			<path fill="#FCFFF3" d="M195.048,569.96c0-1.886-1.165-3.681-2.96-4.399c-1.793-0.713-3.856-0.354-5.198,1.08
				c-0.811,0.804-1.708,1.165-2.875,1.165c-1.074,0-1.971-0.361-2.782-1.165c-0.806-0.807-1.251-1.793-1.251-2.875
				c0-1.073,0.445-2.063,1.251-2.867c3.679-3.681,9.153-4.846,13.906-2.784c4.938,2.064,7.988,6.549,7.988,11.846v26.732
				c0,2.239-1.794,4.04-4.039,4.04h-8.97c-7.178,0-13.011-5.834-13.011-13.009c0-7.178,5.833-13.01,13.011-13.01h4.93V569.96z
				 M185.182,587.724c0,2.774,2.152,4.93,4.937,4.93h4.93v-9.868h-4.93C187.334,582.785,185.182,584.94,185.182,587.724z"/>
			<path fill="#FCFFF3" d="M215.951,593.551c1.434,0,2.6,1.17,2.6,2.604c0,1.436-1.166,2.601-2.6,2.601
				c-1.435,0-2.6-1.165-2.6-2.601C213.352,594.721,214.517,593.551,215.951,593.551z"/>
			<path fill="#FCFFF3" d="M230.838,587.724v-17.228c0-5.742,4.843-10.587,10.586-10.587h7.358v-16.684
				c0-0.987,0.63-1.616,1.612-1.616c0.988,0,1.616,0.629,1.616,1.616v53.467c0,0.988-0.628,1.617-1.616,1.617h-8.971
				C235.681,598.31,230.838,593.464,230.838,587.724z M234.071,570.496v17.228c0,4.032,3.319,7.353,7.353,7.353h7.358v-31.938
				h-7.358C237.391,563.139,234.071,566.457,234.071,570.496z"/>
			<path fill="#FCFFF3" d="M265.646,588.083v-17.947c0-5.74,4.839-10.586,10.581-10.586s10.586,4.846,10.586,10.586v8.971
				c0,0.987-0.627,1.617-1.609,1.617h-16.328v7.359c0,2.961,1.793,5.65,4.575,6.815c2.776,1.166,5.829,0.536,7.98-1.616
				c0.269-0.271,0.629-0.445,1.082-0.445c0.443,0,0.896,0.175,1.163,0.445c0.269,0.269,0.446,0.72,0.446,1.164
				c0,0.452-0.178,0.813-0.446,1.082c-2.965,3.135-7.535,4.032-11.482,2.329C268.246,596.154,265.646,592.386,265.646,588.083z
				 M268.876,570.136v7.361h14.711v-7.361c0-4.032-3.319-7.353-7.359-7.353C272.194,562.783,268.876,566.104,268.876,570.136z"/>
		</g>
	</g>
</g>
</svg>
