<?xml version="1.0" encoding="utf-8"?>
<!-- Generator: Adobe Illustrator 16.0.3, SVG Export Plug-In . SVG Version: 6.00 Build 0)  -->
<!DOCTYPE svg PUBLIC "-//W3C//DTD SVG 1.1//EN" "http://www.w3.org/Graphics/SVG/1.1/DTD/svg11.dtd">
<svg version="1.1" id="Ebene_1" xmlns="http://www.w3.org/2000/svg" xmlns:xlink="http://www.w3.org/1999/xlink" x="0px" y="0px"
	 width="228.658px" height="318.488px" viewBox="0 0 228.658 318.488" enable-background="new 0 0 228.658 318.488"
	 xml:space="preserve">
<g>
	<polygon fill="#966C6C" points="8.585,208.033 0.001,73.393 0.001,154.631 	"/>
	<polygon fill="#360A21" points="0.001,73.393 26.979,16.723 8.027,118.51 0.001,154.631 	"/>
	<polygon fill="#1A1515" points="203.24,208.033 228.658,106.936 211.822,154.631 	"/>
	<polygon fill="#F4E7A8" points="77.147,179.827 88.854,179.827 69.345,271.246 30.66,172.357 34.782,176.483 40.581,181.834 
		53.067,184.063 	"/>
	<polygon fill="#CC8692" points="105.913,50.1 33.892,66.334 8.027,118.51 0.001,154.631 	"/>
	<polygon fill="#FFFFFF" points="77.147,179.827 66,170.462 47.93,168.455 34.782,176.483 40.581,181.834 53.067,184.063 	"/>
	<path fill="#A0A77A" d="M63.937,173.667c0,4.664-3.779,8.444-8.444,8.444c-4.664,0-8.446-3.78-8.446-8.444
		c0-4.663,3.782-8.444,8.446-8.444C60.157,165.223,63.937,169.004,63.937,173.667"/>
	<path d="M58.921,172.831c0,1.755-1.423,3.179-3.178,3.179c-1.756,0-3.177-1.424-3.177-3.179s1.421-3.178,3.177-3.178
		C57.498,169.653,58.921,171.076,58.921,172.831"/>
	<path fill="#FFFFFF" d="M57.415,172.747c0,0.507-0.41,0.92-0.918,0.92c-0.51,0-0.922-0.413-0.922-0.92s0.412-0.92,0.922-0.92
		C57.005,171.827,57.415,172.24,57.415,172.747"/>
	<polygon fill="#4C3F05" points="66.89,164.776 77.147,179.827 65.999,170.463 	"/>
	<polygon fill="#39310A" points="65.999,170.462 47.931,168.455 45.485,161.098 66.891,164.775 	"/>
	<polygon fill="#DDAEB7" points="105.913,50.1 105.913,163.773 79.154,152.847 36.345,145.266 0.001,154.631 	"/>
	<polygon fill="#261F20" points="16.704,150.326 36.345,145.266 79.154,152.848 74.695,142.145 39.019,138.131 	"/>
	<polygon fill="#4E3F42" points="34.782,176.483 39.729,182.446 53.359,185.08 77.147,179.828 53.066,184.063 40.581,181.834 	"/>
	<polygon points="34.782,176.483 47.946,168.996 65.984,170.699 77.147,179.828 65.999,170.463 47.93,168.455 	"/>
	<polygon fill="#DE8138" points="24.081,263.219 47.931,290.645 89.271,318.488 69.346,271.246 	"/>
	<polygon fill="#E4C326" points="0.001,154.631 8.585,208.033 30.659,172.357 	"/>
	<polygon fill="#E59A60" points="69.345,271.246 24.081,263.219 8.584,208.033 33.447,252.07 	"/>
	<polygon fill="#EBB388" points="89.272,318.488 105.913,319.985 105.913,291.313 88.521,289.976 69.345,271.246 	"/>
	<polygon fill="#E9CF51" points="30.659,172.357 69.346,271.246 33.446,252.07 8.585,208.033 	"/>
	<polygon fill="#925550" points="105.913,239.639 87.405,239.639 77.147,234.679 	"/>
	<polygon fill="#EFDB7D" points="87.405,239.639 97.719,252.182 69.345,271.246 77.147,234.679 	"/>
	<polygon fill="#CDCBB2" points="105.913,239.639 105.913,255.107 97.719,252.182 	"/>
	<polygon fill="#ADA753" points="97.718,252.182 87.405,239.639 105.912,239.639 	"/>
	<polygon fill="#DEDCBA" points="105.913,163.773 94.097,217.732 105.913,224.421 	"/>
	<polygon fill="#D8AFAC" points="69.345,271.246 88.521,289.975 105.912,291.313 105.912,283.286 89.272,283.063 	"/>
	<polygon fill="#9E3830" points="105.913,283.286 105.913,271.246 69.346,271.246 	"/>
	<polygon fill="#ECD7D6" points="105.913,283.286 69.346,271.246 89.271,283.063 	"/>
	<polygon fill="#ECD7D6" points="105.913,255.107 97.719,252.182 69.346,271.246 94.097,261.714 105.913,263.131 	"/>
	<polygon fill="#772A24" points="105.913,267.455 69.346,271.246 94.097,261.714 105.913,263.131 	"/>
	<polygon fill="#4F1C18" points="105.913,267.455 69.346,271.246 105.913,271.246 	"/>
	<polygon fill="#AB921D" points="36.345,145.266 0,154.631 30.659,172.357 	"/>
	<polygon fill="#E4C326" points="30.659,172.357 45.485,161.098 36.345,145.266 	"/>
	<polygon fill="#E9CF51" points="45.485,161.098 66.89,164.777 79.155,152.847 36.344,145.266 	"/>
	<polygon fill="#827D3E" points="88.854,179.827 94.096,217.732 77.147,234.679 	"/>
	<polygon fill="#CECA98" points="88.854,179.827 105.913,163.773 94.096,217.732 	"/>
	<polygon fill="#D69EA8" points="105.913,163.773 79.154,152.847 88.854,179.828 	"/>
	<polygon fill="#EFDB7D" points="77.147,179.827 88.854,179.827 79.155,152.848 66.89,164.776 	"/>
	<polygon fill="#726213" points="47.931,168.455 45.486,161.098 30.659,172.357 34.783,176.482 	"/>
	<polygon fill="#8E7746" points="105.913,239.639 95.99,232.002 87.405,236.447 	"/>
	<polygon fill="#C0BEA8" points="94.097,217.732 95.991,232.003 105.912,239.639 105.912,224.421 	"/>
	<polygon fill="#BDB975" points="94.097,217.732 95.991,232.003 87.406,236.447 76.702,234.679 	"/>
	<polygon fill="#733B7C" points="105.913,50.1 33.892,66.334 26.979,16.723 105.913,0 	"/>
	<polygon fill="#492144" points="26.979,16.723 8.028,118.51 33.892,66.334 	"/>
	<polygon fill="#D5E8E9" points="134.676,179.827 122.969,179.827 142.479,271.246 181.164,172.357 177.04,176.483 171.241,181.834 
		158.755,184.063 	"/>
	<polygon fill="#D8AFAC" points="105.913,50.1 177.932,66.334 203.798,118.51 211.822,154.631 	"/>
	<polygon fill="#FFFFFF" points="134.676,179.827 145.824,170.462 163.895,168.455 177.04,176.483 171.241,181.834 158.755,184.063 
			"/>
	<path fill="#5B6A69" d="M147.887,173.667c0,4.664,3.78,8.444,8.444,8.444c4.665,0,8.446-3.78,8.446-8.444
		c0-4.663-3.781-8.444-8.446-8.444C151.667,165.223,147.887,169.004,147.887,173.667"/>
	<path d="M152.902,172.831c0,1.755,1.424,3.179,3.179,3.179c1.754,0,3.176-1.424,3.176-3.179s-1.422-3.178-3.176-3.178
		C154.326,169.653,152.902,171.076,152.902,172.831"/>
	<path fill="#FFFFFF" d="M154.408,172.747c0,0.507,0.411,0.92,0.92,0.92s0.92-0.413,0.92-0.92s-0.411-0.92-0.92-0.92
		S154.408,172.24,154.408,172.747"/>
	<polygon fill="#103637" points="144.932,164.776 134.676,179.827 145.825,170.463 	"/>
	<polygon fill="#185053" points="145.824,170.462 163.894,168.455 166.338,161.098 144.932,164.775 	"/>
	<polygon fill="#ECD7D6" points="105.913,50.1 105.913,163.773 132.67,152.847 175.479,145.266 211.822,154.631 	"/>
	<polygon fill="#301E1F" points="195.117,150.326 175.479,145.266 132.67,152.848 137.128,142.145 172.804,138.131 	"/>
	<polygon fill="#4E3F42" points="177.041,176.483 172.093,182.446 158.464,185.08 134.677,179.828 158.756,184.063 171.241,181.834 
			"/>
	<polygon points="177.041,176.483 163.879,168.996 145.839,170.699 134.677,179.828 145.824,170.463 163.895,168.455 	"/>
	<polygon fill="#5779A1" points="187.744,263.219 163.894,290.645 122.552,318.488 142.479,271.246 	"/>
	<polygon fill="#206B6E" points="211.822,154.631 203.24,208.033 181.165,172.357 	"/>
	<polygon fill="#819AB9" points="142.479,271.246 187.744,263.219 203.24,208.033 178.378,252.07 	"/>
	<polygon fill="#ABBCD0" points="122.551,318.488 105.912,319.985 105.912,291.313 123.305,289.976 142.479,271.246 	"/>
	<polygon fill="#AAD2D4" points="181.164,172.357 142.479,271.246 178.379,252.07 203.239,208.033 	"/>
	<polygon fill="#C57570" points="105.913,239.639 124.419,239.639 134.677,234.679 	"/>
	<polygon fill="#BBDBDD" points="124.418,239.639 114.105,252.182 142.479,271.246 134.677,234.679 	"/>
	<polygon fill="#D2E1E2" points="105.913,239.639 105.913,255.107 114.105,252.182 	"/>
	<polygon fill="#DDEDEE" points="114.106,252.182 124.419,239.639 105.913,239.639 	"/>
	<polygon fill="#D2E1E2" points="105.913,163.773 117.729,217.732 105.913,224.421 	"/>
	<polygon fill="#BAA2A0" points="142.479,271.246 123.304,289.975 105.913,291.313 105.913,283.286 122.551,283.063 	"/>
	<polygon fill="#744440" points="105.913,283.286 105.913,271.246 142.479,271.246 	"/>
	<polygon fill="#DCD0CF" points="105.913,283.286 142.479,271.246 122.552,283.063 	"/>
	<polygon fill="#BAA2A0" points="105.913,255.107 114.105,252.182 142.479,271.246 117.729,261.714 105.913,263.131 	"/>
	<polygon fill="#521511" points="105.913,267.455 142.479,271.246 117.729,261.714 105.913,263.131 	"/>
	<polygon fill="#3D100C" points="105.913,267.455 142.479,271.246 105.913,271.246 	"/>
	<polygon fill="#2B8E93" points="175.48,145.266 211.823,154.631 181.165,172.357 	"/>
	<polygon fill="#80BBBE" points="181.164,172.357 166.338,161.098 175.479,145.266 	"/>
	<polygon fill="#AAD2D4" points="166.338,161.098 144.933,164.777 132.669,152.847 175.48,145.266 	"/>
	<polygon fill="#9CCAD6" points="122.969,179.827 117.729,217.732 134.676,234.679 	"/>
	<polygon fill="#D3F0F1" points="122.969,179.827 105.912,163.773 117.729,217.732 	"/>
	<polygon fill="#CFDADA" points="105.913,163.773 132.67,152.847 122.97,179.828 	"/>
	<polygon fill="#D5E8E9" points="134.676,179.827 122.969,179.827 132.669,152.848 144.933,164.776 	"/>
	<polygon fill="#79A6A8" points="163.895,168.455 166.337,161.098 181.165,172.357 177.04,176.482 	"/>
	<polygon fill="#468E8C" points="105.913,239.639 115.835,232.002 124.419,236.447 	"/>
	<polygon fill="#A6C4C5" points="117.729,217.732 115.834,232.003 105.913,239.639 105.913,224.421 	"/>
	<polygon fill="#A6C4C5" points="117.729,217.732 115.834,232.003 124.418,236.447 135.122,234.679 	"/>
	<polygon fill="#C07FBD" points="105.913,50.1 177.932,66.334 184.844,16.723 105.913,0 	"/>
	<polygon fill="#9E3830" points="184.844,16.723 203.797,118.51 177.932,66.334 	"/>
	<polygon fill="#692620" points="228.658,106.937 184.844,16.723 203.798,118.51 211.822,154.631 	"/>
</g>
</svg>
