<svg xmlns="http://www.w3.org/2000/svg" xmlns:xlink="http://www.w3.org/1999/xlink" viewBox="3810 -1167 342 477"><defs><style>.a{clip-path:url(#b);}.b{fill:#fcfff3;}.c{fill:#966c6c;}.d{fill:#360a21;}.e{fill:#1a1515;}.f{fill:#f4e7a8;}.g{fill:#cc8692;}.h{fill:#fff;}.i{fill:#a0a77a;}.j{fill:#4c3f05;}.k{fill:#39310a;}.l{fill:#ddaeb7;}.m{fill:#261f20;}.n{fill:#4e3f42;}.o{fill:#de8138;}.p{fill:#e4c326;}.q{fill:#e59a60;}.r{fill:#ebb388;}.s{fill:#e9cf51;}.t{fill:#925550;}.u{fill:#efdb7d;}.v{fill:#cdcbb2;}.w{fill:#ada753;}.x{fill:#dedcba;}.y{fill:#d8afac;}.z{fill:#9e3830;}.aa{fill:#ecd7d6;}.ab{fill:#772a24;}.ac{fill:#4f1c18;}.ad{fill:#ab921d;}.ae{fill:#827d3e;}.af{fill:#ceca98;}.ag{fill:#d69ea8;}.ah{fill:#726213;}.ai{fill:#8e7746;}.aj{fill:#c0bea8;}.ak{fill:#bdb975;}.al{fill:#733b7c;}.am{fill:#492144;}.an{fill:#d5e8e9;}.ao{fill:#5b6a69;}.ap{fill:#103637;}.aq{fill:#185053;}.ar{fill:#301e1f;}.as{fill:#5779a1;}.at{fill:#206b6e;}.au{fill:#819ab9;}.av{fill:#abbcd0;}.aw{fill:#aad2d4;}.ax{fill:#c57570;}.ay{fill:#bbdbdd;}.az{fill:#d2e1e2;}.ba{fill:#ddedee;}.bb{fill:#baa2a0;}.bc{fill:#744440;}.bd{fill:#dcd0cf;}.be{fill:#521511;}.bf{fill:#3d100c;}.bg{fill:#2b8e93;}.bh{fill:#80bbbe;}.bi{fill:#9ccad6;}.bj{fill:#d3f0f1;}.bk{fill:#cfdada;}.bl{fill:#79a6a8;}.bm{fill:#468e8c;}.bn{fill:#a6c4c5;}.bo{fill:#c07fbd;}.bp{fill:#692620;}</style><clipPath id="b"><rect x="3810" y="-1167" width="342" height="477"/></clipPath></defs><g id="a" class="a"><path class="b" d="M38.7,390.9a2.864,2.864,0,0,1-3.56-1.992c-.181-.482-.3-1.086-.483-1.748-.3-1.146-.783-2.717-1.267-4.586H23.134c-.543,1.869-.965,3.439-1.267,4.586-.181.662-.3,1.266-.483,1.748a2.884,2.884,0,1,1-5.55-1.569l9.653-34.992a2.879,2.879,0,0,1,5.55,0l9.652,34.992A2.862,2.862,0,0,1,38.7,390.9ZM28.263,364.047c-1.146,3.922-2.354,8.568-3.5,12.73h7C30.615,372.615,29.409,367.969,28.263,364.047Z" transform="translate(3875 -1167)"/><path class="b" d="M41.956,364.229a2.7,2.7,0,0,1,2.715-2.715h2.111v-3.561a8.755,8.755,0,0,1,8.748-8.748,2.716,2.716,0,0,1,0,5.432,3.27,3.27,0,0,0-3.318,3.316v3.561H55.53a2.715,2.715,0,1,1,0,5.43H52.212v21.178a2.715,2.715,0,0,1-5.43,0V366.944H44.671a2.7,2.7,0,0,1-2.715-2.715Z" transform="translate(3875 -1167)"/><path class="b" d="M61.743,382.088V370.022a8.75,8.75,0,1,1,17.5,0v6.033a2.7,2.7,0,0,1-2.715,2.715H67.172v3.318a3.278,3.278,0,0,0,2.051,3.076,3.349,3.349,0,0,0,3.621-.725,2.569,2.569,0,0,1,1.869-.844,2.736,2.736,0,0,1,1.992.844,2.773,2.773,0,0,1,0,3.862,8.74,8.74,0,0,1-9.533,1.871,8.566,8.566,0,0,1-5.429-8.084Zm5.43-12.067v3.318H73.81v-3.318a3.319,3.319,0,1,0-6.637,0Z" transform="translate(3875 -1167)"/><path class="b" d="M83.943,382.088V370.022a8.75,8.75,0,0,1,17.5,0v6.033a2.7,2.7,0,0,1-2.715,2.715H89.373v3.318a3.277,3.277,0,0,0,2.051,3.076,3.347,3.347,0,0,0,3.62-.725,2.57,2.57,0,0,1,1.87-.844,2.736,2.736,0,0,1,1.991.844,2.77,2.77,0,0,1,0,3.862,8.738,8.738,0,0,1-9.532,1.871,8.567,8.567,0,0,1-5.43-8.084Zm5.431-12.067v3.318h6.637v-3.318a3.319,3.319,0,1,0-6.637,0Z" transform="translate(3875 -1167)"/><path class="b" d="M104.214,364.229a2.7,2.7,0,0,1,2.715-2.715h2.111v-3.561a8.755,8.755,0,0,1,8.748-8.748,2.716,2.716,0,0,1,0,5.432,3.27,3.27,0,0,0-3.318,3.316v3.561h3.318a2.715,2.715,0,0,1,0,5.43H114.47v21.178a2.715,2.715,0,0,1-5.43,0V366.944h-2.111a2.7,2.7,0,0,1-2.715-2.715Z" transform="translate(3875 -1167)"/><path class="b" d="M134.378,369.9a3.21,3.21,0,0,0-1.99-2.957,3.158,3.158,0,0,0-3.5.725,2.547,2.547,0,0,1-1.93.783,2.507,2.507,0,0,1-1.871-.783,2.631,2.631,0,0,1,0-3.862,8.633,8.633,0,0,1,14.721,6.094v17.979a2.7,2.7,0,0,1-2.715,2.715H131.06a8.75,8.75,0,1,1,0-17.5h3.318v-3.2Zm-6.637,11.946a3.271,3.271,0,0,0,3.318,3.318h3.318v-6.637h-3.318a3.273,3.273,0,0,0-3.318,3.319Z" transform="translate(3875 -1167)"/><path class="b" d="M148.437,385.768a1.75,1.75,0,1,1-1.75,1.75A1.75,1.75,0,0,1,148.437,385.768Z" transform="translate(3875 -1167)"/><path class="b" d="M158.45,381.846V370.262a7.212,7.212,0,0,1,7.119-7.119h4.947V351.92a1.086,1.086,0,0,1,2.172,0v35.959a1.013,1.013,0,0,1-1.086,1.086h-6.033a7.212,7.212,0,0,1-7.119-7.119Zm2.172-11.584v11.584a4.969,4.969,0,0,0,4.947,4.947h4.947V365.314h-4.947a4.97,4.97,0,0,0-4.947,4.948Z" transform="translate(3875 -1167)"/><path class="b" d="M181.858,382.088V370.022a7.119,7.119,0,0,1,14.238,0v6.033a1.014,1.014,0,0,1-1.086,1.086H184.03v4.947a4.98,4.98,0,0,0,3.076,4.584,4.825,4.825,0,0,0,5.369-1.086,1.008,1.008,0,0,1,.725-.3,1.033,1.033,0,0,1,1.086,1.086,1.008,1.008,0,0,1-.3.725,6.85,6.85,0,0,1-7.723,1.568,7.163,7.163,0,0,1-4.4-6.577Zm2.172-12.067v4.947h9.9v-4.947a4.95,4.95,0,0,0-9.9,0Z" transform="translate(3875 -1167)"/><g transform="translate(-75)"><path class="c" d="M8.585,208.033,0,73.393v81.238Z" transform="translate(3950 -1167)"/><path class="d" d="M0,73.393l26.978-56.67L8.027,118.51,0,154.631Z" transform="translate(3950 -1167)"/><path class="e" d="M203.24,208.033l25.418-101.1-16.836,47.695Z" transform="translate(3950 -1167)"/><path class="f" d="M77.147,179.827H88.854L69.345,266.246,30.66,172.357l4.122,4.126,5.8,5.351,12.486,2.229Z" transform="translate(3950 -1167)"/><path class="g" d="M105.913,50.1,33.892,66.334,8.027,118.51,0,154.631Z" transform="translate(3950 -1167)"/><path class="h" d="M77.147,179.827,66,170.462l-18.07-2.007-13.148,8.028,5.8,5.351,12.486,2.229Z" transform="translate(3950 -1167)"/><path class="i" d="M63.937,173.667a8.445,8.445,0,1,1-8.444-8.444,8.445,8.445,0,0,1,8.444,8.444" transform="translate(3950 -1167)"/><path d="M58.921,172.831a3.177,3.177,0,1,1-3.178-3.178,3.177,3.177,0,0,1,3.178,3.178" transform="translate(3950 -1167)"/><path class="h" d="M57.415,172.747a.92.92,0,1,1-.918-.92.92.92,0,0,1,.918.92" transform="translate(3950 -1167)"/><path class="j" d="M66.89,164.776l10.257,15.051L66,170.463Z" transform="translate(3950 -1167)"/><path class="k" d="M66,170.462l-18.068-2.007L45.485,161.1l21.406,3.677Z" transform="translate(3950 -1167)"/><path class="l" d="M105.913,50.1V163.773L79.154,152.847l-42.809-7.581L0,154.631Z" transform="translate(3950 -1167)"/><path class="m" d="M16.7,150.326l19.641-5.06,42.809,7.582-4.459-10.7-35.676-4.014Z" transform="translate(3950 -1167)"/><path class="n" d="M34.782,176.483l4.947,5.963,13.63,2.634,23.788-5.252-24.081,4.235-12.485-2.229Z" transform="translate(3950 -1167)"/><path d="M34.782,176.483,47.946,169l18.038,1.7,11.163,9.129L66,170.463l-18.07-2.008Z" transform="translate(3950 -1167)"/><path class="o" d="M24.081,263.219l23.85,27.426,41.34,27.843L69.346,266.246Z" transform="translate(3950 -1167)"/><path class="p" d="M0,154.631l8.584,53.4,22.074-35.676Z" transform="translate(3950 -1167)"/><path class="q" d="M69.345,266.246l-45.264-3.027-15.5-55.186L33.447,252.07Z" transform="translate(3950 -1167)"/><path class="r" d="M89.272,318.488l16.641,1.5V291.313l-17.392-1.337-19.176-23.73Z" transform="translate(3950 -1167)"/><path class="s" d="M30.659,172.357l38.687,93.889-35.9-14.176L8.585,208.033Z" transform="translate(3950 -1167)"/><path class="t" d="M105.913,239.639H87.4l-10.934-4.96Z" transform="translate(3950 -1167)"/><path class="u" d="M87.4,239.639l10.314,12.543L69.345,266.246l7.126-31.567Z" transform="translate(3950 -1167)"/><path class="v" d="M105.913,239.639v15.468l-8.194-2.925Z" transform="translate(3950 -1167)"/><path class="w" d="M97.718,252.182,87.4,239.639h18.507Z" transform="translate(3950 -1167)"/><path class="x" d="M105.913,163.773,94.1,217.732l11.816,6.689Z" transform="translate(3950 -1167)"/><path class="y" d="M69.345,266.246l19.176,23.729,17.391,1.338v-8.027l-16.64-.223Z" transform="translate(3950 -1167)"/><path class="z" d="M105.913,283.286v-12.04l-36.567-5Z" transform="translate(3950 -1167)"/><path class="aa" d="M105.913,283.286l-36.567-17.04,19.925,16.817Z" transform="translate(3950 -1167)"/><path class="aa" d="M105.913,255.107l-8.194-2.925L69.346,266.246,94.1,261.714l11.816,1.417Z" transform="translate(3950 -1167)"/><path class="ab" d="M105.913,267.455l-36.567-1.209L94.1,261.714l11.816,1.417Z" transform="translate(3950 -1167)"/><path class="ac" d="M105.913,267.455l-36.567-1.209,36.567,5Z" transform="translate(3950 -1167)"/><path class="ad" d="M36.345,145.266,0,154.631l30.659,17.726Z" transform="translate(3950 -1167)"/><path class="p" d="M30.659,172.357,45.485,161.1l-9.14-15.832Z" transform="translate(3950 -1167)"/><path class="s" d="M45.485,161.1l21.4,3.679,12.265-11.93-42.811-7.581Z" transform="translate(3950 -1167)"/><path class="ae" d="M88.854,179.827l5.242,37.9L76.471,234.679Z" transform="translate(3950 -1167)"/><path class="af" d="M88.854,179.827l17.059-16.054L94.1,217.732Z" transform="translate(3950 -1167)"/><path class="ag" d="M105.913,163.773,79.154,152.847l9.7,26.981Z" transform="translate(3950 -1167)"/><path class="u" d="M77.147,179.827H88.854l-9.7-26.979L66.89,164.776Z" transform="translate(3950 -1167)"/><path class="ah" d="M47.931,168.455,45.486,161.1,30.659,172.357l4.124,4.125Z" transform="translate(3950 -1167)"/><path class="ai" d="M105.913,239.639,95.99,232l-8.59,4.447Z" transform="translate(3950 -1167)"/><path class="aj" d="M94.1,217.732,95.991,232l9.921,7.636V224.421Z" transform="translate(3950 -1167)"/><path class="ak" d="M94.1,217.732,95.991,232l-8.585,4.444-10.935-1.768Z" transform="translate(3950 -1167)"/><path class="al" d="M105.913,50.1,33.892,66.334,26.979,16.723,105.913,0Z" transform="translate(3950 -1167)"/><path class="am" d="M26.979,16.723,8.028,118.51,33.892,66.334Z" transform="translate(3950 -1167)"/><path class="an" d="M134.676,179.827H122.969l19.51,86.419,38.685-93.889-4.124,4.126-5.8,5.351-12.486,2.229Z" transform="translate(3950 -1167)"/><path class="y" d="M105.913,50.1l72.019,16.234L203.8,118.51l8.024,36.121Z" transform="translate(3950 -1167)"/><path class="h" d="M134.676,179.827l11.148-9.365,18.071-2.007,13.145,8.028-5.8,5.351-12.486,2.229Z" transform="translate(3950 -1167)"/><path class="ao" d="M147.887,173.667a8.445,8.445,0,1,0,8.444-8.444,8.445,8.445,0,0,0-8.444,8.444" transform="translate(3950 -1167)"/><path d="M152.9,172.831a3.177,3.177,0,1,0,3.179-3.178,3.177,3.177,0,0,0-3.179,3.178" transform="translate(3950 -1167)"/><path class="h" d="M154.408,172.747a.92.92,0,1,0,.92-.92.92.92,0,0,0-.92.92" transform="translate(3950 -1167)"/><path class="ap" d="M144.932,164.776l-10.256,15.051,11.149-9.364Z" transform="translate(3950 -1167)"/><path class="aq" d="M145.824,170.462l18.07-2.007,2.444-7.357-21.406,3.677Z" transform="translate(3950 -1167)"/><path class="aa" d="M105.913,50.1V163.773l26.757-10.926,42.809-7.581,36.343,9.365Z" transform="translate(3950 -1167)"/><path class="ar" d="M195.117,150.326l-19.638-5.06-42.809,7.582,4.458-10.7,35.676-4.014Z" transform="translate(3950 -1167)"/><path class="n" d="M177.041,176.483l-4.948,5.963-13.629,2.634-23.787-5.252,24.079,4.235,12.485-2.229Z" transform="translate(3950 -1167)"/><path d="M177.041,176.483,163.879,169l-18.04,1.7-11.162,9.129,11.147-9.365,18.071-2.008Z" transform="translate(3950 -1167)"/><path class="as" d="M187.744,263.219l-23.85,27.426-41.342,27.843,19.927-52.242Z" transform="translate(3950 -1167)"/><path class="at" d="M211.822,154.631l-8.582,53.4-22.075-35.676Z" transform="translate(3950 -1167)"/><path class="au" d="M142.479,266.246l45.265-3.027,15.5-55.186L178.378,252.07Z" transform="translate(3950 -1167)"/><path class="av" d="M122.551,318.488l-16.639,1.5V291.313l17.393-1.337,19.174-23.73Z" transform="translate(3950 -1167)"/><path class="aw" d="M181.164,172.357l-38.685,93.889,35.9-14.176,24.86-44.037Z" transform="translate(3950 -1167)"/><path class="ax" d="M105.913,239.639h18.506l10.935-4.96Z" transform="translate(3950 -1167)"/><path class="ay" d="M124.418,239.639,114.1,252.182l28.374,14.064-7.125-31.567Z" transform="translate(3950 -1167)"/><path class="az" d="M105.913,239.639v15.468l8.192-2.925Z" transform="translate(3950 -1167)"/><path class="ba" d="M114.106,252.182l10.313-12.543H105.913Z" transform="translate(3950 -1167)"/><path class="az" d="M105.913,163.773l11.816,53.959-11.816,6.689Z" transform="translate(3950 -1167)"/><path class="bb" d="M142.479,266.246,123.3,289.975l-17.391,1.338v-8.027l16.638-.223Z" transform="translate(3950 -1167)"/><path class="bc" d="M105.913,283.286v-12.04l36.566-5Z" transform="translate(3950 -1167)"/><path class="bd" d="M105.913,283.286l36.566-17.04-19.927,16.817Z" transform="translate(3950 -1167)"/><path class="bb" d="M105.913,255.107l8.192-2.925,28.374,14.064-24.75-4.532-11.816,1.417Z" transform="translate(3950 -1167)"/><path class="be" d="M105.913,267.455l36.566-1.209-24.75-4.532-11.816,1.417Z" transform="translate(3950 -1167)"/><path class="bf" d="M105.913,267.455l36.566-1.209-36.566,5Z" transform="translate(3950 -1167)"/><path class="bg" d="M175.48,145.266l36.343,9.365-30.658,17.726Z" transform="translate(3950 -1167)"/><path class="bh" d="M181.164,172.357,166.338,161.1l9.141-15.832Z" transform="translate(3950 -1167)"/><path class="aw" d="M166.338,161.1l-21.4,3.679-12.264-11.93,42.811-7.581Z" transform="translate(3950 -1167)"/><path class="bi" d="M122.969,179.827l-5.24,37.9,17.624,16.947Z" transform="translate(3950 -1167)"/><path class="bj" d="M122.969,179.827l-17.057-16.054,11.817,53.959Z" transform="translate(3950 -1167)"/><path class="bk" d="M105.913,163.773l26.757-10.926-9.7,26.981Z" transform="translate(3950 -1167)"/><path class="an" d="M134.676,179.827H122.969l9.7-26.979,12.264,11.928Z" transform="translate(3950 -1167)"/><path class="bl" d="M163.9,168.455l2.442-7.357,14.828,11.259-4.125,4.125Z" transform="translate(3950 -1167)"/><path class="bm" d="M105.913,239.639,115.835,232l8.584,4.445Z" transform="translate(3950 -1167)"/><path class="bn" d="M117.729,217.732,115.834,232l-9.921,7.636V224.421Z" transform="translate(3950 -1167)"/><path class="bn" d="M117.729,217.732,115.834,232l8.584,4.444,10.935-1.768Z" transform="translate(3950 -1167)"/><path class="bo" d="M105.913,50.1l72.019,16.234,6.912-49.611L105.913,0Z" transform="translate(3950 -1167)"/><path class="z" d="M184.844,16.723,203.8,118.51,177.932,66.334Z" transform="translate(3950 -1167)"/><path class="bp" d="M228.658,106.937,184.844,16.723,203.8,118.51l8.024,36.121Z" transform="translate(3950 -1167)"/></g><g transform="translate(3810 -1141)"><path class="h" d="M0,17.064V.816A.47.47,0,0,1,.54.276H6.222a.47.47,0,0,1,.54.54.47.47,0,0,1-.54.54H1.08v6.76H5.654a.47.47,0,0,1,.54.54.47.47,0,0,1-.54.54H1.08v7.328H6.222a.54.54,0,1,1,0,1.08H.54A.47.47,0,0,1,0,17.064Z" transform="translate(0 427.375)"/><path class="h" d="M4.428,14.207V2.959a.478.478,0,0,1,.512-.512H7.78A3.4,3.4,0,0,1,11.133,5.8v8.408a.512.512,0,1,1-1.023,0V5.8A2.339,2.339,0,0,0,7.78,3.47H5.449V14.207a.478.478,0,0,1-.512.512A.477.477,0,0,1,4.428,14.207Z" transform="translate(6.06 430.346)"/><path class="h" d="M8.988,11.255V5.8a3.4,3.4,0,0,1,3.354-3.354h2.84a.478.478,0,0,1,.512.512V17.046a3.333,3.333,0,0,1-2.072,3.1A3.242,3.242,0,0,1,9.985,19.4a.54.54,0,0,1-.142-.369.485.485,0,0,1,.483-.483.54.54,0,0,1,.369.142,2.323,2.323,0,0,0,3.979-1.649v-2.44H12.347A3.4,3.4,0,0,1,8.988,11.255ZM10.011,5.8v5.455a2.337,2.337,0,0,0,2.328,2.328h2.328V3.469H12.34A2.339,2.339,0,0,0,10.011,5.8Z" transform="translate(12.301 430.345)"/><path class="h" d="M18.941,5.7A2.289,2.289,0,0,0,15.05,4.08a.458.458,0,0,1-.369.171.405.405,0,0,1-.341-.171.471.471,0,0,1-.142-.341.54.54,0,0,1,.142-.369,3.236,3.236,0,0,1,3.579-.711A3.3,3.3,0,0,1,19.962,5.7v8.465a.478.478,0,0,1-.512.512h-2.84a3.353,3.353,0,0,1,0-6.705h2.328V5.7Zm-2.328,7.954h2.328V8.993H16.613a2.329,2.329,0,0,0,0,4.659Z" transform="translate(18.146 430.277)"/><path class="h" d="M17.819,11.255V5.8a3.4,3.4,0,0,1,3.354-3.354h2.84a.478.478,0,0,1,.512.512V17.046a3.333,3.333,0,0,1-2.072,3.1,3.242,3.242,0,0,1-3.636-.739.54.54,0,0,1-.142-.369.485.485,0,0,1,.483-.483.54.54,0,0,1,.369.142,2.323,2.323,0,0,0,3.979-1.649v-2.44H21.178A3.4,3.4,0,0,1,17.819,11.255ZM18.842,5.8v5.455a2.337,2.337,0,0,0,2.328,2.328H23.5V3.469H21.17A2.341,2.341,0,0,0,18.842,5.8Z" transform="translate(24.386 430.345)"/><path class="h" d="M22.451,1.275a.813.813,0,0,1,.8-.8.8.8,0,1,1,0,1.592A.813.813,0,0,1,22.451,1.275Zm.8,16.135a.478.478,0,0,1-.512-.512V5.536a.512.512,0,1,1,1.023,0V16.9A.478.478,0,0,1,23.247,17.409Z" transform="translate(30.725 427.653)"/><path class="h" d="M24.827,11.432V5.752a3.353,3.353,0,1,1,6.705,0v2.84a.478.478,0,0,1-.512.512H25.85v2.328a2.352,2.352,0,0,0,1.447,2.16,2.271,2.271,0,0,0,2.527-.512.471.471,0,0,1,.341-.142.487.487,0,0,1,.512.512.471.471,0,0,1-.142.341,3.227,3.227,0,0,1-3.636.739A3.377,3.377,0,0,1,24.827,11.432Zm1.023-5.68V8.08h4.659V5.752a2.329,2.329,0,1,0-4.659,0Z" transform="translate(33.977 430.279)"/><path class="h" d="M29.387,14.207V2.959a.478.478,0,0,1,.512-.512h2.842a3.317,3.317,0,0,1,1.677.455.49.49,0,0,1,.2.682.516.516,0,0,1-.711.2,2.384,2.384,0,0,0-1.165-.313H30.41V14.207a.512.512,0,1,1-1.023,0Z" transform="translate(40.218 430.346)"/><path class="h" d="M32.831,11.432V5.752a3.353,3.353,0,1,1,6.705,0v2.84a.478.478,0,0,1-.512.512H33.854v2.328a2.352,2.352,0,0,0,1.447,2.16,2.271,2.271,0,0,0,2.527-.512.471.471,0,0,1,.341-.142.487.487,0,0,1,.512.512.471.471,0,0,1-.142.341,3.227,3.227,0,0,1-3.636.739A3.377,3.377,0,0,1,32.831,11.432Zm1.023-5.68V8.08h4.659V5.752a2.329,2.329,0,1,0-4.659,0Z" transform="translate(44.931 430.279)"/><path class="h" d="M37.391,14.207V2.959a.478.478,0,0,1,.512-.512h2.842A3.4,3.4,0,0,1,44.1,5.8v8.408a.512.512,0,1,1-1.023,0V5.8A2.339,2.339,0,0,0,40.745,3.47H38.414V14.207a.512.512,0,1,1-1.023,0Z" transform="translate(51.172 430.346)"/><path class="h" d="M48.877,5.792a2.485,2.485,0,1,1-2.5-2.47A2.495,2.495,0,0,1,48.877,5.792Zm-.995,0a1.514,1.514,0,0,0-1.506-1.5,1.505,1.505,0,0,0,0,3.01A1.516,1.516,0,0,0,47.882,5.792Z" transform="translate(60.09 431.544)"/><path class="h" d="M58.144,1.093,53.6,7.485l4.6,9.545a.555.555,0,0,1-.256.711.511.511,0,0,1-.739-.256L52.888,8.508,50.87,11.32v5.936a.546.546,0,0,1-.568.54.523.523,0,0,1-.54-.54V.782a.523.523,0,0,1,.54-.54.546.546,0,0,1,.568.54V9.446L57.261.47a.529.529,0,0,1,.767-.142A.548.548,0,0,1,58.144,1.093Z" transform="translate(68.102 427.295)"/><path class="h" d="M54.443,11.432V5.752a3.353,3.353,0,1,1,6.705,0v5.68a3.353,3.353,0,0,1-6.705,0Zm1.023-5.68v5.68a2.328,2.328,0,0,0,4.657,0V5.752a2.328,2.328,0,1,0-4.657,0Z" transform="translate(74.508 430.279)"/><path class="h" d="M58.955,11.432V5.752a3.353,3.353,0,1,1,6.705,0v5.68a3.353,3.353,0,0,1-6.705,0Zm1.023-5.68v5.68a2.328,2.328,0,0,0,4.657,0V5.752a2.328,2.328,0,1,0-4.657,0Z" transform="translate(80.683 430.279)"/><path class="h" d="M63.61,19.889V2.959a.478.478,0,0,1,.512-.512h2.84A3.4,3.4,0,0,1,70.315,5.8v5.455a3.4,3.4,0,0,1-3.354,3.352H64.633v5.284a.512.512,0,1,1-1.023,0ZM66.962,3.468H64.633V13.582h2.328a2.341,2.341,0,0,0,2.331-2.328V5.8A2.341,2.341,0,0,0,66.962,3.468Z" transform="translate(87.054 430.346)"/><path class="h" d="M68.122,11.432V5.752a3.353,3.353,0,1,1,6.705,0v2.84a.478.478,0,0,1-.512.512H69.145v2.328a2.352,2.352,0,0,0,1.447,2.16,2.271,2.271,0,0,0,2.527-.512.471.471,0,0,1,.341-.142.487.487,0,0,1,.512.512.471.471,0,0,1-.142.341,3.227,3.227,0,0,1-3.636.739A3.377,3.377,0,0,1,68.122,11.432Zm1.023-5.68V8.08H73.8V5.752a2.329,2.329,0,1,0-4.659,0Z" transform="translate(93.229 430.279)"/><path class="h" d="M72.682,14.207V2.959a.478.478,0,0,1,.512-.512h2.842a3.317,3.317,0,0,1,1.677.455.49.49,0,0,1,.2.682.516.516,0,0,1-.711.2,2.384,2.384,0,0,0-1.165-.313H73.705V14.207a.512.512,0,1,1-1.023,0Z" transform="translate(99.469 430.346)"/><path class="h" d="M76.15,1.275a.813.813,0,0,1,.793-.8.8.8,0,1,1,0,1.592A.813.813,0,0,1,76.15,1.275Zm.8,16.135a.478.478,0,0,1-.512-.512V5.536a.512.512,0,0,1,1.023,0V16.9A.478.478,0,0,1,76.946,17.409Z" transform="translate(104.215 427.653)"/><path class="h" d="M78.526,11.432V5.752a3.353,3.353,0,1,1,6.705,0v2.84a.478.478,0,0,1-.512.512H79.549v2.328A2.352,2.352,0,0,0,81,13.592a2.271,2.271,0,0,0,2.527-.512.471.471,0,0,1,.341-.142.487.487,0,0,1,.512.512.471.471,0,0,1-.142.341,3.227,3.227,0,0,1-3.636.739A3.377,3.377,0,0,1,78.526,11.432Zm1.023-5.68V8.08h4.659V5.752a2.329,2.329,0,1,0-4.659,0Z" transform="translate(107.467 430.279)"/><path class="h" d="M83.086,14.207V2.959a.478.478,0,0,1,.512-.512h2.84a3.311,3.311,0,0,1,1.677.455.49.49,0,0,1,.2.682.516.516,0,0,1-.711.2,2.384,2.384,0,0,0-1.165-.313H84.109V14.207a.512.512,0,1,1-1.023,0Z" transform="translate(113.708 430.346)"/><path class="h" d="M86.53,11.432V5.752a3.353,3.353,0,1,1,6.705,0v2.84a.478.478,0,0,1-.512.512H87.553v2.328A2.352,2.352,0,0,0,89,13.592a2.271,2.271,0,0,0,2.527-.512.471.471,0,0,1,.341-.142.54.54,0,0,1,.369.142.529.529,0,0,1,.142.369.471.471,0,0,1-.142.341,3.227,3.227,0,0,1-3.636.739A3.377,3.377,0,0,1,86.53,11.432Zm1.023-5.68V8.08h4.659V5.752a2.329,2.329,0,1,0-4.659,0Z" transform="translate(118.421 430.279)"/><path class="h" d="M91.09,14.207V2.959a.478.478,0,0,1,.512-.512h2.84A3.4,3.4,0,0,1,97.8,5.8v8.408a.512.512,0,0,1-1.023,0V5.8a2.339,2.339,0,0,0-2.331-2.328H92.113V14.209a.512.512,0,1,1-1.023,0Z" transform="translate(124.661 430.346)"/><path class="h" d="M102.578,5.792a2.5,2.5,0,0,1-2.5,2.47,2.47,2.47,0,0,1,0-4.941A2.5,2.5,0,0,1,102.578,5.792Zm-.995,0a1.514,1.514,0,0,0-1.506-1.5,1.505,1.505,0,0,0,0,3.01A1.516,1.516,0,0,0,101.583,5.792Z" transform="translate(133.579 431.544)"/><path class="h" d="M103.462,17.244V.768a.523.523,0,0,1,.54-.54.546.546,0,0,1,.568.54V17.244a.546.546,0,0,1-.568.54A.524.524,0,0,1,103.462,17.244Z" transform="translate(141.593 427.31)"/><path class="h" d="M105.874,14.207V2.959a.478.478,0,0,1,.512-.512h2.842A3.4,3.4,0,0,1,112.579,5.8v8.408a.512.512,0,0,1-1.023,0V5.8a2.339,2.339,0,0,0-2.328-2.328H106.9V14.209a.512.512,0,1,1-1.023,0Z" transform="translate(144.894 430.346)"/><path class="h" d="M110.05,6.306a.478.478,0,0,1,.512-.512h1.762V.513a.512.512,0,0,1,1.023,0V5.794h2.328a.478.478,0,0,1,.512.512.478.478,0,0,1-.512.512h-2.328v7.9a2.337,2.337,0,0,0,2.328,2.328.512.512,0,1,1,0,1.023,3.4,3.4,0,0,1-3.354-3.352v-7.9h-1.762A.476.476,0,0,1,110.05,6.306Z" transform="translate(150.609 426.999)"/><path class="h" d="M113.985,11.432V5.752a3.353,3.353,0,1,1,6.705,0v2.84a.478.478,0,0,1-.512.512h-5.171v2.328a2.352,2.352,0,0,0,1.447,2.16,2.271,2.271,0,0,0,2.527-.512.471.471,0,0,1,.341-.142.487.487,0,0,1,.512.512.471.471,0,0,1-.142.341,3.227,3.227,0,0,1-3.636.739A3.377,3.377,0,0,1,113.985,11.432Zm1.023-5.68V8.08h4.659V5.752a2.329,2.329,0,1,0-4.659,0Z" transform="translate(155.994 430.279)"/><path class="h" d="M118.4,11.255V5.8a3.4,3.4,0,0,1,3.354-3.354h2.84a.478.478,0,0,1,.512.512V17.046a3.333,3.333,0,0,1-2.072,3.1A3.242,3.242,0,0,1,119.4,19.4a.54.54,0,0,1-.142-.369.485.485,0,0,1,.483-.483.54.54,0,0,1,.369.142,2.323,2.323,0,0,0,3.979-1.649v-2.44H121.76A3.4,3.4,0,0,1,118.4,11.255ZM119.424,5.8v5.455a2.337,2.337,0,0,0,2.328,2.328h2.328V3.469h-2.328A2.341,2.341,0,0,0,119.424,5.8Z" transform="translate(162.038 430.345)"/><path class="h" d="M123.153,14.207V2.959a.478.478,0,0,1,.512-.512h2.84a3.311,3.311,0,0,1,1.677.455.491.491,0,0,1,.2.682.516.516,0,0,1-.711.2A2.384,2.384,0,0,0,126.5,3.47h-2.328V14.207a.512.512,0,1,1-1.023,0Z" transform="translate(168.541 430.346)"/><path class="h" d="M126.621,1.275a.813.813,0,0,1,.8-.8.8.8,0,1,1,0,1.592A.813.813,0,0,1,126.621,1.275Zm.8,16.135a.478.478,0,0,1-.512-.512V5.536a.512.512,0,0,1,1.023,0V16.9A.478.478,0,0,1,127.417,17.409Z" transform="translate(173.287 427.653)"/><path class="h" d="M129,11.432V5.752a3.353,3.353,0,1,1,6.705,0v2.84a.478.478,0,0,1-.512.512H130.02v2.328a2.352,2.352,0,0,0,1.447,2.16,2.271,2.271,0,0,0,2.527-.512.471.471,0,0,1,.341-.142.487.487,0,0,1,.512.512.471.471,0,0,1-.142.341,3.227,3.227,0,0,1-3.636.739A3.377,3.377,0,0,1,129,11.432Zm1.023-5.68V8.08h4.659V5.752a2.329,2.329,0,1,0-4.659,0Z" transform="translate(176.539 430.279)"/><path class="h" d="M133.557,14.207V2.959a.478.478,0,0,1,.512-.512h2.842a3.317,3.317,0,0,1,1.677.455.49.49,0,0,1,.2.682.516.516,0,0,1-.711.2,2.384,2.384,0,0,0-1.165-.313H134.58V14.207a.512.512,0,1,1-1.023,0Z" transform="translate(182.78 430.346)"/><path class="h" d="M137,11.432V5.752a3.353,3.353,0,1,1,6.705,0v2.84a.478.478,0,0,1-.512.512h-5.171v2.328a2.352,2.352,0,0,0,1.447,2.16A2.271,2.271,0,0,0,142,13.08a.471.471,0,0,1,.341-.142.487.487,0,0,1,.512.512.471.471,0,0,1-.142.341,3.227,3.227,0,0,1-3.636.739A3.377,3.377,0,0,1,137,11.432Zm1.023-5.68V8.08h4.659V5.752a2.329,2.329,0,1,0-4.659,0Z" transform="translate(187.493 430.279)"/><path class="h" d="M141.561,14.207V2.959a.478.478,0,0,1,.512-.512h2.842A3.4,3.4,0,0,1,148.266,5.8v8.408a.512.512,0,0,1-1.023,0V5.8a2.339,2.339,0,0,0-2.328-2.328h-2.331V14.209a.512.512,0,1,1-1.023,0Z" transform="translate(193.734 430.346)"/></g></g></svg>