<svg xmlns="http://www.w3.org/2000/svg" xmlns:xlink="http://www.w3.org/1999/xlink" viewBox="3172 -655 30 30"><defs><style>.a{clip-path:url(#b);}.b{fill:#333;}.c{fill:none;stroke:#333;stroke-miterlimit:10;stroke-width:0.833px;}</style><clipPath id="b"><rect x="3172" y="-655" width="30" height="30"/></clipPath></defs><g id="a" class="a"><g transform="translate(3171 -655.334)"><path class="b" d="M6.667,0A6.667,6.667,0,0,1,0,6.667,6.667,6.667,0,0,1-6.667,0,6.667,6.667,0,0,1,0-6.667,6.667,6.667,0,0,1,6.667,0Z" transform="translate(16 15.334)"/><path class="c" d="M11.667,0A11.667,11.667,0,0,1,0,11.667,11.667,11.667,0,0,1-11.667,0,11.667,11.667,0,0,1,0-11.667,11.667,11.667,0,0,1,11.667,0Z" transform="translate(16 15.334)"/><line class="c" y1="3.333" transform="translate(15.999 0.334)"/><line class="c" x2="3.333" transform="translate(1 15.334)"/><line class="c" y1="3.333" transform="translate(15.999 27.001)"/><line class="c" x2="3.333" transform="translate(27.667 15.334)"/></g></g></svg>