<?xml version="1.0" encoding="utf-8"?>
<!-- Generator: Adobe Illustrator 16.0.3, SVG Export Plug-In . SVG Version: 6.00 Build 0)  -->
<!DOCTYPE svg PUBLIC "-//W3C//DTD SVG 1.1//EN" "http://www.w3.org/Graphics/SVG/1.1/DTD/svg11.dtd">
<svg version="1.1" xmlns="http://www.w3.org/2000/svg" xmlns:xlink="http://www.w3.org/1999/xlink" x="0px" y="0px" width="20px"
	 height="20px" viewBox="0 0 20 20" enable-background="new 0 0 20 20" xml:space="preserve">
<g id="Ebene_1">
</g>
<g id="Ebene_4">
	<g>
		<path fill="#F2F2F2" d="M-20,17H0v-2.334h-20V17z M-20,11.168H0V8.834h-20V11.168z M-20,3v2.334H0V3H-20z"/>
	</g>
	<path fill="#333333" d="M8.562-6.065C8.426-6.3,8.766-6.447,8.766-6.447s0.944-0.183,1.74,0.816c0,0,0.024-0.007,0.066-0.014
		l0.011-0.039c-0.01,0.001-0.016,0.001-0.016,0.001c0.006,0,0.011,0,0.016-0.001l0.05-0.161c0,0,0.031-0.416,0.012-0.583
		c-0.02-0.167-0.092-0.329-0.092-0.329L9.749-8.663c0,0-0.154-0.322,0.132-0.471c0.287-0.151,0.442,0.109,0.442,0.109
		s0.854,1.714,0.949,1.927c0.097,0.211,0.226-0.063,0.226-0.063L11.194-9.45c0,0-0.089-0.374,0.313-0.457
		c0.401-0.083,0.436,0.513,0.436,0.513s0.266,1.97,0.303,2.2c0.035,0.228,0.161,0.006,0.161,0.006s0.305-1.895,0.336-2.094
		c0.029-0.201,0.093-0.423,0.389-0.412c0.296,0.01,0.255,0.649,0.255,0.649s-0.231,1.921-0.24,2.066
		c-0.01,0.145,0.083,0.106,0.083,0.106s0.721-1.479,0.779-1.583c0.06-0.106,0.176-0.334,0.466-0.216c0.291,0.118,0,0.759,0,0.759
		s-0.533,1.251-0.582,1.373c-0.048,0.122-0.03,0.192-0.03,0.192l0.062,0.906c-0.033,1.236-0.577,1.64-0.577,1.64l0.556,3.616
		c-0.236,0.043-0.474,0.079-0.715,0.107c-0.506,0.059-1.008,0.084-1.505,0.078l-0.323-3.675c0,0-0.171-0.088-0.511-0.244
		c-0.341-0.158-0.696-0.598-0.786-0.748C9.976-4.82,9.766-5.242,9.256-5.629C8.746-6.015,8.695-5.831,8.562-6.065z M16.471-15.698
		l3.059-2.884c-0.474-0.519-0.993-0.992-1.551-1.418l-2.734,2.936c0,0-0.603-0.162-1.518,0.521l-0.619,0.562
		c0,0-0.041,0.051-0.156,0.087c-0.115,0.034-1.326,0.364-1.326,0.364s-0.63,0.156-0.549,0.434c0.081,0.277,0.313,0.231,0.422,0.214
		c0.109-0.017,1.592-0.342,1.592-0.342s0.082,0.047-0.029,0.121c-0.11,0.077-1.632,1.008-1.632,1.008s-0.487,0.335-0.325,0.556
		c0.162,0.221,0.358,0.14,0.521,0.046c0.162-0.092,1.707-0.955,1.707-0.955s0.232-0.035,0.087,0.122
		c-0.144,0.156-1.419,1.477-1.419,1.477s-0.41,0.365-0.121,0.608c0.29,0.243,0.509-0.035,0.509-0.035l1.482-1.529
		c0,0,0.272-0.063,0.174,0.128c-0.099,0.191-0.851,1.789-0.851,1.789s-0.099,0.261,0.173,0.382c0.272,0.121,0.417-0.174,0.417-0.174
		l0.921-1.673c0,0,0.075-0.145,0.186-0.253c0.11-0.111,0.428-0.325,0.428-0.325l0.145-0.058c0.003,0.003,0.007,0.007,0.011,0.011
		c0,0-0.003-0.003-0.011-0.011l0.035-0.014c0.029,0.027,0.046,0.04,0.046,0.04c-0.266,1.147,0.405,1.726,0.405,1.726
		s0.302,0.162,0.393-0.069c0.093-0.232-0.068-0.163-0.081-0.752c-0.011-0.591,0.173-0.985,0.231-1.135
		c0.059-0.15,0.173-0.66,0.093-0.995C16.506-15.523,16.471-15.698,16.471-15.698z M8.651-12.036l-1.593-0.651
		c0,0-0.138-0.053-0.247-0.14c-0.11-0.088-0.334-0.351-0.334-0.351l-0.066-0.123c0.003-0.004,0.006-0.007,0.008-0.01
		c0,0-0.002,0.003-0.009,0.009L6.395-13.33c0.021-0.028,0.032-0.047,0.032-0.047c1.054,0.121,1.502-0.54,1.502-0.54
		s0.115-0.286-0.103-0.344c-0.217-0.06-0.137,0.078-0.666,0.149c-0.527,0.071-0.898-0.055-1.04-0.091
		c-0.141-0.037-0.609-0.088-0.901,0.019c-0.292,0.107-0.444,0.156-0.444,0.156l-3.283-2.768c-0.385,0.517-0.726,1.064-1.022,1.639
		l3.208,2.368c0,0-0.083,0.556,0.622,1.305l0.567,0.498c0,0,0.05,0.03,0.094,0.13c0.042,0.1,0.463,1.15,0.463,1.15
		S5.629-9.157,5.87-9.258c0.24-0.101,0.175-0.304,0.148-0.399C5.991-9.755,5.55-11.05,5.55-11.05s0.032-0.077,0.111,0.015
		c0.078,0.09,1.07,1.358,1.07,1.358s0.35,0.401,0.53,0.233C7.442-9.612,7.349-9.78,7.25-9.915c-0.1-0.136-1.031-1.432-1.031-1.432
		s-0.055-0.205,0.1-0.09c0.155,0.114,1.468,1.118,1.468,1.118s0.37,0.332,0.557,0.046c0.188-0.283-0.084-0.452-0.084-0.452
		l-1.521-1.171c0,0-0.084-0.235,0.097-0.168c0.181,0.068,1.689,0.578,1.689,0.578s0.243,0.062,0.324-0.195
		C8.93-11.936,8.651-12.036,8.651-12.036z"/>
	<path fill="#F2F2F2" d="M8.562,13.935c-0.136-0.235,0.204-0.381,0.204-0.381s0.944-0.183,1.74,0.816c0,0,0.024-0.007,0.066-0.014
		l0.011-0.039c-0.01,0.001-0.016,0.001-0.016,0.001c0.006,0,0.011,0,0.016-0.001l0.05-0.161c0,0,0.031-0.416,0.012-0.583
		c-0.02-0.167-0.092-0.329-0.092-0.329l-0.804-1.908c0,0-0.154-0.322,0.132-0.471c0.287-0.151,0.442,0.109,0.442,0.109
		s0.854,1.714,0.949,1.927c0.097,0.211,0.226-0.063,0.226-0.063l-0.303-2.289c0,0-0.089-0.374,0.313-0.457
		c0.401-0.083,0.436,0.513,0.436,0.513s0.266,1.97,0.303,2.2c0.035,0.228,0.161,0.006,0.161,0.006s0.305-1.895,0.336-2.094
		c0.029-0.201,0.093-0.423,0.389-0.412c0.296,0.01,0.255,0.649,0.255,0.649s-0.231,1.921-0.24,2.066
		c-0.01,0.145,0.083,0.106,0.083,0.106s0.721-1.479,0.779-1.583c0.06-0.106,0.176-0.334,0.466-0.216c0.291,0.118,0,0.759,0,0.759
		s-0.533,1.251-0.582,1.373c-0.048,0.122-0.03,0.192-0.03,0.192l0.062,0.906c-0.033,1.236-0.577,1.64-0.577,1.64l0.556,3.616
		c-0.236,0.043-0.474,0.079-0.715,0.107c-0.506,0.059-1.008,0.084-1.505,0.078l-0.323-3.675c0,0-0.171-0.088-0.511-0.244
		c-0.341-0.158-0.696-0.598-0.786-0.748c-0.089-0.152-0.299-0.574-0.81-0.961C8.746,13.985,8.695,14.169,8.562,13.935z
		 M16.471,4.302l3.059-2.884C19.055,0.899,18.537,0.426,17.978,0l-2.734,2.936c0,0-0.603-0.162-1.518,0.521l-0.619,0.562
		c0,0-0.041,0.051-0.156,0.087c-0.115,0.034-1.326,0.364-1.326,0.364s-0.63,0.156-0.549,0.434c0.081,0.277,0.313,0.231,0.422,0.214
		c0.109-0.017,1.592-0.342,1.592-0.342s0.082,0.047-0.029,0.121c-0.11,0.077-1.632,1.008-1.632,1.008s-0.487,0.335-0.325,0.556
		c0.162,0.221,0.358,0.14,0.521,0.046c0.162-0.092,1.707-0.955,1.707-0.955s0.232-0.035,0.087,0.122
		c-0.144,0.156-1.419,1.477-1.419,1.477s-0.41,0.365-0.121,0.608c0.29,0.243,0.509-0.035,0.509-0.035l1.482-1.529
		c0,0,0.272-0.063,0.174,0.128c-0.099,0.191-0.851,1.789-0.851,1.789s-0.099,0.261,0.173,0.382c0.272,0.121,0.417-0.174,0.417-0.174
		l0.921-1.673c0,0,0.075-0.145,0.186-0.253c0.11-0.111,0.428-0.325,0.428-0.325l0.145-0.058c0.003,0.003,0.007,0.007,0.011,0.011
		c0,0-0.003-0.003-0.011-0.011l0.035-0.014c0.029,0.027,0.046,0.04,0.046,0.04c-0.266,1.147,0.405,1.726,0.405,1.726
		s0.302,0.162,0.393-0.069c0.093-0.232-0.068-0.163-0.081-0.752c-0.011-0.591,0.173-0.985,0.231-1.135
		c0.059-0.15,0.173-0.66,0.093-0.995C16.506,4.477,16.471,4.302,16.471,4.302z M8.651,7.964L7.058,7.313c0,0-0.138-0.053-0.247-0.14
		c-0.11-0.088-0.334-0.351-0.334-0.351L6.411,6.699c0.003-0.004,0.006-0.007,0.008-0.01c0,0-0.002,0.003-0.009,0.009L6.395,6.67
		c0.021-0.028,0.032-0.047,0.032-0.047c1.054,0.121,1.502-0.54,1.502-0.54s0.115-0.286-0.103-0.344
		C7.61,5.679,7.69,5.816,7.161,5.888c-0.527,0.071-0.898-0.055-1.04-0.091C5.981,5.76,5.513,5.709,5.22,5.816
		C4.928,5.923,4.776,5.973,4.776,5.973L1.493,3.205C1.108,3.721,0.767,4.269,0.471,4.844l3.208,2.368c0,0-0.083,0.556,0.622,1.305
		l0.567,0.498c0,0,0.05,0.03,0.094,0.13c0.042,0.1,0.463,1.15,0.463,1.15s0.205,0.549,0.445,0.447
		c0.24-0.101,0.175-0.304,0.148-0.399C5.991,10.245,5.55,8.95,5.55,8.95s0.032-0.077,0.111,0.015c0.078,0.09,1.07,1.358,1.07,1.358
		s0.35,0.401,0.53,0.233c0.181-0.168,0.088-0.336-0.011-0.471C7.15,9.95,6.219,8.654,6.219,8.654s-0.055-0.205,0.1-0.09
		c0.155,0.114,1.468,1.118,1.468,1.118s0.37,0.332,0.557,0.046c0.188-0.283-0.084-0.452-0.084-0.452L6.738,8.104
		c0,0-0.084-0.235,0.097-0.168c0.181,0.068,1.689,0.578,1.689,0.578S8.768,8.577,8.848,8.32C8.93,8.064,8.651,7.964,8.651,7.964z"/>
	<g>
		<path fill="#F2F2F2" d="M35.576,2.788c-0.063,0-0.041,0.044-0.085,0c-6.912-6.914-11.187,3.105-14.977,2.202V4.99
			c-0.045-0.02-0.095-0.032-0.147-0.032C20.164,4.958,20,5.123,20,5.325c0,0.132,0.072,0.242,0.175,0.307
			c0,0.002-0.001,0.004-0.002,0.006c1.413,0.854,5.223,2.262,6.994,2.262c3.196,0,6.019-1.602,7.711-4.046
			c-0.111,0.412-0.176,0.842-0.176,1.289c0,2.74,2.222,4.962,4.962,4.962c0.113,0,0.224-0.009,0.335-0.017
			C39.849,5.693,38.453,2.788,35.576,2.788"/>
	</g>
</g>
</svg>
