<?xml version="1.0" encoding="utf-8"?>
<!-- Generator: Adobe Illustrator 21.0.0, SVG Export Plug-In . SVG Version: 6.00 Build 0)  -->
<svg version="1.1" id="Ebene_1" xmlns="http://www.w3.org/2000/svg" xmlns:xlink="http://www.w3.org/1999/xlink" x="0px" y="0px"
	 viewBox="0 0 20 20" enable-background="new 0 0 20 20" xml:space="preserve">
<g>
	<g>
		<path fill="#333333" d="M15.717,10.099c0.602-1.002,0.956-2.173,0.956-3.427C16.673,2.987,13.686,0,10,0
			C6.314,0,3.327,2.987,3.327,6.672c0,1.271,0.362,2.454,0.98,3.466L10.001,20L15.717,10.099z"/>
	</g>
	<g>
		<path fill="#FFFFFF" d="M10.001,4.658c-1.257,0-2.274,1.017-2.274,2.273c0,0.838,0.44,1.328,0.828,2.007
			c0.146,0.253,0.308,0.835,0.308,1.119c0,0.157,0.127,0.284,0.284,0.284h1.706c0.157,0,0.284-0.127,0.284-0.284
			c0-0.284,0.161-0.867,0.308-1.119c0.39-0.679,0.828-1.168,0.828-2.007C12.274,5.675,11.256,4.658,10.001,4.658z"/>
		<path fill="#FFFFFF" d="M10.852,10.91H9.148c-0.157,0-0.284,0.127-0.284,0.284c0,0.157,0.127,0.284,0.284,0.284h1.705
			c0.157,0,0.285-0.128,0.285-0.284C11.137,11.036,11.01,10.91,10.852,10.91z"/>
		<path fill="#FFFFFF" d="M10.428,12.045H9.575c-0.158,0-0.285,0.128-0.285,0.285c0,0.156,0.127,0.284,0.285,0.284h0.852
			c0.156,0,0.284-0.128,0.284-0.284C10.711,12.173,10.583,12.045,10.428,12.045z"/>
		<path fill="#FFFFFF" d="M10.001,4.089c0.156,0,0.284-0.128,0.284-0.284V2.668c0-0.156-0.127-0.284-0.284-0.284
			c-0.158,0-0.285,0.127-0.285,0.284v1.137C9.716,3.962,9.843,4.089,10.001,4.089z"/>
		<path fill="#FFFFFF" d="M6.874,6.647H5.738c-0.156,0-0.284,0.127-0.284,0.284s0.127,0.284,0.284,0.284h1.136
			c0.158,0,0.285-0.128,0.285-0.284C7.159,6.774,7.032,6.647,6.874,6.647z"/>
		<path fill="#FFFFFF" d="M7.88,4.408L7.075,3.604c-0.111-0.11-0.29-0.11-0.401,0c-0.112,0.112-0.112,0.292,0,0.402L7.477,4.81
			c0.056,0.056,0.129,0.083,0.201,0.083c0.072,0,0.145-0.027,0.201-0.083C7.99,4.699,7.99,4.52,7.88,4.408z"/>
		<path fill="#FFFFFF" d="M13.327,3.604c-0.112-0.11-0.292-0.11-0.401,0L12.12,4.408c-0.109,0.112-0.109,0.291,0,0.402
			c0.057,0.056,0.129,0.083,0.202,0.083c0.072,0,0.144-0.027,0.201-0.083l0.803-0.804C13.438,3.896,13.438,3.716,13.327,3.604z"/>
		<path fill="#FFFFFF" d="M14.262,6.647h-1.136c-0.157,0-0.285,0.127-0.285,0.284s0.128,0.284,0.285,0.284h1.136
			c0.158,0,0.284-0.127,0.284-0.284S14.421,6.647,14.262,6.647z"/>
	</g>
</g>
</svg>
