<?xml version="1.0" encoding="utf-8"?>
<!-- Generator: Adobe Illustrator 16.0.3, SVG Export Plug-In . SVG Version: 6.00 Build 0)  -->
<!DOCTYPE svg PUBLIC "-//W3C//DTD SVG 1.1//EN" "http://www.w3.org/Graphics/SVG/1.1/DTD/svg11.dtd">
<svg version="1.1" id="Ebene_1" xmlns="http://www.w3.org/2000/svg" xmlns:xlink="http://www.w3.org/1999/xlink" x="0px" y="0px"
	 width="20px" height="20px" viewBox="0 0 20 20" enable-background="new 0 0 20 20" xml:space="preserve">
<g>
	<rect x="-20" y="18.305" fill="#F2F2F2" width="20" height="0.92"/>
</g>
<g>
	<path fill="#F2F2F2" d="M19.965,7.596c-0.059-0.834-0.461-4.574-5.811-4.653C8.803,2.864,8.746,6.359,8.24,6.622
		C7.734,6.884,7.771,6.963,7.771,6.963v2.618L6.328,10.3L3.223,5.18c0,0,0.072-0.792,0.238-1.342C3.527,3.622,3.74,3.644,3.77,3.463
		C3.801,3.268,3.674,3.12,3.654,3.046C3.568,2.73,2.086,3.041,1.266,3.511C1,3.663,0.018,4.596,0,5.007
		C-0.025,5.64,0.777,5.353,0.777,5.353L2.158,5.87l5.725,9.656c0,0-0.496,0.898,0.42,1.279c0.906,0.376,2.43,0.216,3.926,0.259
		c2.193,0.063,4.318-0.049,4.715-0.205c0.662-0.259,0.201-1.467,0.201-1.467s-0.107-0.18,1.008-1.697
		C20.244,10.846,20.021,8.431,19.965,7.596z M17.135,11.154c-0.037-2.896,0.23-4.296-0.133-4.392c-0.557-0.211-5.428,0-5.428,0
		l-1.535-0.805c0,0-0.268-0.211,0-0.557c0.27-0.345,1.479-1.745,4.719-1.342c3.24,0.402,4.277,2.685,4.295,3.854
		c0.02,1.169-0.402,2.646-0.709,3.241S17.174,14.049,17.135,11.154z"/>
</g>
</svg>
