<?xml version="1.0" encoding="utf-8"?>
<!-- Generator: Adobe Illustrator 16.0.3, SVG Export Plug-In . SVG Version: 6.00 Build 0)  -->
<!DOCTYPE svg PUBLIC "-//W3C//DTD SVG 1.1//EN" "http://www.w3.org/Graphics/SVG/1.1/DTD/svg11.dtd">
<svg version="1.1" id="Ebene_1" xmlns="http://www.w3.org/2000/svg" xmlns:xlink="http://www.w3.org/1999/xlink" x="0px" y="0px"
	 width="20px" height="20px" viewBox="0 0 20 20" enable-background="new 0 0 20 20" xml:space="preserve">
<g>
	<path fill="none" d="M12.856,10.229c-0.01-0.004-0.021-0.007-0.031-0.009l-0.303,0.292L8.771,8.581
		c-1.228-0.113-1.422,1.525-1.438,1.672c0,0.007,0,0.011,0,0.011c-0.044-0.036-0.088-0.053-0.131-0.045
		c-0.019,0.004-0.036,0.011-0.053,0.023c-0.119,0.085-0.166,0.382-0.106,0.718c0.046,0.256,0.143,0.47,0.248,0.575
		c0.052,0.053,0.106,0.077,0.158,0.068c0.025-0.004,0.048-0.016,0.068-0.035c0.249,0.775,0.725,1.55,1.325,2.015
		c0.354,0.275,0.751,0.445,1.172,0.445c0.417,0,0.812-0.168,1.165-0.439c0.604-0.467,1.082-1.242,1.332-2.02
		c0.021,0.019,0.044,0.031,0.068,0.035c0.045,0.007,0.091-0.011,0.136-0.049c0.112-0.097,0.22-0.322,0.269-0.595
		C13.048,10.604,12.99,10.292,12.856,10.229z"/>
	<path fill="none" d="M11.796,13.799c-0.003-0.001-0.005-0.001-0.008-0.002c-0.305,0.301-0.646,0.54-1.008,0.685
		c-0.246,0.098-0.504,0.151-0.768,0.151s-0.521-0.054-0.767-0.151c-0.367-0.146-0.71-0.387-1.019-0.693
		c0,0.376-0.287,0.591-0.482,0.693c-0.023,0.011-0.045,0.022-0.064,0.032c-0.049,0.021-0.087,0.033-0.103,0.039
		c0.011,0.098,0.054,0.19,0.123,0.278c0.322,0.413,1.229,1.009,2.298,1.009s1.976-0.595,2.298-1.009
		c0.069-0.088,0.112-0.181,0.124-0.278c0.001-0.001,0.001-0.004,0.001-0.008C12.289,14.498,11.803,14.285,11.796,13.799z"/>
	<path fill="#333333" d="M16.492,17.462c-0.743-2.555-2.114-2.644-2.41-2.713c-0.034-0.007-0.068-0.015-0.104-0.022
		c-0.896-0.827-0.285-4.285-0.285-4.285c0-5.271-3.564-4.753-3.564-4.753C10.086,5.687,10.042,5.685,10,5.684
		C9.957,5.685,9.914,5.687,9.871,5.689c0,0-3.565-0.519-3.565,4.753c0,0,0.612,3.457-0.284,4.285
		c-0.035,0.008-0.07,0.015-0.104,0.022c-0.296,0.069-1.669,0.158-2.411,2.713c-0.101,0.348-0.065,0.724,0.099,1.033
		C4.214,19.647,7.414,20,10.001,20c2.586,0,5.787-0.354,6.395-1.505C16.558,18.187,16.593,17.81,16.492,17.462z M12.421,14.553
		c-0.012,0.098-0.055,0.19-0.123,0.278c-0.323,0.414-1.229,1.009-2.299,1.009c-1.068,0-1.976-0.596-2.298-1.009
		c-0.068-0.088-0.111-0.181-0.123-0.278c0.017-0.005,0.054-0.019,0.103-0.039c0.02-0.01,0.041-0.021,0.064-0.032
		c0.195-0.103,0.482-0.317,0.482-0.693c0.309,0.307,0.651,0.548,1.019,0.693c0.246,0.098,0.503,0.151,0.767,0.151
		c0.265,0,0.521-0.054,0.768-0.151c0.363-0.145,0.703-0.384,1.009-0.685c0.002,0.001,0.005,0.001,0.007,0.002
		c0.007,0.485,0.493,0.698,0.626,0.746C12.422,14.549,12.422,14.552,12.421,14.553z M12.984,10.96
		c-0.049,0.273-0.156,0.499-0.269,0.596c-0.045,0.038-0.091,0.056-0.136,0.048c-0.023-0.004-0.048-0.016-0.068-0.035
		c-0.25,0.778-0.729,1.554-1.332,2.02c-0.354,0.272-0.748,0.439-1.165,0.439c-0.42,0-0.817-0.169-1.171-0.444
		c-0.601-0.466-1.077-1.239-1.326-2.016c-0.021,0.02-0.043,0.032-0.068,0.036c-0.051,0.009-0.106-0.017-0.158-0.069
		c-0.105-0.105-0.202-0.318-0.247-0.574c-0.061-0.336-0.013-0.634,0.105-0.719c0.017-0.012,0.034-0.02,0.053-0.022
		c0.043-0.008,0.087,0.009,0.131,0.044c0,0,0-0.004,0.001-0.01c0.015-0.146,0.21-1.786,1.437-1.673l3.752,1.933l0.303-0.293
		c0.011,0.002,0.022,0.005,0.031,0.01C12.99,10.292,13.048,10.604,12.984,10.96z"/>
	<path fill="#333333" d="M10.407,4.894V4.845c0-0.028-0.021-0.051-0.046-0.051H9.638c-0.026,0-0.047,0.022-0.047,0.051v0.049
		c0,0.028,0.021,0.051,0.047,0.051h0.724C10.387,4.945,10.407,4.921,10.407,4.894z"/>
	<path fill="#333333" d="M10.407,4.635c0-0.027-0.021-0.051-0.046-0.051H9.638c-0.026,0-0.047,0.023-0.047,0.051v0.049
		c0,0.029,0.021,0.051,0.047,0.051h0.724c0.025,0,0.046-0.022,0.046-0.051V4.635z"/>
	<path fill="#333333" d="M10,5.152c0.104,0,0.194-0.061,0.237-0.148H9.759C9.805,5.09,9.896,5.152,10,5.152z"/>
	<path fill="#333333" d="M9.478,4.276c0.034,0.203,0.082,0.25,0.234,0.25c0.065,0,0.173,0,0.287,0s0.222,0,0.286,0
		c0.154,0,0.201-0.048,0.234-0.25c0.041-0.243,0.107-0.523,0.354-0.972c0.083-0.149,0.135-0.32,0.135-0.505
		c0.001-0.558-0.452-1.01-1.01-1.01s-1.011,0.452-1.011,1.01c0,0.185,0.052,0.354,0.135,0.505C9.371,3.75,9.438,4.032,9.478,4.276z"
		/>
	<path fill="#333333" d="M9.999,1.198c0.112,0,0.202-0.09,0.202-0.202V0.202C10.201,0.09,10.111,0,9.999,0
		C9.888,0,9.797,0.09,9.797,0.202v0.794C9.797,1.107,9.888,1.198,9.999,1.198z"/>
	<path fill="#333333" d="M8.521,1.691C8.56,1.73,8.611,1.75,8.663,1.75c0.053,0,0.104-0.021,0.144-0.059
		c0.078-0.079,0.078-0.207,0-0.286L8.245,0.843c-0.078-0.078-0.207-0.078-0.285,0c-0.079,0.079-0.079,0.207,0,0.286L8.521,1.691z"/>
	<path fill="#333333" d="M11.335,1.75c0.05,0,0.103-0.021,0.143-0.059l0.562-0.562c0.078-0.079,0.078-0.207,0-0.286
		c-0.079-0.078-0.207-0.078-0.286,0l-0.562,0.562c-0.079,0.079-0.079,0.207,0,0.286C11.231,1.73,11.282,1.75,11.335,1.75z"/>
	<path fill="#333333" d="M11.42,2.76c0,0.111,0.09,0.202,0.202,0.202h0.794c0.112,0,0.202-0.092,0.202-0.202
		c0-0.112-0.09-0.202-0.202-0.202h-0.794C11.51,2.558,11.42,2.649,11.42,2.76z"/>
	<path fill="#333333" d="M7.581,2.962h0.795c0.111,0,0.201-0.092,0.201-0.202c0-0.112-0.091-0.202-0.201-0.202H7.581
		c-0.111,0-0.202,0.09-0.202,0.202C7.379,2.872,7.47,2.962,7.581,2.962z"/>
</g>
<g>
	<path fill="#F2F2F2" d="M10,21.135c0.111,0,0.201-0.09,0.201-0.202v-0.794c0-0.111-0.09-0.201-0.201-0.201s-0.203,0.09-0.203,0.201
		v0.794C9.797,21.044,9.889,21.135,10,21.135z"/>
</g>
</svg>
