<?xml version="1.0" encoding="utf-8"?>
<!-- Generator: Adobe Illustrator 16.0.3, SVG Export Plug-In . SVG Version: 6.00 Build 0)  -->
<!DOCTYPE svg PUBLIC "-//W3C//DTD SVG 1.1//EN" "http://www.w3.org/Graphics/SVG/1.1/DTD/svg11.dtd">
<svg version="1.1" id="Ebene_1" xmlns="http://www.w3.org/2000/svg" xmlns:xlink="http://www.w3.org/1999/xlink" x="0px" y="0px"
	 width="20px" height="20px" viewBox="0 0 20 20" enable-background="new 0 0 20 20" xml:space="preserve">
<g>
	<path fill="#333333" d="M2.135,10.022C2.711,10.02,3.176,9.554,3.18,8.978C3.176,8.401,2.711,7.934,2.135,7.933
		C1.557,7.934,1.09,8.401,1.09,8.978S1.557,10.02,2.135,10.022L2.135,10.022z"/>
	<polygon fill="#333333" points="11.801,15.344 4.457,15.344 0,11.199 0.97,10.156 5.018,13.92 11.801,13.92 	"/>
	<path fill="#333333" d="M10.748,13.445c-0.147,0-0.297-0.041-0.431-0.128L8.51,12.141l-2.42,1.22
		c-0.287,0.145-0.632,0.102-0.874-0.108l-2.172-1.881c-0.373-0.334-0.477-0.881-0.191-1.212c0.287-0.33,0.831-0.462,1.28-0.065
		l1.798,1.558l2.273-1.128c0.251-0.126,0.551-0.11,0.787,0.043l2.188,1.425c0.366,0.238,0.47,0.729,0.232,1.094
		C11.26,13.319,11.007,13.445,10.748,13.445L10.748,13.445z"/>
	<g>
		<path fill="#333333" d="M15.59,8.916c-0.595,0-1.078-0.483-1.078-1.078c0-0.596,0.483-1.08,1.078-1.08
			c0.598,0,1.079,0.483,1.079,1.08C16.669,8.432,16.187,8.916,15.59,8.916z"/>
	</g>
	<path fill="#333333" d="M19.897,12.529c0,0-0.573-2.333-1.495-3.29c-0.318-0.418-1.261-0.9-1.822-0.188
		c-0.386,0.645-0.731,1.661-1.045,2.388l-1.608-0.003L12.79,10.04l-0.373,0.304l1.021,1.254c-0.12,0.11-0.196,0.267-0.196,0.442
		c-0.001,0.333,0.27,0.604,0.603,0.605l0.931,0.001c-0.313,0.072-0.627,0.31-0.677,0.686l-1.115,3.21
		c-0.146,0.453,0.063,0.892,0.436,1.003c0.537,0.154,0.933-0.208,1.024-0.512l0.97-2.837h3.698c0.533,0,0.851-0.44,0.884-0.828
		C20.027,12.984,19.897,12.529,19.897,12.529z M16.897,12.587h-0.509l1.023-2.265c0.032-0.072,0.15-0.185,0.276-0.101
		c0.065,0.044,0.2,0.18,0.167,0.251L16.897,12.587z"/>
	<g>
		<path fill="#333333" d="M8.733,5.982c-0.264,0-0.478-0.214-0.478-0.479S8.47,5.026,8.733,5.026c0.265,0,0.479,0.213,0.479,0.478
			C9.212,5.768,8.998,5.982,8.733,5.982z"/>
	</g>
	<g>
		<path fill="#333333" d="M10.137,5.982c-0.264,0-0.478-0.214-0.478-0.479s0.214-0.478,0.478-0.478c0.265,0,0.478,0.213,0.478,0.478
			C10.614,5.768,10.401,5.982,10.137,5.982z"/>
	</g>
	<g>
		<path fill="#333333" d="M11.54,5.982c-0.264,0-0.479-0.214-0.479-0.479s0.215-0.478,0.479-0.478c0.265,0,0.479,0.213,0.479,0.478
			C12.019,5.768,11.805,5.982,11.54,5.982z"/>
	</g>
	<path fill="#333333" d="M10.126,8.695H4.629l2.776-1.577C7.131,6.643,6.987,6.109,6.987,5.557c0-1.73,1.408-3.138,3.139-3.138
		s3.139,1.408,3.139,3.138S11.856,8.695,10.126,8.695L10.126,8.695z M6.674,8.155h3.452c1.433,0,2.599-1.166,2.599-2.599
		c0-1.432-1.166-2.598-2.599-2.598S7.527,4.124,7.527,5.557c0,0.54,0.166,1.058,0.479,1.5L8.18,7.3L6.674,8.155L6.674,8.155z"/>
</g>
</svg>
