<?xml version="1.0" encoding="utf-8"?>
<!-- Generator: Adobe Illustrator 16.0.3, SVG Export Plug-In . SVG Version: 6.00 Build 0)  -->
<!DOCTYPE svg PUBLIC "-//W3C//DTD SVG 1.1//EN" "http://www.w3.org/Graphics/SVG/1.1/DTD/svg11.dtd">
<svg version="1.1" xmlns="http://www.w3.org/2000/svg" xmlns:xlink="http://www.w3.org/1999/xlink" x="0px" y="0px" width="20px"
	 height="20px" viewBox="0 0 20 20" enable-background="new 0 0 20 20" xml:space="preserve">
<g id="Ebene_1">
</g>
<g id="Ebene_4">
	<path fill="#323232" d="M-10.625,0L-20-2.5v-15l9.375,2.5V0z M0-17.5L-9.375-15V0L0-2.5V-17.5z M-10-16.127l7.5-2V-20l-7.5,3.75
		L-17.5-20v1.873L-10-16.127z"/>
	<path fill="#F2F2F2" d="M-10.625,20L-20,17.5v-15l9.375,2.5V20z M0,2.5L-9.375,5v15L0,17.5V2.5z M-10,3.873l7.5-2V0L-10,3.75
		L-17.5,0v1.873L-10,3.873z"/>
	<path fill="#323232" d="M17.839-15.646l-3.302-2.83c-0.006-0.006-0.015-0.01-0.022-0.015c-0.01-0.009-0.021-0.016-0.032-0.024
		c-0.013-0.008-0.027-0.015-0.041-0.021c-0.011-0.005-0.022-0.011-0.034-0.016c-0.016-0.006-0.033-0.011-0.049-0.015
		c-0.01-0.003-0.02-0.006-0.03-0.008c-0.028-0.005-0.056-0.008-0.084-0.008h-4.033v-0.968c0-0.247-0.2-0.448-0.448-0.448H7.642
		c-0.248,0-0.448,0.201-0.448,0.448v0.967H5.755c-0.107,0-0.21,0.039-0.292,0.108l-3.302,2.83c-0.099,0.085-0.157,0.209-0.157,0.34
		v14.858C2.004-0.201,2.206,0,2.453,0h8.255c0.041,0,0.08-0.007,0.118-0.018C10.864-0.007,10.902,0,10.944,0h6.604
		c0.247,0,0.448-0.201,0.448-0.448v-14.858C17.996-15.437,17.938-15.562,17.839-15.646z M8.09-19.104h1.226v0.519H8.09V-19.104z
		 M10.495-0.896H7.298c0.053-0.073,0.084-0.163,0.084-0.259V-3.75c0-0.247-0.201-0.448-0.448-0.448H6.462
		c-0.248,0-0.448,0.201-0.448,0.448v2.595c0,0.097,0.032,0.187,0.084,0.259H2.901v-13.726h7.594V-0.896z M17.099-0.896h-5.708
		v-14.204l2.854-2.446l2.854,2.446V-0.896z M13.302-13.868H12.83c-0.247,0-0.448,0.201-0.448,0.448v1.887
		c0,0.248,0.201,0.448,0.448,0.448h0.472c0.247,0,0.447-0.2,0.447-0.448v-1.887C13.75-13.667,13.549-13.868,13.302-13.868z
		 M15.424-11.085h0.472c0.248,0,0.448-0.2,0.448-0.448v-1.887c0-0.247-0.201-0.448-0.448-0.448h-0.472
		c-0.248,0-0.448,0.201-0.448,0.448v1.887C14.976-11.285,15.177-11.085,15.424-11.085z M13.302-9.623H12.83
		c-0.247,0-0.448,0.201-0.448,0.448v1.887c0,0.248,0.201,0.448,0.448,0.448h0.472c0.247,0,0.447-0.2,0.447-0.448v-1.887
		C13.75-9.422,13.549-9.623,13.302-9.623z M15.424-6.84h0.472c0.248,0,0.448-0.2,0.448-0.448v-1.887
		c0-0.247-0.201-0.448-0.448-0.448h-0.472c-0.248,0-0.448,0.201-0.448,0.448v1.887C14.976-7.04,15.177-6.84,15.424-6.84z
		 M13.302-5.378H12.83c-0.247,0-0.448,0.201-0.448,0.448v1.887c0,0.248,0.201,0.448,0.448,0.448h0.472
		c0.247,0,0.447-0.201,0.447-0.448V-4.93C13.75-5.177,13.549-5.378,13.302-5.378z M15.424-2.594h0.472
		c0.248,0,0.448-0.201,0.448-0.448V-4.93c0-0.247-0.201-0.448-0.448-0.448h-0.472c-0.248,0-0.448,0.201-0.448,0.448v1.887
		C14.976-2.795,15.177-2.594,15.424-2.594z M6.462-11.085h0.472c0.248,0,0.448-0.2,0.448-0.448v-1.887
		c0-0.247-0.201-0.448-0.448-0.448H6.462c-0.248,0-0.448,0.201-0.448,0.448v1.887C6.014-11.285,6.215-11.085,6.462-11.085z
		 M8.584-11.085h0.472c0.248,0,0.449-0.2,0.449-0.448v-1.887c0-0.247-0.201-0.448-0.449-0.448H8.584
		c-0.247,0-0.448,0.201-0.448,0.448v1.887C8.137-11.285,8.337-11.085,8.584-11.085z M6.462-6.84h0.472
		c0.248,0,0.448-0.2,0.448-0.448v-1.887c0-0.247-0.201-0.448-0.448-0.448H6.462c-0.248,0-0.448,0.201-0.448,0.448v1.887
		C6.014-7.04,6.215-6.84,6.462-6.84z M8.584-6.84h0.472c0.248,0,0.449-0.2,0.449-0.448v-1.887c0-0.247-0.201-0.448-0.449-0.448
		H8.584c-0.247,0-0.448,0.201-0.448,0.448v1.887C8.137-7.04,8.337-6.84,8.584-6.84z M8.584-2.594h0.472
		c0.248,0,0.449-0.201,0.449-0.448V-4.93c0-0.247-0.201-0.448-0.449-0.448H8.584c-0.247,0-0.448,0.201-0.448,0.448v1.887
		C8.137-2.795,8.337-2.594,8.584-2.594z M4.339-11.085h0.473c0.247,0,0.447-0.2,0.447-0.448v-1.887c0-0.247-0.2-0.448-0.447-0.448
		H4.339c-0.248,0-0.448,0.201-0.448,0.448v1.887C3.891-11.285,4.092-11.085,4.339-11.085z M4.339-6.84h0.473
		c0.247,0,0.447-0.2,0.447-0.448v-1.887c0-0.247-0.2-0.448-0.447-0.448H4.339c-0.248,0-0.448,0.201-0.448,0.448v1.887
		C3.891-7.04,4.092-6.84,4.339-6.84z M4.339-2.594h0.473c0.247,0,0.447-0.201,0.447-0.448V-4.93c0-0.247-0.2-0.448-0.447-0.448
		H4.339c-0.248,0-0.448,0.201-0.448,0.448v1.887C3.891-2.795,4.092-2.594,4.339-2.594z"/>
	<path fill="#F2F2F2" d="M17.839,4.354l-3.302-2.83c-0.006-0.006-0.015-0.01-0.022-0.015c-0.01-0.009-0.021-0.016-0.032-0.024
		c-0.013-0.008-0.027-0.015-0.041-0.021c-0.011-0.005-0.022-0.011-0.034-0.016c-0.016-0.006-0.033-0.011-0.049-0.015
		c-0.01-0.003-0.02-0.006-0.03-0.008c-0.028-0.005-0.056-0.008-0.084-0.008h-4.033V0.448c0-0.247-0.2-0.448-0.448-0.448H7.642
		C7.394,0,7.193,0.201,7.193,0.448v0.967H5.755c-0.107,0-0.21,0.039-0.292,0.108l-3.302,2.83c-0.099,0.085-0.157,0.209-0.157,0.34
		v14.858C2.004,19.799,2.206,20,2.453,20h8.255c0.041,0,0.08-0.007,0.118-0.018C10.864,19.993,10.902,20,10.944,20h6.604
		c0.247,0,0.448-0.201,0.448-0.448V4.693C17.996,4.563,17.938,4.438,17.839,4.354z M8.09,0.896h1.226v0.519H8.09V0.896z
		 M10.495,19.104H7.298c0.053-0.073,0.084-0.163,0.084-0.259V16.25c0-0.247-0.201-0.448-0.448-0.448H6.462
		c-0.248,0-0.448,0.201-0.448,0.448v2.595c0,0.097,0.032,0.187,0.084,0.259H2.901V5.378h7.594V19.104z M17.099,19.104h-5.708V4.899
		l2.854-2.446l2.854,2.446V19.104z M13.302,6.132H12.83c-0.247,0-0.448,0.201-0.448,0.448v1.887c0,0.248,0.201,0.448,0.448,0.448
		h0.472c0.247,0,0.447-0.2,0.447-0.448V6.58C13.75,6.333,13.549,6.132,13.302,6.132z M15.424,8.915h0.472
		c0.248,0,0.448-0.2,0.448-0.448V6.58c0-0.247-0.201-0.448-0.448-0.448h-0.472c-0.248,0-0.448,0.201-0.448,0.448v1.887
		C14.976,8.715,15.177,8.915,15.424,8.915z M13.302,10.377H12.83c-0.247,0-0.448,0.201-0.448,0.448v1.887
		c0,0.248,0.201,0.448,0.448,0.448h0.472c0.247,0,0.447-0.2,0.447-0.448v-1.887C13.75,10.578,13.549,10.377,13.302,10.377z
		 M15.424,13.16h0.472c0.248,0,0.448-0.2,0.448-0.448v-1.887c0-0.247-0.201-0.448-0.448-0.448h-0.472
		c-0.248,0-0.448,0.201-0.448,0.448v1.887C14.976,12.96,15.177,13.16,15.424,13.16z M13.302,14.622H12.83
		c-0.247,0-0.448,0.201-0.448,0.448v1.887c0,0.248,0.201,0.448,0.448,0.448h0.472c0.247,0,0.447-0.201,0.447-0.448V15.07
		C13.75,14.823,13.549,14.622,13.302,14.622z M15.424,17.406h0.472c0.248,0,0.448-0.201,0.448-0.448V15.07
		c0-0.247-0.201-0.448-0.448-0.448h-0.472c-0.248,0-0.448,0.201-0.448,0.448v1.887C14.976,17.205,15.177,17.406,15.424,17.406z
		 M6.462,8.915h0.472c0.248,0,0.448-0.2,0.448-0.448V6.58c0-0.247-0.201-0.448-0.448-0.448H6.462c-0.248,0-0.448,0.201-0.448,0.448
		v1.887C6.014,8.715,6.215,8.915,6.462,8.915z M8.584,8.915h0.472c0.248,0,0.449-0.2,0.449-0.448V6.58
		c0-0.247-0.201-0.448-0.449-0.448H8.584c-0.247,0-0.448,0.201-0.448,0.448v1.887C8.137,8.715,8.337,8.915,8.584,8.915z
		 M6.462,13.16h0.472c0.248,0,0.448-0.2,0.448-0.448v-1.887c0-0.247-0.201-0.448-0.448-0.448H6.462
		c-0.248,0-0.448,0.201-0.448,0.448v1.887C6.014,12.96,6.215,13.16,6.462,13.16z M8.584,13.16h0.472c0.248,0,0.449-0.2,0.449-0.448
		v-1.887c0-0.247-0.201-0.448-0.449-0.448H8.584c-0.247,0-0.448,0.201-0.448,0.448v1.887C8.137,12.96,8.337,13.16,8.584,13.16z
		 M8.584,17.406h0.472c0.248,0,0.449-0.201,0.449-0.448V15.07c0-0.247-0.201-0.448-0.449-0.448H8.584
		c-0.247,0-0.448,0.201-0.448,0.448v1.887C8.137,17.205,8.337,17.406,8.584,17.406z M4.339,8.915h0.473
		c0.247,0,0.447-0.2,0.447-0.448V6.58c0-0.247-0.2-0.448-0.447-0.448H4.339c-0.248,0-0.448,0.201-0.448,0.448v1.887
		C3.891,8.715,4.092,8.915,4.339,8.915z M4.339,13.16h0.473c0.247,0,0.447-0.2,0.447-0.448v-1.887c0-0.247-0.2-0.448-0.447-0.448
		H4.339c-0.248,0-0.448,0.201-0.448,0.448v1.887C3.891,12.96,4.092,13.16,4.339,13.16z M4.339,17.406h0.473
		c0.247,0,0.447-0.201,0.447-0.448V15.07c0-0.247-0.2-0.448-0.447-0.448H4.339c-0.248,0-0.448,0.201-0.448,0.448v1.887
		C3.891,17.205,4.092,17.406,4.339,17.406z"/>
</g>
</svg>
