<?xml version="1.0" encoding="utf-8"?>
<!-- Generator: Adobe Illustrator 21.0.0, SVG Export Plug-In . SVG Version: 6.00 Build 0)  -->
<svg version="1.1" id="Ebene_1" xmlns="http://www.w3.org/2000/svg" xmlns:xlink="http://www.w3.org/1999/xlink" x="0px" y="0px"
	 viewBox="0 0 20 20" enable-background="new 0 0 20 20" xml:space="preserve">
<path fill="#F2F2F2" d="M6.682,7.686l0.054-0.002L6.682,7.686z M11.863,7.599c-0.248-0.014-0.495-0.025-0.743-0.033l-0.255-0.638
	c-0.143-0.358,0.346-0.579,0.521-0.243L11.863,7.599z M8.879,7.566C8.631,7.574,8.384,7.585,8.136,7.599l0.476-0.913
	C8.787,6.35,9.277,6.57,9.134,6.928L8.879,7.566z M13.968,17.219l-0.001-0.962c0-1.097,1.287-2.235,2.168-2.713
	c0.856,0.561,2.007,0.324,2.581-0.519c0.488,0.116,0.922,0.434,1.15,0.885c0.037,0.073,0.13,0.296,0.134,0.381
	c0.004,0.091-0.18,0.418-0.235,0.499C18.759,16.265,15.609,16.969,13.968,17.219z M1.285,13.021
	c0.572,0.847,1.725,1.086,2.584,0.523c0.882,0.478,2.168,1.616,2.168,2.713l-0.001,0.961c-1.646-0.251-4.665-0.933-5.729-2.346
	C0.222,14.76-0.007,14.379,0,14.242c0.004-0.089,0.092-0.298,0.13-0.375C0.358,13.422,0.801,13.127,1.285,13.021z M4.514,11.844
	c0,0.91-0.741,1.65-1.65,1.65s-1.65-0.741-1.65-1.65c0-0.91,0.741-1.65,1.65-1.65C3.774,10.193,4.514,10.934,4.514,11.844z
	 M8.315,12.18c0-0.935,0.76-1.694,1.694-1.694c0.935,0,1.694,0.76,1.694,1.694c0,0.935-0.76,1.694-1.694,1.694
	C9.075,13.874,8.315,13.114,8.315,12.18z M6.28,17.254l-0.001-1.367c0-1.212,1.641-1.835,2.615-2.006
	c0.664,0.475,1.566,0.475,2.23,0c0.974,0.171,2.615,0.795,2.615,2.006l-0.001,1.366C11.284,17.601,8.734,17.601,6.28,17.254z
	 M4.778,10.612c0-0.861,0.7-1.562,1.562-1.562s1.562,0.7,1.562,1.562s-0.7,1.562-1.562,1.562
	C5.478,12.173,4.778,11.473,4.778,10.612z M4.793,11.958l0.214-0.074c0.656,0.724,1.769,0.812,2.528,0.195
	c0.174,0.077,0.342,0.166,0.504,0.265c0.041,0.492,0.27,0.958,0.633,1.291c-0.956,0.197-2.221,0.731-2.583,1.724
	c-0.401-0.835-1.208-1.567-2.006-2.018C4.501,13.002,4.761,12.495,4.793,11.958z M11.98,12.332c0.155-0.095,0.317-0.179,0.484-0.253
	c0.76,0.616,1.873,0.529,2.528-0.195l0.218,0.075c0.029,0.537,0.287,1.045,0.702,1.387c-0.791,0.448-1.588,1.171-1.99,1.996
	c-0.372-0.982-1.624-1.509-2.577-1.705C11.712,13.3,11.942,12.828,11.98,12.332z M15.221,10.612c0,0.861-0.7,1.562-1.562,1.562
	s-1.562-0.7-1.562-1.562c0-0.861,0.7-1.562,1.562-1.562S15.221,9.75,15.221,10.612z M15.489,11.853c0-0.91,0.741-1.65,1.65-1.65
	s1.65,0.741,1.65,1.65c0,0.91-0.741,1.65-1.65,1.65C16.229,13.503,15.489,12.764,15.489,11.853z M8.597,3.888
	c0-0.773,0.628-1.402,1.402-1.402c0.774,0,1.402,0.629,1.402,1.402c0,0.774-0.629,1.402-1.402,1.402
	C9.226,5.291,8.597,4.661,8.597,3.888z M4.771,8.983V8.031C5.474,7.876,6.187,7.76,6.903,7.68c0.001-0.26-0.004-0.523,0.001-0.783
	c0.02-0.951,1.402-1.467,2.163-1.601c0.548,0.393,1.298,0.393,1.846,0c0.847,0.15,2.165,0.784,2.165,1.801l0.001,0.585
	c0.721,0.084,1.44,0.197,2.148,0.353v0.951C12.028,8.391,7.968,8.391,4.771,8.983z"/>
</svg>
