<?xml version="1.0" encoding="utf-8"?>
<!-- Generator: Adobe Illustrator 16.0.3, SVG Export Plug-In . SVG Version: 6.00 Build 0)  -->
<!DOCTYPE svg PUBLIC "-//W3C//DTD SVG 1.1//EN" "http://www.w3.org/Graphics/SVG/1.1/DTD/svg11.dtd">
<svg version="1.1" id="Ebene_1" xmlns="http://www.w3.org/2000/svg" xmlns:xlink="http://www.w3.org/1999/xlink" x="0px" y="0px"
	 width="20px" height="20px" viewBox="0 0 20 20" enable-background="new 0 0 20 20" xml:space="preserve">
<g>
	<path fill="#333333" d="M-0.103,12.529c0,0-0.573-2.333-1.495-3.29c-0.318-0.418-1.261-0.9-1.822-0.188
		c-0.386,0.645-0.731,1.661-1.045,2.388l-1.608-0.003L-7.21,10.04l-0.373,0.304l1.021,1.254c-0.12,0.11-0.196,0.267-0.196,0.442
		c-0.001,0.333,0.27,0.604,0.603,0.605l0.931,0.001c-0.313,0.072-0.627,0.31-0.677,0.686l-1.115,3.21
		c-0.146,0.453,0.063,0.892,0.436,1.003c0.537,0.154,0.933-0.208,1.024-0.512l0.97-2.837h3.698c0.533,0,0.851-0.44,0.884-0.828
		C0.027,12.984-0.103,12.529-0.103,12.529z M-3.103,12.587h-0.509l1.023-2.265c0.032-0.072,0.15-0.185,0.276-0.101
		c0.065,0.044,0.2,0.18,0.167,0.251L-3.103,12.587z"/>
</g>
<g>
	<g transform="translate(0,36)">
		<path fill="#333333" d="M10-36c-3.661,0-6.639,2.978-6.639,6.639c0,2.528,1.416,4.726,3.5,5.848
			c-0.14-0.216-0.275-0.43-0.376-0.667c-0.02-0.058-0.036-0.12-0.055-0.18c-0.227-0.162-0.444-0.337-0.646-0.528
			c0.16-0.072,0.331-0.145,0.508-0.208c-0.01-0.185,0.007-0.368,0.055-0.542c-0.329,0.11-0.639,0.238-0.924,0.375
			c-0.921-1.029-1.503-2.371-1.562-3.847h2.485c0.017,0.765,0.109,1.492,0.265,2.167c0.021-0.419,0.063-0.835,0.235-1.222
			c0.017-0.041,0.03-0.079,0.049-0.118c-0.027-0.27-0.042-0.545-0.049-0.826h0.667c0.217-0.198,0.463-0.369,0.729-0.5H6.847
			c0.027-1.185,0.243-2.279,0.591-3.181c0.716,0.15,1.494,0.242,2.313,0.257v2.563c0.028,0,0.062-0.007,0.09-0.007
			c0.136-0.005,0.273,0,0.41,0.007v-2.563c0.818-0.015,1.597-0.107,2.313-0.257c0.347,0.902,0.563,1.996,0.59,3.181h-1.389
			c0.266,0.127,0.512,0.295,0.729,0.5h0.659c-0.006,0.286-0.021,0.566-0.048,0.84c0.178,0.397,0.259,0.834,0.291,1.277
			c0.148-0.661,0.241-1.371,0.257-2.118h2.486c-0.059,1.476-0.642,2.817-1.563,3.847c-0.289-0.14-0.601-0.271-0.938-0.382
			c0.048,0.178,0.065,0.363,0.063,0.549c0.178,0.064,0.353,0.135,0.514,0.208c-0.199,0.188-0.415,0.36-0.639,0.521
			c-0.083,0.26-0.198,0.508-0.341,0.729c-0.038,0.042-0.076,0.087-0.11,0.132c2.089-1.12,3.514-3.322,3.514-5.854
			C16.639-33.022,13.661-36,10-36z M8.722-35.375c-0.523,0.338-0.979,0.878-1.347,1.542c-0.082,0.149-0.162,0.304-0.236,0.466
			c-0.498-0.125-0.952-0.284-1.354-0.466C6.59-34.593,7.599-35.138,8.722-35.375z M11.277-35.375
			c1.124,0.237,2.133,0.783,2.938,1.542c-0.401,0.182-0.856,0.34-1.354,0.466c-0.074-0.162-0.154-0.317-0.236-0.466
			C12.258-34.497,11.802-35.037,11.277-35.375z M9.75-35.257v2.222c-0.748-0.014-1.457-0.091-2.111-0.222
			c0.056-0.118,0.113-0.232,0.174-0.34C8.343-34.557,9.021-35.147,9.75-35.257z M10.25-35.25c0.728,0.11,1.407,0.693,1.938,1.653
			c0.06,0.108,0.118,0.223,0.174,0.34c-0.655,0.131-1.363,0.208-2.111,0.222V-35.25z M5.416-33.458
			c0.454,0.219,0.974,0.41,1.535,0.556c-0.359,0.953-0.578,2.077-0.604,3.292H3.861C3.92-31.087,4.495-32.429,5.416-33.458z
			 M14.583-33.458c0.921,1.03,1.497,2.372,1.556,3.848h-2.486c-0.025-1.215-0.245-2.339-0.604-3.292
			C13.61-33.049,14.13-33.239,14.583-33.458z M10-29.423c-2.879,0-2.841,2.382-2.841,2.382l-0.021,1.271
			c-0.235-0.003-0.292,0.219-0.292,0.66c0,0.661,0.427,1.352,0.813,1.708c0.131,0.52,0.38,0.978,0.716,1.326
			c-1.154,0.676-2.542,1.129-3.444,1.583c-0.915,0.46-1.681,2.188-1.681,3.569C5.041-16.123,8.513-16,10-16s4.958-0.123,6.75-0.924
			c0-1.381-0.766-3.109-1.681-3.569c-0.903-0.454-2.29-0.908-3.444-1.583c0.336-0.349,0.584-0.807,0.716-1.326
			c0.386-0.357,0.812-1.047,0.812-1.708c0-0.44-0.057-0.663-0.291-0.66l-0.015-1.271C12.847-27.042,12.879-29.423,10-29.423z"/>
	</g>
</g>
<g>
	<g transform="translate(0,36)">
		<path fill="#F2F2F2" d="M10-16c-3.661,0-6.639,2.978-6.639,6.639c0,2.528,1.416,4.726,3.5,5.848
			c-0.14-0.216-0.275-0.43-0.376-0.667c-0.02-0.058-0.036-0.12-0.055-0.18C6.204-4.523,5.986-4.698,5.784-4.889
			c0.16-0.072,0.331-0.145,0.508-0.208c-0.01-0.185,0.007-0.368,0.055-0.542c-0.329,0.11-0.639,0.238-0.924,0.375
			C4.502-6.293,3.92-7.635,3.861-9.111h2.485c0.017,0.765,0.109,1.492,0.265,2.167C6.632-7.363,6.675-7.78,6.847-8.167
			c0.017-0.041,0.03-0.079,0.049-0.118C6.868-8.555,6.854-8.83,6.847-9.111h0.667c0.217-0.198,0.463-0.369,0.729-0.5H6.847
			c0.027-1.185,0.243-2.279,0.591-3.181c0.716,0.15,1.494,0.242,2.313,0.257v2.563c0.028,0,0.062-0.007,0.09-0.007
			c0.136-0.005,0.273,0,0.41,0.007v-2.563c0.818-0.015,1.597-0.107,2.313-0.257c0.347,0.902,0.563,1.996,0.59,3.181h-1.389
			c0.266,0.127,0.512,0.295,0.729,0.5h0.659c-0.006,0.286-0.021,0.566-0.048,0.84c0.178,0.397,0.259,0.834,0.291,1.277
			c0.148-0.661,0.241-1.371,0.257-2.118h2.486c-0.059,1.476-0.642,2.817-1.563,3.847c-0.289-0.14-0.601-0.271-0.938-0.382
			c0.048,0.178,0.065,0.363,0.063,0.549c0.178,0.064,0.353,0.135,0.514,0.208c-0.199,0.188-0.415,0.36-0.639,0.521
			c-0.083,0.26-0.198,0.508-0.341,0.729c-0.038,0.042-0.076,0.087-0.11,0.132c2.089-1.12,3.514-3.322,3.514-5.854
			C16.639-13.022,13.661-16,10-16z M8.722-15.375c-0.523,0.338-0.979,0.878-1.347,1.542c-0.082,0.149-0.162,0.304-0.236,0.466
			c-0.498-0.125-0.952-0.284-1.354-0.466C6.59-14.593,7.599-15.138,8.722-15.375z M11.277-15.375
			c1.124,0.237,2.133,0.783,2.938,1.542c-0.401,0.182-0.856,0.34-1.354,0.466c-0.074-0.162-0.154-0.317-0.236-0.466
			C12.258-14.497,11.802-15.037,11.277-15.375z M9.75-15.257v2.222c-0.748-0.014-1.457-0.091-2.111-0.222
			c0.056-0.118,0.113-0.232,0.174-0.34C8.343-14.557,9.021-15.147,9.75-15.257z M10.25-15.25c0.728,0.11,1.407,0.693,1.938,1.653
			c0.06,0.108,0.118,0.223,0.174,0.34c-0.655,0.131-1.363,0.208-2.111,0.222V-15.25z M5.416-13.458
			c0.454,0.219,0.974,0.41,1.535,0.556c-0.359,0.953-0.578,2.077-0.604,3.292H3.861C3.92-11.087,4.495-12.429,5.416-13.458z
			 M14.583-13.458c0.921,1.03,1.497,2.372,1.556,3.848h-2.486c-0.025-1.215-0.245-2.339-0.604-3.292
			C13.61-13.049,14.13-13.239,14.583-13.458z M10-9.423c-2.879,0-2.841,2.382-2.841,2.382L7.139-5.771
			c-0.235-0.003-0.292,0.219-0.292,0.66c0,0.661,0.427,1.352,0.813,1.708c0.131,0.52,0.38,0.978,0.716,1.326
			C7.221-1.401,5.833-0.948,4.931-0.493C4.016-0.033,3.25,1.695,3.25,3.076C5.041,3.877,8.513,4,10,4s4.958-0.123,6.75-0.924
			c0-1.381-0.766-3.109-1.681-3.569c-0.903-0.454-2.29-0.908-3.444-1.583c0.336-0.349,0.584-0.807,0.716-1.326
			c0.386-0.357,0.812-1.047,0.812-1.708c0-0.44-0.057-0.663-0.291-0.66l-0.015-1.271C12.847-7.042,12.879-9.423,10-9.423z"/>
	</g>
</g>
</svg>
