<?xml version="1.0" encoding="utf-8"?>
<!-- Generator: Adobe Illustrator 16.0.3, SVG Export Plug-In . SVG Version: 6.00 Build 0)  -->
<!DOCTYPE svg PUBLIC "-//W3C//DTD SVG 1.1//EN" "http://www.w3.org/Graphics/SVG/1.1/DTD/svg11.dtd">
<svg version="1.1" id="Ebene_1" xmlns="http://www.w3.org/2000/svg" xmlns:xlink="http://www.w3.org/1999/xlink" x="0px" y="0px"
	 width="20px" height="20px" viewBox="0 0 20 20" enable-background="new 0 0 20 20" xml:space="preserve">
<g>
	<path fill="#333333" d="M-1.752,6.309c-0.883,0-2.188,0.317-2.188,0.829C-4.961,7.834-6,8.902-6,10.128V12h-8v-1.872
		C-14,8.918-14.73,8-15.627,7h-0.061c-0.645,0-1.492-0.758-2.382-0.758c-1.173,0-1.875,0.987-1.875,2.117
		c0,1.042,0.944,1.898,1.944,2.072V16h16v-5.569c1-0.131,2.054-0.998,2.054-2.039C0.054,7.22-0.625,6.309-1.752,6.309z"/>
</g>
<g>
	<path fill="#333333" d="M18.024,11.325c0,0-2.293,5.483-7.977,5.483c-5.681,0-7.974-5.483-7.974-5.483s4.087,0.998,7.875,0.998
		C13.738,12.322,18.024,11.325,18.024,11.325z"/>
	<path fill="#333333" d="M19.321,5.344c-4.188-1.296-7.478-4.487-9.273-4.487c-1.794,0-5.084,3.19-9.271,4.487
		C0.079,5.543-0.221,6.34,0.18,6.939c0.897,1.196,1.895,1.296,1.895,2.692c0,0,3.985,0.996,7.974,0.996s7.977-0.996,7.977-0.996
		c0-1.396,0.997-1.496,1.793-2.792C20.218,6.34,19.918,5.543,19.321,5.344z M10.048,8.833c-1.096,0-1.993-1.895-1.993-2.992
		c0,0,0.897-0.997,1.993-0.997c1.099,0,1.995,0.997,1.995,0.997C12.043,6.939,11.146,8.833,10.048,8.833z"/>
</g>
<g>
	<g>
		<path fill="#333333" d="M39.027,8.541c-0.243,0-0.487-0.089-0.666-0.266c-4.614-4.617-12.117-4.617-16.755,0
			c-0.378,0.377-0.977,0.377-1.331,0c-0.355-0.378-0.378-0.977,0-1.333c5.37-5.371,14.07-5.371,19.441,0
			c0.378,0.378,0.378,0.977,0,1.333C39.517,8.452,39.273,8.541,39.027,8.541z"/>
	</g>
</g>
</svg>
