<?xml version="1.0" encoding="utf-8"?>
<!-- Generator: Adobe Illustrator 16.0.3, SVG Export Plug-In . SVG Version: 6.00 Build 0)  -->
<!DOCTYPE svg PUBLIC "-//W3C//DTD SVG 1.1//EN" "http://www.w3.org/Graphics/SVG/1.1/DTD/svg11.dtd">
<svg version="1.1" id="Ebene_1" xmlns="http://www.w3.org/2000/svg" xmlns:xlink="http://www.w3.org/1999/xlink" x="0px" y="0px"
	 width="20px" height="20px" viewBox="0 0 20 20" enable-background="new 0 0 20 20" xml:space="preserve">
<g>
	<g>
		<path fill="#333333" d="M-0.059,14.179l-1.288-3.12c-0.172,0.089-0.278,0.11-0.538,0.189c-0.201,0.059-1.077,0.274-3.108,0.274
			c-0.581,0-1.066-0.019-1.474-0.045v2.334c0,0.627,0.508,1.135,1.135,1.135h2.57c0.488,0,0.901-0.311,1.061-0.743l0.23,0.559
			c0.161,0.39,0.607,0.575,0.998,0.414C-0.083,15.016,0.103,14.568-0.059,14.179z"/>
	</g>
</g>
<g>
	<circle fill="#333333" cx="13.714" cy="1.632" r="1.632"/>
	<path fill="#333333" d="M15.53,3.604l-3.658-0.001c-0.349,0-0.656,0.087-0.918,0.238c0.49,0.485,0.742,1.199,0.742,1.908v4.98
		c0,0.028-0.007,0.051-0.008,0.077l-0.001,8.279c0,0.504,0.409,0.914,0.914,0.914c0.506,0,0.915-0.41,0.915-0.914l0.002-7.676h0.407
		l-0.003,7.676c0,0.504,0.409,0.914,0.915,0.914c0.505,0,0.914-0.41,0.914-0.914l0.004-13.232h0.401v4.876
		c0,0.981,1.28,0.981,1.277,0v-4.98C17.435,4.666,16.797,3.604,15.53,3.604z"/>
	<path fill="#333333" d="M3.512,5.72c0-0.441,0.089-0.844,0.25-1.192H3.479c-0.505,0-0.914,0.409-0.914,0.915
		c0,0.505,0.409,0.915,0.914,0.915h0.032V5.72z"/>
	<circle fill="#333333" cx="7.604" cy="1.632" r="1.632"/>
	<path fill="#333333" d="M5.577,19.086C5.577,19.59,5.987,20,6.492,20c0.506,0,0.915-0.41,0.915-0.914l0.001-7.676h0.407
		l-0.002,7.676C7.813,19.59,8.223,20,8.729,20c0.505,0,0.914-0.41,0.914-0.914L9.646,5.854h0.401v4.876c0,0.981,1.279,0.981,1.277,0
		v-4.98c0-1.083-0.638-2.146-1.905-2.146L5.762,3.603c-1.155,0-1.879,0.941-1.879,2.117v5.01c0,0.974,1.287,0.974,1.287,0V5.854
		h0.409L5.577,19.086z"/>
</g>
<g>
	<circle fill="#F2F2F2" cx="13.714" cy="21.632" r="1.632"/>
	<circle fill="#F2F2F2" cx="7.604" cy="21.632" r="1.632"/>
</g>
<g>
	<g>
		<path fill="#FFFFFF" d="M30.656,20c-0.42,0-0.834-0.108-1.197-0.314c-0.439-0.268-0.955-0.332-1.469-0.194
			c-1.01,0.265-2.092-0.137-2.664-0.971c-0.285-0.417-0.744-0.713-1.258-0.812c-1.004-0.19-1.791-1.007-1.963-2.031
			c-0.078-0.528-0.344-0.968-0.773-1.279c-0.824-0.631-1.184-1.709-0.896-2.687c0.141-0.525,0.088-1.043-0.154-1.491
			c-0.486-0.923-0.332-2.069,0.383-2.854c0.346-0.364,0.521-0.857,0.502-1.393c-0.047-1.034,0.566-1.989,1.527-2.374
			c0.479-0.191,0.848-0.553,1.064-1.046c0.414-0.951,1.379-1.548,2.422-1.476l0.08,0.001c0.518,0,0.977-0.167,1.328-0.483
			c0.762-0.668,1.939-0.789,2.814-0.292c0.439,0.268,0.955,0.333,1.469,0.194c1.01-0.264,2.092,0.136,2.664,0.971
			c0.285,0.417,0.744,0.713,1.258,0.812c1.004,0.19,1.791,1.007,1.963,2.031c0.078,0.527,0.346,0.968,0.773,1.279
			c0.824,0.632,1.184,1.71,0.896,2.688c-0.141,0.524-0.088,1.042,0.154,1.49c0.486,0.922,0.332,2.068-0.383,2.855
			c-0.346,0.364-0.521,0.857-0.502,1.393c0.049,1.034-0.566,1.988-1.527,2.373c-0.479,0.192-0.848,0.554-1.064,1.047
			c-0.391,0.9-1.277,1.482-2.254,1.482l0,0c-0.055,0-0.111-0.002-0.168-0.006L33.6,18.911c-0.518,0-0.975,0.167-1.324,0.483
			C31.826,19.786,31.254,20,30.656,20z M28.514,18.927c0.426,0,0.838,0.115,1.197,0.333c0.682,0.387,1.631,0.294,2.236-0.235
			c0.439-0.396,1.012-0.607,1.652-0.607l0.109,0.002c0.053,0.003,0.096,0.005,0.141,0.005c0.779,0,1.486-0.466,1.801-1.186
			c0.271-0.615,0.732-1.066,1.334-1.308c0.766-0.306,1.256-1.067,1.219-1.893c-0.027-0.671,0.197-1.292,0.631-1.75
			c0.572-0.629,0.699-1.549,0.311-2.286c-0.303-0.559-0.371-1.202-0.193-1.856c0.23-0.788-0.059-1.653-0.719-2.158
			c-0.531-0.387-0.867-0.941-0.965-1.598c-0.137-0.816-0.766-1.47-1.566-1.623c-0.645-0.124-1.217-0.495-1.574-1.019
			c-0.455-0.665-1.326-0.981-2.129-0.771c-0.635,0.17-1.307,0.083-1.848-0.246c-0.68-0.386-1.631-0.292-2.236,0.236
			C27.475,1.363,26.9,1.574,26.26,1.574l-0.107-0.002C26.1,1.568,26.055,1.567,26.01,1.567c-0.779,0-1.484,0.466-1.799,1.186
			c-0.271,0.615-0.732,1.066-1.334,1.307C22.1,4.371,21.621,5.114,21.66,5.953c0.025,0.672-0.199,1.292-0.635,1.75
			c-0.57,0.628-0.695,1.548-0.309,2.285c0.303,0.559,0.371,1.202,0.193,1.857c-0.234,0.801,0.049,1.646,0.719,2.158
			c0.533,0.387,0.869,0.941,0.965,1.599c0.137,0.816,0.766,1.47,1.566,1.622c0.645,0.124,1.217,0.495,1.574,1.019
			c0.455,0.665,1.326,0.981,2.129,0.772C28.078,18.957,28.299,18.927,28.514,18.927z M28.188,14.244l-3.813-3.813l1.223-1.222
			l2.59,2.614l6.078-6.077l1.221,1.221L28.188,14.244z M25.074,10.431l3.113,3.114l6.6-6.578l-0.521-0.521l-6.08,6.078l-2.59-2.614
			L25.074,10.431z"/>
	</g>
</g>
</svg>
