<?xml version="1.0" encoding="utf-8"?>
<!-- Generator: Adobe Illustrator 16.0.3, SVG Export Plug-In . SVG Version: 6.00 Build 0)  -->
<!DOCTYPE svg PUBLIC "-//W3C//DTD SVG 1.1//EN" "http://www.w3.org/Graphics/SVG/1.1/DTD/svg11.dtd">
<svg version="1.1" id="Ebene_1" xmlns="http://www.w3.org/2000/svg" xmlns:xlink="http://www.w3.org/1999/xlink" x="0px" y="0px"
	 width="20px" height="20px" viewBox="0 0 20 20" enable-background="new 0 0 20 20" xml:space="preserve">
<g>
	<g>
		<circle fill="#FFFFFF" cx="9.932" cy="9.996" r="7.643"/>
	</g>
	<g>
		<path fill="#1072E5" d="M19.363,9.887L19.363,9.887c-0.283-0.523-0.326-1.111-0.174-1.678c0.262-0.893-0.066-1.852-0.807-2.418
			c-0.479-0.349-0.785-0.85-0.871-1.438c-0.152-0.914-0.85-1.655-1.766-1.829c-0.564-0.109-1.088-0.436-1.414-0.915l0,0
			c-0.523-0.762-1.482-1.111-2.396-0.872c-0.566,0.152-1.154,0.087-1.656-0.218C9.473,0.062,8.449,0.17,7.752,0.78l0,0
			C7.316,1.172,6.75,1.347,6.162,1.325C5.227,1.26,4.354,1.804,3.982,2.654C3.744,3.198,3.33,3.612,2.785,3.83
			C1.914,4.179,1.369,5.028,1.414,5.965l0,0C1.436,6.553,1.238,7.12,0.848,7.533c-0.654,0.719-0.785,1.743-0.35,2.571l0,0
			c0.283,0.523,0.326,1.111,0.174,1.678l0,0c-0.26,0.893,0.066,1.851,0.807,2.418l0,0c0.479,0.348,0.785,0.849,0.871,1.438
			c0.152,0.914,0.85,1.656,1.766,1.829c0.566,0.109,1.088,0.437,1.414,0.915l0,0c0.523,0.763,1.482,1.111,2.396,0.872
			c0.566-0.153,1.154-0.087,1.656,0.217c0.807,0.457,1.83,0.349,2.527-0.261l0,0c0.436-0.393,1.002-0.566,1.59-0.544
			c0.936,0.064,1.809-0.48,2.18-1.33l0,0c0.238-0.544,0.652-0.958,1.197-1.176c0.871-0.349,1.416-1.198,1.373-2.135
			c-0.023-0.588,0.174-1.154,0.564-1.568C19.668,11.738,19.799,10.714,19.363,9.887z M8.188,13.894l-3.463-3.463l0.871-0.872
			l2.592,2.614l6.078-6.077l0.871,0.871L8.188,13.894z"/>
		<path fill="#FFFFFF" d="M10.656,20c-0.42,0-0.834-0.108-1.197-0.314c-0.439-0.268-0.955-0.332-1.469-0.194
			c-1.01,0.265-2.092-0.137-2.664-0.971c-0.285-0.417-0.744-0.713-1.258-0.812c-1.004-0.19-1.791-1.007-1.963-2.031
			c-0.078-0.528-0.344-0.968-0.773-1.279c-0.824-0.631-1.184-1.709-0.896-2.687c0.141-0.525,0.088-1.043-0.154-1.491
			c-0.486-0.923-0.332-2.069,0.383-2.854C1.01,7.003,1.186,6.51,1.166,5.974C1.119,4.94,1.732,3.985,2.693,3.601
			c0.479-0.191,0.848-0.553,1.064-1.046C4.172,1.603,5.137,1.006,6.18,1.078L6.26,1.08c0.518,0,0.977-0.167,1.328-0.483
			c0.762-0.668,1.939-0.789,2.814-0.292c0.439,0.268,0.955,0.333,1.469,0.194c1.01-0.264,2.092,0.136,2.664,0.971
			c0.285,0.417,0.744,0.713,1.258,0.812c1.004,0.19,1.791,1.007,1.963,2.031c0.078,0.527,0.346,0.968,0.773,1.279
			c0.824,0.632,1.184,1.71,0.896,2.688c-0.141,0.524-0.088,1.042,0.154,1.49c0.486,0.922,0.332,2.068-0.383,2.855
			c-0.346,0.364-0.521,0.857-0.502,1.393c0.049,1.034-0.566,1.988-1.527,2.373c-0.479,0.192-0.848,0.554-1.064,1.047
			c-0.391,0.9-1.277,1.482-2.254,1.482l0,0c-0.055,0-0.111-0.002-0.168-0.006L13.6,18.911c-0.518,0-0.975,0.167-1.324,0.483
			C11.826,19.786,11.254,20,10.656,20z M8.514,18.927c0.426,0,0.838,0.115,1.197,0.333c0.682,0.387,1.631,0.294,2.236-0.235
			c0.439-0.396,1.012-0.607,1.652-0.607l0.109,0.002c0.053,0.003,0.096,0.005,0.141,0.005c0.779,0,1.486-0.466,1.801-1.186
			c0.271-0.615,0.732-1.066,1.334-1.308c0.766-0.306,1.256-1.067,1.219-1.893c-0.027-0.671,0.197-1.292,0.631-1.75
			c0.572-0.629,0.699-1.549,0.311-2.286c-0.303-0.559-0.371-1.202-0.193-1.856c0.23-0.788-0.059-1.653-0.719-2.158
			c-0.531-0.387-0.867-0.941-0.965-1.598c-0.137-0.816-0.766-1.47-1.566-1.623c-0.645-0.124-1.217-0.495-1.574-1.019
			c-0.455-0.665-1.326-0.981-2.129-0.771c-0.635,0.17-1.307,0.083-1.848-0.246C9.471,0.344,8.52,0.438,7.914,0.966
			C7.475,1.363,6.9,1.574,6.26,1.574L6.152,1.572C6.1,1.568,6.055,1.567,6.01,1.567c-0.779,0-1.484,0.466-1.799,1.186
			C3.939,3.368,3.479,3.819,2.877,4.06C2.1,4.371,1.621,5.114,1.66,5.953c0.025,0.672-0.199,1.292-0.635,1.75
			C0.455,8.332,0.33,9.252,0.717,9.989c0.303,0.559,0.371,1.202,0.193,1.857c-0.234,0.801,0.049,1.646,0.719,2.158
			c0.533,0.387,0.869,0.941,0.965,1.599c0.137,0.816,0.766,1.47,1.566,1.622c0.645,0.124,1.217,0.495,1.574,1.019
			c0.455,0.665,1.326,0.981,2.129,0.772C8.078,18.957,8.299,18.927,8.514,18.927z M8.188,14.244l-3.813-3.813l1.223-1.222
			l2.59,2.614l6.078-6.077l1.221,1.221L8.188,14.244z M5.074,10.431l3.113,3.114l6.6-6.578l-0.521-0.521l-6.08,6.078l-2.59-2.614
			L5.074,10.431z"/>
	</g>
</g>
<g>
	<path fill="#333333" d="M40,8.876c-1.138,0.654-2.242,1.29-3.385,1.952l-0.189,0.11v-0.047l-0.005-0.017
		c-0.004-0.076-0.004-0.151-0.004-0.228c-0.004-0.299-0.008-0.641-0.101-0.991C36.24,9.37,36.122,9.07,35.769,8.838l-0.098-0.063
		c-0.181-0.118-0.37-0.245-0.586-0.35c-0.561-0.278-1.172-0.485-1.859-0.632c-1.008-0.207-2.062-0.308-3.221-0.308
		c-0.278,0-0.557,0.004-0.835,0.017c-0.662,0.03-1.201,0.072-1.699,0.144c-1.163,0.173-2.065,0.456-2.871,0.911
		c-0.328,0.181-0.742,0.413-0.89,1.024c-0.097,0.388-0.147,0.852-0.173,1.324l-0.287-0.169l-0.603-0.341l-0.067-0.042l-0.253-0.148
		l-0.067-0.042l-0.784-0.447C21.008,9.442,20.527,9.168,20,8.864c0.236-0.147,0.409-0.261,0.587-0.362
		c2.993-1.687,5.99-3.369,8.976-5.067c0.324-0.182,0.564-0.182,0.89,0.004c3.035,1.729,6.083,3.436,9.123,5.152
		C39.706,8.662,39.828,8.754,40,8.876z"/>
</g>
</svg>
