<?xml version="1.0" encoding="utf-8"?>
<!-- Generator: Adobe Illustrator 21.0.0, SVG Export Plug-In . SVG Version: 6.00 Build 0)  -->
<svg version="1.1" id="Ebene_1" xmlns="http://www.w3.org/2000/svg" xmlns:xlink="http://www.w3.org/1999/xlink" x="0px" y="0px"
	 viewBox="0 0 20 20" enable-background="new 0 0 20 20" xml:space="preserve">
<g>
	<g>
		<path fill="#F2F2F2" d="M10,0C6.314,0,3.327,2.987,3.327,6.672c0,1.271,0.362,2.454,0.979,3.466L10.001,20l5.716-9.901
			c0.602-1.002,0.956-2.173,0.956-3.427C16.673,2.987,13.686,0,10,0z M9.716,2.668c0-0.156,0.127-0.284,0.285-0.284
			c0.157,0,0.284,0.127,0.284,0.284v1.137c0,0.156-0.128,0.284-0.284,0.284c-0.158,0-0.285-0.128-0.285-0.284V2.668z M6.874,7.215
			H5.738c-0.157,0-0.284-0.127-0.284-0.284s0.128-0.284,0.284-0.284h1.136c0.158,0,0.285,0.127,0.285,0.284
			C7.159,7.088,7.032,7.215,6.874,7.215z M7.477,4.81L6.674,4.006c-0.112-0.111-0.112-0.29,0-0.402c0.111-0.11,0.29-0.11,0.401,0
			L7.88,4.408C7.99,4.52,7.99,4.699,7.88,4.81C7.824,4.866,7.75,4.893,7.679,4.893C7.607,4.893,7.533,4.866,7.477,4.81z
			 M10.428,12.614H9.575c-0.158,0-0.285-0.128-0.285-0.284c0-0.157,0.127-0.285,0.285-0.285h0.852c0.156,0,0.284,0.128,0.284,0.285
			C10.711,12.487,10.583,12.614,10.428,12.614z M10.852,11.478H9.148c-0.157,0-0.284-0.128-0.284-0.284
			c0-0.157,0.127-0.284,0.284-0.284h1.705c0.157,0,0.285,0.127,0.285,0.284C11.138,11.35,11.01,11.478,10.852,11.478z M11.445,8.938
			c-0.147,0.252-0.308,0.835-0.308,1.119c0,0.157-0.127,0.284-0.284,0.284H9.148c-0.157,0-0.284-0.127-0.284-0.284
			c0-0.284-0.161-0.866-0.308-1.119C8.167,8.259,7.728,7.77,7.728,6.931c0-1.256,1.016-2.273,2.274-2.273
			c1.255,0,2.272,1.017,2.272,2.273C12.274,7.77,11.835,8.259,11.445,8.938z M12.323,4.893c-0.073,0-0.145-0.027-0.202-0.083
			c-0.109-0.111-0.109-0.29,0-0.402l0.806-0.804c0.109-0.11,0.289-0.11,0.401,0c0.11,0.112,0.11,0.292,0,0.402L12.524,4.81
			C12.467,4.866,12.395,4.893,12.323,4.893z M14.262,7.215h-1.136c-0.157,0-0.285-0.127-0.285-0.284s0.128-0.284,0.285-0.284h1.136
			c0.158,0,0.284,0.127,0.284,0.284S14.421,7.215,14.262,7.215z"/>
	</g>
</g>
</svg>
