<?xml version="1.0" encoding="utf-8"?>
<!-- Generator: Adobe Illustrator 16.0.3, SVG Export Plug-In . SVG Version: 6.00 Build 0)  -->
<!DOCTYPE svg PUBLIC "-//W3C//DTD SVG 1.1//EN" "http://www.w3.org/Graphics/SVG/1.1/DTD/svg11.dtd">
<svg version="1.1" id="Ebene_1" xmlns="http://www.w3.org/2000/svg" xmlns:xlink="http://www.w3.org/1999/xlink" x="0px" y="0px"
	 width="19.99px" height="20px" viewBox="0 0 19.99 20" enable-background="new 0 0 19.99 20" xml:space="preserve">
<g>
	<path fill="#333333" d="M13.142,3.573c0,1.743-1.413,3.175-3.156,3.175c-1.724,0-3.137-1.433-3.137-3.175s1.414-3.156,3.137-3.156
		C11.729,0.417,13.142,1.831,13.142,3.573z"/>
	<g>
		<g>
			<path fill="#333333" d="M19.725,15.267l-4.977-7.145c-0.193-0.271-0.736-0.678-1.316-0.678H6.539
				c-0.543,0-1.104,0.407-1.298,0.678l-4.976,7.145c-0.174,0.252-0.271,0.542-0.271,0.832c0,0.832,0.716,1.646,1.567,1.646
				c0.136,0,0.271-0.02,0.407-0.039l3.176-0.891v2.768h9.699v-2.768l3.175,0.891c0.136,0.02,0.252,0.039,0.388,0.039
				c0.852,0,1.588-0.814,1.588-1.646C19.995,15.809,19.897,15.519,19.725,15.267z M12.68,13.292
				c-0.556,0.277-1.006,0.757-0.946,1.631c0.046,0.673,0.514,1.017,0.946,1.25l-5.379,0.019c0.756-0.336,0.902-0.768,0.976-1.274
				c0.128-0.887-0.641-1.582-0.976-1.624v-3.046h5.379C12.68,10.248,12.698,13.284,12.68,13.292z"/>
		</g>
	</g>
</g>
<g>
	<path fill="#333333" d="M24.215,11.617h0.391c0,0,0,2.684,0,2.983c0,0.259,0.209,0.469,0.466,0.469c0.259,0,0.463-0.21,0.463-0.469
		c0-0.258,0-2.925,0-3.309c0-0.756-0.619-1.367-1.374-1.367c-0.087,0-0.264,0-0.483,0h-1.798c-0.211,0-0.378,0-0.46,0
		c-0.755,0-1.429,0.611-1.429,1.367c0,0.385,0,3.051,0,3.309c0,0.259,0.202,0.469,0.461,0.469c0.258,0,0.468-0.21,0.468-0.469
		c0-0.3,0-2.983,0-2.983h0.387v3.759h2.909V11.617z"/>
</g>
</svg>
