<?xml version="1.0" encoding="utf-8"?>
<!-- Generator: Adobe Illustrator 16.0.3, SVG Export Plug-In . SVG Version: 6.00 Build 0)  -->
<!DOCTYPE svg PUBLIC "-//W3C//DTD SVG 1.1//EN" "http://www.w3.org/Graphics/SVG/1.1/DTD/svg11.dtd">
<svg version="1.1" id="Ebene_1" xmlns="http://www.w3.org/2000/svg" xmlns:xlink="http://www.w3.org/1999/xlink" x="0px" y="0px"
	 width="20px" height="20.001px" viewBox="0 0 20 20.001" enable-background="new 0 0 20 20.001" xml:space="preserve">
<g>
	<path fill="#333333" d="M0,8.877c-1.138,0.654-2.242,1.29-3.385,1.952l-0.189,0.11v-0.047l-0.005-0.017
		c-0.004-0.076-0.004-0.151-0.004-0.228c-0.004-0.299-0.008-0.641-0.101-0.991C-3.76,9.371-3.878,9.071-4.231,8.839l-0.098-0.063
		c-0.181-0.118-0.37-0.245-0.586-0.35c-0.561-0.278-1.172-0.485-1.859-0.632c-1.008-0.207-2.062-0.308-3.221-0.308
		c-0.278,0-0.557,0.004-0.835,0.017c-0.662,0.03-1.201,0.072-1.699,0.144c-1.163,0.173-2.065,0.456-2.871,0.911
		c-0.328,0.181-0.742,0.413-0.89,1.024c-0.097,0.388-0.147,0.852-0.173,1.324l-0.287-0.169l-0.603-0.341l-0.067-0.042l-0.253-0.148
		l-0.067-0.042l-0.784-0.447C-18.992,9.443-19.473,9.169-20,8.865c0.236-0.147,0.409-0.261,0.587-0.362
		c2.993-1.687,5.99-3.369,8.976-5.067c0.324-0.182,0.564-0.182,0.89,0.004c3.035,1.729,6.083,3.436,9.123,5.152
		C-0.294,8.663-0.172,8.755,0,8.877z"/>
</g>
<g>
	<g>
		<path fill="#333333" d="M10,0.001c-5.523,0-10,4.477-10,10C0,15.523,4.477,20,10,20c5.522,0,10-4.477,10-9.999
			C20,4.478,15.522,0.001,10,0.001z M10,18.334c-4.603,0-8.334-3.731-8.334-8.333c0-4.603,3.731-8.334,8.334-8.334
			c4.602,0,8.333,3.731,8.333,8.334C18.333,14.603,14.602,18.334,10,18.334z"/>
	</g>
	<path fill="#333333" d="M12.777,3.056L7.222,8.89l0,0v8.056l5.556-5.834l0,0V3.056z M10.634,10.619
		c-0.325,0.326-0.853,0.326-1.179,0c-0.325-0.325-0.325-0.853,0-1.178s0.853-0.325,1.179,0
		C10.959,9.767,10.959,10.295,10.634,10.619z"/>
</g>
</svg>
