<?xml version="1.0" encoding="utf-8"?>
<!-- Generator: Adobe Illustrator 16.0.3, SVG Export Plug-In . SVG Version: 6.00 Build 0)  -->
<!DOCTYPE svg PUBLIC "-//W3C//DTD SVG 1.1//EN" "http://www.w3.org/Graphics/SVG/1.1/DTD/svg11.dtd">
<svg version="1.1" id="Ebene_1" xmlns="http://www.w3.org/2000/svg" xmlns:xlink="http://www.w3.org/1999/xlink" x="0px" y="0px"
	 width="20px" height="20px" viewBox="0 0 20 20" enable-background="new 0 0 20 20" xml:space="preserve">
<g>
	<g>
		<path fill="#333333" d="M-0.973,8.54c-0.243,0-0.487-0.089-0.666-0.266c-4.614-4.617-12.117-4.617-16.755,0
			c-0.378,0.377-0.977,0.377-1.331,0c-0.355-0.378-0.378-0.977,0-1.333c5.37-5.371,14.07-5.371,19.441,0
			c0.378,0.378,0.378,0.977,0,1.333C-0.483,8.451-0.727,8.54-0.973,8.54z"/>
	</g>
</g>
<g>
	<g>
		<path fill="#333333" d="M10.785,0.123c-0.139-0.06-0.289-0.1-0.448-0.116c-0.842-0.083-1.59,0.536-1.675,1.383
			c-0.084,0.847,0.529,1.602,1.37,1.686c0.534,0.053,1.03-0.179,1.344-0.571c0.425,0.357,0.964,1.524,1.817-0.051
			C12.104,3.328,12.142,0.595,10.785,0.123z"/>
		<path fill="#333333" d="M13,7.394l-0.578-3.68H7.491L6.815,8.125c-0.09,0.78,0.521,1.463,1.306,1.463l2.63-0.538l-0.532-1.341
			c-0.448,0.17-1.14,0.433-1.546,0.573C8.415,8.371,8.21,8.005,8.241,7.736l0.135-1.122L7.808,6.831L7.572,6.619l0.944-0.483
			c0.122-0.059,0.306-0.02,0.328,0.114c0.047,0.274,0.002,0.864,0.002,0.864L9.92,6.698c0.188-0.074,0.403,0.021,0.477,0.211
			l0.14,0.358l0.107,0.278l0.112,0.292v1.212l0.938-0.192C12.315,8.752,13.089,8.174,13,7.394z M11.502,7.383
			c-0.339,0.132-0.721-0.037-0.853-0.376c-0.131-0.339,0.037-0.721,0.377-0.853c0.339-0.131,0.721,0.037,0.853,0.376
			C12.011,6.87,11.842,7.251,11.502,7.383z"/>
		<polygon fill="#333333" points="12.098,9.065 8.092,9.891 7.661,14.753 8.531,14.754 9.086,20 9.987,20 10.003,14.754 
			10.386,14.754 10.373,20 11.2,20 11.827,14.754 12.747,14.749 		"/>
	</g>
</g>
</svg>
