<?xml version="1.0" encoding="utf-8"?>
<!-- Generator: Adobe Illustrator 16.0.3, SVG Export Plug-In . SVG Version: 6.00 Build 0)  -->
<!DOCTYPE svg PUBLIC "-//W3C//DTD SVG 1.1//EN" "http://www.w3.org/Graphics/SVG/1.1/DTD/svg11.dtd">
<svg version="1.1" id="Ebene_1" xmlns="http://www.w3.org/2000/svg" xmlns:xlink="http://www.w3.org/1999/xlink" x="0px" y="0px"
	 width="20px" height="20px" viewBox="0 0 20 20" enable-background="new 0 0 20 20" xml:space="preserve">
<g>
	<g>
		<path fill="#333333" d="M-0.104,10.267C-0.67,9.702-1.234,9.137-1.8,8.572c-0.282-0.463-0.799-0.876-1.737-0.876
			c-0.449,0-0.793,0.101-1.06,0.26c-0.082,0.007-0.16,0.041-0.221,0.102c-0.737,0.737-1.475,1.475-2.212,2.211
			c-0.137,0.137-0.136,0.368,0.002,0.503c0.139,0.136,0.366,0.134,0.503-0.002c0.348-0.348,0.693-0.694,1.04-1.041
			c-0.005,0.151,0.003,0.247,0.003,0.247v2.459h0.641c0,1.042,0,2.083,0,3.125c0,0.194,0.157,0.357,0.353,0.358
			c0.192,0.001,0.358-0.159,0.358-0.353c0-1.042,0-2.085,0-3.127c0-0.001,0-0.002,0-0.003h1.303c0,1.042,0,2.083,0,3.125
			c0,0.194,0.158,0.357,0.353,0.358c0.193,0.001,0.358-0.159,0.358-0.353c0-1.042,0-2.085,0-3.127c0-0.001,0-0.002,0-0.003h0.658
			V9.92c0.286,0.284,0.57,0.569,0.854,0.853c0.136,0.137,0.367,0.134,0.503-0.002C0.035,10.632,0.032,10.404-0.104,10.267z"/>
	</g>
</g>
<g>
	<path fill="#333333" d="M10.115,13.138c0.52,0,0.865-0.289,2.134-0.289c-0.347,0.577-0.692,1.096-2.075,1.153L10.115,13.138z
		 M13.575,4.488V3.335c1.097-0.461,2.941-0.577,4.151-0.231v1.211C16.517,3.97,14.672,4.085,13.575,4.488z M13.575,6.045V4.834
		c1.097-0.403,2.941-0.519,4.151-0.23v1.269C16.517,5.527,14.672,5.584,13.575,6.045z M13.575,7.602v-1.21
		c1.097-0.403,2.941-0.519,4.151-0.231v1.269C16.517,7.083,14.672,7.141,13.575,7.602z M13.633,9.102l-0.058-1.154
		c1.097-0.461,2.941-0.577,4.151-0.23v1.211C16.517,8.583,14.672,8.698,13.633,9.102z M4.696,4.893V3.797
		c2.767-1.211,5.073-3.749,8.13-2.941v1.211C9.77,1.259,7.463,3.739,4.696,4.893z M13.633,10.716V9.505
		c1.039-0.173,2.884-0.519,4.094-0.23v1.269C16.517,10.197,14.672,10.486,13.633,10.716z M4.696,6.449V5.354
		c2.767-1.211,5.073-3.69,8.13-2.941v1.269C9.77,2.816,7.463,5.296,4.696,6.449z M17.727,12.042c-1.21-0.346-3.113,0.058-4.208,0
		l0.057-1.038c1.097,0.058,2.941-0.519,4.151-0.23V12.042z M4.696,8.006V6.91c2.767-1.211,5.073-3.69,8.13-2.94v1.269
		C9.77,4.373,7.463,6.853,4.696,8.006z M12.538,13.83c0.345-0.23,0.576-0.865,0.808-1.326c1.095-0.173,2.825-0.173,4.381,0v1.038
		C15.479,13.311,13.921,13.427,12.538,13.83z M4.696,9.505V8.41c2.767-1.211,5.073-3.748,8.13-2.941V6.68
		C9.77,5.873,7.463,8.352,4.696,9.505z M4.696,11.062V9.967c2.767-1.211,5.073-3.691,8.13-2.941v1.269
		C9.77,7.43,7.463,9.909,4.696,11.062z M10.001,11.985c0.749-0.288,1.672-0.346,2.537-0.173c0,0.23-0.058,0.461-0.175,0.634
		c-0.748,0-1.613,0-2.306,0.289L10.001,11.985z M4.696,12.562v-1.096c2.767-1.211,5.073-3.69,8.13-2.941v1.269
		C9.77,8.929,7.463,11.409,4.696,12.562z M4.696,14.118v-1.095c2.767-1.211,5.073-3.749,8.13-2.941v1.211
		C9.77,10.486,7.81,12.331,4.696,14.118z M2.562,20h0.691c0.174,0,0.288-0.115,0.288-0.288V2.816
		c0.404-0.231,0.751-0.692,0.751-1.211c0-0.75-0.635-1.384-1.326-1.384c-0.749,0-1.385,0.634-1.385,1.384
		c0,0.519,0.288,0.923,0.692,1.211v16.896C2.273,19.885,2.388,20,2.562,20z M4.753,14.811c2.076-1.326,3.345-2.249,4.671-2.768
		l0.116,2.019c0,0.403,0.346,0.577,0.691,0.519c2.653-0.347,4.671-0.808,7.554-0.461c0.346,0,0.634-0.231,0.634-0.519V3.047
		c0-0.173-0.115-0.403-0.346-0.403c-1.729-0.346-3.229-0.289-4.44,0.058V0.625c0-0.231-0.114-0.403-0.287-0.461
		c-2.884-0.807-5.94,1.557-8.881,2.999C4.35,3.22,4.292,3.335,4.292,3.393L4.177,14.522C4.177,14.811,4.522,14.983,4.753,14.811z"/>
</g>
<g>
	<path fill="#F2F2F2" d="M10.115,33.138c0.52,0,0.865-0.289,2.134-0.289c-0.347,0.577-0.692,1.096-2.075,1.153L10.115,33.138z
		 M13.575,24.488v-1.153c1.097-0.461,2.941-0.577,4.151-0.231v1.211C16.517,23.969,14.672,24.084,13.575,24.488z M13.575,26.045
		v-1.211c1.097-0.403,2.941-0.519,4.151-0.23v1.269C16.517,25.526,14.672,25.583,13.575,26.045z M13.575,27.602v-1.21
		c1.097-0.403,2.941-0.519,4.151-0.231v1.269C16.517,27.083,14.672,27.141,13.575,27.602z M13.633,29.102l-0.058-1.154
		c1.097-0.461,2.941-0.577,4.151-0.23v1.211C16.517,28.582,14.672,28.698,13.633,29.102z M4.696,24.892v-1.096
		c2.767-1.211,5.073-3.749,8.13-2.941v1.211C9.77,21.259,7.463,23.739,4.696,24.892z M13.633,30.716v-1.211
		c1.039-0.173,2.884-0.519,4.094-0.23v1.269C16.517,30.197,14.672,30.485,13.633,30.716z M4.696,26.449v-1.096
		c2.767-1.211,5.073-3.69,8.13-2.941v1.269C9.77,22.816,7.463,25.295,4.696,26.449z M17.727,32.042c-1.21-0.346-3.113,0.058-4.208,0
		l0.057-1.038c1.097,0.058,2.941-0.519,4.151-0.23V32.042z M4.696,28.006V26.91c2.767-1.211,5.073-3.69,8.13-2.94v1.269
		C9.77,24.373,7.463,26.853,4.696,28.006z M12.538,33.83c0.345-0.23,0.576-0.865,0.808-1.326c1.095-0.173,2.825-0.173,4.381,0v1.038
		C15.479,33.311,13.921,33.426,12.538,33.83z M4.696,29.505v-1.096c2.767-1.211,5.073-3.748,8.13-2.941v1.211
		C9.77,25.872,7.463,28.352,4.696,29.505z M4.696,31.062v-1.095c2.767-1.211,5.073-3.691,8.13-2.941v1.269
		C9.77,27.429,7.463,29.909,4.696,31.062z M10.001,31.984c0.749-0.288,1.672-0.346,2.537-0.173c0,0.23-0.058,0.461-0.175,0.634
		c-0.748,0-1.613,0-2.306,0.289L10.001,31.984z M4.696,32.561v-1.096c2.767-1.211,5.073-3.69,8.13-2.941v1.269
		C9.77,28.928,7.463,31.408,4.696,32.561z M4.696,34.118v-1.095c2.767-1.211,5.073-3.749,8.13-2.941v1.211
		C9.77,30.485,7.81,32.331,4.696,34.118z M2.562,40h0.691c0.174,0,0.288-0.115,0.288-0.288V22.816
		c0.404-0.231,0.751-0.692,0.751-1.211c0-0.75-0.635-1.384-1.326-1.384c-0.749,0-1.385,0.634-1.385,1.384
		c0,0.519,0.288,0.923,0.692,1.211v16.896C2.273,39.884,2.388,40,2.562,40z M4.753,34.81c2.076-1.326,3.345-2.249,4.671-2.768
		l0.116,2.019c0,0.403,0.346,0.577,0.691,0.519c2.653-0.347,4.671-0.808,7.554-0.461c0.346,0,0.634-0.231,0.634-0.519V23.046
		c0-0.173-0.115-0.403-0.346-0.403c-1.729-0.346-3.229-0.289-4.44,0.058v-2.076c0-0.231-0.114-0.403-0.287-0.461
		c-2.884-0.807-5.94,1.557-8.881,2.999c-0.115,0.058-0.173,0.173-0.173,0.231L4.177,34.522C4.177,34.81,4.522,34.983,4.753,34.81z"
		/>
</g>
<g>
	<path fill="#333333" d="M32.467,0v2.308h2.95l-1.764,1.764l-1.086-1.085l-1.631,1.631l1.085,1.085l-0.574,0.575V6.276
		c-1.162-0.747-2.546-1.182-4.031-1.182c-4.12,0-7.453,3.334-7.453,7.453S23.296,20,27.416,20c4.119,0,7.452-3.333,7.452-7.452
		c0-1.486-0.434-2.869-1.182-4.031l0,0l0.574-0.575L35.35,9.03l1.631-1.631l-1.088-1.089l1.764-1.764v2.949h2.307V2.308V0H32.467z
		 M27.416,16.833c-2.368,0-4.286-1.917-4.286-4.285c0-2.369,1.918-4.285,4.286-4.285s4.285,1.916,4.285,4.285
		C31.701,14.916,29.784,16.833,27.416,16.833z"/>
</g>
<g>
	<path fill="#F2F2F2" d="M32.485,20v2.308h2.95l-1.764,1.764l-1.086-1.085l-1.631,1.631l1.085,1.085l-0.574,0.575v-0.001
		c-1.162-0.747-2.546-1.182-4.031-1.182c-4.12,0-7.453,3.334-7.453,7.453S23.314,40,27.435,40c4.119,0,7.452-3.333,7.452-7.452
		c0-1.486-0.434-2.869-1.182-4.031l0,0l0.574-0.575l1.089,1.089l1.631-1.631l-1.088-1.089l1.764-1.764v2.949h2.307v-5.188V20H32.485
		z M27.435,36.833c-2.368,0-4.286-1.917-4.286-4.285c0-2.369,1.918-4.285,4.286-4.285s4.285,1.916,4.285,4.285
		C31.72,34.916,29.803,36.833,27.435,36.833z"/>
</g>
</svg>
