<svg xmlns="http://www.w3.org/2000/svg" xmlns:xlink="http://www.w3.org/1999/xlink" viewBox="28 0 25 25"><defs><style>.a{clip-path:url(#b);}.b{fill:#fff;}</style><clipPath id="b"><rect x="28" width="25" height="25"/></clipPath></defs><g id="a" class="a"><path class="b" d="M48.323,33.446H27.281A1.981,1.981,0,0,0,25.3,35.424V48.779a1.981,1.981,0,0,0,1.979,1.979H48.323A1.981,1.981,0,0,0,50.3,48.779V35.424A1.981,1.981,0,0,0,48.323,33.446ZM37.644,44.93a.827.827,0,0,1-.077.068.491.491,0,0,1-.06-.051l-9.292-9.815H47.19ZM33.2,42.848l-6.21,5.333V36.288Zm1.161,1.226,1.94,2.05a1.685,1.685,0,0,0,2.544-.009l2.268-2.328,6.011,5.284H28.541Zm14.256,4.064L42.29,42.577l6.325-6.491Z" transform="translate(2.698 -29.446)"/></g></svg>