<?xml version="1.0" encoding="utf-8"?>
<!-- Generator: Adobe Illustrator 21.0.0, SVG Export Plug-In . SVG Version: 6.00 Build 0)  -->
<svg version="1.1" id="Ebene_1" xmlns="http://www.w3.org/2000/svg" xmlns:xlink="http://www.w3.org/1999/xlink" x="0px" y="0px"
	 viewBox="0 0 20 20" enable-background="new 0 0 20 20" xml:space="preserve">
<path fill="#F2F2F2" d="M12.187,4.545c0.135-0.16,0.456-0.241,0.917-0.241l2.379-0.001V0.205l-0.524-0.068
	C14.692,0.101,13.623,0,12.294,0c-1.44,0-2.656,0.452-3.522,1.308C7.877,2.193,7.406,3.474,7.406,5.012V6.91H4.516v4.481h2.889
	v7.429V20h4.599v-1.179v-7.429h2.836l0.583-4.481h-3.419V5.343C12.005,4.936,12.071,4.683,12.187,4.545z M14.083,8.09l-0.279,2.123
	h-2.978v8.609H8.585v-8.609H5.696V8.09h2.889V5.012c0-1.216,0.347-2.207,1.014-2.865c0.64-0.633,1.582-0.967,2.704-0.967
	c0.789,0,1.471,0.039,2.002,0.077v1.868l-1.207,0.001c-2.248,0-2.272,1.67-2.272,2.218V8.09H14.083z"/>
</svg>
