<?xml version="1.0" encoding="utf-8"?>
<!-- Generator: Adobe Illustrator 21.0.0, SVG Export Plug-In . SVG Version: 6.00 Build 0)  -->
<svg version="1.1" id="Ebene_1" xmlns="http://www.w3.org/2000/svg" xmlns:xlink="http://www.w3.org/1999/xlink" x="0px" y="0px"
	 viewBox="0 0 20 20" enable-background="new 0 0 20 20" xml:space="preserve">
<g>
	<path fill="#F2F2F2" d="M15.166,16.455c-0.148,0.144-0.297,0.278-0.513,0.324c-0.061,0.013-0.09,0.141-0.155,0.176
		c-0.226,0.122-0.465,0.222-0.694,0.34c-0.245,0.127-0.479,0.278-0.728,0.398c-0.17,0.082-0.356,0.131-0.536,0.191
		c-0.02,0.007-0.058-0.004-0.071-0.021c-0.08-0.102-0.134-0.031-0.203,0.018c-0.086,0.061-0.178,0.14-0.276,0.155
		c-0.625,0.096-1.25,0.223-1.879,0.251c-0.808,0.037-1.612-0.061-2.401-0.313c-0.004-0.059-0.007-0.118-0.008-0.134
		c-0.147-0.106-0.263-0.189-0.378-0.272c-0.01,0.015-0.02,0.03-0.03,0.045c0.084,0.08,0.168,0.161,0.286,0.273
		c-0.09,0-0.143,0.013-0.185-0.002c-0.208-0.073-0.416-0.145-0.616-0.236c-0.063-0.028-0.101-0.111-0.17-0.193
		c-0.246,0.104-0.451-0.097-0.671-0.217c-0.905-0.495-1.678-1.151-2.341-1.94c-0.145-0.172-0.145-0.194-0.001-0.329
		c-0.383,0.037-0.426-0.301-0.605-0.502c-0.065,0.016-0.137,0.035-0.22,0.056c0.007,0.208,0.253,0.322,0.248,0.55
		c0.036,0.024,0.114,0.058,0.168,0.115c0.399,0.417,0.792,0.841,1.191,1.258c0.099,0.103,0.203,0.198,0.25,0.338
		c0.003,0.01,0.021,0.018,0.034,0.021c0.446,0.115,0.765,0.451,1.155,0.665c1.296,0.709,2.679,1.075,4.151,1.08
		c1.255,0.004,2.458-0.262,3.602-0.787c0.077-0.035,0.162-0.176,0.274-0.039c0.002,0.003,0.037-0.014,0.05-0.027
		c0.08-0.076,0.158-0.153,0.275-0.203c-0.023,0.101-0.047,0.202-0.066,0.284c0.12,0,0.234,0,0.347,0
		c0.004,0.021,0.007,0.042,0.011,0.063c-0.433,0.288-0.908,0.496-1.4,0.654c-0.496,0.16-1.001,0.304-1.513,0.397
		c-0.512,0.093-1.037,0.15-1.558,0.155c-0.501,0.005-1.009-0.042-1.503-0.127c-0.506-0.088-1.011-0.219-1.495-0.39
		c-0.488-0.173-0.968-0.387-1.419-0.641c-0.454-0.255-0.885-0.56-1.296-0.882c-0.407-0.32-0.837-0.631-1.073-1.121
		c-0.466-0.285-0.654-0.793-0.986-1.213c-0.123,0.031-0.268,0.067-0.425,0.107c-0.042-0.109-0.004-0.292-0.243-0.242
		c0.016,0.087,0.031,0.175,0.047,0.263c-0.264,0.084-0.413-0.037-0.486-0.399c0.271-0.048,0.279-0.072,0.15-0.437
		C1.199,14.048,1.14,14.12,1.05,14.229c-0.089-0.488-0.304-0.911-0.3-1.394c-0.118-0.02-0.16-0.17-0.04-0.299
		c0.049-0.053,0.109-0.096,0.144-0.183c-0.084,0.039-0.168,0.077-0.265,0.122c0.004-0.04-0.002-0.077,0.013-0.1
		c0.027-0.039,0.067-0.068,0.102-0.101c-0.051,0.002-0.101,0.005-0.168,0.008c-0.146-0.547-0.307-1.102-0.435-1.663
		c-0.03-0.133,0.052-0.292,0.082-0.437c-0.036,0.028-0.09,0.069-0.178,0.137c0-0.08-0.015-0.167,0.002-0.174
		c0.219-0.085,0.17-0.244,0.099-0.447c0.132,0,0.239,0,0.347,0c0.002,0.018,0.003,0.036,0.005,0.054
		c-0.022,0.01-0.043,0.026-0.066,0.028C0.369,9.78,0.345,9.767,0.319,9.759C0.311,9.842,0.304,9.912,0.297,9.992
		c0.048,0.003,0.101,0.006,0.154,0.009c0.001,0.014,0.003,0.026,0.002,0.037c-0.01,0.119-0.052,0.246-0.024,0.354
		c0.109,0.417,0.249,0.825,0.361,1.241c0.094,0.35,0.163,0.706,0.245,1.059c0.02,0.088,0.048,0.173,0.076,0.276
		c-0.064,0-0.107,0-0.149,0c0.188,0.087,0.206,0.229,0.231,0.417c0.037,0.271,0.156,0.534,0.256,0.794
		c0.065,0.169,0.26,0.225,0.5,0.161c0.477-0.127,0.953-0.256,1.429-0.385c0.08-0.022,0.158-0.046,0.238-0.069
		c0.015,0.02,0.04,0.058,0.044,0.056c0.075-0.038,0.143-0.095,0.221-0.119c0.215-0.067,0.434-0.122,0.652-0.181
		c0.502-0.135,1.004-0.272,1.508-0.402c0.363-0.094,0.729-0.179,1.094-0.268c0.035,0.112,0.071,0.225,0.108,0.344
		c-0.315,0.091-0.609,0.176-0.938,0.272c0.276,0.271,0.529,0.509,0.828,0.695c0.106,0.066,0.201,0.143,0.066,0.273
		c-0.009,0.009-0.005,0.03-0.008,0.049c0.052-0.025,0.096-0.045,0.129-0.061c0,0.093,0,0.171,0,0.25
		c-0.521-0.3-0.992-0.665-1.399-1.119c-0.067,0.025-0.134,0.05-0.234,0.088c0.08,0.092,0.142,0.163,0.25,0.287
		c-0.108-0.005-0.185,0.014-0.223-0.016c-0.073-0.059-0.124-0.146-0.184-0.22c-0.035-0.044-0.071-0.087-0.074-0.091
		c-0.087,0.06-0.136,0.115-0.195,0.132c-0.497,0.14-0.995,0.272-1.493,0.407c-0.136,0.037-0.271,0.075-0.429,0.119
		c0.083,0.123,0.144,0.222,0.213,0.315c0.697,0.946,1.555,1.71,2.587,2.276c0.112,0.062,0.232,0.112,0.337,0.185
		c0.085,0.06,0.142,0.17,0.232,0.212c0.078,0.037,0.193-0.012,0.28,0.014c0.313,0.095,0.622,0.204,0.929,0.315
		c0.067,0.024,0.143,0.125,0.182,0.109c0.233-0.094,0.419,0.071,0.633,0.096c-0.06,0.036-0.12,0.072-0.18,0.108
		c0.162,0.028,0.325,0.044,0.468-0.001c0.31-0.096,0.6-0.121,0.879,0.078c0.029,0.021,0.078,0.034,0.112,0.026
		c0.2-0.048,0.397-0.111,0.598-0.153c0.168-0.035,0.374-0.116,0.502-0.053c0.179,0.089,0.253,0.004,0.368-0.071
		c0.049-0.032,0.117-0.037,0.178-0.05c1.874-0.42,3.41-1.381,4.599-2.89c0.642-0.815,1.096-1.729,1.387-2.725
		c0.025-0.086,0.086-0.16,0.121-0.222c-0.006-0.071-0.025-0.141-0.015-0.206c0.064-0.418,0.134-0.835,0.203-1.251
		c-0.222-0.029-0.397,0.172-0.584,0.033c0.057-0.099,0.102-0.175,0.146-0.252c-0.017-0.014-0.035-0.029-0.052-0.043
		c-0.117,0.101-0.234,0.202-0.351,0.303c0.013,0.014,0.027,0.028,0.04,0.042c0.024,0,0.048,0,0.073,0
		c0.004,0.018,0.009,0.037,0.013,0.055c-0.128,0.041-0.256,0.082-0.407,0.131c0.038-0.076,0.06-0.123,0.083-0.169
		c0.099-0.192,0.214-0.344,0.456-0.394c0.403-0.084,0.799-0.205,1.195-0.32c0.091-0.027,0.17-0.095,0.253-0.143
		c0.046,0.01,0.113,0.042,0.176,0.035c0.094-0.011,0.187-0.046,0.277-0.078c0.246-0.086,0.329-0.264,0.257-0.519
		c-0.093-0.33-0.171-0.664-0.268-0.993c-0.073-0.247-0.043-0.527-0.268-0.741c0.188,0.001,0.162-0.099,0.146-0.191
		c-0.001-0.008-0.018-0.014-0.032-0.024c-0.022,0.031-0.044,0.061-0.072,0.1c-0.203-0.693-0.354-1.387-0.55-2.076
		c-0.027,0.003-0.078,0.024-0.109,0.008c-0.164-0.09-0.319-0.036-0.48,0.007c-1.368,0.367-2.736,0.732-4.104,1.095
		c-0.047,0.012-0.102-0.01-0.154-0.017c0.018-0.049,0.035-0.098,0.068-0.189c-0.081,0-0.209-0.022-0.219,0.004
		c-0.053,0.128-0.124,0.03-0.184,0.032c0.025-0.021,0.049-0.041,0.098-0.082c-0.347-0.224-0.663-0.46-1.007-0.644
		c-1.88-1.006-4.158-0.746-5.767,0.643C6.108,6.549,5.696,7.079,5.389,7.69C5.351,7.766,5.282,7.826,5.25,7.866
		C5.209,8.034,5.173,8.18,5.132,8.352C5.216,8.333,5.281,8.32,5.344,8.303C6.201,8.075,7.056,7.845,7.913,7.62
		c0.07-0.018,0.149-0.002,0.224-0.002c0,0.018-0.001,0.036-0.001,0.054C8.104,7.7,8.072,7.729,8.023,7.771
		C8.103,7.8,8.159,7.819,8.216,7.839C7.734,7.977,7.253,8.116,6.769,8.247C6.744,8.254,6.702,8.203,6.668,8.179
		c-0.004-0.003-0.01-0.004,0.034,0.014C6.617,8.247,6.571,8.284,6.519,8.308C6.3,8.407,5.996,8.333,5.862,8.624
		c0.006-0.037,0.011-0.074,0.02-0.132C5.769,8.52,5.664,8.547,5.559,8.573c-0.194,0.048-0.391,0.143-0.58,0.128
		C4.836,8.689,4.765,8.714,4.71,8.803C4.658,8.79,4.611,8.762,4.579,8.774C4.502,8.802,4.436,8.865,4.358,8.887
		C3.843,9.031,3.324,9.165,2.809,9.312C2.735,9.334,2.675,9.408,2.637,9.436c-0.266-0.094-0.481,0.086-0.72,0.106
		C1.91,9.656,1.904,9.749,1.899,9.835c0.093-0.058,0.152-0.114,0.222-0.134c0.19-0.055,0.386-0.09,0.577-0.142
		C3.667,9.294,4.634,9.025,5.602,8.76c0.23-0.063,0.463-0.115,0.7-0.173C6.337,8.72,6.246,8.883,6.457,8.936
		C6.429,8.803,6.404,8.685,6.373,8.54c0.226-0.041,0.443-0.081,0.659-0.12C7.026,8.405,7.003,8.354,6.979,8.297
		c0.139,0.037,0.266,0.07,0.399,0.105C7.376,8.37,7.373,8.319,7.371,8.276c0.079-0.018,0.153-0.032,0.226-0.052
		C8.168,8.072,8.74,7.92,9.311,7.765c0.968-0.262,1.935-0.527,2.904-0.787c0.162-0.044,0.331-0.097,0.493-0.087
		c0.059,0.004,0.107,0.18,0.169,0.292c-0.015-0.163-0.029-0.31-0.041-0.442c0.105,0.007,0.185,0.033,0.254,0.015
		c0.479-0.124,0.954-0.265,1.435-0.384c0.461-0.114,0.913-0.26,1.375-0.375c0.674-0.168,1.341-0.36,2.012-0.539
		c0.263-0.07,0.415,0.025,0.49,0.292c0.085,0.304,0.201,0.602,0.255,0.911c0.047,0.274,0.238,0.531,0.12,0.829
		c-0.005,0.014,0.009,0.041,0.021,0.055c0.179,0.196,0.181,0.208,0.077,0.337c0.061,0.091,0.128,0.165,0.165,0.252
		c0.094,0.216,0.071,0.462,0.178,0.681c0.124,0.253,0.131,0.521-0.013,0.743c-0.075-0.01-0.155-0.043-0.221-0.025
		c-0.501,0.137-0.998,0.29-1.499,0.428c-0.689,0.19-1.381,0.369-2.07,0.56c-0.08,0.022-0.146,0.093-0.214,0.139
		c-0.037-0.016-0.094-0.039-0.186-0.078c0.028,0.116,0.045,0.185,0.065,0.267c0.089-0.037,0.16-0.076,0.236-0.097
		c0.398-0.109,0.796-0.216,1.197-0.315c0.072-0.018,0.154,0.004,0.231,0.008c0,0.015,0.001,0.031,0.001,0.046
		c-0.265,0.111-0.529,0.223-0.816,0.343c-0.061,0.122-0.171,0.264-0.207,0.424c-0.159,0.691-0.422,1.336-0.808,1.928
		c-0.305,0.468-0.645,0.91-1.103,1.245l0.006,0.004c-0.019-0.05-0.038-0.1-0.059-0.157c0.75-0.672,1.292-1.481,1.621-2.431
		c0.098-0.283,0.198-0.565,0.289-0.825c-0.333,0.131-0.333,0.131-0.416,0.471c-0.005,0.02-0.011,0.04-0.017,0.06
		c-0.459,1.452-1.348,2.553-2.688,3.285c-0.642,0.351-1.336,0.539-2.057,0.615c-0.467,0.049-0.94,0.043-1.414-0.052
		c0.051-0.053,0.089-0.094,0.128-0.134c-0.005-0.018-0.011-0.035-0.016-0.053c-0.183,0.191-0.385,0.167-0.588,0.087
		c-0.427-0.169-0.853-0.34-1.279-0.511c0.043-0.096,0.087-0.193,0.13-0.29c0.158,0.071,0.305,0.138,0.453,0.203
		c0.646,0.28,1.318,0.434,2.024,0.44c0.108,0.001,0.215,0.049,0.342,0.079c0.017-0.014,0.058-0.078,0.11-0.088
		c0.447-0.088,0.896-0.166,1.344-0.247c0.005,0.025,0.014,0.073,0.015,0.081c0.142-0.049,0.272-0.093,0.406-0.139
		c-0.03-0.031-0.063-0.067-0.139-0.146c0.119,0.014,0.184,0.021,0.22,0.025c0.049-0.056,0.079-0.111,0.125-0.141
		c0.117-0.077,0.255-0.127,0.361-0.215c0.391-0.324,0.803-0.631,1.149-1c0.323-0.345,0.573-0.76,0.853-1.144
		c0.009-0.012,0.008-0.032,0.009-0.049c0.001-0.063-0.015-0.132,0.003-0.189c0.061-0.197,0.138-0.388,0.199-0.585
		c0.012-0.038-0.017-0.088-0.026-0.128c0.071-0.074,0.162-0.17,0.254-0.265c-0.024-0.024-0.047-0.048-0.071-0.073
		c0.032,0.278-0.378,0.085-0.319,0.392c-0.867,0.232-1.734,0.464-2.55,0.683c-0.117-0.08-0.198-0.135-0.28-0.191
		c-0.01,0.014-0.02,0.028-0.03,0.042c0.031,0.068,0.061,0.136,0.095,0.209c-0.561,0.15-1.104,0.295-1.64,0.438
		c-0.059-0.126-0.109-0.234-0.17-0.362c0.464-0.124,0.916-0.243,1.368-0.365c0.743-0.2,1.485-0.403,2.229-0.6
		c0.067-0.018,0.144-0.002,0.209-0.002c0.267-0.214,0.657-0.165,0.985-0.35c-0.083-0.106-0.155-0.197-0.227-0.289
		c0.003,0.022,0.006,0.045,0.009,0.067c-0.069,0.052-0.131,0.131-0.208,0.153c-0.875,0.242-1.752,0.475-2.629,0.71
		c-0.589,0.158-1.178,0.318-1.748,0.472c-0.025,0.094-0.044,0.163-0.063,0.233c-0.016-0.074-0.032-0.148-0.044-0.208
		c-1.007,0.271-1.982,0.534-2.954,0.795c-0.015-0.053-0.032-0.113-0.049-0.173c-0.011,0.002-0.023,0.004-0.034,0.007
		c0.005,0.084,0.011,0.168,0.014,0.214c-0.079,0.009-0.137,0.007-0.19,0.022c-0.644,0.183-1.286,0.375-1.933,0.552
		c-0.384,0.105-0.774,0.184-1.161,0.278c-0.063,0.015-0.17,0.008-0.123,0.133c-0.09-0.009-0.186-0.043-0.269-0.023
		c-0.448,0.109-0.892,0.234-1.338,0.348c-0.29,0.074-0.41,0-0.486-0.283c-0.291-1.089-0.582-2.178-0.874-3.267
		c-0.088-0.328-0.008-0.469,0.323-0.557C1.268,9.923,1.54,9.851,1.822,9.776c0.009-0.102,0.018-0.2,0.025-0.284
		C1.704,9.556,1.581,9.626,1.45,9.667C1.194,9.747,0.934,9.81,0.672,9.882c-0.03-0.1-0.057-0.188-0.089-0.292
		c0.083-0.025,0.167-0.052,0.251-0.074c0.163-0.042,0.192-0.132,0.151-0.303C0.96,9.105,0.994,8.983,1.004,8.867
		C1.009,8.805,1.021,8.744,1.03,8.683c0.008-0.054,0.016-0.109,0.027-0.18c0.055,0.011,0.108,0.022,0.188,0.038
		c-0.071-0.09-0.126-0.16-0.18-0.229c0.017-0.016,0.034-0.031,0.05-0.047c0.081,0.075,0.163,0.15,0.262,0.241
		C1.393,8.418,1.406,8.354,1.419,8.28c-0.081-0.01-0.147-0.018-0.22-0.027C1.187,8.161,1.157,8.068,1.167,7.979
		c0.014-0.128,0.057-0.252,0.089-0.384c0.074,0,0.133,0,0.235,0c-0.084-0.062-0.134-0.1-0.183-0.136
		c0.162-0.7,0.6-1.661,0.804-1.765C2.034,5.449,2.764,4.44,3.016,4.423C2.988,4.53,2.959,4.643,2.929,4.756
		c0.015,0.004,0.03,0.008,0.044,0.012c0.093-0.112,0.186-0.223,0.285-0.342C3.182,4.383,3.086,4.328,2.99,4.273
		c0.007-0.019,0.013-0.038,0.02-0.057c0.084,0.005,0.168,0.01,0.202,0.012c0.093-0.065,0.152-0.116,0.22-0.152
		c0.052-0.027,0.163-0.032,0.165-0.052c0.018-0.247,0.296-0.259,0.386-0.441c0.06-0.122,0.1-0.221-0.064-0.305
		C4.02,3.185,4.111,3.104,4.202,3.022C4.21,3.028,4.219,3.034,4.228,3.04C4.206,3.08,4.184,3.119,4.15,3.182
		c0.101-0.04,0.24,0.003,0.176-0.186C4.313,2.958,4.394,2.866,4.451,2.83c0.471-0.295,0.947-0.583,1.421-0.873
		c0.721-0.44,1.526-0.652,2.337-0.839C8.475,1.058,8.748,1.031,9.015,0.99c-0.16,0.114-0.314,0.224-0.486,0.348
		C8.582,1.361,8.605,1.38,8.617,1.375c0.287-0.132,0.571-0.269,0.859-0.4C9.523,0.953,9.583,0.952,9.637,0.95
		c0.628-0.019,1.246,0.04,1.869,0.135c0.931,0.142,1.802,0.441,2.629,0.874c0.411,0.215,0.812,0.459,1.184,0.734
		c0.391,0.289,0.765,0.611,1.106,0.958c0.341,0.347,0.64,0.737,0.944,1.119c0.196,0.246,0.185,0.256,0.493,0.176
		c0.146-0.038,0.29-0.085,0.438-0.119c0.278-0.064,0.453,0.041,0.529,0.317c0.227,0.831,0.452,1.663,0.677,2.495
		c0.009,0.032,0.008,0.067,0.014,0.119c-0.047-0.05-0.079-0.085-0.112-0.12c-0.015,0.007-0.031,0.015-0.046,0.022
		c0.041,0.12,0.082,0.24,0.123,0.36c0.016-0.004,0.033-0.008,0.049-0.012c-0.003-0.049-0.006-0.098-0.011-0.167
		c0.021,0.023,0.037,0.033,0.039,0.046c0.041,0.215,0.066,0.433,0.123,0.644c0.059,0.218,0.149,0.428,0.221,0.643
		c0.031,0.091,0.05,0.186,0.074,0.279c0.07,0.268-0.038,0.462-0.301,0.538c-0.146,0.042-0.29,0.093-0.439,0.117
		c-0.167,0.026-0.22,0.1-0.224,0.273c-0.014,0.72-0.141,1.424-0.341,2.129c-0.052-0.012-0.1-0.022-0.169-0.038
		c-0.012,0.072-0.049,0.148-0.029,0.202c0.098,0.259-0.012,0.482-0.104,0.707c-0.399,0.978-0.944,1.869-1.652,2.653
		c-0.33,0.365-0.699,0.696-1.051,1.042c-0.016-0.011-0.032-0.021-0.048-0.032c0.011-0.058,0.022-0.117,0.032-0.175
		c-0.014-0.006-0.029-0.012-0.043-0.018c-0.023,0.062-0.074,0.129-0.064,0.185c0.029,0.169-0.117,0.187-0.203,0.24
		c-0.029,0.018-0.118-0.061-0.181-0.096c0.067-0.104,0.116-0.18,0.165-0.256c-0.012-0.012-0.024-0.025-0.035-0.037
		c-0.12,0.082-0.24,0.163-0.363,0.247c0.072,0.078,0.121,0.132,0.155,0.169c-0.091,0.112-0.164,0.202-0.263,0.323
		c-0.01-0.092-0.014-0.134-0.021-0.199c-0.053,0.041-0.09,0.07-0.151,0.116c-0.009-0.065-0.036-0.127-0.017-0.147
		c0.136-0.147,0.179-0.348,0.36-0.477c1.127-0.803,1.987-1.84,2.615-3.071c0.031-0.061,0.062-0.122,0.093-0.184
		c0.064,0.025,0.127,0.048,0.189,0.072c0.008-0.014,0.016-0.028,0.024-0.042c-0.053-0.043-0.105-0.087-0.165-0.136
		c0.46-1.024,0.733-2.096,0.777-3.231c-0.174-0.007-0.257,0.036-0.271,0.223c-0.159,2.009-0.925,3.752-2.314,5.216
		c-0.103,0.109-0.244,0.182-0.367,0.271c0.047,0.063-0.11,0.244-0.374,0.379c0.057-0.064,0.118-0.124,0.168-0.192
		c0.023-0.031,0.022-0.079,0.033-0.12c-0.029-0.007-0.059-0.024-0.086-0.019C15.177,16.11,15.097,16.312,15.166,16.455z
		 M13.775,3.019c0.413-0.177,0.747-0.017,1.059,0.246c0.125,0.105,0.259,0.198,0.387,0.3c0.548,0.437,1.023,0.945,1.439,1.506
		c0.114,0.154,0.211,0.186,0.378,0.075c-0.439-0.6-0.921-1.154-1.484-1.634c-1.112-0.948-2.379-1.584-3.814-1.883
		c0.034-0.071,0.063-0.132,0.113-0.237c-0.07,0.034-0.105,0.039-0.112,0.056c-0.059,0.146-0.162,0.172-0.299,0.121
		c-0.087-0.032-0.173-0.067-0.262-0.09c-0.097-0.025-0.197-0.05-0.295-0.051c-0.141-0.001-0.284,0.039-0.424,0.03
		C9.163,1.374,7.915,1.592,6.718,2.089C4.333,3.08,2.556,5.043,1.811,7.499c-0.1,0.328-0.182,0.664-0.248,1
		C1.509,8.77,1.491,9.048,1.454,9.348c0.157-0.046,0.284-0.029,0.296-0.215c0.043-0.662,0.202-1.301,0.422-1.924
		c0.265-0.75,0.637-1.444,1.086-2.063C3.525,5.22,3.572,4.988,3.724,4.888c-0.1,0-0.172,0-0.248,0
		C3.587,4.557,3.862,4.66,4.076,4.606c-0.306,0.43-0.602,0.85-0.904,1.266C3.144,5.911,3.07,5.915,3.022,5.942
		C2.916,6.002,2.813,6.067,2.708,6.13c0.011,0.02,0.023,0.039,0.034,0.059C2.821,6.171,2.9,6.154,2.991,6.134
		C2.535,7.116,2.148,8.088,2.08,9.181C2.305,9.12,2.496,9.032,2.69,9.024c0.219-0.009,0.475-0.188,0.628,0.054
		c0.282-0.086,0.541-0.164,0.8-0.243c-0.02-0.016-0.04-0.031-0.059-0.047c0.024-0.052,0.043-0.147,0.073-0.15
		C4.286,8.619,4.31,8.51,4.34,8.394c0.037-0.142,0.066-0.288,0.124-0.421c0.139-0.316,0.27-0.639,0.444-0.935
		c0.865-1.465,2.138-2.382,3.789-2.774C8.775,4.245,8.866,4.291,8.95,4.307c0.001,0.018,0.001,0.037,0.002,0.055
		C6.672,4.89,5.176,6.258,4.461,8.504C4.664,8.526,4.756,8.46,4.784,8.293c0.015-0.087,0.05-0.172,0.082-0.255
		C5.07,7.499,5.36,7.008,5.717,6.557c0.433-0.548,0.66-0.728,1.286-1.022c0.006-0.003,0.01-0.008,0.023-0.018
		C7.01,5.485,6.995,5.451,6.98,5.419c0.6-0.426,1.283-0.632,2.027-0.807C8.938,4.688,8.9,4.73,8.829,4.808
		c0.165-0.013,0.289-0.022,0.423-0.033C9.222,4.699,9.199,4.64,9.175,4.577c0.651-0.088,1.295-0.08,1.935,0.056
		c0.972,0.207,1.82,0.657,2.568,1.306c0.139,0.121,0.165,0.117,0.33-0.005c-0.772-0.718-1.649-1.249-2.684-1.48
		c-0.399-0.089-0.811-0.136-1.22-0.165c-0.31-0.022-0.625,0.019-0.937,0.024C9.104,4.314,9.041,4.28,8.926,4.246
		c0.081-0.033,0.098-0.044,0.117-0.048c1.212-0.205,2.37-0.025,3.475,0.499c0.17,0.081,0.316,0.213,0.499,0.339
		c0.092,0.041,0.232,0.078,0.344,0.157c0.213,0.151,0.413,0.322,0.614,0.49c0.132,0.11,0.232,0.283,0.452,0.205
		c0.018-0.006,0.052,0.033,0.044,0.027c0.1-0.051,0.172-0.103,0.253-0.125c0.562-0.154,1.125-0.302,1.709-0.458
		c-0.038-0.065-0.098-0.127-0.085-0.151c0.087-0.162-0.018-0.121-0.116-0.164c-0.107-0.046-0.224-0.189-0.237-0.3
		c-0.013-0.115,0.03-0.194-0.131-0.22c-0.092-0.015-0.192-0.073-0.26-0.14c-0.544-0.535-1.138-1-1.823-1.342L13.775,3.019z
		 M14.755,9.225c-0.058-0.491-0.114-0.965-0.171-1.454c-0.096,0.029-0.165,0.05-0.233,0.07c0.028,0.217,0.053,0.412,0.078,0.607
		c-0.01,0.003-0.021,0.005-0.031,0.008c-0.08-0.186-0.16-0.372-0.239-0.555c-0.322,0.052-0.32,0.052-0.265,0.341
		c0.02,0.102,0.026,0.206,0.038,0.309c-0.012,0.002-0.025,0.005-0.037,0.007c-0.071-0.181-0.142-0.362-0.214-0.547
		c-0.105,0.031-0.188,0.056-0.285,0.085c0.165,0.384,0.321,0.75,0.479,1.115c0.106,0.245,0.107,0.244,0.362,0.13
		c-0.024-0.226-0.048-0.456-0.072-0.686c0.014-0.002,0.028-0.004,0.042-0.006c0.089,0.213,0.177,0.426,0.27,0.647
		C14.569,9.273,14.647,9.253,14.755,9.225z M6.297,11.49c-0.069-0.266-0.133-0.512-0.197-0.758c0.122,0.188,0.208,0.389,0.307,0.584
		c0.025,0.049,0.09,0.078,0.136,0.116c0.026-0.059,0.078-0.12,0.075-0.178c-0.011-0.225-0.04-0.449-0.062-0.673
		c0.009-0.002,0.018-0.004,0.027-0.005c0.072,0.26,0.145,0.52,0.219,0.785c0.097-0.028,0.168-0.048,0.263-0.076
		C6.941,10.82,6.82,10.366,6.694,9.894C6.558,9.928,6.44,9.957,6.311,9.989c0.024,0.216,0.047,0.42,0.07,0.623
		c-0.097-0.141-0.16-0.297-0.245-0.441c-0.028-0.047-0.111-0.084-0.169-0.084c-0.077,0-0.155,0.041-0.256,0.072
		c0.124,0.465,0.244,0.918,0.369,1.388C6.162,11.525,6.225,11.509,6.297,11.49z M11.049,9.294c-0.052-0.183-0.1-0.352-0.152-0.533
		c-0.108,0.031-0.197,0.057-0.295,0.086c0.128,0.473,0.251,0.926,0.378,1.393c0.11-0.033,0.198-0.06,0.292-0.089
		c-0.033-0.131-0.061-0.243-0.091-0.356c-0.053-0.198-0.054-0.198,0.103-0.237c0.053,0.182,0.106,0.364,0.162,0.555
		c0.108-0.031,0.197-0.057,0.306-0.089c-0.126-0.471-0.248-0.927-0.371-1.39c-0.062,0.014-0.109,0.022-0.154,0.037
		c-0.051,0.016-0.099,0.037-0.147,0.056C11.198,9.252,11.198,9.252,11.049,9.294z M12.482,8.378c0.117,0.436,0.24,0.89,0.365,1.356
		c0.085-0.022,0.148-0.039,0.228-0.06c-0.061-0.246-0.118-0.477-0.175-0.708c0.145,0.157,0.275,0.318,0.379,0.494
		c0.094,0.159,0.188,0.145,0.315,0.048c-0.122-0.454-0.243-0.904-0.363-1.35c-0.083,0-0.152,0-0.239,0
		c0.052,0.21,0.101,0.412,0.151,0.613c-0.016,0.007-0.032,0.014-0.048,0.021c-0.127-0.212-0.254-0.424-0.357-0.596
		C12.679,8.237,12.588,8.302,12.482,8.378z M8.152,10.998c0.086-0.026,0.155-0.047,0.231-0.071c-0.062-0.24-0.119-0.464-0.177-0.688
		c0.146,0.144,0.271,0.297,0.37,0.466c0.094,0.159,0.193,0.164,0.333,0.066c-0.124-0.457-0.246-0.905-0.373-1.372
		C8.451,9.423,8.382,9.442,8.306,9.463C8.36,9.67,8.409,9.858,8.458,10.047c-0.11-0.105-0.207-0.214-0.275-0.34
		C8.086,9.527,7.967,9.5,7.785,9.62C7.904,10.068,8.026,10.524,8.152,10.998z M16.852,8.657c-0.077-0.135-0.138-0.241-0.198-0.348
		c-0.077-0.135-0.142-0.25-0.072-0.433c0.099-0.258-0.135-0.55-0.39-0.522c-0.16,0.018-0.315,0.073-0.483,0.114
		c0.13,0.483,0.252,0.937,0.377,1.401c0.111-0.032,0.198-0.057,0.281-0.081C16.317,8.578,16.273,8.4,16.23,8.222
		c0.016-0.005,0.031-0.01,0.047-0.016c0.093,0.179,0.185,0.358,0.28,0.539C16.658,8.715,16.742,8.69,16.852,8.657z M16.692,7.231
		c0.121,0.453,0.242,0.906,0.362,1.354c0.556-0.049,0.708-0.248,0.602-0.756c-0.011-0.054-0.022-0.108-0.038-0.16
		c-0.172-0.566-0.322-0.646-0.886-0.473C16.726,7.198,16.722,7.205,16.692,7.231z M15.199,7.612
		c0.043,0.157,0.078,0.289,0.114,0.421c0.056,0.205,0.116,0.41,0.163,0.617c0.011,0.047-0.027,0.106-0.042,0.159
		c-0.037-0.036-0.081-0.067-0.11-0.109c-0.022-0.032-0.026-0.077-0.037-0.117c-0.083-0.303-0.166-0.607-0.253-0.927
		c-0.107,0.029-0.194,0.053-0.29,0.079c0.087,0.323,0.165,0.622,0.248,0.919c0.025,0.092,0.048,0.189,0.096,0.269
		c0.097,0.163,0.255,0.171,0.419,0.122c0.162-0.048,0.286-0.16,0.252-0.329c-0.08-0.393-0.191-0.78-0.292-1.182
		C15.362,7.564,15.291,7.585,15.199,7.612z M2.875,12.079c0.016-0.005,0.032-0.011,0.048-0.016
		c-0.093-0.268-0.172-0.543-0.285-0.803c-0.067-0.155-0.218-0.237-0.394-0.185c-0.172,0.051-0.268,0.193-0.239,0.363
		c0.048,0.273,0.11,0.548,0.207,0.807c0.082,0.22,0.251,0.296,0.414,0.252C2.807,12.448,2.878,12.329,2.875,12.079z M3.857,11.837
		c-0.095-0.275-0.177-0.556-0.291-0.823c-0.066-0.155-0.214-0.239-0.392-0.189c-0.187,0.053-0.273,0.214-0.244,0.382
		c0.049,0.28,0.13,0.557,0.23,0.824c0.06,0.159,0.201,0.269,0.394,0.219C3.754,12.197,3.806,12.036,3.857,11.837z M10.401,9.833
		c0.01,0.057,0.026,0.097,0.022,0.136c-0.005,0.062-0.023,0.124-0.036,0.185c-0.05-0.046-0.126-0.082-0.145-0.138
		c-0.067-0.202-0.119-0.409-0.166-0.616c-0.013-0.058,0.007-0.123,0.013-0.185c0.019-0.004,0.039-0.008,0.058-0.011
		c0.051,0.097,0.103,0.195,0.159,0.301c0.089-0.028,0.171-0.054,0.263-0.084c-0.031-0.081-0.05-0.147-0.079-0.207
		c-0.097-0.201-0.251-0.288-0.426-0.247c-0.169,0.04-0.3,0.199-0.275,0.408c0.031,0.256,0.081,0.517,0.17,0.758
		c0.098,0.266,0.335,0.35,0.546,0.243c0.196-0.1,0.25-0.339,0.127-0.606C10.561,9.789,10.485,9.81,10.401,9.833z M11.618,8.569
		c0.128,0.479,0.249,0.934,0.373,1.402c0.243-0.068,0.45-0.127,0.671-0.189c-0.031-0.091-0.053-0.154-0.076-0.223
		c-0.124,0.025-0.235,0.047-0.358,0.072c-0.032-0.111-0.06-0.208-0.092-0.319c0.088-0.031,0.169-0.06,0.261-0.093
		c-0.019-0.083-0.037-0.161-0.055-0.237c-0.091,0.024-0.174,0.047-0.268,0.072c-0.032-0.114-0.06-0.211-0.089-0.317
		c0.124-0.04,0.239-0.077,0.358-0.116c-0.017-0.078-0.032-0.143-0.056-0.25C12.07,8.435,11.86,8.497,11.618,8.569z M9.567,9.562
		C9.472,9.279,9.323,9.17,9.117,9.217C8.85,9.278,8.723,9.592,8.904,9.82c0.109,0.137,0.296,0.209,0.437,0.322
		c0.063,0.051,0.108,0.129,0.147,0.202c0.007,0.014-0.053,0.064-0.083,0.097c-0.054-0.053-0.107-0.106-0.161-0.159
		c-0.005-0.005-0.011-0.007-0.03-0.019c-0.066,0.019-0.141,0.042-0.22,0.066c0.051,0.195,0.14,0.324,0.332,0.343
		c0.181,0.018,0.331-0.053,0.413-0.213c0.085-0.166,0.033-0.336-0.09-0.455c-0.11-0.106-0.264-0.166-0.388-0.26
		C9.192,9.69,9.141,9.61,9.089,9.538C9.084,9.531,9.14,9.465,9.147,9.469C9.217,9.505,9.284,9.55,9.382,9.613
		C9.412,9.605,9.483,9.585,9.567,9.562z M18.176,7.695c0.1-0.041,0.179-0.073,0.26-0.106c-0.029-0.081-0.051-0.143-0.075-0.21
		c-0.088,0.018-0.16,0.033-0.25,0.051c-0.03-0.106-0.059-0.207-0.09-0.315c0.124-0.039,0.233-0.073,0.355-0.112
		c-0.027-0.087-0.048-0.156-0.071-0.233c-0.24,0.068-0.461,0.131-0.654,0.186c0.132,0.48,0.256,0.93,0.383,1.393
		c0.23-0.064,0.442-0.124,0.667-0.187c-0.03-0.092-0.05-0.156-0.073-0.225c-0.123,0.027-0.234,0.051-0.362,0.078
		C18.235,7.906,18.208,7.809,18.176,7.695z M7.627,9.89C7.617,9.677,7.602,9.646,7.491,9.672C7.306,9.716,7.125,9.774,6.928,9.829
		c0.128,0.471,0.251,0.923,0.379,1.393c0.232-0.062,0.44-0.118,0.661-0.178c-0.028-0.09-0.049-0.157-0.072-0.23
		c-0.13,0.029-0.241,0.054-0.365,0.082c-0.03-0.119-0.055-0.223-0.082-0.33c0.095-0.034,0.171-0.062,0.256-0.093
		c-0.02-0.076-0.039-0.146-0.06-0.224c-0.092,0.02-0.17,0.036-0.264,0.057C7.35,10.2,7.323,10.105,7.291,9.994
		C7.407,9.958,7.51,9.926,7.627,9.89z M1.455,11.654c0.077,0.287,0.148,0.551,0.223,0.827c-0.175,0.049-0.165,0.15-0.084,0.283
		c0.195-0.054,0.383-0.106,0.567-0.157c0.023-0.166-0.019-0.249-0.19-0.195c-0.109-0.4-0.214-0.785-0.326-1.197
		c-0.154,0.108-0.284,0.199-0.429,0.3C1.254,11.596,1.265,11.74,1.455,11.654z M4.448,11.233c-0.07-0.199-0.104-0.363-0.185-0.5
		c-0.04-0.068-0.176-0.132-0.247-0.113c-0.071,0.018-0.161,0.141-0.161,0.219c0,0.152,0.046,0.308,0.093,0.456
		c0.042,0.133,0.142,0.248,0.289,0.186C4.326,11.443,4.379,11.318,4.448,11.233z M4.788,11.201c0.052,0.154,0.085,0.319,0.163,0.459
		c0.04,0.071,0.181,0.152,0.239,0.13c0.08-0.03,0.174-0.154,0.174-0.237c0-0.159-0.051-0.322-0.104-0.476
		c-0.04-0.115-0.131-0.202-0.27-0.171C4.84,10.941,4.807,11.057,4.788,11.201z M4.407,11.952c0.021,0.016,0.042,0.033,0.063,0.049
		c0.041-0.064,0.104-0.123,0.118-0.192c0.048-0.242,0.078-0.487,0.117-0.731c0.035-0.219,0.071-0.437,0.107-0.655
		c-0.027-0.009-0.055-0.019-0.082-0.028c-0.036,0.079-0.091,0.156-0.106,0.239C4.546,11.072,4.479,11.512,4.407,11.952z
		 M16.861,4.672c0.02,0.005,0.04,0.009,0.06,0.014c0.029-0.096,0.059-0.192,0.098-0.32c-0.1,0.016-0.181,0.029-0.267,0.043
		C16.795,4.512,16.828,4.592,16.861,4.672z M15.315,7.286c-0.196,0.011-0.265,0.073-0.149,0.244c0.067-0.019,0.13-0.036,0.205-0.057
		C15.349,7.402,15.333,7.346,15.315,7.286z M15.017,7.57c-0.032-0.228-0.037-0.231-0.256-0.122c0.018,0.054,0.036,0.109,0.057,0.173
		C14.891,7.602,14.955,7.586,15.017,7.57z"/>
	<path fill="#F2F2F2" d="M3.266,3.965C3.468,3.748,3.604,3.429,3.98,3.43c-0.125,0.084-0.12,0.294-0.354,0.293
		C3.507,3.724,3.386,3.88,3.266,3.965z"/>
	<path fill="#F2F2F2" d="M10.116,12.146c0.048,0.112,0.096,0.223,0.158,0.369c-0.985,0.239-1.945,0.54-2.901,0.771
		c-0.091-0.115-0.167-0.212-0.243-0.308c0.152-0.052,0.304-0.105,0.469-0.162c0.029,0.11,0.049,0.185,0.069,0.261
		c0.009,0,0.018-0.001,0.027-0.001c0-0.086,0-0.171,0-0.272c0.123,0.011,0.251-0.188,0.351-0.013
		c0.094-0.054,0.19-0.135,0.299-0.166C8.933,12.458,9.526,12.304,10.116,12.146z"/>
	<path fill="#F2F2F2" d="M13.779,3.017c-0.299-0.155-0.599-0.31-0.891-0.461c0.011-0.007,0.036-0.023,0.061-0.039
		c-0.438,0.009-0.805-0.14-1.111-0.453c-0.002,0.027-0.003,0.055-0.005,0.082c-0.097,0.013-0.198,0.052-0.29,0.036
		c-2.445-0.435-4.646,0.1-6.595,1.649c-0.19,0.151-0.4,0.277-0.585,0.434C4.295,4.322,4.275,4.436,4.242,4.506
		C4.118,4.439,4.024,4.389,3.94,4.344c0.17-0.176,0.343-0.381,0.546-0.551c0.066-0.055,0.209-0.019,0.327-0.024
		C4.78,3.713,4.745,3.654,4.709,3.593c2.665-2.209,6.443-2.482,9.339-0.822c-0.092,0.083-0.182,0.165-0.273,0.247
		C13.775,3.019,13.779,3.017,13.779,3.017z"/>
	<path fill="#F2F2F2" d="M7.753,2.67c0.417-0.127,0.417-0.127,0.574,0.236c0.032,0.073,0.065,0.145,0.13,0.212
		c0-0.201,0-0.402,0-0.611c0.147-0.032,0.279-0.061,0.43-0.094C8.983,2.853,9.076,3.28,9.174,3.731
		c-0.099,0.022-0.189,0.042-0.3,0.066C8.816,3.543,8.76,3.3,8.704,3.057C8.693,3.058,8.681,3.059,8.67,3.061
		c0,0.256,0,0.512,0,0.767C8.541,3.897,8.464,3.895,8.409,3.75c-0.077-0.204-0.176-0.399-0.3-0.59
		c0.052,0.252,0.105,0.505,0.16,0.77C8.187,3.947,8.124,3.96,8.044,3.977C7.946,3.536,7.851,3.109,7.753,2.67z"/>
	<path fill="#F2F2F2" d="M9.408,2.376c0.163,0,0.293,0,0.44,0c0.038,0.207,0.076,0.412,0.114,0.617
		c0.012,0.002,0.024,0.003,0.037,0.005c0.045-0.197,0.09-0.393,0.139-0.606c0.135,0,0.275,0,0.412,0c0,0.447,0,0.89,0,1.341
		c-0.111,0-0.198,0-0.303,0c0-0.257,0-0.506,0-0.756c-0.012-0.002-0.024-0.003-0.036-0.005c-0.064,0.249-0.128,0.497-0.193,0.75
		c-0.063,0-0.115,0-0.182,0c-0.051-0.257-0.102-0.51-0.152-0.762c-0.014,0-0.028,0-0.043,0.001c0,0.242,0,0.484,0,0.74
		c-0.097,0.006-0.161,0.01-0.234,0.014C9.408,3.266,9.408,2.83,9.408,2.376z"/>
	<path fill="#F2F2F2" d="M12.461,3.433c0.065-0.183,0.129-0.363,0.195-0.551c0.085,0.032,0.16,0.059,0.241,0.089
		c-0.15,0.43-0.295,0.844-0.44,1.257c-0.207,0-0.282-0.094-0.277-0.292c0.004-0.169-0.029-0.338-0.078-0.516
		c-0.073,0.202-0.145,0.405-0.225,0.627c-0.08-0.029-0.153-0.055-0.239-0.085c0.151-0.432,0.296-0.845,0.444-1.27
		C12.553,2.773,12.275,3.201,12.461,3.433z"/>
	<path fill="#F2F2F2" d="M4.64,4.602C4.726,4.527,4.798,4.465,4.88,4.393c0.209,0.229,0.412,0.453,0.616,0.676
		c0.066,0.072,0.137,0.157,0.242,0.07C5.856,5.041,5.77,4.956,5.701,4.878c-0.197-0.221-0.395-0.441-0.619-0.69
		C5.144,4.139,5.207,4.09,5.291,4.024c0.225,0.254,0.463,0.5,0.673,0.768c0.146,0.186,0.09,0.415-0.1,0.564
		C5.663,5.513,5.472,5.507,5.295,5.321C5.077,5.091,4.869,4.853,4.64,4.602z"/>
	<path fill="#F2F2F2" d="M7.931,4.032C7.826,4.08,7.741,4.12,7.649,4.163C7.59,4.089,7.535,4.021,7.474,3.945
		C7.39,3.984,7.311,4.022,7.227,4.061c0.017,0.094,0.033,0.179,0.049,0.27C7.202,4.368,7.135,4.4,7.055,4.439
		c-0.103-0.45-0.203-0.89-0.307-1.345C6.869,3.036,6.985,2.98,7.114,2.917C7.381,3.282,7.648,3.646,7.931,4.032z M7.168,3.825
		c0.07-0.034,0.116-0.056,0.177-0.086C7.252,3.609,7.168,3.492,7.084,3.375C7.073,3.381,7.063,3.386,7.052,3.392
		C7.088,3.527,7.125,3.662,7.168,3.825z"/>
	<path fill="#F2F2F2" d="M11.746,2.594c-0.014,0.089-0.024,0.155-0.038,0.247C11.624,2.826,11.554,2.81,11.482,2.8
		c-0.073-0.011-0.147-0.017-0.231-0.026c-0.016,0.084-0.03,0.155-0.046,0.237c0.099,0.026,0.189,0.05,0.292,0.078
		c-0.011,0.08-0.021,0.152-0.034,0.245c-0.104-0.013-0.196-0.024-0.305-0.037c-0.019,0.084-0.038,0.168-0.058,0.261
		c0.158,0.034,0.297,0.064,0.449,0.097c-0.014,0.086-0.027,0.164-0.044,0.27c-0.258-0.049-0.504-0.095-0.771-0.146
		c0.078-0.42,0.152-0.829,0.236-1.236c0.007-0.034,0.09-0.08,0.13-0.074C11.308,2.5,11.515,2.548,11.746,2.594z"/>
	<path fill="#F2F2F2" d="M6.085,4.688c0.053-0.077,0.099-0.144,0.144-0.211c0.004,0.015,0.009,0.029,0.013,0.044
		C6.346,4.509,6.452,4.503,6.553,4.48C6.568,4.476,6.577,4.362,6.571,4.36c-0.1-0.027-0.204-0.063-0.305-0.06
		c-0.186,0.006-0.36,0.003-0.478-0.169C5.673,3.964,5.692,3.744,5.833,3.603c0.153-0.153,0.355-0.159,0.564-0.007
		c-0.04,0.061-0.08,0.122-0.106,0.162c-0.11,0.016-0.197,0.025-0.282,0.046c-0.011,0.003-0.013,0.1-0.008,0.101
		c0.089,0.02,0.181,0.046,0.271,0.042c0.345-0.015,0.516,0.072,0.574,0.305c0.048,0.194-0.02,0.369-0.188,0.485
		C6.484,4.857,6.327,4.847,6.085,4.688z"/>
	<path fill="#F2F2F2" d="M5.445,5.724c-0.18,0.219-0.346,0.42-0.536,0.649C4.618,6.08,4.559,5.674,4.336,5.331
		C4.255,5.426,4.178,5.515,4.091,5.616C4.028,5.569,3.97,5.525,3.898,5.47c0.167-0.204,0.326-0.399,0.504-0.616
		C4.706,5.134,4.748,5.55,4.973,5.89c0.093-0.107,0.184-0.213,0.278-0.322C5.314,5.618,5.373,5.666,5.445,5.724z"/>
	<path fill="#F2F2F2" d="M8.208,7.845c-0.027-0.095,0.225-0.19-0.042-0.29c0.663-0.179,1.288-0.349,1.914-0.517
		c1.028-0.276,2.057-0.552,3.086-0.827c0.046-0.012,0.094-0.018,0.141-0.027c0,0.028-0.01,0.075,0.001,0.081
		c0.078,0.043,0.16,0.077,0.241,0.114c-0.001,0.024-0.003,0.049-0.004,0.073c-0.244,0.039-0.492,0.06-0.73,0.121
		c-0.254,0.065-0.496,0.179-0.749,0.249c-1.191,0.325-2.383,0.642-3.576,0.961C8.396,7.808,8.302,7.825,8.208,7.845z"/>
	<path fill="#F2F2F2" d="M15.273,13.356c0.09-0.122,0.17-0.231,0.258-0.35c0.368,0.27,0.726,0.533,1.091,0.801
		c-0.065,0.089-0.121,0.165-0.185,0.252c-0.209-0.152-0.412-0.298-0.614-0.445c-0.008,0.009-0.017,0.017-0.025,0.026
		c0.167,0.195,0.334,0.389,0.508,0.592c-0.036,0.051-0.07,0.099-0.109,0.154c-0.248-0.112-0.489-0.221-0.73-0.33
		c-0.006,0.01-0.012,0.02-0.018,0.03c0.205,0.153,0.411,0.305,0.626,0.465c-0.049,0.067-0.092,0.126-0.141,0.192
		c-0.365-0.267-0.72-0.527-1.09-0.797c0.086-0.119,0.168-0.234,0.255-0.355c0.199,0.091,0.389,0.178,0.579,0.265
		c0.006-0.009,0.012-0.018,0.018-0.028C15.559,13.677,15.423,13.525,15.273,13.356z"/>
	<path fill="#F2F2F2" d="M8.737,16.085c0.208-0.045,0.294,0.032,0.332,0.204c0.033,0.15,0.096,0.293,0.181,0.434
		c0.029-0.181,0.058-0.363,0.089-0.55c0.075,0,0.147,0,0.252,0c-0.067,0.454-0.132,0.891-0.198,1.338
		C9.206,17.533,9.1,17.479,9.07,17.277c-0.025-0.167-0.089-0.329-0.174-0.496c-0.037,0.213-0.073,0.426-0.111,0.648
		c-0.086-0.011-0.158-0.02-0.246-0.032C8.606,16.95,8.672,16.518,8.737,16.085z"/>
	<path fill="#F2F2F2" d="M11.201,17.478c-0.101,0.014-0.187,0.026-0.296,0.042c-0.073-0.194-0.146-0.389-0.219-0.583
		c-0.029,0.008-0.057,0.016-0.086,0.024c0.01,0.18,0.019,0.36,0.03,0.561c-0.089,0.014-0.187,0.029-0.301,0.046
		c-0.038-0.453-0.074-0.891-0.112-1.349c0.174-0.016,0.342-0.042,0.511-0.045c0.161-0.003,0.301,0.061,0.367,0.218
		c0.062,0.149,0.044,0.291-0.07,0.421c-0.032,0.037-0.036,0.123-0.018,0.175C11.061,17.149,11.131,17.305,11.201,17.478z
		 M10.58,16.427c0,0.108,0,0.205,0,0.309c0.137-0.003,0.247-0.026,0.238-0.172C10.809,16.418,10.701,16.409,10.58,16.427z"/>
	<path fill="#F2F2F2" d="M7.465,16.171c-0.087-0.043-0.16-0.079-0.227-0.112c-0.008-0.02-0.016-0.033-0.018-0.046
		c-0.01-0.086-0.018-0.172-0.027-0.259c-0.078,0.055-0.177,0.095-0.228,0.169c-0.085,0.123-0.153,0.262-0.2,0.404
		c-0.022,0.068,0.021,0.158,0.034,0.238c0.075-0.019,0.15-0.038,0.266-0.068c-0.081-0.076-0.118-0.112-0.159-0.151
		c0.03-0.057,0.058-0.111,0.092-0.173c0.07,0.03,0.133,0.055,0.194,0.084c0.062,0.029,0.121,0.062,0.192,0.099
		c-0.098,0.203-0.193,0.4-0.309,0.639c-0.061-0.077-0.104-0.131-0.151-0.191c-0.37,0.026-0.591-0.231-0.465-0.596
		c0.068-0.197,0.18-0.388,0.31-0.552c0.154-0.194,0.433-0.217,0.616-0.091C7.566,15.691,7.597,15.889,7.465,16.171z"/>
	<path fill="#F2F2F2" d="M5.711,15.117c-0.066-0.069-0.123-0.129-0.181-0.19c0-0.012-0.003-0.026,0-0.037
		c0.024-0.083,0.049-0.166,0.074-0.249c-0.096,0.023-0.209,0.022-0.285,0.074c-0.123,0.085-0.234,0.195-0.324,0.314
		c-0.043,0.056-0.026,0.158-0.036,0.239c0.073,0.006,0.146,0.012,0.181,0.015c0.03-0.136,0.05-0.229,0.076-0.346
		c0.138,0.134,0.234,0.227,0.324,0.315c-0.147,0.155-0.3,0.317-0.479,0.506c-0.032-0.084-0.054-0.144-0.083-0.219
		c-0.398-0.107-0.456-0.504-0.171-0.803c0.126-0.132,0.273-0.254,0.432-0.343c0.224-0.125,0.48-0.054,0.606,0.133
		C5.969,14.707,5.924,14.913,5.711,15.117z"/>
	<path fill="#F2F2F2" d="M15.61,12.85c0.048-0.102,0.088-0.187,0.135-0.285c0.28,0.13,0.551,0.258,0.824,0.383
		c0.095,0.044,0.213,0.102,0.251-0.044c0.014-0.056-0.066-0.171-0.132-0.206c-0.266-0.141-0.542-0.262-0.824-0.395
		c0.042-0.085,0.077-0.157,0.115-0.236c0.296,0.14,0.584,0.269,0.866,0.411c0.238,0.12,0.304,0.335,0.191,0.571
		c-0.115,0.24-0.312,0.318-0.562,0.206C16.186,13.127,15.904,12.988,15.61,12.85z"/>
	<path fill="#F2F2F2" d="M12.394,17.208c-0.112,0.029-0.198,0.052-0.299,0.078c-0.04-0.076-0.081-0.152-0.133-0.25
		c-0.086,0.023-0.174,0.047-0.268,0.072c0,0.096,0,0.177,0,0.27c-0.076,0.022-0.146,0.042-0.256,0.073c0-0.473,0-0.927,0-1.396
		c0.097-0.025,0.215-0.057,0.359-0.094C11.991,16.368,12.188,16.778,12.394,17.208z M11.697,16.42
		c-0.017,0.002-0.035,0.004-0.052,0.007c0.014,0.143,0.029,0.285,0.045,0.444c0.072-0.03,0.119-0.049,0.175-0.072
		C11.805,16.664,11.751,16.542,11.697,16.42z"/>
	<path fill="#F2F2F2" d="M5.38,15.954c0.266-0.378,0.519-0.738,0.78-1.11c0.211,0.149,0.417,0.294,0.637,0.449
		c-0.047,0.073-0.09,0.139-0.139,0.214c-0.127-0.087-0.246-0.168-0.382-0.261c-0.049,0.067-0.095,0.131-0.151,0.208
		c0.083,0.063,0.157,0.12,0.246,0.188c-0.045,0.067-0.089,0.132-0.143,0.212c-0.086-0.054-0.165-0.103-0.26-0.162
		c-0.052,0.068-0.101,0.132-0.163,0.213c0.125,0.092,0.245,0.18,0.374,0.275c-0.05,0.074-0.098,0.146-0.156,0.231
		C5.811,16.259,5.605,16.113,5.38,15.954z"/>
	<path fill="#F2F2F2" d="M7.927,16.65c-0.03,0.096-0.054,0.171-0.083,0.262c0.149,0.047,0.285,0.09,0.441,0.139
		c-0.03,0.093-0.058,0.179-0.087,0.269c-0.25-0.079-0.485-0.153-0.745-0.235c0.133-0.435,0.264-0.864,0.396-1.298
		c0.252,0.079,0.487,0.153,0.742,0.233c-0.021,0.077-0.04,0.147-0.064,0.238c-0.149-0.039-0.291-0.076-0.445-0.116
		c-0.027,0.083-0.05,0.153-0.077,0.236c0.096,0.035,0.184,0.067,0.291,0.106c-0.024,0.081-0.048,0.161-0.075,0.249
		C8.119,16.704,8.035,16.681,7.927,16.65z"/>
	<path fill="#F2F2F2" d="M14.829,15.383c0.035-0.079,0.07-0.158,0.106-0.24c0.029,0.006,0.048,0.016,0.066,0.014
		c0.081-0.012,0.164-0.021,0.24-0.049c0.016-0.006,0.014-0.121,0.006-0.123c-0.079-0.019-0.162-0.03-0.243-0.03
		c-0.047,0-0.093,0.023-0.14,0.034c-0.229,0.053-0.398-0.01-0.503-0.182c-0.098-0.162-0.075-0.318,0.032-0.462
		c0.119-0.16,0.287-0.192,0.528-0.104c-0.01,0.036-0.018,0.074-0.031,0.11c-0.014,0.038-0.034,0.074-0.05,0.107
		c-0.019,0.007-0.031,0.012-0.043,0.016c-0.071,0.022-0.144,0.041-0.213,0.069c-0.007,0.003,0.004,0.087,0.013,0.088
		c0.076,0.009,0.153,0.009,0.229,0.008c0.027,0,0.054-0.012,0.08-0.019c0.273-0.079,0.451-0.031,0.567,0.154
		c0.109,0.174,0.09,0.374-0.05,0.534C15.274,15.474,15.092,15.5,14.829,15.383z"/>
	<path fill="#F2F2F2" d="M13.422,16.385c0.058-0.081,0.106-0.147,0.156-0.217c0.021,0.005,0.039,0.011,0.057,0.013
		c0.082,0.008,0.165,0.024,0.244,0.014c0.019-0.002,0.028-0.09,0.042-0.139c-0.081-0.021-0.162-0.06-0.244-0.06
		c-0.174,0.001-0.347,0.015-0.484-0.121c-0.154-0.153-0.163-0.401-0.023-0.561c0.159-0.181,0.361-0.193,0.592-0.028
		c-0.046,0.067-0.091,0.133-0.139,0.204c-0.022-0.008-0.04-0.02-0.057-0.02c-0.063-0.001-0.128-0.006-0.187,0.009
		c-0.017,0.004-0.035,0.097-0.026,0.102c0.055,0.031,0.116,0.059,0.179,0.068c0.052,0.008,0.109-0.013,0.164-0.016
		c0.237-0.015,0.398,0.068,0.477,0.248c0.081,0.184,0.047,0.35-0.095,0.492c-0.147,0.147-0.348,0.175-0.551,0.078
		C13.498,16.436,13.471,16.415,13.422,16.385z"/>
	<path fill="#F2F2F2" d="M12.442,16.826c0.08-0.078,0.138-0.136,0.198-0.194c0.059,0.039,0.11,0.102,0.156,0.098
		c0.07-0.006,0.135-0.058,0.203-0.09c-0.045-0.049-0.081-0.12-0.136-0.142c-0.081-0.032-0.175-0.028-0.264-0.041
		c-0.212-0.03-0.345-0.142-0.374-0.324c-0.03-0.186,0.019-0.341,0.193-0.439c0.189-0.107,0.331-0.082,0.525,0.101
		c-0.054,0.058-0.108,0.117-0.163,0.175c-0.027-0.011-0.045-0.024-0.064-0.025c-0.069-0.001-0.138-0.002-0.206,0.007
		c-0.009,0.001-0.025,0.08-0.015,0.086c0.054,0.034,0.113,0.067,0.175,0.081c0.08,0.017,0.165,0.007,0.246,0.023
		c0.183,0.036,0.316,0.132,0.353,0.327c0.035,0.186-0.013,0.343-0.173,0.451c-0.161,0.109-0.333,0.124-0.504,0.023
		C12.546,16.918,12.508,16.879,12.442,16.826z"/>
	<path fill="#F2F2F2" d="M16.999,12.253c-0.012-0.09-0.021-0.164-0.032-0.249c0.055-0.026,0.134-0.041,0.17-0.088
		c0.038-0.05,0.035-0.131,0.049-0.199c-0.065,0-0.146-0.025-0.192,0.005c-0.085,0.055-0.145,0.146-0.223,0.214
		c-0.157,0.137-0.333,0.157-0.495,0.054c-0.163-0.103-0.226-0.257-0.19-0.444c0.037-0.187,0.16-0.281,0.395-0.309
		c0.016,0.071,0.031,0.143,0.048,0.219c-0.018,0.013-0.036,0.021-0.049,0.035c-0.049,0.051-0.101,0.101-0.141,0.158
		c-0.005,0.008,0.057,0.085,0.069,0.08c0.065-0.026,0.126-0.065,0.185-0.104c0.022-0.015,0.036-0.041,0.055-0.061
		c0.189-0.207,0.371-0.264,0.565-0.176c0.186,0.084,0.273,0.257,0.242,0.476C17.422,12.092,17.302,12.199,16.999,12.253z"/>
	<path fill="#F2F2F2" d="M13.81,14.43c-0.123,0.08-0.244,0.161-0.368,0.238c-0.034,0.021-0.101,0.017-0.111,0.041
		c-0.132,0.336-0.471,0.395-0.736,0.542c-0.439,0.244-0.915,0.397-1.435,0.451c0.068-0.053,0.129-0.135,0.205-0.155
		c0.853-0.225,1.617-0.619,2.299-1.187c0.051,0.025,0.101,0.05,0.152,0.075L13.81,14.43z"/>
	<path fill="#F2F2F2" d="M14.848,15.786c-0.086,0.07-0.159,0.13-0.245,0.2c-0.281-0.351-0.558-0.698-0.846-1.058
		c0.079-0.064,0.156-0.127,0.246-0.201C14.288,15.084,14.56,15.425,14.848,15.786z"/>
	<path fill="#F2F2F2" d="M9.954,15.709c-0.232,0.204-0.758,0.198-0.834,0.055c-0.509,0.015-0.943-0.173-1.379-0.34
		c-0.049-0.019-0.073-0.1-0.134-0.189c0.445,0.129,0.827,0.261,1.219,0.346C9.195,15.66,9.562,15.788,9.954,15.709z"/>
	<path fill="#F2F2F2" d="M7.094,15.086c-0.33-0.224-0.663-0.444-0.989-0.673c-0.094-0.066-0.17-0.156-0.263-0.243
		c0.04-0.044,0.071-0.077,0.086-0.094c0.405,0.311,0.802,0.616,1.213,0.931c-0.004,0.006-0.027,0.045-0.05,0.084
		C7.09,15.09,7.094,15.086,7.094,15.086z"/>
	<path fill="#F2F2F2" d="M10.148,15.715c0.193-0.015,0.376-0.03,0.622-0.049c-0.079,0.083-0.117,0.16-0.165,0.167
		C10.447,15.854,10.261,15.941,10.148,15.715z"/>
	<path fill="#F2F2F2" d="M7.09,15.09c0.138-0.073,0.271-0.061,0.389,0.04c0.038,0.033,0.056,0.089,0.102,0.165
		c-0.221-0.01-0.364-0.086-0.487-0.209L7.09,15.09z"/>
	<path fill="#F2F2F2" d="M16.147,7.948c-0.026-0.108-0.052-0.217-0.077-0.325c0.02-0.015,0.04-0.029,0.06-0.044
		c0.052,0.059,0.129,0.11,0.149,0.178c0.017,0.06-0.029,0.139-0.048,0.21C16.203,7.96,16.175,7.954,16.147,7.948z"/>
	<path fill="#F2F2F2" d="M17.022,7.374c0.269,0.051,0.255,0.27,0.3,0.437c0.042,0.154,0.161,0.328-0.04,0.53
		C17.188,7.991,17.105,7.683,17.022,7.374z"/>
	<path fill="#F2F2F2" d="M2.371,11.285c0.088,0.321,0.177,0.643,0.265,0.964c-0.203-0.101-0.39-0.759-0.331-0.949
		C2.327,11.295,2.349,11.29,2.371,11.285z"/>
	<path fill="#F2F2F2" d="M3.252,10.994c0.157,0.356,0.253,0.676,0.293,1.043C3.368,11.914,3.176,11.252,3.252,10.994z"/>
	<path fill="#F2F2F2" d="M4.093,10.766c0.051,0.181,0.101,0.361,0.152,0.542c-0.023,0.007-0.047,0.013-0.07,0.02
		c-0.055-0.179-0.11-0.358-0.165-0.537C4.037,10.782,4.065,10.774,4.093,10.766z"/>
	<path fill="#F2F2F2" d="M5.06,11.068c0.05,0.184,0.1,0.368,0.149,0.552c-0.025,0.007-0.049,0.014-0.074,0.021
		c-0.054-0.184-0.108-0.367-0.161-0.551C5.002,11.084,5.031,11.076,5.06,11.068z"/>
</g>
</svg>
