<?xml version="1.0" encoding="utf-8"?>
<!-- Generator: Adobe Illustrator 21.0.0, SVG Export Plug-In . SVG Version: 6.00 Build 0)  -->
<svg version="1.1" id="Ebene_1" xmlns="http://www.w3.org/2000/svg" xmlns:xlink="http://www.w3.org/1999/xlink" x="0px" y="0px"
	 viewBox="0 0 20 20" enable-background="new 0 0 20 20" xml:space="preserve">
<g>
	<path d="M8.32,10.111l0.151,0.335c0.002,0.004,0.005,0.006,0.008,0.009c0.001,0.002,0.001,0.004,0.002,0.005l0.285,0.298
		c0.002,0.002,0.004,0.001,0.006,0.003s0.002,0.004,0.004,0.006l0.399,0.243c0.002,0.001,0.005,0.001,0.007,0.002
		c0.001,0.001,0.002,0.002,0.003,0.003l0.496,0.17c0.002,0.001,0.004,0.001,0.007,0.001c0.001,0,0.001,0.001,0.002,0.001
		l0.546,0.092c0.003,0.001,0.006,0.001,0.009,0.001l0,0c0,0,0,0,0,0l0.564-0.005c0,0,0,0,0,0c0.003,0,0.005,0,0.008-0.001
		l0.546-0.087c0.001,0,0.001-0.001,0.002-0.001c0.003,0,0.005,0,0.007-0.001l0.491-0.174c0.002,0,0.002-0.002,0.003-0.003
		c0.002-0.001,0.004,0,0.007-0.002l0.399-0.243c0.002-0.001,0.002-0.004,0.004-0.006c0.002-0.001,0.005-0.001,0.007-0.003
		l0.285-0.303c0.002-0.002,0.001-0.004,0.002-0.006c0.003-0.003,0.006-0.005,0.008-0.009l0.142-0.335c0.002-0.004,0-0.007,0-0.01
		c0.001-0.004,0.004-0.006,0.004-0.01V9.053V8.704c0-0.004-0.004-0.007-0.004-0.01c-0.001-0.004,0.001-0.008,0-0.011L12.57,8.347
		c-0.001-0.003-0.005-0.004-0.007-0.006c-0.002-0.003-0.001-0.006-0.003-0.008l-0.285-0.298c-0.002-0.002-0.004-0.001-0.007-0.003
		c-0.002-0.001-0.002-0.004-0.004-0.006l-0.399-0.243c-0.002-0.001-0.004,0-0.005-0.001c-0.002-0.001-0.002-0.003-0.004-0.004
		l-0.491-0.174c-0.002-0.001-0.003,0.001-0.005,0s-0.003-0.002-0.004-0.003l-0.551-0.092c-0.002,0-0.003,0.001-0.004,0.001
		c-0.001,0-0.003-0.002-0.004-0.002h-0.565c-0.002,0-0.003,0.002-0.004,0.002c-0.002,0-0.003-0.001-0.005-0.001L9.676,7.606
		c-0.002,0-0.002,0.002-0.004,0.003s-0.003-0.001-0.004,0L9.177,7.782C9.175,7.783,9.174,7.785,9.172,7.786
		c-0.002,0.001-0.004,0-0.005,0.001L8.768,8.03C8.765,8.032,8.765,8.035,8.763,8.036C8.761,8.038,8.758,8.037,8.756,8.039
		l-0.28,0.303C8.474,8.345,8.475,8.348,8.473,8.35C8.471,8.353,8.468,8.354,8.467,8.357L8.32,8.692c-0.001,0.004,0,0.007,0,0.011
		c-0.001,0.004-0.004,0.006-0.004,0.01v0.349v0.679v0.349c0,0.004,0.003,0.007,0.004,0.01C8.32,10.104,8.318,10.108,8.32,10.111z
		 M8.559,8.407l0.269-0.291l0.388-0.236l0.482-0.171l0.537-0.095h0.556l0.542,0.09l0.481,0.171l0.389,0.237l0.273,0.287l0.143,0.317
		v0.327l-0.134,0.317L12.213,9.65l-0.389,0.237l-0.482,0.171l-0.538,0.086l-0.556,0.004l-0.538-0.09L9.226,9.89L8.837,9.654
		L8.563,9.362L8.42,9.05V8.724L8.559,8.407z"/>
	<path d="M0.27,13.722l10.52,5.545c0.031,0.016,0.064,0.024,0.098,0.024c0.043,0,0.085-0.013,0.121-0.039l9.06-6.435
		c0.055-0.039,0.088-0.103,0.088-0.171V6.468c0-0.078-0.043-0.149-0.112-0.185L9.531,0.734c-0.07-0.037-0.155-0.031-0.219,0.014
		L0.246,7.183C0.191,7.222,0.158,7.286,0.158,7.354v6.183C0.158,13.614,0.201,13.686,0.27,13.722z M4.443,4.931L4.98,4.845
		l0.551-0.004l0.538,0.086l0.486,0.171l0.393,0.237l0.27,0.291l0.143,0.312v0.326L7.222,6.581L6.953,6.872L6.564,7.109L6.083,7.28
		L5.545,7.366L4.989,7.37L4.447,7.285L3.971,7.114L3.577,6.877l-0.27-0.291L3.165,6.273V5.947L3.299,5.63l0.274-0.291l0.389-0.237
		L4.443,4.931z M3.064,5.915c-0.001,0.004,0.001,0.007,0,0.01C3.063,5.93,3.06,5.932,3.06,5.936v0.349v0.679v0.349
		c0,0.004,0.003,0.007,0.004,0.01c0.001,0.004-0.001,0.008,0,0.011l0.151,0.335c0.002,0.004,0.005,0.005,0.008,0.009
		c0.001,0.002,0.001,0.004,0.002,0.006l0.28,0.298C3.508,7.984,3.51,7.983,3.512,7.985C3.514,7.986,3.514,7.99,3.517,7.991
		l0.404,0.243c0.002,0.001,0.004,0.001,0.007,0.002C3.929,8.237,3.929,8.238,3.93,8.239l0.486,0.174
		c0.003,0.001,0.005,0.001,0.007,0.001c0.001,0,0.001,0.001,0.002,0.001l0.551,0.092c0.003,0,0.006,0.001,0.009,0.001l0,0H5.55l0,0
		c0.003,0,0.006,0,0.009-0.001l0.546-0.092c0.001,0,0.001-0.001,0.002-0.001c0.003,0,0.005,0,0.007-0.001l0.491-0.179
		c0.001,0,0.002-0.002,0.003-0.003c0.002-0.001,0.004,0,0.006-0.002l0.399-0.243C7.016,7.985,7.016,7.982,7.018,7.98
		C7.02,7.978,7.023,7.979,7.025,7.977l0.28-0.303C7.306,7.673,7.306,7.67,7.307,7.669C7.309,7.665,7.313,7.664,7.314,7.66
		l0.147-0.335c0.001-0.004,0-0.007,0-0.011c0.001-0.004,0.004-0.006,0.004-0.01V6.276V5.927c0-0.004-0.004-0.007-0.004-0.011
		c-0.001-0.004,0.001-0.008,0-0.011l-0.151-0.33C7.308,5.572,7.305,5.571,7.303,5.569C7.302,5.566,7.302,5.563,7.3,5.561L7.02,5.258
		C7.018,5.256,7.015,5.256,7.013,5.255C7.011,5.253,7.011,5.25,7.009,5.249L6.605,5.005c-0.002-0.001-0.004,0-0.005-0.001
		S6.597,5.001,6.595,5.001L6.1,4.826c-0.002,0-0.003,0.001-0.005,0c-0.002,0-0.003-0.002-0.004-0.003L5.544,4.737
		c-0.002,0-0.003,0.001-0.004,0.001S5.537,4.736,5.536,4.736c0,0,0,0,0,0L4.975,4.74c-0.001,0-0.002,0.001-0.004,0.002
		c-0.001,0-0.003-0.001-0.004-0.001L4.421,4.828c-0.002,0-0.003,0.002-0.004,0.003c-0.002,0-0.003-0.001-0.005,0L4.157,4.921
		l3.575-2.538L7.594,2.697c-0.002,0.004,0,0.008,0,0.011C7.593,2.712,7.59,2.715,7.59,2.719l0.004,0.344L7.59,3.746c0,0,0,0,0,0
		s0,0,0,0l0.004,0.349c0,0.004,0.003,0.006,0.004,0.01c0.001,0.004-0.001,0.007,0,0.011l0.147,0.33
		C7.748,4.45,7.751,4.452,7.753,4.455C7.755,4.457,7.754,4.46,7.756,4.461L8.04,4.764c0.002,0.002,0.005,0.001,0.007,0.003
		c0.002,0.002,0.002,0.005,0.004,0.006l0.399,0.243c0.002,0.001,0.004,0.001,0.007,0.002C8.459,5.019,8.459,5.02,8.461,5.021
		l0.496,0.174c0.003,0.001,0.005,0.001,0.007,0.001c0.001,0,0.001,0.001,0.002,0.001l0.546,0.087c0.003,0,0.005,0.001,0.008,0.001
		l0,0c0,0,0,0,0,0l0.565-0.004l0,0c0.003,0,0.005,0,0.008-0.001l0.546-0.087c0.001,0,0.001-0.001,0.002-0.001
		c0.003,0,0.005,0,0.008-0.001l0.486-0.174c0.001,0,0.002-0.002,0.003-0.003c0.002-0.001,0.004-0.001,0.007-0.002l0.404-0.243
		c0.003-0.001,0.003-0.005,0.005-0.006c0.002-0.002,0.005-0.001,0.007-0.003l0.28-0.303c0.002-0.002,0.001-0.004,0.002-0.006
		c0.003-0.003,0.006-0.005,0.007-0.009l0.143-0.335c0.001-0.004-0.001-0.007,0-0.01c0.001-0.004,0.004-0.006,0.004-0.01V3.058V2.709
		c0-0.004-0.003-0.006-0.004-0.01c-0.001-0.004,0.001-0.007,0-0.011l-0.103-0.236L15.389,4.3l-0.05-0.009
		c-0.002,0-0.003,0.001-0.004,0.001s-0.003-0.002-0.004-0.002h-0.569c-0.002,0-0.003,0.002-0.004,0.002s-0.003-0.001-0.004-0.001
		l-0.546,0.092c-0.002,0-0.003,0.002-0.004,0.003c-0.002,0-0.003-0.001-0.005,0L13.711,4.56c-0.002,0.001-0.003,0.003-0.004,0.004
		c-0.002,0.001-0.004,0-0.006,0.001l-0.399,0.248c-0.002,0.001-0.002,0.004-0.004,0.006c-0.002,0.001-0.004,0.001-0.006,0.003
		l-0.284,0.298c-0.002,0.003-0.002,0.006-0.003,0.009c-0.002,0.003-0.005,0.004-0.007,0.007L12.854,5.47
		c-0.002,0.004,0,0.007,0,0.011c-0.001,0.004-0.004,0.006-0.004,0.01v0.349v0.684v0.344c0,0.004,0.004,0.006,0.004,0.01
		c0.001,0.004-0.001,0.007,0,0.011l0.147,0.335c0.002,0.004,0.005,0.006,0.008,0.009c0.001,0.002,0.001,0.004,0.002,0.006
		l0.285,0.298c0.002,0.002,0.004,0.001,0.006,0.003c0.002,0.002,0.002,0.004,0.004,0.006l0.404,0.248
		c0.002,0.001,0.005,0.001,0.007,0.002c0.002,0.001,0.002,0.002,0.003,0.003l0.491,0.17c0.002,0.001,0.004,0.001,0.007,0.001
		c0.001,0,0.001,0.001,0.002,0.001l0.546,0.087c0.003,0,0.005,0.001,0.008,0.001l0,0h0.569l0,0c0.003,0,0.006,0,0.009-0.001
		l0.546-0.092c0.001,0,0.001-0.001,0.002-0.001c0.003,0,0.004,0,0.007-0.001l0.491-0.17c0.002-0.001,0.002-0.003,0.004-0.003
		c0.003-0.001,0.005-0.001,0.008-0.002l0.395-0.252c0.002-0.001,0.002-0.004,0.004-0.005c0.002-0.001,0.004-0.001,0.006-0.003
		l0.285-0.294c0.002-0.002,0.001-0.004,0.003-0.006c0.003-0.003,0.006-0.005,0.008-0.009l0.147-0.335c0.002-0.004,0-0.007,0-0.011
		c0.001-0.004,0.004-0.006,0.004-0.01V5.831c0,0,0,0,0,0l0,0l-0.004-0.344c0-0.004-0.003-0.006-0.004-0.01
		c-0.001-0.004,0.001-0.007,0-0.01l-0.104-0.237l2.557,1.35l-8.821,6.268l-0.055-0.029c0.019-0.017,0.026-0.045,0.011-0.067
		c-0.016-0.024-0.049-0.031-0.073-0.014l-0.028,0.018c-0.004,0.003-0.005,0.008-0.008,0.012L0.624,7.43l2.573-1.826L3.064,5.915z
		 M11.752,2.403l0.139,0.317v0.327l-0.134,0.312l-0.269,0.291l-0.393,0.241l-0.477,0.171L10.08,4.148H9.524L8.986,4.063L8.5,3.896
		L8.112,3.66L7.839,3.368L7.7,3.051L7.695,2.729l0.139-0.316l0.269-0.291l0.388-0.237l0.481-0.175l0.538-0.086h0.56l0.354,0.057
		l1.283,0.677L11.752,2.403z M10.084,1.519c-0.002,0-0.003,0.001-0.004,0.001c-0.001,0-0.002-0.002-0.004-0.002H9.506
		c-0.001,0-0.003,0.001-0.004,0.002c-0.001,0-0.003-0.001-0.004-0.001L8.951,1.606c-0.002,0-0.003,0.002-0.004,0.003
		s-0.003-0.001-0.005,0L8.698,1.697l0.751-0.533l0.687,0.363L10.084,1.519z M17.012,5.18l0.139,0.317l0.004,0.322l-0.138,0.316
		l-0.274,0.287l-0.385,0.242l-0.48,0.171l-0.538,0.09h-0.56l-0.538-0.086l-0.481-0.166l-0.393-0.241l-0.273-0.286l-0.139-0.317
		V5.501l0.134-0.316l0.273-0.287l0.389-0.241l0.477-0.171l0.537-0.09h0.56l0.359,0.06l1.281,0.676L17.012,5.18z M10.835,12.939
		v5.877L0.578,13.41V7.524L10.835,12.939z"/>
</g>
</svg>
