<?xml version="1.0" encoding="utf-8"?>
<!-- Generator: Adobe Illustrator 16.0.3, SVG Export Plug-In . SVG Version: 6.00 Build 0)  -->
<!DOCTYPE svg PUBLIC "-//W3C//DTD SVG 1.1//EN" "http://www.w3.org/Graphics/SVG/1.1/DTD/svg11.dtd">
<svg version="1.1" id="Ebene_1" xmlns="http://www.w3.org/2000/svg" xmlns:xlink="http://www.w3.org/1999/xlink" x="0px" y="0px"
	 width="20px" height="20px" viewBox="0 0 20 20" enable-background="new 0 0 20 20" xml:space="preserve">
<g>
	<g>
		<path fill="#F2F2F2" d="M2.822,0.54c0.016,0,0.031,0,0.045,0.001c0.525,0.024,0.932,0.47,0.908,0.994l0.416,9.023
			c-0.043,0.938-0.818,1.669-1.746,1.669c-0.027,0-0.055,0-0.084-0.002c-0.482-0.022-0.91-0.238-1.213-0.568
			c-0.301-0.331-0.477-0.777-0.453-1.261l1.178-8.949C1.896,0.937,2.318,0.54,2.822,0.54"/>
	</g>
	<g>
		<path fill="#F2F2F2" d="M2.322,13.064c-0.477-0.021-0.926-0.174-1.314-0.433c-0.727,0.556-1.131,1.484-0.975,2.451
			c0.385,2.365,3.113,3.936,4.414,4.378c0,0-0.365-1.74,0.363-4.364c0.266-0.961-0.223-1.891-0.951-2.448
			c-0.408,0.266-0.893,0.42-1.414,0.42C2.404,13.067,2.363,13.066,2.322,13.064z"/>
	</g>
	<g>
		<path fill="none" d="M11.053,12.564C10.049,12.998,9.52,14,9.865,14.802s1.439,1.1,2.443,0.666
			c1.002-0.435,1.535-1.436,1.188-2.237S12.055,12.13,11.053,12.564z"/>
		<circle fill="none" cx="12.564" cy="4.731" r="1.218"/>
		<path fill="none" d="M8.756,4.886C7.85,4.466,6.813,4.779,6.439,5.585C6.063,6.392,6.494,7.387,7.4,7.807
			c0.902,0.422,1.941,0.107,2.316-0.699C10.09,6.301,9.66,5.306,8.756,4.886z"/>
		<path fill="none" d="M17.859,6.193c-0.32-0.811-1.127-1.254-1.805-0.987c-0.676,0.268-0.965,1.142-0.643,1.956
			c0.318,0.813,1.129,1.256,1.803,0.989C17.893,7.881,18.182,7.007,17.859,6.193z"/>
		<path fill="#F2F2F2" d="M12.51,2.438C9.604,2.473,6.736,3.473,4.594,5.125l0.125,2.709c0.494,0.111,0.889,0.437,1.008,0.895
			c0.16,0.613-0.23,1.263-0.895,1.563l0.014,0.302L4.844,10.62c-0.018,0.396-0.135,0.765-0.326,1.082l0.115,0.088
			c0.164,0.126,0.316,0.263,0.455,0.408c0.957-0.899,2.412-0.505,2.203,1.285c-0.922,7.875,6.553,4.43,10.383,0.884
			C22.715,9.697,18.91,2.363,12.51,2.438z M7.4,7.808C6.494,7.387,6.063,6.393,6.439,5.586c0.373-0.807,1.41-1.12,2.316-0.7
			c0.904,0.42,1.334,1.415,0.961,2.222C9.342,7.915,8.303,8.23,7.4,7.808z M12.309,15.468c-1.004,0.434-2.098,0.136-2.443-0.666
			s0.184-1.805,1.186-2.238s2.096-0.136,2.445,0.667C13.844,14.033,13.311,15.034,12.309,15.468z M12.564,5.949
			c-0.672,0-1.217-0.545-1.217-1.218c0-0.672,0.545-1.218,1.217-1.218c0.674,0,1.217,0.546,1.217,1.218
			C13.781,5.404,13.238,5.949,12.564,5.949z M17.215,8.151c-0.674,0.268-1.484-0.177-1.803-0.989
			c-0.322-0.813-0.033-1.688,0.643-1.955c0.678-0.268,1.484,0.176,1.805,0.987C18.182,7.007,17.893,7.881,17.215,8.151z"/>
	</g>
</g>
</svg>
