<?xml version="1.0" encoding="utf-8"?>
<!-- Generator: Adobe Illustrator 16.0.3, SVG Export Plug-In . SVG Version: 6.00 Build 0)  -->
<!DOCTYPE svg PUBLIC "-//W3C//DTD SVG 1.1//EN" "http://www.w3.org/Graphics/SVG/1.1/DTD/svg11.dtd">
<svg version="1.1" id="Ebene_1" xmlns="http://www.w3.org/2000/svg" xmlns:xlink="http://www.w3.org/1999/xlink" x="0px" y="0px"
	 width="20px" height="20px" viewBox="0 0 20 20" enable-background="new 0 0 20 20" xml:space="preserve">
<g id="Neues_Symbol_11">
</g>
<g id="Neues_Symbol_5">
</g>
<g>
	<path fill="#F2F2F2" d="M20,38c0,1.1-0.9,2-2,2H2c-1.1,0-2-0.9-2-2V22c0-1.1,0.9-2,2-2h16c1.1,0,2,0.9,2,2V38z"/>
</g>
<path fill="#F2F2F2" d="M37.08,37.079c-3.894,3.894-10.267,3.894-14.16,0s-3.894-10.266,0-14.159s10.267-3.894,14.16,0
	S40.974,33.186,37.08,37.079z"/>
<g>
	<path fill="#333333" d="M20,18c0,1.1-0.9,2-2,2H2c-1.1,0-2-0.9-2-2V2c0-1.1,0.9-2,2-2h16c1.1,0,2,0.9,2,2V18z"/>
</g>
<path fill="#333333" d="M37.08,17.079c-3.894,3.894-10.267,3.894-14.16,0s-3.894-10.266,0-14.159s10.267-3.894,14.16,0
	S40.974,13.186,37.08,17.079z"/>
</svg>
