<?xml version="1.0" encoding="utf-8"?>
<!-- Generator: Adobe Illustrator 21.0.0, SVG Export Plug-In . SVG Version: 6.00 Build 0)  -->
<svg version="1.1" id="Ebene_1" xmlns="http://www.w3.org/2000/svg" xmlns:xlink="http://www.w3.org/1999/xlink" x="0px" y="0px"
	 viewBox="0 0 20 20" enable-background="new 0 0 20 20" xml:space="preserve">
<g>
	<g>
		<path fill="#F2F2F2" d="M18.363,2.853h-2.229v0.192v0.21c0,0.088-0.01,0.175-0.027,0.258c-0.119,0.568-0.624,0.996-1.226,0.996
			h-0.303c-0.603,0-1.107-0.428-1.226-0.996c-0.018-0.083-0.027-0.17-0.027-0.258v-0.21V2.853H8.056v0.192v0.21
			c0,0.088-0.01,0.175-0.027,0.258C7.909,4.081,7.405,4.509,6.802,4.509H6.499c-0.603,0-1.107-0.428-1.226-0.996
			C5.255,3.43,5.246,3.344,5.246,3.255v-0.21V2.853H4.512c-0.903,0-1.637,0.734-1.637,1.637v0.641L0.049,15.243
			c-0.106,0.379-0.038,0.765,0.186,1.06c0.247,0.326,0.658,0.513,1.128,0.513h1.513v0.673c0,0.903,0.734,1.637,1.637,1.637h13.85
			c0.903,0,1.637-0.734,1.637-1.637V4.491C20,3.588,19.266,2.853,18.363,2.853z M1.362,15.88c-0.172,0-0.315-0.053-0.382-0.142
			c-0.047-0.062-0.057-0.144-0.03-0.242l2.606-9.322h14.74l-2.535,9.07c-0.093,0.333-0.55,0.637-0.959,0.637H1.362z M19.064,17.489
			c0,0.387-0.315,0.702-0.702,0.702H4.513c-0.387,0-0.702-0.315-0.702-0.702v-0.673h10.99c0.836,0,1.653-0.58,1.86-1.32L19.064,6.9
			L19.064,17.489L19.064,17.489z"/>
		<path fill="#F2F2F2" d="M6.499,0.874c-0.394,0-0.715,0.321-0.715,0.715v1.666c0,0.394,0.321,0.715,0.715,0.715h0.303
			c0.394,0,0.715-0.321,0.715-0.715V1.589c0-0.394-0.321-0.715-0.715-0.715C6.802,0.874,6.499,0.874,6.499,0.874z"/>
		<path fill="#F2F2F2" d="M14.88,0.874h-0.303c-0.394,0-0.715,0.321-0.715,0.715v1.666c0,0.394,0.321,0.715,0.715,0.715h0.303
			c0.394,0,0.715-0.321,0.715-0.715V1.589C15.595,1.195,15.274,0.874,14.88,0.874z"/>
	</g>
</g>
</svg>
