<?xml version="1.0" encoding="utf-8"?>
<!-- Generator: Adobe Illustrator 16.0.3, SVG Export Plug-In . SVG Version: 6.00 Build 0)  -->
<!DOCTYPE svg PUBLIC "-//W3C//DTD SVG 1.1//EN" "http://www.w3.org/Graphics/SVG/1.1/DTD/svg11.dtd">
<svg version="1.1" id="Ebene_1" xmlns="http://www.w3.org/2000/svg" xmlns:xlink="http://www.w3.org/1999/xlink" x="0px" y="0px"
	 width="20px" height="20px" viewBox="0 0 20 20" enable-background="new 0 0 20 20" xml:space="preserve">
<g>
	<g>
		<g>
			<path fill="#333333" d="M-0.266,15.268l-4.977-7.145c-0.193-0.271-0.736-0.678-1.316-0.678h-6.893
				c-0.543,0-1.104,0.407-1.298,0.678l-4.976,7.145c-0.174,0.252-0.271,0.542-0.271,0.832c0,0.832,0.716,1.646,1.567,1.646
				c0.136,0,0.271-0.02,0.407-0.039l3.176-0.891v2.768h9.699v-2.768l3.175,0.891c0.136,0.02,0.252,0.039,0.388,0.039
				c0.852,0,1.588-0.814,1.588-1.646C0.005,15.81-0.093,15.52-0.266,15.268z M-7.311,13.293c-0.556,0.277-1.006,0.757-0.946,1.631
				c0.046,0.673,0.514,1.017,0.946,1.25l-5.379,0.019c0.756-0.336,0.902-0.768,0.976-1.274c0.128-0.887-0.641-1.582-0.976-1.624
				v-3.046h5.379C-7.311,10.248-7.292,13.284-7.311,13.293z"/>
		</g>
	</g>
</g>
<g>
	<g>
		<g>
			<path fill="#333333" d="M2.792,7.444c0.59,0,1.069,0.479,1.069,1.068S3.382,9.581,2.792,9.581c-0.589,0-1.067-0.479-1.067-1.068
				S2.203,7.444,2.792,7.444z"/>
		</g>
	</g>
	<path fill="#333333" d="M9.874,1.497c0.776,0,1.406,0.63,1.406,1.406s-0.63,1.404-1.406,1.404C9.1,4.308,8.47,3.68,8.47,2.903
		S9.1,1.497,9.874,1.497z"/>
	<g>
		<path fill="#333333" d="M2.134,6.039l0.218,0.347c0.502-0.316,1.17-0.165,1.486,0.338l0.347-0.22
			C3.747,5.812,2.827,5.603,2.134,6.039z"/>
	</g>
	<g>
		<path fill="#333333" d="M3.119,4.388l0.134,0.387c0.562-0.195,1.178,0.103,1.372,0.663l0.387-0.135
			C4.742,4.528,3.893,4.118,3.119,4.388z"/>
	</g>
	<g>
		<path fill="#333333" d="M4.45,3l0.044,0.407c0.591-0.064,1.124,0.364,1.188,0.954L6.09,4.316C6.001,3.503,5.266,2.911,4.45,3z"/>
	</g>
	<g>
		<path fill="#333333" d="M6.012,2.354c0.59,0.071,1.013,0.608,0.942,1.198L7.36,3.6c0.097-0.814-0.486-1.556-1.3-1.652L6.012,2.354
			z"/>
	</g>
	<g>
		<path fill="#333333" d="M12.54,1.829c0.349,0.481,0.239,1.156-0.241,1.504l0.24,0.332c0.664-0.48,0.813-1.411,0.333-2.076
			L12.54,1.829z"/>
	</g>
	<g>
		<path fill="#333333" d="M14.206,2.626c0.23,0.548-0.027,1.18-0.573,1.411l0.159,0.378c0.754-0.318,1.109-1.192,0.792-1.947
			L14.206,2.626z"/>
	</g>
	<g>
		<path fill="#333333" d="M15.649,3.777c0.102,0.586-0.291,1.145-0.877,1.246l0.07,0.404c0.808-0.141,1.352-0.913,1.211-1.72
			L15.649,3.777z"/>
	</g>
	<g>
		<path fill="#333333" d="M15.662,6.241L15.641,6.65c0.818,0.044,1.521-0.585,1.565-1.403l-0.409-0.023
			C16.765,5.817,16.256,6.274,15.662,6.241z"/>
	</g>
	<path fill="#333333" d="M16.753,9.715c-0.594,0-1.076-0.478-1.076-1.067c0-0.589,0.482-1.066,1.076-1.066s1.076,0.478,1.076,1.066
		C17.829,9.237,17.347,9.715,16.753,9.715z"/>
	<path fill="#333333" d="M17.889,11.539l0.403,0.001l0.823,2.875c0.063,0.222,0.31,0.343,0.551,0.273
		c0.241-0.068,0.394-0.279,0.312-0.556l-0.847-2.95c-0.338-1.18-1.325-1.143-1.325-1.143h-2.104c0,0-0.987-0.037-1.326,1.143
		l-0.848,2.95c-0.08,0.276,0.072,0.487,0.313,0.556c0.24,0.069,0.487-0.053,0.55-0.273l0.824-2.875l0.402-0.001l-1.101,3.837h4.474
		L17.889,11.539z"/>
	<path fill="#333333" d="M4.225,11.617h0.391c0,0,0,2.684,0,2.983c0,0.259,0.209,0.469,0.466,0.469c0.259,0,0.463-0.21,0.463-0.469
		c0-0.258,0-2.925,0-3.309c0-0.756-0.619-1.367-1.374-1.367c-0.087,0-0.264,0-0.483,0H1.889c-0.211,0-0.378,0-0.46,0
		C0.674,9.925,0,10.536,0,11.292c0,0.385,0,3.051,0,3.309c0,0.259,0.202,0.469,0.461,0.469c0.258,0,0.468-0.21,0.468-0.469
		c0-0.3,0-2.983,0-2.983h0.387v3.759h2.909V11.617z"/>
	<path fill="#333333" d="M12.02,6.622h-0.355v11.089c0,0.438-0.354,0.792-0.793,0.792c-0.438,0-0.793-0.354-0.793-0.792v-6.868
		H9.672v6.868c0,0.438-0.356,0.792-0.795,0.792c-0.438,0-0.792-0.354-0.792-0.792V6.622H7.729l-0.001,4.089
		c0,0.334-0.271,0.604-0.605,0.604s-0.604-0.271-0.604-0.604V6.19c0-0.996,0.712-1.561,1.688-1.561h3.338
		c0.975,0,1.688,0.564,1.688,1.561v4.521c0,0.334-0.271,0.604-0.604,0.604s-0.605-0.271-0.605-0.604L12.02,6.622z"/>
</g>
<g>
	<g>
		<path fill="#333333" d="M20.058,14.18l1.289-3.12c0.172,0.089,0.277,0.11,0.538,0.189c0.201,0.059,1.076,0.274,3.108,0.274
			c0.58,0,1.066-0.019,1.473-0.045v2.334c0,0.627-0.508,1.135-1.134,1.135h-2.571c-0.487,0-0.9-0.311-1.061-0.743l-0.23,0.559
			c-0.161,0.39-0.607,0.575-0.998,0.414C20.083,15.017,19.896,14.569,20.058,14.18z"/>
	</g>
</g>
</svg>
