<?xml version="1.0" encoding="utf-8"?>
<!-- Generator: Adobe Illustrator 16.0.3, SVG Export Plug-In . SVG Version: 6.00 Build 0)  -->
<!DOCTYPE svg PUBLIC "-//W3C//DTD SVG 1.1//EN" "http://www.w3.org/Graphics/SVG/1.1/DTD/svg11.dtd">
<svg version="1.1" id="Ebene_1" xmlns="http://www.w3.org/2000/svg" xmlns:xlink="http://www.w3.org/1999/xlink" x="0px" y="0px"
	 width="20px" height="20.001px" viewBox="0 0 20 20.001" enable-background="new 0 0 20 20.001" xml:space="preserve">
<g>
	<g>
		<path fill="#333333" d="M-10,0c-5.523,0-10,4.477-10,10c0,5.522,4.477,9.999,10,9.999c5.522,0,10-4.477,10-9.999
			C0,4.477-4.478,0-10,0z M-10,18.333c-4.603,0-8.334-3.731-8.334-8.333c0-4.603,3.731-8.334,8.334-8.334
			c4.602,0,8.333,3.731,8.333,8.334C-1.667,14.602-5.398,18.333-10,18.333z"/>
	</g>
</g>
<g>
	<g>
		<path fill="#F2F2F2" d="M-10,20.001c-5.523,0-10,4.477-10,10C-20,35.523-15.523,40-10,40c5.522,0,10-4.477,10-9.999
			C0,24.478-4.478,20.001-10,20.001z M-10,38.334c-4.603,0-8.334-3.731-8.334-8.333c0-4.603,3.731-8.334,8.334-8.334
			c4.602,0,8.333,3.731,8.333,8.334C-1.667,34.603-5.398,38.334-10,38.334z"/>
	</g>
</g>
</svg>
