<?xml version="1.0" encoding="utf-8"?>
<!-- Generator: Adobe Illustrator 16.0.3, SVG Export Plug-In . SVG Version: 6.00 Build 0)  -->
<!DOCTYPE svg PUBLIC "-//W3C//DTD SVG 1.1//EN" "http://www.w3.org/Graphics/SVG/1.1/DTD/svg11.dtd">
<svg version="1.1" xmlns="http://www.w3.org/2000/svg" xmlns:xlink="http://www.w3.org/1999/xlink" x="0px" y="0px" width="20px"
	 height="20px" viewBox="0 0 20 20" enable-background="new 0 0 20 20" xml:space="preserve">
<g id="Ebene_1">
</g>
<g id="Ebene_4">
	<g id="Your_Icon">
		<g>
			<path fill="#333333" d="M-0.268,2.048c-0.165-0.098-0.371-0.1-0.539-0.006c-3.563,1.979-7.94,3.012-13.774,3.249
				c-0.292,0.012-0.521,0.251-0.521,0.542v5.624c0,0.291,0.229,0.53,0.521,0.542c5.834,0.236,10.211,1.269,13.774,3.249
				c0.082,0.045,0.173,0.068,0.264,0.068c0.096,0,0.19-0.025,0.275-0.075C-0.103,15.144,0,14.966,0,14.773V2.516
				C0,2.324-0.102,2.146-0.268,2.048z"/>
		</g>
	</g>
	<g id="Your_Icon_2_">
		<path fill="#333333" d="M17.647,1.176H2.353C1.053,1.176,0,2.229,0,3.529v8.235c0,1.299,1.053,2.353,2.353,2.353h1.176v4.118
			c0,0.151,0.057,0.301,0.173,0.417c0.229,0.23,0.602,0.23,0.832,0l4.877-4.534h8.235c1.299,0,2.353-1.054,2.353-2.353V3.529
			C20,2.229,18.946,1.176,17.647,1.176z M4.118,4.706h9.412c0.325,0,0.588,0.263,0.588,0.588s-0.263,0.588-0.588,0.588H4.118
			c-0.325,0-0.588-0.263-0.588-0.588S3.792,4.706,4.118,4.706z M8.824,10.588H4.118c-0.325,0-0.588-0.263-0.588-0.588
			s0.263-0.588,0.588-0.588h4.706c0.325,0,0.588,0.263,0.588,0.588S9.149,10.588,8.824,10.588z M15.882,8.235H4.118
			c-0.325,0-0.588-0.264-0.588-0.588c0-0.325,0.263-0.588,0.588-0.588h11.765c0.325,0,0.588,0.263,0.588,0.588
			C16.47,7.972,16.208,8.235,15.882,8.235z"/>
	</g>
	<g>
		<path fill="#333333" d="M38.578,8.867L35.689,6v0.022c-0.512-0.533-1.223-0.845-2.022-0.845c-1.022,0-1.866,1.022-3.688,1.022
			s-2.4-1.022-3.689-1.022c-0.8,0-1.511,0.312-2.022,0.845l0,0L21.6,8.711c-0.267,0.2-0.511,0.444-0.711,0.712l0,0
			C20.333,10.155,20,11.066,20,12.066c0,2.378,1.933,4.312,4.311,4.312c1.866,0,3.444-1.178,4.044-2.845
			c0.4,0.444,0.978,0.733,1.645,0.733s1.245-0.289,1.644-0.733c0.601,1.667,2.178,2.845,4.045,2.845
			c2.378,0,4.311-1.934,4.311-4.312C40,10.8,39.444,9.667,38.578,8.867z M24.311,15.467c-1.867,0-3.4-1.511-3.4-3.4
			c0-1.889,1.533-3.377,3.4-3.377c1.866,0,3.4,1.511,3.4,3.399S26.177,15.467,24.311,15.467z M30,13.089
			c-0.556,0-1.022-0.467-1.022-1.022s0.466-1.021,1.022-1.021c0.555,0,1.022,0.466,1.022,1.021
			C31.022,12.645,30.555,13.089,30,13.089z M35.689,15.467c-1.867,0-3.4-1.511-3.4-3.4c0-1.889,1.511-3.399,3.4-3.399
			c1.889,0,3.399,1.511,3.399,3.399C39.088,13.956,37.555,15.467,35.689,15.467z"/>
	</g>
</g>
</svg>
