<?xml version="1.0" encoding="utf-8"?>
<!-- Generator: Adobe Illustrator 16.0.3, SVG Export Plug-In . SVG Version: 6.00 Build 0)  -->
<!DOCTYPE svg PUBLIC "-//W3C//DTD SVG 1.1//EN" "http://www.w3.org/Graphics/SVG/1.1/DTD/svg11.dtd">
<svg version="1.1" id="Ebene_1" xmlns="http://www.w3.org/2000/svg" xmlns:xlink="http://www.w3.org/1999/xlink" x="0px" y="0px"
	 width="20px" height="20px" viewBox="0 0 20 20" enable-background="new 0 0 20 20" xml:space="preserve">
<g>
	<g>
		<path fill="#333333" d="M15.371-8.709c0.01,0.02,0.021,0.039,0.031,0.059c0.127,0.27,0.209,0.551,0.246,0.825
			c0.09,0.025,0.182,0.061,0.27,0.107c0.648,0.348,0.893,1.155,0.547,1.804c-0.348,0.649-1.156,0.894-1.805,0.546
			c-0.65-0.347-0.895-1.155-0.549-1.804c0.195-0.364,0.535-0.601,0.91-0.677c-0.08-0.411-0.289-0.86-0.623-1.179
			c-0.26-0.06-0.525-0.104-0.797-0.129c-0.023,1.08-1.623,1.951-3.594,1.951s-3.57-0.871-3.594-1.951
			C6.225-9.139,6.035-9.113,5.852-9.078c-0.408,0.325-0.695,0.791-0.773,1.17c0.146,0.082,0.26,0.216,0.324,0.382
			c0.555,0.243,1.047,0.789,1.426,1.583c0.057,0.117,0.057,0.25,0.002,0.367c0.236,0.588,0.369,1.231,0.369,1.772
			c0,0.856-0.037,1.393-0.754,1.535c-0.068,0.067-0.16,0.105-0.258,0.105H5.637c-0.203,0-0.369-0.166-0.369-0.37v-0.007v-0.001
			c0.004-0.199,0.168-0.361,0.369-0.361h0.551c0.055,0,0.107,0.012,0.154,0.035c0.131-0.028,0.154-0.065,0.166-0.086
			C6.576-3.073,6.59-3.367,6.59-3.804c0-0.472-0.119-1.036-0.33-1.557C6.166-5.402,6.088-5.476,6.045-5.568
			C5.684-6.325,5.193-6.795,4.768-6.795c-0.436,0-0.949,0.507-1.309,1.292C3.41-5.396,3.32-5.314,3.209-5.275
			C3.016-4.771,2.912-4.251,2.912-3.804c0,0.342,0.006,0.718,0.088,0.851c0.014,0.021,0.039,0.062,0.186,0.089
			C3.238-2.89,3.295-2.903,3.352-2.903h0.553c0.195,0,0.357,0.154,0.369,0.347v0.002v0.021c0,0.204-0.166,0.37-0.369,0.37H3.352
			c-0.09,0-0.178-0.035-0.244-0.096C2.908-2.292,2.645-2.37,2.482-2.63C2.33-2.877,2.301-3.219,2.301-3.804
			c0-0.534,0.127-1.148,0.357-1.735C2.619-5.645,2.623-5.762,2.67-5.864C2.898-6.361,3.186-6.785,3.502-7.09
			c0.186-0.178,0.383-0.318,0.59-0.415C4.16-7.694,4.295-7.846,4.465-7.928c0.037-0.276,0.146-0.563,0.309-0.835
			c-2.188,0.87-3.734,3.005-3.734,5.502C1.039,0.008,3.689,0,6.959,0h6.098c3.27,0,5.92,0.008,5.92-3.262
			C18.977-5.709,17.49-7.808,15.371-8.709z M14.883-2.75h-0.787v0.786h-0.871V-2.75h-0.785v-0.872h0.785v-0.786h0.871v0.786h0.787
			V-2.75z"/>
	</g>
</g>
<g>
	<g>
		<path fill="none" d="M10,10.657c2.004,0,3.66-2.177,3.92-5c-0.176,0.044-0.393,0.129-0.629,0.294c0,0,0.447-2.657-0.496-3.029
			c0,0-1.305,0.633-2.795,0.673C8.51,3.554,7.207,2.921,7.207,2.921C6.262,3.294,6.709,5.951,6.709,5.951
			C6.473,5.786,6.256,5.701,6.08,5.657C6.34,8.48,7.996,10.657,10,10.657z"/>
		<polygon fill="none" points="14.088,15.591 13.217,15.591 13.217,16.377 12.432,16.377 12.432,17.25 13.217,17.25 13.217,18.036 
			14.088,18.036 14.088,17.25 14.875,17.25 14.875,16.377 14.088,16.377 		"/>
		<path fill="#F2F2F2" d="M15.363,11.291c0.01,0.02,0.021,0.039,0.031,0.059c0.127,0.27,0.209,0.551,0.246,0.825
			c0.09,0.025,0.182,0.061,0.27,0.107c0.648,0.348,0.893,1.155,0.547,1.804c-0.348,0.649-1.156,0.894-1.805,0.546
			c-0.65-0.347-0.895-1.155-0.549-1.804c0.195-0.364,0.535-0.601,0.91-0.677c-0.08-0.411-0.289-0.86-0.623-1.179
			c-0.26-0.06-0.525-0.104-0.797-0.129c-0.023,1.08-1.623,1.951-3.594,1.951s-3.57-0.871-3.594-1.951
			c-0.189,0.018-0.379,0.044-0.563,0.079c-0.408,0.325-0.695,0.791-0.773,1.17c0.146,0.082,0.26,0.216,0.324,0.382
			c0.555,0.243,1.047,0.789,1.426,1.583c0.057,0.117,0.057,0.25,0.002,0.367c0.236,0.588,0.369,1.231,0.369,1.772
			c0,0.856-0.037,1.393-0.754,1.535c-0.068,0.067-0.16,0.105-0.258,0.105H5.629c-0.203,0-0.369-0.166-0.369-0.37v-0.007v-0.001
			c0.004-0.199,0.168-0.361,0.369-0.361H6.18c0.055,0,0.107,0.012,0.154,0.035c0.131-0.028,0.154-0.065,0.166-0.086
			c0.068-0.119,0.082-0.413,0.082-0.85c0-0.472-0.119-1.036-0.33-1.557c-0.094-0.042-0.172-0.116-0.215-0.208
			c-0.361-0.757-0.852-1.227-1.277-1.227c-0.436,0-0.949,0.507-1.309,1.292c-0.049,0.107-0.139,0.189-0.25,0.228
			c-0.193,0.503-0.297,1.023-0.297,1.471c0,0.342,0.006,0.718,0.088,0.851c0.014,0.021,0.039,0.062,0.186,0.089
			c0.053-0.026,0.109-0.039,0.166-0.039h0.553c0.195,0,0.357,0.154,0.369,0.347v0.002v0.021c0,0.204-0.166,0.37-0.369,0.37H3.344
			c-0.09,0-0.178-0.035-0.244-0.096C2.9,17.708,2.637,17.63,2.475,17.37c-0.152-0.248-0.182-0.589-0.182-1.174
			c0-0.534,0.127-1.148,0.357-1.735c-0.039-0.106-0.035-0.223,0.012-0.325c0.229-0.498,0.516-0.921,0.832-1.226
			c0.186-0.178,0.383-0.318,0.59-0.415c0.068-0.189,0.203-0.341,0.373-0.423c0.037-0.276,0.146-0.563,0.309-0.835
			c-2.188,0.87-3.734,3.005-3.734,5.502c0,3.27,2.65,3.262,5.92,3.262h6.098c3.27,0,5.92,0.008,5.92-3.262
			C18.969,14.291,17.482,12.192,15.363,11.291z M14.875,17.25h-0.787v0.786h-0.871V17.25h-0.785v-0.872h0.785v-0.786h0.871v0.786
			h0.787V17.25z"/>
		<path fill="#F2F2F2" d="M5.521,5.492C5.525,5.535,5.529,5.577,5.533,5.62C5.818,8.852,7.709,11.35,10,11.35
			s4.182-2.498,4.467-5.73c0.006-0.042,0.008-0.085,0.012-0.127c0.02-0.14,0.033-0.282,0.041-0.426
			c0.006-0.098,0.01-0.197,0.01-0.297c0-0.246-0.018-0.487-0.051-0.723C14.146,1.755,12.268,0,10,0S5.854,1.755,5.521,4.045
			C5.488,4.281,5.471,4.523,5.471,4.769c0,0.1,0.004,0.199,0.008,0.297C5.488,5.21,5.502,5.352,5.521,5.492z M7.205,2.921
			c0,0,1.305,0.633,2.795,0.673c1.49-0.041,2.793-0.673,2.793-0.673c0.945,0.373,0.498,3.029,0.498,3.029
			c0.236-0.165,0.451-0.25,0.629-0.294c-0.26,2.823-1.916,5-3.92,5s-3.66-2.177-3.92-5c0.176,0.044,0.393,0.129,0.629,0.294
			C6.709,5.951,6.262,3.294,7.205,2.921z"/>
		<circle fill="#F2F2F2" cx="15.281" cy="13.457" r="0.667"/>
	</g>
</g>
</svg>
