<?xml version="1.0" encoding="utf-8"?>
<!-- Generator: Adobe Illustrator 16.0.3, SVG Export Plug-In . SVG Version: 6.00 Build 0)  -->
<!DOCTYPE svg PUBLIC "-//W3C//DTD SVG 1.1//EN" "http://www.w3.org/Graphics/SVG/1.1/DTD/svg11.dtd">
<svg version="1.1" xmlns="http://www.w3.org/2000/svg" xmlns:xlink="http://www.w3.org/1999/xlink" x="0px" y="0px" width="20px"
	 height="20px" viewBox="0 0 20 20" enable-background="new 0 0 20 20" xml:space="preserve">
<g id="Ebene_1">
</g>
<g id="Ebene_4">
	<g>
	</g>
	<path fill="#F2F2F2" d="M19.99,9.804l-1.877-5.166c-0.021-0.078-0.076-0.149-0.148-0.189c-0.074-0.039-0.161-0.045-0.24-0.021
		l-3.46,1.36c-0.586-0.329-2.808-1.556-3.506-1.672c-0.115-0.018-0.237-0.026-0.366-0.026c-0.606,0-1.187,0.216-1.342,0.275
		C8.692,4.405,6.8,4.654,5.525,5.29c-1.11-0.573-1.994-1.231-2.003-1.237C3.455,4.002,3.37,3.98,3.287,3.995
		c-0.081,0.017-0.156,0.063-0.2,0.136L0.05,8.741c-0.09,0.136-0.055,0.321,0.076,0.415l3.833,2.737
		c-0.133,0.308-0.139,0.617-0.017,0.897c0.213,0.481,0.741,0.755,1.021,0.872c0.214,0.864,0.765,0.998,1.085,0.998
		c0.107,0,0.208-0.013,0.296-0.034c0.307,0.678,0.73,0.833,1.046,0.833c0,0,0,0,0.001,0c0.164,0,0.31-0.041,0.426-0.093
		c0.188,0.211,0.525,0.492,1.016,0.557c0.051,0.005,0.099,0.005,0.144,0.005c0.297,0,0.48-0.123,0.581-0.23
		c0.138-0.141,0.196-0.317,0.222-0.453l0.676,0.472l0.018,0.015c0.059,0.034,0.484,0.278,0.937,0.278
		c0.136,0,0.274-0.021,0.405-0.08c0.158-0.064,0.354-0.205,0.482-0.491c0.258,0.011,0.652-0.017,0.984-0.249
		c0.253-0.174,0.425-0.429,0.514-0.758c0.256-0.022,0.642-0.104,0.944-0.38c0.227-0.209,0.366-0.479,0.42-0.812
		c0.271-0.004,0.652-0.065,0.942-0.325c0.278-0.25,0.409-0.619,0.392-1.09l3.34-1.673C19.961,10.088,20.026,9.944,19.99,9.804z
		 M4.498,12.549c-0.059-0.137-0.049-0.275,0.029-0.444c0.19-0.399,0.417-0.641,0.606-0.641c0.115,0,0.253,0.085,0.4,0.239
		c-0.231,0.287-0.528,0.748-0.608,1.259C4.75,12.862,4.574,12.719,4.498,12.549z M5.523,13.381v-0.002
		c-0.082-0.453,0.197-0.928,0.43-1.229l0.208-0.197c0.133-0.126,0.417-0.321,0.619-0.321c0.174,0,0.266,0.229,0.315,0.465
		c-0.258,0.308-0.877,1.13-0.884,1.938c-0.05,0.012-0.106,0.021-0.164,0.021C5.947,14.054,5.642,14.054,5.523,13.381z M7.39,14.853
		c-0.272,0-0.453-0.345-0.563-0.653h0.002c-0.11-0.603,0.498-1.447,0.781-1.769c0.048-0.021,0.145-0.058,0.257-0.058
		c0.184,0,0.342,0.099,0.478,0.296c-0.13,0.067-0.25,0.165-0.355,0.29c-0.354,0.426-0.516,1.152-0.425,1.855
		C7.511,14.834,7.452,14.853,7.39,14.853z M9.207,15.061c0,0.047-0.024,0.164-0.08,0.222c-0.01,0.008-0.048,0.04-0.147,0.04
		c-0.021,0-0.047,0-0.071-0.002c-0.411-0.056-0.661-0.37-0.729-0.468c-0.101-0.562,0.014-1.19,0.274-1.503
		c0.101-0.119,0.209-0.179,0.333-0.179c0.041,0.002,0.357,0.032,0.518,0.571l-0.106,1.282l0.008,0.021V15.061z M15.695,12.461
		c-0.173,0.159-0.457,0.182-0.637,0.17l-2.313-2.096c-0.124-0.114-0.317-0.105-0.429,0.021c-0.113,0.121-0.103,0.313,0.021,0.428
		l2.231,2.023c-0.015,0.259-0.091,0.459-0.236,0.592c-0.193,0.178-0.462,0.22-0.624,0.23l-2.172-2.077
		c-0.123-0.115-0.314-0.11-0.43,0.012c-0.115,0.12-0.111,0.313,0.01,0.429l2.104,2.01c-0.046,0.221-0.137,0.385-0.283,0.488
		c-0.143,0.1-0.316,0.13-0.464,0.14c-0.007-0.012-0.011-0.021-0.02-0.033l-1.893-1.794c-0.122-0.116-0.313-0.11-0.428,0.014
		c-0.116,0.118-0.11,0.313,0.011,0.429l1.652,1.565L11.79,15.04c-0.061,0.268-0.176,0.32-0.214,0.335
		c-0.236,0.104-0.646-0.082-0.783-0.161l-0.952-0.667l0.078-0.855L9.906,13.64C9.727,12.959,9.317,12.681,9,12.593
		c-0.347-0.715-0.85-0.826-1.132-0.826c-0.079,0-0.156,0.006-0.225,0.021c-0.202-0.656-0.613-0.763-0.862-0.763
		c-0.298,0-0.584,0.149-0.782,0.285c-0.28-0.301-0.569-0.452-0.866-0.452c-0.319,0-0.615,0.177-0.868,0.511L0.718,8.834l2.702-4.11
		c0.374,0.264,1.108,0.748,1.971,1.179c0.088,0.044,0.194,0.044,0.281-0.005c0.659-0.36,1.571-0.596,2.301-0.744
		C7.787,5.323,7.574,5.532,7.331,5.786C6.34,6.821,6.772,7.45,6.834,7.529C7.078,7.813,7.412,7.96,7.8,7.96
		c0.852,0,1.791-0.722,2.062-0.944l0.736-0.083c0.5,1.728,2.445,2.47,2.863,2.608l2.377,2.377c0.014,0.013,0.031,0.022,0.047,0.03
		C15.877,12.178,15.815,12.354,15.695,12.461z M16.113,11.336L13.838,9.06c-0.036-0.036-0.08-0.063-0.128-0.076
		c-0.022-0.01-2.255-0.694-2.582-2.437c-0.027-0.146-0.154-0.249-0.298-0.249c-0.012,0-0.022,0-0.034,0.001L9.703,6.422
		C9.642,6.43,9.583,6.455,9.536,6.495C9.265,6.734,8.427,7.353,7.8,7.353c-0.206,0-0.361-0.062-0.489-0.199
		C7.291,7.099,7.208,6.792,7.77,6.203c1.026-1.069,1.461-1.255,1.459-1.255c0.006-0.004,0.014-0.008,0.02-0.01
		c0.005-0.004,0.573-0.241,1.142-0.241c0.095,0,0.185,0.004,0.268,0.02c0.496,0.08,2.318,1.04,3.422,1.662
		c0.075,0.044,0.163,0.056,0.243,0.027l3.282-1.299l1.735,4.611L16.113,11.336z"/>
	<g>
		<rect x="20" y="6.667" fill="#F2F2F2" width="20" height="6.665"/>
	</g>
</g>
</svg>
