<?xml version="1.0" encoding="utf-8"?>
<!-- Generator: Adobe Illustrator 16.0.3, SVG Export Plug-In . SVG Version: 6.00 Build 0)  -->
<!DOCTYPE svg PUBLIC "-//W3C//DTD SVG 1.1//EN" "http://www.w3.org/Graphics/SVG/1.1/DTD/svg11.dtd">
<svg version="1.1" id="Ebene_1" xmlns="http://www.w3.org/2000/svg" xmlns:xlink="http://www.w3.org/1999/xlink" x="0px" y="0px"
	 width="20px" height="20px" viewBox="0 0 20 20" enable-background="new 0 0 20 20" xml:space="preserve">
<g>
	<path fill="#333333" d="M18.085-12.626L18.085-12.626v-0.002l0,0c0-0.003-0.002-0.003-0.002-0.006
		c-0.012-0.036-0.025-0.066-0.051-0.091c-0.007-0.008-0.014-0.014-0.023-0.021c-0.019-0.019-0.039-0.034-0.063-0.044
		c-0.005-0.003-0.01-0.008-0.017-0.01l-6.655-2.487c-0.005-0.001-0.012,0-0.017-0.002c-0.012-0.003-0.025-0.003-0.039-0.006
		c-0.021-0.002-0.042-0.005-0.063-0.001c-0.007,0-0.012-0.004-0.019,0L2.265-13.5c-0.012,0.002-0.021,0.009-0.03,0.013
		c-0.009,0.003-0.017,0.002-0.027,0.007c-0.008,0.003-0.01,0.008-0.017,0.012c-0.017,0.009-0.03,0.021-0.044,0.035
		c-0.012,0.009-0.021,0.019-0.03,0.029c-0.012,0.017-0.021,0.035-0.027,0.055c-0.005,0.009-0.012,0.015-0.017,0.025L0.919-9.397
		C0.884-9.284,0.938-9.163,1.044-9.106l1.02,0.538v5.408c0,0.001,0,0.001,0,0.002v0.002c0,0.008,0.002,0.013,0.004,0.021
		c0.003,0.025,0.005,0.05,0.017,0.073c0.005,0.014,0.014,0.027,0.023,0.038c0.009,0.015,0.016,0.03,0.027,0.042
		c0.017,0.017,0.039,0.03,0.063,0.044c0.005,0.002,0.01,0.008,0.014,0.012l0.005,0.001h0.002L8.869-0.02
		C8.902-0.007,8.937,0,8.969,0l0,0l0,0c0.021,0,0.04-0.001,0.061-0.007l8.875-2.22c0.111-0.027,0.188-0.127,0.188-0.242v-5.806
		l0.812-0.203c0.064-0.015,0.12-0.058,0.152-0.115c0.037-0.057,0.044-0.125,0.028-0.191L18.085-12.626z M11.437-14.691l5.566,2.077
		l-5.566,1.391V-14.691L11.437-14.691z M10.936-11.097L8.99-10.61l-5.853-2.557l7.798-1.581V-11.097L10.936-11.097z M2.473-12.912
		l6.179,2.699L7.233-6.41L1.456-9.453L2.473-12.912z M7.25-5.834c0.037,0.02,0.076,0.029,0.118,0.029
		c0.028,0,0.058-0.007,0.088-0.018C7.523-5.849,7.577-5.9,7.603-5.968l1.116-2.996v8.332L2.563-3.319v-4.985L7.25-5.834z
		 M17.594-2.664L9.22-0.569v-6.607L9.347-6.37C9.358-6.3,9.397-6.239,9.456-6.2c0.041,0.027,0.09,0.042,0.136,0.042
		c0.021,0,0.042-0.003,0.061-0.008l7.941-1.984V-2.664L17.594-2.664z M9.799-6.717l-0.547-3.444l8.412-2.104l0.873,3.365
		L9.799-6.717z"/>
</g>
<g>
	<path fill="#F2F2F2" d="M16.984,2.021L13.811,0h-0.029h-1.68c-0.093,0-0.186,0.062-0.186,0.155c-0.155,0.622-1.026,1.12-2.053,1.12
		s-1.897-0.467-2.05-1.12C7.78,0.062,7.718,0,7.593,0H5.916C5.883,0,5.883,0,5.854,0.031L2.496,2.145
		C2.432,2.208,2.401,2.3,2.464,2.395l1.43,2.176c0.032,0.094,0.157,0.094,0.218,0.063l1.462-0.965c0.125-0.062,0.247,0,0.247,0.156
		v4.181c0,0.094,0,0,0,0L8.99,9.39l4.795-1.199c0,0-0.034-3.701-0.034-1.393V3.792c0-0.124,0.155-0.217,0.248-0.155l1.336,0.809
		c0.063,0.063,0.186,0.031,0.218-0.062l1.432-2.176C17.077,2.177,17.045,2.051,16.984,2.021z"/>
	<path fill="#F2F2F2" d="M18.085,7.374L18.085,7.374V7.372l0,0c0-0.003-0.002-0.003-0.002-0.006
		C18.071,7.33,18.058,7.3,18.032,7.274c-0.007-0.008-0.014-0.014-0.023-0.021C17.99,7.235,17.97,7.22,17.946,7.209
		c-0.005-0.003-0.01-0.008-0.017-0.01l-6.655-2.487c-0.005-0.001-0.012,0-0.017-0.002c-0.012-0.003-0.025-0.003-0.039-0.006
		c-0.021-0.002-0.042-0.005-0.063-0.001c-0.007,0-0.012-0.004-0.019,0L2.265,6.5c-0.012,0.002-0.021,0.009-0.03,0.013
		C2.226,6.516,2.218,6.515,2.207,6.519C2.199,6.522,2.197,6.527,2.19,6.531C2.174,6.54,2.16,6.552,2.146,6.565
		c-0.012,0.009-0.021,0.019-0.03,0.029C2.104,6.611,2.096,6.629,2.089,6.649C2.084,6.658,2.077,6.664,2.072,6.674l-1.153,3.928
		c-0.035,0.113,0.019,0.235,0.125,0.292l1.02,0.538v5.408c0,0.001,0,0.001,0,0.002v0.002c0,0.008,0.002,0.013,0.004,0.021
		c0.003,0.025,0.005,0.05,0.017,0.073c0.005,0.014,0.014,0.027,0.023,0.038c0.009,0.015,0.016,0.03,0.027,0.042
		c0.017,0.017,0.039,0.03,0.063,0.044c0.005,0.002,0.01,0.008,0.014,0.012l0.005,0.001h0.002l6.651,2.905
		C8.902,19.993,8.937,20,8.969,20l0,0l0,0c0.021,0,0.04-0.001,0.061-0.007l8.875-2.22c0.111-0.027,0.188-0.127,0.188-0.242v-5.806
		l0.812-0.203c0.064-0.015,0.12-0.058,0.152-0.115c0.037-0.057,0.044-0.125,0.028-0.191L18.085,7.374z M11.437,5.309l5.566,2.077
		l-5.566,1.391V5.309L11.437,5.309z M10.936,8.903L8.99,9.39L3.138,6.833l7.798-1.581V8.903L10.936,8.903z M2.473,7.088l6.179,2.699
		L7.233,13.59l-5.777-3.043L2.473,7.088z M7.25,14.166c0.037,0.02,0.076,0.029,0.118,0.029c0.028,0,0.058-0.007,0.088-0.018
		c0.067-0.025,0.121-0.077,0.146-0.145l1.116-2.996v8.332l-6.155-2.688v-4.985L7.25,14.166z M17.594,17.336L9.22,19.431v-6.607
		l0.127,0.806c0.012,0.069,0.051,0.131,0.109,0.17c0.041,0.027,0.09,0.042,0.136,0.042c0.021,0,0.042-0.003,0.061-0.008l7.941-1.984
		V17.336L17.594,17.336z M9.799,13.283L9.252,9.839l8.412-2.104l0.873,3.365L9.799,13.283z"/>
</g>
<g>
	<path fill="#F2F2F2" d="M40,2.856l-7.143-2.143C32.232,1.93,31.482,2.51,30.01,2.51c-1.451-0.024-2.254-0.591-2.867-1.796L20,2.856
		l1.428,3.929l2.857-0.356l-0.713,12.856h12.855L35.715,6.429l2.855,0.356L40,2.856z"/>
</g>
</svg>
