<?xml version="1.0" encoding="utf-8"?>
<!-- Generator: Adobe Illustrator 16.0.3, SVG Export Plug-In . SVG Version: 6.00 Build 0)  -->
<!DOCTYPE svg PUBLIC "-//W3C//DTD SVG 1.1//EN" "http://www.w3.org/Graphics/SVG/1.1/DTD/svg11.dtd">
<svg version="1.1" id="Ebene_1" xmlns="http://www.w3.org/2000/svg" xmlns:xlink="http://www.w3.org/1999/xlink" x="0px" y="0px"
	 width="20px" height="20px" viewBox="0 0 20 20" enable-background="new 0 0 20 20" xml:space="preserve">
<g id="Neues_Symbol_11">
</g>
<g id="Neues_Symbol_5">
</g>
<path fill="#F2F2F2" d="M-2.92,37.079c-3.894,3.894-10.267,3.894-14.16,0s-3.894-10.266,0-14.159s10.267-3.894,14.16,0
	S0.974,33.186-2.92,37.079z"/>
<g>
	<path fill="#333333" d="M11.414,18.586c-0.777,0.778-2.051,0.778-2.828,0l-7.172-7.172c-0.777-0.778-0.777-2.05,0-2.828
		l7.172-7.172c0.777-0.778,2.051-0.778,2.828,0l7.172,7.172c0.777,0.778,0.777,2.05,0,2.828L11.414,18.586z"/>
</g>
<path fill="#333333" d="M-2.92,17.079c-3.894,3.894-10.267,3.894-14.16,0s-3.894-10.266,0-14.159s10.267-3.894,14.16,0
	S0.974,13.186-2.92,17.079z"/>
</svg>
