<?xml version="1.0" encoding="utf-8"?>
<!-- Generator: Adobe Illustrator 16.0.3, SVG Export Plug-In . SVG Version: 6.00 Build 0)  -->
<!DOCTYPE svg PUBLIC "-//W3C//DTD SVG 1.1//EN" "http://www.w3.org/Graphics/SVG/1.1/DTD/svg11.dtd">
<svg version="1.1" id="Ebene_1" xmlns="http://www.w3.org/2000/svg" xmlns:xlink="http://www.w3.org/1999/xlink" x="0px" y="0px"
	 width="20px" height="20.001px" viewBox="0 0 20 20.001" enable-background="new 0 0 20 20.001" xml:space="preserve">
<g>
	<g>
		<path fill="#333333" d="M14.536-13.295c-0.469-0.518-1.27-0.558-1.788-0.089c-0.52,0.47-0.559,1.271-0.089,1.789
			c0.469,0.518,1.269,0.558,1.788,0.088C14.966-11.976,15.006-12.776,14.536-13.295z M14.068-6.185l0.127-3.406
			c0.021-0.588-0.436-1.083-1.024-1.108l-1.408-1.37l0.195-2.867l-0.789-0.091l-0.38,1.955l0.392,1.44l1.769,1.174l0,0l-1.846-1.045
			l-0.85-2.717l-0.8,0.213l0.671,2.996c0.037,0.138,0.129,0.257,0.254,0.329l1.686,0.954c-0.003,0.021-0.009,0.039-0.009,0.059
			l-0.128,3.406c-0.003,0.057-0.861,2.879-0.861,2.879l-0.028,0.161l-0.032,3.162L12.026,0l0.342-3.06l0.185-0.589v0.056
			l0.368,3.568l1.047-0.065l-0.075-3.546l0.144-2.329C14.055-6.036,14.065-6.108,14.068-6.185z"/>
	</g>
</g>
<g>
	<g>
		<path fill="#F2F2F2" d="M14.536,6.705c-0.469-0.518-1.27-0.558-1.788-0.089c-0.52,0.47-0.559,1.271-0.089,1.789
			c0.469,0.518,1.269,0.558,1.788,0.088C14.966,8.024,15.006,7.224,14.536,6.705z M14.068,13.815l0.127-3.406
			c0.021-0.588-0.436-1.083-1.024-1.108l-1.408-1.37l0.195-2.867l-0.789-0.091l-0.38,1.955l0.392,1.44l1.769,1.174l0,0l-1.846-1.045
			l-0.85-2.717l-0.8,0.213l0.671,2.996c0.037,0.138,0.129,0.257,0.254,0.329l1.686,0.954c-0.003,0.021-0.009,0.039-0.009,0.059
			l-0.128,3.406c-0.003,0.057-0.861,2.879-0.861,2.879l-0.028,0.161l-0.032,3.162L12.026,20l0.342-3.06l0.185-0.589v0.056
			l0.368,3.568l1.047-0.065l-0.075-3.546l0.144-2.329C14.055,13.964,14.065,13.892,14.068,13.815z"/>
		<path fill="#F2F2F2" d="M10.753,1.68c0.464,0.03,0.863-0.32,0.896-0.784c0.029-0.463-0.32-0.863-0.783-0.894
			c-0.464-0.031-0.864,0.32-0.895,0.783C9.938,1.25,10.29,1.65,10.753,1.68z M10.111,2.539l0.641,0.322
			c0.043,0.022,0.092,0.034,0.14,0.034c0.06,0,0.117-0.017,0.168-0.049l1.104-0.786l-0.262-0.408l-1.027,0.572L9.979,1.771
			C9.75,1.557,9.393,1.542,9.147,1.75L7.835,2.871C7.807,2.895,7.783,2.921,7.76,2.949L7.005,3.42L5.366,2.899L5.137,3.508
			l1.768,0.765c0.048,0.018,0.098,0.026,0.146,0.026c0.077,0,0.155-0.021,0.222-0.063l0.521-0.326L7.663,5.009L6.635,6.022
			l0.461,0.516l1.24-1.012c0.076-0.068,0.123-0.161,0.135-0.262l0.174-1.441c0,0,0.001,0,0.001-0.001L9.608,3L9.775,3.49
			C9.808,3.581,9.88,3.653,9.972,3.685l1.307,0.357L11.428,3.6l-1.111-0.458L10.111,2.539z"/>
	</g>
</g>
<g>
	<path fill="#F2F2F2" d="M39.879,10.609l-0.522-1.068c-0.206-0.424-0.375-1.155-0.375-1.626V6.096c0-0.471,0-1.241,0-1.712V2.481
		c0-0.471,0-1.193,0-1.606c0-0.412-0.385-0.75-0.857-0.75H21.877c-0.471,0-0.856,0.338-0.856,0.75c0,0.413,0,1.136,0,1.606v1.902
		c0,0.471,0,1.241,0,1.712V7.88c0,0.471-0.167,1.203-0.372,1.628l-0.53,1.1c-0.204,0.424,0.015,0.771,0.485,0.771h18.795
		C39.869,11.378,40.085,11.032,39.879,10.609z M37.31,8.718H22.702c0,0,0.133-2.972-0.515-4.358c0,0,2.554-2.217,3.184-3.978
		c0,0,2.502,0.808,4.575,0.609h0.12c2.072,0.198,4.575-0.609,4.575-0.609c0.629,1.761,3.183,3.978,3.183,3.978
		C37.177,5.746,37.31,8.718,37.31,8.718z M21.901,13.605v-0.11c0-0.519,0.302-0.942,0.67-0.942h0.769
		c0.369,0,0.672,0.424,0.672,0.942v0.11h-0.026c-0.077-0.397-0.339-0.692-0.646-0.692h-0.769c-0.307,0-0.567,0.295-0.646,0.692
		H21.901z M24.249,13.605v-0.11c0-0.519,0.302-0.942,0.671-0.942h0.769c0.369,0,0.671,0.424,0.671,0.942v0.11h-0.025
		c-0.078-0.397-0.339-0.692-0.646-0.692H24.92c-0.308,0-0.567,0.295-0.646,0.692H24.249z M26.597,13.605v-0.11
		c0-0.519,0.303-0.942,0.671-0.942h0.769c0.369,0,0.67,0.424,0.67,0.942v0.11h-0.024c-0.079-0.397-0.338-0.692-0.646-0.692h-0.769
		c-0.308,0-0.567,0.295-0.646,0.692H26.597z M28.945,13.605v-0.11c0-0.519,0.301-0.942,0.67-0.942h0.769
		c0.369,0,0.671,0.424,0.671,0.942v0.11h-0.025c-0.078-0.397-0.338-0.692-0.646-0.692h-0.769c-0.308,0-0.568,0.295-0.646,0.692
		H28.945z M31.293,13.605v-0.11c0-0.519,0.301-0.942,0.67-0.942h0.769c0.369,0,0.67,0.424,0.67,0.942v0.11h-0.023
		c-0.079-0.397-0.339-0.692-0.646-0.692h-0.769c-0.308,0-0.567,0.295-0.646,0.692H31.293z M33.641,13.605v-0.11
		c0-0.519,0.3-0.942,0.669-0.942h0.769c0.369,0,0.672,0.424,0.672,0.942v0.11h-0.025c-0.078-0.397-0.339-0.692-0.646-0.692H34.31
		c-0.307,0-0.566,0.295-0.646,0.692H33.641z M35.987,13.605v-0.11c0-0.519,0.302-0.942,0.671-0.942h0.769
		c0.369,0,0.672,0.424,0.672,0.942v0.11h-0.025c-0.079-0.397-0.339-0.692-0.646-0.692h-0.769c-0.307,0-0.567,0.295-0.646,0.692
		H35.987z M21.292,15.694v-0.119c0-0.557,0.325-1.014,0.723-1.014h0.825c0.396,0,0.721,0.457,0.721,1.014v0.119h-0.025
		c-0.085-0.428-0.364-0.745-0.695-0.745h-0.825c-0.331,0-0.611,0.317-0.695,0.745H21.292z M23.817,15.694v-0.119
		c0-0.557,0.324-1.014,0.721-1.014h0.825c0.398,0,0.722,0.457,0.722,1.014v0.119h-0.026c-0.084-0.428-0.364-0.745-0.694-0.745
		h-0.826c-0.33,0-0.61,0.317-0.694,0.745H23.817z M26.341,15.694v-0.119c0-0.557,0.324-1.014,0.722-1.014h0.826
		c0.396,0,0.721,0.457,0.721,1.014v0.119h-0.025c-0.085-0.428-0.364-0.745-0.695-0.745h-0.826c-0.33,0-0.609,0.317-0.694,0.745
		H26.341z M28.865,15.694v-0.119c0-0.557,0.325-1.014,0.721-1.014h0.827c0.396,0,0.722,0.457,0.722,1.014v0.119h-0.027
		c-0.085-0.428-0.364-0.745-0.694-0.745h-0.827c-0.329,0-0.609,0.317-0.693,0.745H28.865z M31.389,15.694v-0.119
		c0-0.557,0.325-1.014,0.722-1.014h0.826c0.396,0,0.721,0.457,0.721,1.014v0.119h-0.025c-0.086-0.428-0.365-0.745-0.695-0.745H32.11
		c-0.33,0-0.609,0.317-0.694,0.745H31.389z M33.914,15.694v-0.119c0-0.557,0.324-1.014,0.721-1.014h0.827
		c0.396,0,0.721,0.457,0.721,1.014v0.119h-0.027c-0.084-0.428-0.364-0.745-0.693-0.745h-0.827c-0.329,0-0.609,0.317-0.694,0.745
		H33.914z M36.438,15.694v-0.119c0-0.557,0.323-1.014,0.721-1.014h0.826c0.396,0,0.721,0.457,0.721,1.014v0.119H38.68
		c-0.084-0.428-0.363-0.745-0.694-0.745h-0.826c-0.331,0-0.609,0.317-0.694,0.745H36.438z M20.685,17.783v-0.128
		c0-0.597,0.347-1.084,0.771-1.084h0.884c0.425,0,0.771,0.487,0.771,1.084v0.128h-0.028c-0.089-0.458-0.389-0.797-0.742-0.797
		h-0.884c-0.354,0-0.653,0.339-0.743,0.797H20.685z M23.385,17.783v-0.128c0-0.597,0.348-1.084,0.771-1.084h0.885
		c0.424,0,0.771,0.487,0.771,1.084v0.128h-0.028c-0.09-0.458-0.39-0.797-0.742-0.797h-0.885c-0.354,0-0.652,0.339-0.742,0.797
		H23.385z M26.085,17.783v-0.128c0-0.597,0.348-1.084,0.771-1.084h0.884c0.425,0,0.772,0.487,0.772,1.084v0.128h-0.029
		c-0.09-0.458-0.389-0.797-0.742-0.797h-0.884c-0.353,0-0.652,0.339-0.743,0.797H26.085z M28.786,17.783v-0.128
		c0-0.597,0.347-1.084,0.771-1.084h0.885c0.423,0,0.771,0.487,0.771,1.084v0.128h-0.028c-0.09-0.458-0.389-0.797-0.742-0.797h-0.885
		c-0.354,0-0.653,0.339-0.743,0.797H28.786z M31.486,17.783v-0.128c0-0.597,0.348-1.084,0.771-1.084h0.885
		c0.425,0,0.771,0.487,0.771,1.084v0.128h-0.029c-0.09-0.458-0.39-0.797-0.742-0.797h-0.885c-0.354,0-0.652,0.339-0.742,0.797
		H31.486z M34.188,17.783v-0.128c0-0.597,0.347-1.084,0.771-1.084h0.885c0.423,0,0.771,0.487,0.771,1.084v0.128h-0.028
		c-0.09-0.458-0.389-0.797-0.743-0.797h-0.884c-0.354,0-0.652,0.339-0.743,0.797H34.188z M36.888,17.783v-0.128
		c0-0.597,0.348-1.084,0.771-1.084h0.885c0.424,0,0.771,0.487,0.771,1.084v0.128h-0.028c-0.091-0.458-0.39-0.797-0.743-0.797h-0.885
		c-0.354,0-0.652,0.339-0.742,0.797H36.888z M20,19.877v-0.138c0-0.64,0.373-1.164,0.828-1.164h0.948
		c0.456,0,0.828,0.524,0.828,1.164v0.138h-0.03c-0.097-0.492-0.418-0.855-0.798-0.855h-0.948c-0.38,0-0.701,0.363-0.798,0.855H20z
		 M22.899,19.877v-0.138c0-0.64,0.372-1.164,0.827-1.164h0.95c0.455,0,0.827,0.524,0.827,1.164v0.138h-0.03
		c-0.098-0.492-0.419-0.855-0.797-0.855h-0.95c-0.379,0-0.7,0.363-0.797,0.855H22.899z M25.798,19.877v-0.138
		c0-0.64,0.372-1.164,0.827-1.164h0.95c0.455,0,0.827,0.524,0.827,1.164v0.138h-0.03c-0.097-0.492-0.418-0.855-0.797-0.855h-0.95
		c-0.378,0-0.7,0.363-0.797,0.855H25.798z M28.697,19.877v-0.138c0-0.64,0.372-1.164,0.828-1.164h0.948
		c0.455,0,0.828,0.524,0.828,1.164v0.138h-0.03c-0.098-0.492-0.418-0.855-0.798-0.855h-0.948c-0.38,0-0.701,0.363-0.798,0.855
		H28.697z M31.596,19.877v-0.138c0-0.64,0.373-1.164,0.829-1.164h0.948c0.455,0,0.829,0.524,0.829,1.164v0.138H34.17
		c-0.097-0.492-0.418-0.855-0.797-0.855h-0.948c-0.381,0-0.702,0.363-0.799,0.855H31.596z M34.494,19.877v-0.138
		c0-0.64,0.373-1.164,0.829-1.164h0.948c0.456,0,0.829,0.524,0.829,1.164v0.138h-0.032c-0.096-0.492-0.416-0.855-0.797-0.855h-0.948
		c-0.38,0-0.701,0.363-0.798,0.855H34.494z M37.395,19.877v-0.138c0-0.64,0.372-1.164,0.828-1.164h0.948
		c0.456,0,0.829,0.524,0.829,1.164v0.138h-0.032c-0.096-0.492-0.417-0.855-0.797-0.855h-0.948c-0.381,0-0.701,0.363-0.798,0.855
		H37.395z"/>
</g>
</svg>
