<?xml version="1.0" encoding="utf-8"?>
<!-- Generator: Adobe Illustrator 16.0.3, SVG Export Plug-In . SVG Version: 6.00 Build 0)  -->
<!DOCTYPE svg PUBLIC "-//W3C//DTD SVG 1.1//EN" "http://www.w3.org/Graphics/SVG/1.1/DTD/svg11.dtd">
<svg version="1.1" xmlns="http://www.w3.org/2000/svg" xmlns:xlink="http://www.w3.org/1999/xlink" x="0px" y="0px" width="20px"
	 height="20px" viewBox="0 0 20 20" enable-background="new 0 0 20 20" xml:space="preserve">
<g id="Ebene_1">
</g>
<g id="Ebene_4">
	<g>
		<g>
			<path fill="#323232" d="M-0.945,11.028h-17.943c-0.568,0-1.028-0.46-1.028-1.028s0.46-1.028,1.028-1.028h17.943
				c0.568,0,1.028,0.46,1.028,1.028S-0.377,11.028-0.945,11.028z"/>
		</g>
	</g>
	<g>
	</g>
	<g>
		<path fill="#333333" d="M15.8,10.099c0.603-1.002,0.956-2.173,0.956-3.427C16.756,2.987,13.769,0,10.083,0
			S3.411,2.987,3.411,6.672c0,1.271,0.362,2.454,0.979,3.466L10.084,20L15.8,10.099z"/>
	</g>
	<g>
		<path fill="#F2F2F2" d="M15.8,30.099c0.603-1.002,0.956-2.173,0.956-3.427c0-3.685-2.987-6.672-6.673-6.672
			s-6.673,2.987-6.673,6.672c0,1.271,0.362,2.454,0.979,3.466L10.084,40L15.8,30.099z"/>
	</g>
	<g>
		<g>
			<path fill="#F2F2F2" d="M23.94,11.641h-3.056c-0.487,0-0.884-0.372-0.884-0.829V7.202c0-0.457,0.397-0.828,0.884-0.828h3.056
				c0.487,0,0.884,0.371,0.884,0.828v3.609C24.824,11.269,24.427,11.641,23.94,11.641z M20.884,6.626
				c-0.348,0-0.632,0.259-0.632,0.576v3.609c0,0.317,0.284,0.576,0.632,0.576h3.056c0.348,0,0.631-0.259,0.631-0.576V7.202
				c0-0.317-0.283-0.576-0.631-0.576H20.884z"/>
		</g>
	</g>
</g>
</svg>
