<?xml version="1.0" encoding="utf-8"?>
<!-- Generator: Adobe Illustrator 16.0.3, SVG Export Plug-In . SVG Version: 6.00 Build 0)  -->
<!DOCTYPE svg PUBLIC "-//W3C//DTD SVG 1.1//EN" "http://www.w3.org/Graphics/SVG/1.1/DTD/svg11.dtd">
<svg version="1.1" id="Ebene_1" xmlns="http://www.w3.org/2000/svg" xmlns:xlink="http://www.w3.org/1999/xlink" x="0px" y="0px"
	 width="20px" height="20.001px" viewBox="0 0 20 20.001" enable-background="new 0 0 20 20.001" xml:space="preserve">
<g>
	<path fill="#333333" d="M-0.679,5.344c-4.188-1.296-7.478-4.487-9.273-4.487c-1.794,0-5.084,3.19-9.271,4.487
		c-0.698,0.199-0.998,0.996-0.598,1.595c0.897,1.196,1.895,1.296,1.895,2.692c0,0,3.985,0.996,7.974,0.996s7.977-0.996,7.977-0.996
		c0-1.396,0.997-1.496,1.793-2.792C0.218,6.34-0.082,5.543-0.679,5.344z M-9.952,8.833c-1.096,0-1.993-1.895-1.993-2.992
		c0,0,0.897-0.997,1.993-0.997c1.099,0,1.995,0.997,1.995,0.997C-7.957,6.939-8.854,8.833-9.952,8.833z"/>
</g>
<g>
	<g>
		<path fill="#333333" d="M19.027,8.541c-0.243,0-0.487-0.089-0.666-0.266c-4.614-4.617-12.117-4.617-16.755,0
			c-0.378,0.377-0.977,0.377-1.331,0c-0.355-0.378-0.378-0.977,0-1.333c5.37-5.371,14.07-5.371,19.441,0
			c0.378,0.378,0.378,0.977,0,1.333C19.517,8.452,19.273,8.541,19.027,8.541z"/>
	</g>
	<g>
		<path fill="#333333" d="M16.01,11.404c-0.244,0-0.487-0.088-0.666-0.266c-2.951-2.952-7.744-2.952-10.697,0
			c-0.376,0.377-0.975,0.377-1.332,0c-0.376-0.377-0.376-0.977,0-1.332c3.687-3.684,9.699-3.684,13.384,0
			c0.376,0.377,0.376,0.977,0,1.332C16.499,11.315,16.255,11.404,16.01,11.404z"/>
	</g>
	<g>
		<path fill="#333333" d="M7.154,14.223c-0.244,0-0.487-0.089-0.666-0.266c-0.376-0.378-0.376-0.977,0-1.332
			c1.933-1.931,5.083-1.931,7.036,0c0.376,0.378,0.376,0.977,0,1.332c-0.378,0.377-0.977,0.377-1.332,0
			c-1.199-1.198-3.15-1.198-4.35,0C7.644,14.134,7.399,14.223,7.154,14.223z"/>
	</g>
	<g>
		<circle fill="#333333" cx="9.996" cy="16.109" r="0.976"/>
	</g>
</g>
</svg>
