<?xml version="1.0" encoding="utf-8"?>
<!-- Generator: Adobe Illustrator 16.0.3, SVG Export Plug-In . SVG Version: 6.00 Build 0)  -->
<!DOCTYPE svg PUBLIC "-//W3C//DTD SVG 1.1//EN" "http://www.w3.org/Graphics/SVG/1.1/DTD/svg11.dtd">
<svg version="1.1" xmlns="http://www.w3.org/2000/svg" xmlns:xlink="http://www.w3.org/1999/xlink" x="0px" y="0px" width="20px"
	 height="20px" viewBox="0 0 20 20" enable-background="new 0 0 20 20" xml:space="preserve">
<g id="Ebene_1">
</g>
<g id="Ebene_4">
	<path fill="#F2F2F2" d="M-1.642,2.527c-2.302-2.291-6.026-2.281-8.316,0.022c-2.291-2.304-6.014-2.313-8.316-0.022
		c-2.303,2.29-2.356,5.983,0.176,8.516c2.827,2.825,7.35,7.35,8.14,8.143c0.792-0.792,5.314-5.317,8.141-8.143
		C0.716,8.51,0.662,4.817-1.642,2.527z M-7.914,8.033l-0.46,1.106h-2.561c-0.012,0.075-0.012,0.162-0.012,0.261
		c0,0.112,0,0.211,0.012,0.286h2.35l-0.461,1.106h-1.665c0.311,0.746,0.858,1.119,1.642,1.119c0.533,0,1.106-0.212,1.727-0.621
		v2.312c-0.585,0.261-1.268,0.385-2.051,0.385c-0.994,0-1.839-0.287-2.536-0.858c-0.684-0.583-1.155-1.354-1.417-2.335h-0.97
		l0.459-1.106h0.348c-0.012-0.063-0.012-0.162-0.012-0.273c0-0.112,0-0.212,0.012-0.274h-0.833l0.46-1.106h0.534
		c0.261-0.982,0.733-1.765,1.441-2.349c0.708-0.584,1.554-0.882,2.561-0.882c0.796,0,1.628,0.236,2.499,0.696l-0.883,1.876
		C-8.225,7.052-8.709,6.89-9.182,6.89c-0.721,0-1.243,0.385-1.554,1.143H-7.914z"/>
	<path fill="#333333" d="M20-11.263v2.525H4.848l6.945,6.944L10,0L0-10l10-10l1.793,1.793l-6.945,6.944H20z"/>
	<path fill="#F2F2F2" d="M20,8.737v2.525H4.848l6.945,6.944L10,20L0,10L10,0l1.793,1.793L4.848,8.737H20z"/>
</g>
</svg>
