<?xml version="1.0" encoding="utf-8"?>
<!-- Generator: Adobe Illustrator 21.0.0, SVG Export Plug-In . SVG Version: 6.00 Build 0)  -->
<svg version="1.1" id="Ebene_1" xmlns="http://www.w3.org/2000/svg" xmlns:xlink="http://www.w3.org/1999/xlink" x="0px" y="0px"
	 viewBox="0 0 20 20" enable-background="new 0 0 20 20" xml:space="preserve">
<g>
	<g>
		<path fill="#333333" d="M19.967,0.258C19.903,0.103,19.752,0.001,19.583,0H5.417C5.249,0,5.099,0.1,5.033,0.254L0.254,5.033
			C0.1,5.099,0,5.249,0,5.417v14.167C0,19.813,0.187,20,0.417,20h14.167c0.167,0,0.318-0.1,0.383-0.254l4.779-4.779
			C19.9,14.901,20,14.751,20,14.583V0.417C19.999,0.362,19.988,0.308,19.967,0.258z M5.833,14.167V5.833h8.333v8.333H5.833z
			 M14.413,5H5.833V0.833h12.746L14.413,5z M5,5H1.467L5,1.467V5z M0.833,5.833H5v8.579l-4.167,4.167V5.833z M5.588,15h8.579v4.167
			H1.421L5.588,15z M15,15h3.533L15,18.533V15z M19.167,14.167H15V5.588l4.167-4.167V14.167z"/>
	</g>
	<g transform="translate(0,-952.36218)">
		<g>
			<path fill="#333333" d="M4.034,970.144c-0.017,0-0.035,0-0.052-0.001c-0.549-0.013-1.06-0.241-1.44-0.64
				c-0.38-0.399-0.582-0.921-0.568-1.469c0.013-0.548,0.24-1.06,0.64-1.439l7.087-6.747c-0.383-1.481,0.064-3.081,1.176-4.14
				c1.177-1.12,2.922-1.467,4.445-0.884l0.616,0.236l-2.054,1.956c-0.489,0.466-0.508,1.242-0.042,1.731
				c0.465,0.489,1.242,0.507,1.731,0.043l2.054-1.956l0.205,0.627c0.508,1.551,0.076,3.277-1.101,4.397
				c-1.112,1.059-2.731,1.427-4.193,0.971l-7.087,6.747C5.065,969.943,4.563,970.144,4.034,970.144z M13.805,955.378
				c-0.863,0-1.713,0.324-2.353,0.934c-0.945,0.9-1.292,2.287-0.883,3.534l0.082,0.25l-7.461,7.104
				c-0.238,0.226-0.373,0.531-0.381,0.857s0.112,0.636,0.339,0.874c0.226,0.238,0.53,0.373,0.856,0.381
				c0.322,0.005,0.637-0.112,0.874-0.339l7.461-7.103l0.246,0.094c1.226,0.469,2.628,0.191,3.573-0.709
				c0.776-0.738,1.148-1.804,1.031-2.852l-1.041,0.991c-0.822,0.782-2.126,0.75-2.909-0.071c-0.782-0.822-0.75-2.127,0.072-2.909
				l1.041-0.991C14.169,955.392,13.986,955.378,13.805,955.378z"/>
		</g>
	</g>
</g>
</svg>
