<?xml version="1.0" encoding="utf-8"?>
<!-- Generator: Adobe Illustrator 16.0.3, SVG Export Plug-In . SVG Version: 6.00 Build 0)  -->
<!DOCTYPE svg PUBLIC "-//W3C//DTD SVG 1.1//EN" "http://www.w3.org/Graphics/SVG/1.1/DTD/svg11.dtd">
<svg version="1.1" id="Ebene_1" xmlns="http://www.w3.org/2000/svg" xmlns:xlink="http://www.w3.org/1999/xlink" x="0px" y="0px"
	 width="283.465px" height="563.596px" viewBox="0 0 283.465 563.596" enable-background="new 0 0 283.465 563.596"
	 xml:space="preserve">
<polygon fill="#8CBEBA" points="0,0 283.465,0 283.465,283.465 0,283.465 0,0 "/>
<path fill="#FFFFFF" d="M26.114,100.649c0-5.214-0.373-6.778-3.502-7.226l-1.639-0.223c-0.596-0.373-0.67-1.565,0.074-1.862
	c6.333-0.373,12.367-0.596,18.699-0.596c6.258,0,11.546,0.447,16.389,2.235c10.057,3.649,15.122,12.143,15.122,21.975
	c0,9.461-4.544,17.581-13.036,22.199c-4.842,2.607-10.951,3.576-16.687,3.576c-4.768,0-9.536-0.597-12.143-0.597
	c-3.128,0-5.811,0.075-9.312,0.224c-0.447-0.224-0.596-1.415-0.149-1.861l1.713-0.225c4.321-0.596,4.47-1.489,4.47-9.312V100.649
	L26.114,100.649z M32.222,127.244c0,3.948,0.224,6.332,1.49,8.12c1.639,2.309,4.47,3.054,9.163,3.054
	c14.452,0,20.933-9.461,20.933-23.316c0-8.194-3.948-22.05-23.466-22.05c-4.396,0-6.779,0.596-7.375,1.042
	c-0.596,0.448-0.745,2.309-0.745,5.662V127.244L32.222,127.244z"/>
<path fill="#FFFFFF" d="M80.338,118.752c0-2.905,0-3.278-2.011-4.619l-0.67-0.448c-0.298-0.298-0.298-1.117,0.074-1.341
	c1.713-0.596,5.662-2.532,7.524-3.65c0.373,0.075,0.596,0.225,0.596,0.521v4.321c0,0.372,0.075,0.596,0.224,0.671
	c2.607-2.161,5.438-4.471,8.195-4.471c1.862,0,3.352,1.192,3.352,2.981c0,2.458-2.011,3.426-3.203,3.426
	c-0.745,0-1.117-0.224-1.639-0.521c-1.118-0.745-2.235-1.192-3.278-1.192c-1.192,0-2.086,0.671-2.682,1.49
	c-0.745,1.043-0.969,3.203-0.969,5.735v10.132c0,5.363,0.149,6.258,2.98,6.48l2.682,0.224c0.521,0.372,0.373,1.639-0.149,1.862
	c-3.501-0.148-5.662-0.224-8.269-0.224c-2.682,0-4.917,0.075-6.854,0.224c-0.521-0.224-0.67-1.49-0.149-1.862l1.415-0.224
	c2.756-0.447,2.831-1.117,2.831-6.48V118.752L80.338,118.752z"/>
<path fill="#FFFFFF" d="M107.441,121.061c-1.937,0-2.011,0.149-2.011,2.012c0,7.524,4.395,13.93,12.366,13.93
	c2.458,0,4.544-0.745,6.854-3.649c0.745-0.224,1.266,0.223,1.341,0.894c-2.459,5.065-7.822,6.928-11.696,6.928
	c-4.842,0-8.641-2.085-10.801-4.917c-2.235-2.904-3.129-6.406-3.129-9.684c0-9.163,6.034-16.836,14.973-16.836
	c6.407,0,10.578,4.396,10.578,8.865c0,1.043-0.148,1.639-0.298,1.938c-0.224,0.446-1.267,0.521-4.395,0.521H107.441L107.441,121.061
	z M112.06,118.826c5.512,0,7.151-0.298,7.747-0.745c0.224-0.148,0.447-0.447,0.447-1.416c0-2.085-1.416-4.692-5.736-4.692
	c-4.395,0-8.194,4.022-8.269,6.481c0,0.148,0,0.372,0.521,0.372H112.06L112.06,118.826z"/>
<path fill="#FFFFFF" d="M150.295,111.079c0.67,1.639,1.191,4.021,1.191,6.034c-0.299,0.521-1.416,0.669-1.787,0.223
	c-1.268-3.278-3.502-5.438-6.557-5.438c-2.905,0-4.767,1.862-4.767,4.544c0,3.054,3.129,4.693,5.736,6.183
	c3.949,2.235,7.598,4.768,7.598,10.057c0,5.662-5.213,8.492-10.726,8.492c-3.501,0-6.108-0.745-7.971-2.234
	c-0.597-1.416-1.043-5.066-0.894-7.524c0.373-0.446,1.34-0.521,1.713-0.074c1.267,4.098,3.65,7.673,7.896,7.673
	c2.682,0,4.991-1.564,4.991-4.768c0-3.427-2.98-5.289-5.736-6.854c-4.32-2.458-7.375-5.065-7.375-9.163
	c0-5.438,4.47-8.492,10.13-8.492C146.868,109.737,149.625,110.483,150.295,111.079L150.295,111.079z"/>
<path fill="#FFFFFF" d="M187.024,129.255c0,5.885,0.074,8.641,2.16,8.641c0.818,0,2.086-0.372,3.203-0.744
	c0.521,0.148,0.596,2.012-0.074,2.384c-3.129,0.446-7.748,1.563-9.834,2.384c-0.447,0-0.82-0.224-0.82-0.596v-1.267
	c0-1.117,0-2.012-0.148-2.31h-0.299c-3.275,2.234-5.811,3.427-9.385,3.427c-8.27,0-13.781-6.481-13.781-14.303
	c0-10.429,7.896-17.134,18.027-17.134c2.531,0,4.172,0.374,4.992,0.671c0.371,0,0.445-0.447,0.445-1.043V98.117
	c0-4.395-0.074-4.842-2.309-6.183l-0.744-0.446c-0.373-0.225-0.373-1.268,0-1.49c1.861-0.596,5.361-1.712,8.045-3.129
	c0.299,0,0.596,0.148,0.744,0.447c-0.074,2.235-0.223,5.959-0.223,9.237V129.255L187.024,129.255z M181.51,118.081
	c0-1.49-0.299-2.16-0.82-2.905c-1.115-1.565-3.352-3.129-6.256-3.129c-6.779,0-10.281,5.884-10.281,12.366
	c0,6.779,3.799,13.185,11.1,13.185c2.012,0,4.545-0.894,5.736-2.085c0.447-0.447,0.521-1.564,0.521-2.757V118.081L181.51,118.081z"
	/>
<path fill="#FFFFFF" d="M202.655,121.061c-1.936,0-2.012,0.149-2.012,2.011c0,7.524,4.396,13.93,12.367,13.93
	c2.457,0,4.545-0.745,6.854-3.65c0.744-0.224,1.266,0.224,1.342,0.894c-2.459,5.065-7.822,6.929-11.697,6.929
	c-4.842,0-8.641-2.086-10.801-4.917c-2.234-2.905-3.129-6.406-3.129-9.684c0-9.163,6.035-16.836,14.973-16.836
	c6.406,0,10.578,4.395,10.578,8.865c0,1.043-0.148,1.639-0.297,1.937c-0.225,0.446-1.268,0.521-4.396,0.521H202.655L202.655,121.061
	z M207.274,118.825c5.512,0,7.152-0.298,7.748-0.744c0.223-0.149,0.445-0.447,0.445-1.416c0-2.086-1.414-4.693-5.734-4.693
	c-4.395,0-8.195,4.023-8.27,6.481c0,0.149,0,0.372,0.521,0.372H207.274L207.274,118.825z"/>
<path fill="#FFFFFF" d="M229.03,118.751c0-2.905,0-3.278-2.012-4.619l-0.67-0.446c-0.299-0.298-0.299-1.118,0.074-1.341
	c1.713-0.597,5.959-2.533,7.449-3.65c0.297,0,0.67,0.149,0.818,0.521c-0.148,1.713-0.148,2.83-0.148,3.501
	c0,0.447,0.299,0.819,0.82,0.819c3.127-1.937,6.629-3.799,10.428-3.799c6.184,0,8.717,4.247,8.717,9.237v12.813
	c0,5.364,0.15,6.108,2.832,6.481l1.639,0.223c0.521,0.373,0.371,1.64-0.15,1.863c-2.234-0.149-4.395-0.224-7.002-0.224
	c-2.682,0-4.916,0.074-6.928,0.224c-0.521-0.224-0.67-1.49-0.15-1.863l1.416-0.223c2.756-0.447,2.832-1.117,2.832-6.481v-11.099
	c0-4.246-1.938-7.375-7.004-7.375c-2.83,0-5.289,1.192-6.332,2.607c-0.969,1.266-1.117,2.309-1.117,4.469v11.397
	c0,5.364,0.148,6.034,2.83,6.481l1.342,0.223c0.521,0.373,0.373,1.64-0.148,1.863c-2.012-0.149-4.172-0.224-6.779-0.224
	c-2.682,0-4.916,0.074-7.002,0.224c-0.521-0.224-0.67-1.49-0.148-1.863l1.563-0.223c2.758-0.373,2.832-1.117,2.832-6.481V118.751
	L229.03,118.751z"/>
<path fill="#FFFFFF" d="M264.858,137.076c0-2.532,1.789-4.395,4.172-4.395c2.533,0,4.172,2.011,4.172,4.395
	s-1.639,4.097-4.172,4.097C266.87,141.173,264.858,139.608,264.858,137.076L264.858,137.076z"/>
<path fill="#BFD8D6" d="M26.114,162.367c0-7.822-0.149-8.715-4.469-9.313l-1.713-0.223c-0.447-0.447-0.298-1.639,0.149-1.863
	c3.501,0.15,6.183,0.225,9.312,0.225c2.607,0,7.375-0.596,12.143-0.596c5.736,0,11.844,0.967,16.687,3.574
	c8.492,4.619,13.036,12.738,13.036,22.199c0,9.834-5.066,18.326-15.123,21.977c-4.842,1.787-10.131,2.234-16.389,2.234
	c-6.332,0-12.366-0.225-18.698-0.596c-0.745-0.299-0.67-1.49-0.074-1.863l1.639-0.223c3.129-0.447,3.501-2.012,3.501-7.227V162.367
	L26.114,162.367z M32.223,191.568c0,3.352,0.149,5.215,0.745,5.662c0.596,0.445,2.98,1.043,7.375,1.043
	c19.517,0,23.465-13.857,23.465-22.051c0-13.855-6.481-23.316-20.933-23.316c-4.693,0-7.524,0.746-9.163,3.055
	c-1.267,1.787-1.49,4.172-1.49,8.119V191.568L32.223,191.568z"/>
<path fill="#BFD8D6" d="M80.34,159.535c0-5.363-0.075-6.033-2.831-6.48l-1.416-0.223c-0.521-0.373-0.373-1.639,0.149-1.863
	c1.937,0.15,4.172,0.225,6.854,0.225c2.607,0,4.768-0.074,8.269-0.225c0.521,0.225,0.67,1.49,0.149,1.863l-2.682,0.223
	c-2.831,0.225-2.98,1.117-2.98,6.48v10.133c0,2.531,0.224,4.691,0.969,5.734c0.596,0.82,1.49,1.49,2.682,1.49
	c1.042,0,2.16-0.447,3.277-1.191c0.521-0.299,0.894-0.521,1.64-0.521c1.192,0,3.203,0.969,3.203,3.426
	c0,1.789-1.489,2.98-3.352,2.98c-2.757,0-5.587-2.309-8.194-4.469c-0.149,0.074-0.224,0.297-0.224,0.67v4.32
	c0,0.299-0.223,0.447-0.596,0.521c-1.863-1.117-5.811-3.055-7.524-3.65c-0.373-0.223-0.373-1.043-0.075-1.34l0.67-0.447
	c2.012-1.342,2.012-1.713,2.012-4.619V159.535L80.34,159.535z"/>
<path fill="#BFD8D6" d="M121.223,170.264c3.129,0,4.172,0.074,4.396,0.521c0.149,0.297,0.298,0.893,0.298,1.936
	c0,4.471-4.172,8.865-10.579,8.865c-8.939,0-14.973-7.672-14.973-16.834c0-3.279,0.894-6.779,3.129-9.686
	c2.16-2.83,5.959-4.916,10.801-4.916c3.874,0,9.238,1.861,11.695,6.928c-0.074,0.67-0.595,1.117-1.34,0.895
	c-2.309-2.906-4.396-3.65-6.854-3.65c-7.971,0-12.366,6.406-12.366,13.93c0,1.861,0.075,2.012,2.011,2.012H121.223L121.223,170.264z
	 M106.771,172.498c-0.521,0-0.521,0.223-0.521,0.373c0.074,2.457,3.874,6.48,8.269,6.48c4.32,0,5.736-2.607,5.736-4.693
	c0-0.969-0.224-1.266-0.446-1.414c-0.597-0.447-2.235-0.746-7.748-0.746H106.771L106.771,172.498z"/>
<path fill="#BFD8D6" d="M143.741,181.586c-5.662,0-10.131-3.055-10.131-8.492c0-4.096,3.054-6.703,7.375-9.162
	c2.756-1.564,5.736-3.428,5.736-6.854c0-3.203-2.311-4.768-4.992-4.768c-4.246,0-6.63,3.576-7.896,7.672
	c-0.372,0.449-1.341,0.373-1.713-0.074c-0.149-2.457,0.298-6.107,0.894-7.523c1.862-1.49,4.47-2.234,7.971-2.234
	c5.512,0,10.727,2.83,10.727,8.492c0,5.289-3.65,7.822-7.598,10.057c-2.608,1.49-5.736,3.129-5.736,6.184
	c0,2.682,1.862,4.543,4.768,4.543c3.055,0,5.289-2.16,6.555-5.438c0.373-0.447,1.49-0.299,1.789,0.223
	c0,2.012-0.521,4.396-1.193,6.035C149.625,180.842,146.87,181.586,143.741,181.586L143.741,181.586z"/>
<path fill="#BFD8D6" d="M187.024,194.771c0,3.277,0.15,7.002,0.223,9.238c-0.148,0.297-0.445,0.445-0.744,0.445
	c-2.68-1.414-6.182-2.531-8.045-3.127c-0.373-0.225-0.373-1.268,0-1.49l0.744-0.447c2.236-1.342,2.311-1.787,2.311-6.184v-11.248
	c0-0.596-0.074-1.043-0.447-1.043c-0.82,0.299-2.459,0.67-4.992,0.67c-10.131,0-18.027-6.703-18.027-17.133
	c0-7.822,5.514-14.303,13.781-14.303c3.576,0,6.109,1.191,9.387,3.426h0.299c0.148-0.297,0.148-1.191,0.148-2.309v-1.266
	c0-0.373,0.373-0.596,0.82-0.596c2.086,0.818,6.703,1.936,9.834,2.383c0.67,0.373,0.596,2.234,0.074,2.385
	c-1.117-0.373-2.385-0.746-3.205-0.746c-2.086,0-2.16,2.758-2.16,8.641V194.771L187.024,194.771z M181.512,158.568
	c0-1.191-0.074-2.311-0.523-2.756c-1.189-1.193-3.723-2.086-5.734-2.086c-7.301,0-11.1,6.406-11.1,13.186
	c0,6.48,3.5,12.365,10.279,12.365c2.906,0,5.141-1.564,6.258-3.129c0.521-0.744,0.82-1.416,0.82-2.904V158.568L181.512,158.568z"/>
<path fill="#BFD8D6" d="M216.438,170.264c3.129,0,4.172,0.074,4.396,0.521c0.148,0.299,0.297,0.895,0.297,1.938
	c0,4.469-4.172,8.863-10.578,8.863c-8.939,0-14.973-7.672-14.973-16.834c0-3.279,0.893-6.779,3.129-9.686
	c2.16-2.83,5.959-4.916,10.801-4.916c3.873,0,9.236,1.863,11.695,6.928c-0.074,0.67-0.596,1.117-1.342,0.895
	c-2.309-2.906-4.395-3.65-6.852-3.65c-7.973,0-12.367,6.406-12.367,13.93c0,1.863,0.074,2.012,2.012,2.012H216.438L216.438,170.264z
	 M201.987,172.498c-0.521,0-0.521,0.225-0.521,0.373c0.074,2.459,3.873,6.48,8.27,6.48c4.32,0,5.734-2.607,5.734-4.693
	c0-0.969-0.223-1.266-0.447-1.414c-0.596-0.447-2.234-0.746-7.746-0.746H201.987L201.987,172.498z"/>
<path fill="#BFD8D6" d="M229.03,159.537c0-5.363-0.074-6.109-2.83-6.48l-1.564-0.225c-0.521-0.371-0.371-1.639,0.15-1.861
	c2.084,0.148,4.32,0.223,7.002,0.223c2.605,0,4.768-0.074,6.777-0.223c0.523,0.223,0.672,1.49,0.15,1.861l-1.342,0.225
	c-2.682,0.445-2.83,1.117-2.83,6.48v11.398c0,2.158,0.148,3.201,1.117,4.469c1.043,1.414,3.5,2.607,6.332,2.607
	c5.066,0,7.004-3.129,7.004-7.375v-11.1c0-5.363-0.076-6.035-2.832-6.48l-1.416-0.225c-0.521-0.371-0.371-1.639,0.148-1.861
	c2.014,0.148,4.246,0.223,6.93,0.223c2.607,0,4.766-0.074,7.002-0.223c0.521,0.223,0.67,1.49,0.148,1.861l-1.639,0.225
	c-2.682,0.371-2.832,1.117-2.832,6.48v12.813c0,4.99-2.531,9.236-8.715,9.236c-3.799,0-7.301-1.861-10.428-3.799
	c-0.523,0-0.82,0.373-0.82,0.82c0,0.67,0,1.787,0.148,3.5c-0.148,0.373-0.521,0.521-0.82,0.521
	c-1.488-1.117-5.734-3.053-7.449-3.648c-0.371-0.225-0.371-1.043-0.074-1.342l0.672-0.447c2.01-1.34,2.01-1.713,2.01-4.619V159.537
	L229.03,159.537z"/>
<path fill="#BFD8D6" d="M269.032,150.15c2.533,0,4.172,1.713,4.172,4.098c0,2.383-1.639,4.395-4.172,4.395
	c-2.385,0-4.172-1.861-4.172-4.395S266.872,150.15,269.032,150.15L269.032,150.15z"/>
<g>
	<g>
		<g>
			<path fill="#8CBEBA" d="M279.465,284.131v275.465H4V284.131H279.465 M283.465,280.132H0v283.464h283.465V280.132L283.465,280.132
				z"/>
		</g>
	</g>
	<g>
		<path fill="#8CBEBA" d="M23.653,360.632h18.801v101.919h45.517v15.832H23.653V360.632z"/>
		<path fill="#8CBEBA" d="M98.688,360.632h18.801v47.167h34.632v-47.167h18.801v117.751h-18.801v-54.752h-34.632v54.752H98.688
			V360.632z"/>
		<path fill="#8CBEBA" d="M190.053,360.632h37.271c22.594,0,32.489,14.183,32.489,34.303c0,21.109-12.369,34.798-34.468,34.798
			h-16.492v48.65h-18.8V360.632z M208.853,415.55h13.358c10.061,0,18.801-5.442,18.801-20.285c0-12.698-5.112-20.45-20.12-20.45
			h-12.039V415.55z"/>
	</g>
</g>
<g>
</g>
<g>
</g>
<g>
</g>
<g>
</g>
<g>
</g>
<g>
</g>
</svg>
