<?xml version="1.0" encoding="utf-8"?>
<!-- Generator: Adobe Illustrator 16.0.3, SVG Export Plug-In . SVG Version: 6.00 Build 0)  -->
<!DOCTYPE svg PUBLIC "-//W3C//DTD SVG 1.1//EN" "http://www.w3.org/Graphics/SVG/1.1/DTD/svg11.dtd">
<svg version="1.1" xmlns="http://www.w3.org/2000/svg" xmlns:xlink="http://www.w3.org/1999/xlink" x="0px" y="0px" width="20px"
	 height="20px" viewBox="0 0 20 20" enable-background="new 0 0 20 20" xml:space="preserve">
<g id="Ebene_1">
</g>
<g id="Ebene_4">
	<g>
		<path fill="#F2F2F2" d="M-3.326,19.468c0.021,0.112,0.135,0.187,0.246,0.166l2.914-0.545c0.109-0.021,0.183-0.129,0.162-0.243
			l-0.512-2.749l-3.32,0.62L-3.326,19.468z"/>
	</g>
	<g>
		<g>
			<path fill="#F2F2F2" d="M16.006,8.14c0.508,0,0.916,0.41,0.916,0.918s-0.408,0.918-0.916,0.918c-0.503,0-0.909-0.41-0.909-0.918
				S15.503,8.14,16.006,8.14z"/>
			<ellipse fill="#F2F2F2" cx="3.048" cy="9.058" rx="0.908" ry="0.918"/>
			<ellipse fill="#F2F2F2" cx="7.403" cy="2.095" rx="1.307" ry="1.318"/>
			<path fill="#F2F2F2" d="M9.268,9.609C8.975,9.33,8.818,8.921,8.866,8.511L9.6,3.873L4.94,3.878L4.072,10.22H3.048h-1.3L0,14.129
				l0.596-0.022l1.064-2.132l0.203,0.003l-0.406,4.471h0.554l0.356,2.76l0.569,0.015l0.007-2.774h0.073h0.062h0.074l0.006,2.774
				l0.57-0.015l0.355-2.76h0.555l-0.407-4.471l0.203-0.003l0.849,1.692l-0.299,5.505h1.145l1.233-7.561l1.195,7.563h1.197
				L9.268,9.609z M4.843,11.333l0.499-4.111h0.285l-0.285,5.232L4.843,11.333z"/>
			<polygon fill="#F2F2F2" points="20,14.197 16.988,10.24 14.893,10.237 13.994,11.461 13.74,9.206 10.128,9.95 9.755,14.467 
				10.537,14.468 11.04,19.155 11.846,19.174 11.863,14.468 12.203,14.468 12.197,19.155 12.937,19.155 13.505,14.468 
				14.328,14.462 14.131,12.721 14.683,12.216 14.304,19.194 15.127,19.194 16.02,14.778 17.191,19.223 17.881,19.223 
				17.362,12.165 19.561,14.566 			"/>
			<path fill="#F2F2F2" d="M12.32,1.519c-0.11-0.049-0.232-0.08-0.357-0.094c-0.681-0.067-1.281,0.431-1.348,1.109
				c-0.068,0.684,0.428,1.289,1.1,1.357c0.429,0.04,0.831-0.146,1.081-0.459c0.339,0.286,0.772,1.224,1.459-0.04
				C13.382,4.093,13.408,1.898,12.32,1.519z"/>
			<path fill="#F2F2F2" d="M14.561,7.713L14.036,4.4H9.763L9.111,8.544C9.072,8.902,9.224,9.259,9.502,9.488
				c0.193,0.127,0.415,0.203,0.664,0.203L12.561,9.2l-0.479-1.196c-0.398,0.154-1.021,0.391-1.388,0.518
				c-0.234,0.078-0.417-0.252-0.391-0.495l0.121-1.009L9.912,7.212L9.699,7.02l0.855-0.433c0.107-0.055,0.275-0.02,0.295,0.101
				c0.039,0.249,0,0.778,0,0.778l0.965-0.373c0.169-0.066,0.363,0.019,0.431,0.188l0.128,0.322l0.098,0.254l0.098,0.263v1.077
				l0.815-0.166C13.942,8.938,14.639,8.415,14.561,7.713z M13.239,7.71c-0.303,0.117-0.651-0.035-0.769-0.342
				c-0.117-0.303,0.037-0.647,0.34-0.767c0.305-0.119,0.652,0.034,0.771,0.338C13.701,7.247,13.545,7.592,13.239,7.71z"/>
		</g>
	</g>
	<g>
		<path fill="#F2F2F2" d="M40,2.686h-3.263c-0.219-1.074-1.17-1.882-2.305-1.882c-1.136,0-2.089,0.808-2.306,1.882H20v0.94h12.127
			c0.217,1.072,1.17,1.883,2.306,1.883c1.135,0,2.086-0.812,2.305-1.883H40V2.686z M34.433,4.569c-0.78,0-1.41-0.634-1.41-1.413
			c0-0.78,0.63-1.41,1.41-1.41c0.778,0,1.41,0.63,1.41,1.41C35.843,3.935,35.211,4.569,34.433,4.569z"/>
		<path fill="#F2F2F2" d="M40,9.529H27.325c-0.218-1.072-1.17-1.882-2.306-1.882c-1.134,0-2.087,0.81-2.305,1.882H20v0.94h2.715
			c0.218,1.074,1.171,1.883,2.305,1.883c1.136,0,2.088-0.809,2.306-1.883H40V9.529z M25.02,11.41c-0.78,0-1.41-0.631-1.41-1.411
			c0-0.777,0.63-1.413,1.41-1.413c0.778,0,1.411,0.635,1.411,1.413C26.431,10.779,25.798,11.41,25.02,11.41z"/>
		<path fill="#F2F2F2" d="M40,16.374h-6.088c-0.219-1.072-1.171-1.883-2.306-1.883s-2.088,0.812-2.305,1.883H20v0.939h9.302
			c0.217,1.074,1.17,1.883,2.305,1.883s2.087-0.809,2.306-1.883H40V16.374z M31.606,18.253c-0.779,0-1.41-0.63-1.41-1.41
			c0-0.778,0.631-1.413,1.41-1.413s1.416,0.634,1.416,1.413C33.022,17.624,32.386,18.253,31.606,18.253z"/>
	</g>
</g>
</svg>
