<?xml version="1.0" encoding="utf-8"?>
<!-- Generator: Adobe Illustrator 16.0.3, SVG Export Plug-In . SVG Version: 6.00 Build 0)  -->
<!DOCTYPE svg PUBLIC "-//W3C//DTD SVG 1.1//EN" "http://www.w3.org/Graphics/SVG/1.1/DTD/svg11.dtd">
<svg version="1.1" xmlns="http://www.w3.org/2000/svg" xmlns:xlink="http://www.w3.org/1999/xlink" x="0px" y="0px" width="20px"
	 height="20px" viewBox="0 0 20 20" enable-background="new 0 0 20 20" xml:space="preserve">
<g id="Ebene_1">
</g>
<g id="Ebene_4">
	<g>
		<path fill="#333333" d="M6.984,14.147c0.589,1.506,1.962,2.573,3.676,2.573c1.714,0,3.086-1.068,3.676-2.573H6.984z"/>
		<path fill="#333333" d="M7.536,7.899c-0.712,0-1.287,0.576-1.287,1.286c0,0.711,0.575,1.287,1.287,1.287
			c0.71,0,1.286-0.576,1.286-1.287C8.822,8.476,8.247,7.899,7.536,7.899"/>
		<path fill="#333333" d="M13.784,7.899c-0.711,0-1.286,0.576-1.286,1.286c0,0.711,0.575,1.287,1.286,1.287s1.287-0.576,1.287-1.287
			C15.071,8.476,14.495,7.899,13.784,7.899"/>
		<path fill="#333333" d="M15.576,2.788c-0.063,0-0.041,0.044-0.085,0C8.579-4.126,4.304,5.893,0.514,4.989V4.99
			c-0.045-0.02-0.095-0.032-0.147-0.032C0.164,4.958,0,5.123,0,5.325c0,0.132,0.072,0.242,0.175,0.307
			c0,0.002-0.001,0.004-0.002,0.006c1.413,0.854,5.223,2.262,6.994,2.262c3.196,0,6.019-1.602,7.711-4.046
			c-0.111,0.412-0.176,0.842-0.176,1.289c0,2.74,2.222,4.962,4.962,4.962c0.113,0,0.224-0.009,0.335-0.017
			C19.849,5.693,18.453,2.788,15.576,2.788"/>
		<path fill="#333333" d="M17.999,10.587c0.003,0.084,0.013,0.167,0.013,0.252c0,4.054-3.298,7.352-7.352,7.352
			s-7.351-3.298-7.351-7.352c0-1.014,0.207-1.981,0.58-2.861C3.42,7.831,2.95,7.668,2.495,7.498
			c-0.422,1.031-0.656,2.159-0.656,3.341c0,4.873,3.949,8.822,8.821,8.822c4.872,0,8.822-3.949,8.822-8.822
			c0-0.002-0.001-0.005-0.001-0.008C18.966,10.814,18.47,10.731,17.999,10.587"/>
	</g>
	<g>
		<path fill="#333333" d="M32.093,15.042c-2.326-0.931-3.721-2.094-5.116-3.256c0,0,0.291,0.291,0,0
			c-1.396,1.162-4.651,3.022-4.651,3.022l-0.931-1.395c1.861-1.163,2.326-1.396,4.419-3.023c-0.479-0.446-2.791-3.023-3.023-4.419
			h1.86c0.931,2.093,2.326,3.256,2.326,3.256c2.325-1.86,2.325-4.419,2.325-4.419h1.86c0,0-0.232,3.023-2.791,5.582l0,0
			c1.163,1.163,2.326,2.093,4.418,3.023L32.093,15.042z M20,4.809h13.023v-1.86h-5.349V1.32h-2.093v1.628H20V4.809z"/>
	</g>
</g>
</svg>
