<?xml version="1.0" encoding="utf-8"?>
<!-- Generator: Adobe Illustrator 16.0.3, SVG Export Plug-In . SVG Version: 6.00 Build 0)  -->
<!DOCTYPE svg PUBLIC "-//W3C//DTD SVG 1.1//EN" "http://www.w3.org/Graphics/SVG/1.1/DTD/svg11.dtd">
<svg version="1.1" xmlns="http://www.w3.org/2000/svg" xmlns:xlink="http://www.w3.org/1999/xlink" x="0px" y="0px" width="20px"
	 height="20px" viewBox="0 0 20 20" enable-background="new 0 0 20 20" xml:space="preserve">
<g id="Ebene_1">
</g>
<g id="Ebene_4">
	<g>
		<path fill="#323232" d="M10.074,5.746c0.597-0.016,1.074-0.273,1.067-0.577l-0.003-0.022c-0.029-0.295-0.513-0.514-1.092-0.497
			C9.448,4.664,8.97,4.923,8.979,5.226C8.989,5.53,9.478,5.761,10.074,5.746z"/>
		<path fill="#323232" d="M17.392,12.986c0.666-0.703-0.033-2.532-1.561-4.086c-1.057-1.076-2.232-1.737-3.08-1.81
			c0.736-0.7,1.187-1.684,1.172-2.763c0.299-0.034,0.57-0.147,0.783-0.349l0.049-0.053c0.634-0.681,0.426-1.984-0.472-2.955
			c-0.926-0.997-2.235-1.271-2.929-0.61c-0.111,0.109-0.199,0.238-0.266,0.379c-0.35-0.092-0.716-0.138-1.094-0.129
			c-0.426,0.012-0.83,0.095-1.21,0.229C8.721,0.741,8.643,0.651,8.55,0.572C7.827-0.05,6.53,0.292,5.659,1.338
			c-0.846,1.016-0.987,2.328-0.32,2.975l0.055,0.048c0.237,0.207,0.541,0.306,0.87,0.31c0.07,0.947,0.494,1.791,1.142,2.413
			C6.552,7.081,5.294,7.755,4.169,8.899c-1.528,1.554-2.227,3.384-1.561,4.086c0.612,0.648,2.171,0.11,3.607-1.194
			c-0.001,0.098-0.006,0.194-0.006,0.285c0,0.603,0.093,1.227,0.29,1.808c-0.285,0.33-0.556,0.716-0.791,1.152
			c-0.255,0.476-0.44,0.973-0.577,1.445c-1.524-0.029-1.795,0.115-2.066,0.812c-0.264,0.681,0.379,1.514,0.938,1.975
			c0.737,0.604,2.017,0.835,2.761,0.689c0.548-0.107,1.122-0.391,1.506-0.88c0.447-0.566,0.593-0.795,0.984-1.519
			c0.2-0.371,0.361-0.749,0.488-1.123c0.107,0.005,0.214,0.012,0.324,0.011c0.11,0,0.217-0.005,0.321-0.014
			c0.126,0.376,0.291,0.755,0.489,1.126c0.391,0.723,0.54,0.953,0.985,1.519c0.385,0.489,0.958,0.772,1.505,0.88
			c0.746,0.146,2.026-0.084,2.762-0.689c0.558-0.46,1.201-1.294,0.938-1.974c-0.272-0.697-0.541-0.842-2.067-0.813
			c-0.134-0.471-0.32-0.969-0.576-1.445c-0.236-0.434-0.504-0.819-0.788-1.149c0.197-0.582,0.286-1.206,0.286-1.811
			c0-0.054-0.002-0.109-0.004-0.167C15.316,13.13,16.797,13.614,17.392,12.986z M10.031,4.025c1.106-0.029,2.035,0.719,2.105,1.691
			v0.076c0.027,1.007-0.872,1.846-2.012,1.876c-1.138,0.03-2.081-0.764-2.106-1.771C7.993,4.894,8.892,4.056,10.031,4.025z"/>
	</g>
	<g>
		<path fill="#F2F2F2" d="M17.392,32.986c0.666-0.703-0.033-2.532-1.561-4.086c-1.057-1.076-2.232-1.737-3.08-1.81
			c0.736-0.7,1.187-1.684,1.172-2.763c0.299-0.034,0.57-0.147,0.783-0.349l0.049-0.053c0.634-0.681,0.426-1.984-0.472-2.955
			c-0.926-0.997-2.235-1.271-2.929-0.61c-0.111,0.109-0.199,0.238-0.266,0.379c-0.35-0.092-0.716-0.138-1.094-0.129
			c-0.426,0.012-0.83,0.095-1.21,0.229c-0.063-0.099-0.141-0.188-0.234-0.268c-0.723-0.622-2.02-0.28-2.891,0.767
			c-0.846,1.016-0.987,2.328-0.32,2.975l0.055,0.048c0.237,0.207,0.541,0.306,0.87,0.31c0.07,0.947,0.494,1.791,1.142,2.413
			c-0.854-0.003-2.112,0.671-3.237,1.815c-1.528,1.554-2.227,3.384-1.561,4.086c0.612,0.648,2.171,0.11,3.607-1.194
			c-0.001,0.098-0.006,0.194-0.006,0.285c0,0.603,0.093,1.227,0.29,1.808c-0.285,0.33-0.556,0.716-0.791,1.152
			c-0.255,0.476-0.44,0.973-0.577,1.445c-1.524-0.029-1.795,0.115-2.066,0.812c-0.264,0.681,0.379,1.514,0.938,1.975
			c0.737,0.604,2.017,0.835,2.761,0.689c0.548-0.107,1.122-0.391,1.506-0.88c0.447-0.566,0.593-0.795,0.984-1.519
			c0.2-0.371,0.361-0.749,0.488-1.123c0.107,0.005,0.214,0.012,0.324,0.011c0.11,0,0.217-0.005,0.321-0.014
			c0.126,0.376,0.291,0.755,0.489,1.126c0.391,0.723,0.54,0.953,0.985,1.519c0.385,0.489,0.958,0.772,1.505,0.88
			c0.746,0.146,2.026-0.084,2.762-0.689c0.558-0.46,1.201-1.294,0.938-1.974c-0.272-0.697-0.541-0.842-2.067-0.813
			c-0.134-0.471-0.32-0.969-0.576-1.445c-0.236-0.434-0.504-0.819-0.788-1.149c0.197-0.582,0.286-1.206,0.286-1.811
			c0-0.054-0.002-0.109-0.004-0.167C15.316,33.13,16.797,33.614,17.392,32.986z M10.031,24.025c1.106-0.029,2.035,0.719,2.105,1.691
			v0.076c0.027,1.007-0.872,1.846-2.012,1.876c-1.138,0.03-2.081-0.764-2.106-1.771C7.993,24.894,8.892,24.056,10.031,24.025z"/>
	</g>
</g>
</svg>
