<?xml version="1.0" encoding="utf-8"?>
<!-- Generator: Adobe Illustrator 16.0.3, SVG Export Plug-In . SVG Version: 6.00 Build 0)  -->
<!DOCTYPE svg PUBLIC "-//W3C//DTD SVG 1.1//EN" "http://www.w3.org/Graphics/SVG/1.1/DTD/svg11.dtd">
<svg version="1.1" xmlns="http://www.w3.org/2000/svg" xmlns:xlink="http://www.w3.org/1999/xlink" x="0px" y="0px" width="20px"
	 height="20px" viewBox="0 0 20 20" enable-background="new 0 0 20 20" xml:space="preserve">
<g id="Ebene_1">
</g>
<g id="Ebene_4">
	<g>
		<rect x="6.667" y="-20" fill="#333333" width="6.667" height="20"/>
	</g>
	<g>
		<g>
			<path fill="#F2F2F2" d="M27.843,6.959c0.025-0.254,0.146-0.649,0.196-0.8c-0.568-0.162-1.299-0.285-1.932-0.285
				c-0.27,0-0.543,0.017-0.82,0.051c-3.204,0.374-5.559,2.843-5.262,5.514c0.158,1.412,1.028,2.598,2.284,3.346
				c0.062,0.593-0.146,1.346-1.124,2.119c-0.156,0.121,0.057,0.26,0.487,0.26c0.669,0,1.867-0.336,3.013-1.576
				c0.284,0.036,0.573,0.056,0.869,0.056c0.269,0,0.541-0.015,0.814-0.048c2.129-0.25,3.871-1.331,4.824-3.106
				C29.045,11.416,27.588,9.392,27.843,6.959z M26.713,13.771l-0.431-1.594h-1.617l-0.416,1.594h-1.178l1.711-6.033h1.459
				l1.687,6.033H26.713z"/>
		</g>
	</g>
	<g>
		<rect x="6.667" fill="#F2F2F2" width="6.667" height="20"/>
		<rect y="6.667" fill="#F2F2F2" width="20" height="6.665"/>
	</g>
</g>
</svg>
