<?xml version="1.0" encoding="utf-8"?>
<!-- Generator: Adobe Illustrator 16.0.3, SVG Export Plug-In . SVG Version: 6.00 Build 0)  -->
<!DOCTYPE svg PUBLIC "-//W3C//DTD SVG 1.1//EN" "http://www.w3.org/Graphics/SVG/1.1/DTD/svg11.dtd">
<svg version="1.1" xmlns="http://www.w3.org/2000/svg" xmlns:xlink="http://www.w3.org/1999/xlink" x="0px" y="0px" width="20px"
	 height="20px" viewBox="0 0 20 20" enable-background="new 0 0 20 20" xml:space="preserve">
<g id="Ebene_1">
</g>
<g id="Ebene_4">
	<path fill="#323232" d="M15.278-17.274c-0.476-0.261-0.723,0.11-0.845,0.276c-0.122,0.167-1.66,2.568-1.66,2.568
		s-0.171,0.048-0.123-0.198c0.044-0.247,0.83-3.507,0.83-3.507s0.198-1.092-0.31-1.169c-0.506-0.078-0.661,0.292-0.753,0.629
		c-0.089,0.339-0.997,3.538-0.997,3.538s-0.264,0.355-0.28-0.044c-0.013-0.4-0.073-3.847-0.073-3.847s0.06-1.03-0.648-0.968
		c-0.708,0.061-0.63,0.723-0.63,0.723l0.061,3.998c0,0-0.275,0.446-0.401,0.064c-0.119-0.386-1.243-3.506-1.243-3.506
		s-0.215-0.479-0.74-0.28c-0.519,0.203-0.323,0.785-0.323,0.785l1,3.445c0,0,0.093,0.291,0.093,0.583c0,0.293-0.14,1-0.14,1
		l-0.115,0.269c-0.009,0-0.019,0-0.029,0c0,0,0.01,0,0.029,0.001l-0.029,0.06c-0.076,0.008-0.117,0.009-0.117,0.009
		c-1.169-1.876-2.832-1.75-2.832-1.75s-0.614,0.184-0.429,0.611c0.185,0.434,0.311,0.123,1.109,0.893
		c0.797,0.77,1.077,1.536,1.202,1.814c0.12,0.276,0.645,1.106,1.197,1.448c0.554,0.338,0.83,0.52,0.83,0.52L8.642,0l4.028-0.352
		l-0.313-8.773c0,0,1.016-0.585,1.323-2.706l0.075-1.569c0,0-0.011-0.121,0.096-0.322c0.107-0.199,1.274-2.246,1.274-2.246
		S15.756-17.014,15.278-17.274z M10.697-10.875c-0.033-0.078-0.067-0.149-0.099-0.224c-0.545-1.638-2.372-1.8-2.617-1.815v-0.002
		C10.816-12.937,10.697-10.875,10.697-10.875z"/>
	<path fill="#323232" d="M29.375,0L20-2.5v-15l9.375,2.5V0z M40-17.5L30.625-15V0L40-2.5V-17.5z M30-16.127l7.5-2V-20L30-16.25
		L22.5-20v1.873L30-16.127z"/>
	<path fill="#F2F2F2" d="M15.278,2.726c-0.476-0.261-0.723,0.11-0.845,0.276c-0.122,0.167-1.66,2.568-1.66,2.568
		s-0.171,0.048-0.123-0.198c0.044-0.247,0.83-3.507,0.83-3.507s0.198-1.092-0.31-1.169c-0.506-0.078-0.661,0.292-0.753,0.629
		c-0.089,0.339-0.997,3.538-0.997,3.538s-0.264,0.355-0.28-0.044c-0.013-0.4-0.073-3.847-0.073-3.847s0.06-1.03-0.648-0.968
		c-0.708,0.061-0.63,0.723-0.63,0.723L9.85,4.724c0,0-0.275,0.446-0.401,0.064C9.329,4.402,8.206,1.282,8.206,1.282
		s-0.215-0.479-0.74-0.28C6.946,1.205,7.143,1.787,7.143,1.787l1,3.445c0,0,0.093,0.291,0.093,0.583c0,0.293-0.14,1-0.14,1
		L7.981,7.083c-0.009,0-0.019,0-0.029,0c0,0,0.01,0,0.029,0.001l-0.029,0.06C7.877,7.153,7.835,7.154,7.835,7.154
		c-1.169-1.876-2.832-1.75-2.832-1.75S4.39,5.588,4.575,6.016C4.76,6.45,4.886,6.139,5.684,6.909
		c0.797,0.77,1.077,1.536,1.202,1.814c0.12,0.276,0.645,1.106,1.197,1.448c0.554,0.338,0.83,0.52,0.83,0.52L8.642,20l4.028-0.352
		l-0.313-8.773c0,0,1.016-0.585,1.323-2.706L13.755,6.6c0,0-0.011-0.121,0.096-0.322c0.107-0.199,1.274-2.246,1.274-2.246
		S15.756,2.986,15.278,2.726z M10.697,9.125c-0.033-0.078-0.067-0.149-0.099-0.224c-0.545-1.638-2.372-1.8-2.617-1.815V7.084
		C10.816,7.063,10.697,9.125,10.697,9.125z"/>
	<path fill="#F2F2F2" d="M29.375,20L20,17.5v-15L29.375,5V20z M40,2.5L30.625,5v15L40,17.5V2.5z M30,3.873l7.5-2V0L30,3.75L22.5,0
		v1.873L30,3.873z"/>
</g>
</svg>
