<?xml version="1.0" encoding="utf-8"?>
<!-- Generator: Adobe Illustrator 16.0.3, SVG Export Plug-In . SVG Version: 6.00 Build 0)  -->
<!DOCTYPE svg PUBLIC "-//W3C//DTD SVG 1.1//EN" "http://www.w3.org/Graphics/SVG/1.1/DTD/svg11.dtd">
<svg version="1.1" xmlns="http://www.w3.org/2000/svg" xmlns:xlink="http://www.w3.org/1999/xlink" x="0px" y="0px" width="20px"
	 height="20px" viewBox="0 0 20 20" enable-background="new 0 0 20 20" xml:space="preserve">
<g id="Ebene_1">
</g>
<g id="Ebene_4">
	<g id="Слой_1_4_">
		<path fill="#323232" d="M30,0c-5.512,0-10-4.489-10-10s4.488-10,10-10c5.511,0,10,4.489,10,10S35.511,0,30,0z M30-19.444
			c-5.2,0-9.444,4.243-9.444,9.444c0,5.2,4.244,9.444,9.444,9.444c5.2,0,9.443-4.244,9.443-9.444
			C39.443-15.201,35.2-19.444,30-19.444z"/>
	</g>
	<g>
	</g>
	<g id="Слой_1_1_">
		<path fill="#F2F2F2" d="M30,20c-5.512,0-10-4.489-10-10S24.488,0,30,0c5.511,0,10,4.489,10,10S35.511,20,30,20z M30,0.556
			c-5.2,0-9.444,4.243-9.444,9.444c0,5.2,4.244,9.444,9.444,9.444c5.2,0,9.443-4.244,9.443-9.444C39.443,4.799,35.2,0.556,30,0.556z
			"/>
	</g>
	<g>
		<g>
			<path fill="#F2F2F2" d="M13.905,7.737c0.021,0.35,0.042,0.672,0.091,0.952c0.273-0.286,0.511-0.651,0.686-1.051
				C14.584,7.625,14.221,7.651,13.905,7.737z"/>
			<path fill="#F2F2F2" d="M12.175,9.187c0,0.397,0.301,0.385,0.392,0.376c0.218-0.004,0.455-0.103,0.7-0.264
				c-0.077-0.372-0.126-0.808-0.161-1.282C12.553,8.291,12.175,8.717,12.175,9.187z"/>
			<path fill="#F2F2F2" d="M19.975,8.4c0.297-2.67-2.047-5.141-5.234-5.516c-0.275-0.032-0.547-0.048-0.816-0.048
				c-2.841,0-5.223,1.764-5.494,4.205c-0.298,2.67,2.045,5.138,5.234,5.513c0.274,0.033,0.543,0.05,0.81,0.05
				c0.294,0,0.582-0.021,0.864-0.056c1.143,1.24,2.332,1.576,3,1.576c0.427,0,0.639-0.139,0.483-0.262
				c-0.973-0.771-1.18-1.526-1.118-2.118C18.954,10.997,19.817,9.813,19.975,8.4z M15.343,10.752l-0.331-0.706
				c0.833-0.21,1.346-0.604,1.346-1.246c0-0.231-0.077-0.778-0.833-1.021C15.216,8.479,14.747,9.13,14.2,9.6
				c0.029,0.091,0.208,0.409,0.242,0.48l-0.721,0.463c-0.036-0.069-0.213-0.391-0.242-0.476c-0.35,0.196-0.735,0.323-1.128,0.323
				c-0.615,0-1.022-0.393-1.022-1.044c0-0.967,0.744-1.73,1.738-2.136C13.05,6.909,13.05,6.601,13.05,6.28
				c-0.525,0.014-1.092,0.027-1.372,0.02l-0.044-0.82c0.323,0.009,0.911,0.009,1.431,0.009c0.013-0.302,0.021-0.652,0.034-0.945
				l0.914,0.069c-0.014,0.068-0.037,0.624-0.058,0.848c0.764-0.036,1.722-0.126,2.5-0.293l0.077,0.846
				c-0.77,0.141-1.779,0.21-2.62,0.238c-0.007,0.245-0.014,0.483-0.014,0.715c0.293-0.069,0.722-0.111,1.05-0.091
				c0.029-0.105,0.049-0.21,0.056-0.315l0.863,0.217c-0.021,0.078-0.043,0.154-0.057,0.232c1.016,0.281,1.464,0.989,1.464,1.771
				C17.275,9.741,16.656,10.436,15.343,10.752z"/>
		</g>
		<g>
			<path fill="#F2F2F2" d="M7.843,6.959c0.025-0.254,0.146-0.649,0.196-0.8C7.47,5.998,6.739,5.875,6.107,5.875
				c-0.27,0-0.543,0.017-0.82,0.051c-3.204,0.374-5.559,2.843-5.262,5.514c0.158,1.412,1.028,2.598,2.284,3.346
				c0.062,0.593-0.146,1.346-1.124,2.119c-0.156,0.121,0.057,0.26,0.487,0.26c0.669,0,1.867-0.336,3.013-1.576
				c0.284,0.036,0.573,0.056,0.869,0.056c0.269,0,0.541-0.015,0.814-0.048c2.129-0.25,3.871-1.331,4.824-3.106
				C9.045,11.416,7.588,9.392,7.843,6.959z M6.713,13.771l-0.431-1.594H4.665l-0.416,1.594H3.071l1.711-6.033h1.459l1.687,6.033
				H6.713z"/>
			<path fill="#F2F2F2" d="M5.481,8.696H5.457C5.379,9.073,5.277,9.565,5.19,9.918l-0.36,1.38h1.287l-0.361-1.37
				C5.66,9.549,5.56,9.064,5.481,8.696z"/>
		</g>
	</g>
	<g>
		<rect x="-20" y="6.667" fill="#F2F2F2" width="20" height="6.665"/>
	</g>
</g>
</svg>
