<?xml version="1.0" encoding="utf-8"?>
<!-- Generator: Adobe Illustrator 16.0.3, SVG Export Plug-In . SVG Version: 6.00 Build 0)  -->
<!DOCTYPE svg PUBLIC "-//W3C//DTD SVG 1.1//EN" "http://www.w3.org/Graphics/SVG/1.1/DTD/svg11.dtd">
<svg version="1.1" xmlns="http://www.w3.org/2000/svg" xmlns:xlink="http://www.w3.org/1999/xlink" x="0px" y="0px" width="20px"
	 height="20px" viewBox="0 0 20 20" enable-background="new 0 0 20 20" xml:space="preserve">
<g id="Ebene_1">
</g>
<g id="Ebene_4">
	<g id="WATER_2_">
		<path fill="#323232" d="M-10,0C-15.515,0-20,4.485-20,10c0,5.515,4.485,10,10,10c5.514,0,10-4.485,10-10C0,4.485-4.486,0-10,0z
			 M-5.653,3.04l-1.162,2.016l-0.501-0.291l1.161-2.014L-5.653,3.04z M-3.041,5.652l0.29,0.502l-2.015,1.162l-0.29-0.502
			L-3.041,5.652z M-4.125,9.708H-1.8v0.582h-2.325V9.708z M-10,18.606c-4.746,0-8.607-3.861-8.607-8.607
			c0-4.648,3.706-8.445,8.316-8.6V10c0,0.102,0.055,0.196,0.141,0.248l7.358,4.446C-4.329,17.047-6.985,18.606-10,18.606z"/>
	</g>
	<g>
	</g>
	<g>
		<path fill="#323232" d="M8.118,14.1c0-1.193,0.148-2.144,0.444-2.852c0.295-0.709,0.88-1.487,1.754-2.334
			c0.874-0.848,1.427-1.452,1.66-1.81c0.359-0.545,0.538-1.136,0.538-1.772c0-0.84-0.208-1.483-0.625-1.925
			c-0.417-0.442-1.028-0.665-1.835-0.665c-0.771,0-1.391,0.216-1.861,0.65C7.722,3.825,7.486,4.412,7.486,5.152H4.22
			C4.238,3.565,4.778,2.31,5.84,1.386C6.902,0.461,8.307,0,10.054,0c1.801,0,3.206,0.457,4.214,1.372
			c1.008,0.915,1.512,2.193,1.512,3.834c0,1.463-0.681,2.902-2.043,4.319l-1.653,1.627c-0.592,0.673-0.896,1.656-0.914,2.947H8.118z
			 M7.89,18.273c0-0.526,0.166-0.953,0.498-1.279c0.332-0.325,0.779-0.488,1.344-0.488c0.574,0,1.026,0.167,1.358,0.502
			s0.497,0.757,0.497,1.266c0,0.491-0.161,0.901-0.484,1.232C10.78,19.835,10.323,20,9.731,20c-0.591,0-1.046-0.165-1.364-0.495
			C8.049,19.174,7.89,18.764,7.89,18.273z"/>
	</g>
	<g>
		<path fill="#F2F2F2" d="M8.118,34.1c0-1.193,0.148-2.144,0.444-2.852c0.295-0.709,0.88-1.487,1.754-2.334
			c0.874-0.848,1.427-1.452,1.66-1.81c0.359-0.545,0.538-1.136,0.538-1.772c0-0.84-0.208-1.483-0.625-1.925
			c-0.417-0.442-1.028-0.665-1.835-0.665c-0.771,0-1.391,0.216-1.861,0.65c-0.471,0.434-0.706,1.021-0.706,1.761H4.22
			c0.018-1.587,0.558-2.843,1.62-3.767C6.902,20.461,8.307,20,10.054,20c1.801,0,3.206,0.457,4.214,1.372
			c1.008,0.915,1.512,2.193,1.512,3.834c0,1.463-0.681,2.902-2.043,4.319l-1.653,1.627c-0.592,0.673-0.896,1.656-0.914,2.947H8.118z
			 M7.89,38.273c0-0.526,0.166-0.953,0.498-1.279c0.332-0.325,0.779-0.488,1.344-0.488c0.574,0,1.026,0.167,1.358,0.502
			s0.497,0.757,0.497,1.266c0,0.491-0.161,0.901-0.484,1.232C10.78,39.835,10.323,40,9.731,40c-0.591,0-1.046-0.165-1.364-0.495
			C8.049,39.174,7.89,38.764,7.89,38.273z"/>
	</g>
</g>
</svg>
