<?xml version="1.0" encoding="utf-8"?>
<!-- Generator: Adobe Illustrator 16.0.3, SVG Export Plug-In . SVG Version: 6.00 Build 0)  -->
<!DOCTYPE svg PUBLIC "-//W3C//DTD SVG 1.1//EN" "http://www.w3.org/Graphics/SVG/1.1/DTD/svg11.dtd">
<svg version="1.1" xmlns="http://www.w3.org/2000/svg" xmlns:xlink="http://www.w3.org/1999/xlink" x="0px" y="0px" width="20px"
	 height="20px" viewBox="0 0 20 20" enable-background="new 0 0 20 20" xml:space="preserve">
<g id="Ebene_1">
</g>
<g id="Ebene_4">
	<path fill="#323232" d="M-2.793,10.778c-0.84,1.168-1.863,2.235-2.981,3.356c-1.119,1.117-2.19,2.188-3.354,2.981
		c-3.863,2.746-7.639,3.628-9.266,2.002l-1.49-1.492l0,0l0,0l0,0c-0.374-0.421,0.184-1.583,1.257-2.654
		c1.071-1.069,2.282-1.628,2.651-1.257l1.353,1.35l-0.094-0.093c0.93,0.931,2.745,0.651,4.704-0.462
		c0.841-0.517,1.676-1.26,2.466-2.051c0.793-0.795,1.493-1.538,2.004-2.374c1.211-2.005,1.49-3.867,0.559-4.797l0.093,0.09
		L-6.24,4.028c-0.371-0.373,0.187-1.583,1.256-2.652c1.071-1.071,2.282-1.634,2.651-1.26l0,0l1.495,1.49
		C0.838,3.19-0.094,6.915-2.793,10.778z"/>
	<path fill="#323232" d="M19.998,17.146H0V7.614l6.993,4.848c0.89,0.608,1.952,0.871,3.006,0.877
		c1.048-0.002,2.109-0.269,2.999-0.877L20,7.614v9.532H19.998z M19.998,4.832L11.7,10.583c-0.408,0.284-1.049,0.472-1.701,0.471
		c-0.653,0.001-1.299-0.187-1.701-0.471L0,4.833V2.854h19.998V4.832z"/>
	<path fill="#F2F2F2" d="M-2.793,30.778c-0.84,1.168-1.863,2.235-2.981,3.356c-1.119,1.117-2.19,2.188-3.354,2.981
		c-3.863,2.746-7.639,3.628-9.266,2.002l-1.49-1.492l0,0l0,0l0,0c-0.374-0.421,0.184-1.583,1.257-2.654
		c1.071-1.069,2.282-1.628,2.651-1.257l1.353,1.35l-0.094-0.093c0.93,0.931,2.745,0.651,4.704-0.462
		c0.841-0.517,1.676-1.26,2.466-2.051c0.793-0.795,1.493-1.538,2.004-2.374c1.211-2.005,1.49-3.867,0.559-4.797l0.093,0.09
		l-1.349-1.349c-0.371-0.373,0.187-1.583,1.256-2.652c1.071-1.071,2.282-1.634,2.651-1.26l0,0l1.495,1.49
		C0.838,23.19-0.094,26.915-2.793,30.778z"/>
</g>
</svg>
