<?xml version="1.0" encoding="utf-8"?>
<!-- Generator: Adobe Illustrator 16.0.3, SVG Export Plug-In . SVG Version: 6.00 Build 0)  -->
<!DOCTYPE svg PUBLIC "-//W3C//DTD SVG 1.1//EN" "http://www.w3.org/Graphics/SVG/1.1/DTD/svg11.dtd">
<svg version="1.1" xmlns="http://www.w3.org/2000/svg" xmlns:xlink="http://www.w3.org/1999/xlink" x="0px" y="0px" width="20px"
	 height="20px" viewBox="0 0 20 20" enable-background="new 0 0 20 20" xml:space="preserve">
<g id="Ebene_1">
</g>
<g id="Ebene_4">
	<path fill="#323232" d="M9.375,20L0,17.5v-15L9.375,5V20z M20,2.5L10.625,5v15L20,17.5V2.5z M10,3.873l7.5-2V0L10,3.75L2.5,0v1.873
		L10,3.873z"/>
	<path fill="#F2F2F2" d="M9.375,40L0,37.5v-15L9.375,25V40z M20,22.5L10.625,25v15L20,37.5V22.5z M10,23.873l7.5-2V20L10,23.75
		L2.5,20v1.873L10,23.873z"/>
</g>
</svg>
