<?xml version="1.0" encoding="utf-8"?>
<!-- Generator: Adobe Illustrator 16.0.3, SVG Export Plug-In . SVG Version: 6.00 Build 0)  -->
<!DOCTYPE svg PUBLIC "-//W3C//DTD SVG 1.1//EN" "http://www.w3.org/Graphics/SVG/1.1/DTD/svg11.dtd">
<svg version="1.1" xmlns="http://www.w3.org/2000/svg" xmlns:xlink="http://www.w3.org/1999/xlink" x="0px" y="0px" width="20px"
	 height="20px" viewBox="0 0 20 20" enable-background="new 0 0 20 20" xml:space="preserve">
<g id="Ebene_1">
</g>
<g id="Ebene_4">
	<g>
		<path fill="#333333" d="M4.99,5.805c0,1.266-1.026,2.289-2.287,2.289c-1.269,0-2.291-1.023-2.291-2.289
			c0-1.264,1.022-2.289,2.291-2.289C3.964,3.516,4.99,4.541,4.99,5.805z"/>
		<path fill="#333333" d="M15.011,5.805c0,1.266,1.026,2.289,2.287,2.289c1.268,0,2.294-1.023,2.294-2.289
			c0-1.264-1.026-2.289-2.295-2.289C16.037,3.516,15.011,4.541,15.011,5.805z"/>
		<path fill="#333333" d="M8.734,13.672c-0.052-0.487,0.136-0.938,0.453-1.266c-1.937-0.37-2.731-1.315-3.422-2.17
			c-0.335-0.419-0.656-0.817-1.08-1.099C4.672,9.13,4.657,9.13,4.646,9.119C4.284,8.82,3.826,8.63,3.321,8.63H2.084
			C0.938,8.63,0,9.565,0,10.711v5.773h5.404v-3.732c0.788,0.691,1.903,1.347,3.616,1.634C8.878,14.178,8.767,13.942,8.734,13.672z"
			/>
		<path fill="#333333" d="M17.92,8.63h-1.24c-0.503,0-0.963,0.19-1.322,0.49c-0.014,0.01-0.029,0.01-0.039,0.018
			c-0.425,0.281-0.745,0.678-1.083,1.1c-0.758,0.938-1.617,2.008-4.021,2.272c-0.544,0.063-0.935,0.553-0.875,1.097
			c0.055,0.508,0.484,0.883,0.984,0.883c0.037,0,0.073-0.003,0.112-0.005c2.036-0.227,3.297-0.95,4.163-1.719v3.719H20v-5.773
			C20,9.565,19.063,8.63,17.92,8.63z"/>
	</g>
</g>
</svg>
