<?xml version="1.0" encoding="utf-8"?>
<!-- Generator: Adobe Illustrator 16.0.3, SVG Export Plug-In . SVG Version: 6.00 Build 0)  -->
<!DOCTYPE svg PUBLIC "-//W3C//DTD SVG 1.1//EN" "http://www.w3.org/Graphics/SVG/1.1/DTD/svg11.dtd">
<svg version="1.1" xmlns="http://www.w3.org/2000/svg" xmlns:xlink="http://www.w3.org/1999/xlink" x="0px" y="0px" width="20px"
	 height="20px" viewBox="0 0 20 20" enable-background="new 0 0 20 20" xml:space="preserve">
<g id="Ebene_1">
</g>
<g id="Ebene_4">
	<g>
		<g>
			<path fill="#333333" d="M-0.118,3.365C-0.175,3.151-0.35,3.104-0.507,3.258l-1.638,1.636c-0.159,0.157-0.458,0.241-0.672,0.181
				l-1.104-0.297c-0.214-0.055-0.434-0.277-0.493-0.493L-4.707,3.19c-0.059-0.218,0.022-0.522,0.18-0.679l1.636-1.636
				c0.156-0.154,0.105-0.332-0.109-0.386c0,0-0.452-0.121-0.906-0.121c-2.163,0-3.909,1.75-3.909,3.908
				c0,0.44,0.069,0.861,0.204,1.253c-0.341,0.643-0.863,1.373-1.495,2.147c0.089,0.057,0.18,0.125,0.26,0.205l0.004,0.007
				l0.698,0.695l0.006,0.009l0.002,0.004c0.385,0.407,0.468,0.977,0.271,1.461c1.024-0.886,1.992-1.613,2.811-2.047
				C-4.69,8.125-4.31,8.186-3.907,8.186C-1.752,8.186,0,6.437,0,4.276C0,3.819-0.118,3.365-0.118,3.365 M-11.752,12.213
				l-0.006-0.005l-0.002-0.004l-0.7-0.7v-0.002h-0.004c-0.037-0.039-0.071-0.078-0.101-0.116c-3.002,2.941-6.135,5.538-6.135,5.538
				l0.004,0.012c-0.018,0.016-0.039,0.03-0.057,0.05c-0.616,0.617-0.625,1.602-0.036,2.233c0.628,0.589,1.617,0.578,2.229-0.036
				c0.021-0.021,0.039-0.038,0.053-0.054h0.01c0,0,2.858-3.449,5.975-6.577c-0.093,0.018-0.192,0.03-0.293,0.03
				C-11.166,12.582-11.494,12.452-11.752,12.213 M-16.977,18.708c-0.359,0.354-0.936,0.354-1.291,0
				c-0.355-0.359-0.355-0.936,0-1.292c0.355-0.357,0.932-0.357,1.291,0C-16.619,17.772-16.619,18.349-16.977,18.708"/>
		</g>
	</g>
	<path fill="#333333" d="M18.393,8.041l-2.239-6.756c-0.045-0.131-0.156-0.231-0.294-0.259c-0.136-0.028-0.277,0.019-0.372,0.121
		l-4.73,5.318c-0.093,0.106-0.121,0.253-0.08,0.383c0.045,0.134,0.156,0.232,0.294,0.262l0.701,0.145l-1.441,6.96
		c-0.021,0.101,0,0.209,0.058,0.294c0.058,0.089,0.146,0.149,0.251,0.169l1.308,0.27l-0.952,4.58
		c-0.043,0.212,0.095,0.42,0.309,0.464C11.226,19.998,11.255,20,11.281,20c0.181,0,0.343-0.126,0.382-0.313l0.948-4.582l2.644,0.542
		c0.029,0.007,0.054,0.007,0.08,0.007c0.184,0,0.346-0.126,0.383-0.313l1.438-6.954l0.787,0.16c0.024,0.005,0.054,0.009,0.078,0.009
		c0.113,0,0.218-0.048,0.294-0.13C18.409,8.322,18.436,8.175,18.393,8.041z M15.031,14.801l-1.514-0.311l1.754-0.865L15.031,14.801z
		 M15.372,13.141l-2.481,1.223l-1.809-0.373l0.071-0.366l4.57-2.189L15.372,13.141z M15.822,10.954l-4.567,2.191l0.359-1.747
		l4.57-2.189L15.822,10.954z M16.283,8.729l-4.568,2.188l0.364-1.739l2.679-1.285l1.628,0.338L16.283,8.729z M12.178,8.694
		l0.263-1.282l1.68,0.35L12.178,8.694z M17.011,7.557c-0.024-0.009-0.051-0.021-0.082-0.028l-4.71-0.965
		C12.202,6.56,12.189,6.56,12.18,6.557l-0.385-0.078l3.828-4.301l1.812,5.469L17.011,7.557z M8.33,6.238l0.701-0.145
		c0.138-0.03,0.246-0.126,0.294-0.262c0.041-0.134,0.01-0.278-0.083-0.384l-4.73-5.318C4.42,0.026,4.275-0.02,4.14,0.008
		C4.002,0.035,3.891,0.134,3.846,0.267L1.607,7.023C1.563,7.157,1.592,7.304,1.686,7.41c0.075,0.082,0.182,0.13,0.295,0.13
		c0.024,0,0.052-0.004,0.078-0.009l0.788-0.16l1.435,6.956c0.037,0.182,0.202,0.313,0.383,0.313c0.026,0,0.054-0.004,0.08-0.011
		l2.646-0.54l0.945,4.582c0.037,0.186,0.201,0.313,0.385,0.313c0.024,0,0.051-0.002,0.078-0.007c0.216-0.043,0.352-0.25,0.306-0.463
		l-0.949-4.58l1.31-0.27c0.101-0.021,0.191-0.08,0.246-0.169c0.059-0.085,0.082-0.193,0.059-0.294L8.33,6.238z M2.988,6.54
		L2.566,6.629l1.812-5.47L8.204,5.46L7.822,5.539C7.81,5.541,7.797,5.541,7.783,5.544L3.07,6.514
		C3.042,6.518,3.014,6.527,2.988,6.54z M7.824,7.676L5.879,6.743l1.68-0.346L7.824,7.676z M3.613,7.211l1.631-0.337l2.679,1.282
		l0.361,1.743L3.717,7.711L3.613,7.211z M3.817,8.193l4.57,2.188l0.357,1.745L4.177,9.935L3.817,8.193z M4.971,13.781l-0.243-1.172
		l1.754,0.863L4.971,13.781z M7.108,13.346l-2.481-1.224L4.275,10.42l4.57,2.189l0.074,0.363L7.108,13.346z"/>
	<polygon fill="#333333" points="40,1.346 30,18.654 20,1.346 	"/>
</g>
</svg>
