<?xml version="1.0" encoding="utf-8"?>
<!-- Generator: Adobe Illustrator 16.0.3, SVG Export Plug-In . SVG Version: 6.00 Build 0)  -->
<!DOCTYPE svg PUBLIC "-//W3C//DTD SVG 1.1//EN" "http://www.w3.org/Graphics/SVG/1.1/DTD/svg11.dtd">
<svg version="1.1" xmlns="http://www.w3.org/2000/svg" xmlns:xlink="http://www.w3.org/1999/xlink" x="0px" y="0px" width="20px"
	 height="20px" viewBox="0 0 20 20" enable-background="new 0 0 20 20" xml:space="preserve">
<g id="Ebene_1">
</g>
<g id="Ebene_4">
	<g>
		<g>
			<path fill="#323232" d="M19.055,11.028H1.112c-0.568,0-1.028-0.46-1.028-1.028s0.46-1.028,1.028-1.028h17.943
				c0.568,0,1.028,0.46,1.028,1.028S19.623,11.028,19.055,11.028z"/>
		</g>
		<g>
			<path fill="#323232" d="M10.083,20c-0.568,0-1.028-0.46-1.028-1.028V1.028C9.055,0.46,9.516,0,10.083,0s1.028,0.46,1.028,1.028
				v17.943C11.112,19.54,10.651,20,10.083,20z"/>
		</g>
	</g>
	<g>
		<g>
			<path fill="#F2F2F2" d="M10,40c-0.568,0-1.028-0.46-1.028-1.028V21.028C8.972,20.46,9.432,20,10,20s1.028,0.46,1.028,1.028
				v17.943C11.028,39.54,10.568,40,10,40z"/>
		</g>
	</g>
</g>
</svg>
