<?xml version="1.0" encoding="utf-8"?>
<!-- Generator: Adobe Illustrator 16.0.3, SVG Export Plug-In . SVG Version: 6.00 Build 0)  -->
<!DOCTYPE svg PUBLIC "-//W3C//DTD SVG 1.1//EN" "http://www.w3.org/Graphics/SVG/1.1/DTD/svg11.dtd">
<svg version="1.1" xmlns="http://www.w3.org/2000/svg" xmlns:xlink="http://www.w3.org/1999/xlink" x="0px" y="0px" width="20px"
	 height="20px" viewBox="0 0 20 20" enable-background="new 0 0 20 20" xml:space="preserve">
<g id="Ebene_1">
</g>
<g id="Ebene_4">
	<polygon fill="#F2F2F2" points="0,1.346 -10,18.654 -20,1.346 	"/>
	<g>
		<path fill="#F2F2F2" d="M15.431,10.002c0,3.087-2.432,5.586-5.433,5.586c-2.998,0-5.43-2.5-5.43-5.586
			c0-3.084,2.432-5.585,5.43-5.585C12.999,4.417,15.431,6.918,15.431,10.002z"/>
		<path fill="#F2F2F2" d="M10.22,3.513c0.142,0.019,0.272,0.034,0.411,0.034c0.065,0,0.133-0.003,0.201-0.013
			c0.213-0.029,0.35-0.103,0.414-0.228c0.192-0.35-0.156-1.069-0.436-1.65c-0.164-0.345-0.307-0.642-0.34-0.855
			c-0.036-0.085-0.057-0.188-0.08-0.297C10.325,0.189,10.27,0,10.055,0h-0.034C9.834,0.014,9.709,0.386,9.642,0.585L9.561,0.827
			c-0.103,0.311-0.2,0.605-0.388,0.89c-0.034,0.052-0.069,0.1-0.105,0.154C8.832,2.213,8.59,2.566,8.634,2.956
			c0.05,0.447,0.341,0.675,0.735,0.572C9.635,3.461,9.941,3.481,10.22,3.513z"/>
		<path fill="#F2F2F2" d="M9.067,18.128c0.036,0.053,0.071,0.104,0.105,0.153c0.188,0.284,0.285,0.58,0.388,0.891l0.081,0.241
			c0.067,0.201,0.192,0.571,0.379,0.585L10.055,20c0.215,0,0.271-0.191,0.336-0.504c0.021-0.111,0.044-0.212,0.08-0.3
			c0.033-0.211,0.176-0.508,0.34-0.854c0.279-0.578,0.628-1.3,0.436-1.651c-0.064-0.123-0.201-0.196-0.414-0.227
			c-0.212-0.03-0.405-0.004-0.612,0.021c-0.278,0.033-0.585,0.051-0.851-0.016c-0.063-0.018-0.125-0.024-0.185-0.024
			c-0.303,0-0.509,0.221-0.551,0.596C8.59,17.434,8.834,17.785,9.067,18.128z"/>
		<g>
			<path fill="#F2F2F2" d="M3.716,9.071C3.663,8.642,3.444,8.586,3.263,8.586c-0.374,0-0.897,0.267-1.357,0.502
				C1.569,9.26,1.28,9.407,1.074,9.441C0.989,9.478,0.888,9.5,0.783,9.522C0.438,9.6,0.28,9.663,0.296,9.911
				c0.012,0.198,0.374,0.325,0.568,0.394l0.232,0.083c0.293,0.103,0.589,0.208,0.867,0.401c0.049,0.034,0.1,0.072,0.148,0.11
				c0.331,0.239,0.673,0.49,1.049,0.445c0.219-0.027,0.385-0.113,0.481-0.254c0.095-0.135,0.12-0.312,0.071-0.512
				c-0.075-0.315-0.045-0.597-0.015-0.871C3.723,9.494,3.746,9.29,3.716,9.071z"/>
			<path fill="#F2F2F2" d="M16.355,11.089c0.098,0.142,0.264,0.228,0.481,0.254c0.38,0.045,0.72-0.204,1.049-0.445
				c0.051-0.038,0.101-0.076,0.149-0.11c0.277-0.193,0.576-0.298,0.868-0.403l0.231-0.081c0.194-0.069,0.556-0.196,0.568-0.394
				c0.018-0.248-0.145-0.311-0.485-0.388C19.11,9.5,19.011,9.478,18.923,9.441c-0.204-0.032-0.495-0.181-0.828-0.353
				c-0.461-0.235-0.984-0.502-1.359-0.502c-0.182,0-0.399,0.056-0.454,0.484c-0.027,0.219-0.004,0.423,0.02,0.635
				c0.029,0.273,0.059,0.555-0.016,0.871C16.237,10.777,16.263,10.954,16.355,11.089z"/>
		</g>
		<path fill="#F2F2F2" d="M5.344,3.393C5.307,3.808,5.27,4.239,5.495,4.556C5.64,4.753,5.818,4.862,5.996,4.863
			c0.143,0,0.285-0.068,0.411-0.194c0.23-0.228,0.481-0.34,0.728-0.45C7.329,4.133,7.509,4.052,7.676,3.92
			C7.85,3.78,7.934,3.643,7.927,3.499C7.913,3.097,7.269,2.655,6.751,2.299c-0.312-0.212-0.58-0.396-0.709-0.563
			C5.966,1.678,5.898,1.601,5.825,1.519C5.702,1.376,5.563,1.216,5.424,1.216c-0.05,0-0.102,0.02-0.158,0.06
			C5.106,1.385,5.18,1.774,5.22,1.982l0.046,0.25c0.061,0.323,0.12,0.629,0.095,0.969C5.356,3.264,5.353,3.326,5.344,3.393z"/>
		<path fill="#F2F2F2" d="M14.97,17.665c-0.075-0.198-0.097-0.533-0.119-0.914c-0.049-0.758-0.106-1.703-0.608-1.703
			c-0.08,0-0.175,0.022-0.282,0.067c-0.194,0.084-0.353,0.205-0.521,0.334c-0.216,0.163-0.438,0.333-0.743,0.424
			c-0.182,0.053-0.316,0.157-0.384,0.299c-0.074,0.161-0.067,0.365,0.022,0.582c0.152,0.358,0.532,0.54,0.901,0.715
			c0.055,0.025,0.11,0.051,0.163,0.08c0.302,0.147,0.542,0.363,0.771,0.569l0.189,0.167c0.158,0.144,0.443,0.394,0.607,0.311
			c0.216-0.109,0.188-0.283,0.079-0.631C15.011,17.858,14.979,17.757,14.97,17.665z"/>
		<path fill="#F2F2F2" d="M14.744,1.303c-0.168,0-0.398,0.208-0.537,0.331l-0.184,0.165c-0.23,0.208-0.47,0.424-0.771,0.571
			c-0.054,0.027-0.109,0.055-0.165,0.081c-0.37,0.174-0.751,0.355-0.901,0.714c-0.091,0.216-0.099,0.422-0.021,0.583
			c0.067,0.142,0.2,0.245,0.385,0.3c0.307,0.089,0.526,0.26,0.74,0.426c0.169,0.127,0.327,0.247,0.523,0.33
			c0.106,0.045,0.201,0.069,0.283,0.069l0,0c0.501,0,0.558-0.946,0.604-1.704c0.023-0.382,0.045-0.716,0.121-0.913
			c0.012-0.094,0.044-0.195,0.075-0.301c0.108-0.348,0.137-0.523-0.079-0.631C14.796,1.31,14.771,1.303,14.744,1.303z"/>
		<path fill="#F2F2F2" d="M5.276,18.703c0.137,0,0.276-0.163,0.402-0.303c0.072-0.082,0.142-0.16,0.214-0.217
			c0.129-0.168,0.4-0.353,0.709-0.567c0.52-0.355,1.163-0.797,1.177-1.196c0.008-0.145-0.075-0.283-0.25-0.422
			c-0.166-0.133-0.349-0.214-0.54-0.3c-0.245-0.109-0.499-0.222-0.727-0.45c-0.127-0.127-0.27-0.191-0.41-0.191
			c-0.183,0-0.36,0.109-0.501,0.306c-0.23,0.316-0.19,0.747-0.152,1.164c0.004,0.065,0.012,0.127,0.013,0.191
			c0.026,0.339-0.034,0.658-0.093,0.966l-0.047,0.253c-0.04,0.206-0.113,0.595,0.047,0.707C5.175,18.682,5.226,18.703,5.276,18.703z
			"/>
		<path fill="#F2F2F2" d="M2.041,5.715C2.243,5.95,2.449,6.197,2.596,6.506c0.025,0.054,0.049,0.112,0.075,0.17
			c0.172,0.38,0.347,0.774,0.692,0.929c0.113,0.049,0.22,0.076,0.323,0.076l0,0c0.258,0,0.441-0.162,0.523-0.452
			c0.089-0.312,0.253-0.542,0.411-0.762c0.125-0.174,0.244-0.338,0.323-0.54c0.087-0.215,0.089-0.379,0.012-0.504
			c-0.212-0.33-0.977-0.38-1.595-0.42C2.99,4.979,2.667,4.957,2.473,4.88C2.382,4.868,2.282,4.834,2.18,4.8
			C2.055,4.759,1.926,4.716,1.816,4.716c-0.114,0-0.184,0.047-0.241,0.167C1.49,5.063,1.743,5.361,1.878,5.52L2.041,5.715z"/>
		<path fill="#F2F2F2" d="M15.098,13.697c-0.134,0.145-0.201,0.308-0.188,0.471c0.016,0.174,0.121,0.343,0.299,0.48
			c0.163,0.125,0.374,0.184,0.665,0.184c0.151,0,0.308-0.016,0.458-0.03c0.062-0.006,0.123-0.013,0.182-0.017
			c0.055-0.005,0.105-0.006,0.159-0.006c0.273,0,0.533,0.054,0.788,0.104l0.243,0.048c0.118,0.024,0.264,0.052,0.398,0.052
			c0.212,0,0.262-0.075,0.279-0.1c0.135-0.206,0.025-0.345-0.235-0.59c-0.081-0.073-0.159-0.146-0.214-0.222
			c-0.161-0.132-0.341-0.411-0.547-0.73c-0.33-0.511-0.782-1.211-1.168-1.211c-0.135,0-0.262,0.085-0.391,0.258
			c-0.131,0.173-0.208,0.36-0.291,0.559C15.429,13.201,15.318,13.461,15.098,13.697z"/>
		<path fill="#F2F2F2" d="M2.505,13.343c-0.205,0.32-0.385,0.599-0.545,0.73c-0.058,0.076-0.133,0.149-0.213,0.222
			c-0.263,0.245-0.374,0.384-0.237,0.59c0.016,0.024,0.065,0.1,0.277,0.1c0.137,0,0.285-0.028,0.402-0.052l0.243-0.048
			c0.3-0.061,0.612-0.126,0.945-0.097c0.06,0.003,0.121,0.01,0.182,0.016c0.15,0.014,0.305,0.03,0.456,0.03
			c0.293,0,0.505-0.058,0.667-0.184c0.178-0.137,0.283-0.306,0.298-0.48c0.015-0.164-0.051-0.327-0.188-0.471
			c-0.219-0.236-0.329-0.497-0.437-0.749c-0.082-0.199-0.16-0.386-0.291-0.558c-0.129-0.173-0.257-0.258-0.392-0.258
			C3.288,12.131,2.837,12.833,2.505,13.343z"/>
		<path fill="#F2F2F2" d="M17.219,6.678c0.027-0.059,0.053-0.118,0.08-0.172c0.145-0.311,0.351-0.556,0.551-0.793l0.164-0.191
			c0.137-0.16,0.387-0.458,0.303-0.639c-0.057-0.119-0.127-0.166-0.241-0.166c-0.109,0-0.238,0.042-0.362,0.083
			c-0.104,0.034-0.202,0.068-0.294,0.078c-0.193,0.079-0.519,0.1-0.889,0.125c-0.616,0.04-1.382,0.09-1.591,0.421
			c-0.081,0.124-0.076,0.29,0.008,0.503c0.08,0.202,0.198,0.365,0.325,0.54c0.158,0.221,0.323,0.45,0.41,0.762
			c0.113,0.406,0.451,0.55,0.846,0.376C16.875,7.451,17.052,7.057,17.219,6.678z"/>
	</g>
	<g>
		<path fill="#333333" d="M9.067-1.872c0.036,0.053,0.071,0.104,0.105,0.153c0.188,0.284,0.285,0.58,0.388,0.891l0.081,0.241
			c0.067,0.201,0.192,0.571,0.379,0.585L10.055,0c0.215,0,0.271-0.191,0.336-0.504c0.021-0.111,0.044-0.212,0.08-0.3
			c0.033-0.211,0.176-0.508,0.34-0.854c0.279-0.578,0.628-1.3,0.436-1.651c-0.064-0.123-0.201-0.196-0.414-0.227
			c-0.212-0.03-0.405-0.004-0.612,0.021C9.941-3.482,9.635-3.463,9.369-3.531C9.306-3.548,9.244-3.555,9.185-3.555
			c-0.303,0-0.509,0.221-0.551,0.596C8.59-2.566,8.834-2.214,9.067-1.872z"/>
	</g>
	<g>
		<path fill="#F2F2F2" d="M39.956,9.863c0.512-4.606-3.53-8.866-9.028-9.512c-0.475-0.056-0.944-0.085-1.408-0.085
			c-4.899,0-9.007,3.044-9.477,7.251c-0.511,4.606,3.529,8.866,9.028,9.513c0.472,0.056,0.938,0.082,1.396,0.082
			c0.508,0,1.006-0.034,1.492-0.097c1.968,2.142,4.021,2.719,5.172,2.719c0.737,0,1.102-0.237,0.833-0.449
			c-1.678-1.332-2.033-2.632-1.927-3.655C38.193,14.341,39.684,12.298,39.956,9.863z M27.381,10.237
			c-0.459,0.382-1.164,0.563-2.018,0.563c-0.512,0-0.88-0.032-1.12-0.064V6.458c0.362-0.058,0.835-0.097,1.326-0.097
			c0.834,0,1.377,0.155,1.791,0.466c0.453,0.337,0.738,0.874,0.738,1.643C28.099,9.305,27.795,9.88,27.381,10.237z M31.526,10.754
			h-2.775v-4.36h2.685v0.809h-1.701v0.906h1.604v0.802h-1.604v1.035h1.792V10.754z M35.757,8.839c0,1.346-0.68,1.985-1.819,1.985
			c-1.099,0-1.739-0.614-1.739-1.998V6.394h0.984v2.503c0,0.758,0.29,1.139,0.788,1.139c0.518,0,0.802-0.361,0.802-1.139V6.394
			h0.984V8.839z"/>
	</g>
</g>
</svg>
