<?xml version="1.0" encoding="utf-8"?>
<!-- Generator: Adobe Illustrator 16.0.3, SVG Export Plug-In . SVG Version: 6.00 Build 0)  -->
<!DOCTYPE svg PUBLIC "-//W3C//DTD SVG 1.1//EN" "http://www.w3.org/Graphics/SVG/1.1/DTD/svg11.dtd">
<svg version="1.1" xmlns="http://www.w3.org/2000/svg" xmlns:xlink="http://www.w3.org/1999/xlink" x="0px" y="0px" width="20px"
	 height="20px" viewBox="0 0 20 20" enable-background="new 0 0 20 20" xml:space="preserve">
<g id="Ebene_1">
</g>
<g id="Ebene_4">
	<g transform="matrix(1.3333333,0,0,-1.3333333,0,66.586667)">
		<g transform="scale(0.1)">
			<path fill="#333333" d="M145.759,409.58l2.289,2.292v-2.292H145.759z M148.048,377.983H1.955v29.663H148.07L148.048,377.983
				L148.048,377.983z M4.2,439.265l-2.314-2.285v2.285H4.2z M148.048,435.134v-3.179l-22.354-22.375h-3.201L148.048,435.134z
				 M148.048,438.997V435.8l-26.221-26.221h-3.201L148.048,438.997z M144.422,439.265h3.179l-29.663-29.685h-3.175L144.422,439.265z
				 M140.559,439.265h3.175l-29.663-29.685h-3.179L140.559,439.265z M136.669,439.265h3.201l-29.688-29.685h-3.171L136.669,439.265z
				 M132.806,439.265h3.171l-29.66-29.685h-3.175L132.806,439.265z M128.935,439.265h3.183l-29.689-29.685h-3.175L128.935,439.265z
				 M125.046,439.265h3.179L98.565,409.58h-3.179L125.046,439.265z M121.183,439.265h3.179L94.676,409.58h-3.179L121.183,439.265z
				 M117.293,439.265h3.179L90.787,409.58h-3.179L117.293,439.265z M113.426,439.265h3.179L86.898,409.58h-3.175L113.426,439.265z
				 M109.537,439.265h3.179L83.034,409.58h-3.201L109.537,439.265z M105.651,439.265h3.175L79.142,409.58H75.97L105.651,439.265z
				 M101.81,439.265h3.179L75.282,409.58h-3.201L101.81,439.265z M97.921,439.265h3.201L71.411,409.58H68.21L97.921,439.265z
				 M94.01,439.265h3.201L67.521,409.58h-3.197L94.01,439.265z M90.121,439.265h3.197L63.658,409.58h-3.201L90.121,439.265z
				 M86.257,439.265h3.197L59.769,409.58h-3.201L86.257,439.265z M82.386,439.265h3.201L55.902,409.58h-3.201L82.386,439.265z
				 M78.497,439.265h3.201L52.013,409.58h-3.197L78.497,439.265z M74.633,439.265h3.197L48.146,409.58h-3.193L74.633,439.265z
				 M70.744,439.265h3.201L44.286,409.58h-3.201L70.744,439.265z M66.881,439.265h3.193L40.396,409.58h-3.205L66.881,439.265z
				 M63.014,439.265h3.201L36.525,409.58h-3.197L63.014,439.265z M59.125,439.265h3.201L32.64,409.58h-3.201L59.125,439.265z
				 M55.257,439.265h3.201L28.773,409.58h-3.201L55.257,439.265z M51.368,439.265h3.201L24.906,409.58h-3.201L51.368,439.265z
				 M47.508,439.265h3.193L21.017,409.58h-3.175L47.508,439.265z M43.637,439.265h3.201L17.149,409.58h-3.193L43.637,439.265z
				 M39.748,439.265h3.201L13.268,409.58h-3.201L39.748,439.265z M35.885,439.265h3.193L9.396,409.58H6.196L35.885,439.265z
				 M31.996,439.265h3.201L5.529,409.58H2.333L31.996,439.265z M1.886,416.911l22.354,22.354h3.201L1.886,413.714V416.911z
				 M23.573,439.265L1.886,417.6v3.179l18.468,18.464C20.372,439.265,23.573,439.265,23.573,439.265z M19.684,439.265L1.886,421.467
				v3.201l14.604,14.597C16.512,439.265,19.684,439.265,19.684,439.265z M15.82,439.265L1.886,425.356v3.201l10.733,10.73
				C12.619,439.265,15.82,439.265,15.82,439.265z M11.909,439.265L1.886,429.223v3.197l6.844,6.844H11.909z M1.886,436.291
				l2.981,2.974h3.175l-6.156-6.156V436.291z M1.886,413.026l26.221,26.217h3.201L1.886,409.843V413.026z M148.048,428.066
				l-18.486-18.486h-3.201l21.665,21.665C148.048,431.267,148.048,428.066,148.048,428.066z M148.048,419.625v-3.182l-6.848-6.863
				h-3.175C137.999,409.58,148.048,419.625,148.048,419.625z M148.048,423.51v-3.175l-10.737-10.734h-3.175
				C134.135,409.58,148.048,423.51,148.048,423.51z M148.048,424.199l-14.597-14.597h-3.201l17.798,17.798
				C148.048,427.377,148.048,424.199,148.048,424.199z M141.888,409.58l6.182,6.174v-3.193l-2.981-2.981H141.888z M149.022,472.795
				H0.978c-0.535,0-0.978-0.443-0.978-0.978v-94.834c0-0.531,0.443-0.978,0.978-0.978h148.044c0.535,0,0.978,0.447,0.978,0.978
				v94.834C150,472.37,149.557,472.795,149.022,472.795"/>
		</g>
	</g>
</g>
</svg>
