<?xml version="1.0" encoding="utf-8"?>
<!-- Generator: Adobe Illustrator 16.0.3, SVG Export Plug-In . SVG Version: 6.00 Build 0)  -->
<!DOCTYPE svg PUBLIC "-//W3C//DTD SVG 1.1//EN" "http://www.w3.org/Graphics/SVG/1.1/DTD/svg11.dtd">
<svg version="1.1" xmlns="http://www.w3.org/2000/svg" xmlns:xlink="http://www.w3.org/1999/xlink" x="0px" y="0px" width="20px"
	 height="20px" viewBox="0 0 20 20" enable-background="new 0 0 20 20" xml:space="preserve">
<g id="Ebene_1">
</g>
<g id="Ebene_4">
	<g>
		<g>
			<g>
				<path fill="#323232" d="M10.001,0l-8.63-14.946h17.258L10.001,0z M2.848-14.093l7.153,12.388l7.151-12.388H2.848z"/>
			</g>
		</g>
	</g>
	<g>
		<g>
			<g>
				<path fill="#F2F2F2" d="M18.217,14.708H1.783L10,0.476L18.217,14.708z M2.436,14.331h15.129L10,1.229L2.436,14.331z"/>
				<path fill="#F2F2F2" d="M18.629,14.946H1.371L10,0L18.629,14.946z M2.848,14.093h14.305L10,1.706L2.848,14.093z"/>
			</g>
		</g>
		<g>
			<g>
				<path fill="#F2F2F2" d="M10.001,19.524L1.783,5.292h16.434L10.001,19.524z M2.436,5.669l7.565,13.102l7.563-13.102H2.436z"/>
				<path fill="#F2F2F2" d="M10.001,20L1.371,5.054h17.258L10.001,20z M2.848,5.907l7.153,12.388l7.151-12.388H2.848z"/>
			</g>
		</g>
	</g>
</g>
</svg>
