<?xml version="1.0" encoding="utf-8"?>
<!-- Generator: Adobe Illustrator 16.0.3, SVG Export Plug-In . SVG Version: 6.00 Build 0)  -->
<!DOCTYPE svg PUBLIC "-//W3C//DTD SVG 1.1//EN" "http://www.w3.org/Graphics/SVG/1.1/DTD/svg11.dtd">
<svg version="1.1" xmlns="http://www.w3.org/2000/svg" xmlns:xlink="http://www.w3.org/1999/xlink" x="0px" y="0px" width="20px"
	 height="20px" viewBox="0 0 20 20" enable-background="new 0 0 20 20" xml:space="preserve">
<g id="Ebene_1">
</g>
<g id="Ebene_4">
	<g transform="matrix(1.3333333,0,0,-1.3333333,0,66.586667)">
		<g transform="scale(0.1)">
			<path fill="#333333" d="M295.759,409.58l2.289,2.292v-2.292H295.759z M298.048,377.983H151.955v29.663H298.07L298.048,377.983
				L298.048,377.983z M154.2,439.265l-2.314-2.285v2.285H154.2z M298.048,435.134v-3.179l-22.354-22.375h-3.201L298.048,435.134z
				 M298.048,438.997V435.8l-26.221-26.221h-3.201L298.048,438.997z M294.422,439.265h3.179l-29.663-29.685h-3.175L294.422,439.265z
				 M290.559,439.265h3.175l-29.663-29.685h-3.179L290.559,439.265z M286.669,439.265h3.201l-29.688-29.685h-3.171L286.669,439.265z
				 M282.806,439.265h3.171l-29.66-29.685h-3.175L282.806,439.265z M278.935,439.265h3.183l-29.689-29.685h-3.175L278.935,439.265z
				 M275.046,439.265h3.179l-29.659-29.685h-3.179L275.046,439.265z M271.183,439.265h3.179l-29.685-29.685h-3.179L271.183,439.265z
				 M267.293,439.265h3.179l-29.685-29.685h-3.179L267.293,439.265z M263.426,439.265h3.179l-29.707-29.685h-3.175L263.426,439.265z
				 M259.537,439.265h3.179l-29.682-29.685h-3.201L259.537,439.265z M255.651,439.265h3.175l-29.685-29.685h-3.171L255.651,439.265z
				 M251.81,439.265h3.179l-29.707-29.685h-3.201L251.81,439.265z M247.921,439.265h3.201l-29.711-29.685h-3.201L247.921,439.265z
				 M244.01,439.265h3.201l-29.689-29.685h-3.197L244.01,439.265z M240.121,439.265h3.197l-29.659-29.685h-3.201L240.121,439.265z
				 M236.257,439.265h3.197l-29.685-29.685h-3.201L236.257,439.265z M232.386,439.265h3.201l-29.685-29.685h-3.201L232.386,439.265z
				 M228.497,439.265h3.201l-29.685-29.685h-3.197L228.497,439.265z M224.633,439.265h3.197l-29.685-29.685h-3.193L224.633,439.265z
				 M220.744,439.265h3.201l-29.659-29.685h-3.201L220.744,439.265z M216.881,439.265h3.193l-29.678-29.685h-3.205L216.881,439.265z
				 M213.014,439.265h3.201l-29.689-29.685h-3.197L213.014,439.265z M209.125,439.265h3.201L182.64,409.58h-3.201L209.125,439.265z
				 M205.257,439.265h3.201l-29.685-29.685h-3.201L205.257,439.265z M201.368,439.265h3.201l-29.663-29.685h-3.201L201.368,439.265z
				 M197.508,439.265h3.193l-29.685-29.685h-3.175L197.508,439.265z M193.637,439.265h3.201l-29.688-29.685h-3.193L193.637,439.265z
				 M189.748,439.265h3.201l-29.681-29.685h-3.201L189.748,439.265z M185.885,439.265h3.193l-29.682-29.685h-3.201L185.885,439.265z
				 M181.996,439.265h3.201l-29.667-29.685h-3.197L181.996,439.265z M151.886,416.911l22.354,22.354h3.201l-25.554-25.551V416.911z
				 M173.573,439.265L151.886,417.6v3.179l18.468,18.464C170.372,439.265,173.573,439.265,173.573,439.265z M169.684,439.265
				l-17.798-17.798v3.201l14.604,14.597C166.512,439.265,169.684,439.265,169.684,439.265z M165.82,439.265l-13.934-13.909v3.201
				l10.733,10.73C162.619,439.265,165.82,439.265,165.82,439.265z M161.909,439.265l-10.023-10.042v3.197l6.844,6.844H161.909z
				 M151.886,436.291l2.981,2.974h3.175l-6.156-6.156V436.291z M151.886,413.026l26.221,26.217h3.201l-29.421-29.399V413.026z
				 M298.048,428.066l-18.486-18.486h-3.201l21.665,21.665C298.048,431.267,298.048,428.066,298.048,428.066z M298.048,419.625
				v-3.182l-6.848-6.863h-3.175C287.999,409.58,298.048,419.625,298.048,419.625z M298.048,423.51v-3.175l-10.737-10.734h-3.175
				C284.135,409.58,298.048,423.51,298.048,423.51z M298.048,424.199l-14.597-14.597h-3.201l17.798,17.798
				C298.048,427.377,298.048,424.199,298.048,424.199z M291.888,409.58l6.182,6.174v-3.193l-2.981-2.981H291.888z M299.022,472.795
				H150.978c-0.535,0-0.978-0.443-0.978-0.978v-94.834c0-0.531,0.443-0.978,0.978-0.978h148.044c0.535,0,0.978,0.447,0.978,0.978
				v94.834C300,472.37,299.557,472.795,299.022,472.795"/>
		</g>
	</g>
	<path fill="#333333" d="M-1.463,9.294c-0.347,0-0.668,0.131-0.935,0.319L-4.881,7.08c0.455-0.482,0.724-1.12,0.724-1.814
		c0-1.466-1.201-2.665-2.667-2.665c-1.282,0-2.375,0.933-2.614,2.13l-5.868-0.877c0-0.055,0-0.079,0-0.135
		c0-1.014-0.825-1.838-1.84-1.838s-1.839,0.824-1.839,1.838c0,0.932,0.695,1.707,1.599,1.816l-0.296,5.917
		c-1.275,0-2.317,1.042-2.317,2.345c0,1.283,1.042,2.347,2.347,2.347c1.096,0,2.028-0.744,2.269-1.787l8.691,1.628
		c0,0.081-0.026,0.159-0.026,0.239c0,1.042,0.85,1.895,1.893,1.895c1.041,0,1.891-0.853,1.891-1.895c0-0.666-0.345-1.225-0.85-1.572
		l1.732-2.561c0.188,0.08,0.372,0.106,0.59,0.106c0.797,0,1.463-0.665,1.463-1.464C0,9.96-0.636,9.294-1.463,9.294z M-6.132,14.945
		l-2.614-2.211c0.213-0.293,0.349-0.666,0.349-1.067c0-0.025,0-0.025,0-0.056l2.559-0.263l0.556,3.093
		C-5.599,14.518-5.917,14.705-6.132,14.945z M-2.717,10.04L-6.08,8.547L-6.212,7.88c0.424-0.108,0.824-0.322,1.146-0.587l2.48,2.533
		C-2.637,9.879-2.692,9.96-2.717,10.04z M-6.798,7.96c0.106,0,0.239,0,0.344-0.029l0.081,0.507l-1.573-0.718V7.693
		C-7.598,7.852-7.226,7.96-6.798,7.96z M-8.184,7.559l-0.032,0.026l-0.85-0.372l0.239-0.186C-8.641,7.238-8.425,7.424-8.184,7.559z
		 M-8.319,7.826l-1.15,2.161c-0.209-0.108-0.476-0.161-0.745-0.161c-0.397,0-0.797,0.133-1.093,0.372l-0.611-0.718l2.639-2.082
		L-8.319,7.826z M-12.104,9.294l-3.736-4.267c0.137-0.136,0.241-0.27,0.321-0.428l5.948,2.667L-12.104,9.294z M-16.024,5.214
		l3.707,4.238l-3.574,2.826c-0.372-0.426-0.905-0.718-1.495-0.771l0.292-5.92C-16.69,5.559-16.32,5.425-16.024,5.214z
		 M-15.733,12.465l3.574-2.825l0.643,0.718c-0.323,0.319-0.537,0.775-0.537,1.283c0,0.079,0,0.158,0.028,0.239l-3.439,1.093
		C-15.519,12.813-15.599,12.625-15.733,12.465z M-8.425,11.347c-0.078-0.508-0.402-0.961-0.827-1.229L-8.08,7.96l1.759,0.797
		l0.429,2.348L-8.425,11.347z M-6.026,8.867l3.172,1.41c-0.049,0.161-0.081,0.322-0.081,0.483c0,0,0,0,0,0.024l-2.692,0.27
		L-6.026,8.867z M-9.469,5.027c0,0.08,0,0.16,0,0.266c0,0.587,0.19,1.119,0.51,1.544l-0.349,0.268l-6.104-2.747
		c0.029-0.078,0.057-0.158,0.057-0.213L-9.469,5.027z M-15.306,14.119c0-0.107,0.028-0.186,0.028-0.292
		c0-0.188-0.028-0.401-0.078-0.588l3.411-1.067c0.211,0.747,0.907,1.308,1.731,1.308c0.508,0,0.962-0.216,1.282-0.534l2.612,2.215
		c-0.134,0.183-0.239,0.372-0.292,0.611L-15.306,14.119z M-3.997,14.544c-0.241-0.104-0.507-0.186-0.804-0.186
		c-0.081,0-0.133,0-0.211,0l-0.558-3.066l2.667-0.267c0.081,0.399,0.288,0.721,0.611,0.933L-3.997,14.544z"/>
	<g>
		<path fill="#333333" d="M10,0C7.118,0,4.783,2.336,4.783,5.217v0.87h0.869v-0.87C5.652,2.82,7.603,0.87,10,0.87
			s4.348,1.95,4.348,4.348v0.87h0.869v-0.87C15.217,2.336,12.881,0,10,0z"/>
		<path fill="#333333" d="M0.435,16.522C0.435,18.443,1.992,20,3.913,20h12.174c1.921,0,3.479-1.557,3.479-3.478v-5.218H0.435
			V16.522z"/>
		<polygon fill="#333333" points="5.652,6.957 4.783,6.957 0.435,6.957 0.435,10.435 19.565,10.435 19.565,6.957 15.217,6.957 
			14.348,6.957 		"/>
	</g>
	<g>
		<path fill="#F2F2F2" d="M10,20c-2.882,0-5.217,2.336-5.217,5.217v0.87h0.869v-0.87c0-2.397,1.951-4.348,4.348-4.348
			s4.348,1.95,4.348,4.348v0.87h0.869v-0.87C15.217,22.336,12.881,20,10,20z"/>
	</g>
</g>
</svg>
