<?xml version="1.0" encoding="utf-8"?>
<!-- Generator: Adobe Illustrator 16.0.3, SVG Export Plug-In . SVG Version: 6.00 Build 0)  -->
<!DOCTYPE svg PUBLIC "-//W3C//DTD SVG 1.1//EN" "http://www.w3.org/Graphics/SVG/1.1/DTD/svg11.dtd">
<svg version="1.1" xmlns="http://www.w3.org/2000/svg" xmlns:xlink="http://www.w3.org/1999/xlink" x="0px" y="0px" width="20px"
	 height="20px" viewBox="0 0 20 20" enable-background="new 0 0 20 20" xml:space="preserve">
<g id="Ebene_1">
</g>
<g id="Ebene_4">
	<g id="Your_Icon_3_">
		<path fill="#F2F2F2" d="M-2.353,1.176h-15.294c-1.3,0-2.353,1.053-2.353,2.353v8.235c0,1.299,1.053,2.353,2.353,2.353h1.176v4.118
			c0,0.151,0.057,0.301,0.173,0.417c0.229,0.23,0.602,0.23,0.832,0l4.877-4.534h8.235c1.299,0,2.353-1.054,2.353-2.353V3.529
			C0,2.229-1.054,1.176-2.353,1.176z M-15.882,4.706h9.412c0.325,0,0.588,0.263,0.588,0.588S-6.145,5.882-6.47,5.882h-9.412
			c-0.325,0-0.588-0.263-0.588-0.588S-16.208,4.706-15.882,4.706z M-11.176,10.588h-4.706c-0.325,0-0.588-0.263-0.588-0.588
			s0.263-0.588,0.588-0.588h4.706c0.325,0,0.588,0.263,0.588,0.588S-10.851,10.588-11.176,10.588z M-4.118,8.235h-11.765
			c-0.325,0-0.588-0.264-0.588-0.588c0-0.325,0.263-0.588,0.588-0.588h11.765c0.325,0,0.588,0.263,0.588,0.588
			C-3.53,7.972-3.792,8.235-4.118,8.235z"/>
	</g>
	<g>
		<path fill="#F2F2F2" d="M12.111,5c0.511-0.244,1-0.467,1.578-0.467c0.267,0,0.533,0.022,0.8,0.089c-0.267-0.6-0.867-1-1.578-1
			c-0.955,0-1.733,0.778-1.733,1.733v0.022C11.511,5.267,11.822,5.134,12.111,5z"/>
		<path fill="#F2F2F2" d="M6.311,4.533c0.733,0,1.267,0.267,1.778,0.512c0.245,0.11,0.466,0.222,0.733,0.311l0,0
			c0-0.955-0.777-1.733-1.733-1.733c-0.689,0-1.289,0.4-1.578,1C5.778,4.556,6.044,4.533,6.311,4.533z"/>
		<path fill="#F2F2F2" d="M18.578,8.867L15.689,6v0.022c-0.512-0.533-1.223-0.845-2.022-0.845C12.644,5.178,11.8,6.2,9.978,6.2
			s-2.4-1.022-3.689-1.022c-0.8,0-1.511,0.312-2.022,0.845l0,0L1.6,8.711c-0.267,0.2-0.511,0.444-0.711,0.712l0,0
			C0.333,10.155,0,11.066,0,12.066c0,2.378,1.933,4.312,4.311,4.312c1.866,0,3.444-1.178,4.044-2.845
			c0.4,0.444,0.978,0.733,1.645,0.733s1.245-0.289,1.644-0.733c0.601,1.667,2.178,2.845,4.045,2.845
			c2.378,0,4.311-1.934,4.311-4.312C20,10.8,19.444,9.667,18.578,8.867z M4.311,15.467c-1.867,0-3.4-1.511-3.4-3.4
			c0-1.889,1.533-3.377,3.4-3.377c1.866,0,3.4,1.511,3.4,3.399S6.177,15.467,4.311,15.467z M10,13.089
			c-0.556,0-1.022-0.467-1.022-1.022S9.444,11.045,10,11.045c0.555,0,1.022,0.466,1.022,1.021
			C11.022,12.645,10.555,13.089,10,13.089z M15.689,15.467c-1.867,0-3.4-1.511-3.4-3.4c0-1.889,1.511-3.399,3.4-3.399
			c1.889,0,3.399,1.511,3.399,3.399C19.088,13.956,17.555,15.467,15.689,15.467z"/>
	</g>
</g>
</svg>
