<?xml version="1.0" encoding="utf-8"?>
<!-- Generator: Adobe Illustrator 16.0.3, SVG Export Plug-In . SVG Version: 6.00 Build 0)  -->
<!DOCTYPE svg PUBLIC "-//W3C//DTD SVG 1.1//EN" "http://www.w3.org/Graphics/SVG/1.1/DTD/svg11.dtd">
<svg version="1.1" xmlns="http://www.w3.org/2000/svg" xmlns:xlink="http://www.w3.org/1999/xlink" x="0px" y="0px" width="20px"
	 height="20px" viewBox="0 0 20 20" enable-background="new 0 0 20 20" xml:space="preserve">
<g id="Ebene_1">
</g>
<g id="Ebene_4">
	<path fill="#323232" d="M19.068,16.457c-1.039-3.567-2.955-3.69-3.366-3.787c-0.048-0.011-0.098-0.021-0.146-0.03
		c-1.25-1.158-0.396-5.985-0.396-5.985c0-7.36-4.978-6.636-4.978-6.636c-0.061-0.004-0.121-0.005-0.18-0.008
		c-0.06,0.002-0.12,0.004-0.182,0.008c0,0-4.978-0.724-4.978,6.636c0,0,0.855,4.827-0.397,5.985c-0.049,0.009-0.097,0.02-0.145,0.03
		c-0.413,0.097-2.329,0.22-3.366,3.787c-0.141,0.486-0.092,1.012,0.138,1.443c0.85,1.607,5.317,2.101,8.93,2.1
		c3.611,0.002,8.078-0.493,8.928-2.1C19.158,17.469,19.207,16.943,19.068,16.457z M13.948,6.344
		c0.014,0.003,0.028,0.008,0.042,0.016c0.187,0.086,0.266,0.522,0.177,1.021c-0.067,0.382-0.216,0.697-0.375,0.831
		c-0.064,0.054-0.128,0.079-0.189,0.068c-0.035-0.005-0.068-0.023-0.096-0.049c-0.348,1.086-1.018,2.168-1.86,2.82
		c-0.492,0.379-1.044,0.612-1.626,0.612c-0.587,0-1.142-0.236-1.636-0.62C7.545,10.391,6.88,9.312,6.532,8.23
		c-0.028,0.026-0.06,0.044-0.095,0.049C6.364,8.292,6.289,8.256,6.216,8.182C6.069,8.036,5.935,7.738,5.87,7.38
		c-0.083-0.47-0.017-0.885,0.148-1.004c0.022-0.016,0.047-0.027,0.073-0.032c0.059-0.01,0.122,0.014,0.183,0.063l0,0l0,0
		c0,0,0-0.006,0-0.016c0.022-0.204,0.293-2.492,2.006-2.333l5.241,2.697 M13.208,12.785c-0.449,0.577-1.715,1.409-3.208,1.409
		s-2.76-0.832-3.209-1.409c-0.096-0.124-0.156-0.252-0.172-0.387v0c0.023-0.008,0.075-0.025,0.142-0.057
		c0.029-0.012,0.059-0.028,0.091-0.044c0.272-0.143,0.673-0.442,0.673-0.967c0.001-0.001,0.001-0.001,0.001-0.001
		c0.431,0.427,0.909,0.766,1.421,0.968c0.344,0.137,0.703,0.212,1.072,0.212s0.728-0.076,1.072-0.212
		c0.507-0.201,0.982-0.534,1.409-0.957c0.004,0.002,0.006,0.003,0.01,0.005c0.009,0.676,0.689,0.973,0.874,1.042
		c-0.001,0.003-0.001,0.007-0.001,0.011C13.365,12.532,13.306,12.661,13.208,12.785z"/>
	<g id="Слой_1_4_">
		<path fill="#323232" d="M-0.445,12.088h-0.422l-0.267-0.266c-0.044-2.266-0.755-3.8-0.755-3.8l-0.022-0.2
			c0-0.021,0.4-1.311,0.333-2.133l0.534-0.111l0.867,2.711L0,10.267v0.044l-0.178,1.534L-0.445,12.088z M-1.333,7.866
			c0.132,0.334,0.556,1.444,0.71,3.089l0.066-0.688l-0.155-1.934l-0.422-1.311C-1.222,7.4-1.289,7.711-1.333,7.866z"/>
	</g>
	<path fill="#F2F2F2" d="M19.068,36.457c-1.039-3.567-2.955-3.69-3.366-3.787c-0.048-0.011-0.098-0.021-0.146-0.03
		c-1.25-1.158-0.396-5.985-0.396-5.985c0-7.36-4.978-6.636-4.978-6.636c-0.061-0.004-0.121-0.005-0.18-0.008
		c-0.06,0.002-0.12,0.004-0.182,0.008c0,0-4.978-0.724-4.978,6.636c0,0,0.855,4.827-0.397,5.985c-0.049,0.009-0.097,0.02-0.145,0.03
		c-0.413,0.097-2.329,0.22-3.366,3.787c-0.141,0.486-0.092,1.012,0.138,1.443c0.85,1.607,5.317,2.101,8.93,2.1
		c3.611,0.002,8.078-0.493,8.928-2.1C19.158,37.469,19.207,36.943,19.068,36.457z M13.948,26.344
		c0.014,0.003,0.028,0.008,0.042,0.016c0.187,0.086,0.266,0.522,0.177,1.021c-0.067,0.382-0.216,0.697-0.375,0.831
		c-0.064,0.054-0.128,0.079-0.189,0.068c-0.035-0.005-0.068-0.023-0.096-0.049c-0.348,1.086-1.018,2.168-1.86,2.82
		c-0.492,0.379-1.044,0.612-1.626,0.612c-0.587,0-1.142-0.236-1.636-0.62c-0.839-0.651-1.504-1.73-1.852-2.812
		c-0.028,0.026-0.06,0.044-0.095,0.049c-0.073,0.013-0.148-0.023-0.221-0.097c-0.147-0.146-0.282-0.444-0.346-0.801
		c-0.083-0.47-0.017-0.885,0.148-1.004c0.022-0.016,0.047-0.027,0.073-0.032c0.059-0.01,0.122,0.014,0.183,0.063l0,0l0,0
		c0,0,0-0.006,0-0.016c0.022-0.204,0.293-2.492,2.006-2.333l5.241,2.697 M13.208,32.785c-0.449,0.577-1.715,1.409-3.208,1.409
		s-2.76-0.832-3.209-1.409c-0.096-0.124-0.156-0.252-0.172-0.387v0c0.023-0.008,0.075-0.025,0.142-0.057
		c0.029-0.012,0.059-0.028,0.091-0.044c0.272-0.143,0.673-0.442,0.673-0.967c0.001-0.001,0.001-0.001,0.001-0.001
		c0.431,0.427,0.909,0.766,1.421,0.968c0.344,0.137,0.703,0.212,1.072,0.212s0.728-0.076,1.072-0.212
		c0.507-0.201,0.982-0.534,1.409-0.957c0.004,0.002,0.006,0.003,0.01,0.005c0.009,0.676,0.689,0.973,0.874,1.042
		c-0.001,0.003-0.001,0.007-0.001,0.011C13.365,32.532,13.306,32.661,13.208,32.785z"/>
	<g id="Слой_1_1_">
	</g>
</g>
</svg>
