<?xml version="1.0" encoding="utf-8"?>
<!-- Generator: Adobe Illustrator 16.0.3, SVG Export Plug-In . SVG Version: 6.00 Build 0)  -->
<!DOCTYPE svg PUBLIC "-//W3C//DTD SVG 1.1//EN" "http://www.w3.org/Graphics/SVG/1.1/DTD/svg11.dtd">
<svg version="1.1" xmlns="http://www.w3.org/2000/svg" xmlns:xlink="http://www.w3.org/1999/xlink" x="0px" y="0px" width="20px"
	 height="20px" viewBox="0 0 20 20" enable-background="new 0 0 20 20" xml:space="preserve">
<g id="Ebene_1">
</g>
<g id="Ebene_4">
	<g id="WATER_2_">
		<path fill="#323232" d="M30,0C24.485,0,20,4.485,20,10c0,5.515,4.485,10,10,10c5.514,0,10-4.485,10-10C40,4.485,35.514,0,30,0z
			 M34.347,3.04l-1.162,2.016l-0.501-0.291l1.161-2.014L34.347,3.04z M36.959,5.652l0.29,0.502l-2.015,1.162l-0.29-0.502
			L36.959,5.652z M35.875,9.708H38.2v0.582h-2.325V9.708z M30,18.606c-4.746,0-8.607-3.861-8.607-8.607
			c0-4.648,3.706-8.445,8.316-8.6V10c0,0.102,0.055,0.196,0.141,0.248l7.358,4.446C35.671,17.047,33.015,18.606,30,18.606z"/>
	</g>
	<path fill="#323232" d="M7.44,9.032L6.136,7.773c-0.439-0.438-0.439-1.144,0-1.579c0.434-0.436,1.141-0.436,1.54,0l1.259,1.297
		l0.274-0.235c0.282-0.274,0.4-0.589,0.4-0.945c0-0.357-0.158-0.674-0.4-0.909L6.491,2.639C6.213,2.404,5.9,2.247,5.541,2.247
		c-0.353,0-0.706,0.157-0.942,0.392L2.549,4.696c-0.282,0.235-0.4,0.588-0.4,0.941c0,0.4,0.157,0.674,0.4,0.952l2.717,2.717
		c0.47,0.517,1.384,0.517,1.855,0L7.44,9.032z M17.773,14.48c0-0.359-0.157-0.675-0.399-0.913l-2.716-2.725
		c-0.236-0.274-0.552-0.431-0.949-0.431c-0.355,0-0.671,0.157-0.945,0.431l-0.282,0.243c0,0,1.227,1.219,1.305,1.258
		c0.438,0.439,0.438,1.145,0,1.541c-0.434,0.433-1.141,0.433-1.58,0c-0.078-0.079-1.258-1.304-1.258-1.304l-0.196,0.282
		c-0.281,0.274-0.399,0.588-0.399,0.944c0,0.353,0.157,0.712,0.399,0.91l2.72,2.758c0.509,0.515,1.379,0.515,1.851,0l2.05-2.052
		C17.616,15.187,17.773,14.833,17.773,14.48L17.773,14.48z M18.953,11.991c0.674,0.667,1.027,1.538,1.027,2.45
		c0,0.942-0.391,1.812-1.027,2.482l-2.05,2.051C16.194,19.647,15.364,20,14.421,20c-0.948,0-1.815-0.353-2.489-1.027l-2.725-2.721
		c-0.627-0.673-1.021-1.537-1.021-2.485c0-0.945,0.395-1.816,1.021-2.485l0.282-0.274L8.973,10.49l-0.236,0.275
		c-0.708,0.635-1.58,1.031-2.483,1.031c-0.949,0-1.812-0.396-2.486-1.031L1.047,8.048C0.374,7.375,0.02,6.511,0.02,5.559
		c0-0.941,0.354-1.811,1.027-2.481l2.05-2.054C3.768,0.353,4.637,0,5.58,0C6.53,0,7.401,0.353,8.068,1.024l2.724,2.724
		c0.669,0.674,1.023,1.537,1.023,2.485c0,0.945-0.393,1.816-1.023,2.485l-0.281,0.235l0.516,0.517l0.279-0.242
		c0.627-0.67,1.497-1.024,2.442-1.024c0.949,0,1.811,0.396,2.486,1.024L18.953,11.991z"/>
	<path fill="#323232" d="M-0.002,17.146H-20V7.614l6.993,4.848c0.89,0.608,1.952,0.871,3.006,0.877
		c1.048-0.002,2.109-0.269,2.999-0.877L0,7.614v9.532H-0.002z M-0.002,4.832L-8.3,10.583c-0.408,0.284-1.049,0.472-1.701,0.471
		c-0.653,0.001-1.299-0.187-1.701-0.471L-20,4.833V2.854h19.998V4.832z"/>
	<path fill="#F2F2F2" d="M7.44,29.032l-1.304-1.259c-0.439-0.438-0.439-1.144,0-1.579c0.434-0.436,1.141-0.436,1.54,0l1.259,1.297
		l0.274-0.235c0.282-0.274,0.4-0.589,0.4-0.945c0-0.357-0.158-0.674-0.4-0.909l-2.717-2.764c-0.278-0.235-0.591-0.392-0.951-0.392
		c-0.353,0-0.706,0.157-0.942,0.392l-2.049,2.057c-0.282,0.235-0.4,0.588-0.4,0.941c0,0.4,0.157,0.674,0.4,0.952l2.717,2.717
		c0.47,0.517,1.384,0.517,1.855,0L7.44,29.032z M17.773,34.48c0-0.359-0.157-0.675-0.399-0.913l-2.716-2.725
		c-0.236-0.274-0.552-0.431-0.949-0.431c-0.355,0-0.671,0.157-0.945,0.431l-0.282,0.243c0,0,1.227,1.219,1.305,1.258
		c0.438,0.439,0.438,1.145,0,1.541c-0.434,0.433-1.141,0.433-1.58,0c-0.078-0.079-1.258-1.304-1.258-1.304l-0.196,0.282
		c-0.281,0.274-0.399,0.588-0.399,0.944c0,0.353,0.157,0.712,0.399,0.91l2.72,2.758c0.509,0.515,1.379,0.515,1.851,0l2.05-2.052
		C17.616,35.187,17.773,34.833,17.773,34.48L17.773,34.48z M18.953,31.991c0.674,0.667,1.027,1.538,1.027,2.45
		c0,0.942-0.391,1.812-1.027,2.482l-2.05,2.051C16.194,39.647,15.364,40,14.421,40c-0.948,0-1.815-0.353-2.489-1.027l-2.725-2.721
		c-0.627-0.673-1.021-1.537-1.021-2.485c0-0.945,0.395-1.816,1.021-2.485l0.282-0.274L8.973,30.49l-0.236,0.275
		c-0.708,0.635-1.58,1.031-2.483,1.031c-0.949,0-1.812-0.396-2.486-1.031l-2.721-2.717c-0.673-0.674-1.027-1.537-1.027-2.49
		c0-0.941,0.354-1.811,1.027-2.481l2.05-2.054C3.768,20.353,4.637,20,5.58,20c0.951,0,1.821,0.353,2.489,1.024l2.724,2.724
		c0.669,0.674,1.023,1.537,1.023,2.485c0,0.945-0.393,1.816-1.023,2.485l-0.281,0.235l0.516,0.517l0.279-0.242
		c0.627-0.67,1.497-1.024,2.442-1.024c0.949,0,1.811,0.396,2.486,1.024L18.953,31.991z"/>
</g>
</svg>
